<?xml version="1.0" encoding="utf-8" standalone="no"?>
<!DOCTYPE svg PUBLIC "-//W3C//DTD SVG 1.1//EN"
  "http://www.w3.org/Graphics/SVG/1.1/DTD/svg11.dtd">
<svg xmlns:xlink="http://www.w3.org/1999/xlink" width="518.829062pt" height="504.380687pt" viewBox="0 0 518.829062 504.380687" xmlns="http://www.w3.org/2000/svg" version="1.1">
 <metadata>
  <rdf:RDF xmlns:dc="http://purl.org/dc/elements/1.1/" xmlns:cc="http://creativecommons.org/ns#" xmlns:rdf="http://www.w3.org/1999/02/22-rdf-syntax-ns#">
   <cc:Work>
    <dc:type rdf:resource="http://purl.org/dc/dcmitype/StillImage"/>
    <dc:date>2026-04-09T12:24:33.868566</dc:date>
    <dc:format>image/svg+xml</dc:format>
    <dc:creator>
     <cc:Agent>
      <dc:title>Matplotlib v3.10.8, https://matplotlib.org/</dc:title>
     </cc:Agent>
    </dc:creator>
   </cc:Work>
  </rdf:RDF>
 </metadata>
 <defs>
  <style type="text/css">*{stroke-linejoin: round; stroke-linecap: butt}</style>
 </defs>
 <g id="figure_1">
  <g id="patch_1">
   <path d="M 0 504.380687 
L 518.829062 504.380687 
L 518.829062 0 
L 0 0 
z
" style="fill: #ffffff"/>
  </g>
  <g id="axes_1">
   <g id="patch_2">
    <path d="M 65.229062 483.03475 
L 511.629062 483.03475 
L 511.629062 39.51475 
L 65.229062 39.51475 
z
" style="fill: #ffffff"/>
   </g>
   <g id="PathCollection_1">
    <path d="M 139.629062 64.015004 
C 141.925789 64.015004 144.128756 63.102505 145.752787 61.478474 
C 147.376817 59.854444 148.289316 57.651476 148.289316 55.35475 
C 148.289316 53.058024 147.376817 50.855056 145.752787 49.231026 
C 144.128756 47.606995 141.925789 46.694496 139.629062 46.694496 
C 137.332336 46.694496 135.129369 47.606995 133.505338 49.231026 
C 131.881308 50.855056 130.968809 53.058024 130.968809 55.35475 
C 130.968809 57.651476 131.881308 59.854444 133.505338 61.478474 
C 135.129369 63.102505 137.332336 64.015004 139.629062 64.015004 
z
" clip-path="url(#p4eadfe8f24)" style="fill: #3e5c76; fill-opacity: 0.9"/>
   </g>
   <g id="PathCollection_2">
    <path d="M 288.429062 64.015004 
C 290.725789 64.015004 292.928756 63.102505 294.552787 61.478474 
C 296.176817 59.854444 297.089316 57.651476 297.089316 55.35475 
C 297.089316 53.058024 296.176817 50.855056 294.552787 49.231026 
C 292.928756 47.606995 290.725789 46.694496 288.429062 46.694496 
C 286.132336 46.694496 283.929369 47.606995 282.305338 49.231026 
C 280.681308 50.855056 279.768809 53.058024 279.768809 55.35475 
C 279.768809 57.651476 280.681308 59.854444 282.305338 61.478474 
C 283.929369 63.102505 286.132336 64.015004 288.429062 64.015004 
z
" clip-path="url(#p4eadfe8f24)" style="fill: #3e5c76; fill-opacity: 0.9"/>
   </g>
   <g id="PathCollection_3">
    <path d="M 437.229062 64.015004 
C 439.525789 64.015004 441.728756 63.102505 443.352787 61.478474 
C 444.976817 59.854444 445.889316 57.651476 445.889316 55.35475 
C 445.889316 53.058024 444.976817 50.855056 443.352787 49.231026 
C 441.728756 47.606995 439.525789 46.694496 437.229062 46.694496 
C 434.932336 46.694496 432.729369 47.606995 431.105338 49.231026 
C 429.481308 50.855056 428.568809 53.058024 428.568809 55.35475 
C 428.568809 57.651476 429.481308 59.854444 431.105338 61.478474 
C 432.729369 63.102505 434.932336 64.015004 437.229062 64.015004 
z
" clip-path="url(#p4eadfe8f24)" style="fill: #3e5c76; fill-opacity: 0.9"/>
   </g>
   <g id="PathCollection_4">
    <path d="M 139.629062 91.506886 
C 140.815087 91.506886 141.952694 91.035673 142.79134 90.197028 
C 143.629986 89.358382 144.101198 88.220774 144.101198 87.03475 
C 144.101198 85.848726 143.629986 84.711118 142.79134 83.872472 
C 141.952694 83.033827 140.815087 82.562614 139.629062 82.562614 
C 138.443038 82.562614 137.305431 83.033827 136.466785 83.872472 
C 135.628139 84.711118 135.156927 85.848726 135.156927 87.03475 
C 135.156927 88.220774 135.628139 89.358382 136.466785 90.197028 
C 137.305431 91.035673 138.443038 91.506886 139.629062 91.506886 
z
" clip-path="url(#p4eadfe8f24)" style="fill: #8c3b3b; fill-opacity: 0.3"/>
   </g>
   <g id="PathCollection_5">
    <path d="M 288.429062 91.506886 
C 289.615087 91.506886 290.752694 91.035673 291.59134 90.197028 
C 292.429986 89.358382 292.901198 88.220774 292.901198 87.03475 
C 292.901198 85.848726 292.429986 84.711118 291.59134 83.872472 
C 290.752694 83.033827 289.615087 82.562614 288.429062 82.562614 
C 287.243038 82.562614 286.105431 83.033827 285.266785 83.872472 
C 284.428139 84.711118 283.956927 85.848726 283.956927 87.03475 
C 283.956927 88.220774 284.428139 89.358382 285.266785 90.197028 
C 286.105431 91.035673 287.243038 91.506886 288.429062 91.506886 
z
" clip-path="url(#p4eadfe8f24)" style="fill: #8c3b3b; fill-opacity: 0.3"/>
   </g>
   <g id="PathCollection_6">
    <path d="M 437.229062 91.506886 
C 438.415087 91.506886 439.552694 91.035673 440.39134 90.197028 
C 441.229986 89.358382 441.701198 88.220774 441.701198 87.03475 
C 441.701198 85.848726 441.229986 84.711118 440.39134 83.872472 
C 439.552694 83.033827 438.415087 82.562614 437.229062 82.562614 
C 436.043038 82.562614 434.905431 83.033827 434.066785 83.872472 
C 433.228139 84.711118 432.756927 85.848726 432.756927 87.03475 
C 432.756927 88.220774 433.228139 89.358382 434.066785 90.197028 
C 434.905431 91.035673 436.043038 91.506886 437.229062 91.506886 
z
" clip-path="url(#p4eadfe8f24)" style="fill: #8c3b3b; fill-opacity: 0.3"/>
   </g>
   <g id="PathCollection_7">
    <path d="M 139.629062 123.186886 
C 140.815087 123.186886 141.952694 122.715673 142.79134 121.877028 
C 143.629986 121.038382 144.101198 119.900774 144.101198 118.71475 
C 144.101198 117.528726 143.629986 116.391118 142.79134 115.552472 
C 141.952694 114.713827 140.815087 114.242614 139.629062 114.242614 
C 138.443038 114.242614 137.305431 114.713827 136.466785 115.552472 
C 135.628139 116.391118 135.156927 117.528726 135.156927 118.71475 
C 135.156927 119.900774 135.628139 121.038382 136.466785 121.877028 
C 137.305431 122.715673 138.443038 123.186886 139.629062 123.186886 
z
" clip-path="url(#p4eadfe8f24)" style="fill: #8c3b3b; fill-opacity: 0.3"/>
   </g>
   <g id="PathCollection_8">
    <path d="M 288.429062 123.186886 
C 289.615087 123.186886 290.752694 122.715673 291.59134 121.877028 
C 292.429986 121.038382 292.901198 119.900774 292.901198 118.71475 
C 292.901198 117.528726 292.429986 116.391118 291.59134 115.552472 
C 290.752694 114.713827 289.615087 114.242614 288.429062 114.242614 
C 287.243038 114.242614 286.105431 114.713827 285.266785 115.552472 
C 284.428139 116.391118 283.956927 117.528726 283.956927 118.71475 
C 283.956927 119.900774 284.428139 121.038382 285.266785 121.877028 
C 286.105431 122.715673 287.243038 123.186886 288.429062 123.186886 
z
" clip-path="url(#p4eadfe8f24)" style="fill: #8c3b3b; fill-opacity: 0.3"/>
   </g>
   <g id="PathCollection_9">
    <path d="M 437.229062 123.186886 
C 438.415087 123.186886 439.552694 122.715673 440.39134 121.877028 
C 441.229986 121.038382 441.701198 119.900774 441.701198 118.71475 
C 441.701198 117.528726 441.229986 116.391118 440.39134 115.552472 
C 439.552694 114.713827 438.415087 114.242614 437.229062 114.242614 
C 436.043038 114.242614 434.905431 114.713827 434.066785 115.552472 
C 433.228139 116.391118 432.756927 117.528726 432.756927 118.71475 
C 432.756927 119.900774 433.228139 121.038382 434.066785 121.877028 
C 434.905431 122.715673 436.043038 123.186886 437.229062 123.186886 
z
" clip-path="url(#p4eadfe8f24)" style="fill: #8c3b3b; fill-opacity: 0.3"/>
   </g>
   <g id="PathCollection_10">
    <path d="M 139.629062 154.866886 
C 140.815087 154.866886 141.952694 154.395673 142.79134 153.557028 
C 143.629986 152.718382 144.101198 151.580774 144.101198 150.39475 
C 144.101198 149.208726 143.629986 148.071118 142.79134 147.232472 
C 141.952694 146.393827 140.815087 145.922614 139.629062 145.922614 
C 138.443038 145.922614 137.305431 146.393827 136.466785 147.232472 
C 135.628139 148.071118 135.156927 149.208726 135.156927 150.39475 
C 135.156927 151.580774 135.628139 152.718382 136.466785 153.557028 
C 137.305431 154.395673 138.443038 154.866886 139.629062 154.866886 
z
" clip-path="url(#p4eadfe8f24)" style="fill: #3e5c76; fill-opacity: 0.3"/>
   </g>
   <g id="PathCollection_11">
    <path d="M 288.429062 154.866886 
C 289.615087 154.866886 290.752694 154.395673 291.59134 153.557028 
C 292.429986 152.718382 292.901198 151.580774 292.901198 150.39475 
C 292.901198 149.208726 292.429986 148.071118 291.59134 147.232472 
C 290.752694 146.393827 289.615087 145.922614 288.429062 145.922614 
C 287.243038 145.922614 286.105431 146.393827 285.266785 147.232472 
C 284.428139 148.071118 283.956927 149.208726 283.956927 150.39475 
C 283.956927 151.580774 284.428139 152.718382 285.266785 153.557028 
C 286.105431 154.395673 287.243038 154.866886 288.429062 154.866886 
z
" clip-path="url(#p4eadfe8f24)" style="fill: #8c3b3b; fill-opacity: 0.3"/>
   </g>
   <g id="PathCollection_12">
    <path d="M 437.229062 157.805967 
C 439.19454 157.805967 441.079782 157.025075 442.469584 155.635272 
C 443.859387 154.245469 444.64028 152.360228 444.64028 150.39475 
C 444.64028 148.429272 443.859387 146.544031 442.469584 145.154228 
C 441.079782 143.764425 439.19454 142.983533 437.229062 142.983533 
C 435.263585 142.983533 433.378343 143.764425 431.988541 145.154228 
C 430.598738 146.544031 429.817845 148.429272 429.817845 150.39475 
C 429.817845 152.360228 430.598738 154.245469 431.988541 155.635272 
C 433.378343 157.025075 435.263585 157.805967 437.229062 157.805967 
z
" clip-path="url(#p4eadfe8f24)" style="fill: #8c3b3b; fill-opacity: 0.9"/>
   </g>
   <g id="PathCollection_13">
    <path d="M 139.629062 186.546886 
C 140.815087 186.546886 141.952694 186.075673 142.79134 185.237028 
C 143.629986 184.398382 144.101198 183.260774 144.101198 182.07475 
C 144.101198 180.888726 143.629986 179.751118 142.79134 178.912472 
C 141.952694 178.073827 140.815087 177.602614 139.629062 177.602614 
C 138.443038 177.602614 137.305431 178.073827 136.466785 178.912472 
C 135.628139 179.751118 135.156927 180.888726 135.156927 182.07475 
C 135.156927 183.260774 135.628139 184.398382 136.466785 185.237028 
C 137.305431 186.075673 138.443038 186.546886 139.629062 186.546886 
z
" clip-path="url(#p4eadfe8f24)" style="fill: #3e5c76; fill-opacity: 0.3"/>
   </g>
   <g id="PathCollection_14">
    <path d="M 288.429062 186.546886 
C 289.615087 186.546886 290.752694 186.075673 291.59134 185.237028 
C 292.429986 184.398382 292.901198 183.260774 292.901198 182.07475 
C 292.901198 180.888726 292.429986 179.751118 291.59134 178.912472 
C 290.752694 178.073827 289.615087 177.602614 288.429062 177.602614 
C 287.243038 177.602614 286.105431 178.073827 285.266785 178.912472 
C 284.428139 179.751118 283.956927 180.888726 283.956927 182.07475 
C 283.956927 183.260774 284.428139 184.398382 285.266785 185.237028 
C 286.105431 186.075673 287.243038 186.546886 288.429062 186.546886 
z
" clip-path="url(#p4eadfe8f24)" style="fill: #8c3b3b; fill-opacity: 0.3"/>
   </g>
   <g id="PathCollection_15">
    <path d="M 437.229062 186.546886 
C 438.415087 186.546886 439.552694 186.075673 440.39134 185.237028 
C 441.229986 184.398382 441.701198 183.260774 441.701198 182.07475 
C 441.701198 180.888726 441.229986 179.751118 440.39134 178.912472 
C 439.552694 178.073827 438.415087 177.602614 437.229062 177.602614 
C 436.043038 177.602614 434.905431 178.073827 434.066785 178.912472 
C 433.228139 179.751118 432.756927 180.888726 432.756927 182.07475 
C 432.756927 183.260774 433.228139 184.398382 434.066785 185.237028 
C 434.905431 186.075673 436.043038 186.546886 437.229062 186.546886 
z
" clip-path="url(#p4eadfe8f24)" style="fill: #8c3b3b; fill-opacity: 0.3"/>
   </g>
   <g id="PathCollection_16">
    <path d="M 139.629062 218.226886 
C 140.815087 218.226886 141.952694 217.755673 142.79134 216.917028 
C 143.629986 216.078382 144.101198 214.940774 144.101198 213.75475 
C 144.101198 212.568726 143.629986 211.431118 142.79134 210.592472 
C 141.952694 209.753827 140.815087 209.282614 139.629062 209.282614 
C 138.443038 209.282614 137.305431 209.753827 136.466785 210.592472 
C 135.628139 211.431118 135.156927 212.568726 135.156927 213.75475 
C 135.156927 214.940774 135.628139 216.078382 136.466785 216.917028 
C 137.305431 217.755673 138.443038 218.226886 139.629062 218.226886 
z
" clip-path="url(#p4eadfe8f24)" style="fill: #8c3b3b; fill-opacity: 0.3"/>
   </g>
   <g id="PathCollection_17">
    <path d="M 288.429062 218.226886 
C 289.615087 218.226886 290.752694 217.755673 291.59134 216.917028 
C 292.429986 216.078382 292.901198 214.940774 292.901198 213.75475 
C 292.901198 212.568726 292.429986 211.431118 291.59134 210.592472 
C 290.752694 209.753827 289.615087 209.282614 288.429062 209.282614 
C 287.243038 209.282614 286.105431 209.753827 285.266785 210.592472 
C 284.428139 211.431118 283.956927 212.568726 283.956927 213.75475 
C 283.956927 214.940774 284.428139 216.078382 285.266785 216.917028 
C 286.105431 217.755673 287.243038 218.226886 288.429062 218.226886 
z
" clip-path="url(#p4eadfe8f24)" style="fill: #3e5c76; fill-opacity: 0.3"/>
   </g>
   <g id="PathCollection_18">
    <path d="M 437.229062 218.226886 
C 438.415087 218.226886 439.552694 217.755673 440.39134 216.917028 
C 441.229986 216.078382 441.701198 214.940774 441.701198 213.75475 
C 441.701198 212.568726 441.229986 211.431118 440.39134 210.592472 
C 439.552694 209.753827 438.415087 209.282614 437.229062 209.282614 
C 436.043038 209.282614 434.905431 209.753827 434.066785 210.592472 
C 433.228139 211.431118 432.756927 212.568726 432.756927 213.75475 
C 432.756927 214.940774 433.228139 216.078382 434.066785 216.917028 
C 434.905431 217.755673 436.043038 218.226886 437.229062 218.226886 
z
" clip-path="url(#p4eadfe8f24)" style="fill: #3e5c76; fill-opacity: 0.3"/>
   </g>
   <g id="PathCollection_19">
    <path d="M 139.629062 249.906886 
C 140.815087 249.906886 141.952694 249.435673 142.79134 248.597028 
C 143.629986 247.758382 144.101198 246.620774 144.101198 245.43475 
C 144.101198 244.248726 143.629986 243.111118 142.79134 242.272472 
C 141.952694 241.433827 140.815087 240.962614 139.629062 240.962614 
C 138.443038 240.962614 137.305431 241.433827 136.466785 242.272472 
C 135.628139 243.111118 135.156927 244.248726 135.156927 245.43475 
C 135.156927 246.620774 135.628139 247.758382 136.466785 248.597028 
C 137.305431 249.435673 138.443038 249.906886 139.629062 249.906886 
z
" clip-path="url(#p4eadfe8f24)" style="fill: #3e5c76; fill-opacity: 0.3"/>
   </g>
   <g id="PathCollection_20">
    <path d="M 288.429062 249.906886 
C 289.615087 249.906886 290.752694 249.435673 291.59134 248.597028 
C 292.429986 247.758382 292.901198 246.620774 292.901198 245.43475 
C 292.901198 244.248726 292.429986 243.111118 291.59134 242.272472 
C 290.752694 241.433827 289.615087 240.962614 288.429062 240.962614 
C 287.243038 240.962614 286.105431 241.433827 285.266785 242.272472 
C 284.428139 243.111118 283.956927 244.248726 283.956927 245.43475 
C 283.956927 246.620774 284.428139 247.758382 285.266785 248.597028 
C 286.105431 249.435673 287.243038 249.906886 288.429062 249.906886 
z
" clip-path="url(#p4eadfe8f24)" style="fill: #8c3b3b; fill-opacity: 0.3"/>
   </g>
   <g id="PathCollection_21">
    <path d="M 437.229062 252.845967 
C 439.19454 252.845967 441.079782 252.065075 442.469584 250.675272 
C 443.859387 249.285469 444.64028 247.400228 444.64028 245.43475 
C 444.64028 243.469272 443.859387 241.584031 442.469584 240.194228 
C 441.079782 238.804425 439.19454 238.023533 437.229062 238.023533 
C 435.263585 238.023533 433.378343 238.804425 431.988541 240.194228 
C 430.598738 241.584031 429.817845 243.469272 429.817845 245.43475 
C 429.817845 247.400228 430.598738 249.285469 431.988541 250.675272 
C 433.378343 252.065075 435.263585 252.845967 437.229062 252.845967 
z
" clip-path="url(#p4eadfe8f24)" style="fill: #8c3b3b; fill-opacity: 0.9"/>
   </g>
   <g id="PathCollection_22">
    <path d="M 139.629062 281.586886 
C 140.815087 281.586886 141.952694 281.115673 142.79134 280.277028 
C 143.629986 279.438382 144.101198 278.300774 144.101198 277.11475 
C 144.101198 275.928726 143.629986 274.791118 142.79134 273.952472 
C 141.952694 273.113827 140.815087 272.642614 139.629062 272.642614 
C 138.443038 272.642614 137.305431 273.113827 136.466785 273.952472 
C 135.628139 274.791118 135.156927 275.928726 135.156927 277.11475 
C 135.156927 278.300774 135.628139 279.438382 136.466785 280.277028 
C 137.305431 281.115673 138.443038 281.586886 139.629062 281.586886 
z
" clip-path="url(#p4eadfe8f24)" style="fill: #3e5c76; fill-opacity: 0.3"/>
   </g>
   <g id="PathCollection_23">
    <path d="M 288.429062 281.586886 
C 289.615087 281.586886 290.752694 281.115673 291.59134 280.277028 
C 292.429986 279.438382 292.901198 278.300774 292.901198 277.11475 
C 292.901198 275.928726 292.429986 274.791118 291.59134 273.952472 
C 290.752694 273.113827 289.615087 272.642614 288.429062 272.642614 
C 287.243038 272.642614 286.105431 273.113827 285.266785 273.952472 
C 284.428139 274.791118 283.956927 275.928726 283.956927 277.11475 
C 283.956927 278.300774 284.428139 279.438382 285.266785 280.277028 
C 286.105431 281.115673 287.243038 281.586886 288.429062 281.586886 
z
" clip-path="url(#p4eadfe8f24)" style="fill: #8c3b3b; fill-opacity: 0.3"/>
   </g>
   <g id="PathCollection_24">
    <path d="M 437.229062 281.586886 
C 438.415087 281.586886 439.552694 281.115673 440.39134 280.277028 
C 441.229986 279.438382 441.701198 278.300774 441.701198 277.11475 
C 441.701198 275.928726 441.229986 274.791118 440.39134 273.952472 
C 439.552694 273.113827 438.415087 272.642614 437.229062 272.642614 
C 436.043038 272.642614 434.905431 273.113827 434.066785 273.952472 
C 433.228139 274.791118 432.756927 275.928726 432.756927 277.11475 
C 432.756927 278.300774 433.228139 279.438382 434.066785 280.277028 
C 434.905431 281.115673 436.043038 281.586886 437.229062 281.586886 
z
" clip-path="url(#p4eadfe8f24)" style="fill: #8c3b3b; fill-opacity: 0.3"/>
   </g>
   <g id="PathCollection_25">
    <path d="M 139.629062 313.266886 
C 140.815087 313.266886 141.952694 312.795673 142.79134 311.957028 
C 143.629986 311.118382 144.101198 309.980774 144.101198 308.79475 
C 144.101198 307.608726 143.629986 306.471118 142.79134 305.632472 
C 141.952694 304.793827 140.815087 304.322614 139.629062 304.322614 
C 138.443038 304.322614 137.305431 304.793827 136.466785 305.632472 
C 135.628139 306.471118 135.156927 307.608726 135.156927 308.79475 
C 135.156927 309.980774 135.628139 311.118382 136.466785 311.957028 
C 137.305431 312.795673 138.443038 313.266886 139.629062 313.266886 
z
" clip-path="url(#p4eadfe8f24)" style="fill: #8c3b3b; fill-opacity: 0.3"/>
   </g>
   <g id="PathCollection_26">
    <path d="M 288.429062 313.266886 
C 289.615087 313.266886 290.752694 312.795673 291.59134 311.957028 
C 292.429986 311.118382 292.901198 309.980774 292.901198 308.79475 
C 292.901198 307.608726 292.429986 306.471118 291.59134 305.632472 
C 290.752694 304.793827 289.615087 304.322614 288.429062 304.322614 
C 287.243038 304.322614 286.105431 304.793827 285.266785 305.632472 
C 284.428139 306.471118 283.956927 307.608726 283.956927 308.79475 
C 283.956927 309.980774 284.428139 311.118382 285.266785 311.957028 
C 286.105431 312.795673 287.243038 313.266886 288.429062 313.266886 
z
" clip-path="url(#p4eadfe8f24)" style="fill: #3e5c76; fill-opacity: 0.3"/>
   </g>
   <g id="PathCollection_27">
    <path d="M 437.229062 313.266886 
C 438.415087 313.266886 439.552694 312.795673 440.39134 311.957028 
C 441.229986 311.118382 441.701198 309.980774 441.701198 308.79475 
C 441.701198 307.608726 441.229986 306.471118 440.39134 305.632472 
C 439.552694 304.793827 438.415087 304.322614 437.229062 304.322614 
C 436.043038 304.322614 434.905431 304.793827 434.066785 305.632472 
C 433.228139 306.471118 432.756927 307.608726 432.756927 308.79475 
C 432.756927 309.980774 433.228139 311.118382 434.066785 311.957028 
C 434.905431 312.795673 436.043038 313.266886 437.229062 313.266886 
z
" clip-path="url(#p4eadfe8f24)" style="fill: #3e5c76; fill-opacity: 0.3"/>
   </g>
   <g id="PathCollection_28">
    <path d="M 139.629062 344.946886 
C 140.815087 344.946886 141.952694 344.475673 142.79134 343.637028 
C 143.629986 342.798382 144.101198 341.660774 144.101198 340.47475 
C 144.101198 339.288726 143.629986 338.151118 142.79134 337.312472 
C 141.952694 336.473827 140.815087 336.002614 139.629062 336.002614 
C 138.443038 336.002614 137.305431 336.473827 136.466785 337.312472 
C 135.628139 338.151118 135.156927 339.288726 135.156927 340.47475 
C 135.156927 341.660774 135.628139 342.798382 136.466785 343.637028 
C 137.305431 344.475673 138.443038 344.946886 139.629062 344.946886 
z
" clip-path="url(#p4eadfe8f24)" style="fill: #3e5c76; fill-opacity: 0.3"/>
   </g>
   <g id="PathCollection_29">
    <path d="M 288.429062 344.946886 
C 289.615087 344.946886 290.752694 344.475673 291.59134 343.637028 
C 292.429986 342.798382 292.901198 341.660774 292.901198 340.47475 
C 292.901198 339.288726 292.429986 338.151118 291.59134 337.312472 
C 290.752694 336.473827 289.615087 336.002614 288.429062 336.002614 
C 287.243038 336.002614 286.105431 336.473827 285.266785 337.312472 
C 284.428139 338.151118 283.956927 339.288726 283.956927 340.47475 
C 283.956927 341.660774 284.428139 342.798382 285.266785 343.637028 
C 286.105431 344.475673 287.243038 344.946886 288.429062 344.946886 
z
" clip-path="url(#p4eadfe8f24)" style="fill: #8c3b3b; fill-opacity: 0.3"/>
   </g>
   <g id="PathCollection_30">
    <path d="M 437.229062 347.885967 
C 439.19454 347.885967 441.079782 347.105075 442.469584 345.715272 
C 443.859387 344.325469 444.64028 342.440228 444.64028 340.47475 
C 444.64028 338.509272 443.859387 336.624031 442.469584 335.234228 
C 441.079782 333.844425 439.19454 333.063533 437.229062 333.063533 
C 435.263585 333.063533 433.378343 333.844425 431.988541 335.234228 
C 430.598738 336.624031 429.817845 338.509272 429.817845 340.47475 
C 429.817845 342.440228 430.598738 344.325469 431.988541 345.715272 
C 433.378343 347.105075 435.263585 347.885967 437.229062 347.885967 
z
" clip-path="url(#p4eadfe8f24)" style="fill: #8c3b3b; fill-opacity: 0.9"/>
   </g>
   <g id="PathCollection_31">
    <path d="M 139.629062 376.626886 
C 140.815087 376.626886 141.952694 376.155673 142.79134 375.317028 
C 143.629986 374.478382 144.101198 373.340774 144.101198 372.15475 
C 144.101198 370.968726 143.629986 369.831118 142.79134 368.992472 
C 141.952694 368.153827 140.815087 367.682614 139.629062 367.682614 
C 138.443038 367.682614 137.305431 368.153827 136.466785 368.992472 
C 135.628139 369.831118 135.156927 370.968726 135.156927 372.15475 
C 135.156927 373.340774 135.628139 374.478382 136.466785 375.317028 
C 137.305431 376.155673 138.443038 376.626886 139.629062 376.626886 
z
" clip-path="url(#p4eadfe8f24)" style="fill: #3e5c76; fill-opacity: 0.3"/>
   </g>
   <g id="PathCollection_32">
    <path d="M 288.429062 376.626886 
C 289.615087 376.626886 290.752694 376.155673 291.59134 375.317028 
C 292.429986 374.478382 292.901198 373.340774 292.901198 372.15475 
C 292.901198 370.968726 292.429986 369.831118 291.59134 368.992472 
C 290.752694 368.153827 289.615087 367.682614 288.429062 367.682614 
C 287.243038 367.682614 286.105431 368.153827 285.266785 368.992472 
C 284.428139 369.831118 283.956927 370.968726 283.956927 372.15475 
C 283.956927 373.340774 284.428139 374.478382 285.266785 375.317028 
C 286.105431 376.155673 287.243038 376.626886 288.429062 376.626886 
z
" clip-path="url(#p4eadfe8f24)" style="fill: #8c3b3b; fill-opacity: 0.3"/>
   </g>
   <g id="PathCollection_33">
    <path d="M 437.229062 376.626886 
C 438.415087 376.626886 439.552694 376.155673 440.39134 375.317028 
C 441.229986 374.478382 441.701198 373.340774 441.701198 372.15475 
C 441.701198 370.968726 441.229986 369.831118 440.39134 368.992472 
C 439.552694 368.153827 438.415087 367.682614 437.229062 367.682614 
C 436.043038 367.682614 434.905431 368.153827 434.066785 368.992472 
C 433.228139 369.831118 432.756927 370.968726 432.756927 372.15475 
C 432.756927 373.340774 433.228139 374.478382 434.066785 375.317028 
C 434.905431 376.155673 436.043038 376.626886 437.229062 376.626886 
z
" clip-path="url(#p4eadfe8f24)" style="fill: #8c3b3b; fill-opacity: 0.3"/>
   </g>
   <g id="PathCollection_34">
    <path d="M 139.629062 408.306886 
C 140.815087 408.306886 141.952694 407.835673 142.79134 406.997028 
C 143.629986 406.158382 144.101198 405.020774 144.101198 403.83475 
C 144.101198 402.648726 143.629986 401.511118 142.79134 400.672472 
C 141.952694 399.833827 140.815087 399.362614 139.629062 399.362614 
C 138.443038 399.362614 137.305431 399.833827 136.466785 400.672472 
C 135.628139 401.511118 135.156927 402.648726 135.156927 403.83475 
C 135.156927 405.020774 135.628139 406.158382 136.466785 406.997028 
C 137.305431 407.835673 138.443038 408.306886 139.629062 408.306886 
z
" clip-path="url(#p4eadfe8f24)" style="fill: #8c3b3b; fill-opacity: 0.3"/>
   </g>
   <g id="PathCollection_35">
    <path d="M 288.429062 408.306886 
C 289.615087 408.306886 290.752694 407.835673 291.59134 406.997028 
C 292.429986 406.158382 292.901198 405.020774 292.901198 403.83475 
C 292.901198 402.648726 292.429986 401.511118 291.59134 400.672472 
C 290.752694 399.833827 289.615087 399.362614 288.429062 399.362614 
C 287.243038 399.362614 286.105431 399.833827 285.266785 400.672472 
C 284.428139 401.511118 283.956927 402.648726 283.956927 403.83475 
C 283.956927 405.020774 284.428139 406.158382 285.266785 406.997028 
C 286.105431 407.835673 287.243038 408.306886 288.429062 408.306886 
z
" clip-path="url(#p4eadfe8f24)" style="fill: #3e5c76; fill-opacity: 0.3"/>
   </g>
   <g id="PathCollection_36">
    <path d="M 437.229062 408.306886 
C 438.415087 408.306886 439.552694 407.835673 440.39134 406.997028 
C 441.229986 406.158382 441.701198 405.020774 441.701198 403.83475 
C 441.701198 402.648726 441.229986 401.511118 440.39134 400.672472 
C 439.552694 399.833827 438.415087 399.362614 437.229062 399.362614 
C 436.043038 399.362614 434.905431 399.833827 434.066785 400.672472 
C 433.228139 401.511118 432.756927 402.648726 432.756927 403.83475 
C 432.756927 405.020774 433.228139 406.158382 434.066785 406.997028 
C 434.905431 407.835673 436.043038 408.306886 437.229062 408.306886 
z
" clip-path="url(#p4eadfe8f24)" style="fill: #3e5c76; fill-opacity: 0.3"/>
   </g>
   <g id="PathCollection_37">
    <path d="M 139.629062 444.130196 
C 141.913905 444.130196 144.105475 443.222418 145.721102 441.60679 
C 147.33673 439.991162 148.244508 437.799593 148.244508 435.51475 
C 148.244508 433.229907 147.33673 431.038338 145.721102 429.42271 
C 144.105475 427.807082 141.913905 426.899304 139.629062 426.899304 
C 137.34422 426.899304 135.15265 427.807082 133.537023 429.42271 
C 131.921395 431.038338 131.013617 433.229907 131.013617 435.51475 
C 131.013617 437.799593 131.921395 439.991162 133.537023 441.60679 
C 135.15265 443.222418 137.34422 444.130196 139.629062 444.130196 
z
" clip-path="url(#p4eadfe8f24)" style="fill: #8c3b3b; fill-opacity: 0.9"/>
   </g>
   <g id="PathCollection_38">
    <path d="M 288.429062 444.130196 
C 290.713905 444.130196 292.905475 443.222418 294.521102 441.60679 
C 296.13673 439.991162 297.044508 437.799593 297.044508 435.51475 
C 297.044508 433.229907 296.13673 431.038338 294.521102 429.42271 
C 292.905475 427.807082 290.713905 426.899304 288.429062 426.899304 
C 286.14422 426.899304 283.95265 427.807082 282.337023 429.42271 
C 280.721395 431.038338 279.813617 433.229907 279.813617 435.51475 
C 279.813617 437.799593 280.721395 439.991162 282.337023 441.60679 
C 283.95265 443.222418 286.14422 444.130196 288.429062 444.130196 
z
" clip-path="url(#p4eadfe8f24)" style="fill: #8c3b3b; fill-opacity: 0.9"/>
   </g>
   <g id="PathCollection_39">
    <path d="M 437.229062 444.130196 
C 439.513905 444.130196 441.705475 443.222418 443.321102 441.60679 
C 444.93673 439.991162 445.844508 437.799593 445.844508 435.51475 
C 445.844508 433.229907 444.93673 431.038338 443.321102 429.42271 
C 441.705475 427.807082 439.513905 426.899304 437.229062 426.899304 
C 434.94422 426.899304 432.75265 427.807082 431.137023 429.42271 
C 429.521395 431.038338 428.613617 433.229907 428.613617 435.51475 
C 428.613617 437.799593 429.521395 439.991162 431.137023 441.60679 
C 432.75265 443.222418 434.94422 444.130196 437.229062 444.130196 
z
" clip-path="url(#p4eadfe8f24)" style="fill: #8c3b3b; fill-opacity: 0.9"/>
   </g>
   <g id="PathCollection_40">
    <path d="M 139.629062 471.915107 
C 140.880916 471.915107 142.081665 471.41774 142.966859 470.532546 
C 143.852053 469.647352 144.349419 468.446603 144.349419 467.19475 
C 144.349419 465.942897 143.852053 464.742148 142.966859 463.856954 
C 142.081665 462.97176 140.880916 462.474393 139.629062 462.474393 
C 138.377209 462.474393 137.17646 462.97176 136.291266 463.856954 
C 135.406072 464.742148 134.908706 465.942897 134.908706 467.19475 
C 134.908706 468.446603 135.406072 469.647352 136.291266 470.532546 
C 137.17646 471.41774 138.377209 471.915107 139.629062 471.915107 
z
" clip-path="url(#p4eadfe8f24)" style="fill: #3e5c76; fill-opacity: 0.9"/>
   </g>
   <g id="PathCollection_41">
    <path d="M 288.429062 471.915107 
C 289.680916 471.915107 290.881665 471.41774 291.766859 470.532546 
C 292.652053 469.647352 293.149419 468.446603 293.149419 467.19475 
C 293.149419 465.942897 292.652053 464.742148 291.766859 463.856954 
C 290.881665 462.97176 289.680916 462.474393 288.429062 462.474393 
C 287.177209 462.474393 285.97646 462.97176 285.091266 463.856954 
C 284.206072 464.742148 283.708706 465.942897 283.708706 467.19475 
C 283.708706 468.446603 284.206072 469.647352 285.091266 470.532546 
C 285.97646 471.41774 287.177209 471.915107 288.429062 471.915107 
z
" clip-path="url(#p4eadfe8f24)" style="fill: #3e5c76; fill-opacity: 0.9"/>
   </g>
   <g id="PathCollection_42">
    <path d="M 437.229062 471.915107 
C 438.480916 471.915107 439.681665 471.41774 440.566859 470.532546 
C 441.452053 469.647352 441.949419 468.446603 441.949419 467.19475 
C 441.949419 465.942897 441.452053 464.742148 440.566859 463.856954 
C 439.681665 462.97176 438.480916 462.474393 437.229062 462.474393 
C 435.977209 462.474393 434.77646 462.97176 433.891266 463.856954 
C 433.006072 464.742148 432.508706 465.942897 432.508706 467.19475 
C 432.508706 468.446603 433.006072 469.647352 433.891266 470.532546 
C 434.77646 471.41774 435.977209 471.915107 437.229062 471.915107 
z
" clip-path="url(#p4eadfe8f24)" style="fill: #3e5c76; fill-opacity: 0.9"/>
   </g>
   <g id="matplotlib.axis_1">
    <g id="xtick_1">
     <g id="line2d_1"/>
     <g id="text_1">
      <!-- Exec -->
      <g style="fill: #222222" transform="translate(126.661953 494.893031) scale(0.11 -0.11)">
       <defs>
        <path id="DejaVuSans-45" d="M 628 4666 
L 3578 4666 
L 3578 4134 
L 1259 4134 
L 1259 2753 
L 3481 2753 
L 3481 2222 
L 1259 2222 
L 1259 531 
L 3634 531 
L 3634 0 
L 628 0 
L 628 4666 
z
" transform="scale(0.015625)"/>
        <path id="DejaVuSans-78" d="M 3513 3500 
L 2247 1797 
L 3578 0 
L 2900 0 
L 1881 1375 
L 863 0 
L 184 0 
L 1544 1831 
L 300 3500 
L 978 3500 
L 1906 2253 
L 2834 3500 
L 3513 3500 
z
" transform="scale(0.015625)"/>
        <path id="DejaVuSans-65" d="M 3597 1894 
L 3597 1613 
L 953 1613 
Q 991 1019 1311 708 
Q 1631 397 2203 397 
Q 2534 397 2845 478 
Q 3156 559 3463 722 
L 3463 178 
Q 3153 47 2828 -22 
Q 2503 -91 2169 -91 
Q 1331 -91 842 396 
Q 353 884 353 1716 
Q 353 2575 817 3079 
Q 1281 3584 2069 3584 
Q 2775 3584 3186 3129 
Q 3597 2675 3597 1894 
z
M 3022 2063 
Q 3016 2534 2758 2815 
Q 2500 3097 2075 3097 
Q 1594 3097 1305 2825 
Q 1016 2553 972 2059 
L 3022 2063 
z
" transform="scale(0.015625)"/>
        <path id="DejaVuSans-63" d="M 3122 3366 
L 3122 2828 
Q 2878 2963 2633 3030 
Q 2388 3097 2138 3097 
Q 1578 3097 1268 2742 
Q 959 2388 959 1747 
Q 959 1106 1268 751 
Q 1578 397 2138 397 
Q 2388 397 2633 464 
Q 2878 531 3122 666 
L 3122 134 
Q 2881 22 2623 -34 
Q 2366 -91 2075 -91 
Q 1284 -91 818 406 
Q 353 903 353 1747 
Q 353 2603 823 3093 
Q 1294 3584 2113 3584 
Q 2378 3584 2631 3529 
Q 2884 3475 3122 3366 
z
" transform="scale(0.015625)"/>
       </defs>
       <use xlink:href="#DejaVuSans-45"/>
       <use xlink:href="#DejaVuSans-78" transform="translate(63.183594 0)"/>
       <use xlink:href="#DejaVuSans-65" transform="translate(119.238281 0)"/>
       <use xlink:href="#DejaVuSans-63" transform="translate(180.761719 0)"/>
      </g>
     </g>
    </g>
    <g id="xtick_2">
     <g id="line2d_2"/>
     <g id="text_2">
      <!-- Proc -->
      <g style="fill: #222222" transform="translate(276.682266 494.893031) scale(0.11 -0.11)">
       <defs>
        <path id="DejaVuSans-50" d="M 1259 4147 
L 1259 2394 
L 2053 2394 
Q 2494 2394 2734 2622 
Q 2975 2850 2975 3272 
Q 2975 3691 2734 3919 
Q 2494 4147 2053 4147 
L 1259 4147 
z
M 628 4666 
L 2053 4666 
Q 2838 4666 3239 4311 
Q 3641 3956 3641 3272 
Q 3641 2581 3239 2228 
Q 2838 1875 2053 1875 
L 1259 1875 
L 1259 0 
L 628 0 
L 628 4666 
z
" transform="scale(0.015625)"/>
        <path id="DejaVuSans-72" d="M 2631 2963 
Q 2534 3019 2420 3045 
Q 2306 3072 2169 3072 
Q 1681 3072 1420 2755 
Q 1159 2438 1159 1844 
L 1159 0 
L 581 0 
L 581 3500 
L 1159 3500 
L 1159 2956 
Q 1341 3275 1631 3429 
Q 1922 3584 2338 3584 
Q 2397 3584 2469 3576 
Q 2541 3569 2628 3553 
L 2631 2963 
z
" transform="scale(0.015625)"/>
        <path id="DejaVuSans-6f" d="M 1959 3097 
Q 1497 3097 1228 2736 
Q 959 2375 959 1747 
Q 959 1119 1226 758 
Q 1494 397 1959 397 
Q 2419 397 2687 759 
Q 2956 1122 2956 1747 
Q 2956 2369 2687 2733 
Q 2419 3097 1959 3097 
z
M 1959 3584 
Q 2709 3584 3137 3096 
Q 3566 2609 3566 1747 
Q 3566 888 3137 398 
Q 2709 -91 1959 -91 
Q 1206 -91 779 398 
Q 353 888 353 1747 
Q 353 2609 779 3096 
Q 1206 3584 1959 3584 
z
" transform="scale(0.015625)"/>
       </defs>
       <use xlink:href="#DejaVuSans-50"/>
       <use xlink:href="#DejaVuSans-72" transform="translate(58.552734 0)"/>
       <use xlink:href="#DejaVuSans-6f" transform="translate(97.416016 0)"/>
       <use xlink:href="#DejaVuSans-63" transform="translate(158.597656 0)"/>
      </g>
     </g>
    </g>
    <g id="xtick_3">
     <g id="line2d_3"/>
     <g id="text_3">
      <!-- Quality -->
      <g style="fill: #222222" transform="translate(417.576016 494.893031) scale(0.11 -0.11)">
       <defs>
        <path id="DejaVuSans-51" d="M 2522 4238 
Q 1834 4238 1429 3725 
Q 1025 3213 1025 2328 
Q 1025 1447 1429 934 
Q 1834 422 2522 422 
Q 3209 422 3611 934 
Q 4013 1447 4013 2328 
Q 4013 3213 3611 3725 
Q 3209 4238 2522 4238 
z
M 3406 84 
L 4238 -825 
L 3475 -825 
L 2784 -78 
Q 2681 -84 2626 -87 
Q 2572 -91 2522 -91 
Q 1538 -91 948 567 
Q 359 1225 359 2328 
Q 359 3434 948 4092 
Q 1538 4750 2522 4750 
Q 3503 4750 4090 4092 
Q 4678 3434 4678 2328 
Q 4678 1516 4351 937 
Q 4025 359 3406 84 
z
" transform="scale(0.015625)"/>
        <path id="DejaVuSans-75" d="M 544 1381 
L 544 3500 
L 1119 3500 
L 1119 1403 
Q 1119 906 1312 657 
Q 1506 409 1894 409 
Q 2359 409 2629 706 
Q 2900 1003 2900 1516 
L 2900 3500 
L 3475 3500 
L 3475 0 
L 2900 0 
L 2900 538 
Q 2691 219 2414 64 
Q 2138 -91 1772 -91 
Q 1169 -91 856 284 
Q 544 659 544 1381 
z
M 1991 3584 
L 1991 3584 
z
" transform="scale(0.015625)"/>
        <path id="DejaVuSans-61" d="M 2194 1759 
Q 1497 1759 1228 1600 
Q 959 1441 959 1056 
Q 959 750 1161 570 
Q 1363 391 1709 391 
Q 2188 391 2477 730 
Q 2766 1069 2766 1631 
L 2766 1759 
L 2194 1759 
z
M 3341 1997 
L 3341 0 
L 2766 0 
L 2766 531 
Q 2569 213 2275 61 
Q 1981 -91 1556 -91 
Q 1019 -91 701 211 
Q 384 513 384 1019 
Q 384 1609 779 1909 
Q 1175 2209 1959 2209 
L 2766 2209 
L 2766 2266 
Q 2766 2663 2505 2880 
Q 2244 3097 1772 3097 
Q 1472 3097 1187 3025 
Q 903 2953 641 2809 
L 641 3341 
Q 956 3463 1253 3523 
Q 1550 3584 1831 3584 
Q 2591 3584 2966 3190 
Q 3341 2797 3341 1997 
z
" transform="scale(0.015625)"/>
        <path id="DejaVuSans-6c" d="M 603 4863 
L 1178 4863 
L 1178 0 
L 603 0 
L 603 4863 
z
" transform="scale(0.015625)"/>
        <path id="DejaVuSans-69" d="M 603 3500 
L 1178 3500 
L 1178 0 
L 603 0 
L 603 3500 
z
M 603 4863 
L 1178 4863 
L 1178 4134 
L 603 4134 
L 603 4863 
z
" transform="scale(0.015625)"/>
        <path id="DejaVuSans-74" d="M 1172 4494 
L 1172 3500 
L 2356 3500 
L 2356 3053 
L 1172 3053 
L 1172 1153 
Q 1172 725 1289 603 
Q 1406 481 1766 481 
L 2356 481 
L 2356 0 
L 1766 0 
Q 1100 0 847 248 
Q 594 497 594 1153 
L 594 3053 
L 172 3053 
L 172 3500 
L 594 3500 
L 594 4494 
L 1172 4494 
z
" transform="scale(0.015625)"/>
        <path id="DejaVuSans-79" d="M 2059 -325 
Q 1816 -950 1584 -1140 
Q 1353 -1331 966 -1331 
L 506 -1331 
L 506 -850 
L 844 -850 
Q 1081 -850 1212 -737 
Q 1344 -625 1503 -206 
L 1606 56 
L 191 3500 
L 800 3500 
L 1894 763 
L 2988 3500 
L 3597 3500 
L 2059 -325 
z
" transform="scale(0.015625)"/>
       </defs>
       <use xlink:href="#DejaVuSans-51"/>
       <use xlink:href="#DejaVuSans-75" transform="translate(78.710938 0)"/>
       <use xlink:href="#DejaVuSans-61" transform="translate(142.089844 0)"/>
       <use xlink:href="#DejaVuSans-6c" transform="translate(203.369141 0)"/>
       <use xlink:href="#DejaVuSans-69" transform="translate(231.152344 0)"/>
       <use xlink:href="#DejaVuSans-74" transform="translate(258.935547 0)"/>
       <use xlink:href="#DejaVuSans-79" transform="translate(298.144531 0)"/>
      </g>
     </g>
    </g>
   </g>
   <g id="matplotlib.axis_2">
    <g id="ytick_1">
     <g id="line2d_4"/>
     <g id="text_4">
      <!-- did→A -->
      <g style="fill: #222222" transform="translate(27.964219 59.533891) scale(0.11 -0.11)">
       <defs>
        <path id="DejaVuSans-64" d="M 2906 2969 
L 2906 4863 
L 3481 4863 
L 3481 0 
L 2906 0 
L 2906 525 
Q 2725 213 2448 61 
Q 2172 -91 1784 -91 
Q 1150 -91 751 415 
Q 353 922 353 1747 
Q 353 2572 751 3078 
Q 1150 3584 1784 3584 
Q 2172 3584 2448 3432 
Q 2725 3281 2906 2969 
z
M 947 1747 
Q 947 1113 1208 752 
Q 1469 391 1925 391 
Q 2381 391 2643 752 
Q 2906 1113 2906 1747 
Q 2906 2381 2643 2742 
Q 2381 3103 1925 3103 
Q 1469 3103 1208 2742 
Q 947 2381 947 1747 
z
" transform="scale(0.015625)"/>
        <path id="DejaVuSans-2192" d="M 5050 2147 
L 5050 1866 
L 3822 638 
L 3447 1013 
L 4175 1741 
L 366 1741 
L 366 2272 
L 4175 2272 
L 3447 3000 
L 3822 3375 
L 5050 2147 
z
" transform="scale(0.015625)"/>
        <path id="DejaVuSans-41" d="M 2188 4044 
L 1331 1722 
L 3047 1722 
L 2188 4044 
z
M 1831 4666 
L 2547 4666 
L 4325 0 
L 3669 0 
L 3244 1197 
L 1141 1197 
L 716 0 
L 50 0 
L 1831 4666 
z
" transform="scale(0.015625)"/>
       </defs>
       <use xlink:href="#DejaVuSans-64"/>
       <use xlink:href="#DejaVuSans-69" transform="translate(63.476562 0)"/>
       <use xlink:href="#DejaVuSans-64" transform="translate(91.259766 0)"/>
       <use xlink:href="#DejaVuSans-2192" transform="translate(154.736328 0)"/>
       <use xlink:href="#DejaVuSans-41" transform="translate(238.525391 0)"/>
      </g>
     </g>
    </g>
    <g id="ytick_2">
     <g id="line2d_5"/>
     <g id="text_5">
      <!-- did→B -->
      <g style="fill: #222222" transform="translate(27.941875 91.213891) scale(0.11 -0.11)">
       <defs>
        <path id="DejaVuSans-42" d="M 1259 2228 
L 1259 519 
L 2272 519 
Q 2781 519 3026 730 
Q 3272 941 3272 1375 
Q 3272 1813 3026 2020 
Q 2781 2228 2272 2228 
L 1259 2228 
z
M 1259 4147 
L 1259 2741 
L 2194 2741 
Q 2656 2741 2882 2914 
Q 3109 3088 3109 3444 
Q 3109 3797 2882 3972 
Q 2656 4147 2194 4147 
L 1259 4147 
z
M 628 4666 
L 2241 4666 
Q 2963 4666 3353 4366 
Q 3744 4066 3744 3513 
Q 3744 3084 3544 2831 
Q 3344 2578 2956 2516 
Q 3422 2416 3680 2098 
Q 3938 1781 3938 1306 
Q 3938 681 3513 340 
Q 3088 0 2303 0 
L 628 0 
L 628 4666 
z
" transform="scale(0.015625)"/>
       </defs>
       <use xlink:href="#DejaVuSans-64"/>
       <use xlink:href="#DejaVuSans-69" transform="translate(63.476562 0)"/>
       <use xlink:href="#DejaVuSans-64" transform="translate(91.259766 0)"/>
       <use xlink:href="#DejaVuSans-2192" transform="translate(154.736328 0)"/>
       <use xlink:href="#DejaVuSans-42" transform="translate(238.525391 0)"/>
      </g>
     </g>
    </g>
    <g id="ytick_3">
     <g id="line2d_6"/>
     <g id="text_6">
      <!-- did→C -->
      <g style="fill: #222222" transform="translate(27.807812 122.893891) scale(0.11 -0.11)">
       <defs>
        <path id="DejaVuSans-43" d="M 4122 4306 
L 4122 3641 
Q 3803 3938 3442 4084 
Q 3081 4231 2675 4231 
Q 1875 4231 1450 3742 
Q 1025 3253 1025 2328 
Q 1025 1406 1450 917 
Q 1875 428 2675 428 
Q 3081 428 3442 575 
Q 3803 722 4122 1019 
L 4122 359 
Q 3791 134 3420 21 
Q 3050 -91 2638 -91 
Q 1578 -91 968 557 
Q 359 1206 359 2328 
Q 359 3453 968 4101 
Q 1578 4750 2638 4750 
Q 3056 4750 3426 4639 
Q 3797 4528 4122 4306 
z
" transform="scale(0.015625)"/>
       </defs>
       <use xlink:href="#DejaVuSans-64"/>
       <use xlink:href="#DejaVuSans-69" transform="translate(63.476562 0)"/>
       <use xlink:href="#DejaVuSans-64" transform="translate(91.259766 0)"/>
       <use xlink:href="#DejaVuSans-2192" transform="translate(154.736328 0)"/>
       <use xlink:href="#DejaVuSans-43" transform="translate(238.525391 0)"/>
      </g>
     </g>
    </g>
    <g id="ytick_4">
     <g id="line2d_7"/>
     <g id="text_7">
      <!-- A→exec -->
      <g style="fill: #222222" transform="translate(19.427187 154.573891) scale(0.11 -0.11)">
       <use xlink:href="#DejaVuSans-41"/>
       <use xlink:href="#DejaVuSans-2192" transform="translate(68.408203 0)"/>
       <use xlink:href="#DejaVuSans-65" transform="translate(152.197266 0)"/>
       <use xlink:href="#DejaVuSans-78" transform="translate(211.970703 0)"/>
       <use xlink:href="#DejaVuSans-65" transform="translate(268.025391 0)"/>
       <use xlink:href="#DejaVuSans-63" transform="translate(329.548828 0)"/>
      </g>
     </g>
    </g>
    <g id="ytick_5">
     <g id="line2d_8"/>
     <g id="text_8">
      <!-- B→exec -->
      <g style="fill: #222222" transform="translate(19.404844 186.253891) scale(0.11 -0.11)">
       <use xlink:href="#DejaVuSans-42"/>
       <use xlink:href="#DejaVuSans-2192" transform="translate(68.603516 0)"/>
       <use xlink:href="#DejaVuSans-65" transform="translate(152.392578 0)"/>
       <use xlink:href="#DejaVuSans-78" transform="translate(212.166016 0)"/>
       <use xlink:href="#DejaVuSans-65" transform="translate(268.220703 0)"/>
       <use xlink:href="#DejaVuSans-63" transform="translate(329.744141 0)"/>
      </g>
     </g>
    </g>
    <g id="ytick_6">
     <g id="line2d_9"/>
     <g id="text_9">
      <!-- C→exec -->
      <g style="fill: #222222" transform="translate(19.270781 217.933891) scale(0.11 -0.11)">
       <use xlink:href="#DejaVuSans-43"/>
       <use xlink:href="#DejaVuSans-2192" transform="translate(69.824219 0)"/>
       <use xlink:href="#DejaVuSans-65" transform="translate(153.613281 0)"/>
       <use xlink:href="#DejaVuSans-78" transform="translate(213.386719 0)"/>
       <use xlink:href="#DejaVuSans-65" transform="translate(269.441406 0)"/>
       <use xlink:href="#DejaVuSans-63" transform="translate(330.964844 0)"/>
      </g>
     </g>
    </g>
    <g id="ytick_7">
     <g id="line2d_10"/>
     <g id="text_10">
      <!-- A→proc -->
      <g style="fill: #222222" transform="translate(20.95 249.613891) scale(0.11 -0.11)">
       <defs>
        <path id="DejaVuSans-70" d="M 1159 525 
L 1159 -1331 
L 581 -1331 
L 581 3500 
L 1159 3500 
L 1159 2969 
Q 1341 3281 1617 3432 
Q 1894 3584 2278 3584 
Q 2916 3584 3314 3078 
Q 3713 2572 3713 1747 
Q 3713 922 3314 415 
Q 2916 -91 2278 -91 
Q 1894 -91 1617 61 
Q 1341 213 1159 525 
z
M 3116 1747 
Q 3116 2381 2855 2742 
Q 2594 3103 2138 3103 
Q 1681 3103 1420 2742 
Q 1159 2381 1159 1747 
Q 1159 1113 1420 752 
Q 1681 391 2138 391 
Q 2594 391 2855 752 
Q 3116 1113 3116 1747 
z
" transform="scale(0.015625)"/>
       </defs>
       <use xlink:href="#DejaVuSans-41"/>
       <use xlink:href="#DejaVuSans-2192" transform="translate(68.408203 0)"/>
       <use xlink:href="#DejaVuSans-70" transform="translate(152.197266 0)"/>
       <use xlink:href="#DejaVuSans-72" transform="translate(215.673828 0)"/>
       <use xlink:href="#DejaVuSans-6f" transform="translate(254.537109 0)"/>
       <use xlink:href="#DejaVuSans-63" transform="translate(315.71875 0)"/>
      </g>
     </g>
    </g>
    <g id="ytick_8">
     <g id="line2d_11"/>
     <g id="text_11">
      <!-- B→proc -->
      <g style="fill: #222222" transform="translate(20.927656 281.293891) scale(0.11 -0.11)">
       <use xlink:href="#DejaVuSans-42"/>
       <use xlink:href="#DejaVuSans-2192" transform="translate(68.603516 0)"/>
       <use xlink:href="#DejaVuSans-70" transform="translate(152.392578 0)"/>
       <use xlink:href="#DejaVuSans-72" transform="translate(215.869141 0)"/>
       <use xlink:href="#DejaVuSans-6f" transform="translate(254.732422 0)"/>
       <use xlink:href="#DejaVuSans-63" transform="translate(315.914062 0)"/>
      </g>
     </g>
    </g>
    <g id="ytick_9">
     <g id="line2d_12"/>
     <g id="text_12">
      <!-- C→proc -->
      <g style="fill: #222222" transform="translate(20.793594 312.973891) scale(0.11 -0.11)">
       <use xlink:href="#DejaVuSans-43"/>
       <use xlink:href="#DejaVuSans-2192" transform="translate(69.824219 0)"/>
       <use xlink:href="#DejaVuSans-70" transform="translate(153.613281 0)"/>
       <use xlink:href="#DejaVuSans-72" transform="translate(217.089844 0)"/>
       <use xlink:href="#DejaVuSans-6f" transform="translate(255.953125 0)"/>
       <use xlink:href="#DejaVuSans-63" transform="translate(317.134766 0)"/>
      </g>
     </g>
    </g>
    <g id="ytick_10">
     <g id="line2d_13"/>
     <g id="text_13">
      <!-- A→quality -->
      <g style="fill: #222222" transform="translate(7.356406 344.653891) scale(0.11 -0.11)">
       <defs>
        <path id="DejaVuSans-71" d="M 947 1747 
Q 947 1113 1208 752 
Q 1469 391 1925 391 
Q 2381 391 2643 752 
Q 2906 1113 2906 1747 
Q 2906 2381 2643 2742 
Q 2381 3103 1925 3103 
Q 1469 3103 1208 2742 
Q 947 2381 947 1747 
z
M 2906 525 
Q 2725 213 2448 61 
Q 2172 -91 1784 -91 
Q 1150 -91 751 415 
Q 353 922 353 1747 
Q 353 2572 751 3078 
Q 1150 3584 1784 3584 
Q 2172 3584 2448 3432 
Q 2725 3281 2906 2969 
L 2906 3500 
L 3481 3500 
L 3481 -1331 
L 2906 -1331 
L 2906 525 
z
" transform="scale(0.015625)"/>
       </defs>
       <use xlink:href="#DejaVuSans-41"/>
       <use xlink:href="#DejaVuSans-2192" transform="translate(68.408203 0)"/>
       <use xlink:href="#DejaVuSans-71" transform="translate(152.197266 0)"/>
       <use xlink:href="#DejaVuSans-75" transform="translate(215.673828 0)"/>
       <use xlink:href="#DejaVuSans-61" transform="translate(279.052734 0)"/>
       <use xlink:href="#DejaVuSans-6c" transform="translate(340.332031 0)"/>
       <use xlink:href="#DejaVuSans-69" transform="translate(368.115234 0)"/>
       <use xlink:href="#DejaVuSans-74" transform="translate(395.898438 0)"/>
       <use xlink:href="#DejaVuSans-79" transform="translate(435.107422 0)"/>
      </g>
     </g>
    </g>
    <g id="ytick_11">
     <g id="line2d_14"/>
     <g id="text_14">
      <!-- B→quality -->
      <g style="fill: #222222" transform="translate(7.334062 376.333891) scale(0.11 -0.11)">
       <use xlink:href="#DejaVuSans-42"/>
       <use xlink:href="#DejaVuSans-2192" transform="translate(68.603516 0)"/>
       <use xlink:href="#DejaVuSans-71" transform="translate(152.392578 0)"/>
       <use xlink:href="#DejaVuSans-75" transform="translate(215.869141 0)"/>
       <use xlink:href="#DejaVuSans-61" transform="translate(279.248047 0)"/>
       <use xlink:href="#DejaVuSans-6c" transform="translate(340.527344 0)"/>
       <use xlink:href="#DejaVuSans-69" transform="translate(368.310547 0)"/>
       <use xlink:href="#DejaVuSans-74" transform="translate(396.09375 0)"/>
       <use xlink:href="#DejaVuSans-79" transform="translate(435.302734 0)"/>
      </g>
     </g>
    </g>
    <g id="ytick_12">
     <g id="line2d_15"/>
     <g id="text_15">
      <!-- C→quality -->
      <g style="fill: #222222" transform="translate(7.2 408.013891) scale(0.11 -0.11)">
       <use xlink:href="#DejaVuSans-43"/>
       <use xlink:href="#DejaVuSans-2192" transform="translate(69.824219 0)"/>
       <use xlink:href="#DejaVuSans-71" transform="translate(153.613281 0)"/>
       <use xlink:href="#DejaVuSans-75" transform="translate(217.089844 0)"/>
       <use xlink:href="#DejaVuSans-61" transform="translate(280.46875 0)"/>
       <use xlink:href="#DejaVuSans-6c" transform="translate(341.748047 0)"/>
       <use xlink:href="#DejaVuSans-69" transform="translate(369.53125 0)"/>
       <use xlink:href="#DejaVuSans-74" transform="translate(397.314453 0)"/>
       <use xlink:href="#DejaVuSans-79" transform="translate(436.523438 0)"/>
      </g>
     </g>
    </g>
    <g id="ytick_13">
     <g id="line2d_16"/>
     <g id="text_16">
      <!-- A→B -->
      <g style="fill: #222222" transform="translate(37.439687 439.693891) scale(0.11 -0.11)">
       <use xlink:href="#DejaVuSans-41"/>
       <use xlink:href="#DejaVuSans-2192" transform="translate(68.408203 0)"/>
       <use xlink:href="#DejaVuSans-42" transform="translate(152.197266 0)"/>
      </g>
     </g>
    </g>
    <g id="ytick_14">
     <g id="line2d_17"/>
     <g id="text_17">
      <!-- B→C -->
      <g style="fill: #222222" transform="translate(37.283281 471.373891) scale(0.11 -0.11)">
       <use xlink:href="#DejaVuSans-42"/>
       <use xlink:href="#DejaVuSans-2192" transform="translate(68.603516 0)"/>
       <use xlink:href="#DejaVuSans-43" transform="translate(152.392578 0)"/>
      </g>
     </g>
    </g>
   </g>
   <g id="text_18">
    <!-- 241.52 -->
    <g style="fill: #ffffff" transform="translate(125.632812 57.56225) scale(0.08 -0.08)">
     <defs>
      <path id="DejaVuSans-32" d="M 1228 531 
L 3431 531 
L 3431 0 
L 469 0 
L 469 531 
Q 828 903 1448 1529 
Q 2069 2156 2228 2338 
Q 2531 2678 2651 2914 
Q 2772 3150 2772 3378 
Q 2772 3750 2511 3984 
Q 2250 4219 1831 4219 
Q 1534 4219 1204 4116 
Q 875 4013 500 3803 
L 500 4441 
Q 881 4594 1212 4672 
Q 1544 4750 1819 4750 
Q 2544 4750 2975 4387 
Q 3406 4025 3406 3419 
Q 3406 3131 3298 2873 
Q 3191 2616 2906 2266 
Q 2828 2175 2409 1742 
Q 1991 1309 1228 531 
z
" transform="scale(0.015625)"/>
      <path id="DejaVuSans-34" d="M 2419 4116 
L 825 1625 
L 2419 1625 
L 2419 4116 
z
M 2253 4666 
L 3047 4666 
L 3047 1625 
L 3713 1625 
L 3713 1100 
L 3047 1100 
L 3047 0 
L 2419 0 
L 2419 1100 
L 313 1100 
L 313 1709 
L 2253 4666 
z
" transform="scale(0.015625)"/>
      <path id="DejaVuSans-31" d="M 794 531 
L 1825 531 
L 1825 4091 
L 703 3866 
L 703 4441 
L 1819 4666 
L 2450 4666 
L 2450 531 
L 3481 531 
L 3481 0 
L 794 0 
L 794 531 
z
" transform="scale(0.015625)"/>
      <path id="DejaVuSans-2e" d="M 684 794 
L 1344 794 
L 1344 0 
L 684 0 
L 684 794 
z
" transform="scale(0.015625)"/>
      <path id="DejaVuSans-35" d="M 691 4666 
L 3169 4666 
L 3169 4134 
L 1269 4134 
L 1269 2991 
Q 1406 3038 1543 3061 
Q 1681 3084 1819 3084 
Q 2600 3084 3056 2656 
Q 3513 2228 3513 1497 
Q 3513 744 3044 326 
Q 2575 -91 1722 -91 
Q 1428 -91 1123 -41 
Q 819 9 494 109 
L 494 744 
Q 775 591 1075 516 
Q 1375 441 1709 441 
Q 2250 441 2565 725 
Q 2881 1009 2881 1497 
Q 2881 1984 2565 2268 
Q 2250 2553 1709 2553 
Q 1456 2553 1204 2497 
Q 953 2441 691 2322 
L 691 4666 
z
" transform="scale(0.015625)"/>
     </defs>
     <use xlink:href="#DejaVuSans-32"/>
     <use xlink:href="#DejaVuSans-34" transform="translate(63.623047 0)"/>
     <use xlink:href="#DejaVuSans-31" transform="translate(127.246094 0)"/>
     <use xlink:href="#DejaVuSans-2e" transform="translate(190.869141 0)"/>
     <use xlink:href="#DejaVuSans-35" transform="translate(222.65625 0)"/>
     <use xlink:href="#DejaVuSans-32" transform="translate(286.279297 0)"/>
    </g>
   </g>
   <g id="text_19">
    <!-- 241.52 -->
    <g style="fill: #ffffff" transform="translate(274.432813 57.56225) scale(0.08 -0.08)">
     <use xlink:href="#DejaVuSans-32"/>
     <use xlink:href="#DejaVuSans-34" transform="translate(63.623047 0)"/>
     <use xlink:href="#DejaVuSans-31" transform="translate(127.246094 0)"/>
     <use xlink:href="#DejaVuSans-2e" transform="translate(190.869141 0)"/>
     <use xlink:href="#DejaVuSans-35" transform="translate(222.65625 0)"/>
     <use xlink:href="#DejaVuSans-32" transform="translate(286.279297 0)"/>
    </g>
   </g>
   <g id="text_20">
    <!-- 241.52 -->
    <g style="fill: #ffffff" transform="translate(423.232812 57.56225) scale(0.08 -0.08)">
     <use xlink:href="#DejaVuSans-32"/>
     <use xlink:href="#DejaVuSans-34" transform="translate(63.623047 0)"/>
     <use xlink:href="#DejaVuSans-31" transform="translate(127.246094 0)"/>
     <use xlink:href="#DejaVuSans-2e" transform="translate(190.869141 0)"/>
     <use xlink:href="#DejaVuSans-35" transform="translate(222.65625 0)"/>
     <use xlink:href="#DejaVuSans-32" transform="translate(286.279297 0)"/>
    </g>
   </g>
   <g id="text_21">
    <!-- -202.31 -->
    <g style="fill: #222222" transform="translate(124.189687 89.24225) scale(0.08 -0.08)">
     <defs>
      <path id="DejaVuSans-2d" d="M 313 2009 
L 1997 2009 
L 1997 1497 
L 313 1497 
L 313 2009 
z
" transform="scale(0.015625)"/>
      <path id="DejaVuSans-30" d="M 2034 4250 
Q 1547 4250 1301 3770 
Q 1056 3291 1056 2328 
Q 1056 1369 1301 889 
Q 1547 409 2034 409 
Q 2525 409 2770 889 
Q 3016 1369 3016 2328 
Q 3016 3291 2770 3770 
Q 2525 4250 2034 4250 
z
M 2034 4750 
Q 2819 4750 3233 4129 
Q 3647 3509 3647 2328 
Q 3647 1150 3233 529 
Q 2819 -91 2034 -91 
Q 1250 -91 836 529 
Q 422 1150 422 2328 
Q 422 3509 836 4129 
Q 1250 4750 2034 4750 
z
" transform="scale(0.015625)"/>
      <path id="DejaVuSans-33" d="M 2597 2516 
Q 3050 2419 3304 2112 
Q 3559 1806 3559 1356 
Q 3559 666 3084 287 
Q 2609 -91 1734 -91 
Q 1441 -91 1130 -33 
Q 819 25 488 141 
L 488 750 
Q 750 597 1062 519 
Q 1375 441 1716 441 
Q 2309 441 2620 675 
Q 2931 909 2931 1356 
Q 2931 1769 2642 2001 
Q 2353 2234 1838 2234 
L 1294 2234 
L 1294 2753 
L 1863 2753 
Q 2328 2753 2575 2939 
Q 2822 3125 2822 3475 
Q 2822 3834 2567 4026 
Q 2313 4219 1838 4219 
Q 1578 4219 1281 4162 
Q 984 4106 628 3988 
L 628 4550 
Q 988 4650 1302 4700 
Q 1616 4750 1894 4750 
Q 2613 4750 3031 4423 
Q 3450 4097 3450 3541 
Q 3450 3153 3228 2886 
Q 3006 2619 2597 2516 
z
" transform="scale(0.015625)"/>
     </defs>
     <use xlink:href="#DejaVuSans-2d"/>
     <use xlink:href="#DejaVuSans-32" transform="translate(36.083984 0)"/>
     <use xlink:href="#DejaVuSans-30" transform="translate(99.707031 0)"/>
     <use xlink:href="#DejaVuSans-32" transform="translate(163.330078 0)"/>
     <use xlink:href="#DejaVuSans-2e" transform="translate(226.953125 0)"/>
     <use xlink:href="#DejaVuSans-33" transform="translate(258.740234 0)"/>
     <use xlink:href="#DejaVuSans-31" transform="translate(322.363281 0)"/>
    </g>
   </g>
   <g id="text_22">
    <!-- -202.31 -->
    <g style="fill: #222222" transform="translate(272.989688 89.24225) scale(0.08 -0.08)">
     <use xlink:href="#DejaVuSans-2d"/>
     <use xlink:href="#DejaVuSans-32" transform="translate(36.083984 0)"/>
     <use xlink:href="#DejaVuSans-30" transform="translate(99.707031 0)"/>
     <use xlink:href="#DejaVuSans-32" transform="translate(163.330078 0)"/>
     <use xlink:href="#DejaVuSans-2e" transform="translate(226.953125 0)"/>
     <use xlink:href="#DejaVuSans-33" transform="translate(258.740234 0)"/>
     <use xlink:href="#DejaVuSans-31" transform="translate(322.363281 0)"/>
    </g>
   </g>
   <g id="text_23">
    <!-- -202.31 -->
    <g style="fill: #222222" transform="translate(421.789687 89.24225) scale(0.08 -0.08)">
     <use xlink:href="#DejaVuSans-2d"/>
     <use xlink:href="#DejaVuSans-32" transform="translate(36.083984 0)"/>
     <use xlink:href="#DejaVuSans-30" transform="translate(99.707031 0)"/>
     <use xlink:href="#DejaVuSans-32" transform="translate(163.330078 0)"/>
     <use xlink:href="#DejaVuSans-2e" transform="translate(226.953125 0)"/>
     <use xlink:href="#DejaVuSans-33" transform="translate(258.740234 0)"/>
     <use xlink:href="#DejaVuSans-31" transform="translate(322.363281 0)"/>
    </g>
   </g>
   <g id="text_24">
    <!-- -52.01 -->
    <g style="fill: #222222" transform="translate(126.734687 120.92225) scale(0.08 -0.08)">
     <use xlink:href="#DejaVuSans-2d"/>
     <use xlink:href="#DejaVuSans-35" transform="translate(36.083984 0)"/>
     <use xlink:href="#DejaVuSans-32" transform="translate(99.707031 0)"/>
     <use xlink:href="#DejaVuSans-2e" transform="translate(163.330078 0)"/>
     <use xlink:href="#DejaVuSans-30" transform="translate(195.117188 0)"/>
     <use xlink:href="#DejaVuSans-31" transform="translate(258.740234 0)"/>
    </g>
   </g>
   <g id="text_25">
    <!-- -52.01 -->
    <g style="fill: #222222" transform="translate(275.534687 120.92225) scale(0.08 -0.08)">
     <use xlink:href="#DejaVuSans-2d"/>
     <use xlink:href="#DejaVuSans-35" transform="translate(36.083984 0)"/>
     <use xlink:href="#DejaVuSans-32" transform="translate(99.707031 0)"/>
     <use xlink:href="#DejaVuSans-2e" transform="translate(163.330078 0)"/>
     <use xlink:href="#DejaVuSans-30" transform="translate(195.117188 0)"/>
     <use xlink:href="#DejaVuSans-31" transform="translate(258.740234 0)"/>
    </g>
   </g>
   <g id="text_26">
    <!-- -52.01 -->
    <g style="fill: #222222" transform="translate(424.334687 120.92225) scale(0.08 -0.08)">
     <use xlink:href="#DejaVuSans-2d"/>
     <use xlink:href="#DejaVuSans-35" transform="translate(36.083984 0)"/>
     <use xlink:href="#DejaVuSans-32" transform="translate(99.707031 0)"/>
     <use xlink:href="#DejaVuSans-2e" transform="translate(163.330078 0)"/>
     <use xlink:href="#DejaVuSans-30" transform="translate(195.117188 0)"/>
     <use xlink:href="#DejaVuSans-31" transform="translate(258.740234 0)"/>
    </g>
   </g>
   <g id="text_27">
    <!-- 0.00 -->
    <g style="fill: #222222" transform="translate(130.722812 152.60225) scale(0.08 -0.08)">
     <use xlink:href="#DejaVuSans-30"/>
     <use xlink:href="#DejaVuSans-2e" transform="translate(63.623047 0)"/>
     <use xlink:href="#DejaVuSans-30" transform="translate(95.410156 0)"/>
     <use xlink:href="#DejaVuSans-30" transform="translate(159.033203 0)"/>
    </g>
   </g>
   <g id="text_28">
    <!-- -0.00 -->
    <g style="fill: #222222" transform="translate(278.079687 152.60225) scale(0.08 -0.08)">
     <use xlink:href="#DejaVuSans-2d"/>
     <use xlink:href="#DejaVuSans-30" transform="translate(36.083984 0)"/>
     <use xlink:href="#DejaVuSans-2e" transform="translate(99.707031 0)"/>
     <use xlink:href="#DejaVuSans-30" transform="translate(131.494141 0)"/>
     <use xlink:href="#DejaVuSans-30" transform="translate(195.117188 0)"/>
    </g>
   </g>
   <g id="text_29">
    <!-- -0.00 -->
    <g style="fill: #ffffff" transform="translate(426.879687 152.60225) scale(0.08 -0.08)">
     <use xlink:href="#DejaVuSans-2d"/>
     <use xlink:href="#DejaVuSans-30" transform="translate(36.083984 0)"/>
     <use xlink:href="#DejaVuSans-2e" transform="translate(99.707031 0)"/>
     <use xlink:href="#DejaVuSans-30" transform="translate(131.494141 0)"/>
     <use xlink:href="#DejaVuSans-30" transform="translate(195.117188 0)"/>
    </g>
   </g>
   <g id="text_30">
    <!-- 0.00 -->
    <g style="fill: #222222" transform="translate(130.722812 184.28225) scale(0.08 -0.08)">
     <use xlink:href="#DejaVuSans-30"/>
     <use xlink:href="#DejaVuSans-2e" transform="translate(63.623047 0)"/>
     <use xlink:href="#DejaVuSans-30" transform="translate(95.410156 0)"/>
     <use xlink:href="#DejaVuSans-30" transform="translate(159.033203 0)"/>
    </g>
   </g>
   <g id="text_31">
    <!-- -0.00 -->
    <g style="fill: #222222" transform="translate(278.079687 184.28225) scale(0.08 -0.08)">
     <use xlink:href="#DejaVuSans-2d"/>
     <use xlink:href="#DejaVuSans-30" transform="translate(36.083984 0)"/>
     <use xlink:href="#DejaVuSans-2e" transform="translate(99.707031 0)"/>
     <use xlink:href="#DejaVuSans-30" transform="translate(131.494141 0)"/>
     <use xlink:href="#DejaVuSans-30" transform="translate(195.117188 0)"/>
    </g>
   </g>
   <g id="text_32">
    <!-- -0.00 -->
    <g style="fill: #222222" transform="translate(426.879687 184.28225) scale(0.08 -0.08)">
     <use xlink:href="#DejaVuSans-2d"/>
     <use xlink:href="#DejaVuSans-30" transform="translate(36.083984 0)"/>
     <use xlink:href="#DejaVuSans-2e" transform="translate(99.707031 0)"/>
     <use xlink:href="#DejaVuSans-30" transform="translate(131.494141 0)"/>
     <use xlink:href="#DejaVuSans-30" transform="translate(195.117188 0)"/>
    </g>
   </g>
   <g id="text_33">
    <!-- -0.00 -->
    <g style="fill: #222222" transform="translate(129.279687 215.96225) scale(0.08 -0.08)">
     <use xlink:href="#DejaVuSans-2d"/>
     <use xlink:href="#DejaVuSans-30" transform="translate(36.083984 0)"/>
     <use xlink:href="#DejaVuSans-2e" transform="translate(99.707031 0)"/>
     <use xlink:href="#DejaVuSans-30" transform="translate(131.494141 0)"/>
     <use xlink:href="#DejaVuSans-30" transform="translate(195.117188 0)"/>
    </g>
   </g>
   <g id="text_34">
    <!-- 0.00 -->
    <g style="fill: #222222" transform="translate(279.522812 215.96225) scale(0.08 -0.08)">
     <use xlink:href="#DejaVuSans-30"/>
     <use xlink:href="#DejaVuSans-2e" transform="translate(63.623047 0)"/>
     <use xlink:href="#DejaVuSans-30" transform="translate(95.410156 0)"/>
     <use xlink:href="#DejaVuSans-30" transform="translate(159.033203 0)"/>
    </g>
   </g>
   <g id="text_35">
    <!-- 0.00 -->
    <g style="fill: #222222" transform="translate(428.322812 215.96225) scale(0.08 -0.08)">
     <use xlink:href="#DejaVuSans-30"/>
     <use xlink:href="#DejaVuSans-2e" transform="translate(63.623047 0)"/>
     <use xlink:href="#DejaVuSans-30" transform="translate(95.410156 0)"/>
     <use xlink:href="#DejaVuSans-30" transform="translate(159.033203 0)"/>
    </g>
   </g>
   <g id="text_36">
    <!-- 0.00 -->
    <g style="fill: #222222" transform="translate(130.722812 247.64225) scale(0.08 -0.08)">
     <use xlink:href="#DejaVuSans-30"/>
     <use xlink:href="#DejaVuSans-2e" transform="translate(63.623047 0)"/>
     <use xlink:href="#DejaVuSans-30" transform="translate(95.410156 0)"/>
     <use xlink:href="#DejaVuSans-30" transform="translate(159.033203 0)"/>
    </g>
   </g>
   <g id="text_37">
    <!-- -0.00 -->
    <g style="fill: #222222" transform="translate(278.079687 247.64225) scale(0.08 -0.08)">
     <use xlink:href="#DejaVuSans-2d"/>
     <use xlink:href="#DejaVuSans-30" transform="translate(36.083984 0)"/>
     <use xlink:href="#DejaVuSans-2e" transform="translate(99.707031 0)"/>
     <use xlink:href="#DejaVuSans-30" transform="translate(131.494141 0)"/>
     <use xlink:href="#DejaVuSans-30" transform="translate(195.117188 0)"/>
    </g>
   </g>
   <g id="text_38">
    <!-- -0.00 -->
    <g style="fill: #ffffff" transform="translate(426.879687 247.64225) scale(0.08 -0.08)">
     <use xlink:href="#DejaVuSans-2d"/>
     <use xlink:href="#DejaVuSans-30" transform="translate(36.083984 0)"/>
     <use xlink:href="#DejaVuSans-2e" transform="translate(99.707031 0)"/>
     <use xlink:href="#DejaVuSans-30" transform="translate(131.494141 0)"/>
     <use xlink:href="#DejaVuSans-30" transform="translate(195.117188 0)"/>
    </g>
   </g>
   <g id="text_39">
    <!-- 0.00 -->
    <g style="fill: #222222" transform="translate(130.722812 279.32225) scale(0.08 -0.08)">
     <use xlink:href="#DejaVuSans-30"/>
     <use xlink:href="#DejaVuSans-2e" transform="translate(63.623047 0)"/>
     <use xlink:href="#DejaVuSans-30" transform="translate(95.410156 0)"/>
     <use xlink:href="#DejaVuSans-30" transform="translate(159.033203 0)"/>
    </g>
   </g>
   <g id="text_40">
    <!-- -0.00 -->
    <g style="fill: #222222" transform="translate(278.079687 279.32225) scale(0.08 -0.08)">
     <use xlink:href="#DejaVuSans-2d"/>
     <use xlink:href="#DejaVuSans-30" transform="translate(36.083984 0)"/>
     <use xlink:href="#DejaVuSans-2e" transform="translate(99.707031 0)"/>
     <use xlink:href="#DejaVuSans-30" transform="translate(131.494141 0)"/>
     <use xlink:href="#DejaVuSans-30" transform="translate(195.117188 0)"/>
    </g>
   </g>
   <g id="text_41">
    <!-- -0.00 -->
    <g style="fill: #222222" transform="translate(426.879687 279.32225) scale(0.08 -0.08)">
     <use xlink:href="#DejaVuSans-2d"/>
     <use xlink:href="#DejaVuSans-30" transform="translate(36.083984 0)"/>
     <use xlink:href="#DejaVuSans-2e" transform="translate(99.707031 0)"/>
     <use xlink:href="#DejaVuSans-30" transform="translate(131.494141 0)"/>
     <use xlink:href="#DejaVuSans-30" transform="translate(195.117188 0)"/>
    </g>
   </g>
   <g id="text_42">
    <!-- -0.00 -->
    <g style="fill: #222222" transform="translate(129.279687 311.00225) scale(0.08 -0.08)">
     <use xlink:href="#DejaVuSans-2d"/>
     <use xlink:href="#DejaVuSans-30" transform="translate(36.083984 0)"/>
     <use xlink:href="#DejaVuSans-2e" transform="translate(99.707031 0)"/>
     <use xlink:href="#DejaVuSans-30" transform="translate(131.494141 0)"/>
     <use xlink:href="#DejaVuSans-30" transform="translate(195.117188 0)"/>
    </g>
   </g>
   <g id="text_43">
    <!-- 0.00 -->
    <g style="fill: #222222" transform="translate(279.522812 311.00225) scale(0.08 -0.08)">
     <use xlink:href="#DejaVuSans-30"/>
     <use xlink:href="#DejaVuSans-2e" transform="translate(63.623047 0)"/>
     <use xlink:href="#DejaVuSans-30" transform="translate(95.410156 0)"/>
     <use xlink:href="#DejaVuSans-30" transform="translate(159.033203 0)"/>
    </g>
   </g>
   <g id="text_44">
    <!-- 0.00 -->
    <g style="fill: #222222" transform="translate(428.322812 311.00225) scale(0.08 -0.08)">
     <use xlink:href="#DejaVuSans-30"/>
     <use xlink:href="#DejaVuSans-2e" transform="translate(63.623047 0)"/>
     <use xlink:href="#DejaVuSans-30" transform="translate(95.410156 0)"/>
     <use xlink:href="#DejaVuSans-30" transform="translate(159.033203 0)"/>
    </g>
   </g>
   <g id="text_45">
    <!-- 0.00 -->
    <g style="fill: #222222" transform="translate(130.722812 342.68225) scale(0.08 -0.08)">
     <use xlink:href="#DejaVuSans-30"/>
     <use xlink:href="#DejaVuSans-2e" transform="translate(63.623047 0)"/>
     <use xlink:href="#DejaVuSans-30" transform="translate(95.410156 0)"/>
     <use xlink:href="#DejaVuSans-30" transform="translate(159.033203 0)"/>
    </g>
   </g>
   <g id="text_46">
    <!-- -0.00 -->
    <g style="fill: #222222" transform="translate(278.079687 342.68225) scale(0.08 -0.08)">
     <use xlink:href="#DejaVuSans-2d"/>
     <use xlink:href="#DejaVuSans-30" transform="translate(36.083984 0)"/>
     <use xlink:href="#DejaVuSans-2e" transform="translate(99.707031 0)"/>
     <use xlink:href="#DejaVuSans-30" transform="translate(131.494141 0)"/>
     <use xlink:href="#DejaVuSans-30" transform="translate(195.117188 0)"/>
    </g>
   </g>
   <g id="text_47">
    <!-- -0.00 -->
    <g style="fill: #ffffff" transform="translate(426.879687 342.68225) scale(0.08 -0.08)">
     <use xlink:href="#DejaVuSans-2d"/>
     <use xlink:href="#DejaVuSans-30" transform="translate(36.083984 0)"/>
     <use xlink:href="#DejaVuSans-2e" transform="translate(99.707031 0)"/>
     <use xlink:href="#DejaVuSans-30" transform="translate(131.494141 0)"/>
     <use xlink:href="#DejaVuSans-30" transform="translate(195.117188 0)"/>
    </g>
   </g>
   <g id="text_48">
    <!-- 0.00 -->
    <g style="fill: #222222" transform="translate(130.722812 374.36225) scale(0.08 -0.08)">
     <use xlink:href="#DejaVuSans-30"/>
     <use xlink:href="#DejaVuSans-2e" transform="translate(63.623047 0)"/>
     <use xlink:href="#DejaVuSans-30" transform="translate(95.410156 0)"/>
     <use xlink:href="#DejaVuSans-30" transform="translate(159.033203 0)"/>
    </g>
   </g>
   <g id="text_49">
    <!-- -0.00 -->
    <g style="fill: #222222" transform="translate(278.079687 374.36225) scale(0.08 -0.08)">
     <use xlink:href="#DejaVuSans-2d"/>
     <use xlink:href="#DejaVuSans-30" transform="translate(36.083984 0)"/>
     <use xlink:href="#DejaVuSans-2e" transform="translate(99.707031 0)"/>
     <use xlink:href="#DejaVuSans-30" transform="translate(131.494141 0)"/>
     <use xlink:href="#DejaVuSans-30" transform="translate(195.117188 0)"/>
    </g>
   </g>
   <g id="text_50">
    <!-- -0.00 -->
    <g style="fill: #222222" transform="translate(426.879687 374.36225) scale(0.08 -0.08)">
     <use xlink:href="#DejaVuSans-2d"/>
     <use xlink:href="#DejaVuSans-30" transform="translate(36.083984 0)"/>
     <use xlink:href="#DejaVuSans-2e" transform="translate(99.707031 0)"/>
     <use xlink:href="#DejaVuSans-30" transform="translate(131.494141 0)"/>
     <use xlink:href="#DejaVuSans-30" transform="translate(195.117188 0)"/>
    </g>
   </g>
   <g id="text_51">
    <!-- -0.00 -->
    <g style="fill: #222222" transform="translate(129.279687 406.04225) scale(0.08 -0.08)">
     <use xlink:href="#DejaVuSans-2d"/>
     <use xlink:href="#DejaVuSans-30" transform="translate(36.083984 0)"/>
     <use xlink:href="#DejaVuSans-2e" transform="translate(99.707031 0)"/>
     <use xlink:href="#DejaVuSans-30" transform="translate(131.494141 0)"/>
     <use xlink:href="#DejaVuSans-30" transform="translate(195.117188 0)"/>
    </g>
   </g>
   <g id="text_52">
    <!-- 0.00 -->
    <g style="fill: #222222" transform="translate(279.522812 406.04225) scale(0.08 -0.08)">
     <use xlink:href="#DejaVuSans-30"/>
     <use xlink:href="#DejaVuSans-2e" transform="translate(63.623047 0)"/>
     <use xlink:href="#DejaVuSans-30" transform="translate(95.410156 0)"/>
     <use xlink:href="#DejaVuSans-30" transform="translate(159.033203 0)"/>
    </g>
   </g>
   <g id="text_53">
    <!-- 0.00 -->
    <g style="fill: #222222" transform="translate(428.322812 406.04225) scale(0.08 -0.08)">
     <use xlink:href="#DejaVuSans-30"/>
     <use xlink:href="#DejaVuSans-2e" transform="translate(63.623047 0)"/>
     <use xlink:href="#DejaVuSans-30" transform="translate(95.410156 0)"/>
     <use xlink:href="#DejaVuSans-30" transform="translate(159.033203 0)"/>
    </g>
   </g>
   <g id="text_54">
    <!-- -0.14 -->
    <g style="fill: #ffffff" transform="translate(129.279687 437.72225) scale(0.08 -0.08)">
     <use xlink:href="#DejaVuSans-2d"/>
     <use xlink:href="#DejaVuSans-30" transform="translate(36.083984 0)"/>
     <use xlink:href="#DejaVuSans-2e" transform="translate(99.707031 0)"/>
     <use xlink:href="#DejaVuSans-31" transform="translate(131.494141 0)"/>
     <use xlink:href="#DejaVuSans-34" transform="translate(195.117188 0)"/>
    </g>
   </g>
   <g id="text_55">
    <!-- -0.14 -->
    <g style="fill: #ffffff" transform="translate(278.079687 437.72225) scale(0.08 -0.08)">
     <use xlink:href="#DejaVuSans-2d"/>
     <use xlink:href="#DejaVuSans-30" transform="translate(36.083984 0)"/>
     <use xlink:href="#DejaVuSans-2e" transform="translate(99.707031 0)"/>
     <use xlink:href="#DejaVuSans-31" transform="translate(131.494141 0)"/>
     <use xlink:href="#DejaVuSans-34" transform="translate(195.117188 0)"/>
    </g>
   </g>
   <g id="text_56">
    <!-- -0.14 -->
    <g style="fill: #ffffff" transform="translate(426.879687 437.72225) scale(0.08 -0.08)">
     <use xlink:href="#DejaVuSans-2d"/>
     <use xlink:href="#DejaVuSans-30" transform="translate(36.083984 0)"/>
     <use xlink:href="#DejaVuSans-2e" transform="translate(99.707031 0)"/>
     <use xlink:href="#DejaVuSans-31" transform="translate(131.494141 0)"/>
     <use xlink:href="#DejaVuSans-34" transform="translate(195.117188 0)"/>
    </g>
   </g>
   <g id="text_57">
    <!-- 0.08 -->
    <g style="fill: #ffffff" transform="translate(130.722812 469.40225) scale(0.08 -0.08)">
     <defs>
      <path id="DejaVuSans-38" d="M 2034 2216 
Q 1584 2216 1326 1975 
Q 1069 1734 1069 1313 
Q 1069 891 1326 650 
Q 1584 409 2034 409 
Q 2484 409 2743 651 
Q 3003 894 3003 1313 
Q 3003 1734 2745 1975 
Q 2488 2216 2034 2216 
z
M 1403 2484 
Q 997 2584 770 2862 
Q 544 3141 544 3541 
Q 544 4100 942 4425 
Q 1341 4750 2034 4750 
Q 2731 4750 3128 4425 
Q 3525 4100 3525 3541 
Q 3525 3141 3298 2862 
Q 3072 2584 2669 2484 
Q 3125 2378 3379 2068 
Q 3634 1759 3634 1313 
Q 3634 634 3220 271 
Q 2806 -91 2034 -91 
Q 1263 -91 848 271 
Q 434 634 434 1313 
Q 434 1759 690 2068 
Q 947 2378 1403 2484 
z
M 1172 3481 
Q 1172 3119 1398 2916 
Q 1625 2713 2034 2713 
Q 2441 2713 2670 2916 
Q 2900 3119 2900 3481 
Q 2900 3844 2670 4047 
Q 2441 4250 2034 4250 
Q 1625 4250 1398 4047 
Q 1172 3844 1172 3481 
z
" transform="scale(0.015625)"/>
     </defs>
     <use xlink:href="#DejaVuSans-30"/>
     <use xlink:href="#DejaVuSans-2e" transform="translate(63.623047 0)"/>
     <use xlink:href="#DejaVuSans-30" transform="translate(95.410156 0)"/>
     <use xlink:href="#DejaVuSans-38" transform="translate(159.033203 0)"/>
    </g>
   </g>
   <g id="text_58">
    <!-- 0.08 -->
    <g style="fill: #ffffff" transform="translate(279.522812 469.40225) scale(0.08 -0.08)">
     <use xlink:href="#DejaVuSans-30"/>
     <use xlink:href="#DejaVuSans-2e" transform="translate(63.623047 0)"/>
     <use xlink:href="#DejaVuSans-30" transform="translate(95.410156 0)"/>
     <use xlink:href="#DejaVuSans-38" transform="translate(159.033203 0)"/>
    </g>
   </g>
   <g id="text_59">
    <!-- 0.08 -->
    <g style="fill: #ffffff" transform="translate(428.322812 469.40225) scale(0.08 -0.08)">
     <use xlink:href="#DejaVuSans-30"/>
     <use xlink:href="#DejaVuSans-2e" transform="translate(63.623047 0)"/>
     <use xlink:href="#DejaVuSans-30" transform="translate(95.410156 0)"/>
     <use xlink:href="#DejaVuSans-38" transform="translate(159.033203 0)"/>
    </g>
   </g>
   <g id="text_60">
    <!-- Mechanism evidence scorecard -->
    <g transform="translate(165.130625 17.837812) scale(0.14 -0.14)">
     <defs>
      <path id="DejaVuSans-Bold-4d" d="M 588 4666 
L 2119 4666 
L 3181 2169 
L 4250 4666 
L 5778 4666 
L 5778 0 
L 4641 0 
L 4641 3413 
L 3566 897 
L 2803 897 
L 1728 3413 
L 1728 0 
L 588 0 
L 588 4666 
z
" transform="scale(0.015625)"/>
      <path id="DejaVuSans-Bold-65" d="M 4031 1759 
L 4031 1441 
L 1416 1441 
Q 1456 1047 1700 850 
Q 1944 653 2381 653 
Q 2734 653 3104 758 
Q 3475 863 3866 1075 
L 3866 213 
Q 3469 63 3072 -14 
Q 2675 -91 2278 -91 
Q 1328 -91 801 392 
Q 275 875 275 1747 
Q 275 2603 792 3093 
Q 1309 3584 2216 3584 
Q 3041 3584 3536 3087 
Q 4031 2591 4031 1759 
z
M 2881 2131 
Q 2881 2450 2695 2645 
Q 2509 2841 2209 2841 
Q 1884 2841 1681 2658 
Q 1478 2475 1428 2131 
L 2881 2131 
z
" transform="scale(0.015625)"/>
      <path id="DejaVuSans-Bold-63" d="M 3366 3391 
L 3366 2478 
Q 3138 2634 2908 2709 
Q 2678 2784 2431 2784 
Q 1963 2784 1702 2511 
Q 1441 2238 1441 1747 
Q 1441 1256 1702 982 
Q 1963 709 2431 709 
Q 2694 709 2930 787 
Q 3166 866 3366 1019 
L 3366 103 
Q 3103 6 2833 -42 
Q 2563 -91 2291 -91 
Q 1344 -91 809 395 
Q 275 881 275 1747 
Q 275 2613 809 3098 
Q 1344 3584 2291 3584 
Q 2566 3584 2833 3536 
Q 3100 3488 3366 3391 
z
" transform="scale(0.015625)"/>
      <path id="DejaVuSans-Bold-68" d="M 4056 2131 
L 4056 0 
L 2931 0 
L 2931 347 
L 2931 1625 
Q 2931 2084 2911 2256 
Q 2891 2428 2841 2509 
Q 2775 2619 2662 2680 
Q 2550 2741 2406 2741 
Q 2056 2741 1856 2470 
Q 1656 2200 1656 1722 
L 1656 0 
L 538 0 
L 538 4863 
L 1656 4863 
L 1656 2988 
Q 1909 3294 2193 3439 
Q 2478 3584 2822 3584 
Q 3428 3584 3742 3212 
Q 4056 2841 4056 2131 
z
" transform="scale(0.015625)"/>
      <path id="DejaVuSans-Bold-61" d="M 2106 1575 
Q 1756 1575 1579 1456 
Q 1403 1338 1403 1106 
Q 1403 894 1545 773 
Q 1688 653 1941 653 
Q 2256 653 2472 879 
Q 2688 1106 2688 1447 
L 2688 1575 
L 2106 1575 
z
M 3816 1997 
L 3816 0 
L 2688 0 
L 2688 519 
Q 2463 200 2181 54 
Q 1900 -91 1497 -91 
Q 953 -91 614 226 
Q 275 544 275 1050 
Q 275 1666 698 1953 
Q 1122 2241 2028 2241 
L 2688 2241 
L 2688 2328 
Q 2688 2594 2478 2717 
Q 2269 2841 1825 2841 
Q 1466 2841 1156 2769 
Q 847 2697 581 2553 
L 581 3406 
Q 941 3494 1303 3539 
Q 1666 3584 2028 3584 
Q 2975 3584 3395 3211 
Q 3816 2838 3816 1997 
z
" transform="scale(0.015625)"/>
      <path id="DejaVuSans-Bold-6e" d="M 4056 2131 
L 4056 0 
L 2931 0 
L 2931 347 
L 2931 1631 
Q 2931 2084 2911 2256 
Q 2891 2428 2841 2509 
Q 2775 2619 2662 2680 
Q 2550 2741 2406 2741 
Q 2056 2741 1856 2470 
Q 1656 2200 1656 1722 
L 1656 0 
L 538 0 
L 538 3500 
L 1656 3500 
L 1656 2988 
Q 1909 3294 2193 3439 
Q 2478 3584 2822 3584 
Q 3428 3584 3742 3212 
Q 4056 2841 4056 2131 
z
" transform="scale(0.015625)"/>
      <path id="DejaVuSans-Bold-69" d="M 538 3500 
L 1656 3500 
L 1656 0 
L 538 0 
L 538 3500 
z
M 538 4863 
L 1656 4863 
L 1656 3950 
L 538 3950 
L 538 4863 
z
" transform="scale(0.015625)"/>
      <path id="DejaVuSans-Bold-73" d="M 3272 3391 
L 3272 2541 
Q 2913 2691 2578 2766 
Q 2244 2841 1947 2841 
Q 1628 2841 1473 2761 
Q 1319 2681 1319 2516 
Q 1319 2381 1436 2309 
Q 1553 2238 1856 2203 
L 2053 2175 
Q 2913 2066 3209 1816 
Q 3506 1566 3506 1031 
Q 3506 472 3093 190 
Q 2681 -91 1863 -91 
Q 1516 -91 1145 -36 
Q 775 19 384 128 
L 384 978 
Q 719 816 1070 734 
Q 1422 653 1784 653 
Q 2113 653 2278 743 
Q 2444 834 2444 1013 
Q 2444 1163 2330 1236 
Q 2216 1309 1875 1350 
L 1678 1375 
Q 931 1469 631 1722 
Q 331 1975 331 2491 
Q 331 3047 712 3315 
Q 1094 3584 1881 3584 
Q 2191 3584 2531 3537 
Q 2872 3491 3272 3391 
z
" transform="scale(0.015625)"/>
      <path id="DejaVuSans-Bold-6d" d="M 3781 2919 
Q 3994 3244 4286 3414 
Q 4578 3584 4928 3584 
Q 5531 3584 5847 3212 
Q 6163 2841 6163 2131 
L 6163 0 
L 5038 0 
L 5038 1825 
Q 5041 1866 5042 1909 
Q 5044 1953 5044 2034 
Q 5044 2406 4934 2573 
Q 4825 2741 4581 2741 
Q 4263 2741 4089 2478 
Q 3916 2216 3909 1719 
L 3909 0 
L 2784 0 
L 2784 1825 
Q 2784 2406 2684 2573 
Q 2584 2741 2328 2741 
Q 2006 2741 1831 2477 
Q 1656 2213 1656 1722 
L 1656 0 
L 531 0 
L 531 3500 
L 1656 3500 
L 1656 2988 
Q 1863 3284 2130 3434 
Q 2397 3584 2719 3584 
Q 3081 3584 3359 3409 
Q 3638 3234 3781 2919 
z
" transform="scale(0.015625)"/>
      <path id="DejaVuSans-Bold-20" transform="scale(0.015625)"/>
      <path id="DejaVuSans-Bold-76" d="M 97 3500 
L 1216 3500 
L 2088 1081 
L 2956 3500 
L 4078 3500 
L 2700 0 
L 1472 0 
L 97 3500 
z
" transform="scale(0.015625)"/>
      <path id="DejaVuSans-Bold-64" d="M 2919 2988 
L 2919 4863 
L 4044 4863 
L 4044 0 
L 2919 0 
L 2919 506 
Q 2688 197 2409 53 
Q 2131 -91 1766 -91 
Q 1119 -91 703 423 
Q 288 938 288 1747 
Q 288 2556 703 3070 
Q 1119 3584 1766 3584 
Q 2128 3584 2408 3439 
Q 2688 3294 2919 2988 
z
M 2181 722 
Q 2541 722 2730 984 
Q 2919 1247 2919 1747 
Q 2919 2247 2730 2509 
Q 2541 2772 2181 2772 
Q 1825 2772 1636 2509 
Q 1447 2247 1447 1747 
Q 1447 1247 1636 984 
Q 1825 722 2181 722 
z
" transform="scale(0.015625)"/>
      <path id="DejaVuSans-Bold-6f" d="M 2203 2784 
Q 1831 2784 1636 2517 
Q 1441 2250 1441 1747 
Q 1441 1244 1636 976 
Q 1831 709 2203 709 
Q 2569 709 2762 976 
Q 2956 1244 2956 1747 
Q 2956 2250 2762 2517 
Q 2569 2784 2203 2784 
z
M 2203 3584 
Q 3106 3584 3614 3096 
Q 4122 2609 4122 1747 
Q 4122 884 3614 396 
Q 3106 -91 2203 -91 
Q 1297 -91 786 396 
Q 275 884 275 1747 
Q 275 2609 786 3096 
Q 1297 3584 2203 3584 
z
" transform="scale(0.015625)"/>
      <path id="DejaVuSans-Bold-72" d="M 3138 2547 
Q 2991 2616 2845 2648 
Q 2700 2681 2553 2681 
Q 2122 2681 1889 2404 
Q 1656 2128 1656 1613 
L 1656 0 
L 538 0 
L 538 3500 
L 1656 3500 
L 1656 2925 
Q 1872 3269 2151 3426 
Q 2431 3584 2822 3584 
Q 2878 3584 2943 3579 
Q 3009 3575 3134 3559 
L 3138 2547 
z
" transform="scale(0.015625)"/>
     </defs>
     <use xlink:href="#DejaVuSans-Bold-4d"/>
     <use xlink:href="#DejaVuSans-Bold-65" transform="translate(99.511719 0)"/>
     <use xlink:href="#DejaVuSans-Bold-63" transform="translate(167.333984 0)"/>
     <use xlink:href="#DejaVuSans-Bold-68" transform="translate(226.611328 0)"/>
     <use xlink:href="#DejaVuSans-Bold-61" transform="translate(297.802734 0)"/>
     <use xlink:href="#DejaVuSans-Bold-6e" transform="translate(365.283203 0)"/>
     <use xlink:href="#DejaVuSans-Bold-69" transform="translate(436.474609 0)"/>
     <use xlink:href="#DejaVuSans-Bold-73" transform="translate(470.751953 0)"/>
     <use xlink:href="#DejaVuSans-Bold-6d" transform="translate(530.273438 0)"/>
     <use xlink:href="#DejaVuSans-Bold-20" transform="translate(634.472656 0)"/>
     <use xlink:href="#DejaVuSans-Bold-65" transform="translate(669.287109 0)"/>
     <use xlink:href="#DejaVuSans-Bold-76" transform="translate(737.109375 0)"/>
     <use xlink:href="#DejaVuSans-Bold-69" transform="translate(802.294922 0)"/>
     <use xlink:href="#DejaVuSans-Bold-64" transform="translate(836.572266 0)"/>
     <use xlink:href="#DejaVuSans-Bold-65" transform="translate(908.154297 0)"/>
     <use xlink:href="#DejaVuSans-Bold-6e" transform="translate(975.976562 0)"/>
     <use xlink:href="#DejaVuSans-Bold-63" transform="translate(1047.167969 0)"/>
     <use xlink:href="#DejaVuSans-Bold-65" transform="translate(1106.445312 0)"/>
     <use xlink:href="#DejaVuSans-Bold-20" transform="translate(1174.267578 0)"/>
     <use xlink:href="#DejaVuSans-Bold-73" transform="translate(1209.082031 0)"/>
     <use xlink:href="#DejaVuSans-Bold-63" transform="translate(1268.603516 0)"/>
     <use xlink:href="#DejaVuSans-Bold-6f" transform="translate(1327.880859 0)"/>
     <use xlink:href="#DejaVuSans-Bold-72" transform="translate(1396.582031 0)"/>
     <use xlink:href="#DejaVuSans-Bold-65" transform="translate(1445.898438 0)"/>
     <use xlink:href="#DejaVuSans-Bold-63" transform="translate(1513.720703 0)"/>
     <use xlink:href="#DejaVuSans-Bold-61" transform="translate(1572.998047 0)"/>
     <use xlink:href="#DejaVuSans-Bold-72" transform="translate(1640.478516 0)"/>
     <use xlink:href="#DejaVuSans-Bold-64" transform="translate(1689.794922 0)"/>
    </g>
    <!-- Size = statistical strength; color = sign -->
    <g transform="translate(133.635 33.51475) scale(0.14 -0.14)">
     <defs>
      <path id="DejaVuSans-Bold-53" d="M 3834 4519 
L 3834 3531 
Q 3450 3703 3084 3790 
Q 2719 3878 2394 3878 
Q 1963 3878 1756 3759 
Q 1550 3641 1550 3391 
Q 1550 3203 1689 3098 
Q 1828 2994 2194 2919 
L 2706 2816 
Q 3484 2659 3812 2340 
Q 4141 2022 4141 1434 
Q 4141 663 3683 286 
Q 3225 -91 2284 -91 
Q 1841 -91 1394 -6 
Q 947 78 500 244 
L 500 1259 
Q 947 1022 1364 901 
Q 1781 781 2169 781 
Q 2563 781 2772 912 
Q 2981 1044 2981 1288 
Q 2981 1506 2839 1625 
Q 2697 1744 2272 1838 
L 1806 1941 
Q 1106 2091 782 2419 
Q 459 2747 459 3303 
Q 459 4000 909 4375 
Q 1359 4750 2203 4750 
Q 2588 4750 2994 4692 
Q 3400 4634 3834 4519 
z
" transform="scale(0.015625)"/>
      <path id="DejaVuSans-Bold-7a" d="M 366 3500 
L 3419 3500 
L 3419 2719 
L 1575 800 
L 3419 800 
L 3419 0 
L 288 0 
L 288 781 
L 2131 2700 
L 366 2700 
L 366 3500 
z
" transform="scale(0.015625)"/>
      <path id="DejaVuSans-Bold-3d" d="M 678 3084 
L 4684 3084 
L 4684 2350 
L 678 2350 
L 678 3084 
z
M 678 1663 
L 4684 1663 
L 4684 922 
L 678 922 
L 678 1663 
z
" transform="scale(0.015625)"/>
      <path id="DejaVuSans-Bold-74" d="M 1759 4494 
L 1759 3500 
L 2913 3500 
L 2913 2700 
L 1759 2700 
L 1759 1216 
Q 1759 972 1856 886 
Q 1953 800 2241 800 
L 2816 800 
L 2816 0 
L 1856 0 
Q 1194 0 917 276 
Q 641 553 641 1216 
L 641 2700 
L 84 2700 
L 84 3500 
L 641 3500 
L 641 4494 
L 1759 4494 
z
" transform="scale(0.015625)"/>
      <path id="DejaVuSans-Bold-6c" d="M 538 4863 
L 1656 4863 
L 1656 0 
L 538 0 
L 538 4863 
z
" transform="scale(0.015625)"/>
      <path id="DejaVuSans-Bold-67" d="M 2919 594 
Q 2688 288 2409 144 
Q 2131 0 1766 0 
Q 1125 0 706 504 
Q 288 1009 288 1791 
Q 288 2575 706 3076 
Q 1125 3578 1766 3578 
Q 2131 3578 2409 3434 
Q 2688 3291 2919 2981 
L 2919 3500 
L 4044 3500 
L 4044 353 
Q 4044 -491 3511 -936 
Q 2978 -1381 1966 -1381 
Q 1638 -1381 1331 -1331 
Q 1025 -1281 716 -1178 
L 716 -306 
Q 1009 -475 1290 -558 
Q 1572 -641 1856 -641 
Q 2406 -641 2662 -400 
Q 2919 -159 2919 353 
L 2919 594 
z
M 2181 2772 
Q 1834 2772 1640 2515 
Q 1447 2259 1447 1791 
Q 1447 1309 1634 1061 
Q 1822 813 2181 813 
Q 2531 813 2725 1069 
Q 2919 1325 2919 1791 
Q 2919 2259 2725 2515 
Q 2531 2772 2181 2772 
z
" transform="scale(0.015625)"/>
      <path id="DejaVuSans-Bold-3b" d="M 716 1209 
L 1844 1209 
L 1844 256 
L 1069 -909 
L 403 -909 
L 716 256 
L 716 1209 
z
M 716 3500 
L 1844 3500 
L 1844 2291 
L 716 2291 
L 716 3500 
z
" transform="scale(0.015625)"/>
     </defs>
     <use xlink:href="#DejaVuSans-Bold-53"/>
     <use xlink:href="#DejaVuSans-Bold-69" transform="translate(72.021484 0)"/>
     <use xlink:href="#DejaVuSans-Bold-7a" transform="translate(106.298828 0)"/>
     <use xlink:href="#DejaVuSans-Bold-65" transform="translate(164.501953 0)"/>
     <use xlink:href="#DejaVuSans-Bold-20" transform="translate(232.324219 0)"/>
     <use xlink:href="#DejaVuSans-Bold-3d" transform="translate(267.138672 0)"/>
     <use xlink:href="#DejaVuSans-Bold-20" transform="translate(350.927734 0)"/>
     <use xlink:href="#DejaVuSans-Bold-73" transform="translate(385.742188 0)"/>
     <use xlink:href="#DejaVuSans-Bold-74" transform="translate(445.263672 0)"/>
     <use xlink:href="#DejaVuSans-Bold-61" transform="translate(493.066406 0)"/>
     <use xlink:href="#DejaVuSans-Bold-74" transform="translate(560.546875 0)"/>
     <use xlink:href="#DejaVuSans-Bold-69" transform="translate(608.349609 0)"/>
     <use xlink:href="#DejaVuSans-Bold-73" transform="translate(642.626953 0)"/>
     <use xlink:href="#DejaVuSans-Bold-74" transform="translate(702.148438 0)"/>
     <use xlink:href="#DejaVuSans-Bold-69" transform="translate(749.951172 0)"/>
     <use xlink:href="#DejaVuSans-Bold-63" transform="translate(784.228516 0)"/>
     <use xlink:href="#DejaVuSans-Bold-61" transform="translate(843.505859 0)"/>
     <use xlink:href="#DejaVuSans-Bold-6c" transform="translate(910.986328 0)"/>
     <use xlink:href="#DejaVuSans-Bold-20" transform="translate(945.263672 0)"/>
     <use xlink:href="#DejaVuSans-Bold-73" transform="translate(980.078125 0)"/>
     <use xlink:href="#DejaVuSans-Bold-74" transform="translate(1039.599609 0)"/>
     <use xlink:href="#DejaVuSans-Bold-72" transform="translate(1087.402344 0)"/>
     <use xlink:href="#DejaVuSans-Bold-65" transform="translate(1136.71875 0)"/>
     <use xlink:href="#DejaVuSans-Bold-6e" transform="translate(1204.541016 0)"/>
     <use xlink:href="#DejaVuSans-Bold-67" transform="translate(1275.732422 0)"/>
     <use xlink:href="#DejaVuSans-Bold-74" transform="translate(1347.314453 0)"/>
     <use xlink:href="#DejaVuSans-Bold-68" transform="translate(1395.117188 0)"/>
     <use xlink:href="#DejaVuSans-Bold-3b" transform="translate(1466.308594 0)"/>
     <use xlink:href="#DejaVuSans-Bold-20" transform="translate(1506.298828 0)"/>
     <use xlink:href="#DejaVuSans-Bold-63" transform="translate(1541.113281 0)"/>
     <use xlink:href="#DejaVuSans-Bold-6f" transform="translate(1600.390625 0)"/>
     <use xlink:href="#DejaVuSans-Bold-6c" transform="translate(1669.091797 0)"/>
     <use xlink:href="#DejaVuSans-Bold-6f" transform="translate(1703.369141 0)"/>
     <use xlink:href="#DejaVuSans-Bold-72" transform="translate(1772.070312 0)"/>
     <use xlink:href="#DejaVuSans-Bold-20" transform="translate(1821.386719 0)"/>
     <use xlink:href="#DejaVuSans-Bold-3d" transform="translate(1856.201172 0)"/>
     <use xlink:href="#DejaVuSans-Bold-20" transform="translate(1939.990234 0)"/>
     <use xlink:href="#DejaVuSans-Bold-73" transform="translate(1974.804688 0)"/>
     <use xlink:href="#DejaVuSans-Bold-69" transform="translate(2034.326172 0)"/>
     <use xlink:href="#DejaVuSans-Bold-67" transform="translate(2068.603516 0)"/>
     <use xlink:href="#DejaVuSans-Bold-6e" transform="translate(2140.185547 0)"/>
    </g>
   </g>
  </g>
 </g>
 <defs>
  <clipPath id="p4eadfe8f24">
   <rect x="65.229062" y="39.51475" width="446.4" height="443.52"/>
  </clipPath>
 </defs>
</svg>
