<?xml version="1.0" encoding="utf-8" standalone="no"?>
<!DOCTYPE svg PUBLIC "-//W3C//DTD SVG 1.1//EN"
  "http://www.w3.org/Graphics/SVG/1.1/DTD/svg11.dtd">
<svg xmlns:xlink="http://www.w3.org/1999/xlink" width="572.4pt" height="347.04pt" viewBox="0 0 572.4 347.04" xmlns="http://www.w3.org/2000/svg" version="1.1">
 <metadata>
  <rdf:RDF xmlns:dc="http://purl.org/dc/elements/1.1/" xmlns:cc="http://creativecommons.org/ns#" xmlns:rdf="http://www.w3.org/1999/02/22-rdf-syntax-ns#">
   <cc:Work>
    <dc:type rdf:resource="http://purl.org/dc/dcmitype/StillImage"/>
    <dc:date>2026-04-09T12:24:29.928899</dc:date>
    <dc:format>image/svg+xml</dc:format>
    <dc:creator>
     <cc:Agent>
      <dc:title>Matplotlib v3.10.8, https://matplotlib.org/</dc:title>
     </cc:Agent>
    </dc:creator>
   </cc:Work>
  </rdf:RDF>
 </metadata>
 <defs>
  <style type="text/css">*{stroke-linejoin: round; stroke-linecap: butt}</style>
 </defs>
 <g id="figure_1">
  <g id="patch_1">
   <path d="M 0 347.04 
L 572.4 347.04 
L 572.4 -0 
L 0 -0 
z
" style="fill: #ffffff"/>
  </g>
  <g id="axes_1">
   <g id="patch_2">
    <path d="M 51.84 191.8152 
C 59.979083 191.8152 67.785906 189.887502 73.541107 186.45666 
C 79.296308 183.025818 82.53 178.371944 82.53 173.52 
C 82.53 168.668056 79.296308 164.014182 73.541107 160.58334 
C 67.785906 157.152498 59.979083 155.2248 51.84 155.2248 
C 43.700917 155.2248 35.894094 157.152498 30.138893 160.58334 
C 24.383692 164.014182 21.15 168.668056 21.15 173.52 
C 21.15 178.371944 24.383692 183.025818 30.138893 186.45666 
C 35.894094 189.887502 43.700917 191.8152 51.84 191.8152 
z
" clip-path="url(#p0fa4e5c40c)" style="fill: #ffffff; stroke: #2b3a42; stroke-width: 1.8; stroke-linejoin: miter"/>
   </g>
   <g id="patch_3">
    <path d="M 219.24 108.6552 
C 227.379083 108.6552 235.185906 106.727502 240.941107 103.29666 
C 246.696308 99.865818 249.93 95.211944 249.93 90.36 
C 249.93 85.508056 246.696308 80.854182 240.941107 77.42334 
C 235.185906 73.992498 227.379083 72.0648 219.24 72.0648 
C 211.100917 72.0648 203.294094 73.992498 197.538893 77.42334 
C 191.783692 80.854182 188.55 85.508056 188.55 90.36 
C 188.55 95.211944 191.783692 99.865818 197.538893 103.29666 
C 203.294094 106.727502 211.100917 108.6552 219.24 108.6552 
z
" clip-path="url(#p0fa4e5c40c)" style="fill: #ffffff; stroke: #2b3a42; stroke-width: 1.8; stroke-linejoin: miter"/>
   </g>
   <g id="patch_4">
    <path d="M 219.24 191.8152 
C 227.379083 191.8152 235.185906 189.887502 240.941107 186.45666 
C 246.696308 183.025818 249.93 178.371944 249.93 173.52 
C 249.93 168.668056 246.696308 164.014182 240.941107 160.58334 
C 235.185906 157.152498 227.379083 155.2248 219.24 155.2248 
C 211.100917 155.2248 203.294094 157.152498 197.538893 160.58334 
C 191.783692 164.014182 188.55 168.668056 188.55 173.52 
C 188.55 178.371944 191.783692 183.025818 197.538893 186.45666 
C 203.294094 189.887502 211.100917 191.8152 219.24 191.8152 
z
" clip-path="url(#p0fa4e5c40c)" style="fill: #ffffff; stroke: #2b3a42; stroke-width: 1.8; stroke-linejoin: miter"/>
   </g>
   <g id="patch_5">
    <path d="M 219.24 274.9752 
C 227.379083 274.9752 235.185906 273.047502 240.941107 269.61666 
C 246.696308 266.185818 249.93 261.531944 249.93 256.68 
C 249.93 251.828056 246.696308 247.174182 240.941107 243.74334 
C 235.185906 240.312498 227.379083 238.3848 219.24 238.3848 
C 211.100917 238.3848 203.294094 240.312498 197.538893 243.74334 
C 191.783692 247.174182 188.55 251.828056 188.55 256.68 
C 188.55 261.531944 191.783692 266.185818 197.538893 269.61666 
C 203.294094 273.047502 211.100917 274.9752 219.24 274.9752 
z
" clip-path="url(#p0fa4e5c40c)" style="fill: #ffffff; stroke: #2b3a42; stroke-width: 1.8; stroke-linejoin: miter"/>
   </g>
   <g id="patch_6">
    <path d="M 442.44 118.6344 
C 450.579083 118.6344 458.385906 116.706702 464.141107 113.27586 
C 469.896308 109.845018 473.13 105.191144 473.13 100.3392 
C 473.13 95.487256 469.896308 90.833382 464.141107 87.40254 
C 458.385906 83.971698 450.579083 82.044 442.44 82.044 
C 434.300917 82.044 426.494094 83.971698 420.738893 87.40254 
C 414.983692 90.833382 411.75 95.487256 411.75 100.3392 
C 411.75 105.191144 414.983692 109.845018 420.738893 113.27586 
C 426.494094 116.706702 434.300917 118.6344 442.44 118.6344 
z
" clip-path="url(#p0fa4e5c40c)" style="fill: #ffffff; stroke: #2b3a42; stroke-width: 1.8; stroke-linejoin: miter"/>
   </g>
   <g id="patch_7">
    <path d="M 442.44 191.8152 
C 450.579083 191.8152 458.385906 189.887502 464.141107 186.45666 
C 469.896308 183.025818 473.13 178.371944 473.13 173.52 
C 473.13 168.668056 469.896308 164.014182 464.141107 160.58334 
C 458.385906 157.152498 450.579083 155.2248 442.44 155.2248 
C 434.300917 155.2248 426.494094 157.152498 420.738893 160.58334 
C 414.983692 164.014182 411.75 168.668056 411.75 173.52 
C 411.75 178.371944 414.983692 183.025818 420.738893 186.45666 
C 426.494094 189.887502 434.300917 191.8152 442.44 191.8152 
z
" clip-path="url(#p0fa4e5c40c)" style="fill: #ffffff; stroke: #2b3a42; stroke-width: 1.8; stroke-linejoin: miter"/>
   </g>
   <g id="patch_8">
    <path d="M 442.44 264.996 
C 450.579083 264.996 458.385906 263.068302 464.141107 259.63746 
C 469.896308 256.206618 473.13 251.552744 473.13 246.7008 
C 473.13 241.848856 469.896308 237.194982 464.141107 233.76414 
C 458.385906 230.333298 450.579083 228.4056 442.44 228.4056 
C 434.300917 228.4056 426.494094 230.333298 420.738893 233.76414 
C 414.983692 237.194982 411.75 241.848856 411.75 246.7008 
C 411.75 251.552744 414.983692 256.206618 420.738893 259.63746 
C 426.494094 263.068302 434.300917 264.996 442.44 264.996 
z
" clip-path="url(#p0fa4e5c40c)" style="fill: #ffffff; stroke: #2b3a42; stroke-width: 1.8; stroke-linejoin: miter"/>
   </g>
   <g id="patch_9">
    <path d="M 53.630579 172.630486 
Q 135.539468 131.940264 211.94127 93.985821 
" clip-path="url(#p0fa4e5c40c)" style="fill: none; opacity: 0.85; stroke: #3e5c76; stroke-width: 5.5; stroke-linecap: round"/>
    <path d="M 206.574725 93.971954 
L 211.94127 93.985821 
L 208.710249 98.270737 
z
" clip-path="url(#p0fa4e5c40c)" style="fill: #3e5c76; opacity: 0.85; stroke: #3e5c76; stroke-width: 5.5; stroke-linecap: round"/>
   </g>
   <g id="patch_10">
    <path d="M 53.840034 173.52 
Q 135.539329 173.52 211.815459 173.52 
" clip-path="url(#p0fa4e5c40c)" style="fill: none; opacity: 0.35; stroke-dasharray: 14.551878,14.551878; stroke-dashoffset: 0; stroke: #8c3b3b; stroke-width: 4.850626; stroke-linecap: round"/>
    <path d="M 207.015459 171.12 
L 211.815459 173.52 
L 207.015459 175.92 
z
" clip-path="url(#p0fa4e5c40c)" style="fill: #8c3b3b; opacity: 0.35; stroke-dasharray: 14.551878,14.551878; stroke-dashoffset: 0; stroke: #8c3b3b; stroke-width: 4.850626; stroke-linecap: round"/>
   </g>
   <g id="patch_11">
    <path d="M 53.630579 174.409514 
Q 135.539468 215.099736 215.084007 254.61541 
" clip-path="url(#p0fa4e5c40c)" style="fill: none; opacity: 0.35; stroke-dasharray: 7.083923,7.083923; stroke-dashoffset: 0; stroke: #8c3b3b; stroke-width: 2.361308; stroke-linecap: round"/>
    <path d="M 211.852986 250.330494 
L 215.084007 254.61541 
L 209.717462 254.629277 
z
" clip-path="url(#p0fa4e5c40c)" style="fill: #8c3b3b; opacity: 0.35; stroke-dasharray: 7.083923,7.083923; stroke-dashoffset: 0; stroke: #8c3b3b; stroke-width: 2.361308; stroke-linecap: round"/>
   </g>
   <g id="patch_12">
    <path d="M 221.239182 90.449383 
Q 330.842203 95.349698 438.76984 100.175108 
" clip-path="url(#p0fa4e5c40c)" style="fill: none; opacity: 0.35; stroke-dasharray: 4.500016,4.500016; stroke-dashoffset: 0; stroke: #3e5c76; stroke-width: 1.500005; stroke-linecap: round"/>
    <path d="M 434.081826 97.563111 
L 438.76984 100.175108 
L 433.867434 102.358321 
z
" clip-path="url(#p0fa4e5c40c)" style="fill: #3e5c76; opacity: 0.35; stroke-dasharray: 4.500016,4.500016; stroke-dashoffset: 0; stroke: #3e5c76; stroke-width: 1.500005; stroke-linecap: round"/>
   </g>
   <g id="patch_13">
    <path d="M 221.143821 172.895792 
Q 330.841366 136.929152 438.945322 101.485003 
" clip-path="url(#p0fa4e5c40c)" style="fill: none; opacity: 0.35; stroke-dasharray: 4.50002,4.50002; stroke-dashoffset: 0; stroke: #3e5c76; stroke-width: 1.500007; stroke-linecap: round"/>
    <path d="M 433.636497 100.699906 
L 438.945322 101.485003 
L 435.131949 105.261005 
z
" clip-path="url(#p0fa4e5c40c)" style="fill: #3e5c76; opacity: 0.35; stroke-dasharray: 4.50002,4.50002; stroke-dashoffset: 0; stroke: #3e5c76; stroke-width: 1.500007; stroke-linecap: round"/>
   </g>
   <g id="patch_14">
    <path d="M 220.878171 255.53254 
Q 330.83925 178.510125 439.426722 102.449856 
" clip-path="url(#p0fa4e5c40c)" style="fill: none; opacity: 0.35; stroke-dasharray: 4.500016,4.500016; stroke-dashoffset: 0; stroke: #8c3b3b; stroke-width: 1.500005; stroke-linecap: round"/>
    <path d="M 434.118338 103.237927 
L 439.426722 102.449856 
L 436.872148 107.169406 
z
" clip-path="url(#p0fa4e5c40c)" style="fill: #8c3b3b; opacity: 0.35; stroke-dasharray: 4.500016,4.500016; stroke-dashoffset: 0; stroke: #8c3b3b; stroke-width: 1.500005; stroke-linecap: round"/>
   </g>
   <g id="patch_15">
    <path d="M 53.803847 173.152064 
Q 247.139007 136.929786 438.82379 101.016714 
" clip-path="url(#p0fa4e5c40c)" style="fill: none; opacity: 0.35; stroke-dasharray: 4.505476,4.505476; stroke-dashoffset: 0; stroke: #3e5c76; stroke-width: 1.501825; stroke-linecap: round"/>
    <path d="M 433.663918 99.541682 
L 438.82379 101.016714 
L 434.547842 104.259593 
z
" clip-path="url(#p0fa4e5c40c)" style="fill: #3e5c76; opacity: 0.35; stroke-dasharray: 4.505476,4.505476; stroke-dashoffset: 0; stroke: #3e5c76; stroke-width: 1.501825; stroke-linecap: round"/>
   </g>
   <g id="patch_16">
    <path d="M 221.116575 91.059175 
Q 330.841134 131.940423 438.994171 172.236151 
" clip-path="url(#p0fa4e5c40c)" style="fill: none; opacity: 0.35; stroke-dasharray: 4.500014,4.500014; stroke-dashoffset: 0; stroke: #8c3b3b; stroke-width: 1.500005; stroke-linecap: round"/>
    <path d="M 435.334148 168.311329 
L 438.994171 172.236151 
L 433.6583 172.809276 
z
" clip-path="url(#p0fa4e5c40c)" style="fill: #8c3b3b; opacity: 0.35; stroke-dasharray: 4.500014,4.500014; stroke-dashoffset: 0; stroke: #8c3b3b; stroke-width: 1.500005; stroke-linecap: round"/>
   </g>
   <g id="patch_17">
    <path d="M 221.239182 173.52 
Q 330.838827 173.52 438.761416 173.52 
" clip-path="url(#p0fa4e5c40c)" style="fill: none; opacity: 0.35; stroke-dasharray: 4.500017,4.500017; stroke-dashoffset: 0; stroke: #8c3b3b; stroke-width: 1.500006; stroke-linecap: round"/>
    <path d="M 433.961416 171.12 
L 438.761416 173.52 
L 433.961416 175.92 
z
" clip-path="url(#p0fa4e5c40c)" style="fill: #8c3b3b; opacity: 0.35; stroke-dasharray: 4.500017,4.500017; stroke-dashoffset: 0; stroke: #8c3b3b; stroke-width: 1.500006; stroke-linecap: round"/>
   </g>
   <g id="patch_18">
    <path d="M 221.116575 255.980825 
Q 330.841134 215.099577 438.994169 174.80385 
" clip-path="url(#p0fa4e5c40c)" style="fill: none; opacity: 0.35; stroke-dasharray: 4.50002,4.50002; stroke-dashoffset: 0; stroke: #3e5c76; stroke-width: 1.500007; stroke-linecap: round"/>
    <path d="M 433.658297 174.230724 
L 438.994169 174.80385 
L 435.334145 178.728672 
z
" clip-path="url(#p0fa4e5c40c)" style="fill: #3e5c76; opacity: 0.35; stroke-dasharray: 4.50002,4.50002; stroke-dashoffset: 0; stroke: #3e5c76; stroke-width: 1.500007; stroke-linecap: round"/>
   </g>
   <g id="patch_19">
    <path d="M 53.839608 173.52 
Q 247.139189 173.52 438.758617 173.52 
" clip-path="url(#p0fa4e5c40c)" style="fill: none; opacity: 0.35; stroke-dasharray: 4.508324,4.508324; stroke-dashoffset: 0; stroke: #8c3b3b; stroke-width: 1.502775; stroke-linecap: round"/>
    <path d="M 433.958617 171.12 
L 438.758617 173.52 
L 433.958617 175.92 
z
" clip-path="url(#p0fa4e5c40c)" style="fill: #8c3b3b; opacity: 0.35; stroke-dasharray: 4.508324,4.508324; stroke-dashoffset: 0; stroke: #8c3b3b; stroke-width: 1.502775; stroke-linecap: round"/>
   </g>
   <g id="patch_20">
    <path d="M 220.878171 91.50746 
Q 330.83925 168.529875 439.426706 244.590133 
" clip-path="url(#p0fa4e5c40c)" style="fill: none; opacity: 0.85; stroke: #8c3b3b; stroke-width: 1.500023; stroke-linecap: round"/>
    <path d="M 436.872132 239.870583 
L 439.426706 244.590133 
L 434.118321 243.802062 
z
" clip-path="url(#p0fa4e5c40c)" style="fill: #8c3b3b; opacity: 0.85; stroke: #8c3b3b; stroke-width: 1.500023; stroke-linecap: round"/>
   </g>
   <g id="patch_21">
    <path d="M 221.143821 174.144208 
Q 330.841366 210.110848 438.945327 245.554998 
" clip-path="url(#p0fa4e5c40c)" style="fill: none; opacity: 0.35; stroke-dasharray: 4.500005,4.500005; stroke-dashoffset: 0; stroke: #8c3b3b; stroke-width: 1.500002; stroke-linecap: round"/>
    <path d="M 435.131954 241.778997 
L 438.945327 245.554998 
L 433.636502 246.340096 
z
" clip-path="url(#p0fa4e5c40c)" style="fill: #8c3b3b; opacity: 0.35; stroke-dasharray: 4.500005,4.500005; stroke-dashoffset: 0; stroke: #8c3b3b; stroke-width: 1.500002; stroke-linecap: round"/>
   </g>
   <g id="patch_22">
    <path d="M 221.239182 256.590617 
Q 330.842203 251.690302 438.769795 246.864894 
" clip-path="url(#p0fa4e5c40c)" style="fill: none; opacity: 0.35; stroke-dasharray: 4.500137,4.500137; stroke-dashoffset: 0; stroke: #3e5c76; stroke-width: 1.500046; stroke-linecap: round"/>
    <path d="M 433.867389 244.681681 
L 438.769795 246.864894 
L 434.081781 249.476891 
z
" clip-path="url(#p0fa4e5c40c)" style="fill: #3e5c76; opacity: 0.35; stroke-dasharray: 4.500137,4.500137; stroke-dashoffset: 0; stroke: #3e5c76; stroke-width: 1.500046; stroke-linecap: round"/>
   </g>
   <g id="patch_23">
    <path d="M 53.803847 173.887936 
Q 247.139007 210.110214 438.706394 246.001291 
" clip-path="url(#p0fa4e5c40c)" style="fill: none; opacity: 0.85; stroke: #3e5c76; stroke-width: 1.608655; stroke-linecap: round"/>
    <path d="M 434.430445 242.758412 
L 438.706394 246.001291 
L 433.546521 247.476323 
z
" clip-path="url(#p0fa4e5c40c)" style="fill: #3e5c76; opacity: 0.85; stroke: #3e5c76; stroke-width: 1.608655; stroke-linecap: round"/>
   </g>
   <g id="text_1">
    <!-- Treat -->
    <g transform="translate(39.479844 176.279375) scale(0.1 -0.1)">
     <defs>
      <path id="DejaVuSans-54" d="M -19 4666 
L 3928 4666 
L 3928 4134 
L 2272 4134 
L 2272 0 
L 1638 0 
L 1638 4134 
L -19 4134 
L -19 4666 
z
" transform="scale(0.015625)"/>
      <path id="DejaVuSans-72" d="M 2631 2963 
Q 2534 3019 2420 3045 
Q 2306 3072 2169 3072 
Q 1681 3072 1420 2755 
Q 1159 2438 1159 1844 
L 1159 0 
L 581 0 
L 581 3500 
L 1159 3500 
L 1159 2956 
Q 1341 3275 1631 3429 
Q 1922 3584 2338 3584 
Q 2397 3584 2469 3576 
Q 2541 3569 2628 3553 
L 2631 2963 
z
" transform="scale(0.015625)"/>
      <path id="DejaVuSans-65" d="M 3597 1894 
L 3597 1613 
L 953 1613 
Q 991 1019 1311 708 
Q 1631 397 2203 397 
Q 2534 397 2845 478 
Q 3156 559 3463 722 
L 3463 178 
Q 3153 47 2828 -22 
Q 2503 -91 2169 -91 
Q 1331 -91 842 396 
Q 353 884 353 1716 
Q 353 2575 817 3079 
Q 1281 3584 2069 3584 
Q 2775 3584 3186 3129 
Q 3597 2675 3597 1894 
z
M 3022 2063 
Q 3016 2534 2758 2815 
Q 2500 3097 2075 3097 
Q 1594 3097 1305 2825 
Q 1016 2553 972 2059 
L 3022 2063 
z
" transform="scale(0.015625)"/>
      <path id="DejaVuSans-61" d="M 2194 1759 
Q 1497 1759 1228 1600 
Q 959 1441 959 1056 
Q 959 750 1161 570 
Q 1363 391 1709 391 
Q 2188 391 2477 730 
Q 2766 1069 2766 1631 
L 2766 1759 
L 2194 1759 
z
M 3341 1997 
L 3341 0 
L 2766 0 
L 2766 531 
Q 2569 213 2275 61 
Q 1981 -91 1556 -91 
Q 1019 -91 701 211 
Q 384 513 384 1019 
Q 384 1609 779 1909 
Q 1175 2209 1959 2209 
L 2766 2209 
L 2766 2266 
Q 2766 2663 2505 2880 
Q 2244 3097 1772 3097 
Q 1472 3097 1187 3025 
Q 903 2953 641 2809 
L 641 3341 
Q 956 3463 1253 3523 
Q 1550 3584 1831 3584 
Q 2591 3584 2966 3190 
Q 3341 2797 3341 1997 
z
" transform="scale(0.015625)"/>
      <path id="DejaVuSans-74" d="M 1172 4494 
L 1172 3500 
L 2356 3500 
L 2356 3053 
L 1172 3053 
L 1172 1153 
Q 1172 725 1289 603 
Q 1406 481 1766 481 
L 2356 481 
L 2356 0 
L 1766 0 
Q 1100 0 847 248 
Q 594 497 594 1153 
L 594 3053 
L 172 3053 
L 172 3500 
L 594 3500 
L 594 4494 
L 1172 4494 
z
" transform="scale(0.015625)"/>
     </defs>
     <use xlink:href="#DejaVuSans-54"/>
     <use xlink:href="#DejaVuSans-72" transform="translate(46.333984 0)"/>
     <use xlink:href="#DejaVuSans-65" transform="translate(85.197266 0)"/>
     <use xlink:href="#DejaVuSans-61" transform="translate(146.720703 0)"/>
     <use xlink:href="#DejaVuSans-74" transform="translate(208 0)"/>
    </g>
   </g>
   <g id="text_2">
    <!-- A -->
    <g transform="translate(215.819688 87.520469) scale(0.1 -0.1)">
     <defs>
      <path id="DejaVuSans-41" d="M 2188 4044 
L 1331 1722 
L 3047 1722 
L 2188 4044 
z
M 1831 4666 
L 2547 4666 
L 4325 0 
L 3669 0 
L 3244 1197 
L 1141 1197 
L 716 0 
L 50 0 
L 1831 4666 
z
" transform="scale(0.015625)"/>
     </defs>
     <use xlink:href="#DejaVuSans-41"/>
    </g>
    <!-- idx -->
    <g transform="translate(211.717344 98.718281) scale(0.1 -0.1)">
     <defs>
      <path id="DejaVuSans-69" d="M 603 3500 
L 1178 3500 
L 1178 0 
L 603 0 
L 603 3500 
z
M 603 4863 
L 1178 4863 
L 1178 4134 
L 603 4134 
L 603 4863 
z
" transform="scale(0.015625)"/>
      <path id="DejaVuSans-64" d="M 2906 2969 
L 2906 4863 
L 3481 4863 
L 3481 0 
L 2906 0 
L 2906 525 
Q 2725 213 2448 61 
Q 2172 -91 1784 -91 
Q 1150 -91 751 415 
Q 353 922 353 1747 
Q 353 2572 751 3078 
Q 1150 3584 1784 3584 
Q 2172 3584 2448 3432 
Q 2725 3281 2906 2969 
z
M 947 1747 
Q 947 1113 1208 752 
Q 1469 391 1925 391 
Q 2381 391 2643 752 
Q 2906 1113 2906 1747 
Q 2906 2381 2643 2742 
Q 2381 3103 1925 3103 
Q 1469 3103 1208 2742 
Q 947 2381 947 1747 
z
" transform="scale(0.015625)"/>
      <path id="DejaVuSans-78" d="M 3513 3500 
L 2247 1797 
L 3578 0 
L 2900 0 
L 1881 1375 
L 863 0 
L 184 0 
L 1544 1831 
L 300 3500 
L 978 3500 
L 1906 2253 
L 2834 3500 
L 3513 3500 
z
" transform="scale(0.015625)"/>
     </defs>
     <use xlink:href="#DejaVuSans-69"/>
     <use xlink:href="#DejaVuSans-64" transform="translate(27.783203 0)"/>
     <use xlink:href="#DejaVuSans-78" transform="translate(91.259766 0)"/>
    </g>
   </g>
   <g id="text_3">
    <!-- B -->
    <g transform="translate(215.809531 170.680469) scale(0.1 -0.1)">
     <defs>
      <path id="DejaVuSans-42" d="M 1259 2228 
L 1259 519 
L 2272 519 
Q 2781 519 3026 730 
Q 3272 941 3272 1375 
Q 3272 1813 3026 2020 
Q 2781 2228 2272 2228 
L 1259 2228 
z
M 1259 4147 
L 1259 2741 
L 2194 2741 
Q 2656 2741 2882 2914 
Q 3109 3088 3109 3444 
Q 3109 3797 2882 3972 
Q 2656 4147 2194 4147 
L 1259 4147 
z
M 628 4666 
L 2241 4666 
Q 2963 4666 3353 4366 
Q 3744 4066 3744 3513 
Q 3744 3084 3544 2831 
Q 3344 2578 2956 2516 
Q 3422 2416 3680 2098 
Q 3938 1781 3938 1306 
Q 3938 681 3513 340 
Q 3088 0 2303 0 
L 628 0 
L 628 4666 
z
" transform="scale(0.015625)"/>
     </defs>
     <use xlink:href="#DejaVuSans-42"/>
    </g>
    <!-- idx -->
    <g transform="translate(211.717344 181.878281) scale(0.1 -0.1)">
     <use xlink:href="#DejaVuSans-69"/>
     <use xlink:href="#DejaVuSans-64" transform="translate(27.783203 0)"/>
     <use xlink:href="#DejaVuSans-78" transform="translate(91.259766 0)"/>
    </g>
   </g>
   <g id="text_4">
    <!-- C -->
    <g transform="translate(215.748594 253.840469) scale(0.1 -0.1)">
     <defs>
      <path id="DejaVuSans-43" d="M 4122 4306 
L 4122 3641 
Q 3803 3938 3442 4084 
Q 3081 4231 2675 4231 
Q 1875 4231 1450 3742 
Q 1025 3253 1025 2328 
Q 1025 1406 1450 917 
Q 1875 428 2675 428 
Q 3081 428 3442 575 
Q 3803 722 4122 1019 
L 4122 359 
Q 3791 134 3420 21 
Q 3050 -91 2638 -91 
Q 1578 -91 968 557 
Q 359 1206 359 2328 
Q 359 3453 968 4101 
Q 1578 4750 2638 4750 
Q 3056 4750 3426 4639 
Q 3797 4528 4122 4306 
z
" transform="scale(0.015625)"/>
     </defs>
     <use xlink:href="#DejaVuSans-43"/>
    </g>
    <!-- idx -->
    <g transform="translate(211.717344 265.038281) scale(0.1 -0.1)">
     <use xlink:href="#DejaVuSans-69"/>
     <use xlink:href="#DejaVuSans-64" transform="translate(27.783203 0)"/>
     <use xlink:href="#DejaVuSans-78" transform="translate(91.259766 0)"/>
    </g>
   </g>
   <g id="text_5">
    <!-- exec -->
    <g transform="translate(430.822031 97.499669) scale(0.1 -0.1)">
     <defs>
      <path id="DejaVuSans-63" d="M 3122 3366 
L 3122 2828 
Q 2878 2963 2633 3030 
Q 2388 3097 2138 3097 
Q 1578 3097 1268 2742 
Q 959 2388 959 1747 
Q 959 1106 1268 751 
Q 1578 397 2138 397 
Q 2388 397 2633 464 
Q 2878 531 3122 666 
L 3122 134 
Q 2881 22 2623 -34 
Q 2366 -91 2075 -91 
Q 1284 -91 818 406 
Q 353 903 353 1747 
Q 353 2603 823 3093 
Q 1294 3584 2113 3584 
Q 2378 3584 2631 3529 
Q 2884 3475 3122 3366 
z
" transform="scale(0.015625)"/>
     </defs>
     <use xlink:href="#DejaVuSans-65"/>
     <use xlink:href="#DejaVuSans-78" transform="translate(59.773438 0)"/>
     <use xlink:href="#DejaVuSans-65" transform="translate(115.828125 0)"/>
     <use xlink:href="#DejaVuSans-63" transform="translate(177.351562 0)"/>
    </g>
    <!-- share -->
    <g transform="translate(428.582969 108.697481) scale(0.1 -0.1)">
     <defs>
      <path id="DejaVuSans-73" d="M 2834 3397 
L 2834 2853 
Q 2591 2978 2328 3040 
Q 2066 3103 1784 3103 
Q 1356 3103 1142 2972 
Q 928 2841 928 2578 
Q 928 2378 1081 2264 
Q 1234 2150 1697 2047 
L 1894 2003 
Q 2506 1872 2764 1633 
Q 3022 1394 3022 966 
Q 3022 478 2636 193 
Q 2250 -91 1575 -91 
Q 1294 -91 989 -36 
Q 684 19 347 128 
L 347 722 
Q 666 556 975 473 
Q 1284 391 1588 391 
Q 1994 391 2212 530 
Q 2431 669 2431 922 
Q 2431 1156 2273 1281 
Q 2116 1406 1581 1522 
L 1381 1569 
Q 847 1681 609 1914 
Q 372 2147 372 2553 
Q 372 3047 722 3315 
Q 1072 3584 1716 3584 
Q 2034 3584 2315 3537 
Q 2597 3491 2834 3397 
z
" transform="scale(0.015625)"/>
      <path id="DejaVuSans-68" d="M 3513 2113 
L 3513 0 
L 2938 0 
L 2938 2094 
Q 2938 2591 2744 2837 
Q 2550 3084 2163 3084 
Q 1697 3084 1428 2787 
Q 1159 2491 1159 1978 
L 1159 0 
L 581 0 
L 581 4863 
L 1159 4863 
L 1159 2956 
Q 1366 3272 1645 3428 
Q 1925 3584 2291 3584 
Q 2894 3584 3203 3211 
Q 3513 2838 3513 2113 
z
" transform="scale(0.015625)"/>
     </defs>
     <use xlink:href="#DejaVuSans-73"/>
     <use xlink:href="#DejaVuSans-68" transform="translate(52.099609 0)"/>
     <use xlink:href="#DejaVuSans-61" transform="translate(115.478516 0)"/>
     <use xlink:href="#DejaVuSans-72" transform="translate(176.757812 0)"/>
     <use xlink:href="#DejaVuSans-65" transform="translate(215.621094 0)"/>
    </g>
   </g>
   <g id="text_6">
    <!-- proc -->
    <g transform="translate(431.514219 170.680469) scale(0.1 -0.1)">
     <defs>
      <path id="DejaVuSans-70" d="M 1159 525 
L 1159 -1331 
L 581 -1331 
L 581 3500 
L 1159 3500 
L 1159 2969 
Q 1341 3281 1617 3432 
Q 1894 3584 2278 3584 
Q 2916 3584 3314 3078 
Q 3713 2572 3713 1747 
Q 3713 922 3314 415 
Q 2916 -91 2278 -91 
Q 1894 -91 1617 61 
Q 1341 213 1159 525 
z
M 3116 1747 
Q 3116 2381 2855 2742 
Q 2594 3103 2138 3103 
Q 1681 3103 1420 2742 
Q 1159 2381 1159 1747 
Q 1159 1113 1420 752 
Q 1681 391 2138 391 
Q 2594 391 2855 752 
Q 3116 1113 3116 1747 
z
" transform="scale(0.015625)"/>
      <path id="DejaVuSans-6f" d="M 1959 3097 
Q 1497 3097 1228 2736 
Q 959 2375 959 1747 
Q 959 1119 1226 758 
Q 1494 397 1959 397 
Q 2419 397 2687 759 
Q 2956 1122 2956 1747 
Q 2956 2369 2687 2733 
Q 2419 3097 1959 3097 
z
M 1959 3584 
Q 2709 3584 3137 3096 
Q 3566 2609 3566 1747 
Q 3566 888 3137 398 
Q 2709 -91 1959 -91 
Q 1206 -91 779 398 
Q 353 888 353 1747 
Q 353 2609 779 3096 
Q 1206 3584 1959 3584 
z
" transform="scale(0.015625)"/>
     </defs>
     <use xlink:href="#DejaVuSans-70"/>
     <use xlink:href="#DejaVuSans-72" transform="translate(63.476562 0)"/>
     <use xlink:href="#DejaVuSans-6f" transform="translate(102.339844 0)"/>
     <use xlink:href="#DejaVuSans-63" transform="translate(163.521484 0)"/>
    </g>
    <!-- share -->
    <g transform="translate(428.582969 181.878281) scale(0.1 -0.1)">
     <use xlink:href="#DejaVuSans-73"/>
     <use xlink:href="#DejaVuSans-68" transform="translate(52.099609 0)"/>
     <use xlink:href="#DejaVuSans-61" transform="translate(115.478516 0)"/>
     <use xlink:href="#DejaVuSans-72" transform="translate(176.757812 0)"/>
     <use xlink:href="#DejaVuSans-65" transform="translate(215.621094 0)"/>
    </g>
   </g>
   <g id="text_7">
    <!-- pca -->
    <g transform="translate(433.4525 243.861269) scale(0.1 -0.1)">
     <use xlink:href="#DejaVuSans-70"/>
     <use xlink:href="#DejaVuSans-63" transform="translate(63.476562 0)"/>
     <use xlink:href="#DejaVuSans-61" transform="translate(118.457031 0)"/>
    </g>
    <!-- quality -->
    <g transform="translate(425.335312 255.059081) scale(0.1 -0.1)">
     <defs>
      <path id="DejaVuSans-71" d="M 947 1747 
Q 947 1113 1208 752 
Q 1469 391 1925 391 
Q 2381 391 2643 752 
Q 2906 1113 2906 1747 
Q 2906 2381 2643 2742 
Q 2381 3103 1925 3103 
Q 1469 3103 1208 2742 
Q 947 2381 947 1747 
z
M 2906 525 
Q 2725 213 2448 61 
Q 2172 -91 1784 -91 
Q 1150 -91 751 415 
Q 353 922 353 1747 
Q 353 2572 751 3078 
Q 1150 3584 1784 3584 
Q 2172 3584 2448 3432 
Q 2725 3281 2906 2969 
L 2906 3500 
L 3481 3500 
L 3481 -1331 
L 2906 -1331 
L 2906 525 
z
" transform="scale(0.015625)"/>
      <path id="DejaVuSans-75" d="M 544 1381 
L 544 3500 
L 1119 3500 
L 1119 1403 
Q 1119 906 1312 657 
Q 1506 409 1894 409 
Q 2359 409 2629 706 
Q 2900 1003 2900 1516 
L 2900 3500 
L 3475 3500 
L 3475 0 
L 2900 0 
L 2900 538 
Q 2691 219 2414 64 
Q 2138 -91 1772 -91 
Q 1169 -91 856 284 
Q 544 659 544 1381 
z
M 1991 3584 
L 1991 3584 
z
" transform="scale(0.015625)"/>
      <path id="DejaVuSans-6c" d="M 603 4863 
L 1178 4863 
L 1178 0 
L 603 0 
L 603 4863 
z
" transform="scale(0.015625)"/>
      <path id="DejaVuSans-79" d="M 2059 -325 
Q 1816 -950 1584 -1140 
Q 1353 -1331 966 -1331 
L 506 -1331 
L 506 -850 
L 844 -850 
Q 1081 -850 1212 -737 
Q 1344 -625 1503 -206 
L 1606 56 
L 191 3500 
L 800 3500 
L 1894 763 
L 2988 3500 
L 3597 3500 
L 2059 -325 
z
" transform="scale(0.015625)"/>
     </defs>
     <use xlink:href="#DejaVuSans-71"/>
     <use xlink:href="#DejaVuSans-75" transform="translate(63.476562 0)"/>
     <use xlink:href="#DejaVuSans-61" transform="translate(126.855469 0)"/>
     <use xlink:href="#DejaVuSans-6c" transform="translate(188.134766 0)"/>
     <use xlink:href="#DejaVuSans-69" transform="translate(215.917969 0)"/>
     <use xlink:href="#DejaVuSans-74" transform="translate(243.701172 0)"/>
     <use xlink:href="#DejaVuSans-79" transform="translate(282.910156 0)"/>
    </g>
   </g>
   <g id="text_8">
    <!-- 241.52 -->
    <g style="fill: #3e5c76" transform="translate(119.794219 121.9608) scale(0.09 -0.09)">
     <defs>
      <path id="DejaVuSans-32" d="M 1228 531 
L 3431 531 
L 3431 0 
L 469 0 
L 469 531 
Q 828 903 1448 1529 
Q 2069 2156 2228 2338 
Q 2531 2678 2651 2914 
Q 2772 3150 2772 3378 
Q 2772 3750 2511 3984 
Q 2250 4219 1831 4219 
Q 1534 4219 1204 4116 
Q 875 4013 500 3803 
L 500 4441 
Q 881 4594 1212 4672 
Q 1544 4750 1819 4750 
Q 2544 4750 2975 4387 
Q 3406 4025 3406 3419 
Q 3406 3131 3298 2873 
Q 3191 2616 2906 2266 
Q 2828 2175 2409 1742 
Q 1991 1309 1228 531 
z
" transform="scale(0.015625)"/>
      <path id="DejaVuSans-34" d="M 2419 4116 
L 825 1625 
L 2419 1625 
L 2419 4116 
z
M 2253 4666 
L 3047 4666 
L 3047 1625 
L 3713 1625 
L 3713 1100 
L 3047 1100 
L 3047 0 
L 2419 0 
L 2419 1100 
L 313 1100 
L 313 1709 
L 2253 4666 
z
" transform="scale(0.015625)"/>
      <path id="DejaVuSans-31" d="M 794 531 
L 1825 531 
L 1825 4091 
L 703 3866 
L 703 4441 
L 1819 4666 
L 2450 4666 
L 2450 531 
L 3481 531 
L 3481 0 
L 794 0 
L 794 531 
z
" transform="scale(0.015625)"/>
      <path id="DejaVuSans-2e" d="M 684 794 
L 1344 794 
L 1344 0 
L 684 0 
L 684 794 
z
" transform="scale(0.015625)"/>
      <path id="DejaVuSans-35" d="M 691 4666 
L 3169 4666 
L 3169 4134 
L 1269 4134 
L 1269 2991 
Q 1406 3038 1543 3061 
Q 1681 3084 1819 3084 
Q 2600 3084 3056 2656 
Q 3513 2228 3513 1497 
Q 3513 744 3044 326 
Q 2575 -91 1722 -91 
Q 1428 -91 1123 -41 
Q 819 9 494 109 
L 494 744 
Q 775 591 1075 516 
Q 1375 441 1709 441 
Q 2250 441 2565 725 
Q 2881 1009 2881 1497 
Q 2881 1984 2565 2268 
Q 2250 2553 1709 2553 
Q 1456 2553 1204 2497 
Q 953 2441 691 2322 
L 691 4666 
z
" transform="scale(0.015625)"/>
     </defs>
     <use xlink:href="#DejaVuSans-32"/>
     <use xlink:href="#DejaVuSans-34" transform="translate(63.623047 0)"/>
     <use xlink:href="#DejaVuSans-31" transform="translate(127.246094 0)"/>
     <use xlink:href="#DejaVuSans-2e" transform="translate(190.869141 0)"/>
     <use xlink:href="#DejaVuSans-35" transform="translate(222.65625 0)"/>
     <use xlink:href="#DejaVuSans-32" transform="translate(286.279297 0)"/>
    </g>
   </g>
   <g id="text_9">
    <!-- -202.31 -->
    <g style="fill: #8c3b3b" transform="translate(118.170703 163.5408) scale(0.09 -0.09)">
     <defs>
      <path id="DejaVuSans-2d" d="M 313 2009 
L 1997 2009 
L 1997 1497 
L 313 1497 
L 313 2009 
z
" transform="scale(0.015625)"/>
      <path id="DejaVuSans-30" d="M 2034 4250 
Q 1547 4250 1301 3770 
Q 1056 3291 1056 2328 
Q 1056 1369 1301 889 
Q 1547 409 2034 409 
Q 2525 409 2770 889 
Q 3016 1369 3016 2328 
Q 3016 3291 2770 3770 
Q 2525 4250 2034 4250 
z
M 2034 4750 
Q 2819 4750 3233 4129 
Q 3647 3509 3647 2328 
Q 3647 1150 3233 529 
Q 2819 -91 2034 -91 
Q 1250 -91 836 529 
Q 422 1150 422 2328 
Q 422 3509 836 4129 
Q 1250 4750 2034 4750 
z
" transform="scale(0.015625)"/>
      <path id="DejaVuSans-33" d="M 2597 2516 
Q 3050 2419 3304 2112 
Q 3559 1806 3559 1356 
Q 3559 666 3084 287 
Q 2609 -91 1734 -91 
Q 1441 -91 1130 -33 
Q 819 25 488 141 
L 488 750 
Q 750 597 1062 519 
Q 1375 441 1716 441 
Q 2309 441 2620 675 
Q 2931 909 2931 1356 
Q 2931 1769 2642 2001 
Q 2353 2234 1838 2234 
L 1294 2234 
L 1294 2753 
L 1863 2753 
Q 2328 2753 2575 2939 
Q 2822 3125 2822 3475 
Q 2822 3834 2567 4026 
Q 2313 4219 1838 4219 
Q 1578 4219 1281 4162 
Q 984 4106 628 3988 
L 628 4550 
Q 988 4650 1302 4700 
Q 1616 4750 1894 4750 
Q 2613 4750 3031 4423 
Q 3450 4097 3450 3541 
Q 3450 3153 3228 2886 
Q 3006 2619 2597 2516 
z
" transform="scale(0.015625)"/>
     </defs>
     <use xlink:href="#DejaVuSans-2d"/>
     <use xlink:href="#DejaVuSans-32" transform="translate(36.083984 0)"/>
     <use xlink:href="#DejaVuSans-30" transform="translate(99.707031 0)"/>
     <use xlink:href="#DejaVuSans-32" transform="translate(163.330078 0)"/>
     <use xlink:href="#DejaVuSans-2e" transform="translate(226.953125 0)"/>
     <use xlink:href="#DejaVuSans-33" transform="translate(258.740234 0)"/>
     <use xlink:href="#DejaVuSans-31" transform="translate(322.363281 0)"/>
    </g>
   </g>
   <g id="text_10">
    <!-- -52.01 -->
    <g style="fill: #8c3b3b" transform="translate(121.033828 205.1208) scale(0.09 -0.09)">
     <use xlink:href="#DejaVuSans-2d"/>
     <use xlink:href="#DejaVuSans-35" transform="translate(36.083984 0)"/>
     <use xlink:href="#DejaVuSans-32" transform="translate(99.707031 0)"/>
     <use xlink:href="#DejaVuSans-2e" transform="translate(163.330078 0)"/>
     <use xlink:href="#DejaVuSans-30" transform="translate(195.117188 0)"/>
     <use xlink:href="#DejaVuSans-31" transform="translate(258.740234 0)"/>
    </g>
   </g>
   <g id="text_11">
    <!-- 0.00 -->
    <g style="fill: #3e5c76" transform="translate(320.820469 85.3704) scale(0.09 -0.09)">
     <use xlink:href="#DejaVuSans-30"/>
     <use xlink:href="#DejaVuSans-2e" transform="translate(63.623047 0)"/>
     <use xlink:href="#DejaVuSans-30" transform="translate(95.410156 0)"/>
     <use xlink:href="#DejaVuSans-30" transform="translate(159.033203 0)"/>
    </g>
   </g>
   <g id="text_12">
    <!-- 0.00 -->
    <g style="fill: #3e5c76" transform="translate(320.820469 126.9504) scale(0.09 -0.09)">
     <use xlink:href="#DejaVuSans-30"/>
     <use xlink:href="#DejaVuSans-2e" transform="translate(63.623047 0)"/>
     <use xlink:href="#DejaVuSans-30" transform="translate(95.410156 0)"/>
     <use xlink:href="#DejaVuSans-30" transform="translate(159.033203 0)"/>
    </g>
   </g>
   <g id="text_13">
    <!-- -0.00 -->
    <g style="fill: #8c3b3b" transform="translate(319.196953 168.5304) scale(0.09 -0.09)">
     <use xlink:href="#DejaVuSans-2d"/>
     <use xlink:href="#DejaVuSans-30" transform="translate(36.083984 0)"/>
     <use xlink:href="#DejaVuSans-2e" transform="translate(99.707031 0)"/>
     <use xlink:href="#DejaVuSans-30" transform="translate(131.494141 0)"/>
     <use xlink:href="#DejaVuSans-30" transform="translate(195.117188 0)"/>
    </g>
   </g>
   <g id="text_14">
    <!-- 0.11 -->
    <g style="fill: #3e5c76" transform="translate(237.120469 126.9504) scale(0.09 -0.09)">
     <use xlink:href="#DejaVuSans-30"/>
     <use xlink:href="#DejaVuSans-2e" transform="translate(63.623047 0)"/>
     <use xlink:href="#DejaVuSans-31" transform="translate(95.410156 0)"/>
     <use xlink:href="#DejaVuSans-31" transform="translate(159.033203 0)"/>
    </g>
   </g>
   <g id="text_15">
    <!-- -0.00 -->
    <g style="fill: #8c3b3b" transform="translate(319.196953 121.9608) scale(0.09 -0.09)">
     <use xlink:href="#DejaVuSans-2d"/>
     <use xlink:href="#DejaVuSans-30" transform="translate(36.083984 0)"/>
     <use xlink:href="#DejaVuSans-2e" transform="translate(99.707031 0)"/>
     <use xlink:href="#DejaVuSans-30" transform="translate(131.494141 0)"/>
     <use xlink:href="#DejaVuSans-30" transform="translate(195.117188 0)"/>
    </g>
   </g>
   <g id="text_16">
    <!-- -0.00 -->
    <g style="fill: #8c3b3b" transform="translate(319.196953 163.5408) scale(0.09 -0.09)">
     <use xlink:href="#DejaVuSans-2d"/>
     <use xlink:href="#DejaVuSans-30" transform="translate(36.083984 0)"/>
     <use xlink:href="#DejaVuSans-2e" transform="translate(99.707031 0)"/>
     <use xlink:href="#DejaVuSans-30" transform="translate(131.494141 0)"/>
     <use xlink:href="#DejaVuSans-30" transform="translate(195.117188 0)"/>
    </g>
   </g>
   <g id="text_17">
    <!-- 0.00 -->
    <g style="fill: #3e5c76" transform="translate(320.820469 205.1208) scale(0.09 -0.09)">
     <use xlink:href="#DejaVuSans-30"/>
     <use xlink:href="#DejaVuSans-2e" transform="translate(63.623047 0)"/>
     <use xlink:href="#DejaVuSans-30" transform="translate(95.410156 0)"/>
     <use xlink:href="#DejaVuSans-30" transform="translate(159.033203 0)"/>
    </g>
   </g>
   <g id="text_18">
    <!-- -0.17 -->
    <g style="fill: #8c3b3b" transform="translate(235.496953 163.5408) scale(0.09 -0.09)">
     <defs>
      <path id="DejaVuSans-37" d="M 525 4666 
L 3525 4666 
L 3525 4397 
L 1831 0 
L 1172 0 
L 2766 4134 
L 525 4134 
L 525 4666 
z
" transform="scale(0.015625)"/>
     </defs>
     <use xlink:href="#DejaVuSans-2d"/>
     <use xlink:href="#DejaVuSans-30" transform="translate(36.083984 0)"/>
     <use xlink:href="#DejaVuSans-2e" transform="translate(99.707031 0)"/>
     <use xlink:href="#DejaVuSans-31" transform="translate(131.494141 0)"/>
     <use xlink:href="#DejaVuSans-37" transform="translate(195.117188 0)"/>
    </g>
   </g>
   <g id="text_19">
    <!-- -0.00 -->
    <g style="fill: #8c3b3b" transform="translate(319.196953 158.5512) scale(0.09 -0.09)">
     <use xlink:href="#DejaVuSans-2d"/>
     <use xlink:href="#DejaVuSans-30" transform="translate(36.083984 0)"/>
     <use xlink:href="#DejaVuSans-2e" transform="translate(99.707031 0)"/>
     <use xlink:href="#DejaVuSans-30" transform="translate(131.494141 0)"/>
     <use xlink:href="#DejaVuSans-30" transform="translate(195.117188 0)"/>
    </g>
   </g>
   <g id="text_20">
    <!-- -0.00 -->
    <g style="fill: #8c3b3b" transform="translate(319.196953 200.1312) scale(0.09 -0.09)">
     <use xlink:href="#DejaVuSans-2d"/>
     <use xlink:href="#DejaVuSans-30" transform="translate(36.083984 0)"/>
     <use xlink:href="#DejaVuSans-2e" transform="translate(99.707031 0)"/>
     <use xlink:href="#DejaVuSans-30" transform="translate(131.494141 0)"/>
     <use xlink:href="#DejaVuSans-30" transform="translate(195.117188 0)"/>
    </g>
   </g>
   <g id="text_21">
    <!-- 0.00 -->
    <g style="fill: #3e5c76" transform="translate(320.820469 241.7112) scale(0.09 -0.09)">
     <use xlink:href="#DejaVuSans-30"/>
     <use xlink:href="#DejaVuSans-2e" transform="translate(63.623047 0)"/>
     <use xlink:href="#DejaVuSans-30" transform="translate(95.410156 0)"/>
     <use xlink:href="#DejaVuSans-30" transform="translate(159.033203 0)"/>
    </g>
   </g>
   <g id="text_22">
    <!-- 6.56 -->
    <g style="fill: #3e5c76" transform="translate(237.120469 200.1312) scale(0.09 -0.09)">
     <defs>
      <path id="DejaVuSans-36" d="M 2113 2584 
Q 1688 2584 1439 2293 
Q 1191 2003 1191 1497 
Q 1191 994 1439 701 
Q 1688 409 2113 409 
Q 2538 409 2786 701 
Q 3034 994 3034 1497 
Q 3034 2003 2786 2293 
Q 2538 2584 2113 2584 
z
M 3366 4563 
L 3366 3988 
Q 3128 4100 2886 4159 
Q 2644 4219 2406 4219 
Q 1781 4219 1451 3797 
Q 1122 3375 1075 2522 
Q 1259 2794 1537 2939 
Q 1816 3084 2150 3084 
Q 2853 3084 3261 2657 
Q 3669 2231 3669 1497 
Q 3669 778 3244 343 
Q 2819 -91 2113 -91 
Q 1303 -91 875 529 
Q 447 1150 447 2328 
Q 447 3434 972 4092 
Q 1497 4750 2381 4750 
Q 2619 4750 2861 4703 
Q 3103 4656 3366 4563 
z
" transform="scale(0.015625)"/>
     </defs>
     <use xlink:href="#DejaVuSans-36"/>
     <use xlink:href="#DejaVuSans-2e" transform="translate(63.623047 0)"/>
     <use xlink:href="#DejaVuSans-35" transform="translate(95.410156 0)"/>
     <use xlink:href="#DejaVuSans-36" transform="translate(159.033203 0)"/>
    </g>
   </g>
   <g id="text_23">
    <!-- Mechanism path summary -->
    <g transform="translate(18.36 23.832) scale(0.15 -0.15)">
     <defs>
      <path id="DejaVuSans-Bold-4d" d="M 588 4666 
L 2119 4666 
L 3181 2169 
L 4250 4666 
L 5778 4666 
L 5778 0 
L 4641 0 
L 4641 3413 
L 3566 897 
L 2803 897 
L 1728 3413 
L 1728 0 
L 588 0 
L 588 4666 
z
" transform="scale(0.015625)"/>
      <path id="DejaVuSans-Bold-65" d="M 4031 1759 
L 4031 1441 
L 1416 1441 
Q 1456 1047 1700 850 
Q 1944 653 2381 653 
Q 2734 653 3104 758 
Q 3475 863 3866 1075 
L 3866 213 
Q 3469 63 3072 -14 
Q 2675 -91 2278 -91 
Q 1328 -91 801 392 
Q 275 875 275 1747 
Q 275 2603 792 3093 
Q 1309 3584 2216 3584 
Q 3041 3584 3536 3087 
Q 4031 2591 4031 1759 
z
M 2881 2131 
Q 2881 2450 2695 2645 
Q 2509 2841 2209 2841 
Q 1884 2841 1681 2658 
Q 1478 2475 1428 2131 
L 2881 2131 
z
" transform="scale(0.015625)"/>
      <path id="DejaVuSans-Bold-63" d="M 3366 3391 
L 3366 2478 
Q 3138 2634 2908 2709 
Q 2678 2784 2431 2784 
Q 1963 2784 1702 2511 
Q 1441 2238 1441 1747 
Q 1441 1256 1702 982 
Q 1963 709 2431 709 
Q 2694 709 2930 787 
Q 3166 866 3366 1019 
L 3366 103 
Q 3103 6 2833 -42 
Q 2563 -91 2291 -91 
Q 1344 -91 809 395 
Q 275 881 275 1747 
Q 275 2613 809 3098 
Q 1344 3584 2291 3584 
Q 2566 3584 2833 3536 
Q 3100 3488 3366 3391 
z
" transform="scale(0.015625)"/>
      <path id="DejaVuSans-Bold-68" d="M 4056 2131 
L 4056 0 
L 2931 0 
L 2931 347 
L 2931 1625 
Q 2931 2084 2911 2256 
Q 2891 2428 2841 2509 
Q 2775 2619 2662 2680 
Q 2550 2741 2406 2741 
Q 2056 2741 1856 2470 
Q 1656 2200 1656 1722 
L 1656 0 
L 538 0 
L 538 4863 
L 1656 4863 
L 1656 2988 
Q 1909 3294 2193 3439 
Q 2478 3584 2822 3584 
Q 3428 3584 3742 3212 
Q 4056 2841 4056 2131 
z
" transform="scale(0.015625)"/>
      <path id="DejaVuSans-Bold-61" d="M 2106 1575 
Q 1756 1575 1579 1456 
Q 1403 1338 1403 1106 
Q 1403 894 1545 773 
Q 1688 653 1941 653 
Q 2256 653 2472 879 
Q 2688 1106 2688 1447 
L 2688 1575 
L 2106 1575 
z
M 3816 1997 
L 3816 0 
L 2688 0 
L 2688 519 
Q 2463 200 2181 54 
Q 1900 -91 1497 -91 
Q 953 -91 614 226 
Q 275 544 275 1050 
Q 275 1666 698 1953 
Q 1122 2241 2028 2241 
L 2688 2241 
L 2688 2328 
Q 2688 2594 2478 2717 
Q 2269 2841 1825 2841 
Q 1466 2841 1156 2769 
Q 847 2697 581 2553 
L 581 3406 
Q 941 3494 1303 3539 
Q 1666 3584 2028 3584 
Q 2975 3584 3395 3211 
Q 3816 2838 3816 1997 
z
" transform="scale(0.015625)"/>
      <path id="DejaVuSans-Bold-6e" d="M 4056 2131 
L 4056 0 
L 2931 0 
L 2931 347 
L 2931 1631 
Q 2931 2084 2911 2256 
Q 2891 2428 2841 2509 
Q 2775 2619 2662 2680 
Q 2550 2741 2406 2741 
Q 2056 2741 1856 2470 
Q 1656 2200 1656 1722 
L 1656 0 
L 538 0 
L 538 3500 
L 1656 3500 
L 1656 2988 
Q 1909 3294 2193 3439 
Q 2478 3584 2822 3584 
Q 3428 3584 3742 3212 
Q 4056 2841 4056 2131 
z
" transform="scale(0.015625)"/>
      <path id="DejaVuSans-Bold-69" d="M 538 3500 
L 1656 3500 
L 1656 0 
L 538 0 
L 538 3500 
z
M 538 4863 
L 1656 4863 
L 1656 3950 
L 538 3950 
L 538 4863 
z
" transform="scale(0.015625)"/>
      <path id="DejaVuSans-Bold-73" d="M 3272 3391 
L 3272 2541 
Q 2913 2691 2578 2766 
Q 2244 2841 1947 2841 
Q 1628 2841 1473 2761 
Q 1319 2681 1319 2516 
Q 1319 2381 1436 2309 
Q 1553 2238 1856 2203 
L 2053 2175 
Q 2913 2066 3209 1816 
Q 3506 1566 3506 1031 
Q 3506 472 3093 190 
Q 2681 -91 1863 -91 
Q 1516 -91 1145 -36 
Q 775 19 384 128 
L 384 978 
Q 719 816 1070 734 
Q 1422 653 1784 653 
Q 2113 653 2278 743 
Q 2444 834 2444 1013 
Q 2444 1163 2330 1236 
Q 2216 1309 1875 1350 
L 1678 1375 
Q 931 1469 631 1722 
Q 331 1975 331 2491 
Q 331 3047 712 3315 
Q 1094 3584 1881 3584 
Q 2191 3584 2531 3537 
Q 2872 3491 3272 3391 
z
" transform="scale(0.015625)"/>
      <path id="DejaVuSans-Bold-6d" d="M 3781 2919 
Q 3994 3244 4286 3414 
Q 4578 3584 4928 3584 
Q 5531 3584 5847 3212 
Q 6163 2841 6163 2131 
L 6163 0 
L 5038 0 
L 5038 1825 
Q 5041 1866 5042 1909 
Q 5044 1953 5044 2034 
Q 5044 2406 4934 2573 
Q 4825 2741 4581 2741 
Q 4263 2741 4089 2478 
Q 3916 2216 3909 1719 
L 3909 0 
L 2784 0 
L 2784 1825 
Q 2784 2406 2684 2573 
Q 2584 2741 2328 2741 
Q 2006 2741 1831 2477 
Q 1656 2213 1656 1722 
L 1656 0 
L 531 0 
L 531 3500 
L 1656 3500 
L 1656 2988 
Q 1863 3284 2130 3434 
Q 2397 3584 2719 3584 
Q 3081 3584 3359 3409 
Q 3638 3234 3781 2919 
z
" transform="scale(0.015625)"/>
      <path id="DejaVuSans-Bold-20" transform="scale(0.015625)"/>
      <path id="DejaVuSans-Bold-70" d="M 1656 506 
L 1656 -1331 
L 538 -1331 
L 538 3500 
L 1656 3500 
L 1656 2988 
Q 1888 3294 2169 3439 
Q 2450 3584 2816 3584 
Q 3463 3584 3878 3070 
Q 4294 2556 4294 1747 
Q 4294 938 3878 423 
Q 3463 -91 2816 -91 
Q 2450 -91 2169 54 
Q 1888 200 1656 506 
z
M 2400 2772 
Q 2041 2772 1848 2508 
Q 1656 2244 1656 1747 
Q 1656 1250 1848 986 
Q 2041 722 2400 722 
Q 2759 722 2948 984 
Q 3138 1247 3138 1747 
Q 3138 2247 2948 2509 
Q 2759 2772 2400 2772 
z
" transform="scale(0.015625)"/>
      <path id="DejaVuSans-Bold-74" d="M 1759 4494 
L 1759 3500 
L 2913 3500 
L 2913 2700 
L 1759 2700 
L 1759 1216 
Q 1759 972 1856 886 
Q 1953 800 2241 800 
L 2816 800 
L 2816 0 
L 1856 0 
Q 1194 0 917 276 
Q 641 553 641 1216 
L 641 2700 
L 84 2700 
L 84 3500 
L 641 3500 
L 641 4494 
L 1759 4494 
z
" transform="scale(0.015625)"/>
      <path id="DejaVuSans-Bold-75" d="M 500 1363 
L 500 3500 
L 1625 3500 
L 1625 3150 
Q 1625 2866 1622 2436 
Q 1619 2006 1619 1863 
Q 1619 1441 1641 1255 
Q 1663 1069 1716 984 
Q 1784 875 1895 815 
Q 2006 756 2150 756 
Q 2500 756 2700 1025 
Q 2900 1294 2900 1772 
L 2900 3500 
L 4019 3500 
L 4019 0 
L 2900 0 
L 2900 506 
Q 2647 200 2364 54 
Q 2081 -91 1741 -91 
Q 1134 -91 817 281 
Q 500 653 500 1363 
z
" transform="scale(0.015625)"/>
      <path id="DejaVuSans-Bold-72" d="M 3138 2547 
Q 2991 2616 2845 2648 
Q 2700 2681 2553 2681 
Q 2122 2681 1889 2404 
Q 1656 2128 1656 1613 
L 1656 0 
L 538 0 
L 538 3500 
L 1656 3500 
L 1656 2925 
Q 1872 3269 2151 3426 
Q 2431 3584 2822 3584 
Q 2878 3584 2943 3579 
Q 3009 3575 3134 3559 
L 3138 2547 
z
" transform="scale(0.015625)"/>
      <path id="DejaVuSans-Bold-79" d="M 78 3500 
L 1197 3500 
L 2138 1125 
L 2938 3500 
L 4056 3500 
L 2584 -331 
Q 2363 -916 2067 -1148 
Q 1772 -1381 1288 -1381 
L 641 -1381 
L 641 -647 
L 991 -647 
Q 1275 -647 1404 -556 
Q 1534 -466 1606 -231 
L 1638 -134 
L 78 3500 
z
" transform="scale(0.015625)"/>
     </defs>
     <use xlink:href="#DejaVuSans-Bold-4d"/>
     <use xlink:href="#DejaVuSans-Bold-65" transform="translate(99.511719 0)"/>
     <use xlink:href="#DejaVuSans-Bold-63" transform="translate(167.333984 0)"/>
     <use xlink:href="#DejaVuSans-Bold-68" transform="translate(226.611328 0)"/>
     <use xlink:href="#DejaVuSans-Bold-61" transform="translate(297.802734 0)"/>
     <use xlink:href="#DejaVuSans-Bold-6e" transform="translate(365.283203 0)"/>
     <use xlink:href="#DejaVuSans-Bold-69" transform="translate(436.474609 0)"/>
     <use xlink:href="#DejaVuSans-Bold-73" transform="translate(470.751953 0)"/>
     <use xlink:href="#DejaVuSans-Bold-6d" transform="translate(530.273438 0)"/>
     <use xlink:href="#DejaVuSans-Bold-20" transform="translate(634.472656 0)"/>
     <use xlink:href="#DejaVuSans-Bold-70" transform="translate(669.287109 0)"/>
     <use xlink:href="#DejaVuSans-Bold-61" transform="translate(740.869141 0)"/>
     <use xlink:href="#DejaVuSans-Bold-74" transform="translate(808.349609 0)"/>
     <use xlink:href="#DejaVuSans-Bold-68" transform="translate(856.152344 0)"/>
     <use xlink:href="#DejaVuSans-Bold-20" transform="translate(927.34375 0)"/>
     <use xlink:href="#DejaVuSans-Bold-73" transform="translate(962.158203 0)"/>
     <use xlink:href="#DejaVuSans-Bold-75" transform="translate(1021.679688 0)"/>
     <use xlink:href="#DejaVuSans-Bold-6d" transform="translate(1092.871094 0)"/>
     <use xlink:href="#DejaVuSans-Bold-6d" transform="translate(1197.070312 0)"/>
     <use xlink:href="#DejaVuSans-Bold-61" transform="translate(1301.269531 0)"/>
     <use xlink:href="#DejaVuSans-Bold-72" transform="translate(1368.75 0)"/>
     <use xlink:href="#DejaVuSans-Bold-79" transform="translate(1418.066406 0)"/>
    </g>
   </g>
   <g id="text_24">
    <!-- Solid = p&lt;0.10; dashed = unstable path -->
    <g style="fill: #555555" transform="translate(18.36 37.1376) scale(0.1 -0.1)">
     <defs>
      <path id="DejaVuSans-53" d="M 3425 4513 
L 3425 3897 
Q 3066 4069 2747 4153 
Q 2428 4238 2131 4238 
Q 1616 4238 1336 4038 
Q 1056 3838 1056 3469 
Q 1056 3159 1242 3001 
Q 1428 2844 1947 2747 
L 2328 2669 
Q 3034 2534 3370 2195 
Q 3706 1856 3706 1288 
Q 3706 609 3251 259 
Q 2797 -91 1919 -91 
Q 1588 -91 1214 -16 
Q 841 59 441 206 
L 441 856 
Q 825 641 1194 531 
Q 1563 422 1919 422 
Q 2459 422 2753 634 
Q 3047 847 3047 1241 
Q 3047 1584 2836 1778 
Q 2625 1972 2144 2069 
L 1759 2144 
Q 1053 2284 737 2584 
Q 422 2884 422 3419 
Q 422 4038 858 4394 
Q 1294 4750 2059 4750 
Q 2388 4750 2728 4690 
Q 3069 4631 3425 4513 
z
" transform="scale(0.015625)"/>
      <path id="DejaVuSans-20" transform="scale(0.015625)"/>
      <path id="DejaVuSans-3d" d="M 678 2906 
L 4684 2906 
L 4684 2381 
L 678 2381 
L 678 2906 
z
M 678 1631 
L 4684 1631 
L 4684 1100 
L 678 1100 
L 678 1631 
z
" transform="scale(0.015625)"/>
      <path id="DejaVuSans-3c" d="M 4684 3150 
L 1459 2003 
L 4684 863 
L 4684 294 
L 678 1747 
L 678 2266 
L 4684 3719 
L 4684 3150 
z
" transform="scale(0.015625)"/>
      <path id="DejaVuSans-3b" d="M 750 3309 
L 1409 3309 
L 1409 2516 
L 750 2516 
L 750 3309 
z
M 750 794 
L 1409 794 
L 1409 256 
L 897 -744 
L 494 -744 
L 750 256 
L 750 794 
z
" transform="scale(0.015625)"/>
      <path id="DejaVuSans-6e" d="M 3513 2113 
L 3513 0 
L 2938 0 
L 2938 2094 
Q 2938 2591 2744 2837 
Q 2550 3084 2163 3084 
Q 1697 3084 1428 2787 
Q 1159 2491 1159 1978 
L 1159 0 
L 581 0 
L 581 3500 
L 1159 3500 
L 1159 2956 
Q 1366 3272 1645 3428 
Q 1925 3584 2291 3584 
Q 2894 3584 3203 3211 
Q 3513 2838 3513 2113 
z
" transform="scale(0.015625)"/>
      <path id="DejaVuSans-62" d="M 3116 1747 
Q 3116 2381 2855 2742 
Q 2594 3103 2138 3103 
Q 1681 3103 1420 2742 
Q 1159 2381 1159 1747 
Q 1159 1113 1420 752 
Q 1681 391 2138 391 
Q 2594 391 2855 752 
Q 3116 1113 3116 1747 
z
M 1159 2969 
Q 1341 3281 1617 3432 
Q 1894 3584 2278 3584 
Q 2916 3584 3314 3078 
Q 3713 2572 3713 1747 
Q 3713 922 3314 415 
Q 2916 -91 2278 -91 
Q 1894 -91 1617 61 
Q 1341 213 1159 525 
L 1159 0 
L 581 0 
L 581 4863 
L 1159 4863 
L 1159 2969 
z
" transform="scale(0.015625)"/>
     </defs>
     <use xlink:href="#DejaVuSans-53"/>
     <use xlink:href="#DejaVuSans-6f" transform="translate(63.476562 0)"/>
     <use xlink:href="#DejaVuSans-6c" transform="translate(124.658203 0)"/>
     <use xlink:href="#DejaVuSans-69" transform="translate(152.441406 0)"/>
     <use xlink:href="#DejaVuSans-64" transform="translate(180.224609 0)"/>
     <use xlink:href="#DejaVuSans-20" transform="translate(243.701172 0)"/>
     <use xlink:href="#DejaVuSans-3d" transform="translate(275.488281 0)"/>
     <use xlink:href="#DejaVuSans-20" transform="translate(359.277344 0)"/>
     <use xlink:href="#DejaVuSans-70" transform="translate(391.064453 0)"/>
     <use xlink:href="#DejaVuSans-3c" transform="translate(454.541016 0)"/>
     <use xlink:href="#DejaVuSans-30" transform="translate(538.330078 0)"/>
     <use xlink:href="#DejaVuSans-2e" transform="translate(601.953125 0)"/>
     <use xlink:href="#DejaVuSans-31" transform="translate(633.740234 0)"/>
     <use xlink:href="#DejaVuSans-30" transform="translate(697.363281 0)"/>
     <use xlink:href="#DejaVuSans-3b" transform="translate(760.986328 0)"/>
     <use xlink:href="#DejaVuSans-20" transform="translate(794.677734 0)"/>
     <use xlink:href="#DejaVuSans-64" transform="translate(826.464844 0)"/>
     <use xlink:href="#DejaVuSans-61" transform="translate(889.941406 0)"/>
     <use xlink:href="#DejaVuSans-73" transform="translate(951.220703 0)"/>
     <use xlink:href="#DejaVuSans-68" transform="translate(1003.320312 0)"/>
     <use xlink:href="#DejaVuSans-65" transform="translate(1066.699219 0)"/>
     <use xlink:href="#DejaVuSans-64" transform="translate(1128.222656 0)"/>
     <use xlink:href="#DejaVuSans-20" transform="translate(1191.699219 0)"/>
     <use xlink:href="#DejaVuSans-3d" transform="translate(1223.486328 0)"/>
     <use xlink:href="#DejaVuSans-20" transform="translate(1307.275391 0)"/>
     <use xlink:href="#DejaVuSans-75" transform="translate(1339.0625 0)"/>
     <use xlink:href="#DejaVuSans-6e" transform="translate(1402.441406 0)"/>
     <use xlink:href="#DejaVuSans-73" transform="translate(1465.820312 0)"/>
     <use xlink:href="#DejaVuSans-74" transform="translate(1517.919922 0)"/>
     <use xlink:href="#DejaVuSans-61" transform="translate(1557.128906 0)"/>
     <use xlink:href="#DejaVuSans-62" transform="translate(1618.408203 0)"/>
     <use xlink:href="#DejaVuSans-6c" transform="translate(1681.884766 0)"/>
     <use xlink:href="#DejaVuSans-65" transform="translate(1709.667969 0)"/>
     <use xlink:href="#DejaVuSans-20" transform="translate(1771.191406 0)"/>
     <use xlink:href="#DejaVuSans-70" transform="translate(1802.978516 0)"/>
     <use xlink:href="#DejaVuSans-61" transform="translate(1866.455078 0)"/>
     <use xlink:href="#DejaVuSans-74" transform="translate(1927.734375 0)"/>
     <use xlink:href="#DejaVuSans-68" transform="translate(1966.943359 0)"/>
    </g>
   </g>
  </g>
 </g>
 <defs>
  <clipPath id="p0fa4e5c40c">
   <rect x="7.2" y="7.2" width="558" height="332.64"/>
  </clipPath>
 </defs>
</svg>
