<?xml version="1.0" encoding="utf-8" standalone="no"?>
<!DOCTYPE svg PUBLIC "-//W3C//DTD SVG 1.1//EN"
  "http://www.w3.org/Graphics/SVG/1.1/DTD/svg11.dtd">
<svg xmlns:xlink="http://www.w3.org/1999/xlink" width="628.2pt" height="347.04pt" viewBox="0 0 628.2 347.04" xmlns="http://www.w3.org/2000/svg" version="1.1">
 <metadata>
  <rdf:RDF xmlns:dc="http://purl.org/dc/elements/1.1/" xmlns:cc="http://creativecommons.org/ns#" xmlns:rdf="http://www.w3.org/1999/02/22-rdf-syntax-ns#">
   <cc:Work>
    <dc:type rdf:resource="http://purl.org/dc/dcmitype/StillImage"/>
    <dc:date>2026-04-09T12:24:30.603280</dc:date>
    <dc:format>image/svg+xml</dc:format>
    <dc:creator>
     <cc:Agent>
      <dc:title>Matplotlib v3.10.8, https://matplotlib.org/</dc:title>
     </cc:Agent>
    </dc:creator>
   </cc:Work>
  </rdf:RDF>
 </metadata>
 <defs>
  <style type="text/css">*{stroke-linejoin: round; stroke-linecap: butt}</style>
 </defs>
 <g id="figure_1">
  <g id="patch_1">
   <path d="M 0 347.04 
L 628.2 347.04 
L 628.2 -0 
L 0 -0 
z
" style="fill: #ffffff"/>
  </g>
  <g id="axes_1">
   <g id="patch_2">
    <path d="M 31.752 188.4888 
L 80.856 188.4888 
L 80.856 158.5512 
L 31.752 158.5512 
z
" clip-path="url(#pad839a3ae5)" style="fill: #ffffff; stroke: #2b3a42; stroke-width: 1.5; stroke-linejoin: miter"/>
   </g>
   <g id="patch_3">
    <path d="M 258.858 105.3288 
L 307.962 105.3288 
L 307.962 75.3912 
L 258.858 75.3912 
z
" clip-path="url(#pad839a3ae5)" style="fill: #ffffff; stroke: #2b3a42; stroke-width: 1.5; stroke-linejoin: miter"/>
   </g>
   <g id="patch_4">
    <path d="M 258.858 188.4888 
L 307.962 188.4888 
L 307.962 158.5512 
L 258.858 158.5512 
z
" clip-path="url(#pad839a3ae5)" style="fill: #ffffff; stroke: #2b3a42; stroke-width: 1.5; stroke-linejoin: miter"/>
   </g>
   <g id="patch_5">
    <path d="M 258.858 271.6488 
L 307.962 271.6488 
L 307.962 241.7112 
L 258.858 241.7112 
z
" clip-path="url(#pad839a3ae5)" style="fill: #ffffff; stroke: #2b3a42; stroke-width: 1.5; stroke-linejoin: miter"/>
   </g>
   <g id="patch_6">
    <path d="M 485.964 115.308 
L 535.068 115.308 
L 535.068 85.3704 
L 485.964 85.3704 
z
" clip-path="url(#pad839a3ae5)" style="fill: #ffffff; stroke: #2b3a42; stroke-width: 1.5; stroke-linejoin: miter"/>
   </g>
   <g id="patch_7">
    <path d="M 485.964 188.4888 
L 535.068 188.4888 
L 535.068 158.5512 
L 485.964 158.5512 
z
" clip-path="url(#pad839a3ae5)" style="fill: #ffffff; stroke: #2b3a42; stroke-width: 1.5; stroke-linejoin: miter"/>
   </g>
   <g id="patch_8">
    <path d="M 485.964 261.6696 
L 535.068 261.6696 
L 535.068 231.732 
L 485.964 231.732 
z
" clip-path="url(#pad839a3ae5)" style="fill: #ffffff; stroke: #2b3a42; stroke-width: 1.5; stroke-linejoin: miter"/>
   </g>
   <g id="patch_9">
    <path d="M 80.856 164.87136 
C 160.9569 164.87136 178.7571 81.71136 258.858 81.71136 
L 258.858 99.00864 
C 178.7571 99.00864 160.9569 182.16864 80.856 182.16864 
z
" clip-path="url(#pad839a3ae5)" style="fill: #3e5c76; opacity: 0.75"/>
   </g>
   <g id="patch_10">
    <path d="M 80.856 165.951399 
C 160.9569 165.951399 178.7571 165.951399 258.858 165.951399 
L 258.858 181.088601 
C 178.7571 181.088601 160.9569 181.088601 80.856 181.088601 
z
" clip-path="url(#pad839a3ae5)" style="fill: #8c3b3b; opacity: 0.25"/>
   </g>
   <g id="patch_11">
    <path d="M 80.856 170.091633 
C 160.9569 170.091633 178.7571 253.251633 258.858 253.251633 
L 258.858 260.108367 
C 178.7571 260.108367 160.9569 176.948367 80.856 176.948367 
z
" clip-path="url(#pad839a3ae5)" style="fill: #8c3b3b; opacity: 0.25"/>
   </g>
   <g id="patch_12">
    <path d="M 307.962 88.364151 
C 388.0629 88.364151 405.8631 98.343351 485.964 98.343351 
L 485.964 102.335049 
C 405.8631 102.335049 388.0629 92.355849 307.962 92.355849 
z
" clip-path="url(#pad839a3ae5)" style="fill: #3e5c76; opacity: 0.25"/>
   </g>
   <g id="patch_13">
    <path d="M 307.962 171.524149 
C 388.0629 171.524149 405.8631 98.343349 485.964 98.343349 
L 485.964 102.335051 
C 405.8631 102.335051 388.0629 175.515851 307.962 175.515851 
z
" clip-path="url(#pad839a3ae5)" style="fill: #3e5c76; opacity: 0.25"/>
   </g>
   <g id="patch_14">
    <path d="M 307.962 254.684151 
C 388.0629 254.684151 405.8631 98.343351 485.964 98.343351 
L 485.964 102.335049 
C 405.8631 102.335049 388.0629 258.675849 307.962 258.675849 
z
" clip-path="url(#pad839a3ae5)" style="fill: #8c3b3b; opacity: 0.25"/>
   </g>
   <g id="patch_15">
    <path d="M 307.962 88.364152 
C 388.0629 88.364152 405.8631 171.524152 485.964 171.524152 
L 485.964 175.515848 
C 405.8631 175.515848 388.0629 92.355848 307.962 92.355848 
z
" clip-path="url(#pad839a3ae5)" style="fill: #8c3b3b; opacity: 0.25"/>
   </g>
   <g id="patch_16">
    <path d="M 307.962 171.524151 
C 388.0629 171.524151 405.8631 171.524151 485.964 171.524151 
L 485.964 175.515849 
C 405.8631 175.515849 388.0629 175.515849 307.962 175.515849 
z
" clip-path="url(#pad839a3ae5)" style="fill: #8c3b3b; opacity: 0.25"/>
   </g>
   <g id="patch_17">
    <path d="M 307.962 254.684149 
C 388.0629 254.684149 405.8631 171.524149 485.964 171.524149 
L 485.964 175.515851 
C 405.8631 175.515851 388.0629 258.675851 307.962 258.675851 
z
" clip-path="url(#pad839a3ae5)" style="fill: #3e5c76; opacity: 0.25"/>
   </g>
   <g id="patch_18">
    <path d="M 307.962 88.364122 
C 388.0629 88.364122 405.8631 244.704922 485.964 244.704922 
L 485.964 248.696678 
C 405.8631 248.696678 388.0629 92.355878 307.962 92.355878 
z
" clip-path="url(#pad839a3ae5)" style="fill: #8c3b3b; opacity: 0.75"/>
   </g>
   <g id="patch_19">
    <path d="M 307.962 171.524157 
C 388.0629 171.524157 405.8631 244.704957 485.964 244.704957 
L 485.964 248.696643 
C 405.8631 248.696643 388.0629 175.515843 307.962 175.515843 
z
" clip-path="url(#pad839a3ae5)" style="fill: #8c3b3b; opacity: 0.25"/>
   </g>
   <g id="patch_20">
    <path d="M 307.962 254.684084 
C 388.0629 254.684084 405.8631 244.704884 485.964 244.704884 
L 485.964 248.696716 
C 405.8631 248.696716 388.0629 258.675916 307.962 258.675916 
z
" clip-path="url(#pad839a3ae5)" style="fill: #3e5c76; opacity: 0.25"/>
   </g>
   <g id="text_1">
    <!-- Treat -->
    <g transform="translate(43.943844 176.279375) scale(0.1 -0.1)">
     <defs>
      <path id="DejaVuSans-54" d="M -19 4666 
L 3928 4666 
L 3928 4134 
L 2272 4134 
L 2272 0 
L 1638 0 
L 1638 4134 
L -19 4134 
L -19 4666 
z
" transform="scale(0.015625)"/>
      <path id="DejaVuSans-72" d="M 2631 2963 
Q 2534 3019 2420 3045 
Q 2306 3072 2169 3072 
Q 1681 3072 1420 2755 
Q 1159 2438 1159 1844 
L 1159 0 
L 581 0 
L 581 3500 
L 1159 3500 
L 1159 2956 
Q 1341 3275 1631 3429 
Q 1922 3584 2338 3584 
Q 2397 3584 2469 3576 
Q 2541 3569 2628 3553 
L 2631 2963 
z
" transform="scale(0.015625)"/>
      <path id="DejaVuSans-65" d="M 3597 1894 
L 3597 1613 
L 953 1613 
Q 991 1019 1311 708 
Q 1631 397 2203 397 
Q 2534 397 2845 478 
Q 3156 559 3463 722 
L 3463 178 
Q 3153 47 2828 -22 
Q 2503 -91 2169 -91 
Q 1331 -91 842 396 
Q 353 884 353 1716 
Q 353 2575 817 3079 
Q 1281 3584 2069 3584 
Q 2775 3584 3186 3129 
Q 3597 2675 3597 1894 
z
M 3022 2063 
Q 3016 2534 2758 2815 
Q 2500 3097 2075 3097 
Q 1594 3097 1305 2825 
Q 1016 2553 972 2059 
L 3022 2063 
z
" transform="scale(0.015625)"/>
      <path id="DejaVuSans-61" d="M 2194 1759 
Q 1497 1759 1228 1600 
Q 959 1441 959 1056 
Q 959 750 1161 570 
Q 1363 391 1709 391 
Q 2188 391 2477 730 
Q 2766 1069 2766 1631 
L 2766 1759 
L 2194 1759 
z
M 3341 1997 
L 3341 0 
L 2766 0 
L 2766 531 
Q 2569 213 2275 61 
Q 1981 -91 1556 -91 
Q 1019 -91 701 211 
Q 384 513 384 1019 
Q 384 1609 779 1909 
Q 1175 2209 1959 2209 
L 2766 2209 
L 2766 2266 
Q 2766 2663 2505 2880 
Q 2244 3097 1772 3097 
Q 1472 3097 1187 3025 
Q 903 2953 641 2809 
L 641 3341 
Q 956 3463 1253 3523 
Q 1550 3584 1831 3584 
Q 2591 3584 2966 3190 
Q 3341 2797 3341 1997 
z
" transform="scale(0.015625)"/>
      <path id="DejaVuSans-74" d="M 1172 4494 
L 1172 3500 
L 2356 3500 
L 2356 3053 
L 1172 3053 
L 1172 1153 
Q 1172 725 1289 603 
Q 1406 481 1766 481 
L 2356 481 
L 2356 0 
L 1766 0 
Q 1100 0 847 248 
Q 594 497 594 1153 
L 594 3053 
L 172 3053 
L 172 3500 
L 594 3500 
L 594 4494 
L 1172 4494 
z
" transform="scale(0.015625)"/>
     </defs>
     <use xlink:href="#DejaVuSans-54"/>
     <use xlink:href="#DejaVuSans-72" transform="translate(46.333984 0)"/>
     <use xlink:href="#DejaVuSans-65" transform="translate(85.197266 0)"/>
     <use xlink:href="#DejaVuSans-61" transform="translate(146.720703 0)"/>
     <use xlink:href="#DejaVuSans-74" transform="translate(208 0)"/>
    </g>
   </g>
   <g id="text_2">
    <!-- A -->
    <g transform="translate(279.989688 87.520469) scale(0.1 -0.1)">
     <defs>
      <path id="DejaVuSans-41" d="M 2188 4044 
L 1331 1722 
L 3047 1722 
L 2188 4044 
z
M 1831 4666 
L 2547 4666 
L 4325 0 
L 3669 0 
L 3244 1197 
L 1141 1197 
L 716 0 
L 50 0 
L 1831 4666 
z
" transform="scale(0.015625)"/>
     </defs>
     <use xlink:href="#DejaVuSans-41"/>
    </g>
    <!-- idx -->
    <g transform="translate(275.887344 98.718281) scale(0.1 -0.1)">
     <defs>
      <path id="DejaVuSans-69" d="M 603 3500 
L 1178 3500 
L 1178 0 
L 603 0 
L 603 3500 
z
M 603 4863 
L 1178 4863 
L 1178 4134 
L 603 4134 
L 603 4863 
z
" transform="scale(0.015625)"/>
      <path id="DejaVuSans-64" d="M 2906 2969 
L 2906 4863 
L 3481 4863 
L 3481 0 
L 2906 0 
L 2906 525 
Q 2725 213 2448 61 
Q 2172 -91 1784 -91 
Q 1150 -91 751 415 
Q 353 922 353 1747 
Q 353 2572 751 3078 
Q 1150 3584 1784 3584 
Q 2172 3584 2448 3432 
Q 2725 3281 2906 2969 
z
M 947 1747 
Q 947 1113 1208 752 
Q 1469 391 1925 391 
Q 2381 391 2643 752 
Q 2906 1113 2906 1747 
Q 2906 2381 2643 2742 
Q 2381 3103 1925 3103 
Q 1469 3103 1208 2742 
Q 947 2381 947 1747 
z
" transform="scale(0.015625)"/>
      <path id="DejaVuSans-78" d="M 3513 3500 
L 2247 1797 
L 3578 0 
L 2900 0 
L 1881 1375 
L 863 0 
L 184 0 
L 1544 1831 
L 300 3500 
L 978 3500 
L 1906 2253 
L 2834 3500 
L 3513 3500 
z
" transform="scale(0.015625)"/>
     </defs>
     <use xlink:href="#DejaVuSans-69"/>
     <use xlink:href="#DejaVuSans-64" transform="translate(27.783203 0)"/>
     <use xlink:href="#DejaVuSans-78" transform="translate(91.259766 0)"/>
    </g>
   </g>
   <g id="text_3">
    <!-- B -->
    <g transform="translate(279.979531 170.680469) scale(0.1 -0.1)">
     <defs>
      <path id="DejaVuSans-42" d="M 1259 2228 
L 1259 519 
L 2272 519 
Q 2781 519 3026 730 
Q 3272 941 3272 1375 
Q 3272 1813 3026 2020 
Q 2781 2228 2272 2228 
L 1259 2228 
z
M 1259 4147 
L 1259 2741 
L 2194 2741 
Q 2656 2741 2882 2914 
Q 3109 3088 3109 3444 
Q 3109 3797 2882 3972 
Q 2656 4147 2194 4147 
L 1259 4147 
z
M 628 4666 
L 2241 4666 
Q 2963 4666 3353 4366 
Q 3744 4066 3744 3513 
Q 3744 3084 3544 2831 
Q 3344 2578 2956 2516 
Q 3422 2416 3680 2098 
Q 3938 1781 3938 1306 
Q 3938 681 3513 340 
Q 3088 0 2303 0 
L 628 0 
L 628 4666 
z
" transform="scale(0.015625)"/>
     </defs>
     <use xlink:href="#DejaVuSans-42"/>
    </g>
    <!-- idx -->
    <g transform="translate(275.887344 181.878281) scale(0.1 -0.1)">
     <use xlink:href="#DejaVuSans-69"/>
     <use xlink:href="#DejaVuSans-64" transform="translate(27.783203 0)"/>
     <use xlink:href="#DejaVuSans-78" transform="translate(91.259766 0)"/>
    </g>
   </g>
   <g id="text_4">
    <!-- C -->
    <g transform="translate(279.918594 253.840469) scale(0.1 -0.1)">
     <defs>
      <path id="DejaVuSans-43" d="M 4122 4306 
L 4122 3641 
Q 3803 3938 3442 4084 
Q 3081 4231 2675 4231 
Q 1875 4231 1450 3742 
Q 1025 3253 1025 2328 
Q 1025 1406 1450 917 
Q 1875 428 2675 428 
Q 3081 428 3442 575 
Q 3803 722 4122 1019 
L 4122 359 
Q 3791 134 3420 21 
Q 3050 -91 2638 -91 
Q 1578 -91 968 557 
Q 359 1206 359 2328 
Q 359 3453 968 4101 
Q 1578 4750 2638 4750 
Q 3056 4750 3426 4639 
Q 3797 4528 4122 4306 
z
" transform="scale(0.015625)"/>
     </defs>
     <use xlink:href="#DejaVuSans-43"/>
    </g>
    <!-- idx -->
    <g transform="translate(275.887344 265.038281) scale(0.1 -0.1)">
     <use xlink:href="#DejaVuSans-69"/>
     <use xlink:href="#DejaVuSans-64" transform="translate(27.783203 0)"/>
     <use xlink:href="#DejaVuSans-78" transform="translate(91.259766 0)"/>
    </g>
   </g>
   <g id="text_5">
    <!-- exec -->
    <g transform="translate(498.898031 97.499669) scale(0.1 -0.1)">
     <defs>
      <path id="DejaVuSans-63" d="M 3122 3366 
L 3122 2828 
Q 2878 2963 2633 3030 
Q 2388 3097 2138 3097 
Q 1578 3097 1268 2742 
Q 959 2388 959 1747 
Q 959 1106 1268 751 
Q 1578 397 2138 397 
Q 2388 397 2633 464 
Q 2878 531 3122 666 
L 3122 134 
Q 2881 22 2623 -34 
Q 2366 -91 2075 -91 
Q 1284 -91 818 406 
Q 353 903 353 1747 
Q 353 2603 823 3093 
Q 1294 3584 2113 3584 
Q 2378 3584 2631 3529 
Q 2884 3475 3122 3366 
z
" transform="scale(0.015625)"/>
     </defs>
     <use xlink:href="#DejaVuSans-65"/>
     <use xlink:href="#DejaVuSans-78" transform="translate(59.773438 0)"/>
     <use xlink:href="#DejaVuSans-65" transform="translate(115.828125 0)"/>
     <use xlink:href="#DejaVuSans-63" transform="translate(177.351562 0)"/>
    </g>
    <!-- share -->
    <g transform="translate(496.658969 108.697481) scale(0.1 -0.1)">
     <defs>
      <path id="DejaVuSans-73" d="M 2834 3397 
L 2834 2853 
Q 2591 2978 2328 3040 
Q 2066 3103 1784 3103 
Q 1356 3103 1142 2972 
Q 928 2841 928 2578 
Q 928 2378 1081 2264 
Q 1234 2150 1697 2047 
L 1894 2003 
Q 2506 1872 2764 1633 
Q 3022 1394 3022 966 
Q 3022 478 2636 193 
Q 2250 -91 1575 -91 
Q 1294 -91 989 -36 
Q 684 19 347 128 
L 347 722 
Q 666 556 975 473 
Q 1284 391 1588 391 
Q 1994 391 2212 530 
Q 2431 669 2431 922 
Q 2431 1156 2273 1281 
Q 2116 1406 1581 1522 
L 1381 1569 
Q 847 1681 609 1914 
Q 372 2147 372 2553 
Q 372 3047 722 3315 
Q 1072 3584 1716 3584 
Q 2034 3584 2315 3537 
Q 2597 3491 2834 3397 
z
" transform="scale(0.015625)"/>
      <path id="DejaVuSans-68" d="M 3513 2113 
L 3513 0 
L 2938 0 
L 2938 2094 
Q 2938 2591 2744 2837 
Q 2550 3084 2163 3084 
Q 1697 3084 1428 2787 
Q 1159 2491 1159 1978 
L 1159 0 
L 581 0 
L 581 4863 
L 1159 4863 
L 1159 2956 
Q 1366 3272 1645 3428 
Q 1925 3584 2291 3584 
Q 2894 3584 3203 3211 
Q 3513 2838 3513 2113 
z
" transform="scale(0.015625)"/>
     </defs>
     <use xlink:href="#DejaVuSans-73"/>
     <use xlink:href="#DejaVuSans-68" transform="translate(52.099609 0)"/>
     <use xlink:href="#DejaVuSans-61" transform="translate(115.478516 0)"/>
     <use xlink:href="#DejaVuSans-72" transform="translate(176.757812 0)"/>
     <use xlink:href="#DejaVuSans-65" transform="translate(215.621094 0)"/>
    </g>
   </g>
   <g id="text_6">
    <!-- proc -->
    <g transform="translate(499.590219 170.680469) scale(0.1 -0.1)">
     <defs>
      <path id="DejaVuSans-70" d="M 1159 525 
L 1159 -1331 
L 581 -1331 
L 581 3500 
L 1159 3500 
L 1159 2969 
Q 1341 3281 1617 3432 
Q 1894 3584 2278 3584 
Q 2916 3584 3314 3078 
Q 3713 2572 3713 1747 
Q 3713 922 3314 415 
Q 2916 -91 2278 -91 
Q 1894 -91 1617 61 
Q 1341 213 1159 525 
z
M 3116 1747 
Q 3116 2381 2855 2742 
Q 2594 3103 2138 3103 
Q 1681 3103 1420 2742 
Q 1159 2381 1159 1747 
Q 1159 1113 1420 752 
Q 1681 391 2138 391 
Q 2594 391 2855 752 
Q 3116 1113 3116 1747 
z
" transform="scale(0.015625)"/>
      <path id="DejaVuSans-6f" d="M 1959 3097 
Q 1497 3097 1228 2736 
Q 959 2375 959 1747 
Q 959 1119 1226 758 
Q 1494 397 1959 397 
Q 2419 397 2687 759 
Q 2956 1122 2956 1747 
Q 2956 2369 2687 2733 
Q 2419 3097 1959 3097 
z
M 1959 3584 
Q 2709 3584 3137 3096 
Q 3566 2609 3566 1747 
Q 3566 888 3137 398 
Q 2709 -91 1959 -91 
Q 1206 -91 779 398 
Q 353 888 353 1747 
Q 353 2609 779 3096 
Q 1206 3584 1959 3584 
z
" transform="scale(0.015625)"/>
     </defs>
     <use xlink:href="#DejaVuSans-70"/>
     <use xlink:href="#DejaVuSans-72" transform="translate(63.476562 0)"/>
     <use xlink:href="#DejaVuSans-6f" transform="translate(102.339844 0)"/>
     <use xlink:href="#DejaVuSans-63" transform="translate(163.521484 0)"/>
    </g>
    <!-- share -->
    <g transform="translate(496.658969 181.878281) scale(0.1 -0.1)">
     <use xlink:href="#DejaVuSans-73"/>
     <use xlink:href="#DejaVuSans-68" transform="translate(52.099609 0)"/>
     <use xlink:href="#DejaVuSans-61" transform="translate(115.478516 0)"/>
     <use xlink:href="#DejaVuSans-72" transform="translate(176.757812 0)"/>
     <use xlink:href="#DejaVuSans-65" transform="translate(215.621094 0)"/>
    </g>
   </g>
   <g id="text_7">
    <!-- pca -->
    <g transform="translate(501.5285 243.861269) scale(0.1 -0.1)">
     <use xlink:href="#DejaVuSans-70"/>
     <use xlink:href="#DejaVuSans-63" transform="translate(63.476562 0)"/>
     <use xlink:href="#DejaVuSans-61" transform="translate(118.457031 0)"/>
    </g>
    <!-- quality -->
    <g transform="translate(493.411313 255.059081) scale(0.1 -0.1)">
     <defs>
      <path id="DejaVuSans-71" d="M 947 1747 
Q 947 1113 1208 752 
Q 1469 391 1925 391 
Q 2381 391 2643 752 
Q 2906 1113 2906 1747 
Q 2906 2381 2643 2742 
Q 2381 3103 1925 3103 
Q 1469 3103 1208 2742 
Q 947 2381 947 1747 
z
M 2906 525 
Q 2725 213 2448 61 
Q 2172 -91 1784 -91 
Q 1150 -91 751 415 
Q 353 922 353 1747 
Q 353 2572 751 3078 
Q 1150 3584 1784 3584 
Q 2172 3584 2448 3432 
Q 2725 3281 2906 2969 
L 2906 3500 
L 3481 3500 
L 3481 -1331 
L 2906 -1331 
L 2906 525 
z
" transform="scale(0.015625)"/>
      <path id="DejaVuSans-75" d="M 544 1381 
L 544 3500 
L 1119 3500 
L 1119 1403 
Q 1119 906 1312 657 
Q 1506 409 1894 409 
Q 2359 409 2629 706 
Q 2900 1003 2900 1516 
L 2900 3500 
L 3475 3500 
L 3475 0 
L 2900 0 
L 2900 538 
Q 2691 219 2414 64 
Q 2138 -91 1772 -91 
Q 1169 -91 856 284 
Q 544 659 544 1381 
z
M 1991 3584 
L 1991 3584 
z
" transform="scale(0.015625)"/>
      <path id="DejaVuSans-6c" d="M 603 4863 
L 1178 4863 
L 1178 0 
L 603 0 
L 603 4863 
z
" transform="scale(0.015625)"/>
      <path id="DejaVuSans-79" d="M 2059 -325 
Q 1816 -950 1584 -1140 
Q 1353 -1331 966 -1331 
L 506 -1331 
L 506 -850 
L 844 -850 
Q 1081 -850 1212 -737 
Q 1344 -625 1503 -206 
L 1606 56 
L 191 3500 
L 800 3500 
L 1894 763 
L 2988 3500 
L 3597 3500 
L 2059 -325 
z
" transform="scale(0.015625)"/>
     </defs>
     <use xlink:href="#DejaVuSans-71"/>
     <use xlink:href="#DejaVuSans-75" transform="translate(63.476562 0)"/>
     <use xlink:href="#DejaVuSans-61" transform="translate(126.855469 0)"/>
     <use xlink:href="#DejaVuSans-6c" transform="translate(188.134766 0)"/>
     <use xlink:href="#DejaVuSans-69" transform="translate(215.917969 0)"/>
     <use xlink:href="#DejaVuSans-74" transform="translate(243.701172 0)"/>
     <use xlink:href="#DejaVuSans-79" transform="translate(282.910156 0)"/>
    </g>
   </g>
   <g id="text_8">
    <!-- Mechanism flow from treatment to mediators to outcomes -->
    <g transform="translate(19.476 23.832) scale(0.15 -0.15)">
     <defs>
      <path id="DejaVuSans-Bold-4d" d="M 588 4666 
L 2119 4666 
L 3181 2169 
L 4250 4666 
L 5778 4666 
L 5778 0 
L 4641 0 
L 4641 3413 
L 3566 897 
L 2803 897 
L 1728 3413 
L 1728 0 
L 588 0 
L 588 4666 
z
" transform="scale(0.015625)"/>
      <path id="DejaVuSans-Bold-65" d="M 4031 1759 
L 4031 1441 
L 1416 1441 
Q 1456 1047 1700 850 
Q 1944 653 2381 653 
Q 2734 653 3104 758 
Q 3475 863 3866 1075 
L 3866 213 
Q 3469 63 3072 -14 
Q 2675 -91 2278 -91 
Q 1328 -91 801 392 
Q 275 875 275 1747 
Q 275 2603 792 3093 
Q 1309 3584 2216 3584 
Q 3041 3584 3536 3087 
Q 4031 2591 4031 1759 
z
M 2881 2131 
Q 2881 2450 2695 2645 
Q 2509 2841 2209 2841 
Q 1884 2841 1681 2658 
Q 1478 2475 1428 2131 
L 2881 2131 
z
" transform="scale(0.015625)"/>
      <path id="DejaVuSans-Bold-63" d="M 3366 3391 
L 3366 2478 
Q 3138 2634 2908 2709 
Q 2678 2784 2431 2784 
Q 1963 2784 1702 2511 
Q 1441 2238 1441 1747 
Q 1441 1256 1702 982 
Q 1963 709 2431 709 
Q 2694 709 2930 787 
Q 3166 866 3366 1019 
L 3366 103 
Q 3103 6 2833 -42 
Q 2563 -91 2291 -91 
Q 1344 -91 809 395 
Q 275 881 275 1747 
Q 275 2613 809 3098 
Q 1344 3584 2291 3584 
Q 2566 3584 2833 3536 
Q 3100 3488 3366 3391 
z
" transform="scale(0.015625)"/>
      <path id="DejaVuSans-Bold-68" d="M 4056 2131 
L 4056 0 
L 2931 0 
L 2931 347 
L 2931 1625 
Q 2931 2084 2911 2256 
Q 2891 2428 2841 2509 
Q 2775 2619 2662 2680 
Q 2550 2741 2406 2741 
Q 2056 2741 1856 2470 
Q 1656 2200 1656 1722 
L 1656 0 
L 538 0 
L 538 4863 
L 1656 4863 
L 1656 2988 
Q 1909 3294 2193 3439 
Q 2478 3584 2822 3584 
Q 3428 3584 3742 3212 
Q 4056 2841 4056 2131 
z
" transform="scale(0.015625)"/>
      <path id="DejaVuSans-Bold-61" d="M 2106 1575 
Q 1756 1575 1579 1456 
Q 1403 1338 1403 1106 
Q 1403 894 1545 773 
Q 1688 653 1941 653 
Q 2256 653 2472 879 
Q 2688 1106 2688 1447 
L 2688 1575 
L 2106 1575 
z
M 3816 1997 
L 3816 0 
L 2688 0 
L 2688 519 
Q 2463 200 2181 54 
Q 1900 -91 1497 -91 
Q 953 -91 614 226 
Q 275 544 275 1050 
Q 275 1666 698 1953 
Q 1122 2241 2028 2241 
L 2688 2241 
L 2688 2328 
Q 2688 2594 2478 2717 
Q 2269 2841 1825 2841 
Q 1466 2841 1156 2769 
Q 847 2697 581 2553 
L 581 3406 
Q 941 3494 1303 3539 
Q 1666 3584 2028 3584 
Q 2975 3584 3395 3211 
Q 3816 2838 3816 1997 
z
" transform="scale(0.015625)"/>
      <path id="DejaVuSans-Bold-6e" d="M 4056 2131 
L 4056 0 
L 2931 0 
L 2931 347 
L 2931 1631 
Q 2931 2084 2911 2256 
Q 2891 2428 2841 2509 
Q 2775 2619 2662 2680 
Q 2550 2741 2406 2741 
Q 2056 2741 1856 2470 
Q 1656 2200 1656 1722 
L 1656 0 
L 538 0 
L 538 3500 
L 1656 3500 
L 1656 2988 
Q 1909 3294 2193 3439 
Q 2478 3584 2822 3584 
Q 3428 3584 3742 3212 
Q 4056 2841 4056 2131 
z
" transform="scale(0.015625)"/>
      <path id="DejaVuSans-Bold-69" d="M 538 3500 
L 1656 3500 
L 1656 0 
L 538 0 
L 538 3500 
z
M 538 4863 
L 1656 4863 
L 1656 3950 
L 538 3950 
L 538 4863 
z
" transform="scale(0.015625)"/>
      <path id="DejaVuSans-Bold-73" d="M 3272 3391 
L 3272 2541 
Q 2913 2691 2578 2766 
Q 2244 2841 1947 2841 
Q 1628 2841 1473 2761 
Q 1319 2681 1319 2516 
Q 1319 2381 1436 2309 
Q 1553 2238 1856 2203 
L 2053 2175 
Q 2913 2066 3209 1816 
Q 3506 1566 3506 1031 
Q 3506 472 3093 190 
Q 2681 -91 1863 -91 
Q 1516 -91 1145 -36 
Q 775 19 384 128 
L 384 978 
Q 719 816 1070 734 
Q 1422 653 1784 653 
Q 2113 653 2278 743 
Q 2444 834 2444 1013 
Q 2444 1163 2330 1236 
Q 2216 1309 1875 1350 
L 1678 1375 
Q 931 1469 631 1722 
Q 331 1975 331 2491 
Q 331 3047 712 3315 
Q 1094 3584 1881 3584 
Q 2191 3584 2531 3537 
Q 2872 3491 3272 3391 
z
" transform="scale(0.015625)"/>
      <path id="DejaVuSans-Bold-6d" d="M 3781 2919 
Q 3994 3244 4286 3414 
Q 4578 3584 4928 3584 
Q 5531 3584 5847 3212 
Q 6163 2841 6163 2131 
L 6163 0 
L 5038 0 
L 5038 1825 
Q 5041 1866 5042 1909 
Q 5044 1953 5044 2034 
Q 5044 2406 4934 2573 
Q 4825 2741 4581 2741 
Q 4263 2741 4089 2478 
Q 3916 2216 3909 1719 
L 3909 0 
L 2784 0 
L 2784 1825 
Q 2784 2406 2684 2573 
Q 2584 2741 2328 2741 
Q 2006 2741 1831 2477 
Q 1656 2213 1656 1722 
L 1656 0 
L 531 0 
L 531 3500 
L 1656 3500 
L 1656 2988 
Q 1863 3284 2130 3434 
Q 2397 3584 2719 3584 
Q 3081 3584 3359 3409 
Q 3638 3234 3781 2919 
z
" transform="scale(0.015625)"/>
      <path id="DejaVuSans-Bold-20" transform="scale(0.015625)"/>
      <path id="DejaVuSans-Bold-66" d="M 2841 4863 
L 2841 4128 
L 2222 4128 
Q 1984 4128 1890 4042 
Q 1797 3956 1797 3744 
L 1797 3500 
L 2753 3500 
L 2753 2700 
L 1797 2700 
L 1797 0 
L 678 0 
L 678 2700 
L 122 2700 
L 122 3500 
L 678 3500 
L 678 3744 
Q 678 4316 997 4589 
Q 1316 4863 1984 4863 
L 2841 4863 
z
" transform="scale(0.015625)"/>
      <path id="DejaVuSans-Bold-6c" d="M 538 4863 
L 1656 4863 
L 1656 0 
L 538 0 
L 538 4863 
z
" transform="scale(0.015625)"/>
      <path id="DejaVuSans-Bold-6f" d="M 2203 2784 
Q 1831 2784 1636 2517 
Q 1441 2250 1441 1747 
Q 1441 1244 1636 976 
Q 1831 709 2203 709 
Q 2569 709 2762 976 
Q 2956 1244 2956 1747 
Q 2956 2250 2762 2517 
Q 2569 2784 2203 2784 
z
M 2203 3584 
Q 3106 3584 3614 3096 
Q 4122 2609 4122 1747 
Q 4122 884 3614 396 
Q 3106 -91 2203 -91 
Q 1297 -91 786 396 
Q 275 884 275 1747 
Q 275 2609 786 3096 
Q 1297 3584 2203 3584 
z
" transform="scale(0.015625)"/>
      <path id="DejaVuSans-Bold-77" d="M 225 3500 
L 1313 3500 
L 1900 1088 
L 2491 3500 
L 3425 3500 
L 4013 1113 
L 4603 3500 
L 5691 3500 
L 4769 0 
L 3547 0 
L 2956 2406 
L 2369 0 
L 1147 0 
L 225 3500 
z
" transform="scale(0.015625)"/>
      <path id="DejaVuSans-Bold-72" d="M 3138 2547 
Q 2991 2616 2845 2648 
Q 2700 2681 2553 2681 
Q 2122 2681 1889 2404 
Q 1656 2128 1656 1613 
L 1656 0 
L 538 0 
L 538 3500 
L 1656 3500 
L 1656 2925 
Q 1872 3269 2151 3426 
Q 2431 3584 2822 3584 
Q 2878 3584 2943 3579 
Q 3009 3575 3134 3559 
L 3138 2547 
z
" transform="scale(0.015625)"/>
      <path id="DejaVuSans-Bold-74" d="M 1759 4494 
L 1759 3500 
L 2913 3500 
L 2913 2700 
L 1759 2700 
L 1759 1216 
Q 1759 972 1856 886 
Q 1953 800 2241 800 
L 2816 800 
L 2816 0 
L 1856 0 
Q 1194 0 917 276 
Q 641 553 641 1216 
L 641 2700 
L 84 2700 
L 84 3500 
L 641 3500 
L 641 4494 
L 1759 4494 
z
" transform="scale(0.015625)"/>
      <path id="DejaVuSans-Bold-64" d="M 2919 2988 
L 2919 4863 
L 4044 4863 
L 4044 0 
L 2919 0 
L 2919 506 
Q 2688 197 2409 53 
Q 2131 -91 1766 -91 
Q 1119 -91 703 423 
Q 288 938 288 1747 
Q 288 2556 703 3070 
Q 1119 3584 1766 3584 
Q 2128 3584 2408 3439 
Q 2688 3294 2919 2988 
z
M 2181 722 
Q 2541 722 2730 984 
Q 2919 1247 2919 1747 
Q 2919 2247 2730 2509 
Q 2541 2772 2181 2772 
Q 1825 2772 1636 2509 
Q 1447 2247 1447 1747 
Q 1447 1247 1636 984 
Q 1825 722 2181 722 
z
" transform="scale(0.015625)"/>
      <path id="DejaVuSans-Bold-75" d="M 500 1363 
L 500 3500 
L 1625 3500 
L 1625 3150 
Q 1625 2866 1622 2436 
Q 1619 2006 1619 1863 
Q 1619 1441 1641 1255 
Q 1663 1069 1716 984 
Q 1784 875 1895 815 
Q 2006 756 2150 756 
Q 2500 756 2700 1025 
Q 2900 1294 2900 1772 
L 2900 3500 
L 4019 3500 
L 4019 0 
L 2900 0 
L 2900 506 
Q 2647 200 2364 54 
Q 2081 -91 1741 -91 
Q 1134 -91 817 281 
Q 500 653 500 1363 
z
" transform="scale(0.015625)"/>
     </defs>
     <use xlink:href="#DejaVuSans-Bold-4d"/>
     <use xlink:href="#DejaVuSans-Bold-65" transform="translate(99.511719 0)"/>
     <use xlink:href="#DejaVuSans-Bold-63" transform="translate(167.333984 0)"/>
     <use xlink:href="#DejaVuSans-Bold-68" transform="translate(226.611328 0)"/>
     <use xlink:href="#DejaVuSans-Bold-61" transform="translate(297.802734 0)"/>
     <use xlink:href="#DejaVuSans-Bold-6e" transform="translate(365.283203 0)"/>
     <use xlink:href="#DejaVuSans-Bold-69" transform="translate(436.474609 0)"/>
     <use xlink:href="#DejaVuSans-Bold-73" transform="translate(470.751953 0)"/>
     <use xlink:href="#DejaVuSans-Bold-6d" transform="translate(530.273438 0)"/>
     <use xlink:href="#DejaVuSans-Bold-20" transform="translate(634.472656 0)"/>
     <use xlink:href="#DejaVuSans-Bold-66" transform="translate(669.287109 0)"/>
     <use xlink:href="#DejaVuSans-Bold-6c" transform="translate(712.792969 0)"/>
     <use xlink:href="#DejaVuSans-Bold-6f" transform="translate(747.070312 0)"/>
     <use xlink:href="#DejaVuSans-Bold-77" transform="translate(815.771484 0)"/>
     <use xlink:href="#DejaVuSans-Bold-20" transform="translate(908.154297 0)"/>
     <use xlink:href="#DejaVuSans-Bold-66" transform="translate(942.96875 0)"/>
     <use xlink:href="#DejaVuSans-Bold-72" transform="translate(986.474609 0)"/>
     <use xlink:href="#DejaVuSans-Bold-6f" transform="translate(1035.791016 0)"/>
     <use xlink:href="#DejaVuSans-Bold-6d" transform="translate(1104.492188 0)"/>
     <use xlink:href="#DejaVuSans-Bold-20" transform="translate(1208.691406 0)"/>
     <use xlink:href="#DejaVuSans-Bold-74" transform="translate(1243.505859 0)"/>
     <use xlink:href="#DejaVuSans-Bold-72" transform="translate(1291.308594 0)"/>
     <use xlink:href="#DejaVuSans-Bold-65" transform="translate(1340.625 0)"/>
     <use xlink:href="#DejaVuSans-Bold-61" transform="translate(1408.447266 0)"/>
     <use xlink:href="#DejaVuSans-Bold-74" transform="translate(1475.927734 0)"/>
     <use xlink:href="#DejaVuSans-Bold-6d" transform="translate(1523.730469 0)"/>
     <use xlink:href="#DejaVuSans-Bold-65" transform="translate(1627.929688 0)"/>
     <use xlink:href="#DejaVuSans-Bold-6e" transform="translate(1695.751953 0)"/>
     <use xlink:href="#DejaVuSans-Bold-74" transform="translate(1766.943359 0)"/>
     <use xlink:href="#DejaVuSans-Bold-20" transform="translate(1814.746094 0)"/>
     <use xlink:href="#DejaVuSans-Bold-74" transform="translate(1849.560547 0)"/>
     <use xlink:href="#DejaVuSans-Bold-6f" transform="translate(1897.363281 0)"/>
     <use xlink:href="#DejaVuSans-Bold-20" transform="translate(1966.064453 0)"/>
     <use xlink:href="#DejaVuSans-Bold-6d" transform="translate(2000.878906 0)"/>
     <use xlink:href="#DejaVuSans-Bold-65" transform="translate(2105.078125 0)"/>
     <use xlink:href="#DejaVuSans-Bold-64" transform="translate(2172.900391 0)"/>
     <use xlink:href="#DejaVuSans-Bold-69" transform="translate(2244.482422 0)"/>
     <use xlink:href="#DejaVuSans-Bold-61" transform="translate(2278.759766 0)"/>
     <use xlink:href="#DejaVuSans-Bold-74" transform="translate(2346.240234 0)"/>
     <use xlink:href="#DejaVuSans-Bold-6f" transform="translate(2394.042969 0)"/>
     <use xlink:href="#DejaVuSans-Bold-72" transform="translate(2462.744141 0)"/>
     <use xlink:href="#DejaVuSans-Bold-73" transform="translate(2512.060547 0)"/>
     <use xlink:href="#DejaVuSans-Bold-20" transform="translate(2571.582031 0)"/>
     <use xlink:href="#DejaVuSans-Bold-74" transform="translate(2606.396484 0)"/>
     <use xlink:href="#DejaVuSans-Bold-6f" transform="translate(2654.199219 0)"/>
     <use xlink:href="#DejaVuSans-Bold-20" transform="translate(2722.900391 0)"/>
     <use xlink:href="#DejaVuSans-Bold-6f" transform="translate(2757.714844 0)"/>
     <use xlink:href="#DejaVuSans-Bold-75" transform="translate(2826.416016 0)"/>
     <use xlink:href="#DejaVuSans-Bold-74" transform="translate(2897.607422 0)"/>
     <use xlink:href="#DejaVuSans-Bold-63" transform="translate(2945.410156 0)"/>
     <use xlink:href="#DejaVuSans-Bold-6f" transform="translate(3004.6875 0)"/>
     <use xlink:href="#DejaVuSans-Bold-6d" transform="translate(3073.388672 0)"/>
     <use xlink:href="#DejaVuSans-Bold-65" transform="translate(3177.587891 0)"/>
     <use xlink:href="#DejaVuSans-Bold-73" transform="translate(3245.410156 0)"/>
    </g>
   </g>
   <g id="text_9">
    <!-- Flow width ∝ absolute coefficient; faded flows are statistically unstable -->
    <g style="fill: #555555" transform="translate(19.476 37.1376) scale(0.1 -0.1)">
     <defs>
      <path id="DejaVuSans-46" d="M 628 4666 
L 3309 4666 
L 3309 4134 
L 1259 4134 
L 1259 2759 
L 3109 2759 
L 3109 2228 
L 1259 2228 
L 1259 0 
L 628 0 
L 628 4666 
z
" transform="scale(0.015625)"/>
      <path id="DejaVuSans-77" d="M 269 3500 
L 844 3500 
L 1563 769 
L 2278 3500 
L 2956 3500 
L 3675 769 
L 4391 3500 
L 4966 3500 
L 4050 0 
L 3372 0 
L 2619 2869 
L 1863 0 
L 1184 0 
L 269 3500 
z
" transform="scale(0.015625)"/>
      <path id="DejaVuSans-20" transform="scale(0.015625)"/>
      <path id="DejaVuSans-221d" d="M 1647 1134 
Q 2163 1134 2472 1884 
Q 2075 2703 1647 2703 
Q 1334 2703 1175 2478 
Q 1006 2238 1006 1919 
Q 1006 1569 1175 1353 
Q 1350 1134 1647 1134 
z
M 3884 1128 
L 3884 716 
L 3644 716 
Q 3416 716 3247 809 
Q 3078 894 2916 1091 
Q 2819 1203 2666 1466 
Q 2456 1091 2272 925 
Q 2044 725 1681 725 
Q 1259 725 981 1041 
Q 688 1372 688 1919 
Q 688 2444 981 2800 
Q 1241 3116 1688 3116 
Q 1916 3116 2084 3022 
Q 2281 2919 2416 2741 
Q 2541 2581 2666 2366 
Q 2875 2741 3059 2906 
Q 3288 3106 3650 3106 
L 3884 3106 
L 3884 2697 
L 3684 2697 
Q 3222 2697 2859 1947 
Q 3256 1128 3684 1128 
L 3884 1128 
z
" transform="scale(0.015625)"/>
      <path id="DejaVuSans-62" d="M 3116 1747 
Q 3116 2381 2855 2742 
Q 2594 3103 2138 3103 
Q 1681 3103 1420 2742 
Q 1159 2381 1159 1747 
Q 1159 1113 1420 752 
Q 1681 391 2138 391 
Q 2594 391 2855 752 
Q 3116 1113 3116 1747 
z
M 1159 2969 
Q 1341 3281 1617 3432 
Q 1894 3584 2278 3584 
Q 2916 3584 3314 3078 
Q 3713 2572 3713 1747 
Q 3713 922 3314 415 
Q 2916 -91 2278 -91 
Q 1894 -91 1617 61 
Q 1341 213 1159 525 
L 1159 0 
L 581 0 
L 581 4863 
L 1159 4863 
L 1159 2969 
z
" transform="scale(0.015625)"/>
      <path id="DejaVuSans-66" d="M 2375 4863 
L 2375 4384 
L 1825 4384 
Q 1516 4384 1395 4259 
Q 1275 4134 1275 3809 
L 1275 3500 
L 2222 3500 
L 2222 3053 
L 1275 3053 
L 1275 0 
L 697 0 
L 697 3053 
L 147 3053 
L 147 3500 
L 697 3500 
L 697 3744 
Q 697 4328 969 4595 
Q 1241 4863 1831 4863 
L 2375 4863 
z
" transform="scale(0.015625)"/>
      <path id="DejaVuSans-6e" d="M 3513 2113 
L 3513 0 
L 2938 0 
L 2938 2094 
Q 2938 2591 2744 2837 
Q 2550 3084 2163 3084 
Q 1697 3084 1428 2787 
Q 1159 2491 1159 1978 
L 1159 0 
L 581 0 
L 581 3500 
L 1159 3500 
L 1159 2956 
Q 1366 3272 1645 3428 
Q 1925 3584 2291 3584 
Q 2894 3584 3203 3211 
Q 3513 2838 3513 2113 
z
" transform="scale(0.015625)"/>
      <path id="DejaVuSans-3b" d="M 750 3309 
L 1409 3309 
L 1409 2516 
L 750 2516 
L 750 3309 
z
M 750 794 
L 1409 794 
L 1409 256 
L 897 -744 
L 494 -744 
L 750 256 
L 750 794 
z
" transform="scale(0.015625)"/>
     </defs>
     <use xlink:href="#DejaVuSans-46"/>
     <use xlink:href="#DejaVuSans-6c" transform="translate(57.519531 0)"/>
     <use xlink:href="#DejaVuSans-6f" transform="translate(85.302734 0)"/>
     <use xlink:href="#DejaVuSans-77" transform="translate(146.484375 0)"/>
     <use xlink:href="#DejaVuSans-20" transform="translate(228.271484 0)"/>
     <use xlink:href="#DejaVuSans-77" transform="translate(260.058594 0)"/>
     <use xlink:href="#DejaVuSans-69" transform="translate(341.845703 0)"/>
     <use xlink:href="#DejaVuSans-64" transform="translate(369.628906 0)"/>
     <use xlink:href="#DejaVuSans-74" transform="translate(433.105469 0)"/>
     <use xlink:href="#DejaVuSans-68" transform="translate(472.314453 0)"/>
     <use xlink:href="#DejaVuSans-20" transform="translate(535.693359 0)"/>
     <use xlink:href="#DejaVuSans-221d" transform="translate(567.480469 0)"/>
     <use xlink:href="#DejaVuSans-20" transform="translate(638.916016 0)"/>
     <use xlink:href="#DejaVuSans-61" transform="translate(670.703125 0)"/>
     <use xlink:href="#DejaVuSans-62" transform="translate(731.982422 0)"/>
     <use xlink:href="#DejaVuSans-73" transform="translate(795.458984 0)"/>
     <use xlink:href="#DejaVuSans-6f" transform="translate(847.558594 0)"/>
     <use xlink:href="#DejaVuSans-6c" transform="translate(908.740234 0)"/>
     <use xlink:href="#DejaVuSans-75" transform="translate(936.523438 0)"/>
     <use xlink:href="#DejaVuSans-74" transform="translate(999.902344 0)"/>
     <use xlink:href="#DejaVuSans-65" transform="translate(1039.111328 0)"/>
     <use xlink:href="#DejaVuSans-20" transform="translate(1100.634766 0)"/>
     <use xlink:href="#DejaVuSans-63" transform="translate(1132.421875 0)"/>
     <use xlink:href="#DejaVuSans-6f" transform="translate(1187.402344 0)"/>
     <use xlink:href="#DejaVuSans-65" transform="translate(1248.583984 0)"/>
     <use xlink:href="#DejaVuSans-66" transform="translate(1310.107422 0)"/>
     <use xlink:href="#DejaVuSans-66" transform="translate(1345.3125 0)"/>
     <use xlink:href="#DejaVuSans-69" transform="translate(1380.517578 0)"/>
     <use xlink:href="#DejaVuSans-63" transform="translate(1408.300781 0)"/>
     <use xlink:href="#DejaVuSans-69" transform="translate(1463.28125 0)"/>
     <use xlink:href="#DejaVuSans-65" transform="translate(1491.064453 0)"/>
     <use xlink:href="#DejaVuSans-6e" transform="translate(1552.587891 0)"/>
     <use xlink:href="#DejaVuSans-74" transform="translate(1615.966797 0)"/>
     <use xlink:href="#DejaVuSans-3b" transform="translate(1655.175781 0)"/>
     <use xlink:href="#DejaVuSans-20" transform="translate(1688.867188 0)"/>
     <use xlink:href="#DejaVuSans-66" transform="translate(1720.654297 0)"/>
     <use xlink:href="#DejaVuSans-61" transform="translate(1755.859375 0)"/>
     <use xlink:href="#DejaVuSans-64" transform="translate(1817.138672 0)"/>
     <use xlink:href="#DejaVuSans-65" transform="translate(1880.615234 0)"/>
     <use xlink:href="#DejaVuSans-64" transform="translate(1942.138672 0)"/>
     <use xlink:href="#DejaVuSans-20" transform="translate(2005.615234 0)"/>
     <use xlink:href="#DejaVuSans-66" transform="translate(2037.402344 0)"/>
     <use xlink:href="#DejaVuSans-6c" transform="translate(2072.607422 0)"/>
     <use xlink:href="#DejaVuSans-6f" transform="translate(2100.390625 0)"/>
     <use xlink:href="#DejaVuSans-77" transform="translate(2161.572266 0)"/>
     <use xlink:href="#DejaVuSans-73" transform="translate(2243.359375 0)"/>
     <use xlink:href="#DejaVuSans-20" transform="translate(2295.458984 0)"/>
     <use xlink:href="#DejaVuSans-61" transform="translate(2327.246094 0)"/>
     <use xlink:href="#DejaVuSans-72" transform="translate(2388.525391 0)"/>
     <use xlink:href="#DejaVuSans-65" transform="translate(2427.388672 0)"/>
     <use xlink:href="#DejaVuSans-20" transform="translate(2488.912109 0)"/>
     <use xlink:href="#DejaVuSans-73" transform="translate(2520.699219 0)"/>
     <use xlink:href="#DejaVuSans-74" transform="translate(2572.798828 0)"/>
     <use xlink:href="#DejaVuSans-61" transform="translate(2612.007812 0)"/>
     <use xlink:href="#DejaVuSans-74" transform="translate(2673.287109 0)"/>
     <use xlink:href="#DejaVuSans-69" transform="translate(2712.496094 0)"/>
     <use xlink:href="#DejaVuSans-73" transform="translate(2740.279297 0)"/>
     <use xlink:href="#DejaVuSans-74" transform="translate(2792.378906 0)"/>
     <use xlink:href="#DejaVuSans-69" transform="translate(2831.587891 0)"/>
     <use xlink:href="#DejaVuSans-63" transform="translate(2859.371094 0)"/>
     <use xlink:href="#DejaVuSans-61" transform="translate(2914.351562 0)"/>
     <use xlink:href="#DejaVuSans-6c" transform="translate(2975.630859 0)"/>
     <use xlink:href="#DejaVuSans-6c" transform="translate(3003.414062 0)"/>
     <use xlink:href="#DejaVuSans-79" transform="translate(3031.197266 0)"/>
     <use xlink:href="#DejaVuSans-20" transform="translate(3090.376953 0)"/>
     <use xlink:href="#DejaVuSans-75" transform="translate(3122.164062 0)"/>
     <use xlink:href="#DejaVuSans-6e" transform="translate(3185.542969 0)"/>
     <use xlink:href="#DejaVuSans-73" transform="translate(3248.921875 0)"/>
     <use xlink:href="#DejaVuSans-74" transform="translate(3301.021484 0)"/>
     <use xlink:href="#DejaVuSans-61" transform="translate(3340.230469 0)"/>
     <use xlink:href="#DejaVuSans-62" transform="translate(3401.509766 0)"/>
     <use xlink:href="#DejaVuSans-6c" transform="translate(3464.986328 0)"/>
     <use xlink:href="#DejaVuSans-65" transform="translate(3492.769531 0)"/>
    </g>
   </g>
  </g>
 </g>
 <defs>
  <clipPath id="pad839a3ae5">
   <rect x="7.2" y="7.2" width="613.8" height="332.64"/>
  </clipPath>
 </defs>
</svg>
