<?xml version="1.0" encoding="utf-8" standalone="no"?>
<!DOCTYPE svg PUBLIC "-//W3C//DTD SVG 1.1//EN"
  "http://www.w3.org/Graphics/SVG/1.1/DTD/svg11.dtd">
<svg xmlns:xlink="http://www.w3.org/1999/xlink" width="657.216pt" height="672.767719pt" viewBox="0 0 657.216 672.767719" xmlns="http://www.w3.org/2000/svg" version="1.1">
 <metadata>
  <rdf:RDF xmlns:dc="http://purl.org/dc/elements/1.1/" xmlns:cc="http://creativecommons.org/ns#" xmlns:rdf="http://www.w3.org/1999/02/22-rdf-syntax-ns#">
   <cc:Work>
    <dc:type rdf:resource="http://purl.org/dc/dcmitype/StillImage"/>
    <dc:date>2026-04-09T10:34:38.366111</dc:date>
    <dc:format>image/svg+xml</dc:format>
    <dc:creator>
     <cc:Agent>
      <dc:title>Matplotlib v3.10.8, https://matplotlib.org/</dc:title>
     </cc:Agent>
    </dc:creator>
   </cc:Work>
  </rdf:RDF>
 </metadata>
 <defs>
  <style type="text/css">*{stroke-linejoin: round; stroke-linecap: butt}</style>
 </defs>
 <g id="figure_1">
  <g id="patch_1">
   <path d="M 0 672.767719 
L 657.216 672.767719 
L 657.216 0 
L 0 0 
z
" style="fill: #ffffff"/>
  </g>
  <g id="axes_1">
   <g id="patch_2">
    <path d="M 46.436 232.044 
L 650.016 232.044 
L 650.016 76.416 
L 46.436 76.416 
z
" style="fill: #ffffff"/>
   </g>
   <g id="matplotlib.axis_1">
    <g id="xtick_1"/>
    <g id="xtick_2"/>
    <g id="xtick_3"/>
    <g id="xtick_4"/>
    <g id="xtick_5"/>
    <g id="xtick_6"/>
   </g>
   <g id="matplotlib.axis_2">
    <g id="ytick_1">
     <g id="text_1">
      <!-- -0.75 -->
      <g style="fill: #262626" transform="translate(13.649906 221.039845) scale(0.09 -0.09)">
       <defs>
        <path id="DejaVuSans-2d" d="M 313 2009 
L 1997 2009 
L 1997 1497 
L 313 1497 
L 313 2009 
z
" transform="scale(0.015625)"/>
        <path id="DejaVuSans-30" d="M 2034 4250 
Q 1547 4250 1301 3770 
Q 1056 3291 1056 2328 
Q 1056 1369 1301 889 
Q 1547 409 2034 409 
Q 2525 409 2770 889 
Q 3016 1369 3016 2328 
Q 3016 3291 2770 3770 
Q 2525 4250 2034 4250 
z
M 2034 4750 
Q 2819 4750 3233 4129 
Q 3647 3509 3647 2328 
Q 3647 1150 3233 529 
Q 2819 -91 2034 -91 
Q 1250 -91 836 529 
Q 422 1150 422 2328 
Q 422 3509 836 4129 
Q 1250 4750 2034 4750 
z
" transform="scale(0.015625)"/>
        <path id="DejaVuSans-2e" d="M 684 794 
L 1344 794 
L 1344 0 
L 684 0 
L 684 794 
z
" transform="scale(0.015625)"/>
        <path id="DejaVuSans-37" d="M 525 4666 
L 3525 4666 
L 3525 4397 
L 1831 0 
L 1172 0 
L 2766 4134 
L 525 4134 
L 525 4666 
z
" transform="scale(0.015625)"/>
        <path id="DejaVuSans-35" d="M 691 4666 
L 3169 4666 
L 3169 4134 
L 1269 4134 
L 1269 2991 
Q 1406 3038 1543 3061 
Q 1681 3084 1819 3084 
Q 2600 3084 3056 2656 
Q 3513 2228 3513 1497 
Q 3513 744 3044 326 
Q 2575 -91 1722 -91 
Q 1428 -91 1123 -41 
Q 819 9 494 109 
L 494 744 
Q 775 591 1075 516 
Q 1375 441 1709 441 
Q 2250 441 2565 725 
Q 2881 1009 2881 1497 
Q 2881 1984 2565 2268 
Q 2250 2553 1709 2553 
Q 1456 2553 1204 2497 
Q 953 2441 691 2322 
L 691 4666 
z
" transform="scale(0.015625)"/>
       </defs>
       <use xlink:href="#DejaVuSans-2d"/>
       <use xlink:href="#DejaVuSans-30" transform="translate(36.083984 0)"/>
       <use xlink:href="#DejaVuSans-2e" transform="translate(99.707031 0)"/>
       <use xlink:href="#DejaVuSans-37" transform="translate(131.494141 0)"/>
       <use xlink:href="#DejaVuSans-35" transform="translate(195.117188 0)"/>
      </g>
     </g>
    </g>
    <g id="ytick_2">
     <g id="text_2">
      <!-- -0.50 -->
      <g style="fill: #262626" transform="translate(13.649906 198.896918) scale(0.09 -0.09)">
       <use xlink:href="#DejaVuSans-2d"/>
       <use xlink:href="#DejaVuSans-30" transform="translate(36.083984 0)"/>
       <use xlink:href="#DejaVuSans-2e" transform="translate(99.707031 0)"/>
       <use xlink:href="#DejaVuSans-35" transform="translate(131.494141 0)"/>
       <use xlink:href="#DejaVuSans-30" transform="translate(195.117188 0)"/>
      </g>
     </g>
    </g>
    <g id="ytick_3">
     <g id="text_3">
      <!-- -0.25 -->
      <g style="fill: #262626" transform="translate(13.649906 176.75399) scale(0.09 -0.09)">
       <defs>
        <path id="DejaVuSans-32" d="M 1228 531 
L 3431 531 
L 3431 0 
L 469 0 
L 469 531 
Q 828 903 1448 1529 
Q 2069 2156 2228 2338 
Q 2531 2678 2651 2914 
Q 2772 3150 2772 3378 
Q 2772 3750 2511 3984 
Q 2250 4219 1831 4219 
Q 1534 4219 1204 4116 
Q 875 4013 500 3803 
L 500 4441 
Q 881 4594 1212 4672 
Q 1544 4750 1819 4750 
Q 2544 4750 2975 4387 
Q 3406 4025 3406 3419 
Q 3406 3131 3298 2873 
Q 3191 2616 2906 2266 
Q 2828 2175 2409 1742 
Q 1991 1309 1228 531 
z
" transform="scale(0.015625)"/>
       </defs>
       <use xlink:href="#DejaVuSans-2d"/>
       <use xlink:href="#DejaVuSans-30" transform="translate(36.083984 0)"/>
       <use xlink:href="#DejaVuSans-2e" transform="translate(99.707031 0)"/>
       <use xlink:href="#DejaVuSans-32" transform="translate(131.494141 0)"/>
       <use xlink:href="#DejaVuSans-35" transform="translate(195.117188 0)"/>
      </g>
     </g>
    </g>
    <g id="ytick_4">
     <g id="text_4">
      <!-- 0.00 -->
      <g style="fill: #262626" transform="translate(16.896937 154.611063) scale(0.09 -0.09)">
       <use xlink:href="#DejaVuSans-30"/>
       <use xlink:href="#DejaVuSans-2e" transform="translate(63.623047 0)"/>
       <use xlink:href="#DejaVuSans-30" transform="translate(95.410156 0)"/>
       <use xlink:href="#DejaVuSans-30" transform="translate(159.033203 0)"/>
      </g>
     </g>
    </g>
    <g id="ytick_5">
     <g id="text_5">
      <!-- 0.25 -->
      <g style="fill: #262626" transform="translate(16.896937 132.468135) scale(0.09 -0.09)">
       <use xlink:href="#DejaVuSans-30"/>
       <use xlink:href="#DejaVuSans-2e" transform="translate(63.623047 0)"/>
       <use xlink:href="#DejaVuSans-32" transform="translate(95.410156 0)"/>
       <use xlink:href="#DejaVuSans-35" transform="translate(159.033203 0)"/>
      </g>
     </g>
    </g>
    <g id="ytick_6">
     <g id="text_6">
      <!-- 0.50 -->
      <g style="fill: #262626" transform="translate(16.896937 110.325208) scale(0.09 -0.09)">
       <use xlink:href="#DejaVuSans-30"/>
       <use xlink:href="#DejaVuSans-2e" transform="translate(63.623047 0)"/>
       <use xlink:href="#DejaVuSans-35" transform="translate(95.410156 0)"/>
       <use xlink:href="#DejaVuSans-30" transform="translate(159.033203 0)"/>
      </g>
     </g>
    </g>
    <g id="ytick_7">
     <g id="text_7">
      <!-- 0.75 -->
      <g style="fill: #262626" transform="translate(16.896937 88.18228) scale(0.09 -0.09)">
       <use xlink:href="#DejaVuSans-30"/>
       <use xlink:href="#DejaVuSans-2e" transform="translate(63.623047 0)"/>
       <use xlink:href="#DejaVuSans-37" transform="translate(95.410156 0)"/>
       <use xlink:href="#DejaVuSans-35" transform="translate(159.033203 0)"/>
      </g>
     </g>
    </g>
   </g>
   <g id="line2d_1">
    <path d="M 46.436 151.191766 
L 650.016 151.191766 
" clip-path="url(#p7c269b7dd3)" style="fill: none; stroke: #d9d9d9; stroke-linecap: round"/>
   </g>
   <g id="line2d_2">
    <path d="M 292.257673 232.044 
L 292.257673 76.416 
" clip-path="url(#p7c269b7dd3)" style="fill: none; stroke-dasharray: 3.7,1.6; stroke-dashoffset: 0; stroke: #b0b0b0"/>
   </g>
   <g id="LineCollection_1">
    <path d="M 73.871455 174.399279 
L 73.871455 152.201364 
" clip-path="url(#p7c269b7dd3)" style="fill: none; stroke: #505050; stroke-width: 1.1"/>
    <path d="M 293.355091 135.773843 
L 293.355091 83.49 
" clip-path="url(#p7c269b7dd3)" style="fill: none; stroke: #505050; stroke-width: 1.1"/>
    <path d="M 403.096909 202.556726 
L 403.096909 175.685385 
" clip-path="url(#p7c269b7dd3)" style="fill: none; stroke: #505050; stroke-width: 1.1"/>
    <path d="M 512.838727 207.533351 
L 512.838727 169.751375 
" clip-path="url(#p7c269b7dd3)" style="fill: none; stroke: #505050; stroke-width: 1.1"/>
    <path d="M 622.580545 224.97 
L 622.580545 183.1473 
" clip-path="url(#p7c269b7dd3)" style="fill: none; stroke: #505050; stroke-width: 1.1"/>
   </g>
   <g id="line2d_3">
    <defs>
     <path id="m64fb90736f" d="M 3 0 
L -3 -0 
" style="stroke: #505050"/>
    </defs>
    <g clip-path="url(#p7c269b7dd3)">
     <use xlink:href="#m64fb90736f" x="73.871455" y="174.399279" style="fill: #355c7d; stroke: #505050"/>
     <use xlink:href="#m64fb90736f" x="293.355091" y="135.773843" style="fill: #355c7d; stroke: #505050"/>
     <use xlink:href="#m64fb90736f" x="403.096909" y="202.556726" style="fill: #355c7d; stroke: #505050"/>
     <use xlink:href="#m64fb90736f" x="512.838727" y="207.533351" style="fill: #355c7d; stroke: #505050"/>
     <use xlink:href="#m64fb90736f" x="622.580545" y="224.97" style="fill: #355c7d; stroke: #505050"/>
    </g>
   </g>
   <g id="line2d_4">
    <g clip-path="url(#p7c269b7dd3)">
     <use xlink:href="#m64fb90736f" x="73.871455" y="152.201364" style="fill: #355c7d; stroke: #505050"/>
     <use xlink:href="#m64fb90736f" x="293.355091" y="83.49" style="fill: #355c7d; stroke: #505050"/>
     <use xlink:href="#m64fb90736f" x="403.096909" y="175.685385" style="fill: #355c7d; stroke: #505050"/>
     <use xlink:href="#m64fb90736f" x="512.838727" y="169.751375" style="fill: #355c7d; stroke: #505050"/>
     <use xlink:href="#m64fb90736f" x="622.580545" y="183.1473" style="fill: #355c7d; stroke: #505050"/>
    </g>
   </g>
   <g id="line2d_5">
    <path d="M 73.871455 163.300321 
L 293.355091 109.631921 
L 403.096909 189.121056 
L 512.838727 188.642363 
L 622.580545 204.05865 
" clip-path="url(#p7c269b7dd3)" style="fill: none; stroke: #355c7d; stroke-width: 1.5; stroke-linecap: round"/>
    <defs>
     <path id="m2311ac22db" d="M 0 2 
C 0.530406 2 1.03916 1.789267 1.414214 1.414214 
C 1.789267 1.03916 2 0.530406 2 0 
C 2 -0.530406 1.789267 -1.03916 1.414214 -1.414214 
C 1.03916 -1.789267 0.530406 -2 0 -2 
C -0.530406 -2 -1.03916 -1.789267 -1.414214 -1.414214 
C -1.789267 -1.03916 -2 -0.530406 -2 0 
C -2 0.530406 -1.789267 1.03916 -1.414214 1.414214 
C -1.03916 1.789267 -0.530406 2 0 2 
z
" style="stroke: #355c7d"/>
    </defs>
    <g clip-path="url(#p7c269b7dd3)">
     <use xlink:href="#m2311ac22db" x="73.871455" y="163.300321" style="fill: #355c7d; stroke: #355c7d"/>
     <use xlink:href="#m2311ac22db" x="293.355091" y="109.631921" style="fill: #355c7d; stroke: #355c7d"/>
     <use xlink:href="#m2311ac22db" x="403.096909" y="189.121056" style="fill: #355c7d; stroke: #355c7d"/>
     <use xlink:href="#m2311ac22db" x="512.838727" y="188.642363" style="fill: #355c7d; stroke: #355c7d"/>
     <use xlink:href="#m2311ac22db" x="622.580545" y="204.05865" style="fill: #355c7d; stroke: #355c7d"/>
    </g>
   </g>
   <g id="patch_3">
    <path d="M 46.436 232.044 
L 46.436 76.416 
" style="fill: none; stroke: #262626; stroke-width: 1.25; stroke-linejoin: miter; stroke-linecap: square"/>
   </g>
   <g id="patch_4">
    <path d="M 46.436 232.044 
L 650.016 232.044 
" style="fill: none; stroke: #262626; stroke-width: 1.25; stroke-linejoin: miter; stroke-linecap: square"/>
   </g>
   <g id="text_8">
    <!-- Execution share -->
    <g style="fill: #262626" transform="translate(46.436 70.416) scale(0.12 -0.12)">
     <defs>
      <path id="DejaVuSans-45" d="M 628 4666 
L 3578 4666 
L 3578 4134 
L 1259 4134 
L 1259 2753 
L 3481 2753 
L 3481 2222 
L 1259 2222 
L 1259 531 
L 3634 531 
L 3634 0 
L 628 0 
L 628 4666 
z
" transform="scale(0.015625)"/>
      <path id="DejaVuSans-78" d="M 3513 3500 
L 2247 1797 
L 3578 0 
L 2900 0 
L 1881 1375 
L 863 0 
L 184 0 
L 1544 1831 
L 300 3500 
L 978 3500 
L 1906 2253 
L 2834 3500 
L 3513 3500 
z
" transform="scale(0.015625)"/>
      <path id="DejaVuSans-65" d="M 3597 1894 
L 3597 1613 
L 953 1613 
Q 991 1019 1311 708 
Q 1631 397 2203 397 
Q 2534 397 2845 478 
Q 3156 559 3463 722 
L 3463 178 
Q 3153 47 2828 -22 
Q 2503 -91 2169 -91 
Q 1331 -91 842 396 
Q 353 884 353 1716 
Q 353 2575 817 3079 
Q 1281 3584 2069 3584 
Q 2775 3584 3186 3129 
Q 3597 2675 3597 1894 
z
M 3022 2063 
Q 3016 2534 2758 2815 
Q 2500 3097 2075 3097 
Q 1594 3097 1305 2825 
Q 1016 2553 972 2059 
L 3022 2063 
z
" transform="scale(0.015625)"/>
      <path id="DejaVuSans-63" d="M 3122 3366 
L 3122 2828 
Q 2878 2963 2633 3030 
Q 2388 3097 2138 3097 
Q 1578 3097 1268 2742 
Q 959 2388 959 1747 
Q 959 1106 1268 751 
Q 1578 397 2138 397 
Q 2388 397 2633 464 
Q 2878 531 3122 666 
L 3122 134 
Q 2881 22 2623 -34 
Q 2366 -91 2075 -91 
Q 1284 -91 818 406 
Q 353 903 353 1747 
Q 353 2603 823 3093 
Q 1294 3584 2113 3584 
Q 2378 3584 2631 3529 
Q 2884 3475 3122 3366 
z
" transform="scale(0.015625)"/>
      <path id="DejaVuSans-75" d="M 544 1381 
L 544 3500 
L 1119 3500 
L 1119 1403 
Q 1119 906 1312 657 
Q 1506 409 1894 409 
Q 2359 409 2629 706 
Q 2900 1003 2900 1516 
L 2900 3500 
L 3475 3500 
L 3475 0 
L 2900 0 
L 2900 538 
Q 2691 219 2414 64 
Q 2138 -91 1772 -91 
Q 1169 -91 856 284 
Q 544 659 544 1381 
z
M 1991 3584 
L 1991 3584 
z
" transform="scale(0.015625)"/>
      <path id="DejaVuSans-74" d="M 1172 4494 
L 1172 3500 
L 2356 3500 
L 2356 3053 
L 1172 3053 
L 1172 1153 
Q 1172 725 1289 603 
Q 1406 481 1766 481 
L 2356 481 
L 2356 0 
L 1766 0 
Q 1100 0 847 248 
Q 594 497 594 1153 
L 594 3053 
L 172 3053 
L 172 3500 
L 594 3500 
L 594 4494 
L 1172 4494 
z
" transform="scale(0.015625)"/>
      <path id="DejaVuSans-69" d="M 603 3500 
L 1178 3500 
L 1178 0 
L 603 0 
L 603 3500 
z
M 603 4863 
L 1178 4863 
L 1178 4134 
L 603 4134 
L 603 4863 
z
" transform="scale(0.015625)"/>
      <path id="DejaVuSans-6f" d="M 1959 3097 
Q 1497 3097 1228 2736 
Q 959 2375 959 1747 
Q 959 1119 1226 758 
Q 1494 397 1959 397 
Q 2419 397 2687 759 
Q 2956 1122 2956 1747 
Q 2956 2369 2687 2733 
Q 2419 3097 1959 3097 
z
M 1959 3584 
Q 2709 3584 3137 3096 
Q 3566 2609 3566 1747 
Q 3566 888 3137 398 
Q 2709 -91 1959 -91 
Q 1206 -91 779 398 
Q 353 888 353 1747 
Q 353 2609 779 3096 
Q 1206 3584 1959 3584 
z
" transform="scale(0.015625)"/>
      <path id="DejaVuSans-6e" d="M 3513 2113 
L 3513 0 
L 2938 0 
L 2938 2094 
Q 2938 2591 2744 2837 
Q 2550 3084 2163 3084 
Q 1697 3084 1428 2787 
Q 1159 2491 1159 1978 
L 1159 0 
L 581 0 
L 581 3500 
L 1159 3500 
L 1159 2956 
Q 1366 3272 1645 3428 
Q 1925 3584 2291 3584 
Q 2894 3584 3203 3211 
Q 3513 2838 3513 2113 
z
" transform="scale(0.015625)"/>
      <path id="DejaVuSans-20" transform="scale(0.015625)"/>
      <path id="DejaVuSans-73" d="M 2834 3397 
L 2834 2853 
Q 2591 2978 2328 3040 
Q 2066 3103 1784 3103 
Q 1356 3103 1142 2972 
Q 928 2841 928 2578 
Q 928 2378 1081 2264 
Q 1234 2150 1697 2047 
L 1894 2003 
Q 2506 1872 2764 1633 
Q 3022 1394 3022 966 
Q 3022 478 2636 193 
Q 2250 -91 1575 -91 
Q 1294 -91 989 -36 
Q 684 19 347 128 
L 347 722 
Q 666 556 975 473 
Q 1284 391 1588 391 
Q 1994 391 2212 530 
Q 2431 669 2431 922 
Q 2431 1156 2273 1281 
Q 2116 1406 1581 1522 
L 1381 1569 
Q 847 1681 609 1914 
Q 372 2147 372 2553 
Q 372 3047 722 3315 
Q 1072 3584 1716 3584 
Q 2034 3584 2315 3537 
Q 2597 3491 2834 3397 
z
" transform="scale(0.015625)"/>
      <path id="DejaVuSans-68" d="M 3513 2113 
L 3513 0 
L 2938 0 
L 2938 2094 
Q 2938 2591 2744 2837 
Q 2550 3084 2163 3084 
Q 1697 3084 1428 2787 
Q 1159 2491 1159 1978 
L 1159 0 
L 581 0 
L 581 4863 
L 1159 4863 
L 1159 2956 
Q 1366 3272 1645 3428 
Q 1925 3584 2291 3584 
Q 2894 3584 3203 3211 
Q 3513 2838 3513 2113 
z
" transform="scale(0.015625)"/>
      <path id="DejaVuSans-61" d="M 2194 1759 
Q 1497 1759 1228 1600 
Q 959 1441 959 1056 
Q 959 750 1161 570 
Q 1363 391 1709 391 
Q 2188 391 2477 730 
Q 2766 1069 2766 1631 
L 2766 1759 
L 2194 1759 
z
M 3341 1997 
L 3341 0 
L 2766 0 
L 2766 531 
Q 2569 213 2275 61 
Q 1981 -91 1556 -91 
Q 1019 -91 701 211 
Q 384 513 384 1019 
Q 384 1609 779 1909 
Q 1175 2209 1959 2209 
L 2766 2209 
L 2766 2266 
Q 2766 2663 2505 2880 
Q 2244 3097 1772 3097 
Q 1472 3097 1187 3025 
Q 903 2953 641 2809 
L 641 3341 
Q 956 3463 1253 3523 
Q 1550 3584 1831 3584 
Q 2591 3584 2966 3190 
Q 3341 2797 3341 1997 
z
" transform="scale(0.015625)"/>
      <path id="DejaVuSans-72" d="M 2631 2963 
Q 2534 3019 2420 3045 
Q 2306 3072 2169 3072 
Q 1681 3072 1420 2755 
Q 1159 2438 1159 1844 
L 1159 0 
L 581 0 
L 581 3500 
L 1159 3500 
L 1159 2956 
Q 1341 3275 1631 3429 
Q 1922 3584 2338 3584 
Q 2397 3584 2469 3576 
Q 2541 3569 2628 3553 
L 2631 2963 
z
" transform="scale(0.015625)"/>
     </defs>
     <use xlink:href="#DejaVuSans-45"/>
     <use xlink:href="#DejaVuSans-78" transform="translate(63.183594 0)"/>
     <use xlink:href="#DejaVuSans-65" transform="translate(119.238281 0)"/>
     <use xlink:href="#DejaVuSans-63" transform="translate(180.761719 0)"/>
     <use xlink:href="#DejaVuSans-75" transform="translate(235.742188 0)"/>
     <use xlink:href="#DejaVuSans-74" transform="translate(299.121094 0)"/>
     <use xlink:href="#DejaVuSans-69" transform="translate(338.330078 0)"/>
     <use xlink:href="#DejaVuSans-6f" transform="translate(366.113281 0)"/>
     <use xlink:href="#DejaVuSans-6e" transform="translate(427.294922 0)"/>
     <use xlink:href="#DejaVuSans-20" transform="translate(490.673828 0)"/>
     <use xlink:href="#DejaVuSans-73" transform="translate(522.460938 0)"/>
     <use xlink:href="#DejaVuSans-68" transform="translate(574.560547 0)"/>
     <use xlink:href="#DejaVuSans-61" transform="translate(637.939453 0)"/>
     <use xlink:href="#DejaVuSans-72" transform="translate(699.21875 0)"/>
     <use xlink:href="#DejaVuSans-65" transform="translate(738.082031 0)"/>
    </g>
   </g>
  </g>
  <g id="axes_2">
   <g id="patch_5">
    <path d="M 46.436 416.712 
L 650.016 416.712 
L 650.016 261.084 
L 46.436 261.084 
z
" style="fill: #ffffff"/>
   </g>
   <g id="matplotlib.axis_3">
    <g id="xtick_7"/>
    <g id="xtick_8"/>
    <g id="xtick_9"/>
    <g id="xtick_10"/>
    <g id="xtick_11"/>
    <g id="xtick_12"/>
   </g>
   <g id="matplotlib.axis_4">
    <g id="ytick_8">
     <g id="text_9">
      <!-- -0.50 -->
      <g style="fill: #262626" transform="translate(13.649906 403.360082) scale(0.09 -0.09)">
       <use xlink:href="#DejaVuSans-2d"/>
       <use xlink:href="#DejaVuSans-30" transform="translate(36.083984 0)"/>
       <use xlink:href="#DejaVuSans-2e" transform="translate(99.707031 0)"/>
       <use xlink:href="#DejaVuSans-35" transform="translate(131.494141 0)"/>
       <use xlink:href="#DejaVuSans-30" transform="translate(195.117188 0)"/>
      </g>
     </g>
    </g>
    <g id="ytick_9">
     <g id="text_10">
      <!-- -0.25 -->
      <g style="fill: #262626" transform="translate(13.649906 379.926463) scale(0.09 -0.09)">
       <use xlink:href="#DejaVuSans-2d"/>
       <use xlink:href="#DejaVuSans-30" transform="translate(36.083984 0)"/>
       <use xlink:href="#DejaVuSans-2e" transform="translate(99.707031 0)"/>
       <use xlink:href="#DejaVuSans-32" transform="translate(131.494141 0)"/>
       <use xlink:href="#DejaVuSans-35" transform="translate(195.117188 0)"/>
      </g>
     </g>
    </g>
    <g id="ytick_10">
     <g id="text_11">
      <!-- 0.00 -->
      <g style="fill: #262626" transform="translate(16.896937 356.492844) scale(0.09 -0.09)">
       <use xlink:href="#DejaVuSans-30"/>
       <use xlink:href="#DejaVuSans-2e" transform="translate(63.623047 0)"/>
       <use xlink:href="#DejaVuSans-30" transform="translate(95.410156 0)"/>
       <use xlink:href="#DejaVuSans-30" transform="translate(159.033203 0)"/>
      </g>
     </g>
    </g>
    <g id="ytick_11">
     <g id="text_12">
      <!-- 0.25 -->
      <g style="fill: #262626" transform="translate(16.896937 333.059224) scale(0.09 -0.09)">
       <use xlink:href="#DejaVuSans-30"/>
       <use xlink:href="#DejaVuSans-2e" transform="translate(63.623047 0)"/>
       <use xlink:href="#DejaVuSans-32" transform="translate(95.410156 0)"/>
       <use xlink:href="#DejaVuSans-35" transform="translate(159.033203 0)"/>
      </g>
     </g>
    </g>
    <g id="ytick_12">
     <g id="text_13">
      <!-- 0.50 -->
      <g style="fill: #262626" transform="translate(16.896937 309.625605) scale(0.09 -0.09)">
       <use xlink:href="#DejaVuSans-30"/>
       <use xlink:href="#DejaVuSans-2e" transform="translate(63.623047 0)"/>
       <use xlink:href="#DejaVuSans-35" transform="translate(95.410156 0)"/>
       <use xlink:href="#DejaVuSans-30" transform="translate(159.033203 0)"/>
      </g>
     </g>
    </g>
    <g id="ytick_13">
     <g id="text_14">
      <!-- 0.75 -->
      <g style="fill: #262626" transform="translate(16.896937 286.191986) scale(0.09 -0.09)">
       <use xlink:href="#DejaVuSans-30"/>
       <use xlink:href="#DejaVuSans-2e" transform="translate(63.623047 0)"/>
       <use xlink:href="#DejaVuSans-37" transform="translate(95.410156 0)"/>
       <use xlink:href="#DejaVuSans-35" transform="translate(159.033203 0)"/>
      </g>
     </g>
    </g>
   </g>
   <g id="line2d_6">
    <path d="M 46.436 353.073547 
L 650.016 353.073547 
" clip-path="url(#p715f18087e)" style="fill: none; stroke: #d9d9d9; stroke-linecap: round"/>
   </g>
   <g id="line2d_7">
    <path d="M 292.257673 416.712 
L 292.257673 261.084 
" clip-path="url(#p715f18087e)" style="fill: none; stroke-dasharray: 3.7,1.6; stroke-dashoffset: 0; stroke: #b0b0b0"/>
   </g>
   <g id="LineCollection_2">
    <path d="M 73.871455 342.979626 
L 73.871455 320.280534 
" clip-path="url(#p715f18087e)" style="fill: none; stroke: #505050; stroke-width: 1.1"/>
    <path d="M 293.355091 409.638 
L 293.355091 356.136119 
" clip-path="url(#p715f18087e)" style="fill: none; stroke: #505050; stroke-width: 1.1"/>
    <path d="M 403.096909 322.39133 
L 403.096909 294.847121 
" clip-path="url(#p715f18087e)" style="fill: none; stroke: #505050; stroke-width: 1.1"/>
    <path d="M 512.838727 339.236099 
L 512.838727 300.613293 
" clip-path="url(#p715f18087e)" style="fill: none; stroke: #505050; stroke-width: 1.1"/>
    <path d="M 622.580545 311.582631 
L 622.580545 268.158 
" clip-path="url(#p715f18087e)" style="fill: none; stroke: #505050; stroke-width: 1.1"/>
   </g>
   <g id="line2d_8">
    <defs>
     <path id="m444b1a78bd" d="M 3 0 
L -3 -0 
" style="stroke: #505050"/>
    </defs>
    <g clip-path="url(#p715f18087e)">
     <use xlink:href="#m444b1a78bd" x="73.871455" y="342.979626" style="fill: #7b3f46; stroke: #505050"/>
     <use xlink:href="#m444b1a78bd" x="293.355091" y="409.638" style="fill: #7b3f46; stroke: #505050"/>
     <use xlink:href="#m444b1a78bd" x="403.096909" y="322.39133" style="fill: #7b3f46; stroke: #505050"/>
     <use xlink:href="#m444b1a78bd" x="512.838727" y="339.236099" style="fill: #7b3f46; stroke: #505050"/>
     <use xlink:href="#m444b1a78bd" x="622.580545" y="311.582631" style="fill: #7b3f46; stroke: #505050"/>
    </g>
   </g>
   <g id="line2d_9">
    <g clip-path="url(#p715f18087e)">
     <use xlink:href="#m444b1a78bd" x="73.871455" y="320.280534" style="fill: #7b3f46; stroke: #505050"/>
     <use xlink:href="#m444b1a78bd" x="293.355091" y="356.136119" style="fill: #7b3f46; stroke: #505050"/>
     <use xlink:href="#m444b1a78bd" x="403.096909" y="294.847121" style="fill: #7b3f46; stroke: #505050"/>
     <use xlink:href="#m444b1a78bd" x="512.838727" y="300.613293" style="fill: #7b3f46; stroke: #505050"/>
     <use xlink:href="#m444b1a78bd" x="622.580545" y="268.158" style="fill: #7b3f46; stroke: #505050"/>
    </g>
   </g>
   <g id="line2d_10">
    <path d="M 73.871455 331.63008 
L 293.355091 382.88706 
L 403.096909 308.619225 
L 512.838727 319.924696 
L 622.580545 289.870315 
" clip-path="url(#p715f18087e)" style="fill: none; stroke: #7b3f46; stroke-width: 1.5; stroke-linecap: round"/>
    <defs>
     <path id="m68c2008dee" d="M 0 2 
C 0.530406 2 1.03916 1.789267 1.414214 1.414214 
C 1.789267 1.03916 2 0.530406 2 0 
C 2 -0.530406 1.789267 -1.03916 1.414214 -1.414214 
C 1.03916 -1.789267 0.530406 -2 0 -2 
C -0.530406 -2 -1.03916 -1.789267 -1.414214 -1.414214 
C -1.789267 -1.03916 -2 -0.530406 -2 0 
C -2 0.530406 -1.789267 1.03916 -1.414214 1.414214 
C -1.03916 1.789267 -0.530406 2 0 2 
z
" style="stroke: #7b3f46"/>
    </defs>
    <g clip-path="url(#p715f18087e)">
     <use xlink:href="#m68c2008dee" x="73.871455" y="331.63008" style="fill: #7b3f46; stroke: #7b3f46"/>
     <use xlink:href="#m68c2008dee" x="293.355091" y="382.88706" style="fill: #7b3f46; stroke: #7b3f46"/>
     <use xlink:href="#m68c2008dee" x="403.096909" y="308.619225" style="fill: #7b3f46; stroke: #7b3f46"/>
     <use xlink:href="#m68c2008dee" x="512.838727" y="319.924696" style="fill: #7b3f46; stroke: #7b3f46"/>
     <use xlink:href="#m68c2008dee" x="622.580545" y="289.870315" style="fill: #7b3f46; stroke: #7b3f46"/>
    </g>
   </g>
   <g id="patch_6">
    <path d="M 46.436 416.712 
L 46.436 261.084 
" style="fill: none; stroke: #262626; stroke-width: 1.25; stroke-linejoin: miter; stroke-linecap: square"/>
   </g>
   <g id="patch_7">
    <path d="M 46.436 416.712 
L 650.016 416.712 
" style="fill: none; stroke: #262626; stroke-width: 1.25; stroke-linejoin: miter; stroke-linecap: square"/>
   </g>
   <g id="text_15">
    <!-- Procurement share -->
    <g style="fill: #262626" transform="translate(46.436 255.084) scale(0.12 -0.12)">
     <defs>
      <path id="DejaVuSans-50" d="M 1259 4147 
L 1259 2394 
L 2053 2394 
Q 2494 2394 2734 2622 
Q 2975 2850 2975 3272 
Q 2975 3691 2734 3919 
Q 2494 4147 2053 4147 
L 1259 4147 
z
M 628 4666 
L 2053 4666 
Q 2838 4666 3239 4311 
Q 3641 3956 3641 3272 
Q 3641 2581 3239 2228 
Q 2838 1875 2053 1875 
L 1259 1875 
L 1259 0 
L 628 0 
L 628 4666 
z
" transform="scale(0.015625)"/>
      <path id="DejaVuSans-6d" d="M 3328 2828 
Q 3544 3216 3844 3400 
Q 4144 3584 4550 3584 
Q 5097 3584 5394 3201 
Q 5691 2819 5691 2113 
L 5691 0 
L 5113 0 
L 5113 2094 
Q 5113 2597 4934 2840 
Q 4756 3084 4391 3084 
Q 3944 3084 3684 2787 
Q 3425 2491 3425 1978 
L 3425 0 
L 2847 0 
L 2847 2094 
Q 2847 2600 2669 2842 
Q 2491 3084 2119 3084 
Q 1678 3084 1418 2786 
Q 1159 2488 1159 1978 
L 1159 0 
L 581 0 
L 581 3500 
L 1159 3500 
L 1159 2956 
Q 1356 3278 1631 3431 
Q 1906 3584 2284 3584 
Q 2666 3584 2933 3390 
Q 3200 3197 3328 2828 
z
" transform="scale(0.015625)"/>
     </defs>
     <use xlink:href="#DejaVuSans-50"/>
     <use xlink:href="#DejaVuSans-72" transform="translate(58.552734 0)"/>
     <use xlink:href="#DejaVuSans-6f" transform="translate(97.416016 0)"/>
     <use xlink:href="#DejaVuSans-63" transform="translate(158.597656 0)"/>
     <use xlink:href="#DejaVuSans-75" transform="translate(213.578125 0)"/>
     <use xlink:href="#DejaVuSans-72" transform="translate(276.957031 0)"/>
     <use xlink:href="#DejaVuSans-65" transform="translate(315.820312 0)"/>
     <use xlink:href="#DejaVuSans-6d" transform="translate(377.34375 0)"/>
     <use xlink:href="#DejaVuSans-65" transform="translate(474.755859 0)"/>
     <use xlink:href="#DejaVuSans-6e" transform="translate(536.279297 0)"/>
     <use xlink:href="#DejaVuSans-74" transform="translate(599.658203 0)"/>
     <use xlink:href="#DejaVuSans-20" transform="translate(638.867188 0)"/>
     <use xlink:href="#DejaVuSans-73" transform="translate(670.654297 0)"/>
     <use xlink:href="#DejaVuSans-68" transform="translate(722.753906 0)"/>
     <use xlink:href="#DejaVuSans-61" transform="translate(786.132812 0)"/>
     <use xlink:href="#DejaVuSans-72" transform="translate(847.412109 0)"/>
     <use xlink:href="#DejaVuSans-65" transform="translate(886.275391 0)"/>
    </g>
   </g>
  </g>
  <g id="axes_3">
   <g id="patch_8">
    <path d="M 46.436 601.38 
L 650.016 601.38 
L 650.016 445.752 
L 46.436 445.752 
z
" style="fill: #ffffff"/>
   </g>
   <g id="matplotlib.axis_5">
    <g id="xtick_13">
     <g id="text_16">
      <!-- -2 -->
      <g style="fill: #262626" transform="translate(69.384814 617.718594) scale(0.09 -0.09)">
       <use xlink:href="#DejaVuSans-2d"/>
       <use xlink:href="#DejaVuSans-32" transform="translate(36.083984 0)"/>
      </g>
     </g>
    </g>
    <g id="xtick_14">
     <g id="text_17">
      <!-- -1 -->
      <g style="fill: #262626" transform="translate(179.126632 617.718594) scale(0.09 -0.09)">
       <defs>
        <path id="DejaVuSans-31" d="M 794 531 
L 1825 531 
L 1825 4091 
L 703 3866 
L 703 4441 
L 1819 4666 
L 2450 4666 
L 2450 531 
L 3481 531 
L 3481 0 
L 794 0 
L 794 531 
z
" transform="scale(0.015625)"/>
       </defs>
       <use xlink:href="#DejaVuSans-2d"/>
       <use xlink:href="#DejaVuSans-31" transform="translate(36.083984 0)"/>
      </g>
     </g>
    </g>
    <g id="xtick_15">
     <g id="text_18">
      <!-- 0 -->
      <g style="fill: #262626" transform="translate(290.491966 617.718594) scale(0.09 -0.09)">
       <use xlink:href="#DejaVuSans-30"/>
      </g>
     </g>
    </g>
    <g id="xtick_16">
     <g id="text_19">
      <!-- 1 -->
      <g style="fill: #262626" transform="translate(400.233784 617.718594) scale(0.09 -0.09)">
       <use xlink:href="#DejaVuSans-31"/>
      </g>
     </g>
    </g>
    <g id="xtick_17">
     <g id="text_20">
      <!-- 2 -->
      <g style="fill: #262626" transform="translate(509.975602 617.718594) scale(0.09 -0.09)">
       <use xlink:href="#DejaVuSans-32"/>
      </g>
     </g>
    </g>
    <g id="xtick_18">
     <g id="text_21">
      <!-- 3 -->
      <g style="fill: #262626" transform="translate(619.71742 617.718594) scale(0.09 -0.09)">
       <defs>
        <path id="DejaVuSans-33" d="M 2597 2516 
Q 3050 2419 3304 2112 
Q 3559 1806 3559 1356 
Q 3559 666 3084 287 
Q 2609 -91 1734 -91 
Q 1441 -91 1130 -33 
Q 819 25 488 141 
L 488 750 
Q 750 597 1062 519 
Q 1375 441 1716 441 
Q 2309 441 2620 675 
Q 2931 909 2931 1356 
Q 2931 1769 2642 2001 
Q 2353 2234 1838 2234 
L 1294 2234 
L 1294 2753 
L 1863 2753 
Q 2328 2753 2575 2939 
Q 2822 3125 2822 3475 
Q 2822 3834 2567 4026 
Q 2313 4219 1838 4219 
Q 1578 4219 1281 4162 
Q 984 4106 628 3988 
L 628 4550 
Q 988 4650 1302 4700 
Q 1616 4750 1894 4750 
Q 2613 4750 3031 4423 
Q 3450 4097 3450 3541 
Q 3450 3153 3228 2886 
Q 3006 2619 2597 2516 
z
" transform="scale(0.015625)"/>
       </defs>
       <use xlink:href="#DejaVuSans-33"/>
      </g>
     </g>
    </g>
    <g id="text_22">
     <!-- Event time -->
     <g style="fill: #262626" transform="translate(315.57475 632.708437) scale(0.12 -0.12)">
      <defs>
       <path id="DejaVuSans-76" d="M 191 3500 
L 800 3500 
L 1894 563 
L 2988 3500 
L 3597 3500 
L 2284 0 
L 1503 0 
L 191 3500 
z
" transform="scale(0.015625)"/>
      </defs>
      <use xlink:href="#DejaVuSans-45"/>
      <use xlink:href="#DejaVuSans-76" transform="translate(63.183594 0)"/>
      <use xlink:href="#DejaVuSans-65" transform="translate(122.363281 0)"/>
      <use xlink:href="#DejaVuSans-6e" transform="translate(183.886719 0)"/>
      <use xlink:href="#DejaVuSans-74" transform="translate(247.265625 0)"/>
      <use xlink:href="#DejaVuSans-20" transform="translate(286.474609 0)"/>
      <use xlink:href="#DejaVuSans-74" transform="translate(318.261719 0)"/>
      <use xlink:href="#DejaVuSans-69" transform="translate(357.470703 0)"/>
      <use xlink:href="#DejaVuSans-6d" transform="translate(385.253906 0)"/>
      <use xlink:href="#DejaVuSans-65" transform="translate(482.666016 0)"/>
     </g>
    </g>
   </g>
   <g id="matplotlib.axis_6">
    <g id="ytick_14">
     <g id="text_23">
      <!-- -4 -->
      <g style="fill: #262626" transform="translate(27.962719 603.182592) scale(0.09 -0.09)">
       <defs>
        <path id="DejaVuSans-34" d="M 2419 4116 
L 825 1625 
L 2419 1625 
L 2419 4116 
z
M 2253 4666 
L 3047 4666 
L 3047 1625 
L 3713 1625 
L 3713 1100 
L 3047 1100 
L 3047 0 
L 2419 0 
L 2419 1100 
L 313 1100 
L 313 1709 
L 2253 4666 
z
" transform="scale(0.015625)"/>
       </defs>
       <use xlink:href="#DejaVuSans-2d"/>
       <use xlink:href="#DejaVuSans-34" transform="translate(36.083984 0)"/>
      </g>
     </g>
    </g>
    <g id="ytick_15">
     <g id="text_24">
      <!-- -3 -->
      <g style="fill: #262626" transform="translate(27.962719 580.667634) scale(0.09 -0.09)">
       <use xlink:href="#DejaVuSans-2d"/>
       <use xlink:href="#DejaVuSans-33" transform="translate(36.083984 0)"/>
      </g>
     </g>
    </g>
    <g id="ytick_16">
     <g id="text_25">
      <!-- -2 -->
      <g style="fill: #262626" transform="translate(27.962719 558.152676) scale(0.09 -0.09)">
       <use xlink:href="#DejaVuSans-2d"/>
       <use xlink:href="#DejaVuSans-32" transform="translate(36.083984 0)"/>
      </g>
     </g>
    </g>
    <g id="ytick_17">
     <g id="text_26">
      <!-- -1 -->
      <g style="fill: #262626" transform="translate(27.962719 535.637719) scale(0.09 -0.09)">
       <use xlink:href="#DejaVuSans-2d"/>
       <use xlink:href="#DejaVuSans-31" transform="translate(36.083984 0)"/>
      </g>
     </g>
    </g>
    <g id="ytick_18">
     <g id="text_27">
      <!-- 0 -->
      <g style="fill: #262626" transform="translate(31.20975 513.122761) scale(0.09 -0.09)">
       <use xlink:href="#DejaVuSans-30"/>
      </g>
     </g>
    </g>
    <g id="ytick_19">
     <g id="text_28">
      <!-- 1 -->
      <g style="fill: #262626" transform="translate(31.20975 490.607803) scale(0.09 -0.09)">
       <use xlink:href="#DejaVuSans-31"/>
      </g>
     </g>
    </g>
    <g id="ytick_20">
     <g id="text_29">
      <!-- 2 -->
      <g style="fill: #262626" transform="translate(31.20975 468.092846) scale(0.09 -0.09)">
       <use xlink:href="#DejaVuSans-32"/>
      </g>
     </g>
    </g>
   </g>
   <g id="line2d_11">
    <path d="M 46.436 509.703464 
L 650.016 509.703464 
" clip-path="url(#p8463162fce)" style="fill: none; stroke: #d9d9d9; stroke-linecap: round"/>
   </g>
   <g id="line2d_12">
    <path d="M 292.257673 601.38 
L 292.257673 445.752 
" clip-path="url(#p8463162fce)" style="fill: none; stroke-dasharray: 3.7,1.6; stroke-dashoffset: 0; stroke: #b0b0b0"/>
   </g>
   <g id="LineCollection_3">
    <path d="M 73.871455 539.942072 
L 73.871455 517.270812 
" clip-path="url(#p8463162fce)" style="fill: none; stroke: #505050; stroke-width: 1.1"/>
    <path d="M 293.355091 505.920189 
L 293.355091 452.826 
" clip-path="url(#p8463162fce)" style="fill: none; stroke: #505050; stroke-width: 1.1"/>
    <path d="M 403.096909 566.870954 
L 403.096909 539.198069 
" clip-path="url(#p8463162fce)" style="fill: none; stroke: #505050; stroke-width: 1.1"/>
    <path d="M 512.838727 560.888298 
L 512.838727 523.358642 
" clip-path="url(#p8463162fce)" style="fill: none; stroke: #505050; stroke-width: 1.1"/>
    <path d="M 622.580545 594.306 
L 622.580545 550.130986 
" clip-path="url(#p8463162fce)" style="fill: none; stroke: #505050; stroke-width: 1.1"/>
   </g>
   <g id="line2d_13">
    <g clip-path="url(#p8463162fce)">
     <use xlink:href="#m64fb90736f" x="73.871455" y="539.942072" style="fill: #355c7d; stroke: #505050"/>
     <use xlink:href="#m64fb90736f" x="293.355091" y="505.920189" style="fill: #355c7d; stroke: #505050"/>
     <use xlink:href="#m64fb90736f" x="403.096909" y="566.870954" style="fill: #355c7d; stroke: #505050"/>
     <use xlink:href="#m64fb90736f" x="512.838727" y="560.888298" style="fill: #355c7d; stroke: #505050"/>
     <use xlink:href="#m64fb90736f" x="622.580545" y="594.306" style="fill: #355c7d; stroke: #505050"/>
    </g>
   </g>
   <g id="line2d_14">
    <g clip-path="url(#p8463162fce)">
     <use xlink:href="#m64fb90736f" x="73.871455" y="517.270812" style="fill: #355c7d; stroke: #505050"/>
     <use xlink:href="#m64fb90736f" x="293.355091" y="452.826" style="fill: #355c7d; stroke: #505050"/>
     <use xlink:href="#m64fb90736f" x="403.096909" y="539.198069" style="fill: #355c7d; stroke: #505050"/>
     <use xlink:href="#m64fb90736f" x="512.838727" y="523.358642" style="fill: #355c7d; stroke: #505050"/>
     <use xlink:href="#m64fb90736f" x="622.580545" y="550.130986" style="fill: #355c7d; stroke: #505050"/>
    </g>
   </g>
   <g id="line2d_15">
    <path d="M 73.871455 528.606442 
L 293.355091 479.373094 
L 403.096909 553.034512 
L 512.838727 542.12347 
L 622.580545 572.218493 
" clip-path="url(#p8463162fce)" style="fill: none; stroke: #355c7d; stroke-width: 1.5; stroke-linecap: round"/>
    <g clip-path="url(#p8463162fce)">
     <use xlink:href="#m2311ac22db" x="73.871455" y="528.606442" style="fill: #355c7d; stroke: #355c7d"/>
     <use xlink:href="#m2311ac22db" x="293.355091" y="479.373094" style="fill: #355c7d; stroke: #355c7d"/>
     <use xlink:href="#m2311ac22db" x="403.096909" y="553.034512" style="fill: #355c7d; stroke: #355c7d"/>
     <use xlink:href="#m2311ac22db" x="512.838727" y="542.12347" style="fill: #355c7d; stroke: #355c7d"/>
     <use xlink:href="#m2311ac22db" x="622.580545" y="572.218493" style="fill: #355c7d; stroke: #355c7d"/>
    </g>
   </g>
   <g id="patch_9">
    <path d="M 46.436 601.38 
L 46.436 445.752 
" style="fill: none; stroke: #262626; stroke-width: 1.25; stroke-linejoin: miter; stroke-linecap: square"/>
   </g>
   <g id="patch_10">
    <path d="M 46.436 601.38 
L 650.016 601.38 
" style="fill: none; stroke: #262626; stroke-width: 1.25; stroke-linejoin: miter; stroke-linecap: square"/>
   </g>
   <g id="text_30">
    <!-- Governance quality (PCA rebuilt) -->
    <g style="fill: #262626" transform="translate(46.436 439.752) scale(0.12 -0.12)">
     <defs>
      <path id="DejaVuSans-47" d="M 3809 666 
L 3809 1919 
L 2778 1919 
L 2778 2438 
L 4434 2438 
L 4434 434 
Q 4069 175 3628 42 
Q 3188 -91 2688 -91 
Q 1594 -91 976 548 
Q 359 1188 359 2328 
Q 359 3472 976 4111 
Q 1594 4750 2688 4750 
Q 3144 4750 3555 4637 
Q 3966 4525 4313 4306 
L 4313 3634 
Q 3963 3931 3569 4081 
Q 3175 4231 2741 4231 
Q 1884 4231 1454 3753 
Q 1025 3275 1025 2328 
Q 1025 1384 1454 906 
Q 1884 428 2741 428 
Q 3075 428 3337 486 
Q 3600 544 3809 666 
z
" transform="scale(0.015625)"/>
      <path id="DejaVuSans-71" d="M 947 1747 
Q 947 1113 1208 752 
Q 1469 391 1925 391 
Q 2381 391 2643 752 
Q 2906 1113 2906 1747 
Q 2906 2381 2643 2742 
Q 2381 3103 1925 3103 
Q 1469 3103 1208 2742 
Q 947 2381 947 1747 
z
M 2906 525 
Q 2725 213 2448 61 
Q 2172 -91 1784 -91 
Q 1150 -91 751 415 
Q 353 922 353 1747 
Q 353 2572 751 3078 
Q 1150 3584 1784 3584 
Q 2172 3584 2448 3432 
Q 2725 3281 2906 2969 
L 2906 3500 
L 3481 3500 
L 3481 -1331 
L 2906 -1331 
L 2906 525 
z
" transform="scale(0.015625)"/>
      <path id="DejaVuSans-6c" d="M 603 4863 
L 1178 4863 
L 1178 0 
L 603 0 
L 603 4863 
z
" transform="scale(0.015625)"/>
      <path id="DejaVuSans-79" d="M 2059 -325 
Q 1816 -950 1584 -1140 
Q 1353 -1331 966 -1331 
L 506 -1331 
L 506 -850 
L 844 -850 
Q 1081 -850 1212 -737 
Q 1344 -625 1503 -206 
L 1606 56 
L 191 3500 
L 800 3500 
L 1894 763 
L 2988 3500 
L 3597 3500 
L 2059 -325 
z
" transform="scale(0.015625)"/>
      <path id="DejaVuSans-28" d="M 1984 4856 
Q 1566 4138 1362 3434 
Q 1159 2731 1159 2009 
Q 1159 1288 1364 580 
Q 1569 -128 1984 -844 
L 1484 -844 
Q 1016 -109 783 600 
Q 550 1309 550 2009 
Q 550 2706 781 3412 
Q 1013 4119 1484 4856 
L 1984 4856 
z
" transform="scale(0.015625)"/>
      <path id="DejaVuSans-43" d="M 4122 4306 
L 4122 3641 
Q 3803 3938 3442 4084 
Q 3081 4231 2675 4231 
Q 1875 4231 1450 3742 
Q 1025 3253 1025 2328 
Q 1025 1406 1450 917 
Q 1875 428 2675 428 
Q 3081 428 3442 575 
Q 3803 722 4122 1019 
L 4122 359 
Q 3791 134 3420 21 
Q 3050 -91 2638 -91 
Q 1578 -91 968 557 
Q 359 1206 359 2328 
Q 359 3453 968 4101 
Q 1578 4750 2638 4750 
Q 3056 4750 3426 4639 
Q 3797 4528 4122 4306 
z
" transform="scale(0.015625)"/>
      <path id="DejaVuSans-41" d="M 2188 4044 
L 1331 1722 
L 3047 1722 
L 2188 4044 
z
M 1831 4666 
L 2547 4666 
L 4325 0 
L 3669 0 
L 3244 1197 
L 1141 1197 
L 716 0 
L 50 0 
L 1831 4666 
z
" transform="scale(0.015625)"/>
      <path id="DejaVuSans-62" d="M 3116 1747 
Q 3116 2381 2855 2742 
Q 2594 3103 2138 3103 
Q 1681 3103 1420 2742 
Q 1159 2381 1159 1747 
Q 1159 1113 1420 752 
Q 1681 391 2138 391 
Q 2594 391 2855 752 
Q 3116 1113 3116 1747 
z
M 1159 2969 
Q 1341 3281 1617 3432 
Q 1894 3584 2278 3584 
Q 2916 3584 3314 3078 
Q 3713 2572 3713 1747 
Q 3713 922 3314 415 
Q 2916 -91 2278 -91 
Q 1894 -91 1617 61 
Q 1341 213 1159 525 
L 1159 0 
L 581 0 
L 581 4863 
L 1159 4863 
L 1159 2969 
z
" transform="scale(0.015625)"/>
      <path id="DejaVuSans-29" d="M 513 4856 
L 1013 4856 
Q 1481 4119 1714 3412 
Q 1947 2706 1947 2009 
Q 1947 1309 1714 600 
Q 1481 -109 1013 -844 
L 513 -844 
Q 928 -128 1133 580 
Q 1338 1288 1338 2009 
Q 1338 2731 1133 3434 
Q 928 4138 513 4856 
z
" transform="scale(0.015625)"/>
     </defs>
     <use xlink:href="#DejaVuSans-47"/>
     <use xlink:href="#DejaVuSans-6f" transform="translate(77.490234 0)"/>
     <use xlink:href="#DejaVuSans-76" transform="translate(138.671875 0)"/>
     <use xlink:href="#DejaVuSans-65" transform="translate(197.851562 0)"/>
     <use xlink:href="#DejaVuSans-72" transform="translate(259.375 0)"/>
     <use xlink:href="#DejaVuSans-6e" transform="translate(298.738281 0)"/>
     <use xlink:href="#DejaVuSans-61" transform="translate(362.117188 0)"/>
     <use xlink:href="#DejaVuSans-6e" transform="translate(423.396484 0)"/>
     <use xlink:href="#DejaVuSans-63" transform="translate(486.775391 0)"/>
     <use xlink:href="#DejaVuSans-65" transform="translate(541.755859 0)"/>
     <use xlink:href="#DejaVuSans-20" transform="translate(603.279297 0)"/>
     <use xlink:href="#DejaVuSans-71" transform="translate(635.066406 0)"/>
     <use xlink:href="#DejaVuSans-75" transform="translate(698.542969 0)"/>
     <use xlink:href="#DejaVuSans-61" transform="translate(761.921875 0)"/>
     <use xlink:href="#DejaVuSans-6c" transform="translate(823.201172 0)"/>
     <use xlink:href="#DejaVuSans-69" transform="translate(850.984375 0)"/>
     <use xlink:href="#DejaVuSans-74" transform="translate(878.767578 0)"/>
     <use xlink:href="#DejaVuSans-79" transform="translate(917.976562 0)"/>
     <use xlink:href="#DejaVuSans-20" transform="translate(977.15625 0)"/>
     <use xlink:href="#DejaVuSans-28" transform="translate(1008.943359 0)"/>
     <use xlink:href="#DejaVuSans-50" transform="translate(1047.957031 0)"/>
     <use xlink:href="#DejaVuSans-43" transform="translate(1108.259766 0)"/>
     <use xlink:href="#DejaVuSans-41" transform="translate(1178.083984 0)"/>
     <use xlink:href="#DejaVuSans-20" transform="translate(1246.492188 0)"/>
     <use xlink:href="#DejaVuSans-72" transform="translate(1278.279297 0)"/>
     <use xlink:href="#DejaVuSans-65" transform="translate(1317.142578 0)"/>
     <use xlink:href="#DejaVuSans-62" transform="translate(1378.666016 0)"/>
     <use xlink:href="#DejaVuSans-75" transform="translate(1442.142578 0)"/>
     <use xlink:href="#DejaVuSans-69" transform="translate(1505.521484 0)"/>
     <use xlink:href="#DejaVuSans-6c" transform="translate(1533.304688 0)"/>
     <use xlink:href="#DejaVuSans-74" transform="translate(1561.087891 0)"/>
     <use xlink:href="#DejaVuSans-29" transform="translate(1600.296875 0)"/>
    </g>
   </g>
  </g>
  <g id="text_31">
   <!-- Figure 5-5. Dynamic treatment effects (event study) -->
   <g style="fill: #262626" transform="translate(7.2 17.837812) scale(0.14 -0.14)">
    <defs>
     <path id="DejaVuSans-Bold-46" d="M 588 4666 
L 3834 4666 
L 3834 3756 
L 1791 3756 
L 1791 2888 
L 3713 2888 
L 3713 1978 
L 1791 1978 
L 1791 0 
L 588 0 
L 588 4666 
z
" transform="scale(0.015625)"/>
     <path id="DejaVuSans-Bold-69" d="M 538 3500 
L 1656 3500 
L 1656 0 
L 538 0 
L 538 3500 
z
M 538 4863 
L 1656 4863 
L 1656 3950 
L 538 3950 
L 538 4863 
z
" transform="scale(0.015625)"/>
     <path id="DejaVuSans-Bold-67" d="M 2919 594 
Q 2688 288 2409 144 
Q 2131 0 1766 0 
Q 1125 0 706 504 
Q 288 1009 288 1791 
Q 288 2575 706 3076 
Q 1125 3578 1766 3578 
Q 2131 3578 2409 3434 
Q 2688 3291 2919 2981 
L 2919 3500 
L 4044 3500 
L 4044 353 
Q 4044 -491 3511 -936 
Q 2978 -1381 1966 -1381 
Q 1638 -1381 1331 -1331 
Q 1025 -1281 716 -1178 
L 716 -306 
Q 1009 -475 1290 -558 
Q 1572 -641 1856 -641 
Q 2406 -641 2662 -400 
Q 2919 -159 2919 353 
L 2919 594 
z
M 2181 2772 
Q 1834 2772 1640 2515 
Q 1447 2259 1447 1791 
Q 1447 1309 1634 1061 
Q 1822 813 2181 813 
Q 2531 813 2725 1069 
Q 2919 1325 2919 1791 
Q 2919 2259 2725 2515 
Q 2531 2772 2181 2772 
z
" transform="scale(0.015625)"/>
     <path id="DejaVuSans-Bold-75" d="M 500 1363 
L 500 3500 
L 1625 3500 
L 1625 3150 
Q 1625 2866 1622 2436 
Q 1619 2006 1619 1863 
Q 1619 1441 1641 1255 
Q 1663 1069 1716 984 
Q 1784 875 1895 815 
Q 2006 756 2150 756 
Q 2500 756 2700 1025 
Q 2900 1294 2900 1772 
L 2900 3500 
L 4019 3500 
L 4019 0 
L 2900 0 
L 2900 506 
Q 2647 200 2364 54 
Q 2081 -91 1741 -91 
Q 1134 -91 817 281 
Q 500 653 500 1363 
z
" transform="scale(0.015625)"/>
     <path id="DejaVuSans-Bold-72" d="M 3138 2547 
Q 2991 2616 2845 2648 
Q 2700 2681 2553 2681 
Q 2122 2681 1889 2404 
Q 1656 2128 1656 1613 
L 1656 0 
L 538 0 
L 538 3500 
L 1656 3500 
L 1656 2925 
Q 1872 3269 2151 3426 
Q 2431 3584 2822 3584 
Q 2878 3584 2943 3579 
Q 3009 3575 3134 3559 
L 3138 2547 
z
" transform="scale(0.015625)"/>
     <path id="DejaVuSans-Bold-65" d="M 4031 1759 
L 4031 1441 
L 1416 1441 
Q 1456 1047 1700 850 
Q 1944 653 2381 653 
Q 2734 653 3104 758 
Q 3475 863 3866 1075 
L 3866 213 
Q 3469 63 3072 -14 
Q 2675 -91 2278 -91 
Q 1328 -91 801 392 
Q 275 875 275 1747 
Q 275 2603 792 3093 
Q 1309 3584 2216 3584 
Q 3041 3584 3536 3087 
Q 4031 2591 4031 1759 
z
M 2881 2131 
Q 2881 2450 2695 2645 
Q 2509 2841 2209 2841 
Q 1884 2841 1681 2658 
Q 1478 2475 1428 2131 
L 2881 2131 
z
" transform="scale(0.015625)"/>
     <path id="DejaVuSans-Bold-20" transform="scale(0.015625)"/>
     <path id="DejaVuSans-Bold-35" d="M 678 4666 
L 3669 4666 
L 3669 3781 
L 1638 3781 
L 1638 3059 
Q 1775 3097 1914 3117 
Q 2053 3138 2203 3138 
Q 3056 3138 3531 2711 
Q 4006 2284 4006 1522 
Q 4006 766 3489 337 
Q 2972 -91 2053 -91 
Q 1656 -91 1267 -14 
Q 878 63 494 219 
L 494 1166 
Q 875 947 1217 837 
Q 1559 728 1863 728 
Q 2300 728 2551 942 
Q 2803 1156 2803 1522 
Q 2803 1891 2551 2103 
Q 2300 2316 1863 2316 
Q 1603 2316 1309 2248 
Q 1016 2181 678 2041 
L 678 4666 
z
" transform="scale(0.015625)"/>
     <path id="DejaVuSans-Bold-2d" d="M 347 2297 
L 2309 2297 
L 2309 1388 
L 347 1388 
L 347 2297 
z
" transform="scale(0.015625)"/>
     <path id="DejaVuSans-Bold-2e" d="M 653 1209 
L 1778 1209 
L 1778 0 
L 653 0 
L 653 1209 
z
" transform="scale(0.015625)"/>
     <path id="DejaVuSans-Bold-44" d="M 1791 3756 
L 1791 909 
L 2222 909 
Q 2959 909 3348 1275 
Q 3738 1641 3738 2338 
Q 3738 3031 3350 3393 
Q 2963 3756 2222 3756 
L 1791 3756 
z
M 588 4666 
L 1856 4666 
Q 2919 4666 3439 4514 
Q 3959 4363 4331 4000 
Q 4659 3684 4818 3271 
Q 4978 2859 4978 2338 
Q 4978 1809 4818 1395 
Q 4659 981 4331 666 
Q 3956 303 3431 151 
Q 2906 0 1856 0 
L 588 0 
L 588 4666 
z
" transform="scale(0.015625)"/>
     <path id="DejaVuSans-Bold-79" d="M 78 3500 
L 1197 3500 
L 2138 1125 
L 2938 3500 
L 4056 3500 
L 2584 -331 
Q 2363 -916 2067 -1148 
Q 1772 -1381 1288 -1381 
L 641 -1381 
L 641 -647 
L 991 -647 
Q 1275 -647 1404 -556 
Q 1534 -466 1606 -231 
L 1638 -134 
L 78 3500 
z
" transform="scale(0.015625)"/>
     <path id="DejaVuSans-Bold-6e" d="M 4056 2131 
L 4056 0 
L 2931 0 
L 2931 347 
L 2931 1631 
Q 2931 2084 2911 2256 
Q 2891 2428 2841 2509 
Q 2775 2619 2662 2680 
Q 2550 2741 2406 2741 
Q 2056 2741 1856 2470 
Q 1656 2200 1656 1722 
L 1656 0 
L 538 0 
L 538 3500 
L 1656 3500 
L 1656 2988 
Q 1909 3294 2193 3439 
Q 2478 3584 2822 3584 
Q 3428 3584 3742 3212 
Q 4056 2841 4056 2131 
z
" transform="scale(0.015625)"/>
     <path id="DejaVuSans-Bold-61" d="M 2106 1575 
Q 1756 1575 1579 1456 
Q 1403 1338 1403 1106 
Q 1403 894 1545 773 
Q 1688 653 1941 653 
Q 2256 653 2472 879 
Q 2688 1106 2688 1447 
L 2688 1575 
L 2106 1575 
z
M 3816 1997 
L 3816 0 
L 2688 0 
L 2688 519 
Q 2463 200 2181 54 
Q 1900 -91 1497 -91 
Q 953 -91 614 226 
Q 275 544 275 1050 
Q 275 1666 698 1953 
Q 1122 2241 2028 2241 
L 2688 2241 
L 2688 2328 
Q 2688 2594 2478 2717 
Q 2269 2841 1825 2841 
Q 1466 2841 1156 2769 
Q 847 2697 581 2553 
L 581 3406 
Q 941 3494 1303 3539 
Q 1666 3584 2028 3584 
Q 2975 3584 3395 3211 
Q 3816 2838 3816 1997 
z
" transform="scale(0.015625)"/>
     <path id="DejaVuSans-Bold-6d" d="M 3781 2919 
Q 3994 3244 4286 3414 
Q 4578 3584 4928 3584 
Q 5531 3584 5847 3212 
Q 6163 2841 6163 2131 
L 6163 0 
L 5038 0 
L 5038 1825 
Q 5041 1866 5042 1909 
Q 5044 1953 5044 2034 
Q 5044 2406 4934 2573 
Q 4825 2741 4581 2741 
Q 4263 2741 4089 2478 
Q 3916 2216 3909 1719 
L 3909 0 
L 2784 0 
L 2784 1825 
Q 2784 2406 2684 2573 
Q 2584 2741 2328 2741 
Q 2006 2741 1831 2477 
Q 1656 2213 1656 1722 
L 1656 0 
L 531 0 
L 531 3500 
L 1656 3500 
L 1656 2988 
Q 1863 3284 2130 3434 
Q 2397 3584 2719 3584 
Q 3081 3584 3359 3409 
Q 3638 3234 3781 2919 
z
" transform="scale(0.015625)"/>
     <path id="DejaVuSans-Bold-63" d="M 3366 3391 
L 3366 2478 
Q 3138 2634 2908 2709 
Q 2678 2784 2431 2784 
Q 1963 2784 1702 2511 
Q 1441 2238 1441 1747 
Q 1441 1256 1702 982 
Q 1963 709 2431 709 
Q 2694 709 2930 787 
Q 3166 866 3366 1019 
L 3366 103 
Q 3103 6 2833 -42 
Q 2563 -91 2291 -91 
Q 1344 -91 809 395 
Q 275 881 275 1747 
Q 275 2613 809 3098 
Q 1344 3584 2291 3584 
Q 2566 3584 2833 3536 
Q 3100 3488 3366 3391 
z
" transform="scale(0.015625)"/>
     <path id="DejaVuSans-Bold-74" d="M 1759 4494 
L 1759 3500 
L 2913 3500 
L 2913 2700 
L 1759 2700 
L 1759 1216 
Q 1759 972 1856 886 
Q 1953 800 2241 800 
L 2816 800 
L 2816 0 
L 1856 0 
Q 1194 0 917 276 
Q 641 553 641 1216 
L 641 2700 
L 84 2700 
L 84 3500 
L 641 3500 
L 641 4494 
L 1759 4494 
z
" transform="scale(0.015625)"/>
     <path id="DejaVuSans-Bold-66" d="M 2841 4863 
L 2841 4128 
L 2222 4128 
Q 1984 4128 1890 4042 
Q 1797 3956 1797 3744 
L 1797 3500 
L 2753 3500 
L 2753 2700 
L 1797 2700 
L 1797 0 
L 678 0 
L 678 2700 
L 122 2700 
L 122 3500 
L 678 3500 
L 678 3744 
Q 678 4316 997 4589 
Q 1316 4863 1984 4863 
L 2841 4863 
z
" transform="scale(0.015625)"/>
     <path id="DejaVuSans-Bold-73" d="M 3272 3391 
L 3272 2541 
Q 2913 2691 2578 2766 
Q 2244 2841 1947 2841 
Q 1628 2841 1473 2761 
Q 1319 2681 1319 2516 
Q 1319 2381 1436 2309 
Q 1553 2238 1856 2203 
L 2053 2175 
Q 2913 2066 3209 1816 
Q 3506 1566 3506 1031 
Q 3506 472 3093 190 
Q 2681 -91 1863 -91 
Q 1516 -91 1145 -36 
Q 775 19 384 128 
L 384 978 
Q 719 816 1070 734 
Q 1422 653 1784 653 
Q 2113 653 2278 743 
Q 2444 834 2444 1013 
Q 2444 1163 2330 1236 
Q 2216 1309 1875 1350 
L 1678 1375 
Q 931 1469 631 1722 
Q 331 1975 331 2491 
Q 331 3047 712 3315 
Q 1094 3584 1881 3584 
Q 2191 3584 2531 3537 
Q 2872 3491 3272 3391 
z
" transform="scale(0.015625)"/>
     <path id="DejaVuSans-Bold-28" d="M 2413 -844 
L 1484 -844 
Q 1006 -72 778 623 
Q 550 1319 550 2003 
Q 550 2688 779 3389 
Q 1009 4091 1484 4856 
L 2413 4856 
Q 2013 4116 1813 3408 
Q 1613 2700 1613 2009 
Q 1613 1319 1811 609 
Q 2009 -100 2413 -844 
z
" transform="scale(0.015625)"/>
     <path id="DejaVuSans-Bold-76" d="M 97 3500 
L 1216 3500 
L 2088 1081 
L 2956 3500 
L 4078 3500 
L 2700 0 
L 1472 0 
L 97 3500 
z
" transform="scale(0.015625)"/>
     <path id="DejaVuSans-Bold-64" d="M 2919 2988 
L 2919 4863 
L 4044 4863 
L 4044 0 
L 2919 0 
L 2919 506 
Q 2688 197 2409 53 
Q 2131 -91 1766 -91 
Q 1119 -91 703 423 
Q 288 938 288 1747 
Q 288 2556 703 3070 
Q 1119 3584 1766 3584 
Q 2128 3584 2408 3439 
Q 2688 3294 2919 2988 
z
M 2181 722 
Q 2541 722 2730 984 
Q 2919 1247 2919 1747 
Q 2919 2247 2730 2509 
Q 2541 2772 2181 2772 
Q 1825 2772 1636 2509 
Q 1447 2247 1447 1747 
Q 1447 1247 1636 984 
Q 1825 722 2181 722 
z
" transform="scale(0.015625)"/>
     <path id="DejaVuSans-Bold-29" d="M 513 -844 
Q 913 -100 1113 609 
Q 1313 1319 1313 2009 
Q 1313 2700 1113 3408 
Q 913 4116 513 4856 
L 1441 4856 
Q 1916 4091 2145 3389 
Q 2375 2688 2375 2003 
Q 2375 1319 2147 623 
Q 1919 -72 1441 -844 
L 513 -844 
z
" transform="scale(0.015625)"/>
    </defs>
    <use xlink:href="#DejaVuSans-Bold-46"/>
    <use xlink:href="#DejaVuSans-Bold-69" transform="translate(68.310547 0)"/>
    <use xlink:href="#DejaVuSans-Bold-67" transform="translate(102.587891 0)"/>
    <use xlink:href="#DejaVuSans-Bold-75" transform="translate(174.169922 0)"/>
    <use xlink:href="#DejaVuSans-Bold-72" transform="translate(245.361328 0)"/>
    <use xlink:href="#DejaVuSans-Bold-65" transform="translate(294.677734 0)"/>
    <use xlink:href="#DejaVuSans-Bold-20" transform="translate(362.5 0)"/>
    <use xlink:href="#DejaVuSans-Bold-35" transform="translate(397.314453 0)"/>
    <use xlink:href="#DejaVuSans-Bold-2d" transform="translate(466.894531 0)"/>
    <use xlink:href="#DejaVuSans-Bold-35" transform="translate(508.398438 0)"/>
    <use xlink:href="#DejaVuSans-Bold-2e" transform="translate(577.978516 0)"/>
    <use xlink:href="#DejaVuSans-Bold-20" transform="translate(615.966797 0)"/>
    <use xlink:href="#DejaVuSans-Bold-44" transform="translate(650.78125 0)"/>
    <use xlink:href="#DejaVuSans-Bold-79" transform="translate(733.789062 0)"/>
    <use xlink:href="#DejaVuSans-Bold-6e" transform="translate(798.974609 0)"/>
    <use xlink:href="#DejaVuSans-Bold-61" transform="translate(870.166016 0)"/>
    <use xlink:href="#DejaVuSans-Bold-6d" transform="translate(937.646484 0)"/>
    <use xlink:href="#DejaVuSans-Bold-69" transform="translate(1041.845703 0)"/>
    <use xlink:href="#DejaVuSans-Bold-63" transform="translate(1076.123047 0)"/>
    <use xlink:href="#DejaVuSans-Bold-20" transform="translate(1135.400391 0)"/>
    <use xlink:href="#DejaVuSans-Bold-74" transform="translate(1170.214844 0)"/>
    <use xlink:href="#DejaVuSans-Bold-72" transform="translate(1218.017578 0)"/>
    <use xlink:href="#DejaVuSans-Bold-65" transform="translate(1267.333984 0)"/>
    <use xlink:href="#DejaVuSans-Bold-61" transform="translate(1335.15625 0)"/>
    <use xlink:href="#DejaVuSans-Bold-74" transform="translate(1402.636719 0)"/>
    <use xlink:href="#DejaVuSans-Bold-6d" transform="translate(1450.439453 0)"/>
    <use xlink:href="#DejaVuSans-Bold-65" transform="translate(1554.638672 0)"/>
    <use xlink:href="#DejaVuSans-Bold-6e" transform="translate(1622.460938 0)"/>
    <use xlink:href="#DejaVuSans-Bold-74" transform="translate(1693.652344 0)"/>
    <use xlink:href="#DejaVuSans-Bold-20" transform="translate(1741.455078 0)"/>
    <use xlink:href="#DejaVuSans-Bold-65" transform="translate(1776.269531 0)"/>
    <use xlink:href="#DejaVuSans-Bold-66" transform="translate(1844.091797 0)"/>
    <use xlink:href="#DejaVuSans-Bold-66" transform="translate(1887.597656 0)"/>
    <use xlink:href="#DejaVuSans-Bold-65" transform="translate(1931.103516 0)"/>
    <use xlink:href="#DejaVuSans-Bold-63" transform="translate(1998.925781 0)"/>
    <use xlink:href="#DejaVuSans-Bold-74" transform="translate(2058.203125 0)"/>
    <use xlink:href="#DejaVuSans-Bold-73" transform="translate(2106.005859 0)"/>
    <use xlink:href="#DejaVuSans-Bold-20" transform="translate(2165.527344 0)"/>
    <use xlink:href="#DejaVuSans-Bold-28" transform="translate(2200.341797 0)"/>
    <use xlink:href="#DejaVuSans-Bold-65" transform="translate(2246.044922 0)"/>
    <use xlink:href="#DejaVuSans-Bold-76" transform="translate(2313.867188 0)"/>
    <use xlink:href="#DejaVuSans-Bold-65" transform="translate(2379.052734 0)"/>
    <use xlink:href="#DejaVuSans-Bold-6e" transform="translate(2446.875 0)"/>
    <use xlink:href="#DejaVuSans-Bold-74" transform="translate(2518.066406 0)"/>
    <use xlink:href="#DejaVuSans-Bold-20" transform="translate(2565.869141 0)"/>
    <use xlink:href="#DejaVuSans-Bold-73" transform="translate(2600.683594 0)"/>
    <use xlink:href="#DejaVuSans-Bold-74" transform="translate(2660.205078 0)"/>
    <use xlink:href="#DejaVuSans-Bold-75" transform="translate(2708.007812 0)"/>
    <use xlink:href="#DejaVuSans-Bold-64" transform="translate(2779.199219 0)"/>
    <use xlink:href="#DejaVuSans-Bold-79" transform="translate(2850.78125 0)"/>
    <use xlink:href="#DejaVuSans-Bold-29" transform="translate(2915.966797 0)"/>
   </g>
  </g>
  <g id="text_32">
   <!-- The dashed vertical line marks treatment onset. These figures are used for dynamic display rather than as decisive proof of parallel trends. -->
   <g style="fill: #505050" transform="translate(7.2 663.696) scale(0.09 -0.09)">
    <defs>
     <path id="DejaVuSans-54" d="M -19 4666 
L 3928 4666 
L 3928 4134 
L 2272 4134 
L 2272 0 
L 1638 0 
L 1638 4134 
L -19 4134 
L -19 4666 
z
" transform="scale(0.015625)"/>
     <path id="DejaVuSans-64" d="M 2906 2969 
L 2906 4863 
L 3481 4863 
L 3481 0 
L 2906 0 
L 2906 525 
Q 2725 213 2448 61 
Q 2172 -91 1784 -91 
Q 1150 -91 751 415 
Q 353 922 353 1747 
Q 353 2572 751 3078 
Q 1150 3584 1784 3584 
Q 2172 3584 2448 3432 
Q 2725 3281 2906 2969 
z
M 947 1747 
Q 947 1113 1208 752 
Q 1469 391 1925 391 
Q 2381 391 2643 752 
Q 2906 1113 2906 1747 
Q 2906 2381 2643 2742 
Q 2381 3103 1925 3103 
Q 1469 3103 1208 2742 
Q 947 2381 947 1747 
z
" transform="scale(0.015625)"/>
     <path id="DejaVuSans-6b" d="M 581 4863 
L 1159 4863 
L 1159 1991 
L 2875 3500 
L 3609 3500 
L 1753 1863 
L 3688 0 
L 2938 0 
L 1159 1709 
L 1159 0 
L 581 0 
L 581 4863 
z
" transform="scale(0.015625)"/>
     <path id="DejaVuSans-66" d="M 2375 4863 
L 2375 4384 
L 1825 4384 
Q 1516 4384 1395 4259 
Q 1275 4134 1275 3809 
L 1275 3500 
L 2222 3500 
L 2222 3053 
L 1275 3053 
L 1275 0 
L 697 0 
L 697 3053 
L 147 3053 
L 147 3500 
L 697 3500 
L 697 3744 
Q 697 4328 969 4595 
Q 1241 4863 1831 4863 
L 2375 4863 
z
" transform="scale(0.015625)"/>
     <path id="DejaVuSans-67" d="M 2906 1791 
Q 2906 2416 2648 2759 
Q 2391 3103 1925 3103 
Q 1463 3103 1205 2759 
Q 947 2416 947 1791 
Q 947 1169 1205 825 
Q 1463 481 1925 481 
Q 2391 481 2648 825 
Q 2906 1169 2906 1791 
z
M 3481 434 
Q 3481 -459 3084 -895 
Q 2688 -1331 1869 -1331 
Q 1566 -1331 1297 -1286 
Q 1028 -1241 775 -1147 
L 775 -588 
Q 1028 -725 1275 -790 
Q 1522 -856 1778 -856 
Q 2344 -856 2625 -561 
Q 2906 -266 2906 331 
L 2906 616 
Q 2728 306 2450 153 
Q 2172 0 1784 0 
Q 1141 0 747 490 
Q 353 981 353 1791 
Q 353 2603 747 3093 
Q 1141 3584 1784 3584 
Q 2172 3584 2450 3431 
Q 2728 3278 2906 2969 
L 2906 3500 
L 3481 3500 
L 3481 434 
z
" transform="scale(0.015625)"/>
     <path id="DejaVuSans-70" d="M 1159 525 
L 1159 -1331 
L 581 -1331 
L 581 3500 
L 1159 3500 
L 1159 2969 
Q 1341 3281 1617 3432 
Q 1894 3584 2278 3584 
Q 2916 3584 3314 3078 
Q 3713 2572 3713 1747 
Q 3713 922 3314 415 
Q 2916 -91 2278 -91 
Q 1894 -91 1617 61 
Q 1341 213 1159 525 
z
M 3116 1747 
Q 3116 2381 2855 2742 
Q 2594 3103 2138 3103 
Q 1681 3103 1420 2742 
Q 1159 2381 1159 1747 
Q 1159 1113 1420 752 
Q 1681 391 2138 391 
Q 2594 391 2855 752 
Q 3116 1113 3116 1747 
z
" transform="scale(0.015625)"/>
    </defs>
    <use xlink:href="#DejaVuSans-54"/>
    <use xlink:href="#DejaVuSans-68" transform="translate(61.083984 0)"/>
    <use xlink:href="#DejaVuSans-65" transform="translate(124.462891 0)"/>
    <use xlink:href="#DejaVuSans-20" transform="translate(185.986328 0)"/>
    <use xlink:href="#DejaVuSans-64" transform="translate(217.773438 0)"/>
    <use xlink:href="#DejaVuSans-61" transform="translate(281.25 0)"/>
    <use xlink:href="#DejaVuSans-73" transform="translate(342.529297 0)"/>
    <use xlink:href="#DejaVuSans-68" transform="translate(394.628906 0)"/>
    <use xlink:href="#DejaVuSans-65" transform="translate(458.007812 0)"/>
    <use xlink:href="#DejaVuSans-64" transform="translate(519.53125 0)"/>
    <use xlink:href="#DejaVuSans-20" transform="translate(583.007812 0)"/>
    <use xlink:href="#DejaVuSans-76" transform="translate(614.794922 0)"/>
    <use xlink:href="#DejaVuSans-65" transform="translate(673.974609 0)"/>
    <use xlink:href="#DejaVuSans-72" transform="translate(735.498047 0)"/>
    <use xlink:href="#DejaVuSans-74" transform="translate(776.611328 0)"/>
    <use xlink:href="#DejaVuSans-69" transform="translate(815.820312 0)"/>
    <use xlink:href="#DejaVuSans-63" transform="translate(843.603516 0)"/>
    <use xlink:href="#DejaVuSans-61" transform="translate(898.583984 0)"/>
    <use xlink:href="#DejaVuSans-6c" transform="translate(959.863281 0)"/>
    <use xlink:href="#DejaVuSans-20" transform="translate(987.646484 0)"/>
    <use xlink:href="#DejaVuSans-6c" transform="translate(1019.433594 0)"/>
    <use xlink:href="#DejaVuSans-69" transform="translate(1047.216797 0)"/>
    <use xlink:href="#DejaVuSans-6e" transform="translate(1075 0)"/>
    <use xlink:href="#DejaVuSans-65" transform="translate(1138.378906 0)"/>
    <use xlink:href="#DejaVuSans-20" transform="translate(1199.902344 0)"/>
    <use xlink:href="#DejaVuSans-6d" transform="translate(1231.689453 0)"/>
    <use xlink:href="#DejaVuSans-61" transform="translate(1329.101562 0)"/>
    <use xlink:href="#DejaVuSans-72" transform="translate(1390.380859 0)"/>
    <use xlink:href="#DejaVuSans-6b" transform="translate(1431.494141 0)"/>
    <use xlink:href="#DejaVuSans-73" transform="translate(1489.404297 0)"/>
    <use xlink:href="#DejaVuSans-20" transform="translate(1541.503906 0)"/>
    <use xlink:href="#DejaVuSans-74" transform="translate(1573.291016 0)"/>
    <use xlink:href="#DejaVuSans-72" transform="translate(1612.5 0)"/>
    <use xlink:href="#DejaVuSans-65" transform="translate(1651.363281 0)"/>
    <use xlink:href="#DejaVuSans-61" transform="translate(1712.886719 0)"/>
    <use xlink:href="#DejaVuSans-74" transform="translate(1774.166016 0)"/>
    <use xlink:href="#DejaVuSans-6d" transform="translate(1813.375 0)"/>
    <use xlink:href="#DejaVuSans-65" transform="translate(1910.787109 0)"/>
    <use xlink:href="#DejaVuSans-6e" transform="translate(1972.310547 0)"/>
    <use xlink:href="#DejaVuSans-74" transform="translate(2035.689453 0)"/>
    <use xlink:href="#DejaVuSans-20" transform="translate(2074.898438 0)"/>
    <use xlink:href="#DejaVuSans-6f" transform="translate(2106.685547 0)"/>
    <use xlink:href="#DejaVuSans-6e" transform="translate(2167.867188 0)"/>
    <use xlink:href="#DejaVuSans-73" transform="translate(2231.246094 0)"/>
    <use xlink:href="#DejaVuSans-65" transform="translate(2283.345703 0)"/>
    <use xlink:href="#DejaVuSans-74" transform="translate(2344.869141 0)"/>
    <use xlink:href="#DejaVuSans-2e" transform="translate(2384.078125 0)"/>
    <use xlink:href="#DejaVuSans-20" transform="translate(2415.865234 0)"/>
    <use xlink:href="#DejaVuSans-54" transform="translate(2447.652344 0)"/>
    <use xlink:href="#DejaVuSans-68" transform="translate(2508.736328 0)"/>
    <use xlink:href="#DejaVuSans-65" transform="translate(2572.115234 0)"/>
    <use xlink:href="#DejaVuSans-73" transform="translate(2633.638672 0)"/>
    <use xlink:href="#DejaVuSans-65" transform="translate(2685.738281 0)"/>
    <use xlink:href="#DejaVuSans-20" transform="translate(2747.261719 0)"/>
    <use xlink:href="#DejaVuSans-66" transform="translate(2779.048828 0)"/>
    <use xlink:href="#DejaVuSans-69" transform="translate(2814.253906 0)"/>
    <use xlink:href="#DejaVuSans-67" transform="translate(2842.037109 0)"/>
    <use xlink:href="#DejaVuSans-75" transform="translate(2905.513672 0)"/>
    <use xlink:href="#DejaVuSans-72" transform="translate(2968.892578 0)"/>
    <use xlink:href="#DejaVuSans-65" transform="translate(3007.755859 0)"/>
    <use xlink:href="#DejaVuSans-73" transform="translate(3069.279297 0)"/>
    <use xlink:href="#DejaVuSans-20" transform="translate(3121.378906 0)"/>
    <use xlink:href="#DejaVuSans-61" transform="translate(3153.166016 0)"/>
    <use xlink:href="#DejaVuSans-72" transform="translate(3214.445312 0)"/>
    <use xlink:href="#DejaVuSans-65" transform="translate(3253.308594 0)"/>
    <use xlink:href="#DejaVuSans-20" transform="translate(3314.832031 0)"/>
    <use xlink:href="#DejaVuSans-75" transform="translate(3346.619141 0)"/>
    <use xlink:href="#DejaVuSans-73" transform="translate(3409.998047 0)"/>
    <use xlink:href="#DejaVuSans-65" transform="translate(3462.097656 0)"/>
    <use xlink:href="#DejaVuSans-64" transform="translate(3523.621094 0)"/>
    <use xlink:href="#DejaVuSans-20" transform="translate(3587.097656 0)"/>
    <use xlink:href="#DejaVuSans-66" transform="translate(3618.884766 0)"/>
    <use xlink:href="#DejaVuSans-6f" transform="translate(3654.089844 0)"/>
    <use xlink:href="#DejaVuSans-72" transform="translate(3715.271484 0)"/>
    <use xlink:href="#DejaVuSans-20" transform="translate(3756.384766 0)"/>
    <use xlink:href="#DejaVuSans-64" transform="translate(3788.171875 0)"/>
    <use xlink:href="#DejaVuSans-79" transform="translate(3851.648438 0)"/>
    <use xlink:href="#DejaVuSans-6e" transform="translate(3910.828125 0)"/>
    <use xlink:href="#DejaVuSans-61" transform="translate(3974.207031 0)"/>
    <use xlink:href="#DejaVuSans-6d" transform="translate(4035.486328 0)"/>
    <use xlink:href="#DejaVuSans-69" transform="translate(4132.898438 0)"/>
    <use xlink:href="#DejaVuSans-63" transform="translate(4160.681641 0)"/>
    <use xlink:href="#DejaVuSans-20" transform="translate(4215.662109 0)"/>
    <use xlink:href="#DejaVuSans-64" transform="translate(4247.449219 0)"/>
    <use xlink:href="#DejaVuSans-69" transform="translate(4310.925781 0)"/>
    <use xlink:href="#DejaVuSans-73" transform="translate(4338.708984 0)"/>
    <use xlink:href="#DejaVuSans-70" transform="translate(4390.808594 0)"/>
    <use xlink:href="#DejaVuSans-6c" transform="translate(4454.285156 0)"/>
    <use xlink:href="#DejaVuSans-61" transform="translate(4482.068359 0)"/>
    <use xlink:href="#DejaVuSans-79" transform="translate(4543.347656 0)"/>
    <use xlink:href="#DejaVuSans-20" transform="translate(4602.527344 0)"/>
    <use xlink:href="#DejaVuSans-72" transform="translate(4634.314453 0)"/>
    <use xlink:href="#DejaVuSans-61" transform="translate(4675.427734 0)"/>
    <use xlink:href="#DejaVuSans-74" transform="translate(4736.707031 0)"/>
    <use xlink:href="#DejaVuSans-68" transform="translate(4775.916016 0)"/>
    <use xlink:href="#DejaVuSans-65" transform="translate(4839.294922 0)"/>
    <use xlink:href="#DejaVuSans-72" transform="translate(4900.818359 0)"/>
    <use xlink:href="#DejaVuSans-20" transform="translate(4941.931641 0)"/>
    <use xlink:href="#DejaVuSans-74" transform="translate(4973.71875 0)"/>
    <use xlink:href="#DejaVuSans-68" transform="translate(5012.927734 0)"/>
    <use xlink:href="#DejaVuSans-61" transform="translate(5076.306641 0)"/>
    <use xlink:href="#DejaVuSans-6e" transform="translate(5137.585938 0)"/>
    <use xlink:href="#DejaVuSans-20" transform="translate(5200.964844 0)"/>
    <use xlink:href="#DejaVuSans-61" transform="translate(5232.751953 0)"/>
    <use xlink:href="#DejaVuSans-73" transform="translate(5294.03125 0)"/>
    <use xlink:href="#DejaVuSans-20" transform="translate(5346.130859 0)"/>
    <use xlink:href="#DejaVuSans-64" transform="translate(5377.917969 0)"/>
    <use xlink:href="#DejaVuSans-65" transform="translate(5441.394531 0)"/>
    <use xlink:href="#DejaVuSans-63" transform="translate(5502.917969 0)"/>
    <use xlink:href="#DejaVuSans-69" transform="translate(5557.898438 0)"/>
    <use xlink:href="#DejaVuSans-73" transform="translate(5585.681641 0)"/>
    <use xlink:href="#DejaVuSans-69" transform="translate(5637.78125 0)"/>
    <use xlink:href="#DejaVuSans-76" transform="translate(5665.564453 0)"/>
    <use xlink:href="#DejaVuSans-65" transform="translate(5724.744141 0)"/>
    <use xlink:href="#DejaVuSans-20" transform="translate(5786.267578 0)"/>
    <use xlink:href="#DejaVuSans-70" transform="translate(5818.054688 0)"/>
    <use xlink:href="#DejaVuSans-72" transform="translate(5881.53125 0)"/>
    <use xlink:href="#DejaVuSans-6f" transform="translate(5920.394531 0)"/>
    <use xlink:href="#DejaVuSans-6f" transform="translate(5981.576172 0)"/>
    <use xlink:href="#DejaVuSans-66" transform="translate(6042.757812 0)"/>
    <use xlink:href="#DejaVuSans-20" transform="translate(6077.962891 0)"/>
    <use xlink:href="#DejaVuSans-6f" transform="translate(6109.75 0)"/>
    <use xlink:href="#DejaVuSans-66" transform="translate(6170.931641 0)"/>
    <use xlink:href="#DejaVuSans-20" transform="translate(6206.136719 0)"/>
    <use xlink:href="#DejaVuSans-70" transform="translate(6237.923828 0)"/>
    <use xlink:href="#DejaVuSans-61" transform="translate(6301.400391 0)"/>
    <use xlink:href="#DejaVuSans-72" transform="translate(6362.679688 0)"/>
    <use xlink:href="#DejaVuSans-61" transform="translate(6403.792969 0)"/>
    <use xlink:href="#DejaVuSans-6c" transform="translate(6465.072266 0)"/>
    <use xlink:href="#DejaVuSans-6c" transform="translate(6492.855469 0)"/>
    <use xlink:href="#DejaVuSans-65" transform="translate(6520.638672 0)"/>
    <use xlink:href="#DejaVuSans-6c" transform="translate(6582.162109 0)"/>
    <use xlink:href="#DejaVuSans-20" transform="translate(6609.945312 0)"/>
    <use xlink:href="#DejaVuSans-74" transform="translate(6641.732422 0)"/>
    <use xlink:href="#DejaVuSans-72" transform="translate(6680.941406 0)"/>
    <use xlink:href="#DejaVuSans-65" transform="translate(6719.804688 0)"/>
    <use xlink:href="#DejaVuSans-6e" transform="translate(6781.328125 0)"/>
    <use xlink:href="#DejaVuSans-64" transform="translate(6844.707031 0)"/>
    <use xlink:href="#DejaVuSans-73" transform="translate(6908.183594 0)"/>
    <use xlink:href="#DejaVuSans-2e" transform="translate(6960.283203 0)"/>
   </g>
  </g>
 </g>
 <defs>
  <clipPath id="p7c269b7dd3">
   <rect x="46.436" y="76.416" width="603.58" height="155.628"/>
  </clipPath>
  <clipPath id="p715f18087e">
   <rect x="46.436" y="261.084" width="603.58" height="155.628"/>
  </clipPath>
  <clipPath id="p8463162fce">
   <rect x="46.436" y="445.752" width="603.58" height="155.628"/>
  </clipPath>
 </defs>
</svg>
