<?xml version="1.0" encoding="utf-8" standalone="no"?>
<!DOCTYPE svg PUBLIC "-//W3C//DTD SVG 1.1//EN"
  "http://www.w3.org/Graphics/SVG/1.1/DTD/svg11.dtd">
<svg xmlns:xlink="http://www.w3.org/1999/xlink" width="633.415562pt" height="399.869531pt" viewBox="0 0 633.415562 399.869531" xmlns="http://www.w3.org/2000/svg" version="1.1">
 <metadata>
  <rdf:RDF xmlns:dc="http://purl.org/dc/elements/1.1/" xmlns:cc="http://creativecommons.org/ns#" xmlns:rdf="http://www.w3.org/1999/02/22-rdf-syntax-ns#">
   <cc:Work>
    <dc:type rdf:resource="http://purl.org/dc/dcmitype/StillImage"/>
    <dc:date>2026-04-09T10:34:36.889868</dc:date>
    <dc:format>image/svg+xml</dc:format>
    <dc:creator>
     <cc:Agent>
      <dc:title>Matplotlib v3.10.8, https://matplotlib.org/</dc:title>
     </cc:Agent>
    </dc:creator>
   </cc:Work>
  </rdf:RDF>
 </metadata>
 <defs>
  <style type="text/css">*{stroke-linejoin: round; stroke-linecap: butt}</style>
 </defs>
 <g id="figure_1">
  <g id="patch_1">
   <path d="M 0 399.869531 
L 633.415562 399.869531 
L 633.415562 0 
L 0 0 
z
" style="fill: #ffffff"/>
  </g>
  <g id="axes_1">
   <g id="patch_2">
    <path d="M 203.864 332.034562 
L 604.782 332.034562 
L 604.782 23.837812 
L 203.864 23.837812 
z
" style="fill: #ffffff"/>
   </g>
   <g id="matplotlib.axis_1">
    <g id="xtick_1">
     <g id="text_1">
      <!-- -0.5 -->
      <g style="fill: #262626" transform="translate(223.886445 349.892844) scale(0.11 -0.11)">
       <defs>
        <path id="DejaVuSans-2d" d="M 313 2009 
L 1997 2009 
L 1997 1497 
L 313 1497 
L 313 2009 
z
" transform="scale(0.015625)"/>
        <path id="DejaVuSans-30" d="M 2034 4250 
Q 1547 4250 1301 3770 
Q 1056 3291 1056 2328 
Q 1056 1369 1301 889 
Q 1547 409 2034 409 
Q 2525 409 2770 889 
Q 3016 1369 3016 2328 
Q 3016 3291 2770 3770 
Q 2525 4250 2034 4250 
z
M 2034 4750 
Q 2819 4750 3233 4129 
Q 3647 3509 3647 2328 
Q 3647 1150 3233 529 
Q 2819 -91 2034 -91 
Q 1250 -91 836 529 
Q 422 1150 422 2328 
Q 422 3509 836 4129 
Q 1250 4750 2034 4750 
z
" transform="scale(0.015625)"/>
        <path id="DejaVuSans-2e" d="M 684 794 
L 1344 794 
L 1344 0 
L 684 0 
L 684 794 
z
" transform="scale(0.015625)"/>
        <path id="DejaVuSans-35" d="M 691 4666 
L 3169 4666 
L 3169 4134 
L 1269 4134 
L 1269 2991 
Q 1406 3038 1543 3061 
Q 1681 3084 1819 3084 
Q 2600 3084 3056 2656 
Q 3513 2228 3513 1497 
Q 3513 744 3044 326 
Q 2575 -91 1722 -91 
Q 1428 -91 1123 -41 
Q 819 9 494 109 
L 494 744 
Q 775 591 1075 516 
Q 1375 441 1709 441 
Q 2250 441 2565 725 
Q 2881 1009 2881 1497 
Q 2881 1984 2565 2268 
Q 2250 2553 1709 2553 
Q 1456 2553 1204 2497 
Q 953 2441 691 2322 
L 691 4666 
z
" transform="scale(0.015625)"/>
       </defs>
       <use xlink:href="#DejaVuSans-2d"/>
       <use xlink:href="#DejaVuSans-30" transform="translate(36.083984 0)"/>
       <use xlink:href="#DejaVuSans-2e" transform="translate(99.707031 0)"/>
       <use xlink:href="#DejaVuSans-35" transform="translate(131.494141 0)"/>
      </g>
     </g>
    </g>
    <g id="xtick_2">
     <g id="text_2">
      <!-- 0.0 -->
      <g style="fill: #262626" transform="translate(284.400697 349.892844) scale(0.11 -0.11)">
       <use xlink:href="#DejaVuSans-30"/>
       <use xlink:href="#DejaVuSans-2e" transform="translate(63.623047 0)"/>
       <use xlink:href="#DejaVuSans-30" transform="translate(95.410156 0)"/>
      </g>
     </g>
    </g>
    <g id="xtick_3">
     <g id="text_3">
      <!-- 0.5 -->
      <g style="fill: #262626" transform="translate(342.930652 349.892844) scale(0.11 -0.11)">
       <use xlink:href="#DejaVuSans-30"/>
       <use xlink:href="#DejaVuSans-2e" transform="translate(63.623047 0)"/>
       <use xlink:href="#DejaVuSans-35" transform="translate(95.410156 0)"/>
      </g>
     </g>
    </g>
    <g id="xtick_4">
     <g id="text_4">
      <!-- 1.0 -->
      <g style="fill: #262626" transform="translate(401.460607 349.892844) scale(0.11 -0.11)">
       <defs>
        <path id="DejaVuSans-31" d="M 794 531 
L 1825 531 
L 1825 4091 
L 703 3866 
L 703 4441 
L 1819 4666 
L 2450 4666 
L 2450 531 
L 3481 531 
L 3481 0 
L 794 0 
L 794 531 
z
" transform="scale(0.015625)"/>
       </defs>
       <use xlink:href="#DejaVuSans-31"/>
       <use xlink:href="#DejaVuSans-2e" transform="translate(63.623047 0)"/>
       <use xlink:href="#DejaVuSans-30" transform="translate(95.410156 0)"/>
      </g>
     </g>
    </g>
    <g id="xtick_5">
     <g id="text_5">
      <!-- 1.5 -->
      <g style="fill: #262626" transform="translate(459.990562 349.892844) scale(0.11 -0.11)">
       <use xlink:href="#DejaVuSans-31"/>
       <use xlink:href="#DejaVuSans-2e" transform="translate(63.623047 0)"/>
       <use xlink:href="#DejaVuSans-35" transform="translate(95.410156 0)"/>
      </g>
     </g>
    </g>
    <g id="xtick_6">
     <g id="text_6">
      <!-- 2.0 -->
      <g style="fill: #262626" transform="translate(518.520517 349.892844) scale(0.11 -0.11)">
       <defs>
        <path id="DejaVuSans-32" d="M 1228 531 
L 3431 531 
L 3431 0 
L 469 0 
L 469 531 
Q 828 903 1448 1529 
Q 2069 2156 2228 2338 
Q 2531 2678 2651 2914 
Q 2772 3150 2772 3378 
Q 2772 3750 2511 3984 
Q 2250 4219 1831 4219 
Q 1534 4219 1204 4116 
Q 875 4013 500 3803 
L 500 4441 
Q 881 4594 1212 4672 
Q 1544 4750 1819 4750 
Q 2544 4750 2975 4387 
Q 3406 4025 3406 3419 
Q 3406 3131 3298 2873 
Q 3191 2616 2906 2266 
Q 2828 2175 2409 1742 
Q 1991 1309 1228 531 
z
" transform="scale(0.015625)"/>
       </defs>
       <use xlink:href="#DejaVuSans-32"/>
       <use xlink:href="#DejaVuSans-2e" transform="translate(63.623047 0)"/>
       <use xlink:href="#DejaVuSans-30" transform="translate(95.410156 0)"/>
      </g>
     </g>
    </g>
    <g id="xtick_7">
     <g id="text_7">
      <!-- 2.5 -->
      <g style="fill: #262626" transform="translate(577.050472 349.892844) scale(0.11 -0.11)">
       <use xlink:href="#DejaVuSans-32"/>
       <use xlink:href="#DejaVuSans-2e" transform="translate(63.623047 0)"/>
       <use xlink:href="#DejaVuSans-35" transform="translate(95.410156 0)"/>
      </g>
     </g>
    </g>
    <g id="text_8">
     <!-- Estimated coefficient of treat_share (95% CI) -->
     <g style="fill: #262626" transform="translate(269.318312 365.298625) scale(0.12 -0.12)">
      <defs>
       <path id="DejaVuSans-45" d="M 628 4666 
L 3578 4666 
L 3578 4134 
L 1259 4134 
L 1259 2753 
L 3481 2753 
L 3481 2222 
L 1259 2222 
L 1259 531 
L 3634 531 
L 3634 0 
L 628 0 
L 628 4666 
z
" transform="scale(0.015625)"/>
       <path id="DejaVuSans-73" d="M 2834 3397 
L 2834 2853 
Q 2591 2978 2328 3040 
Q 2066 3103 1784 3103 
Q 1356 3103 1142 2972 
Q 928 2841 928 2578 
Q 928 2378 1081 2264 
Q 1234 2150 1697 2047 
L 1894 2003 
Q 2506 1872 2764 1633 
Q 3022 1394 3022 966 
Q 3022 478 2636 193 
Q 2250 -91 1575 -91 
Q 1294 -91 989 -36 
Q 684 19 347 128 
L 347 722 
Q 666 556 975 473 
Q 1284 391 1588 391 
Q 1994 391 2212 530 
Q 2431 669 2431 922 
Q 2431 1156 2273 1281 
Q 2116 1406 1581 1522 
L 1381 1569 
Q 847 1681 609 1914 
Q 372 2147 372 2553 
Q 372 3047 722 3315 
Q 1072 3584 1716 3584 
Q 2034 3584 2315 3537 
Q 2597 3491 2834 3397 
z
" transform="scale(0.015625)"/>
       <path id="DejaVuSans-74" d="M 1172 4494 
L 1172 3500 
L 2356 3500 
L 2356 3053 
L 1172 3053 
L 1172 1153 
Q 1172 725 1289 603 
Q 1406 481 1766 481 
L 2356 481 
L 2356 0 
L 1766 0 
Q 1100 0 847 248 
Q 594 497 594 1153 
L 594 3053 
L 172 3053 
L 172 3500 
L 594 3500 
L 594 4494 
L 1172 4494 
z
" transform="scale(0.015625)"/>
       <path id="DejaVuSans-69" d="M 603 3500 
L 1178 3500 
L 1178 0 
L 603 0 
L 603 3500 
z
M 603 4863 
L 1178 4863 
L 1178 4134 
L 603 4134 
L 603 4863 
z
" transform="scale(0.015625)"/>
       <path id="DejaVuSans-6d" d="M 3328 2828 
Q 3544 3216 3844 3400 
Q 4144 3584 4550 3584 
Q 5097 3584 5394 3201 
Q 5691 2819 5691 2113 
L 5691 0 
L 5113 0 
L 5113 2094 
Q 5113 2597 4934 2840 
Q 4756 3084 4391 3084 
Q 3944 3084 3684 2787 
Q 3425 2491 3425 1978 
L 3425 0 
L 2847 0 
L 2847 2094 
Q 2847 2600 2669 2842 
Q 2491 3084 2119 3084 
Q 1678 3084 1418 2786 
Q 1159 2488 1159 1978 
L 1159 0 
L 581 0 
L 581 3500 
L 1159 3500 
L 1159 2956 
Q 1356 3278 1631 3431 
Q 1906 3584 2284 3584 
Q 2666 3584 2933 3390 
Q 3200 3197 3328 2828 
z
" transform="scale(0.015625)"/>
       <path id="DejaVuSans-61" d="M 2194 1759 
Q 1497 1759 1228 1600 
Q 959 1441 959 1056 
Q 959 750 1161 570 
Q 1363 391 1709 391 
Q 2188 391 2477 730 
Q 2766 1069 2766 1631 
L 2766 1759 
L 2194 1759 
z
M 3341 1997 
L 3341 0 
L 2766 0 
L 2766 531 
Q 2569 213 2275 61 
Q 1981 -91 1556 -91 
Q 1019 -91 701 211 
Q 384 513 384 1019 
Q 384 1609 779 1909 
Q 1175 2209 1959 2209 
L 2766 2209 
L 2766 2266 
Q 2766 2663 2505 2880 
Q 2244 3097 1772 3097 
Q 1472 3097 1187 3025 
Q 903 2953 641 2809 
L 641 3341 
Q 956 3463 1253 3523 
Q 1550 3584 1831 3584 
Q 2591 3584 2966 3190 
Q 3341 2797 3341 1997 
z
" transform="scale(0.015625)"/>
       <path id="DejaVuSans-65" d="M 3597 1894 
L 3597 1613 
L 953 1613 
Q 991 1019 1311 708 
Q 1631 397 2203 397 
Q 2534 397 2845 478 
Q 3156 559 3463 722 
L 3463 178 
Q 3153 47 2828 -22 
Q 2503 -91 2169 -91 
Q 1331 -91 842 396 
Q 353 884 353 1716 
Q 353 2575 817 3079 
Q 1281 3584 2069 3584 
Q 2775 3584 3186 3129 
Q 3597 2675 3597 1894 
z
M 3022 2063 
Q 3016 2534 2758 2815 
Q 2500 3097 2075 3097 
Q 1594 3097 1305 2825 
Q 1016 2553 972 2059 
L 3022 2063 
z
" transform="scale(0.015625)"/>
       <path id="DejaVuSans-64" d="M 2906 2969 
L 2906 4863 
L 3481 4863 
L 3481 0 
L 2906 0 
L 2906 525 
Q 2725 213 2448 61 
Q 2172 -91 1784 -91 
Q 1150 -91 751 415 
Q 353 922 353 1747 
Q 353 2572 751 3078 
Q 1150 3584 1784 3584 
Q 2172 3584 2448 3432 
Q 2725 3281 2906 2969 
z
M 947 1747 
Q 947 1113 1208 752 
Q 1469 391 1925 391 
Q 2381 391 2643 752 
Q 2906 1113 2906 1747 
Q 2906 2381 2643 2742 
Q 2381 3103 1925 3103 
Q 1469 3103 1208 2742 
Q 947 2381 947 1747 
z
" transform="scale(0.015625)"/>
       <path id="DejaVuSans-20" transform="scale(0.015625)"/>
       <path id="DejaVuSans-63" d="M 3122 3366 
L 3122 2828 
Q 2878 2963 2633 3030 
Q 2388 3097 2138 3097 
Q 1578 3097 1268 2742 
Q 959 2388 959 1747 
Q 959 1106 1268 751 
Q 1578 397 2138 397 
Q 2388 397 2633 464 
Q 2878 531 3122 666 
L 3122 134 
Q 2881 22 2623 -34 
Q 2366 -91 2075 -91 
Q 1284 -91 818 406 
Q 353 903 353 1747 
Q 353 2603 823 3093 
Q 1294 3584 2113 3584 
Q 2378 3584 2631 3529 
Q 2884 3475 3122 3366 
z
" transform="scale(0.015625)"/>
       <path id="DejaVuSans-6f" d="M 1959 3097 
Q 1497 3097 1228 2736 
Q 959 2375 959 1747 
Q 959 1119 1226 758 
Q 1494 397 1959 397 
Q 2419 397 2687 759 
Q 2956 1122 2956 1747 
Q 2956 2369 2687 2733 
Q 2419 3097 1959 3097 
z
M 1959 3584 
Q 2709 3584 3137 3096 
Q 3566 2609 3566 1747 
Q 3566 888 3137 398 
Q 2709 -91 1959 -91 
Q 1206 -91 779 398 
Q 353 888 353 1747 
Q 353 2609 779 3096 
Q 1206 3584 1959 3584 
z
" transform="scale(0.015625)"/>
       <path id="DejaVuSans-66" d="M 2375 4863 
L 2375 4384 
L 1825 4384 
Q 1516 4384 1395 4259 
Q 1275 4134 1275 3809 
L 1275 3500 
L 2222 3500 
L 2222 3053 
L 1275 3053 
L 1275 0 
L 697 0 
L 697 3053 
L 147 3053 
L 147 3500 
L 697 3500 
L 697 3744 
Q 697 4328 969 4595 
Q 1241 4863 1831 4863 
L 2375 4863 
z
" transform="scale(0.015625)"/>
       <path id="DejaVuSans-6e" d="M 3513 2113 
L 3513 0 
L 2938 0 
L 2938 2094 
Q 2938 2591 2744 2837 
Q 2550 3084 2163 3084 
Q 1697 3084 1428 2787 
Q 1159 2491 1159 1978 
L 1159 0 
L 581 0 
L 581 3500 
L 1159 3500 
L 1159 2956 
Q 1366 3272 1645 3428 
Q 1925 3584 2291 3584 
Q 2894 3584 3203 3211 
Q 3513 2838 3513 2113 
z
" transform="scale(0.015625)"/>
       <path id="DejaVuSans-72" d="M 2631 2963 
Q 2534 3019 2420 3045 
Q 2306 3072 2169 3072 
Q 1681 3072 1420 2755 
Q 1159 2438 1159 1844 
L 1159 0 
L 581 0 
L 581 3500 
L 1159 3500 
L 1159 2956 
Q 1341 3275 1631 3429 
Q 1922 3584 2338 3584 
Q 2397 3584 2469 3576 
Q 2541 3569 2628 3553 
L 2631 2963 
z
" transform="scale(0.015625)"/>
       <path id="DejaVuSans-5f" d="M 3263 -1063 
L 3263 -1509 
L -63 -1509 
L -63 -1063 
L 3263 -1063 
z
" transform="scale(0.015625)"/>
       <path id="DejaVuSans-68" d="M 3513 2113 
L 3513 0 
L 2938 0 
L 2938 2094 
Q 2938 2591 2744 2837 
Q 2550 3084 2163 3084 
Q 1697 3084 1428 2787 
Q 1159 2491 1159 1978 
L 1159 0 
L 581 0 
L 581 4863 
L 1159 4863 
L 1159 2956 
Q 1366 3272 1645 3428 
Q 1925 3584 2291 3584 
Q 2894 3584 3203 3211 
Q 3513 2838 3513 2113 
z
" transform="scale(0.015625)"/>
       <path id="DejaVuSans-28" d="M 1984 4856 
Q 1566 4138 1362 3434 
Q 1159 2731 1159 2009 
Q 1159 1288 1364 580 
Q 1569 -128 1984 -844 
L 1484 -844 
Q 1016 -109 783 600 
Q 550 1309 550 2009 
Q 550 2706 781 3412 
Q 1013 4119 1484 4856 
L 1984 4856 
z
" transform="scale(0.015625)"/>
       <path id="DejaVuSans-39" d="M 703 97 
L 703 672 
Q 941 559 1184 500 
Q 1428 441 1663 441 
Q 2288 441 2617 861 
Q 2947 1281 2994 2138 
Q 2813 1869 2534 1725 
Q 2256 1581 1919 1581 
Q 1219 1581 811 2004 
Q 403 2428 403 3163 
Q 403 3881 828 4315 
Q 1253 4750 1959 4750 
Q 2769 4750 3195 4129 
Q 3622 3509 3622 2328 
Q 3622 1225 3098 567 
Q 2575 -91 1691 -91 
Q 1453 -91 1209 -44 
Q 966 3 703 97 
z
M 1959 2075 
Q 2384 2075 2632 2365 
Q 2881 2656 2881 3163 
Q 2881 3666 2632 3958 
Q 2384 4250 1959 4250 
Q 1534 4250 1286 3958 
Q 1038 3666 1038 3163 
Q 1038 2656 1286 2365 
Q 1534 2075 1959 2075 
z
" transform="scale(0.015625)"/>
       <path id="DejaVuSans-25" d="M 4653 2053 
Q 4381 2053 4226 1822 
Q 4072 1591 4072 1178 
Q 4072 772 4226 539 
Q 4381 306 4653 306 
Q 4919 306 5073 539 
Q 5228 772 5228 1178 
Q 5228 1588 5073 1820 
Q 4919 2053 4653 2053 
z
M 4653 2450 
Q 5147 2450 5437 2106 
Q 5728 1763 5728 1178 
Q 5728 594 5436 251 
Q 5144 -91 4653 -91 
Q 4153 -91 3862 251 
Q 3572 594 3572 1178 
Q 3572 1766 3864 2108 
Q 4156 2450 4653 2450 
z
M 1428 4353 
Q 1159 4353 1004 4120 
Q 850 3888 850 3481 
Q 850 3069 1003 2837 
Q 1156 2606 1428 2606 
Q 1700 2606 1854 2837 
Q 2009 3069 2009 3481 
Q 2009 3884 1853 4118 
Q 1697 4353 1428 4353 
z
M 4250 4750 
L 4750 4750 
L 1831 -91 
L 1331 -91 
L 4250 4750 
z
M 1428 4750 
Q 1922 4750 2215 4408 
Q 2509 4066 2509 3481 
Q 2509 2891 2217 2550 
Q 1925 2209 1428 2209 
Q 931 2209 642 2551 
Q 353 2894 353 3481 
Q 353 4063 643 4406 
Q 934 4750 1428 4750 
z
" transform="scale(0.015625)"/>
       <path id="DejaVuSans-43" d="M 4122 4306 
L 4122 3641 
Q 3803 3938 3442 4084 
Q 3081 4231 2675 4231 
Q 1875 4231 1450 3742 
Q 1025 3253 1025 2328 
Q 1025 1406 1450 917 
Q 1875 428 2675 428 
Q 3081 428 3442 575 
Q 3803 722 4122 1019 
L 4122 359 
Q 3791 134 3420 21 
Q 3050 -91 2638 -91 
Q 1578 -91 968 557 
Q 359 1206 359 2328 
Q 359 3453 968 4101 
Q 1578 4750 2638 4750 
Q 3056 4750 3426 4639 
Q 3797 4528 4122 4306 
z
" transform="scale(0.015625)"/>
       <path id="DejaVuSans-49" d="M 628 4666 
L 1259 4666 
L 1259 0 
L 628 0 
L 628 4666 
z
" transform="scale(0.015625)"/>
       <path id="DejaVuSans-29" d="M 513 4856 
L 1013 4856 
Q 1481 4119 1714 3412 
Q 1947 2706 1947 2009 
Q 1947 1309 1714 600 
Q 1481 -109 1013 -844 
L 513 -844 
Q 928 -128 1133 580 
Q 1338 1288 1338 2009 
Q 1338 2731 1133 3434 
Q 928 4138 513 4856 
z
" transform="scale(0.015625)"/>
      </defs>
      <use xlink:href="#DejaVuSans-45"/>
      <use xlink:href="#DejaVuSans-73" transform="translate(63.183594 0)"/>
      <use xlink:href="#DejaVuSans-74" transform="translate(115.283203 0)"/>
      <use xlink:href="#DejaVuSans-69" transform="translate(154.492188 0)"/>
      <use xlink:href="#DejaVuSans-6d" transform="translate(182.275391 0)"/>
      <use xlink:href="#DejaVuSans-61" transform="translate(279.6875 0)"/>
      <use xlink:href="#DejaVuSans-74" transform="translate(340.966797 0)"/>
      <use xlink:href="#DejaVuSans-65" transform="translate(380.175781 0)"/>
      <use xlink:href="#DejaVuSans-64" transform="translate(441.699219 0)"/>
      <use xlink:href="#DejaVuSans-20" transform="translate(505.175781 0)"/>
      <use xlink:href="#DejaVuSans-63" transform="translate(536.962891 0)"/>
      <use xlink:href="#DejaVuSans-6f" transform="translate(591.943359 0)"/>
      <use xlink:href="#DejaVuSans-65" transform="translate(653.125 0)"/>
      <use xlink:href="#DejaVuSans-66" transform="translate(714.648438 0)"/>
      <use xlink:href="#DejaVuSans-66" transform="translate(749.853516 0)"/>
      <use xlink:href="#DejaVuSans-69" transform="translate(785.058594 0)"/>
      <use xlink:href="#DejaVuSans-63" transform="translate(812.841797 0)"/>
      <use xlink:href="#DejaVuSans-69" transform="translate(867.822266 0)"/>
      <use xlink:href="#DejaVuSans-65" transform="translate(895.605469 0)"/>
      <use xlink:href="#DejaVuSans-6e" transform="translate(957.128906 0)"/>
      <use xlink:href="#DejaVuSans-74" transform="translate(1020.507812 0)"/>
      <use xlink:href="#DejaVuSans-20" transform="translate(1059.716797 0)"/>
      <use xlink:href="#DejaVuSans-6f" transform="translate(1091.503906 0)"/>
      <use xlink:href="#DejaVuSans-66" transform="translate(1152.685547 0)"/>
      <use xlink:href="#DejaVuSans-20" transform="translate(1187.890625 0)"/>
      <use xlink:href="#DejaVuSans-74" transform="translate(1219.677734 0)"/>
      <use xlink:href="#DejaVuSans-72" transform="translate(1258.886719 0)"/>
      <use xlink:href="#DejaVuSans-65" transform="translate(1297.75 0)"/>
      <use xlink:href="#DejaVuSans-61" transform="translate(1359.273438 0)"/>
      <use xlink:href="#DejaVuSans-74" transform="translate(1420.552734 0)"/>
      <use xlink:href="#DejaVuSans-5f" transform="translate(1459.761719 0)"/>
      <use xlink:href="#DejaVuSans-73" transform="translate(1509.761719 0)"/>
      <use xlink:href="#DejaVuSans-68" transform="translate(1561.861328 0)"/>
      <use xlink:href="#DejaVuSans-61" transform="translate(1625.240234 0)"/>
      <use xlink:href="#DejaVuSans-72" transform="translate(1686.519531 0)"/>
      <use xlink:href="#DejaVuSans-65" transform="translate(1725.382812 0)"/>
      <use xlink:href="#DejaVuSans-20" transform="translate(1786.90625 0)"/>
      <use xlink:href="#DejaVuSans-28" transform="translate(1818.693359 0)"/>
      <use xlink:href="#DejaVuSans-39" transform="translate(1857.707031 0)"/>
      <use xlink:href="#DejaVuSans-35" transform="translate(1921.330078 0)"/>
      <use xlink:href="#DejaVuSans-25" transform="translate(1984.953125 0)"/>
      <use xlink:href="#DejaVuSans-20" transform="translate(2079.972656 0)"/>
      <use xlink:href="#DejaVuSans-43" transform="translate(2111.759766 0)"/>
      <use xlink:href="#DejaVuSans-49" transform="translate(2181.583984 0)"/>
      <use xlink:href="#DejaVuSans-29" transform="translate(2211.076172 0)"/>
     </g>
    </g>
   </g>
   <g id="matplotlib.axis_2">
    <g id="ytick_1">
     <g id="text_9">
      <!-- Execution share -->
      <g style="fill: #262626" transform="translate(106.406969 322.20476) scale(0.11 -0.11)">
       <defs>
        <path id="DejaVuSans-78" d="M 3513 3500 
L 2247 1797 
L 3578 0 
L 2900 0 
L 1881 1375 
L 863 0 
L 184 0 
L 1544 1831 
L 300 3500 
L 978 3500 
L 1906 2253 
L 2834 3500 
L 3513 3500 
z
" transform="scale(0.015625)"/>
        <path id="DejaVuSans-75" d="M 544 1381 
L 544 3500 
L 1119 3500 
L 1119 1403 
Q 1119 906 1312 657 
Q 1506 409 1894 409 
Q 2359 409 2629 706 
Q 2900 1003 2900 1516 
L 2900 3500 
L 3475 3500 
L 3475 0 
L 2900 0 
L 2900 538 
Q 2691 219 2414 64 
Q 2138 -91 1772 -91 
Q 1169 -91 856 284 
Q 544 659 544 1381 
z
M 1991 3584 
L 1991 3584 
z
" transform="scale(0.015625)"/>
       </defs>
       <use xlink:href="#DejaVuSans-45"/>
       <use xlink:href="#DejaVuSans-78" transform="translate(63.183594 0)"/>
       <use xlink:href="#DejaVuSans-65" transform="translate(119.238281 0)"/>
       <use xlink:href="#DejaVuSans-63" transform="translate(180.761719 0)"/>
       <use xlink:href="#DejaVuSans-75" transform="translate(235.742188 0)"/>
       <use xlink:href="#DejaVuSans-74" transform="translate(299.121094 0)"/>
       <use xlink:href="#DejaVuSans-69" transform="translate(338.330078 0)"/>
       <use xlink:href="#DejaVuSans-6f" transform="translate(366.113281 0)"/>
       <use xlink:href="#DejaVuSans-6e" transform="translate(427.294922 0)"/>
       <use xlink:href="#DejaVuSans-20" transform="translate(490.673828 0)"/>
       <use xlink:href="#DejaVuSans-73" transform="translate(522.460938 0)"/>
       <use xlink:href="#DejaVuSans-68" transform="translate(574.560547 0)"/>
       <use xlink:href="#DejaVuSans-61" transform="translate(637.939453 0)"/>
       <use xlink:href="#DejaVuSans-72" transform="translate(699.21875 0)"/>
       <use xlink:href="#DejaVuSans-65" transform="translate(738.082031 0)"/>
      </g>
     </g>
    </g>
    <g id="ytick_2">
     <g id="text_10">
      <!-- Procurement share -->
      <g style="fill: #262626" transform="translate(90.108062 252.160044) scale(0.11 -0.11)">
       <defs>
        <path id="DejaVuSans-50" d="M 1259 4147 
L 1259 2394 
L 2053 2394 
Q 2494 2394 2734 2622 
Q 2975 2850 2975 3272 
Q 2975 3691 2734 3919 
Q 2494 4147 2053 4147 
L 1259 4147 
z
M 628 4666 
L 2053 4666 
Q 2838 4666 3239 4311 
Q 3641 3956 3641 3272 
Q 3641 2581 3239 2228 
Q 2838 1875 2053 1875 
L 1259 1875 
L 1259 0 
L 628 0 
L 628 4666 
z
" transform="scale(0.015625)"/>
       </defs>
       <use xlink:href="#DejaVuSans-50"/>
       <use xlink:href="#DejaVuSans-72" transform="translate(58.552734 0)"/>
       <use xlink:href="#DejaVuSans-6f" transform="translate(97.416016 0)"/>
       <use xlink:href="#DejaVuSans-63" transform="translate(158.597656 0)"/>
       <use xlink:href="#DejaVuSans-75" transform="translate(213.578125 0)"/>
       <use xlink:href="#DejaVuSans-72" transform="translate(276.957031 0)"/>
       <use xlink:href="#DejaVuSans-65" transform="translate(315.820312 0)"/>
       <use xlink:href="#DejaVuSans-6d" transform="translate(377.34375 0)"/>
       <use xlink:href="#DejaVuSans-65" transform="translate(474.755859 0)"/>
       <use xlink:href="#DejaVuSans-6e" transform="translate(536.279297 0)"/>
       <use xlink:href="#DejaVuSans-74" transform="translate(599.658203 0)"/>
       <use xlink:href="#DejaVuSans-20" transform="translate(638.867188 0)"/>
       <use xlink:href="#DejaVuSans-73" transform="translate(670.654297 0)"/>
       <use xlink:href="#DejaVuSans-68" transform="translate(722.753906 0)"/>
       <use xlink:href="#DejaVuSans-61" transform="translate(786.132812 0)"/>
       <use xlink:href="#DejaVuSans-72" transform="translate(847.412109 0)"/>
       <use xlink:href="#DejaVuSans-65" transform="translate(886.275391 0)"/>
      </g>
     </g>
    </g>
    <g id="ytick_3">
     <g id="text_11">
      <!-- Preparation share -->
      <g style="fill: #262626" transform="translate(96.842125 182.115328) scale(0.11 -0.11)">
       <defs>
        <path id="DejaVuSans-70" d="M 1159 525 
L 1159 -1331 
L 581 -1331 
L 581 3500 
L 1159 3500 
L 1159 2969 
Q 1341 3281 1617 3432 
Q 1894 3584 2278 3584 
Q 2916 3584 3314 3078 
Q 3713 2572 3713 1747 
Q 3713 922 3314 415 
Q 2916 -91 2278 -91 
Q 1894 -91 1617 61 
Q 1341 213 1159 525 
z
M 3116 1747 
Q 3116 2381 2855 2742 
Q 2594 3103 2138 3103 
Q 1681 3103 1420 2742 
Q 1159 2381 1159 1747 
Q 1159 1113 1420 752 
Q 1681 391 2138 391 
Q 2594 391 2855 752 
Q 3116 1113 3116 1747 
z
" transform="scale(0.015625)"/>
       </defs>
       <use xlink:href="#DejaVuSans-50"/>
       <use xlink:href="#DejaVuSans-72" transform="translate(58.552734 0)"/>
       <use xlink:href="#DejaVuSans-65" transform="translate(97.416016 0)"/>
       <use xlink:href="#DejaVuSans-70" transform="translate(158.939453 0)"/>
       <use xlink:href="#DejaVuSans-61" transform="translate(222.416016 0)"/>
       <use xlink:href="#DejaVuSans-72" transform="translate(283.695312 0)"/>
       <use xlink:href="#DejaVuSans-61" transform="translate(324.808594 0)"/>
       <use xlink:href="#DejaVuSans-74" transform="translate(386.087891 0)"/>
       <use xlink:href="#DejaVuSans-69" transform="translate(425.296875 0)"/>
       <use xlink:href="#DejaVuSans-6f" transform="translate(453.080078 0)"/>
       <use xlink:href="#DejaVuSans-6e" transform="translate(514.261719 0)"/>
       <use xlink:href="#DejaVuSans-20" transform="translate(577.640625 0)"/>
       <use xlink:href="#DejaVuSans-73" transform="translate(609.427734 0)"/>
       <use xlink:href="#DejaVuSans-68" transform="translate(661.527344 0)"/>
       <use xlink:href="#DejaVuSans-61" transform="translate(724.90625 0)"/>
       <use xlink:href="#DejaVuSans-72" transform="translate(786.185547 0)"/>
       <use xlink:href="#DejaVuSans-65" transform="translate(825.048828 0)"/>
      </g>
     </g>
    </g>
    <g id="ytick_4">
     <g id="text_12">
      <!-- Governance quality (PCA rebuilt) -->
      <g style="fill: #262626" transform="translate(14.039625 112.070612) scale(0.11 -0.11)">
       <defs>
        <path id="DejaVuSans-47" d="M 3809 666 
L 3809 1919 
L 2778 1919 
L 2778 2438 
L 4434 2438 
L 4434 434 
Q 4069 175 3628 42 
Q 3188 -91 2688 -91 
Q 1594 -91 976 548 
Q 359 1188 359 2328 
Q 359 3472 976 4111 
Q 1594 4750 2688 4750 
Q 3144 4750 3555 4637 
Q 3966 4525 4313 4306 
L 4313 3634 
Q 3963 3931 3569 4081 
Q 3175 4231 2741 4231 
Q 1884 4231 1454 3753 
Q 1025 3275 1025 2328 
Q 1025 1384 1454 906 
Q 1884 428 2741 428 
Q 3075 428 3337 486 
Q 3600 544 3809 666 
z
" transform="scale(0.015625)"/>
        <path id="DejaVuSans-76" d="M 191 3500 
L 800 3500 
L 1894 563 
L 2988 3500 
L 3597 3500 
L 2284 0 
L 1503 0 
L 191 3500 
z
" transform="scale(0.015625)"/>
        <path id="DejaVuSans-71" d="M 947 1747 
Q 947 1113 1208 752 
Q 1469 391 1925 391 
Q 2381 391 2643 752 
Q 2906 1113 2906 1747 
Q 2906 2381 2643 2742 
Q 2381 3103 1925 3103 
Q 1469 3103 1208 2742 
Q 947 2381 947 1747 
z
M 2906 525 
Q 2725 213 2448 61 
Q 2172 -91 1784 -91 
Q 1150 -91 751 415 
Q 353 922 353 1747 
Q 353 2572 751 3078 
Q 1150 3584 1784 3584 
Q 2172 3584 2448 3432 
Q 2725 3281 2906 2969 
L 2906 3500 
L 3481 3500 
L 3481 -1331 
L 2906 -1331 
L 2906 525 
z
" transform="scale(0.015625)"/>
        <path id="DejaVuSans-6c" d="M 603 4863 
L 1178 4863 
L 1178 0 
L 603 0 
L 603 4863 
z
" transform="scale(0.015625)"/>
        <path id="DejaVuSans-79" d="M 2059 -325 
Q 1816 -950 1584 -1140 
Q 1353 -1331 966 -1331 
L 506 -1331 
L 506 -850 
L 844 -850 
Q 1081 -850 1212 -737 
Q 1344 -625 1503 -206 
L 1606 56 
L 191 3500 
L 800 3500 
L 1894 763 
L 2988 3500 
L 3597 3500 
L 2059 -325 
z
" transform="scale(0.015625)"/>
        <path id="DejaVuSans-41" d="M 2188 4044 
L 1331 1722 
L 3047 1722 
L 2188 4044 
z
M 1831 4666 
L 2547 4666 
L 4325 0 
L 3669 0 
L 3244 1197 
L 1141 1197 
L 716 0 
L 50 0 
L 1831 4666 
z
" transform="scale(0.015625)"/>
        <path id="DejaVuSans-62" d="M 3116 1747 
Q 3116 2381 2855 2742 
Q 2594 3103 2138 3103 
Q 1681 3103 1420 2742 
Q 1159 2381 1159 1747 
Q 1159 1113 1420 752 
Q 1681 391 2138 391 
Q 2594 391 2855 752 
Q 3116 1113 3116 1747 
z
M 1159 2969 
Q 1341 3281 1617 3432 
Q 1894 3584 2278 3584 
Q 2916 3584 3314 3078 
Q 3713 2572 3713 1747 
Q 3713 922 3314 415 
Q 2916 -91 2278 -91 
Q 1894 -91 1617 61 
Q 1341 213 1159 525 
L 1159 0 
L 581 0 
L 581 4863 
L 1159 4863 
L 1159 2969 
z
" transform="scale(0.015625)"/>
       </defs>
       <use xlink:href="#DejaVuSans-47"/>
       <use xlink:href="#DejaVuSans-6f" transform="translate(77.490234 0)"/>
       <use xlink:href="#DejaVuSans-76" transform="translate(138.671875 0)"/>
       <use xlink:href="#DejaVuSans-65" transform="translate(197.851562 0)"/>
       <use xlink:href="#DejaVuSans-72" transform="translate(259.375 0)"/>
       <use xlink:href="#DejaVuSans-6e" transform="translate(298.738281 0)"/>
       <use xlink:href="#DejaVuSans-61" transform="translate(362.117188 0)"/>
       <use xlink:href="#DejaVuSans-6e" transform="translate(423.396484 0)"/>
       <use xlink:href="#DejaVuSans-63" transform="translate(486.775391 0)"/>
       <use xlink:href="#DejaVuSans-65" transform="translate(541.755859 0)"/>
       <use xlink:href="#DejaVuSans-20" transform="translate(603.279297 0)"/>
       <use xlink:href="#DejaVuSans-71" transform="translate(635.066406 0)"/>
       <use xlink:href="#DejaVuSans-75" transform="translate(698.542969 0)"/>
       <use xlink:href="#DejaVuSans-61" transform="translate(761.921875 0)"/>
       <use xlink:href="#DejaVuSans-6c" transform="translate(823.201172 0)"/>
       <use xlink:href="#DejaVuSans-69" transform="translate(850.984375 0)"/>
       <use xlink:href="#DejaVuSans-74" transform="translate(878.767578 0)"/>
       <use xlink:href="#DejaVuSans-79" transform="translate(917.976562 0)"/>
       <use xlink:href="#DejaVuSans-20" transform="translate(977.15625 0)"/>
       <use xlink:href="#DejaVuSans-28" transform="translate(1008.943359 0)"/>
       <use xlink:href="#DejaVuSans-50" transform="translate(1047.957031 0)"/>
       <use xlink:href="#DejaVuSans-43" transform="translate(1108.259766 0)"/>
       <use xlink:href="#DejaVuSans-41" transform="translate(1178.083984 0)"/>
       <use xlink:href="#DejaVuSans-20" transform="translate(1246.492188 0)"/>
       <use xlink:href="#DejaVuSans-72" transform="translate(1278.279297 0)"/>
       <use xlink:href="#DejaVuSans-65" transform="translate(1317.142578 0)"/>
       <use xlink:href="#DejaVuSans-62" transform="translate(1378.666016 0)"/>
       <use xlink:href="#DejaVuSans-75" transform="translate(1442.142578 0)"/>
       <use xlink:href="#DejaVuSans-69" transform="translate(1505.521484 0)"/>
       <use xlink:href="#DejaVuSans-6c" transform="translate(1533.304688 0)"/>
       <use xlink:href="#DejaVuSans-74" transform="translate(1561.087891 0)"/>
       <use xlink:href="#DejaVuSans-29" transform="translate(1600.296875 0)"/>
      </g>
     </g>
    </g>
    <g id="ytick_5">
     <g id="text_13">
      <!-- Governance quality (Z-index) -->
      <g style="fill: #262626" transform="translate(33.387594 42.025896) scale(0.11 -0.11)">
       <defs>
        <path id="DejaVuSans-5a" d="M 359 4666 
L 4025 4666 
L 4025 4184 
L 1075 531 
L 4097 531 
L 4097 0 
L 288 0 
L 288 481 
L 3238 4134 
L 359 4134 
L 359 4666 
z
" transform="scale(0.015625)"/>
       </defs>
       <use xlink:href="#DejaVuSans-47"/>
       <use xlink:href="#DejaVuSans-6f" transform="translate(77.490234 0)"/>
       <use xlink:href="#DejaVuSans-76" transform="translate(138.671875 0)"/>
       <use xlink:href="#DejaVuSans-65" transform="translate(197.851562 0)"/>
       <use xlink:href="#DejaVuSans-72" transform="translate(259.375 0)"/>
       <use xlink:href="#DejaVuSans-6e" transform="translate(298.738281 0)"/>
       <use xlink:href="#DejaVuSans-61" transform="translate(362.117188 0)"/>
       <use xlink:href="#DejaVuSans-6e" transform="translate(423.396484 0)"/>
       <use xlink:href="#DejaVuSans-63" transform="translate(486.775391 0)"/>
       <use xlink:href="#DejaVuSans-65" transform="translate(541.755859 0)"/>
       <use xlink:href="#DejaVuSans-20" transform="translate(603.279297 0)"/>
       <use xlink:href="#DejaVuSans-71" transform="translate(635.066406 0)"/>
       <use xlink:href="#DejaVuSans-75" transform="translate(698.542969 0)"/>
       <use xlink:href="#DejaVuSans-61" transform="translate(761.921875 0)"/>
       <use xlink:href="#DejaVuSans-6c" transform="translate(823.201172 0)"/>
       <use xlink:href="#DejaVuSans-69" transform="translate(850.984375 0)"/>
       <use xlink:href="#DejaVuSans-74" transform="translate(878.767578 0)"/>
       <use xlink:href="#DejaVuSans-79" transform="translate(917.976562 0)"/>
       <use xlink:href="#DejaVuSans-20" transform="translate(977.15625 0)"/>
       <use xlink:href="#DejaVuSans-28" transform="translate(1008.943359 0)"/>
       <use xlink:href="#DejaVuSans-5a" transform="translate(1047.957031 0)"/>
       <use xlink:href="#DejaVuSans-2d" transform="translate(1114.712891 0)"/>
       <use xlink:href="#DejaVuSans-69" transform="translate(1150.796875 0)"/>
       <use xlink:href="#DejaVuSans-6e" transform="translate(1178.580078 0)"/>
       <use xlink:href="#DejaVuSans-64" transform="translate(1241.958984 0)"/>
       <use xlink:href="#DejaVuSans-65" transform="translate(1305.435547 0)"/>
       <use xlink:href="#DejaVuSans-78" transform="translate(1365.208984 0)"/>
       <use xlink:href="#DejaVuSans-29" transform="translate(1424.388672 0)"/>
      </g>
     </g>
    </g>
   </g>
   <g id="line2d_1">
    <path d="M 293.147415 332.034562 
L 293.147415 23.837812 
" clip-path="url(#p28c0a23d95)" style="fill: none; stroke: #d9d9d9; stroke-width: 1.2; stroke-linecap: round"/>
   </g>
   <g id="line2d_2">
    <path d="M 312.150357 318.025619 
L 358.42534 318.025619 
" clip-path="url(#p28c0a23d95)" style="fill: none; stroke: #355c7d; stroke-width: 2; stroke-linecap: round"/>
   </g>
   <g id="line2d_3">
    <path d="M 222.087545 247.980903 
L 269.028869 247.980903 
" clip-path="url(#p28c0a23d95)" style="fill: none; stroke: #7b3f46; stroke-width: 2; stroke-linecap: round"/>
   </g>
   <g id="line2d_4">
    <path d="M 288.903467 177.936187 
L 308.288913 177.936187 
" clip-path="url(#p28c0a23d95)" style="fill: none; stroke: #355c7d; stroke-width: 2; stroke-linecap: round"/>
   </g>
   <g id="line2d_5">
    <path d="M 365.920775 107.891472 
L 586.558455 107.891472 
" clip-path="url(#p28c0a23d95)" style="fill: none; stroke: #355c7d; stroke-width: 2; stroke-linecap: round"/>
   </g>
   <g id="line2d_6">
    <path d="M 250.735577 37.846756 
L 457.919323 37.846756 
" clip-path="url(#p28c0a23d95)" style="fill: none; stroke: #355c7d; stroke-width: 2; stroke-linecap: round"/>
   </g>
   <g id="patch_3">
    <path d="M 203.864 332.034562 
L 604.782 332.034562 
" style="fill: none; stroke: #262626; stroke-width: 1.25; stroke-linejoin: miter; stroke-linecap: square"/>
   </g>
   <g id="PathCollection_1">
    <defs>
     <path id="m8dbfea525a" d="M 0 3.605551 
C 0.956203 3.605551 1.873372 3.225648 2.54951 2.54951 
C 3.225648 1.873372 3.605551 0.956203 3.605551 0 
C 3.605551 -0.956203 3.225648 -1.873372 2.54951 -2.54951 
C 1.873372 -3.225648 0.956203 -3.605551 0 -3.605551 
C -0.956203 -3.605551 -1.873372 -3.225648 -2.54951 -2.54951 
C -3.225648 -1.873372 -3.605551 -0.956203 -3.605551 0 
C -3.605551 0.956203 -3.225648 1.873372 -2.54951 2.54951 
C -1.873372 3.225648 -0.956203 3.605551 0 3.605551 
z
" style="stroke: #355c7d"/>
    </defs>
    <g clip-path="url(#p28c0a23d95)">
     <use xlink:href="#m8dbfea525a" x="335.287849" y="318.025619" style="fill: #355c7d; stroke: #355c7d"/>
    </g>
   </g>
   <g id="text_14">
    <!-- 0.360 -->
    <g style="fill: #505050" transform="translate(369.359467 320.509057) scale(0.09 -0.09)">
     <defs>
      <path id="DejaVuSans-33" d="M 2597 2516 
Q 3050 2419 3304 2112 
Q 3559 1806 3559 1356 
Q 3559 666 3084 287 
Q 2609 -91 1734 -91 
Q 1441 -91 1130 -33 
Q 819 25 488 141 
L 488 750 
Q 750 597 1062 519 
Q 1375 441 1716 441 
Q 2309 441 2620 675 
Q 2931 909 2931 1356 
Q 2931 1769 2642 2001 
Q 2353 2234 1838 2234 
L 1294 2234 
L 1294 2753 
L 1863 2753 
Q 2328 2753 2575 2939 
Q 2822 3125 2822 3475 
Q 2822 3834 2567 4026 
Q 2313 4219 1838 4219 
Q 1578 4219 1281 4162 
Q 984 4106 628 3988 
L 628 4550 
Q 988 4650 1302 4700 
Q 1616 4750 1894 4750 
Q 2613 4750 3031 4423 
Q 3450 4097 3450 3541 
Q 3450 3153 3228 2886 
Q 3006 2619 2597 2516 
z
" transform="scale(0.015625)"/>
      <path id="DejaVuSans-36" d="M 2113 2584 
Q 1688 2584 1439 2293 
Q 1191 2003 1191 1497 
Q 1191 994 1439 701 
Q 1688 409 2113 409 
Q 2538 409 2786 701 
Q 3034 994 3034 1497 
Q 3034 2003 2786 2293 
Q 2538 2584 2113 2584 
z
M 3366 4563 
L 3366 3988 
Q 3128 4100 2886 4159 
Q 2644 4219 2406 4219 
Q 1781 4219 1451 3797 
Q 1122 3375 1075 2522 
Q 1259 2794 1537 2939 
Q 1816 3084 2150 3084 
Q 2853 3084 3261 2657 
Q 3669 2231 3669 1497 
Q 3669 778 3244 343 
Q 2819 -91 2113 -91 
Q 1303 -91 875 529 
Q 447 1150 447 2328 
Q 447 3434 972 4092 
Q 1497 4750 2381 4750 
Q 2619 4750 2861 4703 
Q 3103 4656 3366 4563 
z
" transform="scale(0.015625)"/>
     </defs>
     <use xlink:href="#DejaVuSans-30"/>
     <use xlink:href="#DejaVuSans-2e" transform="translate(63.623047 0)"/>
     <use xlink:href="#DejaVuSans-33" transform="translate(95.410156 0)"/>
     <use xlink:href="#DejaVuSans-36" transform="translate(159.033203 0)"/>
     <use xlink:href="#DejaVuSans-30" transform="translate(222.65625 0)"/>
    </g>
   </g>
   <g id="PathCollection_2">
    <defs>
     <path id="mcc90cbfbf1" d="M 0 3.605551 
C 0.956203 3.605551 1.873372 3.225648 2.54951 2.54951 
C 3.225648 1.873372 3.605551 0.956203 3.605551 0 
C 3.605551 -0.956203 3.225648 -1.873372 2.54951 -2.54951 
C 1.873372 -3.225648 0.956203 -3.605551 0 -3.605551 
C -0.956203 -3.605551 -1.873372 -3.225648 -2.54951 -2.54951 
C -3.225648 -1.873372 -3.605551 -0.956203 -3.605551 0 
C -3.605551 0.956203 -3.225648 1.873372 -2.54951 2.54951 
C -1.873372 3.225648 -0.956203 3.605551 0 3.605551 
z
" style="stroke: #7b3f46"/>
    </defs>
    <g clip-path="url(#p28c0a23d95)">
     <use xlink:href="#mcc90cbfbf1" x="245.558207" y="247.980903" style="fill: #7b3f46; stroke: #7b3f46"/>
    </g>
   </g>
   <g id="text_15">
    <!-- -0.407 -->
    <g style="fill: #505050" transform="translate(279.962997 250.464341) scale(0.09 -0.09)">
     <defs>
      <path id="DejaVuSans-34" d="M 2419 4116 
L 825 1625 
L 2419 1625 
L 2419 4116 
z
M 2253 4666 
L 3047 4666 
L 3047 1625 
L 3713 1625 
L 3713 1100 
L 3047 1100 
L 3047 0 
L 2419 0 
L 2419 1100 
L 313 1100 
L 313 1709 
L 2253 4666 
z
" transform="scale(0.015625)"/>
      <path id="DejaVuSans-37" d="M 525 4666 
L 3525 4666 
L 3525 4397 
L 1831 0 
L 1172 0 
L 2766 4134 
L 525 4134 
L 525 4666 
z
" transform="scale(0.015625)"/>
     </defs>
     <use xlink:href="#DejaVuSans-2d"/>
     <use xlink:href="#DejaVuSans-30" transform="translate(36.083984 0)"/>
     <use xlink:href="#DejaVuSans-2e" transform="translate(99.707031 0)"/>
     <use xlink:href="#DejaVuSans-34" transform="translate(131.494141 0)"/>
     <use xlink:href="#DejaVuSans-30" transform="translate(195.117188 0)"/>
     <use xlink:href="#DejaVuSans-37" transform="translate(258.740234 0)"/>
    </g>
   </g>
   <g id="PathCollection_3">
    <g clip-path="url(#p28c0a23d95)">
     <use xlink:href="#m8dbfea525a" x="298.59619" y="177.936187" style="fill: #355c7d; stroke: #355c7d"/>
    </g>
   </g>
   <g id="text_16">
    <!-- 0.047 -->
    <g style="fill: #505050" transform="translate(319.22304 180.419625) scale(0.09 -0.09)">
     <use xlink:href="#DejaVuSans-30"/>
     <use xlink:href="#DejaVuSans-2e" transform="translate(63.623047 0)"/>
     <use xlink:href="#DejaVuSans-30" transform="translate(95.410156 0)"/>
     <use xlink:href="#DejaVuSans-34" transform="translate(159.033203 0)"/>
     <use xlink:href="#DejaVuSans-37" transform="translate(222.65625 0)"/>
    </g>
   </g>
   <g id="PathCollection_4">
    <g clip-path="url(#p28c0a23d95)">
     <use xlink:href="#m8dbfea525a" x="476.239615" y="107.891472" style="fill: #355c7d; stroke: #355c7d"/>
    </g>
   </g>
   <g id="text_17">
    <!-- 1.564 -->
    <g style="fill: #505050" transform="translate(597.492582 110.374909) scale(0.09 -0.09)">
     <use xlink:href="#DejaVuSans-31"/>
     <use xlink:href="#DejaVuSans-2e" transform="translate(63.623047 0)"/>
     <use xlink:href="#DejaVuSans-35" transform="translate(95.410156 0)"/>
     <use xlink:href="#DejaVuSans-36" transform="translate(159.033203 0)"/>
     <use xlink:href="#DejaVuSans-34" transform="translate(222.65625 0)"/>
    </g>
   </g>
   <g id="PathCollection_5">
    <g clip-path="url(#p28c0a23d95)">
     <use xlink:href="#m8dbfea525a" x="354.32745" y="37.846756" style="fill: #355c7d; stroke: #355c7d"/>
    </g>
   </g>
   <g id="text_18">
    <!-- 0.523 -->
    <g style="fill: #505050" transform="translate(468.85345 40.330193) scale(0.09 -0.09)">
     <use xlink:href="#DejaVuSans-30"/>
     <use xlink:href="#DejaVuSans-2e" transform="translate(63.623047 0)"/>
     <use xlink:href="#DejaVuSans-35" transform="translate(95.410156 0)"/>
     <use xlink:href="#DejaVuSans-32" transform="translate(159.033203 0)"/>
     <use xlink:href="#DejaVuSans-33" transform="translate(222.65625 0)"/>
    </g>
   </g>
   <g id="text_19">
    <!-- Figure 5-3. Baseline DID estimates for core outcomes -->
    <g style="fill: #262626" transform="translate(203.864 17.837812) scale(0.14 -0.14)">
     <defs>
      <path id="DejaVuSans-Bold-46" d="M 588 4666 
L 3834 4666 
L 3834 3756 
L 1791 3756 
L 1791 2888 
L 3713 2888 
L 3713 1978 
L 1791 1978 
L 1791 0 
L 588 0 
L 588 4666 
z
" transform="scale(0.015625)"/>
      <path id="DejaVuSans-Bold-69" d="M 538 3500 
L 1656 3500 
L 1656 0 
L 538 0 
L 538 3500 
z
M 538 4863 
L 1656 4863 
L 1656 3950 
L 538 3950 
L 538 4863 
z
" transform="scale(0.015625)"/>
      <path id="DejaVuSans-Bold-67" d="M 2919 594 
Q 2688 288 2409 144 
Q 2131 0 1766 0 
Q 1125 0 706 504 
Q 288 1009 288 1791 
Q 288 2575 706 3076 
Q 1125 3578 1766 3578 
Q 2131 3578 2409 3434 
Q 2688 3291 2919 2981 
L 2919 3500 
L 4044 3500 
L 4044 353 
Q 4044 -491 3511 -936 
Q 2978 -1381 1966 -1381 
Q 1638 -1381 1331 -1331 
Q 1025 -1281 716 -1178 
L 716 -306 
Q 1009 -475 1290 -558 
Q 1572 -641 1856 -641 
Q 2406 -641 2662 -400 
Q 2919 -159 2919 353 
L 2919 594 
z
M 2181 2772 
Q 1834 2772 1640 2515 
Q 1447 2259 1447 1791 
Q 1447 1309 1634 1061 
Q 1822 813 2181 813 
Q 2531 813 2725 1069 
Q 2919 1325 2919 1791 
Q 2919 2259 2725 2515 
Q 2531 2772 2181 2772 
z
" transform="scale(0.015625)"/>
      <path id="DejaVuSans-Bold-75" d="M 500 1363 
L 500 3500 
L 1625 3500 
L 1625 3150 
Q 1625 2866 1622 2436 
Q 1619 2006 1619 1863 
Q 1619 1441 1641 1255 
Q 1663 1069 1716 984 
Q 1784 875 1895 815 
Q 2006 756 2150 756 
Q 2500 756 2700 1025 
Q 2900 1294 2900 1772 
L 2900 3500 
L 4019 3500 
L 4019 0 
L 2900 0 
L 2900 506 
Q 2647 200 2364 54 
Q 2081 -91 1741 -91 
Q 1134 -91 817 281 
Q 500 653 500 1363 
z
" transform="scale(0.015625)"/>
      <path id="DejaVuSans-Bold-72" d="M 3138 2547 
Q 2991 2616 2845 2648 
Q 2700 2681 2553 2681 
Q 2122 2681 1889 2404 
Q 1656 2128 1656 1613 
L 1656 0 
L 538 0 
L 538 3500 
L 1656 3500 
L 1656 2925 
Q 1872 3269 2151 3426 
Q 2431 3584 2822 3584 
Q 2878 3584 2943 3579 
Q 3009 3575 3134 3559 
L 3138 2547 
z
" transform="scale(0.015625)"/>
      <path id="DejaVuSans-Bold-65" d="M 4031 1759 
L 4031 1441 
L 1416 1441 
Q 1456 1047 1700 850 
Q 1944 653 2381 653 
Q 2734 653 3104 758 
Q 3475 863 3866 1075 
L 3866 213 
Q 3469 63 3072 -14 
Q 2675 -91 2278 -91 
Q 1328 -91 801 392 
Q 275 875 275 1747 
Q 275 2603 792 3093 
Q 1309 3584 2216 3584 
Q 3041 3584 3536 3087 
Q 4031 2591 4031 1759 
z
M 2881 2131 
Q 2881 2450 2695 2645 
Q 2509 2841 2209 2841 
Q 1884 2841 1681 2658 
Q 1478 2475 1428 2131 
L 2881 2131 
z
" transform="scale(0.015625)"/>
      <path id="DejaVuSans-Bold-20" transform="scale(0.015625)"/>
      <path id="DejaVuSans-Bold-35" d="M 678 4666 
L 3669 4666 
L 3669 3781 
L 1638 3781 
L 1638 3059 
Q 1775 3097 1914 3117 
Q 2053 3138 2203 3138 
Q 3056 3138 3531 2711 
Q 4006 2284 4006 1522 
Q 4006 766 3489 337 
Q 2972 -91 2053 -91 
Q 1656 -91 1267 -14 
Q 878 63 494 219 
L 494 1166 
Q 875 947 1217 837 
Q 1559 728 1863 728 
Q 2300 728 2551 942 
Q 2803 1156 2803 1522 
Q 2803 1891 2551 2103 
Q 2300 2316 1863 2316 
Q 1603 2316 1309 2248 
Q 1016 2181 678 2041 
L 678 4666 
z
" transform="scale(0.015625)"/>
      <path id="DejaVuSans-Bold-2d" d="M 347 2297 
L 2309 2297 
L 2309 1388 
L 347 1388 
L 347 2297 
z
" transform="scale(0.015625)"/>
      <path id="DejaVuSans-Bold-33" d="M 2981 2516 
Q 3453 2394 3698 2092 
Q 3944 1791 3944 1325 
Q 3944 631 3412 270 
Q 2881 -91 1863 -91 
Q 1503 -91 1142 -33 
Q 781 25 428 141 
L 428 1069 
Q 766 900 1098 814 
Q 1431 728 1753 728 
Q 2231 728 2486 893 
Q 2741 1059 2741 1369 
Q 2741 1688 2480 1852 
Q 2219 2016 1709 2016 
L 1228 2016 
L 1228 2791 
L 1734 2791 
Q 2188 2791 2409 2933 
Q 2631 3075 2631 3366 
Q 2631 3634 2415 3781 
Q 2200 3928 1806 3928 
Q 1516 3928 1219 3862 
Q 922 3797 628 3669 
L 628 4550 
Q 984 4650 1334 4700 
Q 1684 4750 2022 4750 
Q 2931 4750 3382 4451 
Q 3834 4153 3834 3553 
Q 3834 3144 3618 2883 
Q 3403 2622 2981 2516 
z
" transform="scale(0.015625)"/>
      <path id="DejaVuSans-Bold-2e" d="M 653 1209 
L 1778 1209 
L 1778 0 
L 653 0 
L 653 1209 
z
" transform="scale(0.015625)"/>
      <path id="DejaVuSans-Bold-42" d="M 2456 2859 
Q 2741 2859 2887 2984 
Q 3034 3109 3034 3353 
Q 3034 3594 2887 3720 
Q 2741 3847 2456 3847 
L 1791 3847 
L 1791 2859 
L 2456 2859 
z
M 2497 819 
Q 2859 819 3042 972 
Q 3225 1125 3225 1434 
Q 3225 1738 3044 1889 
Q 2863 2041 2497 2041 
L 1791 2041 
L 1791 819 
L 2497 819 
z
M 3616 2497 
Q 4003 2384 4215 2081 
Q 4428 1778 4428 1338 
Q 4428 663 3972 331 
Q 3516 0 2584 0 
L 588 0 
L 588 4666 
L 2394 4666 
Q 3366 4666 3802 4372 
Q 4238 4078 4238 3431 
Q 4238 3091 4078 2852 
Q 3919 2613 3616 2497 
z
" transform="scale(0.015625)"/>
      <path id="DejaVuSans-Bold-61" d="M 2106 1575 
Q 1756 1575 1579 1456 
Q 1403 1338 1403 1106 
Q 1403 894 1545 773 
Q 1688 653 1941 653 
Q 2256 653 2472 879 
Q 2688 1106 2688 1447 
L 2688 1575 
L 2106 1575 
z
M 3816 1997 
L 3816 0 
L 2688 0 
L 2688 519 
Q 2463 200 2181 54 
Q 1900 -91 1497 -91 
Q 953 -91 614 226 
Q 275 544 275 1050 
Q 275 1666 698 1953 
Q 1122 2241 2028 2241 
L 2688 2241 
L 2688 2328 
Q 2688 2594 2478 2717 
Q 2269 2841 1825 2841 
Q 1466 2841 1156 2769 
Q 847 2697 581 2553 
L 581 3406 
Q 941 3494 1303 3539 
Q 1666 3584 2028 3584 
Q 2975 3584 3395 3211 
Q 3816 2838 3816 1997 
z
" transform="scale(0.015625)"/>
      <path id="DejaVuSans-Bold-73" d="M 3272 3391 
L 3272 2541 
Q 2913 2691 2578 2766 
Q 2244 2841 1947 2841 
Q 1628 2841 1473 2761 
Q 1319 2681 1319 2516 
Q 1319 2381 1436 2309 
Q 1553 2238 1856 2203 
L 2053 2175 
Q 2913 2066 3209 1816 
Q 3506 1566 3506 1031 
Q 3506 472 3093 190 
Q 2681 -91 1863 -91 
Q 1516 -91 1145 -36 
Q 775 19 384 128 
L 384 978 
Q 719 816 1070 734 
Q 1422 653 1784 653 
Q 2113 653 2278 743 
Q 2444 834 2444 1013 
Q 2444 1163 2330 1236 
Q 2216 1309 1875 1350 
L 1678 1375 
Q 931 1469 631 1722 
Q 331 1975 331 2491 
Q 331 3047 712 3315 
Q 1094 3584 1881 3584 
Q 2191 3584 2531 3537 
Q 2872 3491 3272 3391 
z
" transform="scale(0.015625)"/>
      <path id="DejaVuSans-Bold-6c" d="M 538 4863 
L 1656 4863 
L 1656 0 
L 538 0 
L 538 4863 
z
" transform="scale(0.015625)"/>
      <path id="DejaVuSans-Bold-6e" d="M 4056 2131 
L 4056 0 
L 2931 0 
L 2931 347 
L 2931 1631 
Q 2931 2084 2911 2256 
Q 2891 2428 2841 2509 
Q 2775 2619 2662 2680 
Q 2550 2741 2406 2741 
Q 2056 2741 1856 2470 
Q 1656 2200 1656 1722 
L 1656 0 
L 538 0 
L 538 3500 
L 1656 3500 
L 1656 2988 
Q 1909 3294 2193 3439 
Q 2478 3584 2822 3584 
Q 3428 3584 3742 3212 
Q 4056 2841 4056 2131 
z
" transform="scale(0.015625)"/>
      <path id="DejaVuSans-Bold-44" d="M 1791 3756 
L 1791 909 
L 2222 909 
Q 2959 909 3348 1275 
Q 3738 1641 3738 2338 
Q 3738 3031 3350 3393 
Q 2963 3756 2222 3756 
L 1791 3756 
z
M 588 4666 
L 1856 4666 
Q 2919 4666 3439 4514 
Q 3959 4363 4331 4000 
Q 4659 3684 4818 3271 
Q 4978 2859 4978 2338 
Q 4978 1809 4818 1395 
Q 4659 981 4331 666 
Q 3956 303 3431 151 
Q 2906 0 1856 0 
L 588 0 
L 588 4666 
z
" transform="scale(0.015625)"/>
      <path id="DejaVuSans-Bold-49" d="M 588 4666 
L 1791 4666 
L 1791 0 
L 588 0 
L 588 4666 
z
" transform="scale(0.015625)"/>
      <path id="DejaVuSans-Bold-74" d="M 1759 4494 
L 1759 3500 
L 2913 3500 
L 2913 2700 
L 1759 2700 
L 1759 1216 
Q 1759 972 1856 886 
Q 1953 800 2241 800 
L 2816 800 
L 2816 0 
L 1856 0 
Q 1194 0 917 276 
Q 641 553 641 1216 
L 641 2700 
L 84 2700 
L 84 3500 
L 641 3500 
L 641 4494 
L 1759 4494 
z
" transform="scale(0.015625)"/>
      <path id="DejaVuSans-Bold-6d" d="M 3781 2919 
Q 3994 3244 4286 3414 
Q 4578 3584 4928 3584 
Q 5531 3584 5847 3212 
Q 6163 2841 6163 2131 
L 6163 0 
L 5038 0 
L 5038 1825 
Q 5041 1866 5042 1909 
Q 5044 1953 5044 2034 
Q 5044 2406 4934 2573 
Q 4825 2741 4581 2741 
Q 4263 2741 4089 2478 
Q 3916 2216 3909 1719 
L 3909 0 
L 2784 0 
L 2784 1825 
Q 2784 2406 2684 2573 
Q 2584 2741 2328 2741 
Q 2006 2741 1831 2477 
Q 1656 2213 1656 1722 
L 1656 0 
L 531 0 
L 531 3500 
L 1656 3500 
L 1656 2988 
Q 1863 3284 2130 3434 
Q 2397 3584 2719 3584 
Q 3081 3584 3359 3409 
Q 3638 3234 3781 2919 
z
" transform="scale(0.015625)"/>
      <path id="DejaVuSans-Bold-66" d="M 2841 4863 
L 2841 4128 
L 2222 4128 
Q 1984 4128 1890 4042 
Q 1797 3956 1797 3744 
L 1797 3500 
L 2753 3500 
L 2753 2700 
L 1797 2700 
L 1797 0 
L 678 0 
L 678 2700 
L 122 2700 
L 122 3500 
L 678 3500 
L 678 3744 
Q 678 4316 997 4589 
Q 1316 4863 1984 4863 
L 2841 4863 
z
" transform="scale(0.015625)"/>
      <path id="DejaVuSans-Bold-6f" d="M 2203 2784 
Q 1831 2784 1636 2517 
Q 1441 2250 1441 1747 
Q 1441 1244 1636 976 
Q 1831 709 2203 709 
Q 2569 709 2762 976 
Q 2956 1244 2956 1747 
Q 2956 2250 2762 2517 
Q 2569 2784 2203 2784 
z
M 2203 3584 
Q 3106 3584 3614 3096 
Q 4122 2609 4122 1747 
Q 4122 884 3614 396 
Q 3106 -91 2203 -91 
Q 1297 -91 786 396 
Q 275 884 275 1747 
Q 275 2609 786 3096 
Q 1297 3584 2203 3584 
z
" transform="scale(0.015625)"/>
      <path id="DejaVuSans-Bold-63" d="M 3366 3391 
L 3366 2478 
Q 3138 2634 2908 2709 
Q 2678 2784 2431 2784 
Q 1963 2784 1702 2511 
Q 1441 2238 1441 1747 
Q 1441 1256 1702 982 
Q 1963 709 2431 709 
Q 2694 709 2930 787 
Q 3166 866 3366 1019 
L 3366 103 
Q 3103 6 2833 -42 
Q 2563 -91 2291 -91 
Q 1344 -91 809 395 
Q 275 881 275 1747 
Q 275 2613 809 3098 
Q 1344 3584 2291 3584 
Q 2566 3584 2833 3536 
Q 3100 3488 3366 3391 
z
" transform="scale(0.015625)"/>
     </defs>
     <use xlink:href="#DejaVuSans-Bold-46"/>
     <use xlink:href="#DejaVuSans-Bold-69" transform="translate(68.310547 0)"/>
     <use xlink:href="#DejaVuSans-Bold-67" transform="translate(102.587891 0)"/>
     <use xlink:href="#DejaVuSans-Bold-75" transform="translate(174.169922 0)"/>
     <use xlink:href="#DejaVuSans-Bold-72" transform="translate(245.361328 0)"/>
     <use xlink:href="#DejaVuSans-Bold-65" transform="translate(294.677734 0)"/>
     <use xlink:href="#DejaVuSans-Bold-20" transform="translate(362.5 0)"/>
     <use xlink:href="#DejaVuSans-Bold-35" transform="translate(397.314453 0)"/>
     <use xlink:href="#DejaVuSans-Bold-2d" transform="translate(466.894531 0)"/>
     <use xlink:href="#DejaVuSans-Bold-33" transform="translate(508.398438 0)"/>
     <use xlink:href="#DejaVuSans-Bold-2e" transform="translate(577.978516 0)"/>
     <use xlink:href="#DejaVuSans-Bold-20" transform="translate(615.966797 0)"/>
     <use xlink:href="#DejaVuSans-Bold-42" transform="translate(650.78125 0)"/>
     <use xlink:href="#DejaVuSans-Bold-61" transform="translate(727.001953 0)"/>
     <use xlink:href="#DejaVuSans-Bold-73" transform="translate(794.482422 0)"/>
     <use xlink:href="#DejaVuSans-Bold-65" transform="translate(854.003906 0)"/>
     <use xlink:href="#DejaVuSans-Bold-6c" transform="translate(921.826172 0)"/>
     <use xlink:href="#DejaVuSans-Bold-69" transform="translate(956.103516 0)"/>
     <use xlink:href="#DejaVuSans-Bold-6e" transform="translate(990.380859 0)"/>
     <use xlink:href="#DejaVuSans-Bold-65" transform="translate(1061.572266 0)"/>
     <use xlink:href="#DejaVuSans-Bold-20" transform="translate(1129.394531 0)"/>
     <use xlink:href="#DejaVuSans-Bold-44" transform="translate(1164.208984 0)"/>
     <use xlink:href="#DejaVuSans-Bold-49" transform="translate(1247.216797 0)"/>
     <use xlink:href="#DejaVuSans-Bold-44" transform="translate(1284.423828 0)"/>
     <use xlink:href="#DejaVuSans-Bold-20" transform="translate(1367.431641 0)"/>
     <use xlink:href="#DejaVuSans-Bold-65" transform="translate(1402.246094 0)"/>
     <use xlink:href="#DejaVuSans-Bold-73" transform="translate(1470.068359 0)"/>
     <use xlink:href="#DejaVuSans-Bold-74" transform="translate(1529.589844 0)"/>
     <use xlink:href="#DejaVuSans-Bold-69" transform="translate(1577.392578 0)"/>
     <use xlink:href="#DejaVuSans-Bold-6d" transform="translate(1611.669922 0)"/>
     <use xlink:href="#DejaVuSans-Bold-61" transform="translate(1715.869141 0)"/>
     <use xlink:href="#DejaVuSans-Bold-74" transform="translate(1783.349609 0)"/>
     <use xlink:href="#DejaVuSans-Bold-65" transform="translate(1831.152344 0)"/>
     <use xlink:href="#DejaVuSans-Bold-73" transform="translate(1898.974609 0)"/>
     <use xlink:href="#DejaVuSans-Bold-20" transform="translate(1958.496094 0)"/>
     <use xlink:href="#DejaVuSans-Bold-66" transform="translate(1993.310547 0)"/>
     <use xlink:href="#DejaVuSans-Bold-6f" transform="translate(2036.816406 0)"/>
     <use xlink:href="#DejaVuSans-Bold-72" transform="translate(2105.517578 0)"/>
     <use xlink:href="#DejaVuSans-Bold-20" transform="translate(2154.833984 0)"/>
     <use xlink:href="#DejaVuSans-Bold-63" transform="translate(2189.648438 0)"/>
     <use xlink:href="#DejaVuSans-Bold-6f" transform="translate(2248.925781 0)"/>
     <use xlink:href="#DejaVuSans-Bold-72" transform="translate(2317.626953 0)"/>
     <use xlink:href="#DejaVuSans-Bold-65" transform="translate(2366.943359 0)"/>
     <use xlink:href="#DejaVuSans-Bold-20" transform="translate(2434.765625 0)"/>
     <use xlink:href="#DejaVuSans-Bold-6f" transform="translate(2469.580078 0)"/>
     <use xlink:href="#DejaVuSans-Bold-75" transform="translate(2538.28125 0)"/>
     <use xlink:href="#DejaVuSans-Bold-74" transform="translate(2609.472656 0)"/>
     <use xlink:href="#DejaVuSans-Bold-63" transform="translate(2657.275391 0)"/>
     <use xlink:href="#DejaVuSans-Bold-6f" transform="translate(2716.552734 0)"/>
     <use xlink:href="#DejaVuSans-Bold-6d" transform="translate(2785.253906 0)"/>
     <use xlink:href="#DejaVuSans-Bold-65" transform="translate(2889.453125 0)"/>
     <use xlink:href="#DejaVuSans-Bold-73" transform="translate(2957.275391 0)"/>
    </g>
   </g>
  </g>
  <g id="text_20">
   <!-- Dots indicate coefficients and horizontal lines indicate 95% confidence intervals. -->
   <g style="fill: #505050" transform="translate(7.2 390.797812) scale(0.09 -0.09)">
    <defs>
     <path id="DejaVuSans-44" d="M 1259 4147 
L 1259 519 
L 2022 519 
Q 2988 519 3436 956 
Q 3884 1394 3884 2338 
Q 3884 3275 3436 3711 
Q 2988 4147 2022 4147 
L 1259 4147 
z
M 628 4666 
L 1925 4666 
Q 3281 4666 3915 4102 
Q 4550 3538 4550 2338 
Q 4550 1131 3912 565 
Q 3275 0 1925 0 
L 628 0 
L 628 4666 
z
" transform="scale(0.015625)"/>
     <path id="DejaVuSans-7a" d="M 353 3500 
L 3084 3500 
L 3084 2975 
L 922 459 
L 3084 459 
L 3084 0 
L 275 0 
L 275 525 
L 2438 3041 
L 353 3041 
L 353 3500 
z
" transform="scale(0.015625)"/>
    </defs>
    <use xlink:href="#DejaVuSans-44"/>
    <use xlink:href="#DejaVuSans-6f" transform="translate(77.001953 0)"/>
    <use xlink:href="#DejaVuSans-74" transform="translate(138.183594 0)"/>
    <use xlink:href="#DejaVuSans-73" transform="translate(177.392578 0)"/>
    <use xlink:href="#DejaVuSans-20" transform="translate(229.492188 0)"/>
    <use xlink:href="#DejaVuSans-69" transform="translate(261.279297 0)"/>
    <use xlink:href="#DejaVuSans-6e" transform="translate(289.0625 0)"/>
    <use xlink:href="#DejaVuSans-64" transform="translate(352.441406 0)"/>
    <use xlink:href="#DejaVuSans-69" transform="translate(415.917969 0)"/>
    <use xlink:href="#DejaVuSans-63" transform="translate(443.701172 0)"/>
    <use xlink:href="#DejaVuSans-61" transform="translate(498.681641 0)"/>
    <use xlink:href="#DejaVuSans-74" transform="translate(559.960938 0)"/>
    <use xlink:href="#DejaVuSans-65" transform="translate(599.169922 0)"/>
    <use xlink:href="#DejaVuSans-20" transform="translate(660.693359 0)"/>
    <use xlink:href="#DejaVuSans-63" transform="translate(692.480469 0)"/>
    <use xlink:href="#DejaVuSans-6f" transform="translate(747.460938 0)"/>
    <use xlink:href="#DejaVuSans-65" transform="translate(808.642578 0)"/>
    <use xlink:href="#DejaVuSans-66" transform="translate(870.166016 0)"/>
    <use xlink:href="#DejaVuSans-66" transform="translate(905.371094 0)"/>
    <use xlink:href="#DejaVuSans-69" transform="translate(940.576172 0)"/>
    <use xlink:href="#DejaVuSans-63" transform="translate(968.359375 0)"/>
    <use xlink:href="#DejaVuSans-69" transform="translate(1023.339844 0)"/>
    <use xlink:href="#DejaVuSans-65" transform="translate(1051.123047 0)"/>
    <use xlink:href="#DejaVuSans-6e" transform="translate(1112.646484 0)"/>
    <use xlink:href="#DejaVuSans-74" transform="translate(1176.025391 0)"/>
    <use xlink:href="#DejaVuSans-73" transform="translate(1215.234375 0)"/>
    <use xlink:href="#DejaVuSans-20" transform="translate(1267.333984 0)"/>
    <use xlink:href="#DejaVuSans-61" transform="translate(1299.121094 0)"/>
    <use xlink:href="#DejaVuSans-6e" transform="translate(1360.400391 0)"/>
    <use xlink:href="#DejaVuSans-64" transform="translate(1423.779297 0)"/>
    <use xlink:href="#DejaVuSans-20" transform="translate(1487.255859 0)"/>
    <use xlink:href="#DejaVuSans-68" transform="translate(1519.042969 0)"/>
    <use xlink:href="#DejaVuSans-6f" transform="translate(1582.421875 0)"/>
    <use xlink:href="#DejaVuSans-72" transform="translate(1643.603516 0)"/>
    <use xlink:href="#DejaVuSans-69" transform="translate(1684.716797 0)"/>
    <use xlink:href="#DejaVuSans-7a" transform="translate(1712.5 0)"/>
    <use xlink:href="#DejaVuSans-6f" transform="translate(1764.990234 0)"/>
    <use xlink:href="#DejaVuSans-6e" transform="translate(1826.171875 0)"/>
    <use xlink:href="#DejaVuSans-74" transform="translate(1889.550781 0)"/>
    <use xlink:href="#DejaVuSans-61" transform="translate(1928.759766 0)"/>
    <use xlink:href="#DejaVuSans-6c" transform="translate(1990.039062 0)"/>
    <use xlink:href="#DejaVuSans-20" transform="translate(2017.822266 0)"/>
    <use xlink:href="#DejaVuSans-6c" transform="translate(2049.609375 0)"/>
    <use xlink:href="#DejaVuSans-69" transform="translate(2077.392578 0)"/>
    <use xlink:href="#DejaVuSans-6e" transform="translate(2105.175781 0)"/>
    <use xlink:href="#DejaVuSans-65" transform="translate(2168.554688 0)"/>
    <use xlink:href="#DejaVuSans-73" transform="translate(2230.078125 0)"/>
    <use xlink:href="#DejaVuSans-20" transform="translate(2282.177734 0)"/>
    <use xlink:href="#DejaVuSans-69" transform="translate(2313.964844 0)"/>
    <use xlink:href="#DejaVuSans-6e" transform="translate(2341.748047 0)"/>
    <use xlink:href="#DejaVuSans-64" transform="translate(2405.126953 0)"/>
    <use xlink:href="#DejaVuSans-69" transform="translate(2468.603516 0)"/>
    <use xlink:href="#DejaVuSans-63" transform="translate(2496.386719 0)"/>
    <use xlink:href="#DejaVuSans-61" transform="translate(2551.367188 0)"/>
    <use xlink:href="#DejaVuSans-74" transform="translate(2612.646484 0)"/>
    <use xlink:href="#DejaVuSans-65" transform="translate(2651.855469 0)"/>
    <use xlink:href="#DejaVuSans-20" transform="translate(2713.378906 0)"/>
    <use xlink:href="#DejaVuSans-39" transform="translate(2745.166016 0)"/>
    <use xlink:href="#DejaVuSans-35" transform="translate(2808.789062 0)"/>
    <use xlink:href="#DejaVuSans-25" transform="translate(2872.412109 0)"/>
    <use xlink:href="#DejaVuSans-20" transform="translate(2967.431641 0)"/>
    <use xlink:href="#DejaVuSans-63" transform="translate(2999.21875 0)"/>
    <use xlink:href="#DejaVuSans-6f" transform="translate(3054.199219 0)"/>
    <use xlink:href="#DejaVuSans-6e" transform="translate(3115.380859 0)"/>
    <use xlink:href="#DejaVuSans-66" transform="translate(3178.759766 0)"/>
    <use xlink:href="#DejaVuSans-69" transform="translate(3213.964844 0)"/>
    <use xlink:href="#DejaVuSans-64" transform="translate(3241.748047 0)"/>
    <use xlink:href="#DejaVuSans-65" transform="translate(3305.224609 0)"/>
    <use xlink:href="#DejaVuSans-6e" transform="translate(3366.748047 0)"/>
    <use xlink:href="#DejaVuSans-63" transform="translate(3430.126953 0)"/>
    <use xlink:href="#DejaVuSans-65" transform="translate(3485.107422 0)"/>
    <use xlink:href="#DejaVuSans-20" transform="translate(3546.630859 0)"/>
    <use xlink:href="#DejaVuSans-69" transform="translate(3578.417969 0)"/>
    <use xlink:href="#DejaVuSans-6e" transform="translate(3606.201172 0)"/>
    <use xlink:href="#DejaVuSans-74" transform="translate(3669.580078 0)"/>
    <use xlink:href="#DejaVuSans-65" transform="translate(3708.789062 0)"/>
    <use xlink:href="#DejaVuSans-72" transform="translate(3770.3125 0)"/>
    <use xlink:href="#DejaVuSans-76" transform="translate(3811.425781 0)"/>
    <use xlink:href="#DejaVuSans-61" transform="translate(3870.605469 0)"/>
    <use xlink:href="#DejaVuSans-6c" transform="translate(3931.884766 0)"/>
    <use xlink:href="#DejaVuSans-73" transform="translate(3959.667969 0)"/>
    <use xlink:href="#DejaVuSans-2e" transform="translate(4011.767578 0)"/>
   </g>
  </g>
 </g>
 <defs>
  <clipPath id="p28c0a23d95">
   <rect x="203.864" y="23.837812" width="400.918" height="308.19675"/>
  </clipPath>
 </defs>
</svg>
