<?xml version="1.0" encoding="utf-8" standalone="no"?>
<!DOCTYPE svg PUBLIC "-//W3C//DTD SVG 1.1//EN"
  "http://www.w3.org/Graphics/SVG/1.1/DTD/svg11.dtd">
<svg xmlns:xlink="http://www.w3.org/1999/xlink" width="776.158368pt" height="454.651613pt" viewBox="0 0 776.158368 454.651613" xmlns="http://www.w3.org/2000/svg" version="1.1">
 <metadata>
  <rdf:RDF xmlns:dc="http://purl.org/dc/elements/1.1/" xmlns:cc="http://creativecommons.org/ns#" xmlns:rdf="http://www.w3.org/1999/02/22-rdf-syntax-ns#">
   <cc:Work>
    <dc:type rdf:resource="http://purl.org/dc/dcmitype/StillImage"/>
    <dc:date>2026-04-09T13:43:06.992873</dc:date>
    <dc:format>image/svg+xml</dc:format>
    <dc:creator>
     <cc:Agent>
      <dc:title>Matplotlib v3.10.8, https://matplotlib.org/</dc:title>
     </cc:Agent>
    </dc:creator>
   </cc:Work>
  </rdf:RDF>
 </metadata>
 <defs>
  <style type="text/css">*{stroke-linejoin: round; stroke-linecap: butt}</style>
 </defs>
 <g id="figure_1">
  <g id="patch_1">
   <path d="M 0 454.651613 
L 776.158368 454.651613 
L 776.158368 0 
L 0 0 
z
" style="fill: #ffffff"/>
  </g>
  <g id="axes_1">
   <g id="patch_2">
    <path d="M 136.569688 373.908739 
L 637.553688 373.908739 
L 637.553688 23.837812 
L 136.569688 23.837812 
z
" style="fill: #ffffff"/>
   </g>
   <g id="matplotlib.axis_1">
    <g id="xtick_1">
     <g id="text_1">
      <!-- Baseline set -->
      <g style="fill: #262626" transform="translate(95.651247 414.159599) rotate(-20) scale(0.11 -0.11)">
       <defs>
        <path id="DejaVuSans-42" d="M 1259 2228 
L 1259 519 
L 2272 519 
Q 2781 519 3026 730 
Q 3272 941 3272 1375 
Q 3272 1813 3026 2020 
Q 2781 2228 2272 2228 
L 1259 2228 
z
M 1259 4147 
L 1259 2741 
L 2194 2741 
Q 2656 2741 2882 2914 
Q 3109 3088 3109 3444 
Q 3109 3797 2882 3972 
Q 2656 4147 2194 4147 
L 1259 4147 
z
M 628 4666 
L 2241 4666 
Q 2963 4666 3353 4366 
Q 3744 4066 3744 3513 
Q 3744 3084 3544 2831 
Q 3344 2578 2956 2516 
Q 3422 2416 3680 2098 
Q 3938 1781 3938 1306 
Q 3938 681 3513 340 
Q 3088 0 2303 0 
L 628 0 
L 628 4666 
z
" transform="scale(0.015625)"/>
        <path id="DejaVuSans-61" d="M 2194 1759 
Q 1497 1759 1228 1600 
Q 959 1441 959 1056 
Q 959 750 1161 570 
Q 1363 391 1709 391 
Q 2188 391 2477 730 
Q 2766 1069 2766 1631 
L 2766 1759 
L 2194 1759 
z
M 3341 1997 
L 3341 0 
L 2766 0 
L 2766 531 
Q 2569 213 2275 61 
Q 1981 -91 1556 -91 
Q 1019 -91 701 211 
Q 384 513 384 1019 
Q 384 1609 779 1909 
Q 1175 2209 1959 2209 
L 2766 2209 
L 2766 2266 
Q 2766 2663 2505 2880 
Q 2244 3097 1772 3097 
Q 1472 3097 1187 3025 
Q 903 2953 641 2809 
L 641 3341 
Q 956 3463 1253 3523 
Q 1550 3584 1831 3584 
Q 2591 3584 2966 3190 
Q 3341 2797 3341 1997 
z
" transform="scale(0.015625)"/>
        <path id="DejaVuSans-73" d="M 2834 3397 
L 2834 2853 
Q 2591 2978 2328 3040 
Q 2066 3103 1784 3103 
Q 1356 3103 1142 2972 
Q 928 2841 928 2578 
Q 928 2378 1081 2264 
Q 1234 2150 1697 2047 
L 1894 2003 
Q 2506 1872 2764 1633 
Q 3022 1394 3022 966 
Q 3022 478 2636 193 
Q 2250 -91 1575 -91 
Q 1294 -91 989 -36 
Q 684 19 347 128 
L 347 722 
Q 666 556 975 473 
Q 1284 391 1588 391 
Q 1994 391 2212 530 
Q 2431 669 2431 922 
Q 2431 1156 2273 1281 
Q 2116 1406 1581 1522 
L 1381 1569 
Q 847 1681 609 1914 
Q 372 2147 372 2553 
Q 372 3047 722 3315 
Q 1072 3584 1716 3584 
Q 2034 3584 2315 3537 
Q 2597 3491 2834 3397 
z
" transform="scale(0.015625)"/>
        <path id="DejaVuSans-65" d="M 3597 1894 
L 3597 1613 
L 953 1613 
Q 991 1019 1311 708 
Q 1631 397 2203 397 
Q 2534 397 2845 478 
Q 3156 559 3463 722 
L 3463 178 
Q 3153 47 2828 -22 
Q 2503 -91 2169 -91 
Q 1331 -91 842 396 
Q 353 884 353 1716 
Q 353 2575 817 3079 
Q 1281 3584 2069 3584 
Q 2775 3584 3186 3129 
Q 3597 2675 3597 1894 
z
M 3022 2063 
Q 3016 2534 2758 2815 
Q 2500 3097 2075 3097 
Q 1594 3097 1305 2825 
Q 1016 2553 972 2059 
L 3022 2063 
z
" transform="scale(0.015625)"/>
        <path id="DejaVuSans-6c" d="M 603 4863 
L 1178 4863 
L 1178 0 
L 603 0 
L 603 4863 
z
" transform="scale(0.015625)"/>
        <path id="DejaVuSans-69" d="M 603 3500 
L 1178 3500 
L 1178 0 
L 603 0 
L 603 3500 
z
M 603 4863 
L 1178 4863 
L 1178 4134 
L 603 4134 
L 603 4863 
z
" transform="scale(0.015625)"/>
        <path id="DejaVuSans-6e" d="M 3513 2113 
L 3513 0 
L 2938 0 
L 2938 2094 
Q 2938 2591 2744 2837 
Q 2550 3084 2163 3084 
Q 1697 3084 1428 2787 
Q 1159 2491 1159 1978 
L 1159 0 
L 581 0 
L 581 3500 
L 1159 3500 
L 1159 2956 
Q 1366 3272 1645 3428 
Q 1925 3584 2291 3584 
Q 2894 3584 3203 3211 
Q 3513 2838 3513 2113 
z
" transform="scale(0.015625)"/>
        <path id="DejaVuSans-20" transform="scale(0.015625)"/>
        <path id="DejaVuSans-74" d="M 1172 4494 
L 1172 3500 
L 2356 3500 
L 2356 3053 
L 1172 3053 
L 1172 1153 
Q 1172 725 1289 603 
Q 1406 481 1766 481 
L 2356 481 
L 2356 0 
L 1766 0 
Q 1100 0 847 248 
Q 594 497 594 1153 
L 594 3053 
L 172 3053 
L 172 3500 
L 594 3500 
L 594 4494 
L 1172 4494 
z
" transform="scale(0.015625)"/>
       </defs>
       <use xlink:href="#DejaVuSans-42"/>
       <use xlink:href="#DejaVuSans-61" transform="translate(68.603516 0)"/>
       <use xlink:href="#DejaVuSans-73" transform="translate(129.882812 0)"/>
       <use xlink:href="#DejaVuSans-65" transform="translate(181.982422 0)"/>
       <use xlink:href="#DejaVuSans-6c" transform="translate(243.505859 0)"/>
       <use xlink:href="#DejaVuSans-69" transform="translate(271.289062 0)"/>
       <use xlink:href="#DejaVuSans-6e" transform="translate(299.072266 0)"/>
       <use xlink:href="#DejaVuSans-65" transform="translate(362.451172 0)"/>
       <use xlink:href="#DejaVuSans-20" transform="translate(423.974609 0)"/>
       <use xlink:href="#DejaVuSans-73" transform="translate(455.761719 0)"/>
       <use xlink:href="#DejaVuSans-65" transform="translate(507.861328 0)"/>
       <use xlink:href="#DejaVuSans-74" transform="translate(569.384766 0)"/>
      </g>
     </g>
    </g>
    <g id="xtick_2">
     <g id="text_2">
      <!-- Lagged controls -->
      <g style="fill: #262626" transform="translate(189.784456 421.339564) rotate(-20) scale(0.11 -0.11)">
       <defs>
        <path id="DejaVuSans-4c" d="M 628 4666 
L 1259 4666 
L 1259 531 
L 3531 531 
L 3531 0 
L 628 0 
L 628 4666 
z
" transform="scale(0.015625)"/>
        <path id="DejaVuSans-67" d="M 2906 1791 
Q 2906 2416 2648 2759 
Q 2391 3103 1925 3103 
Q 1463 3103 1205 2759 
Q 947 2416 947 1791 
Q 947 1169 1205 825 
Q 1463 481 1925 481 
Q 2391 481 2648 825 
Q 2906 1169 2906 1791 
z
M 3481 434 
Q 3481 -459 3084 -895 
Q 2688 -1331 1869 -1331 
Q 1566 -1331 1297 -1286 
Q 1028 -1241 775 -1147 
L 775 -588 
Q 1028 -725 1275 -790 
Q 1522 -856 1778 -856 
Q 2344 -856 2625 -561 
Q 2906 -266 2906 331 
L 2906 616 
Q 2728 306 2450 153 
Q 2172 0 1784 0 
Q 1141 0 747 490 
Q 353 981 353 1791 
Q 353 2603 747 3093 
Q 1141 3584 1784 3584 
Q 2172 3584 2450 3431 
Q 2728 3278 2906 2969 
L 2906 3500 
L 3481 3500 
L 3481 434 
z
" transform="scale(0.015625)"/>
        <path id="DejaVuSans-64" d="M 2906 2969 
L 2906 4863 
L 3481 4863 
L 3481 0 
L 2906 0 
L 2906 525 
Q 2725 213 2448 61 
Q 2172 -91 1784 -91 
Q 1150 -91 751 415 
Q 353 922 353 1747 
Q 353 2572 751 3078 
Q 1150 3584 1784 3584 
Q 2172 3584 2448 3432 
Q 2725 3281 2906 2969 
z
M 947 1747 
Q 947 1113 1208 752 
Q 1469 391 1925 391 
Q 2381 391 2643 752 
Q 2906 1113 2906 1747 
Q 2906 2381 2643 2742 
Q 2381 3103 1925 3103 
Q 1469 3103 1208 2742 
Q 947 2381 947 1747 
z
" transform="scale(0.015625)"/>
        <path id="DejaVuSans-63" d="M 3122 3366 
L 3122 2828 
Q 2878 2963 2633 3030 
Q 2388 3097 2138 3097 
Q 1578 3097 1268 2742 
Q 959 2388 959 1747 
Q 959 1106 1268 751 
Q 1578 397 2138 397 
Q 2388 397 2633 464 
Q 2878 531 3122 666 
L 3122 134 
Q 2881 22 2623 -34 
Q 2366 -91 2075 -91 
Q 1284 -91 818 406 
Q 353 903 353 1747 
Q 353 2603 823 3093 
Q 1294 3584 2113 3584 
Q 2378 3584 2631 3529 
Q 2884 3475 3122 3366 
z
" transform="scale(0.015625)"/>
        <path id="DejaVuSans-6f" d="M 1959 3097 
Q 1497 3097 1228 2736 
Q 959 2375 959 1747 
Q 959 1119 1226 758 
Q 1494 397 1959 397 
Q 2419 397 2687 759 
Q 2956 1122 2956 1747 
Q 2956 2369 2687 2733 
Q 2419 3097 1959 3097 
z
M 1959 3584 
Q 2709 3584 3137 3096 
Q 3566 2609 3566 1747 
Q 3566 888 3137 398 
Q 2709 -91 1959 -91 
Q 1206 -91 779 398 
Q 353 888 353 1747 
Q 353 2609 779 3096 
Q 1206 3584 1959 3584 
z
" transform="scale(0.015625)"/>
        <path id="DejaVuSans-72" d="M 2631 2963 
Q 2534 3019 2420 3045 
Q 2306 3072 2169 3072 
Q 1681 3072 1420 2755 
Q 1159 2438 1159 1844 
L 1159 0 
L 581 0 
L 581 3500 
L 1159 3500 
L 1159 2956 
Q 1341 3275 1631 3429 
Q 1922 3584 2338 3584 
Q 2397 3584 2469 3576 
Q 2541 3569 2628 3553 
L 2631 2963 
z
" transform="scale(0.015625)"/>
       </defs>
       <use xlink:href="#DejaVuSans-4c"/>
       <use xlink:href="#DejaVuSans-61" transform="translate(55.712891 0)"/>
       <use xlink:href="#DejaVuSans-67" transform="translate(116.992188 0)"/>
       <use xlink:href="#DejaVuSans-67" transform="translate(180.46875 0)"/>
       <use xlink:href="#DejaVuSans-65" transform="translate(243.945312 0)"/>
       <use xlink:href="#DejaVuSans-64" transform="translate(305.46875 0)"/>
       <use xlink:href="#DejaVuSans-20" transform="translate(368.945312 0)"/>
       <use xlink:href="#DejaVuSans-63" transform="translate(400.732422 0)"/>
       <use xlink:href="#DejaVuSans-6f" transform="translate(455.712891 0)"/>
       <use xlink:href="#DejaVuSans-6e" transform="translate(516.894531 0)"/>
       <use xlink:href="#DejaVuSans-74" transform="translate(580.273438 0)"/>
       <use xlink:href="#DejaVuSans-72" transform="translate(619.482422 0)"/>
       <use xlink:href="#DejaVuSans-6f" transform="translate(658.345703 0)"/>
       <use xlink:href="#DejaVuSans-6c" transform="translate(719.527344 0)"/>
       <use xlink:href="#DejaVuSans-73" transform="translate(747.310547 0)"/>
      </g>
     </g>
    </g>
    <g id="xtick_3">
     <g id="text_3">
      <!-- Drop edge years -->
      <g style="fill: #262626" transform="translate(300.554776 422.464116) rotate(-20) scale(0.11 -0.11)">
       <defs>
        <path id="DejaVuSans-44" d="M 1259 4147 
L 1259 519 
L 2022 519 
Q 2988 519 3436 956 
Q 3884 1394 3884 2338 
Q 3884 3275 3436 3711 
Q 2988 4147 2022 4147 
L 1259 4147 
z
M 628 4666 
L 1925 4666 
Q 3281 4666 3915 4102 
Q 4550 3538 4550 2338 
Q 4550 1131 3912 565 
Q 3275 0 1925 0 
L 628 0 
L 628 4666 
z
" transform="scale(0.015625)"/>
        <path id="DejaVuSans-70" d="M 1159 525 
L 1159 -1331 
L 581 -1331 
L 581 3500 
L 1159 3500 
L 1159 2969 
Q 1341 3281 1617 3432 
Q 1894 3584 2278 3584 
Q 2916 3584 3314 3078 
Q 3713 2572 3713 1747 
Q 3713 922 3314 415 
Q 2916 -91 2278 -91 
Q 1894 -91 1617 61 
Q 1341 213 1159 525 
z
M 3116 1747 
Q 3116 2381 2855 2742 
Q 2594 3103 2138 3103 
Q 1681 3103 1420 2742 
Q 1159 2381 1159 1747 
Q 1159 1113 1420 752 
Q 1681 391 2138 391 
Q 2594 391 2855 752 
Q 3116 1113 3116 1747 
z
" transform="scale(0.015625)"/>
        <path id="DejaVuSans-79" d="M 2059 -325 
Q 1816 -950 1584 -1140 
Q 1353 -1331 966 -1331 
L 506 -1331 
L 506 -850 
L 844 -850 
Q 1081 -850 1212 -737 
Q 1344 -625 1503 -206 
L 1606 56 
L 191 3500 
L 800 3500 
L 1894 763 
L 2988 3500 
L 3597 3500 
L 2059 -325 
z
" transform="scale(0.015625)"/>
       </defs>
       <use xlink:href="#DejaVuSans-44"/>
       <use xlink:href="#DejaVuSans-72" transform="translate(77.001953 0)"/>
       <use xlink:href="#DejaVuSans-6f" transform="translate(115.865234 0)"/>
       <use xlink:href="#DejaVuSans-70" transform="translate(177.046875 0)"/>
       <use xlink:href="#DejaVuSans-20" transform="translate(240.523438 0)"/>
       <use xlink:href="#DejaVuSans-65" transform="translate(272.310547 0)"/>
       <use xlink:href="#DejaVuSans-64" transform="translate(333.833984 0)"/>
       <use xlink:href="#DejaVuSans-67" transform="translate(397.310547 0)"/>
       <use xlink:href="#DejaVuSans-65" transform="translate(460.787109 0)"/>
       <use xlink:href="#DejaVuSans-20" transform="translate(522.310547 0)"/>
       <use xlink:href="#DejaVuSans-79" transform="translate(554.097656 0)"/>
       <use xlink:href="#DejaVuSans-65" transform="translate(613.277344 0)"/>
       <use xlink:href="#DejaVuSans-61" transform="translate(674.800781 0)"/>
       <use xlink:href="#DejaVuSans-72" transform="translate(736.080078 0)"/>
       <use xlink:href="#DejaVuSans-73" transform="translate(777.193359 0)"/>
      </g>
     </g>
    </g>
    <g id="xtick_4">
     <g id="text_4">
      <!-- Drop special regions -->
      <g style="fill: #262626" transform="translate(394.566853 429.688169) rotate(-20) scale(0.11 -0.11)">
       <use xlink:href="#DejaVuSans-44"/>
       <use xlink:href="#DejaVuSans-72" transform="translate(77.001953 0)"/>
       <use xlink:href="#DejaVuSans-6f" transform="translate(115.865234 0)"/>
       <use xlink:href="#DejaVuSans-70" transform="translate(177.046875 0)"/>
       <use xlink:href="#DejaVuSans-20" transform="translate(240.523438 0)"/>
       <use xlink:href="#DejaVuSans-73" transform="translate(272.310547 0)"/>
       <use xlink:href="#DejaVuSans-70" transform="translate(324.410156 0)"/>
       <use xlink:href="#DejaVuSans-65" transform="translate(387.886719 0)"/>
       <use xlink:href="#DejaVuSans-63" transform="translate(449.410156 0)"/>
       <use xlink:href="#DejaVuSans-69" transform="translate(504.390625 0)"/>
       <use xlink:href="#DejaVuSans-61" transform="translate(532.173828 0)"/>
       <use xlink:href="#DejaVuSans-6c" transform="translate(593.453125 0)"/>
       <use xlink:href="#DejaVuSans-20" transform="translate(621.236328 0)"/>
       <use xlink:href="#DejaVuSans-72" transform="translate(653.023438 0)"/>
       <use xlink:href="#DejaVuSans-65" transform="translate(691.886719 0)"/>
       <use xlink:href="#DejaVuSans-67" transform="translate(753.410156 0)"/>
       <use xlink:href="#DejaVuSans-69" transform="translate(816.886719 0)"/>
       <use xlink:href="#DejaVuSans-6f" transform="translate(844.669922 0)"/>
       <use xlink:href="#DejaVuSans-6e" transform="translate(905.851562 0)"/>
       <use xlink:href="#DejaVuSans-73" transform="translate(969.230469 0)"/>
      </g>
     </g>
    </g>
    <g id="xtick_5">
     <g id="text_5">
      <!-- Doc count ≥ 3 -->
      <g style="fill: #262626" transform="translate(539.775879 418.278056) rotate(-20) scale(0.11 -0.11)">
       <defs>
        <path id="DejaVuSans-75" d="M 544 1381 
L 544 3500 
L 1119 3500 
L 1119 1403 
Q 1119 906 1312 657 
Q 1506 409 1894 409 
Q 2359 409 2629 706 
Q 2900 1003 2900 1516 
L 2900 3500 
L 3475 3500 
L 3475 0 
L 2900 0 
L 2900 538 
Q 2691 219 2414 64 
Q 2138 -91 1772 -91 
Q 1169 -91 856 284 
Q 544 659 544 1381 
z
M 1991 3584 
L 1991 3584 
z
" transform="scale(0.015625)"/>
        <path id="DejaVuSans-2265" d="M 678 3175 
L 678 3725 
L 4684 2578 
L 4684 2047 
L 678 897 
L 678 1453 
L 3681 2309 
L 678 3175 
z
M 4684 531 
L 4684 0 
L 678 0 
L 678 531 
L 4684 531 
z
" transform="scale(0.015625)"/>
        <path id="DejaVuSans-33" d="M 2597 2516 
Q 3050 2419 3304 2112 
Q 3559 1806 3559 1356 
Q 3559 666 3084 287 
Q 2609 -91 1734 -91 
Q 1441 -91 1130 -33 
Q 819 25 488 141 
L 488 750 
Q 750 597 1062 519 
Q 1375 441 1716 441 
Q 2309 441 2620 675 
Q 2931 909 2931 1356 
Q 2931 1769 2642 2001 
Q 2353 2234 1838 2234 
L 1294 2234 
L 1294 2753 
L 1863 2753 
Q 2328 2753 2575 2939 
Q 2822 3125 2822 3475 
Q 2822 3834 2567 4026 
Q 2313 4219 1838 4219 
Q 1578 4219 1281 4162 
Q 984 4106 628 3988 
L 628 4550 
Q 988 4650 1302 4700 
Q 1616 4750 1894 4750 
Q 2613 4750 3031 4423 
Q 3450 4097 3450 3541 
Q 3450 3153 3228 2886 
Q 3006 2619 2597 2516 
z
" transform="scale(0.015625)"/>
       </defs>
       <use xlink:href="#DejaVuSans-44"/>
       <use xlink:href="#DejaVuSans-6f" transform="translate(77.001953 0)"/>
       <use xlink:href="#DejaVuSans-63" transform="translate(138.183594 0)"/>
       <use xlink:href="#DejaVuSans-20" transform="translate(193.164062 0)"/>
       <use xlink:href="#DejaVuSans-63" transform="translate(224.951172 0)"/>
       <use xlink:href="#DejaVuSans-6f" transform="translate(279.931641 0)"/>
       <use xlink:href="#DejaVuSans-75" transform="translate(341.113281 0)"/>
       <use xlink:href="#DejaVuSans-6e" transform="translate(404.492188 0)"/>
       <use xlink:href="#DejaVuSans-74" transform="translate(467.871094 0)"/>
       <use xlink:href="#DejaVuSans-20" transform="translate(507.080078 0)"/>
       <use xlink:href="#DejaVuSans-2265" transform="translate(538.867188 0)"/>
       <use xlink:href="#DejaVuSans-20" transform="translate(622.65625 0)"/>
       <use xlink:href="#DejaVuSans-33" transform="translate(654.443359 0)"/>
      </g>
     </g>
    </g>
    <g id="text_6">
     <!-- Robustness specification family -->
     <g style="fill: #262626" transform="translate(292.483875 444.955988) scale(0.12 -0.12)">
      <defs>
       <path id="DejaVuSans-52" d="M 2841 2188 
Q 3044 2119 3236 1894 
Q 3428 1669 3622 1275 
L 4263 0 
L 3584 0 
L 2988 1197 
Q 2756 1666 2539 1819 
Q 2322 1972 1947 1972 
L 1259 1972 
L 1259 0 
L 628 0 
L 628 4666 
L 2053 4666 
Q 2853 4666 3247 4331 
Q 3641 3997 3641 3322 
Q 3641 2881 3436 2590 
Q 3231 2300 2841 2188 
z
M 1259 4147 
L 1259 2491 
L 2053 2491 
Q 2509 2491 2742 2702 
Q 2975 2913 2975 3322 
Q 2975 3731 2742 3939 
Q 2509 4147 2053 4147 
L 1259 4147 
z
" transform="scale(0.015625)"/>
       <path id="DejaVuSans-62" d="M 3116 1747 
Q 3116 2381 2855 2742 
Q 2594 3103 2138 3103 
Q 1681 3103 1420 2742 
Q 1159 2381 1159 1747 
Q 1159 1113 1420 752 
Q 1681 391 2138 391 
Q 2594 391 2855 752 
Q 3116 1113 3116 1747 
z
M 1159 2969 
Q 1341 3281 1617 3432 
Q 1894 3584 2278 3584 
Q 2916 3584 3314 3078 
Q 3713 2572 3713 1747 
Q 3713 922 3314 415 
Q 2916 -91 2278 -91 
Q 1894 -91 1617 61 
Q 1341 213 1159 525 
L 1159 0 
L 581 0 
L 581 4863 
L 1159 4863 
L 1159 2969 
z
" transform="scale(0.015625)"/>
       <path id="DejaVuSans-66" d="M 2375 4863 
L 2375 4384 
L 1825 4384 
Q 1516 4384 1395 4259 
Q 1275 4134 1275 3809 
L 1275 3500 
L 2222 3500 
L 2222 3053 
L 1275 3053 
L 1275 0 
L 697 0 
L 697 3053 
L 147 3053 
L 147 3500 
L 697 3500 
L 697 3744 
Q 697 4328 969 4595 
Q 1241 4863 1831 4863 
L 2375 4863 
z
" transform="scale(0.015625)"/>
       <path id="DejaVuSans-6d" d="M 3328 2828 
Q 3544 3216 3844 3400 
Q 4144 3584 4550 3584 
Q 5097 3584 5394 3201 
Q 5691 2819 5691 2113 
L 5691 0 
L 5113 0 
L 5113 2094 
Q 5113 2597 4934 2840 
Q 4756 3084 4391 3084 
Q 3944 3084 3684 2787 
Q 3425 2491 3425 1978 
L 3425 0 
L 2847 0 
L 2847 2094 
Q 2847 2600 2669 2842 
Q 2491 3084 2119 3084 
Q 1678 3084 1418 2786 
Q 1159 2488 1159 1978 
L 1159 0 
L 581 0 
L 581 3500 
L 1159 3500 
L 1159 2956 
Q 1356 3278 1631 3431 
Q 1906 3584 2284 3584 
Q 2666 3584 2933 3390 
Q 3200 3197 3328 2828 
z
" transform="scale(0.015625)"/>
      </defs>
      <use xlink:href="#DejaVuSans-52"/>
      <use xlink:href="#DejaVuSans-6f" transform="translate(64.982422 0)"/>
      <use xlink:href="#DejaVuSans-62" transform="translate(126.164062 0)"/>
      <use xlink:href="#DejaVuSans-75" transform="translate(189.640625 0)"/>
      <use xlink:href="#DejaVuSans-73" transform="translate(253.019531 0)"/>
      <use xlink:href="#DejaVuSans-74" transform="translate(305.119141 0)"/>
      <use xlink:href="#DejaVuSans-6e" transform="translate(344.328125 0)"/>
      <use xlink:href="#DejaVuSans-65" transform="translate(407.707031 0)"/>
      <use xlink:href="#DejaVuSans-73" transform="translate(469.230469 0)"/>
      <use xlink:href="#DejaVuSans-73" transform="translate(521.330078 0)"/>
      <use xlink:href="#DejaVuSans-20" transform="translate(573.429688 0)"/>
      <use xlink:href="#DejaVuSans-73" transform="translate(605.216797 0)"/>
      <use xlink:href="#DejaVuSans-70" transform="translate(657.316406 0)"/>
      <use xlink:href="#DejaVuSans-65" transform="translate(720.792969 0)"/>
      <use xlink:href="#DejaVuSans-63" transform="translate(782.316406 0)"/>
      <use xlink:href="#DejaVuSans-69" transform="translate(837.296875 0)"/>
      <use xlink:href="#DejaVuSans-66" transform="translate(865.080078 0)"/>
      <use xlink:href="#DejaVuSans-69" transform="translate(900.285156 0)"/>
      <use xlink:href="#DejaVuSans-63" transform="translate(928.068359 0)"/>
      <use xlink:href="#DejaVuSans-61" transform="translate(983.048828 0)"/>
      <use xlink:href="#DejaVuSans-74" transform="translate(1044.328125 0)"/>
      <use xlink:href="#DejaVuSans-69" transform="translate(1083.537109 0)"/>
      <use xlink:href="#DejaVuSans-6f" transform="translate(1111.320312 0)"/>
      <use xlink:href="#DejaVuSans-6e" transform="translate(1172.501953 0)"/>
      <use xlink:href="#DejaVuSans-20" transform="translate(1235.880859 0)"/>
      <use xlink:href="#DejaVuSans-66" transform="translate(1267.667969 0)"/>
      <use xlink:href="#DejaVuSans-61" transform="translate(1302.873047 0)"/>
      <use xlink:href="#DejaVuSans-6d" transform="translate(1364.152344 0)"/>
      <use xlink:href="#DejaVuSans-69" transform="translate(1461.564453 0)"/>
      <use xlink:href="#DejaVuSans-6c" transform="translate(1489.347656 0)"/>
      <use xlink:href="#DejaVuSans-79" transform="translate(1517.130859 0)"/>
     </g>
    </g>
   </g>
   <g id="matplotlib.axis_2">
    <g id="ytick_1">
     <g id="text_7">
      <!-- Quality Z -->
      <g style="fill: #262626" transform="translate(76.732656 362.175565) scale(0.11 -0.11)">
       <defs>
        <path id="DejaVuSans-51" d="M 2522 4238 
Q 1834 4238 1429 3725 
Q 1025 3213 1025 2328 
Q 1025 1447 1429 934 
Q 1834 422 2522 422 
Q 3209 422 3611 934 
Q 4013 1447 4013 2328 
Q 4013 3213 3611 3725 
Q 3209 4238 2522 4238 
z
M 3406 84 
L 4238 -825 
L 3475 -825 
L 2784 -78 
Q 2681 -84 2626 -87 
Q 2572 -91 2522 -91 
Q 1538 -91 948 567 
Q 359 1225 359 2328 
Q 359 3434 948 4092 
Q 1538 4750 2522 4750 
Q 3503 4750 4090 4092 
Q 4678 3434 4678 2328 
Q 4678 1516 4351 937 
Q 4025 359 3406 84 
z
" transform="scale(0.015625)"/>
        <path id="DejaVuSans-5a" d="M 359 4666 
L 4025 4666 
L 4025 4184 
L 1075 531 
L 4097 531 
L 4097 0 
L 288 0 
L 288 481 
L 3238 4134 
L 359 4134 
L 359 4666 
z
" transform="scale(0.015625)"/>
       </defs>
       <use xlink:href="#DejaVuSans-51"/>
       <use xlink:href="#DejaVuSans-75" transform="translate(78.710938 0)"/>
       <use xlink:href="#DejaVuSans-61" transform="translate(142.089844 0)"/>
       <use xlink:href="#DejaVuSans-6c" transform="translate(203.369141 0)"/>
       <use xlink:href="#DejaVuSans-69" transform="translate(231.152344 0)"/>
       <use xlink:href="#DejaVuSans-74" transform="translate(258.935547 0)"/>
       <use xlink:href="#DejaVuSans-79" transform="translate(298.144531 0)"/>
       <use xlink:href="#DejaVuSans-20" transform="translate(357.324219 0)"/>
       <use xlink:href="#DejaVuSans-5a" transform="translate(389.111328 0)"/>
      </g>
     </g>
    </g>
    <g id="ytick_2">
     <g id="text_8">
      <!-- Quality PCA -->
      <g style="fill: #262626" transform="translate(62.429219 282.61399) scale(0.11 -0.11)">
       <defs>
        <path id="DejaVuSans-50" d="M 1259 4147 
L 1259 2394 
L 2053 2394 
Q 2494 2394 2734 2622 
Q 2975 2850 2975 3272 
Q 2975 3691 2734 3919 
Q 2494 4147 2053 4147 
L 1259 4147 
z
M 628 4666 
L 2053 4666 
Q 2838 4666 3239 4311 
Q 3641 3956 3641 3272 
Q 3641 2581 3239 2228 
Q 2838 1875 2053 1875 
L 1259 1875 
L 1259 0 
L 628 0 
L 628 4666 
z
" transform="scale(0.015625)"/>
        <path id="DejaVuSans-43" d="M 4122 4306 
L 4122 3641 
Q 3803 3938 3442 4084 
Q 3081 4231 2675 4231 
Q 1875 4231 1450 3742 
Q 1025 3253 1025 2328 
Q 1025 1406 1450 917 
Q 1875 428 2675 428 
Q 3081 428 3442 575 
Q 3803 722 4122 1019 
L 4122 359 
Q 3791 134 3420 21 
Q 3050 -91 2638 -91 
Q 1578 -91 968 557 
Q 359 1206 359 2328 
Q 359 3453 968 4101 
Q 1578 4750 2638 4750 
Q 3056 4750 3426 4639 
Q 3797 4528 4122 4306 
z
" transform="scale(0.015625)"/>
        <path id="DejaVuSans-41" d="M 2188 4044 
L 1331 1722 
L 3047 1722 
L 2188 4044 
z
M 1831 4666 
L 2547 4666 
L 4325 0 
L 3669 0 
L 3244 1197 
L 1141 1197 
L 716 0 
L 50 0 
L 1831 4666 
z
" transform="scale(0.015625)"/>
       </defs>
       <use xlink:href="#DejaVuSans-51"/>
       <use xlink:href="#DejaVuSans-75" transform="translate(78.710938 0)"/>
       <use xlink:href="#DejaVuSans-61" transform="translate(142.089844 0)"/>
       <use xlink:href="#DejaVuSans-6c" transform="translate(203.369141 0)"/>
       <use xlink:href="#DejaVuSans-69" transform="translate(231.152344 0)"/>
       <use xlink:href="#DejaVuSans-74" transform="translate(258.935547 0)"/>
       <use xlink:href="#DejaVuSans-79" transform="translate(298.144531 0)"/>
       <use xlink:href="#DejaVuSans-20" transform="translate(357.324219 0)"/>
       <use xlink:href="#DejaVuSans-50" transform="translate(389.111328 0)"/>
       <use xlink:href="#DejaVuSans-43" transform="translate(449.414062 0)"/>
       <use xlink:href="#DejaVuSans-41" transform="translate(519.238281 0)"/>
      </g>
     </g>
    </g>
    <g id="ytick_3">
     <g id="text_9">
      <!-- Preparation share -->
      <g style="fill: #262626" transform="translate(29.547813 203.052416) scale(0.11 -0.11)">
       <defs>
        <path id="DejaVuSans-68" d="M 3513 2113 
L 3513 0 
L 2938 0 
L 2938 2094 
Q 2938 2591 2744 2837 
Q 2550 3084 2163 3084 
Q 1697 3084 1428 2787 
Q 1159 2491 1159 1978 
L 1159 0 
L 581 0 
L 581 4863 
L 1159 4863 
L 1159 2956 
Q 1366 3272 1645 3428 
Q 1925 3584 2291 3584 
Q 2894 3584 3203 3211 
Q 3513 2838 3513 2113 
z
" transform="scale(0.015625)"/>
       </defs>
       <use xlink:href="#DejaVuSans-50"/>
       <use xlink:href="#DejaVuSans-72" transform="translate(58.552734 0)"/>
       <use xlink:href="#DejaVuSans-65" transform="translate(97.416016 0)"/>
       <use xlink:href="#DejaVuSans-70" transform="translate(158.939453 0)"/>
       <use xlink:href="#DejaVuSans-61" transform="translate(222.416016 0)"/>
       <use xlink:href="#DejaVuSans-72" transform="translate(283.695312 0)"/>
       <use xlink:href="#DejaVuSans-61" transform="translate(324.808594 0)"/>
       <use xlink:href="#DejaVuSans-74" transform="translate(386.087891 0)"/>
       <use xlink:href="#DejaVuSans-69" transform="translate(425.296875 0)"/>
       <use xlink:href="#DejaVuSans-6f" transform="translate(453.080078 0)"/>
       <use xlink:href="#DejaVuSans-6e" transform="translate(514.261719 0)"/>
       <use xlink:href="#DejaVuSans-20" transform="translate(577.640625 0)"/>
       <use xlink:href="#DejaVuSans-73" transform="translate(609.427734 0)"/>
       <use xlink:href="#DejaVuSans-68" transform="translate(661.527344 0)"/>
       <use xlink:href="#DejaVuSans-61" transform="translate(724.90625 0)"/>
       <use xlink:href="#DejaVuSans-72" transform="translate(786.185547 0)"/>
       <use xlink:href="#DejaVuSans-65" transform="translate(825.048828 0)"/>
      </g>
     </g>
    </g>
    <g id="ytick_4">
     <g id="text_10">
      <!-- Procurement share -->
      <g style="fill: #262626" transform="translate(22.81375 123.490842) scale(0.11 -0.11)">
       <use xlink:href="#DejaVuSans-50"/>
       <use xlink:href="#DejaVuSans-72" transform="translate(58.552734 0)"/>
       <use xlink:href="#DejaVuSans-6f" transform="translate(97.416016 0)"/>
       <use xlink:href="#DejaVuSans-63" transform="translate(158.597656 0)"/>
       <use xlink:href="#DejaVuSans-75" transform="translate(213.578125 0)"/>
       <use xlink:href="#DejaVuSans-72" transform="translate(276.957031 0)"/>
       <use xlink:href="#DejaVuSans-65" transform="translate(315.820312 0)"/>
       <use xlink:href="#DejaVuSans-6d" transform="translate(377.34375 0)"/>
       <use xlink:href="#DejaVuSans-65" transform="translate(474.755859 0)"/>
       <use xlink:href="#DejaVuSans-6e" transform="translate(536.279297 0)"/>
       <use xlink:href="#DejaVuSans-74" transform="translate(599.658203 0)"/>
       <use xlink:href="#DejaVuSans-20" transform="translate(638.867188 0)"/>
       <use xlink:href="#DejaVuSans-73" transform="translate(670.654297 0)"/>
       <use xlink:href="#DejaVuSans-68" transform="translate(722.753906 0)"/>
       <use xlink:href="#DejaVuSans-61" transform="translate(786.132812 0)"/>
       <use xlink:href="#DejaVuSans-72" transform="translate(847.412109 0)"/>
       <use xlink:href="#DejaVuSans-65" transform="translate(886.275391 0)"/>
      </g>
     </g>
    </g>
    <g id="ytick_5">
     <g id="text_11">
      <!-- Execution share -->
      <g style="fill: #262626" transform="translate(39.112656 43.929268) scale(0.11 -0.11)">
       <defs>
        <path id="DejaVuSans-45" d="M 628 4666 
L 3578 4666 
L 3578 4134 
L 1259 4134 
L 1259 2753 
L 3481 2753 
L 3481 2222 
L 1259 2222 
L 1259 531 
L 3634 531 
L 3634 0 
L 628 0 
L 628 4666 
z
" transform="scale(0.015625)"/>
        <path id="DejaVuSans-78" d="M 3513 3500 
L 2247 1797 
L 3578 0 
L 2900 0 
L 1881 1375 
L 863 0 
L 184 0 
L 1544 1831 
L 300 3500 
L 978 3500 
L 1906 2253 
L 2834 3500 
L 3513 3500 
z
" transform="scale(0.015625)"/>
       </defs>
       <use xlink:href="#DejaVuSans-45"/>
       <use xlink:href="#DejaVuSans-78" transform="translate(63.183594 0)"/>
       <use xlink:href="#DejaVuSans-65" transform="translate(119.238281 0)"/>
       <use xlink:href="#DejaVuSans-63" transform="translate(180.761719 0)"/>
       <use xlink:href="#DejaVuSans-75" transform="translate(235.742188 0)"/>
       <use xlink:href="#DejaVuSans-74" transform="translate(299.121094 0)"/>
       <use xlink:href="#DejaVuSans-69" transform="translate(338.330078 0)"/>
       <use xlink:href="#DejaVuSans-6f" transform="translate(366.113281 0)"/>
       <use xlink:href="#DejaVuSans-6e" transform="translate(427.294922 0)"/>
       <use xlink:href="#DejaVuSans-20" transform="translate(490.673828 0)"/>
       <use xlink:href="#DejaVuSans-73" transform="translate(522.460938 0)"/>
       <use xlink:href="#DejaVuSans-68" transform="translate(574.560547 0)"/>
       <use xlink:href="#DejaVuSans-61" transform="translate(637.939453 0)"/>
       <use xlink:href="#DejaVuSans-72" transform="translate(699.21875 0)"/>
       <use xlink:href="#DejaVuSans-65" transform="translate(738.082031 0)"/>
      </g>
     </g>
    </g>
    <g id="text_12">
     <!-- Outcome -->
     <g style="fill: #262626" transform="translate(16.318125 226.257651) rotate(-90) scale(0.12 -0.12)">
      <defs>
       <path id="DejaVuSans-4f" d="M 2522 4238 
Q 1834 4238 1429 3725 
Q 1025 3213 1025 2328 
Q 1025 1447 1429 934 
Q 1834 422 2522 422 
Q 3209 422 3611 934 
Q 4013 1447 4013 2328 
Q 4013 3213 3611 3725 
Q 3209 4238 2522 4238 
z
M 2522 4750 
Q 3503 4750 4090 4092 
Q 4678 3434 4678 2328 
Q 4678 1225 4090 567 
Q 3503 -91 2522 -91 
Q 1538 -91 948 565 
Q 359 1222 359 2328 
Q 359 3434 948 4092 
Q 1538 4750 2522 4750 
z
" transform="scale(0.015625)"/>
      </defs>
      <use xlink:href="#DejaVuSans-4f"/>
      <use xlink:href="#DejaVuSans-75" transform="translate(78.710938 0)"/>
      <use xlink:href="#DejaVuSans-74" transform="translate(142.089844 0)"/>
      <use xlink:href="#DejaVuSans-63" transform="translate(181.298828 0)"/>
      <use xlink:href="#DejaVuSans-6f" transform="translate(236.279297 0)"/>
      <use xlink:href="#DejaVuSans-6d" transform="translate(297.460938 0)"/>
      <use xlink:href="#DejaVuSans-65" transform="translate(394.873047 0)"/>
     </g>
    </g>
   </g>
   <g id="PathCollection_1">
    <path d="M 159.341688 363.593864 
C 160.826146 363.593864 162.250005 363.004082 163.299675 361.954412 
C 164.349346 360.904741 164.939127 359.480882 164.939127 357.996424 
C 164.939127 356.511966 164.349346 355.088107 163.299675 354.038436 
C 162.250005 352.988766 160.826146 352.398984 159.341688 352.398984 
C 157.857229 352.398984 156.43337 352.988766 155.3837 354.038436 
C 154.334029 355.088107 153.744248 356.511966 153.744248 357.996424 
C 153.744248 359.480882 154.334029 360.904741 155.3837 361.954412 
C 156.43337 363.004082 157.857229 363.593864 159.341688 363.593864 
z
" clip-path="url(#pd066876271)" style="fill: #8c5a5a; fill-opacity: 0.9; stroke: #ffffff; stroke-opacity: 0.9"/>
    <path d="M 159.341688 288.803071 
C 162.091372 288.803071 164.728806 287.710609 166.673127 285.766289 
C 168.617447 283.821969 169.709908 281.184534 169.709908 278.43485 
C 169.709908 275.685166 168.617447 273.047731 166.673127 271.103411 
C 164.728806 269.15909 162.091372 268.066629 159.341688 268.066629 
C 156.592003 268.066629 153.954569 269.15909 152.010248 271.103411 
C 150.065928 273.047731 148.973467 275.685166 148.973467 278.43485 
C 148.973467 281.184534 150.065928 283.821969 152.010248 285.766289 
C 153.954569 287.710609 156.592003 288.803071 159.341688 288.803071 
z
" clip-path="url(#pd066876271)" style="fill: #8c5a5a; fill-opacity: 0.9; stroke: #ffffff; stroke-opacity: 0.9"/>
    <path d="M 159.341688 45.421614 
C 160.845783 45.421614 162.288478 44.82403 163.352034 43.760474 
C 164.41559 42.696918 165.013174 41.254223 165.013174 39.750127 
C 165.013174 38.246032 164.41559 36.803337 163.352034 35.739781 
C 162.288478 34.676224 160.845783 34.078641 159.341688 34.078641 
C 157.837592 34.078641 156.394897 34.676224 155.331341 35.739781 
C 154.267785 36.803337 153.670201 38.246032 153.670201 39.750127 
C 153.670201 41.254223 154.267785 42.696918 155.331341 43.760474 
C 156.394897 44.82403 157.837592 45.421614 159.341688 45.421614 
z
" clip-path="url(#pd066876271)" style="fill: #4c667a; fill-opacity: 0.9; stroke: #ffffff; stroke-opacity: 0.9"/>
    <path d="M 159.341688 125.131944 
C 160.885234 125.131944 162.365768 124.518687 163.457221 123.427235 
C 164.548673 122.335782 165.16193 120.855248 165.16193 119.311701 
C 165.16193 117.768155 164.548673 116.287621 163.457221 115.196168 
C 162.365768 114.104716 160.885234 113.491459 159.341688 113.491459 
C 157.798141 113.491459 156.317607 114.104716 155.226154 115.196168 
C 154.134702 116.287621 153.521445 117.768155 153.521445 119.311701 
C 153.521445 120.855248 154.134702 122.335782 155.226154 123.427235 
C 156.317607 124.518687 157.798141 125.131944 159.341688 125.131944 
z
" clip-path="url(#pd066876271)" style="fill: #8c5a5a; fill-opacity: 0.9; stroke: #ffffff; stroke-opacity: 0.9"/>
    <path d="M 159.341688 203.532617 
C 160.577359 203.532617 161.762588 203.04168 162.63634 202.167928 
C 163.510092 201.294176 164.001029 200.108948 164.001029 198.873276 
C 164.001029 197.637604 163.510092 196.452375 162.63634 195.578624 
C 161.762588 194.704872 160.577359 194.213934 159.341688 194.213934 
C 158.106016 194.213934 156.920787 194.704872 156.047035 195.578624 
C 155.173283 196.452375 154.682346 197.637604 154.682346 198.873276 
C 154.682346 200.108948 155.173283 201.294176 156.047035 202.167928 
C 156.920787 203.04168 158.106016 203.532617 159.341688 203.532617 
z
" clip-path="url(#pd066876271)" style="fill: #4c667a; fill-opacity: 0.9; stroke: #ffffff; stroke-opacity: 0.9"/>
   </g>
   <g id="PathCollection_2">
    <path d="M 153.750994 363.587117 
L 164.932381 363.587117 
L 164.932381 352.405731 
L 153.750994 352.405731 
z
" clip-path="url(#pd066876271)" style="fill: #8c5a5a; fill-opacity: 0.9; stroke: #ffffff; stroke-opacity: 0.9"/>
    <path d="M 152.698044 285.078493 
L 165.985331 285.078493 
L 165.985331 271.791206 
L 152.698044 271.791206 
z
" clip-path="url(#pd066876271)" style="fill: #8c5a5a; fill-opacity: 0.9; stroke: #ffffff; stroke-opacity: 0.9"/>
    <path d="M 154.701336 44.390479 
L 163.982039 44.390479 
L 163.982039 35.109776 
L 154.701336 35.109776 
z
" clip-path="url(#pd066876271)" style="fill: #4c667a; fill-opacity: 0.9; stroke: #ffffff; stroke-opacity: 0.9"/>
    <path d="M 154.485519 124.16787 
L 164.197856 124.16787 
L 164.197856 114.455533 
L 154.485519 114.455533 
z
" clip-path="url(#pd066876271)" style="fill: #8c5a5a; fill-opacity: 0.9; stroke: #000000; stroke-opacity: 0.9"/>
    <path d="M 154.645996 203.568967 
L 164.037379 203.568967 
L 164.037379 194.177584 
L 154.645996 194.177584 
z
" clip-path="url(#pd066876271)" style="fill: #4c667a; fill-opacity: 0.9; stroke: #000000; stroke-opacity: 0.9"/>
    <path d="M 266.066639 285.569898 
L 280.336736 285.569898 
L 280.336736 271.299802 
L 266.066639 271.299802 
z
" clip-path="url(#pd066876271)" style="fill: #8c5a5a; fill-opacity: 0.9; stroke: #ffffff; stroke-opacity: 0.9"/>
    <path d="M 268.585872 44.365943 
L 277.817503 44.365943 
L 277.817503 35.134312 
L 268.585872 35.134312 
z
" clip-path="url(#pd066876271)" style="fill: #4c667a; fill-opacity: 0.9; stroke: #ffffff; stroke-opacity: 0.9"/>
    <path d="M 268.29001 124.223379 
L 278.113365 124.223379 
L 278.113365 114.400024 
L 268.29001 114.400024 
z
" clip-path="url(#pd066876271)" style="fill: #8c5a5a; fill-opacity: 0.9; stroke: #000000; stroke-opacity: 0.9"/>
    <path d="M 379.65161 285.844927 
L 394.471765 285.844927 
L 394.471765 271.024772 
L 379.65161 271.024772 
z
" clip-path="url(#pd066876271)" style="fill: #8c5a5a; fill-opacity: 0.9; stroke: #ffffff; stroke-opacity: 0.9"/>
    <path d="M 382.549644 44.262171 
L 391.573731 44.262171 
L 391.573731 35.238083 
L 382.549644 35.238083 
z
" clip-path="url(#pd066876271)" style="fill: #4c667a; fill-opacity: 0.9; stroke: #ffffff; stroke-opacity: 0.9"/>
    <path d="M 382.259574 124.113815 
L 391.863801 124.113815 
L 391.863801 114.509588 
L 382.259574 114.509588 
z
" clip-path="url(#pd066876271)" style="fill: #8c5a5a; fill-opacity: 0.9; stroke: #000000; stroke-opacity: 0.9"/>
    <path d="M 490.553467 288.803071 
L 511.289908 288.803071 
L 511.289908 268.066629 
L 490.553467 268.066629 
z
" clip-path="url(#pd066876271)" style="fill: #8c5a5a; fill-opacity: 0.9; stroke: #000000; stroke-opacity: 0.9"/>
    <path d="M 495.928841 44.742974 
L 505.914534 44.742974 
L 505.914534 34.757281 
L 495.928841 34.757281 
z
" clip-path="url(#pd066876271)" style="fill: #4c667a; fill-opacity: 0.9; stroke: #000000; stroke-opacity: 0.9"/>
    <path d="M 495.780416 124.452973 
L 506.062959 124.452973 
L 506.062959 114.17043 
L 495.780416 114.17043 
z
" clip-path="url(#pd066876271)" style="fill: #8c5a5a; fill-opacity: 0.9; stroke: #000000; stroke-opacity: 0.9"/>
    <path d="M 605.821823 287.394714 
L 623.741552 287.394714 
L 623.741552 269.474985 
L 605.821823 269.474985 
z
" clip-path="url(#pd066876271)" style="fill: #8c5a5a; fill-opacity: 0.9; stroke: #ffffff; stroke-opacity: 0.9"/>
    <path d="M 610.240123 44.291692 
L 619.323252 44.291692 
L 619.323252 35.208563 
L 610.240123 35.208563 
z
" clip-path="url(#pd066876271)" style="fill: #4c667a; fill-opacity: 0.9; stroke: #ffffff; stroke-opacity: 0.9"/>
    <path d="M 610.236759 123.85663 
L 619.326616 123.85663 
L 619.326616 114.766773 
L 610.236759 114.766773 
z
" clip-path="url(#pd066876271)" style="fill: #8c5a5a; fill-opacity: 0.9; stroke: #ffffff; stroke-opacity: 0.9"/>
   </g>
   <g id="PathCollection_3">
    <path d="M 159.341688 365.692047 
L 167.03731 357.996424 
L 159.341688 350.300801 
L 151.646065 357.996424 
z
" clip-path="url(#pd066876271)" style="fill: #8c5a5a; fill-opacity: 0.9; stroke: #ffffff; stroke-opacity: 0.9"/>
    <path d="M 159.341688 289.400823 
L 170.30766 278.43485 
L 159.341688 267.468877 
L 148.375715 278.43485 
z
" clip-path="url(#pd066876271)" style="fill: #8c5a5a; fill-opacity: 0.9; stroke: #000000; stroke-opacity: 0.9"/>
    <path d="M 159.341688 46.573333 
L 166.164893 39.750127 
L 159.341688 32.926922 
L 152.518482 39.750127 
z
" clip-path="url(#pd066876271)" style="fill: #4c667a; fill-opacity: 0.9; stroke: #000000; stroke-opacity: 0.9"/>
    <path d="M 159.341688 126.196746 
L 166.226732 119.311701 
L 159.341688 112.426657 
L 152.456643 119.311701 
z
" clip-path="url(#pd066876271)" style="fill: #8c5a5a; fill-opacity: 0.9; stroke: #000000; stroke-opacity: 0.9"/>
    <path d="M 159.341688 205.264497 
L 165.732909 198.873276 
L 159.341688 192.482054 
L 152.950466 198.873276 
z
" clip-path="url(#pd066876271)" style="fill: #4c667a; fill-opacity: 0.9; stroke: #ffffff; stroke-opacity: 0.9"/>
    <path d="M 273.201688 290.332933 
L 285.099771 278.43485 
L 273.201688 266.536767 
L 261.303604 278.43485 
z
" clip-path="url(#pd066876271)" style="fill: #8c5a5a; fill-opacity: 0.9; stroke: #000000; stroke-opacity: 0.9"/>
    <path d="M 273.201688 46.652611 
L 280.104171 39.750127 
L 273.201688 32.847644 
L 266.299204 39.750127 
z
" clip-path="url(#pd066876271)" style="fill: #4c667a; fill-opacity: 0.9; stroke: #000000; stroke-opacity: 0.9"/>
    <path d="M 273.201688 126.343492 
L 280.233478 119.311701 
L 273.201688 112.279911 
L 266.169897 119.311701 
z
" clip-path="url(#pd066876271)" style="fill: #8c5a5a; fill-opacity: 0.9; stroke: #000000; stroke-opacity: 0.9"/>
    <path d="M 387.061688 290.715862 
L 399.3427 278.43485 
L 387.061688 266.153837 
L 374.780675 278.43485 
z
" clip-path="url(#pd066876271)" style="fill: #8c5a5a; fill-opacity: 0.9; stroke: #000000; stroke-opacity: 0.9"/>
    <path d="M 387.061688 46.454598 
L 393.766159 39.750127 
L 387.061688 33.045656 
L 380.357216 39.750127 
z
" clip-path="url(#pd066876271)" style="fill: #4c667a; fill-opacity: 0.9; stroke: #000000; stroke-opacity: 0.9"/>
    <path d="M 387.061688 126.091272 
L 393.841258 119.311701 
L 387.061688 112.532131 
L 380.282117 119.311701 
z
" clip-path="url(#pd066876271)" style="fill: #8c5a5a; fill-opacity: 0.9; stroke: #000000; stroke-opacity: 0.9"/>
    <path d="M 500.921688 291.320401 
L 513.807238 278.43485 
L 500.921688 265.549299 
L 488.036137 278.43485 
z
" clip-path="url(#pd066876271)" style="fill: #8c5a5a; fill-opacity: 0.9; stroke: #000000; stroke-opacity: 0.9"/>
    <path d="M 500.921688 46.674468 
L 507.846028 39.750127 
L 500.921688 32.825787 
L 493.997347 39.750127 
z
" clip-path="url(#pd066876271)" style="fill: #4c667a; fill-opacity: 0.9; stroke: #000000; stroke-opacity: 0.9"/>
    <path d="M 500.921688 126.354819 
L 507.964805 119.311701 
L 500.921688 112.268584 
L 493.87857 119.311701 
z
" clip-path="url(#pd066876271)" style="fill: #8c5a5a; fill-opacity: 0.9; stroke: #000000; stroke-opacity: 0.9"/>
    <path d="M 614.781688 293.097728 
L 629.444566 278.43485 
L 614.781688 263.771972 
L 600.118809 278.43485 
z
" clip-path="url(#pd066876271)" style="fill: #8c5a5a; fill-opacity: 0.9; stroke: #000000; stroke-opacity: 0.9"/>
    <path d="M 614.781688 46.519522 
L 621.551082 39.750127 
L 614.781688 32.980733 
L 608.012293 39.750127 
z
" clip-path="url(#pd066876271)" style="fill: #8c5a5a; fill-opacity: 0.9; stroke: #000000; stroke-opacity: 0.9"/>
    <path d="M 614.781688 125.963441 
L 621.433427 119.311701 
L 614.781688 112.659962 
L 608.129948 119.311701 
z
" clip-path="url(#pd066876271)" style="fill: #4c667a; fill-opacity: 0.9; stroke: #000000; stroke-opacity: 0.9"/>
   </g>
   <g id="text_13">
    <!-- Figure 8-1. Robustness architecture map -->
    <g style="fill: #262626" transform="translate(225.357313 17.837812) scale(0.14 -0.14)">
     <defs>
      <path id="DejaVuSans-Bold-46" d="M 588 4666 
L 3834 4666 
L 3834 3756 
L 1791 3756 
L 1791 2888 
L 3713 2888 
L 3713 1978 
L 1791 1978 
L 1791 0 
L 588 0 
L 588 4666 
z
" transform="scale(0.015625)"/>
      <path id="DejaVuSans-Bold-69" d="M 538 3500 
L 1656 3500 
L 1656 0 
L 538 0 
L 538 3500 
z
M 538 4863 
L 1656 4863 
L 1656 3950 
L 538 3950 
L 538 4863 
z
" transform="scale(0.015625)"/>
      <path id="DejaVuSans-Bold-67" d="M 2919 594 
Q 2688 288 2409 144 
Q 2131 0 1766 0 
Q 1125 0 706 504 
Q 288 1009 288 1791 
Q 288 2575 706 3076 
Q 1125 3578 1766 3578 
Q 2131 3578 2409 3434 
Q 2688 3291 2919 2981 
L 2919 3500 
L 4044 3500 
L 4044 353 
Q 4044 -491 3511 -936 
Q 2978 -1381 1966 -1381 
Q 1638 -1381 1331 -1331 
Q 1025 -1281 716 -1178 
L 716 -306 
Q 1009 -475 1290 -558 
Q 1572 -641 1856 -641 
Q 2406 -641 2662 -400 
Q 2919 -159 2919 353 
L 2919 594 
z
M 2181 2772 
Q 1834 2772 1640 2515 
Q 1447 2259 1447 1791 
Q 1447 1309 1634 1061 
Q 1822 813 2181 813 
Q 2531 813 2725 1069 
Q 2919 1325 2919 1791 
Q 2919 2259 2725 2515 
Q 2531 2772 2181 2772 
z
" transform="scale(0.015625)"/>
      <path id="DejaVuSans-Bold-75" d="M 500 1363 
L 500 3500 
L 1625 3500 
L 1625 3150 
Q 1625 2866 1622 2436 
Q 1619 2006 1619 1863 
Q 1619 1441 1641 1255 
Q 1663 1069 1716 984 
Q 1784 875 1895 815 
Q 2006 756 2150 756 
Q 2500 756 2700 1025 
Q 2900 1294 2900 1772 
L 2900 3500 
L 4019 3500 
L 4019 0 
L 2900 0 
L 2900 506 
Q 2647 200 2364 54 
Q 2081 -91 1741 -91 
Q 1134 -91 817 281 
Q 500 653 500 1363 
z
" transform="scale(0.015625)"/>
      <path id="DejaVuSans-Bold-72" d="M 3138 2547 
Q 2991 2616 2845 2648 
Q 2700 2681 2553 2681 
Q 2122 2681 1889 2404 
Q 1656 2128 1656 1613 
L 1656 0 
L 538 0 
L 538 3500 
L 1656 3500 
L 1656 2925 
Q 1872 3269 2151 3426 
Q 2431 3584 2822 3584 
Q 2878 3584 2943 3579 
Q 3009 3575 3134 3559 
L 3138 2547 
z
" transform="scale(0.015625)"/>
      <path id="DejaVuSans-Bold-65" d="M 4031 1759 
L 4031 1441 
L 1416 1441 
Q 1456 1047 1700 850 
Q 1944 653 2381 653 
Q 2734 653 3104 758 
Q 3475 863 3866 1075 
L 3866 213 
Q 3469 63 3072 -14 
Q 2675 -91 2278 -91 
Q 1328 -91 801 392 
Q 275 875 275 1747 
Q 275 2603 792 3093 
Q 1309 3584 2216 3584 
Q 3041 3584 3536 3087 
Q 4031 2591 4031 1759 
z
M 2881 2131 
Q 2881 2450 2695 2645 
Q 2509 2841 2209 2841 
Q 1884 2841 1681 2658 
Q 1478 2475 1428 2131 
L 2881 2131 
z
" transform="scale(0.015625)"/>
      <path id="DejaVuSans-Bold-20" transform="scale(0.015625)"/>
      <path id="DejaVuSans-Bold-38" d="M 2228 2088 
Q 1891 2088 1709 1903 
Q 1528 1719 1528 1375 
Q 1528 1031 1709 848 
Q 1891 666 2228 666 
Q 2563 666 2741 848 
Q 2919 1031 2919 1375 
Q 2919 1722 2741 1905 
Q 2563 2088 2228 2088 
z
M 1350 2484 
Q 925 2613 709 2878 
Q 494 3144 494 3541 
Q 494 4131 934 4440 
Q 1375 4750 2228 4750 
Q 3075 4750 3515 4442 
Q 3956 4134 3956 3541 
Q 3956 3144 3739 2878 
Q 3522 2613 3097 2484 
Q 3572 2353 3814 2058 
Q 4056 1763 4056 1313 
Q 4056 619 3595 264 
Q 3134 -91 2228 -91 
Q 1319 -91 855 264 
Q 391 619 391 1313 
Q 391 1763 633 2058 
Q 875 2353 1350 2484 
z
M 1631 3419 
Q 1631 3141 1786 2991 
Q 1941 2841 2228 2841 
Q 2509 2841 2662 2991 
Q 2816 3141 2816 3419 
Q 2816 3697 2662 3845 
Q 2509 3994 2228 3994 
Q 1941 3994 1786 3844 
Q 1631 3694 1631 3419 
z
" transform="scale(0.015625)"/>
      <path id="DejaVuSans-Bold-2d" d="M 347 2297 
L 2309 2297 
L 2309 1388 
L 347 1388 
L 347 2297 
z
" transform="scale(0.015625)"/>
      <path id="DejaVuSans-Bold-31" d="M 750 831 
L 1813 831 
L 1813 3847 
L 722 3622 
L 722 4441 
L 1806 4666 
L 2950 4666 
L 2950 831 
L 4013 831 
L 4013 0 
L 750 0 
L 750 831 
z
" transform="scale(0.015625)"/>
      <path id="DejaVuSans-Bold-2e" d="M 653 1209 
L 1778 1209 
L 1778 0 
L 653 0 
L 653 1209 
z
" transform="scale(0.015625)"/>
      <path id="DejaVuSans-Bold-52" d="M 2297 2597 
Q 2675 2597 2839 2737 
Q 3003 2878 3003 3200 
Q 3003 3519 2839 3656 
Q 2675 3794 2297 3794 
L 1791 3794 
L 1791 2597 
L 2297 2597 
z
M 1791 1766 
L 1791 0 
L 588 0 
L 588 4666 
L 2425 4666 
Q 3347 4666 3776 4356 
Q 4206 4047 4206 3378 
Q 4206 2916 3982 2619 
Q 3759 2322 3309 2181 
Q 3556 2125 3751 1926 
Q 3947 1728 4147 1325 
L 4800 0 
L 3519 0 
L 2950 1159 
Q 2778 1509 2601 1637 
Q 2425 1766 2131 1766 
L 1791 1766 
z
" transform="scale(0.015625)"/>
      <path id="DejaVuSans-Bold-6f" d="M 2203 2784 
Q 1831 2784 1636 2517 
Q 1441 2250 1441 1747 
Q 1441 1244 1636 976 
Q 1831 709 2203 709 
Q 2569 709 2762 976 
Q 2956 1244 2956 1747 
Q 2956 2250 2762 2517 
Q 2569 2784 2203 2784 
z
M 2203 3584 
Q 3106 3584 3614 3096 
Q 4122 2609 4122 1747 
Q 4122 884 3614 396 
Q 3106 -91 2203 -91 
Q 1297 -91 786 396 
Q 275 884 275 1747 
Q 275 2609 786 3096 
Q 1297 3584 2203 3584 
z
" transform="scale(0.015625)"/>
      <path id="DejaVuSans-Bold-62" d="M 2400 722 
Q 2759 722 2948 984 
Q 3138 1247 3138 1747 
Q 3138 2247 2948 2509 
Q 2759 2772 2400 2772 
Q 2041 2772 1848 2508 
Q 1656 2244 1656 1747 
Q 1656 1250 1848 986 
Q 2041 722 2400 722 
z
M 1656 2988 
Q 1888 3294 2169 3439 
Q 2450 3584 2816 3584 
Q 3463 3584 3878 3070 
Q 4294 2556 4294 1747 
Q 4294 938 3878 423 
Q 3463 -91 2816 -91 
Q 2450 -91 2169 54 
Q 1888 200 1656 506 
L 1656 0 
L 538 0 
L 538 4863 
L 1656 4863 
L 1656 2988 
z
" transform="scale(0.015625)"/>
      <path id="DejaVuSans-Bold-73" d="M 3272 3391 
L 3272 2541 
Q 2913 2691 2578 2766 
Q 2244 2841 1947 2841 
Q 1628 2841 1473 2761 
Q 1319 2681 1319 2516 
Q 1319 2381 1436 2309 
Q 1553 2238 1856 2203 
L 2053 2175 
Q 2913 2066 3209 1816 
Q 3506 1566 3506 1031 
Q 3506 472 3093 190 
Q 2681 -91 1863 -91 
Q 1516 -91 1145 -36 
Q 775 19 384 128 
L 384 978 
Q 719 816 1070 734 
Q 1422 653 1784 653 
Q 2113 653 2278 743 
Q 2444 834 2444 1013 
Q 2444 1163 2330 1236 
Q 2216 1309 1875 1350 
L 1678 1375 
Q 931 1469 631 1722 
Q 331 1975 331 2491 
Q 331 3047 712 3315 
Q 1094 3584 1881 3584 
Q 2191 3584 2531 3537 
Q 2872 3491 3272 3391 
z
" transform="scale(0.015625)"/>
      <path id="DejaVuSans-Bold-74" d="M 1759 4494 
L 1759 3500 
L 2913 3500 
L 2913 2700 
L 1759 2700 
L 1759 1216 
Q 1759 972 1856 886 
Q 1953 800 2241 800 
L 2816 800 
L 2816 0 
L 1856 0 
Q 1194 0 917 276 
Q 641 553 641 1216 
L 641 2700 
L 84 2700 
L 84 3500 
L 641 3500 
L 641 4494 
L 1759 4494 
z
" transform="scale(0.015625)"/>
      <path id="DejaVuSans-Bold-6e" d="M 4056 2131 
L 4056 0 
L 2931 0 
L 2931 347 
L 2931 1631 
Q 2931 2084 2911 2256 
Q 2891 2428 2841 2509 
Q 2775 2619 2662 2680 
Q 2550 2741 2406 2741 
Q 2056 2741 1856 2470 
Q 1656 2200 1656 1722 
L 1656 0 
L 538 0 
L 538 3500 
L 1656 3500 
L 1656 2988 
Q 1909 3294 2193 3439 
Q 2478 3584 2822 3584 
Q 3428 3584 3742 3212 
Q 4056 2841 4056 2131 
z
" transform="scale(0.015625)"/>
      <path id="DejaVuSans-Bold-61" d="M 2106 1575 
Q 1756 1575 1579 1456 
Q 1403 1338 1403 1106 
Q 1403 894 1545 773 
Q 1688 653 1941 653 
Q 2256 653 2472 879 
Q 2688 1106 2688 1447 
L 2688 1575 
L 2106 1575 
z
M 3816 1997 
L 3816 0 
L 2688 0 
L 2688 519 
Q 2463 200 2181 54 
Q 1900 -91 1497 -91 
Q 953 -91 614 226 
Q 275 544 275 1050 
Q 275 1666 698 1953 
Q 1122 2241 2028 2241 
L 2688 2241 
L 2688 2328 
Q 2688 2594 2478 2717 
Q 2269 2841 1825 2841 
Q 1466 2841 1156 2769 
Q 847 2697 581 2553 
L 581 3406 
Q 941 3494 1303 3539 
Q 1666 3584 2028 3584 
Q 2975 3584 3395 3211 
Q 3816 2838 3816 1997 
z
" transform="scale(0.015625)"/>
      <path id="DejaVuSans-Bold-63" d="M 3366 3391 
L 3366 2478 
Q 3138 2634 2908 2709 
Q 2678 2784 2431 2784 
Q 1963 2784 1702 2511 
Q 1441 2238 1441 1747 
Q 1441 1256 1702 982 
Q 1963 709 2431 709 
Q 2694 709 2930 787 
Q 3166 866 3366 1019 
L 3366 103 
Q 3103 6 2833 -42 
Q 2563 -91 2291 -91 
Q 1344 -91 809 395 
Q 275 881 275 1747 
Q 275 2613 809 3098 
Q 1344 3584 2291 3584 
Q 2566 3584 2833 3536 
Q 3100 3488 3366 3391 
z
" transform="scale(0.015625)"/>
      <path id="DejaVuSans-Bold-68" d="M 4056 2131 
L 4056 0 
L 2931 0 
L 2931 347 
L 2931 1625 
Q 2931 2084 2911 2256 
Q 2891 2428 2841 2509 
Q 2775 2619 2662 2680 
Q 2550 2741 2406 2741 
Q 2056 2741 1856 2470 
Q 1656 2200 1656 1722 
L 1656 0 
L 538 0 
L 538 4863 
L 1656 4863 
L 1656 2988 
Q 1909 3294 2193 3439 
Q 2478 3584 2822 3584 
Q 3428 3584 3742 3212 
Q 4056 2841 4056 2131 
z
" transform="scale(0.015625)"/>
      <path id="DejaVuSans-Bold-6d" d="M 3781 2919 
Q 3994 3244 4286 3414 
Q 4578 3584 4928 3584 
Q 5531 3584 5847 3212 
Q 6163 2841 6163 2131 
L 6163 0 
L 5038 0 
L 5038 1825 
Q 5041 1866 5042 1909 
Q 5044 1953 5044 2034 
Q 5044 2406 4934 2573 
Q 4825 2741 4581 2741 
Q 4263 2741 4089 2478 
Q 3916 2216 3909 1719 
L 3909 0 
L 2784 0 
L 2784 1825 
Q 2784 2406 2684 2573 
Q 2584 2741 2328 2741 
Q 2006 2741 1831 2477 
Q 1656 2213 1656 1722 
L 1656 0 
L 531 0 
L 531 3500 
L 1656 3500 
L 1656 2988 
Q 1863 3284 2130 3434 
Q 2397 3584 2719 3584 
Q 3081 3584 3359 3409 
Q 3638 3234 3781 2919 
z
" transform="scale(0.015625)"/>
      <path id="DejaVuSans-Bold-70" d="M 1656 506 
L 1656 -1331 
L 538 -1331 
L 538 3500 
L 1656 3500 
L 1656 2988 
Q 1888 3294 2169 3439 
Q 2450 3584 2816 3584 
Q 3463 3584 3878 3070 
Q 4294 2556 4294 1747 
Q 4294 938 3878 423 
Q 3463 -91 2816 -91 
Q 2450 -91 2169 54 
Q 1888 200 1656 506 
z
M 2400 2772 
Q 2041 2772 1848 2508 
Q 1656 2244 1656 1747 
Q 1656 1250 1848 986 
Q 2041 722 2400 722 
Q 2759 722 2948 984 
Q 3138 1247 3138 1747 
Q 3138 2247 2948 2509 
Q 2759 2772 2400 2772 
z
" transform="scale(0.015625)"/>
     </defs>
     <use xlink:href="#DejaVuSans-Bold-46"/>
     <use xlink:href="#DejaVuSans-Bold-69" transform="translate(68.310547 0)"/>
     <use xlink:href="#DejaVuSans-Bold-67" transform="translate(102.587891 0)"/>
     <use xlink:href="#DejaVuSans-Bold-75" transform="translate(174.169922 0)"/>
     <use xlink:href="#DejaVuSans-Bold-72" transform="translate(245.361328 0)"/>
     <use xlink:href="#DejaVuSans-Bold-65" transform="translate(294.677734 0)"/>
     <use xlink:href="#DejaVuSans-Bold-20" transform="translate(362.5 0)"/>
     <use xlink:href="#DejaVuSans-Bold-38" transform="translate(397.314453 0)"/>
     <use xlink:href="#DejaVuSans-Bold-2d" transform="translate(466.894531 0)"/>
     <use xlink:href="#DejaVuSans-Bold-31" transform="translate(508.398438 0)"/>
     <use xlink:href="#DejaVuSans-Bold-2e" transform="translate(577.978516 0)"/>
     <use xlink:href="#DejaVuSans-Bold-20" transform="translate(615.966797 0)"/>
     <use xlink:href="#DejaVuSans-Bold-52" transform="translate(650.78125 0)"/>
     <use xlink:href="#DejaVuSans-Bold-6f" transform="translate(727.783203 0)"/>
     <use xlink:href="#DejaVuSans-Bold-62" transform="translate(796.484375 0)"/>
     <use xlink:href="#DejaVuSans-Bold-75" transform="translate(868.066406 0)"/>
     <use xlink:href="#DejaVuSans-Bold-73" transform="translate(939.257812 0)"/>
     <use xlink:href="#DejaVuSans-Bold-74" transform="translate(998.779297 0)"/>
     <use xlink:href="#DejaVuSans-Bold-6e" transform="translate(1046.582031 0)"/>
     <use xlink:href="#DejaVuSans-Bold-65" transform="translate(1117.773438 0)"/>
     <use xlink:href="#DejaVuSans-Bold-73" transform="translate(1185.595703 0)"/>
     <use xlink:href="#DejaVuSans-Bold-73" transform="translate(1245.117188 0)"/>
     <use xlink:href="#DejaVuSans-Bold-20" transform="translate(1304.638672 0)"/>
     <use xlink:href="#DejaVuSans-Bold-61" transform="translate(1339.453125 0)"/>
     <use xlink:href="#DejaVuSans-Bold-72" transform="translate(1406.933594 0)"/>
     <use xlink:href="#DejaVuSans-Bold-63" transform="translate(1456.25 0)"/>
     <use xlink:href="#DejaVuSans-Bold-68" transform="translate(1515.527344 0)"/>
     <use xlink:href="#DejaVuSans-Bold-69" transform="translate(1586.71875 0)"/>
     <use xlink:href="#DejaVuSans-Bold-74" transform="translate(1620.996094 0)"/>
     <use xlink:href="#DejaVuSans-Bold-65" transform="translate(1668.798828 0)"/>
     <use xlink:href="#DejaVuSans-Bold-63" transform="translate(1736.621094 0)"/>
     <use xlink:href="#DejaVuSans-Bold-74" transform="translate(1795.898438 0)"/>
     <use xlink:href="#DejaVuSans-Bold-75" transform="translate(1843.701172 0)"/>
     <use xlink:href="#DejaVuSans-Bold-72" transform="translate(1914.892578 0)"/>
     <use xlink:href="#DejaVuSans-Bold-65" transform="translate(1964.208984 0)"/>
     <use xlink:href="#DejaVuSans-Bold-20" transform="translate(2032.03125 0)"/>
     <use xlink:href="#DejaVuSans-Bold-6d" transform="translate(2066.845703 0)"/>
     <use xlink:href="#DejaVuSans-Bold-61" transform="translate(2171.044922 0)"/>
     <use xlink:href="#DejaVuSans-Bold-70" transform="translate(2238.525391 0)"/>
    </g>
   </g>
   <g id="legend_1">
    <g id="line2d_1">
     <path d="M 657.473368 38.246094 
L 668.473368 38.246094 
L 679.473368 38.246094 
" style="fill: none; stroke: #ffffff; stroke-width: 1.5; stroke-linecap: round"/>
     <defs>
      <path id="md6ffc818bf" d="M 0 4 
C 1.060812 4 2.078319 3.578535 2.828427 2.828427 
C 3.578535 2.078319 4 1.060812 4 0 
C 4 -1.060812 3.578535 -2.078319 2.828427 -2.828427 
C 2.078319 -3.578535 1.060812 -4 0 -4 
C -1.060812 -4 -2.078319 -3.578535 -2.828427 -2.828427 
C -3.578535 -2.078319 -4 -1.060812 -4 0 
C -4 1.060812 -3.578535 2.078319 -2.828427 2.828427 
C -2.078319 3.578535 -1.060812 4 0 4 
z
" style="stroke: #ffffff"/>
     </defs>
     <g>
      <use xlink:href="#md6ffc818bf" x="668.473368" y="38.246094" style="fill: #7f8790; stroke: #ffffff"/>
     </g>
    </g>
    <g id="text_14">
     <!-- DID intensity -->
     <g style="fill: #262626" transform="translate(688.273368 42.096094) scale(0.11 -0.11)">
      <defs>
       <path id="DejaVuSans-49" d="M 628 4666 
L 1259 4666 
L 1259 0 
L 628 0 
L 628 4666 
z
" transform="scale(0.015625)"/>
      </defs>
      <use xlink:href="#DejaVuSans-44"/>
      <use xlink:href="#DejaVuSans-49" transform="translate(77.001953 0)"/>
      <use xlink:href="#DejaVuSans-44" transform="translate(106.494141 0)"/>
      <use xlink:href="#DejaVuSans-20" transform="translate(183.496094 0)"/>
      <use xlink:href="#DejaVuSans-69" transform="translate(215.283203 0)"/>
      <use xlink:href="#DejaVuSans-6e" transform="translate(243.066406 0)"/>
      <use xlink:href="#DejaVuSans-74" transform="translate(306.445312 0)"/>
      <use xlink:href="#DejaVuSans-65" transform="translate(345.654297 0)"/>
      <use xlink:href="#DejaVuSans-6e" transform="translate(407.177734 0)"/>
      <use xlink:href="#DejaVuSans-73" transform="translate(470.556641 0)"/>
      <use xlink:href="#DejaVuSans-69" transform="translate(522.65625 0)"/>
      <use xlink:href="#DejaVuSans-74" transform="translate(550.439453 0)"/>
      <use xlink:href="#DejaVuSans-79" transform="translate(589.648438 0)"/>
     </g>
    </g>
    <g id="line2d_2">
     <path d="M 657.473368 54.392031 
L 668.473368 54.392031 
L 679.473368 54.392031 
" style="fill: none; stroke: #ffffff; stroke-width: 1.5; stroke-linecap: round"/>
     <defs>
      <path id="m067de7d3a4" d="M -4 4 
L 4 4 
L 4 -4 
L -4 -4 
z
" style="stroke: #ffffff; stroke-linejoin: miter"/>
     </defs>
     <g>
      <use xlink:href="#m067de7d3a4" x="668.473368" y="54.392031" style="fill: #7f8790; stroke: #ffffff; stroke-linejoin: miter"/>
     </g>
    </g>
    <g id="text_15">
     <!-- DID any -->
     <g style="fill: #262626" transform="translate(688.273368 58.242031) scale(0.11 -0.11)">
      <use xlink:href="#DejaVuSans-44"/>
      <use xlink:href="#DejaVuSans-49" transform="translate(77.001953 0)"/>
      <use xlink:href="#DejaVuSans-44" transform="translate(106.494141 0)"/>
      <use xlink:href="#DejaVuSans-20" transform="translate(183.496094 0)"/>
      <use xlink:href="#DejaVuSans-61" transform="translate(215.283203 0)"/>
      <use xlink:href="#DejaVuSans-6e" transform="translate(276.5625 0)"/>
      <use xlink:href="#DejaVuSans-79" transform="translate(339.941406 0)"/>
     </g>
    </g>
    <g id="line2d_3">
     <path d="M 657.473368 70.537969 
L 668.473368 70.537969 
L 679.473368 70.537969 
" style="fill: none; stroke: #ffffff; stroke-width: 1.5; stroke-linecap: round"/>
     <defs>
      <path id="m05f927dea5" d="M -0 5.656854 
L 5.656854 0 
L 0 -5.656854 
L -5.656854 -0 
z
" style="stroke: #ffffff; stroke-linejoin: miter"/>
     </defs>
     <g>
      <use xlink:href="#m05f927dea5" x="668.473368" y="70.537969" style="fill: #7f8790; stroke: #ffffff; stroke-linejoin: miter"/>
     </g>
    </g>
    <g id="text_16">
     <!-- Treat share -->
     <g style="fill: #262626" transform="translate(688.273368 74.387969) scale(0.11 -0.11)">
      <defs>
       <path id="DejaVuSans-54" d="M -19 4666 
L 3928 4666 
L 3928 4134 
L 2272 4134 
L 2272 0 
L 1638 0 
L 1638 4134 
L -19 4134 
L -19 4666 
z
" transform="scale(0.015625)"/>
      </defs>
      <use xlink:href="#DejaVuSans-54"/>
      <use xlink:href="#DejaVuSans-72" transform="translate(46.333984 0)"/>
      <use xlink:href="#DejaVuSans-65" transform="translate(85.197266 0)"/>
      <use xlink:href="#DejaVuSans-61" transform="translate(146.720703 0)"/>
      <use xlink:href="#DejaVuSans-74" transform="translate(208 0)"/>
      <use xlink:href="#DejaVuSans-20" transform="translate(247.208984 0)"/>
      <use xlink:href="#DejaVuSans-73" transform="translate(278.996094 0)"/>
      <use xlink:href="#DejaVuSans-68" transform="translate(331.095703 0)"/>
      <use xlink:href="#DejaVuSans-61" transform="translate(394.474609 0)"/>
      <use xlink:href="#DejaVuSans-72" transform="translate(455.753906 0)"/>
      <use xlink:href="#DejaVuSans-65" transform="translate(494.617188 0)"/>
     </g>
    </g>
    <g id="line2d_4">
     <path d="M 657.473368 86.683906 
L 668.473368 86.683906 
L 679.473368 86.683906 
" style="fill: none; stroke: #ffffff; stroke-width: 1.5; stroke-linecap: round"/>
     <defs>
      <path id="me2c728fc76" d="M 0 4 
C 1.060812 4 2.078319 3.578535 2.828427 2.828427 
C 3.578535 2.078319 4 1.060812 4 0 
C 4 -1.060812 3.578535 -2.078319 2.828427 -2.828427 
C 2.078319 -3.578535 1.060812 -4 0 -4 
C -1.060812 -4 -2.078319 -3.578535 -2.828427 -2.828427 
C -3.578535 -2.078319 -4 -1.060812 -4 0 
C -4 1.060812 -3.578535 2.078319 -2.828427 2.828427 
C -2.078319 3.578535 -1.060812 4 0 4 
z
" style="stroke: #ffffff"/>
     </defs>
     <g>
      <use xlink:href="#me2c728fc76" x="668.473368" y="86.683906" style="fill: #4c667a; stroke: #ffffff"/>
     </g>
    </g>
    <g id="text_17">
     <!-- Positive coef -->
     <g style="fill: #262626" transform="translate(688.273368 90.533906) scale(0.11 -0.11)">
      <defs>
       <path id="DejaVuSans-76" d="M 191 3500 
L 800 3500 
L 1894 563 
L 2988 3500 
L 3597 3500 
L 2284 0 
L 1503 0 
L 191 3500 
z
" transform="scale(0.015625)"/>
      </defs>
      <use xlink:href="#DejaVuSans-50"/>
      <use xlink:href="#DejaVuSans-6f" transform="translate(56.677734 0)"/>
      <use xlink:href="#DejaVuSans-73" transform="translate(117.859375 0)"/>
      <use xlink:href="#DejaVuSans-69" transform="translate(169.958984 0)"/>
      <use xlink:href="#DejaVuSans-74" transform="translate(197.742188 0)"/>
      <use xlink:href="#DejaVuSans-69" transform="translate(236.951172 0)"/>
      <use xlink:href="#DejaVuSans-76" transform="translate(264.734375 0)"/>
      <use xlink:href="#DejaVuSans-65" transform="translate(323.914062 0)"/>
      <use xlink:href="#DejaVuSans-20" transform="translate(385.4375 0)"/>
      <use xlink:href="#DejaVuSans-63" transform="translate(417.224609 0)"/>
      <use xlink:href="#DejaVuSans-6f" transform="translate(472.205078 0)"/>
      <use xlink:href="#DejaVuSans-65" transform="translate(533.386719 0)"/>
      <use xlink:href="#DejaVuSans-66" transform="translate(594.910156 0)"/>
     </g>
    </g>
    <g id="line2d_5">
     <path d="M 657.473368 102.829844 
L 668.473368 102.829844 
L 679.473368 102.829844 
" style="fill: none; stroke: #ffffff; stroke-width: 1.5; stroke-linecap: round"/>
     <defs>
      <path id="m50a606c7d2" d="M 0 4 
C 1.060812 4 2.078319 3.578535 2.828427 2.828427 
C 3.578535 2.078319 4 1.060812 4 0 
C 4 -1.060812 3.578535 -2.078319 2.828427 -2.828427 
C 2.078319 -3.578535 1.060812 -4 0 -4 
C -1.060812 -4 -2.078319 -3.578535 -2.828427 -2.828427 
C -3.578535 -2.078319 -4 -1.060812 -4 0 
C -4 1.060812 -3.578535 2.078319 -2.828427 2.828427 
C -2.078319 3.578535 -1.060812 4 0 4 
z
" style="stroke: #ffffff"/>
     </defs>
     <g>
      <use xlink:href="#m50a606c7d2" x="668.473368" y="102.829844" style="fill: #8c5a5a; stroke: #ffffff"/>
     </g>
    </g>
    <g id="text_18">
     <!-- Negative coef -->
     <g style="fill: #262626" transform="translate(688.273368 106.679844) scale(0.11 -0.11)">
      <defs>
       <path id="DejaVuSans-4e" d="M 628 4666 
L 1478 4666 
L 3547 763 
L 3547 4666 
L 4159 4666 
L 4159 0 
L 3309 0 
L 1241 3903 
L 1241 0 
L 628 0 
L 628 4666 
z
" transform="scale(0.015625)"/>
      </defs>
      <use xlink:href="#DejaVuSans-4e"/>
      <use xlink:href="#DejaVuSans-65" transform="translate(74.804688 0)"/>
      <use xlink:href="#DejaVuSans-67" transform="translate(136.328125 0)"/>
      <use xlink:href="#DejaVuSans-61" transform="translate(199.804688 0)"/>
      <use xlink:href="#DejaVuSans-74" transform="translate(261.083984 0)"/>
      <use xlink:href="#DejaVuSans-69" transform="translate(300.292969 0)"/>
      <use xlink:href="#DejaVuSans-76" transform="translate(328.076172 0)"/>
      <use xlink:href="#DejaVuSans-65" transform="translate(387.255859 0)"/>
      <use xlink:href="#DejaVuSans-20" transform="translate(448.779297 0)"/>
      <use xlink:href="#DejaVuSans-63" transform="translate(480.566406 0)"/>
      <use xlink:href="#DejaVuSans-6f" transform="translate(535.546875 0)"/>
      <use xlink:href="#DejaVuSans-65" transform="translate(596.728516 0)"/>
      <use xlink:href="#DejaVuSans-66" transform="translate(658.251953 0)"/>
     </g>
    </g>
    <g id="line2d_6">
     <path d="M 657.473368 118.975781 
L 668.473368 118.975781 
L 679.473368 118.975781 
" style="fill: none; stroke: #ffffff; stroke-width: 1.5; stroke-linecap: round"/>
     <defs>
      <path id="mdcc2f26239" d="M 0 4 
C 1.060812 4 2.078319 3.578535 2.828427 2.828427 
C 3.578535 2.078319 4 1.060812 4 0 
C 4 -1.060812 3.578535 -2.078319 2.828427 -2.828427 
C 2.078319 -3.578535 1.060812 -4 0 -4 
C -1.060812 -4 -2.078319 -3.578535 -2.828427 -2.828427 
C -3.578535 -2.078319 -4 -1.060812 -4 0 
C -4 1.060812 -3.578535 2.078319 -2.828427 2.828427 
C -2.078319 3.578535 -1.060812 4 0 4 
z
" style="stroke: #000000"/>
     </defs>
     <g>
      <use xlink:href="#mdcc2f26239" x="668.473368" y="118.975781" style="fill: #7f8790; stroke: #000000"/>
     </g>
    </g>
    <g id="text_19">
     <!-- p &lt; 0.10 -->
     <g style="fill: #262626" transform="translate(688.273368 122.825781) scale(0.11 -0.11)">
      <defs>
       <path id="DejaVuSans-3c" d="M 4684 3150 
L 1459 2003 
L 4684 863 
L 4684 294 
L 678 1747 
L 678 2266 
L 4684 3719 
L 4684 3150 
z
" transform="scale(0.015625)"/>
       <path id="DejaVuSans-30" d="M 2034 4250 
Q 1547 4250 1301 3770 
Q 1056 3291 1056 2328 
Q 1056 1369 1301 889 
Q 1547 409 2034 409 
Q 2525 409 2770 889 
Q 3016 1369 3016 2328 
Q 3016 3291 2770 3770 
Q 2525 4250 2034 4250 
z
M 2034 4750 
Q 2819 4750 3233 4129 
Q 3647 3509 3647 2328 
Q 3647 1150 3233 529 
Q 2819 -91 2034 -91 
Q 1250 -91 836 529 
Q 422 1150 422 2328 
Q 422 3509 836 4129 
Q 1250 4750 2034 4750 
z
" transform="scale(0.015625)"/>
       <path id="DejaVuSans-2e" d="M 684 794 
L 1344 794 
L 1344 0 
L 684 0 
L 684 794 
z
" transform="scale(0.015625)"/>
       <path id="DejaVuSans-31" d="M 794 531 
L 1825 531 
L 1825 4091 
L 703 3866 
L 703 4441 
L 1819 4666 
L 2450 4666 
L 2450 531 
L 3481 531 
L 3481 0 
L 794 0 
L 794 531 
z
" transform="scale(0.015625)"/>
      </defs>
      <use xlink:href="#DejaVuSans-70"/>
      <use xlink:href="#DejaVuSans-20" transform="translate(63.476562 0)"/>
      <use xlink:href="#DejaVuSans-3c" transform="translate(95.263672 0)"/>
      <use xlink:href="#DejaVuSans-20" transform="translate(179.052734 0)"/>
      <use xlink:href="#DejaVuSans-30" transform="translate(210.839844 0)"/>
      <use xlink:href="#DejaVuSans-2e" transform="translate(274.462891 0)"/>
      <use xlink:href="#DejaVuSans-31" transform="translate(306.25 0)"/>
      <use xlink:href="#DejaVuSans-30" transform="translate(369.873047 0)"/>
     </g>
    </g>
   </g>
  </g>
 </g>
 <defs>
  <clipPath id="pd066876271">
   <rect x="136.569688" y="23.837812" width="500.984" height="350.070926"/>
  </clipPath>
 </defs>
</svg>
