<?xml version="1.0" encoding="utf-8" standalone="no"?>
<!DOCTYPE svg PUBLIC "-//W3C//DTD SVG 1.1//EN"
  "http://www.w3.org/Graphics/SVG/1.1/DTD/svg11.dtd">
<svg xmlns:xlink="http://www.w3.org/1999/xlink" width="708.48pt" height="346.8175pt" viewBox="0 0 708.48 346.8175" xmlns="http://www.w3.org/2000/svg" version="1.1">
 <metadata>
  <rdf:RDF xmlns:dc="http://purl.org/dc/elements/1.1/" xmlns:cc="http://creativecommons.org/ns#" xmlns:rdf="http://www.w3.org/1999/02/22-rdf-syntax-ns#">
   <cc:Work>
    <dc:type rdf:resource="http://purl.org/dc/dcmitype/StillImage"/>
    <dc:date>2026-04-09T13:43:11.849066</dc:date>
    <dc:format>image/svg+xml</dc:format>
    <dc:creator>
     <cc:Agent>
      <dc:title>Matplotlib v3.10.8, https://matplotlib.org/</dc:title>
     </cc:Agent>
    </dc:creator>
   </cc:Work>
  </rdf:RDF>
 </metadata>
 <defs>
  <style type="text/css">*{stroke-linejoin: round; stroke-linecap: butt}</style>
 </defs>
 <g id="figure_1">
  <g id="patch_1">
   <path d="M 0 346.8175 
L 708.48 346.8175 
L 708.48 0 
L 0 0 
z
" style="fill: #ffffff"/>
  </g>
  <g id="axes_1">
   <g id="patch_2">
    <path d="M 7.2 303.857812 
L 701.28 303.857812 
L 701.28 23.837812 
L 7.2 23.837812 
z
" style="fill: #ffffff"/>
   </g>
   <g id="matplotlib.axis_1">
    <g id="xtick_1">
     <g id="text_1">
      <!-- 0.3 -->
      <g style="fill: #262626" transform="translate(24.080332 321.716094) scale(0.11 -0.11)">
       <defs>
        <path id="DejaVuSans-30" d="M 2034 4250 
Q 1547 4250 1301 3770 
Q 1056 3291 1056 2328 
Q 1056 1369 1301 889 
Q 1547 409 2034 409 
Q 2525 409 2770 889 
Q 3016 1369 3016 2328 
Q 3016 3291 2770 3770 
Q 2525 4250 2034 4250 
z
M 2034 4750 
Q 2819 4750 3233 4129 
Q 3647 3509 3647 2328 
Q 3647 1150 3233 529 
Q 2819 -91 2034 -91 
Q 1250 -91 836 529 
Q 422 1150 422 2328 
Q 422 3509 836 4129 
Q 1250 4750 2034 4750 
z
" transform="scale(0.015625)"/>
        <path id="DejaVuSans-2e" d="M 684 794 
L 1344 794 
L 1344 0 
L 684 0 
L 684 794 
z
" transform="scale(0.015625)"/>
        <path id="DejaVuSans-33" d="M 2597 2516 
Q 3050 2419 3304 2112 
Q 3559 1806 3559 1356 
Q 3559 666 3084 287 
Q 2609 -91 1734 -91 
Q 1441 -91 1130 -33 
Q 819 25 488 141 
L 488 750 
Q 750 597 1062 519 
Q 1375 441 1716 441 
Q 2309 441 2620 675 
Q 2931 909 2931 1356 
Q 2931 1769 2642 2001 
Q 2353 2234 1838 2234 
L 1294 2234 
L 1294 2753 
L 1863 2753 
Q 2328 2753 2575 2939 
Q 2822 3125 2822 3475 
Q 2822 3834 2567 4026 
Q 2313 4219 1838 4219 
Q 1578 4219 1281 4162 
Q 984 4106 628 3988 
L 628 4550 
Q 988 4650 1302 4700 
Q 1616 4750 1894 4750 
Q 2613 4750 3031 4423 
Q 3450 4097 3450 3541 
Q 3450 3153 3228 2886 
Q 3006 2619 2597 2516 
z
" transform="scale(0.015625)"/>
       </defs>
       <use xlink:href="#DejaVuSans-30"/>
       <use xlink:href="#DejaVuSans-2e" transform="translate(63.623047 0)"/>
       <use xlink:href="#DejaVuSans-33" transform="translate(95.410156 0)"/>
      </g>
     </g>
    </g>
    <g id="xtick_2">
     <g id="text_2">
      <!-- 0.4 -->
      <g style="fill: #262626" transform="translate(121.497944 321.716094) scale(0.11 -0.11)">
       <defs>
        <path id="DejaVuSans-34" d="M 2419 4116 
L 825 1625 
L 2419 1625 
L 2419 4116 
z
M 2253 4666 
L 3047 4666 
L 3047 1625 
L 3713 1625 
L 3713 1100 
L 3047 1100 
L 3047 0 
L 2419 0 
L 2419 1100 
L 313 1100 
L 313 1709 
L 2253 4666 
z
" transform="scale(0.015625)"/>
       </defs>
       <use xlink:href="#DejaVuSans-30"/>
       <use xlink:href="#DejaVuSans-2e" transform="translate(63.623047 0)"/>
       <use xlink:href="#DejaVuSans-34" transform="translate(95.410156 0)"/>
      </g>
     </g>
    </g>
    <g id="xtick_3">
     <g id="text_3">
      <!-- 0.5 -->
      <g style="fill: #262626" transform="translate(218.915557 321.716094) scale(0.11 -0.11)">
       <defs>
        <path id="DejaVuSans-35" d="M 691 4666 
L 3169 4666 
L 3169 4134 
L 1269 4134 
L 1269 2991 
Q 1406 3038 1543 3061 
Q 1681 3084 1819 3084 
Q 2600 3084 3056 2656 
Q 3513 2228 3513 1497 
Q 3513 744 3044 326 
Q 2575 -91 1722 -91 
Q 1428 -91 1123 -41 
Q 819 9 494 109 
L 494 744 
Q 775 591 1075 516 
Q 1375 441 1709 441 
Q 2250 441 2565 725 
Q 2881 1009 2881 1497 
Q 2881 1984 2565 2268 
Q 2250 2553 1709 2553 
Q 1456 2553 1204 2497 
Q 953 2441 691 2322 
L 691 4666 
z
" transform="scale(0.015625)"/>
       </defs>
       <use xlink:href="#DejaVuSans-30"/>
       <use xlink:href="#DejaVuSans-2e" transform="translate(63.623047 0)"/>
       <use xlink:href="#DejaVuSans-35" transform="translate(95.410156 0)"/>
      </g>
     </g>
    </g>
    <g id="xtick_4">
     <g id="text_4">
      <!-- 0.6 -->
      <g style="fill: #262626" transform="translate(316.333169 321.716094) scale(0.11 -0.11)">
       <defs>
        <path id="DejaVuSans-36" d="M 2113 2584 
Q 1688 2584 1439 2293 
Q 1191 2003 1191 1497 
Q 1191 994 1439 701 
Q 1688 409 2113 409 
Q 2538 409 2786 701 
Q 3034 994 3034 1497 
Q 3034 2003 2786 2293 
Q 2538 2584 2113 2584 
z
M 3366 4563 
L 3366 3988 
Q 3128 4100 2886 4159 
Q 2644 4219 2406 4219 
Q 1781 4219 1451 3797 
Q 1122 3375 1075 2522 
Q 1259 2794 1537 2939 
Q 1816 3084 2150 3084 
Q 2853 3084 3261 2657 
Q 3669 2231 3669 1497 
Q 3669 778 3244 343 
Q 2819 -91 2113 -91 
Q 1303 -91 875 529 
Q 447 1150 447 2328 
Q 447 3434 972 4092 
Q 1497 4750 2381 4750 
Q 2619 4750 2861 4703 
Q 3103 4656 3366 4563 
z
" transform="scale(0.015625)"/>
       </defs>
       <use xlink:href="#DejaVuSans-30"/>
       <use xlink:href="#DejaVuSans-2e" transform="translate(63.623047 0)"/>
       <use xlink:href="#DejaVuSans-36" transform="translate(95.410156 0)"/>
      </g>
     </g>
    </g>
    <g id="xtick_5">
     <g id="text_5">
      <!-- 0.7 -->
      <g style="fill: #262626" transform="translate(413.750782 321.716094) scale(0.11 -0.11)">
       <defs>
        <path id="DejaVuSans-37" d="M 525 4666 
L 3525 4666 
L 3525 4397 
L 1831 0 
L 1172 0 
L 2766 4134 
L 525 4134 
L 525 4666 
z
" transform="scale(0.015625)"/>
       </defs>
       <use xlink:href="#DejaVuSans-30"/>
       <use xlink:href="#DejaVuSans-2e" transform="translate(63.623047 0)"/>
       <use xlink:href="#DejaVuSans-37" transform="translate(95.410156 0)"/>
      </g>
     </g>
    </g>
    <g id="xtick_6">
     <g id="text_6">
      <!-- 0.8 -->
      <g style="fill: #262626" transform="translate(511.168394 321.716094) scale(0.11 -0.11)">
       <defs>
        <path id="DejaVuSans-38" d="M 2034 2216 
Q 1584 2216 1326 1975 
Q 1069 1734 1069 1313 
Q 1069 891 1326 650 
Q 1584 409 2034 409 
Q 2484 409 2743 651 
Q 3003 894 3003 1313 
Q 3003 1734 2745 1975 
Q 2488 2216 2034 2216 
z
M 1403 2484 
Q 997 2584 770 2862 
Q 544 3141 544 3541 
Q 544 4100 942 4425 
Q 1341 4750 2034 4750 
Q 2731 4750 3128 4425 
Q 3525 4100 3525 3541 
Q 3525 3141 3298 2862 
Q 3072 2584 2669 2484 
Q 3125 2378 3379 2068 
Q 3634 1759 3634 1313 
Q 3634 634 3220 271 
Q 2806 -91 2034 -91 
Q 1263 -91 848 271 
Q 434 634 434 1313 
Q 434 1759 690 2068 
Q 947 2378 1403 2484 
z
M 1172 3481 
Q 1172 3119 1398 2916 
Q 1625 2713 2034 2713 
Q 2441 2713 2670 2916 
Q 2900 3119 2900 3481 
Q 2900 3844 2670 4047 
Q 2441 4250 2034 4250 
Q 1625 4250 1398 4047 
Q 1172 3844 1172 3481 
z
" transform="scale(0.015625)"/>
       </defs>
       <use xlink:href="#DejaVuSans-30"/>
       <use xlink:href="#DejaVuSans-2e" transform="translate(63.623047 0)"/>
       <use xlink:href="#DejaVuSans-38" transform="translate(95.410156 0)"/>
      </g>
     </g>
    </g>
    <g id="xtick_7">
     <g id="text_7">
      <!-- 0.9 -->
      <g style="fill: #262626" transform="translate(608.586007 321.716094) scale(0.11 -0.11)">
       <defs>
        <path id="DejaVuSans-39" d="M 703 97 
L 703 672 
Q 941 559 1184 500 
Q 1428 441 1663 441 
Q 2288 441 2617 861 
Q 2947 1281 2994 2138 
Q 2813 1869 2534 1725 
Q 2256 1581 1919 1581 
Q 1219 1581 811 2004 
Q 403 2428 403 3163 
Q 403 3881 828 4315 
Q 1253 4750 1959 4750 
Q 2769 4750 3195 4129 
Q 3622 3509 3622 2328 
Q 3622 1225 3098 567 
Q 2575 -91 1691 -91 
Q 1453 -91 1209 -44 
Q 966 3 703 97 
z
M 1959 2075 
Q 2384 2075 2632 2365 
Q 2881 2656 2881 3163 
Q 2881 3666 2632 3958 
Q 2384 4250 1959 4250 
Q 1534 4250 1286 3958 
Q 1038 3666 1038 3163 
Q 1038 2656 1286 2365 
Q 1534 2075 1959 2075 
z
" transform="scale(0.015625)"/>
       </defs>
       <use xlink:href="#DejaVuSans-30"/>
       <use xlink:href="#DejaVuSans-2e" transform="translate(63.623047 0)"/>
       <use xlink:href="#DejaVuSans-39" transform="translate(95.410156 0)"/>
      </g>
     </g>
    </g>
    <g id="text_8">
     <!-- Propensity score -->
     <g style="fill: #262626" transform="translate(304.69875 337.121875) scale(0.12 -0.12)">
      <defs>
       <path id="DejaVuSans-50" d="M 1259 4147 
L 1259 2394 
L 2053 2394 
Q 2494 2394 2734 2622 
Q 2975 2850 2975 3272 
Q 2975 3691 2734 3919 
Q 2494 4147 2053 4147 
L 1259 4147 
z
M 628 4666 
L 2053 4666 
Q 2838 4666 3239 4311 
Q 3641 3956 3641 3272 
Q 3641 2581 3239 2228 
Q 2838 1875 2053 1875 
L 1259 1875 
L 1259 0 
L 628 0 
L 628 4666 
z
" transform="scale(0.015625)"/>
       <path id="DejaVuSans-72" d="M 2631 2963 
Q 2534 3019 2420 3045 
Q 2306 3072 2169 3072 
Q 1681 3072 1420 2755 
Q 1159 2438 1159 1844 
L 1159 0 
L 581 0 
L 581 3500 
L 1159 3500 
L 1159 2956 
Q 1341 3275 1631 3429 
Q 1922 3584 2338 3584 
Q 2397 3584 2469 3576 
Q 2541 3569 2628 3553 
L 2631 2963 
z
" transform="scale(0.015625)"/>
       <path id="DejaVuSans-6f" d="M 1959 3097 
Q 1497 3097 1228 2736 
Q 959 2375 959 1747 
Q 959 1119 1226 758 
Q 1494 397 1959 397 
Q 2419 397 2687 759 
Q 2956 1122 2956 1747 
Q 2956 2369 2687 2733 
Q 2419 3097 1959 3097 
z
M 1959 3584 
Q 2709 3584 3137 3096 
Q 3566 2609 3566 1747 
Q 3566 888 3137 398 
Q 2709 -91 1959 -91 
Q 1206 -91 779 398 
Q 353 888 353 1747 
Q 353 2609 779 3096 
Q 1206 3584 1959 3584 
z
" transform="scale(0.015625)"/>
       <path id="DejaVuSans-70" d="M 1159 525 
L 1159 -1331 
L 581 -1331 
L 581 3500 
L 1159 3500 
L 1159 2969 
Q 1341 3281 1617 3432 
Q 1894 3584 2278 3584 
Q 2916 3584 3314 3078 
Q 3713 2572 3713 1747 
Q 3713 922 3314 415 
Q 2916 -91 2278 -91 
Q 1894 -91 1617 61 
Q 1341 213 1159 525 
z
M 3116 1747 
Q 3116 2381 2855 2742 
Q 2594 3103 2138 3103 
Q 1681 3103 1420 2742 
Q 1159 2381 1159 1747 
Q 1159 1113 1420 752 
Q 1681 391 2138 391 
Q 2594 391 2855 752 
Q 3116 1113 3116 1747 
z
" transform="scale(0.015625)"/>
       <path id="DejaVuSans-65" d="M 3597 1894 
L 3597 1613 
L 953 1613 
Q 991 1019 1311 708 
Q 1631 397 2203 397 
Q 2534 397 2845 478 
Q 3156 559 3463 722 
L 3463 178 
Q 3153 47 2828 -22 
Q 2503 -91 2169 -91 
Q 1331 -91 842 396 
Q 353 884 353 1716 
Q 353 2575 817 3079 
Q 1281 3584 2069 3584 
Q 2775 3584 3186 3129 
Q 3597 2675 3597 1894 
z
M 3022 2063 
Q 3016 2534 2758 2815 
Q 2500 3097 2075 3097 
Q 1594 3097 1305 2825 
Q 1016 2553 972 2059 
L 3022 2063 
z
" transform="scale(0.015625)"/>
       <path id="DejaVuSans-6e" d="M 3513 2113 
L 3513 0 
L 2938 0 
L 2938 2094 
Q 2938 2591 2744 2837 
Q 2550 3084 2163 3084 
Q 1697 3084 1428 2787 
Q 1159 2491 1159 1978 
L 1159 0 
L 581 0 
L 581 3500 
L 1159 3500 
L 1159 2956 
Q 1366 3272 1645 3428 
Q 1925 3584 2291 3584 
Q 2894 3584 3203 3211 
Q 3513 2838 3513 2113 
z
" transform="scale(0.015625)"/>
       <path id="DejaVuSans-73" d="M 2834 3397 
L 2834 2853 
Q 2591 2978 2328 3040 
Q 2066 3103 1784 3103 
Q 1356 3103 1142 2972 
Q 928 2841 928 2578 
Q 928 2378 1081 2264 
Q 1234 2150 1697 2047 
L 1894 2003 
Q 2506 1872 2764 1633 
Q 3022 1394 3022 966 
Q 3022 478 2636 193 
Q 2250 -91 1575 -91 
Q 1294 -91 989 -36 
Q 684 19 347 128 
L 347 722 
Q 666 556 975 473 
Q 1284 391 1588 391 
Q 1994 391 2212 530 
Q 2431 669 2431 922 
Q 2431 1156 2273 1281 
Q 2116 1406 1581 1522 
L 1381 1569 
Q 847 1681 609 1914 
Q 372 2147 372 2553 
Q 372 3047 722 3315 
Q 1072 3584 1716 3584 
Q 2034 3584 2315 3537 
Q 2597 3491 2834 3397 
z
" transform="scale(0.015625)"/>
       <path id="DejaVuSans-69" d="M 603 3500 
L 1178 3500 
L 1178 0 
L 603 0 
L 603 3500 
z
M 603 4863 
L 1178 4863 
L 1178 4134 
L 603 4134 
L 603 4863 
z
" transform="scale(0.015625)"/>
       <path id="DejaVuSans-74" d="M 1172 4494 
L 1172 3500 
L 2356 3500 
L 2356 3053 
L 1172 3053 
L 1172 1153 
Q 1172 725 1289 603 
Q 1406 481 1766 481 
L 2356 481 
L 2356 0 
L 1766 0 
Q 1100 0 847 248 
Q 594 497 594 1153 
L 594 3053 
L 172 3053 
L 172 3500 
L 594 3500 
L 594 4494 
L 1172 4494 
z
" transform="scale(0.015625)"/>
       <path id="DejaVuSans-79" d="M 2059 -325 
Q 1816 -950 1584 -1140 
Q 1353 -1331 966 -1331 
L 506 -1331 
L 506 -850 
L 844 -850 
Q 1081 -850 1212 -737 
Q 1344 -625 1503 -206 
L 1606 56 
L 191 3500 
L 800 3500 
L 1894 763 
L 2988 3500 
L 3597 3500 
L 2059 -325 
z
" transform="scale(0.015625)"/>
       <path id="DejaVuSans-20" transform="scale(0.015625)"/>
       <path id="DejaVuSans-63" d="M 3122 3366 
L 3122 2828 
Q 2878 2963 2633 3030 
Q 2388 3097 2138 3097 
Q 1578 3097 1268 2742 
Q 959 2388 959 1747 
Q 959 1106 1268 751 
Q 1578 397 2138 397 
Q 2388 397 2633 464 
Q 2878 531 3122 666 
L 3122 134 
Q 2881 22 2623 -34 
Q 2366 -91 2075 -91 
Q 1284 -91 818 406 
Q 353 903 353 1747 
Q 353 2603 823 3093 
Q 1294 3584 2113 3584 
Q 2378 3584 2631 3529 
Q 2884 3475 3122 3366 
z
" transform="scale(0.015625)"/>
      </defs>
      <use xlink:href="#DejaVuSans-50"/>
      <use xlink:href="#DejaVuSans-72" transform="translate(58.552734 0)"/>
      <use xlink:href="#DejaVuSans-6f" transform="translate(97.416016 0)"/>
      <use xlink:href="#DejaVuSans-70" transform="translate(158.597656 0)"/>
      <use xlink:href="#DejaVuSans-65" transform="translate(222.074219 0)"/>
      <use xlink:href="#DejaVuSans-6e" transform="translate(283.597656 0)"/>
      <use xlink:href="#DejaVuSans-73" transform="translate(346.976562 0)"/>
      <use xlink:href="#DejaVuSans-69" transform="translate(399.076172 0)"/>
      <use xlink:href="#DejaVuSans-74" transform="translate(426.859375 0)"/>
      <use xlink:href="#DejaVuSans-79" transform="translate(466.068359 0)"/>
      <use xlink:href="#DejaVuSans-20" transform="translate(525.248047 0)"/>
      <use xlink:href="#DejaVuSans-73" transform="translate(557.035156 0)"/>
      <use xlink:href="#DejaVuSans-63" transform="translate(609.134766 0)"/>
      <use xlink:href="#DejaVuSans-6f" transform="translate(664.115234 0)"/>
      <use xlink:href="#DejaVuSans-72" transform="translate(725.296875 0)"/>
      <use xlink:href="#DejaVuSans-65" transform="translate(764.160156 0)"/>
     </g>
    </g>
   </g>
   <g id="matplotlib.axis_2"/>
   <g id="FillBetweenPolyCollection_1">
    <defs>
     <path id="mb343769276" d="M 73.708293 -140.965463 
L 73.708293 -135.845342 
L 76.703378 -135.845342 
L 79.698464 -135.845342 
L 82.69355 -135.845342 
L 85.688636 -135.845342 
L 88.683722 -135.845342 
L 91.678808 -135.845342 
L 94.673894 -135.845342 
L 97.668979 -135.845342 
L 100.664065 -135.845342 
L 103.659151 -135.845342 
L 106.654237 -135.845342 
L 109.649323 -135.845342 
L 112.644409 -135.845342 
L 115.639495 -135.845342 
L 118.634581 -135.845342 
L 121.629666 -135.845342 
L 124.624752 -135.845342 
L 127.619838 -135.845342 
L 130.614924 -135.845342 
L 133.61001 -135.845342 
L 136.605096 -135.845342 
L 139.600182 -135.845342 
L 142.595268 -135.845342 
L 145.590353 -135.845342 
L 148.585439 -135.845342 
L 151.580525 -135.845342 
L 154.575611 -135.845342 
L 157.570697 -135.845342 
L 160.565783 -135.845342 
L 163.560869 -135.845342 
L 166.555954 -135.845342 
L 169.55104 -135.845342 
L 172.546126 -135.845342 
L 175.541212 -135.845342 
L 178.536298 -135.845342 
L 181.531384 -135.845342 
L 184.52647 -135.845342 
L 187.521556 -135.845342 
L 190.516641 -135.845342 
L 193.511727 -135.845342 
L 196.506813 -135.845342 
L 199.501899 -135.845342 
L 202.496985 -135.845342 
L 205.492071 -135.845342 
L 208.487157 -135.845342 
L 211.482242 -135.845342 
L 214.477328 -135.845342 
L 217.472414 -135.845342 
L 220.4675 -135.845342 
L 223.462586 -135.845342 
L 226.457672 -135.845342 
L 229.452758 -135.845342 
L 232.447844 -135.845342 
L 235.442929 -135.845342 
L 238.438015 -135.845342 
L 241.433101 -135.845342 
L 244.428187 -135.845342 
L 247.423273 -135.845342 
L 250.418359 -135.845342 
L 253.413445 -135.845342 
L 256.40853 -135.845342 
L 259.403616 -135.845342 
L 262.398702 -135.845342 
L 265.393788 -135.845342 
L 268.388874 -135.845342 
L 271.38396 -135.845342 
L 274.379046 -135.845342 
L 277.374132 -135.845342 
L 280.369217 -135.845342 
L 283.364303 -135.845342 
L 286.359389 -135.845342 
L 289.354475 -135.845342 
L 292.349561 -135.845342 
L 295.344647 -135.845342 
L 298.339733 -135.845342 
L 301.334818 -135.845342 
L 304.329904 -135.845342 
L 307.32499 -135.845342 
L 310.320076 -135.845342 
L 313.315162 -135.845342 
L 316.310248 -135.845342 
L 319.305334 -135.845342 
L 322.30042 -135.845342 
L 325.295505 -135.845342 
L 328.290591 -135.845342 
L 331.285677 -135.845342 
L 334.280763 -135.845342 
L 337.275849 -135.845342 
L 340.270935 -135.845342 
L 343.266021 -135.845342 
L 346.261107 -135.845342 
L 349.256192 -135.845342 
L 352.251278 -135.845342 
L 355.246364 -135.845342 
L 358.24145 -135.845342 
L 361.236536 -135.845342 
L 364.231622 -135.845342 
L 367.226708 -135.845342 
L 370.221793 -135.845342 
L 373.216879 -135.845342 
L 376.211965 -135.845342 
L 379.207051 -135.845342 
L 382.202137 -135.845342 
L 385.197223 -135.845342 
L 388.192309 -135.845342 
L 391.187395 -135.845342 
L 394.18248 -135.845342 
L 397.177566 -135.845342 
L 400.172652 -135.845342 
L 403.167738 -135.845342 
L 406.162824 -135.845342 
L 409.15791 -135.845342 
L 412.152996 -135.845342 
L 415.148081 -135.845342 
L 418.143167 -135.845342 
L 421.138253 -135.845342 
L 424.133339 -135.845342 
L 427.128425 -135.845342 
L 430.123511 -135.845342 
L 433.118597 -135.845342 
L 436.113683 -135.845342 
L 439.108768 -135.845342 
L 442.103854 -135.845342 
L 445.09894 -135.845342 
L 448.094026 -135.845342 
L 451.089112 -135.845342 
L 454.084198 -135.845342 
L 457.079284 -135.845342 
L 460.074369 -135.845342 
L 463.069455 -135.845342 
L 466.064541 -135.845342 
L 469.059627 -135.845342 
L 472.054713 -135.845342 
L 475.049799 -135.845342 
L 478.044885 -135.845342 
L 481.039971 -135.845342 
L 484.035056 -135.845342 
L 487.030142 -135.845342 
L 490.025228 -135.845342 
L 493.020314 -135.845342 
L 496.0154 -135.845342 
L 499.010486 -135.845342 
L 502.005572 -135.845342 
L 505.000658 -135.845342 
L 507.995743 -135.845342 
L 510.990829 -135.845342 
L 513.985915 -135.845342 
L 516.981001 -135.845342 
L 519.976087 -135.845342 
L 522.971173 -135.845342 
L 525.966259 -135.845342 
L 528.961344 -135.845342 
L 531.95643 -135.845342 
L 534.951516 -135.845342 
L 537.946602 -135.845342 
L 540.941688 -135.845342 
L 543.936774 -135.845342 
L 546.93186 -135.845342 
L 549.926946 -135.845342 
L 552.922031 -135.845342 
L 555.917117 -135.845342 
L 558.912203 -135.845342 
L 561.907289 -135.845342 
L 564.902375 -135.845342 
L 567.897461 -135.845342 
L 570.892547 -135.845342 
L 573.887632 -135.845342 
L 576.882718 -135.845342 
L 579.877804 -135.845342 
L 582.87289 -135.845342 
L 585.867976 -135.845342 
L 588.863062 -135.845342 
L 591.858148 -135.845342 
L 594.853234 -135.845342 
L 597.848319 -135.845342 
L 600.843405 -135.845342 
L 603.838491 -135.845342 
L 606.833577 -135.845342 
L 609.828663 -135.845342 
L 612.823749 -135.845342 
L 615.818835 -135.845342 
L 618.81392 -135.845342 
L 621.809006 -135.845342 
L 624.804092 -135.845342 
L 627.799178 -135.845342 
L 630.794264 -135.845342 
L 633.78935 -135.845342 
L 636.784436 -135.845342 
L 639.779522 -135.845342 
L 642.774607 -135.845342 
L 645.769693 -135.845342 
L 648.764779 -135.845342 
L 651.759865 -135.845342 
L 654.754951 -135.845342 
L 657.750037 -135.845342 
L 660.745123 -135.845342 
L 663.740208 -135.845342 
L 666.735294 -135.845342 
L 669.73038 -135.845342 
L 669.73038 -240.910077 
L 669.73038 -240.910077 
L 666.735294 -246.037478 
L 663.740208 -251.098592 
L 660.745123 -256.06891 
L 657.750037 -260.924559 
L 654.754951 -265.642551 
L 651.759865 -270.201022 
L 648.764779 -274.579432 
L 645.769693 -278.758756 
L 642.774607 -282.721635 
L 639.779522 -286.452504 
L 636.784436 -289.937681 
L 633.78935 -293.165436 
L 630.794264 -296.126022 
L 627.799178 -298.811682 
L 624.804092 -301.216628 
L 621.809006 -303.336993 
L 618.81392 -305.170768 
L 615.818835 -306.717713 
L 612.823749 -307.979254 
L 609.828663 -308.958368 
L 606.833577 -309.659458 
L 603.838491 -310.088221 
L 600.843405 -310.251506 
L 597.848319 -310.157176 
L 594.853234 -309.813971 
L 591.858148 -309.231367 
L 588.863062 -308.419447 
L 585.867976 -307.38877 
L 582.87289 -306.150258 
L 579.877804 -304.715082 
L 576.882718 -303.094567 
L 573.887632 -301.300098 
L 570.892547 -299.343048 
L 567.897461 -297.234711 
L 564.902375 -294.986249 
L 561.907289 -292.608648 
L 558.912203 -290.112693 
L 555.917117 -287.508942 
L 552.922031 -284.80772 
L 549.926946 -282.019115 
L 546.93186 -279.152982 
L 543.936774 -276.218956 
L 540.941688 -273.226463 
L 537.946602 -270.184736 
L 534.951516 -267.102833 
L 531.95643 -263.98965 
L 528.961344 -260.853935 
L 525.966259 -257.704289 
L 522.971173 -254.549174 
L 519.976087 -251.396904 
L 516.981001 -248.255629 
L 513.985915 -245.133322 
L 510.990829 -242.037743 
L 507.995743 -238.976407 
L 505.000658 -235.956541 
L 502.005572 -232.985036 
L 499.010486 -230.068399 
L 496.0154 -227.212694 
L 493.020314 -224.423492 
L 490.025228 -221.705816 
L 487.030142 -219.064092 
L 484.035056 -216.502107 
L 481.039971 -214.022971 
L 478.044885 -211.629085 
L 475.049799 -209.322131 
L 472.054713 -207.103058 
L 469.059627 -204.972088 
L 466.064541 -202.928738 
L 463.069455 -200.97184 
L 460.074369 -199.099589 
L 457.079284 -197.309588 
L 454.084198 -195.598912 
L 451.089112 -193.964173 
L 448.094026 -192.401596 
L 445.09894 -190.907096 
L 442.103854 -189.47636 
L 439.108768 -188.10493 
L 436.113683 -186.788279 
L 433.118597 -185.521894 
L 430.123511 -184.301345 
L 427.128425 -183.122354 
L 424.133339 -181.980857 
L 421.138253 -180.873057 
L 418.143167 -179.795464 
L 415.148081 -178.744943 
L 412.152996 -177.718734 
L 409.15791 -176.714476 
L 406.162824 -175.730225 
L 403.167738 -174.764454 
L 400.172652 -173.816061 
L 397.177566 -172.884357 
L 394.18248 -171.969061 
L 391.187395 -171.07028 
L 388.192309 -170.188494 
L 385.197223 -169.324526 
L 382.202137 -168.479519 
L 379.207051 -167.654903 
L 376.211965 -166.852357 
L 373.216879 -166.073774 
L 370.221793 -165.321213 
L 367.226708 -164.596856 
L 364.231622 -163.902958 
L 361.236536 -163.241788 
L 358.24145 -162.61558 
L 355.246364 -162.02647 
L 352.251278 -161.476437 
L 349.256192 -160.967243 
L 346.261107 -160.500371 
L 343.266021 -160.07697 
L 340.270935 -159.697801 
L 337.275849 -159.363185 
L 334.280763 -159.072959 
L 331.285677 -158.826448 
L 328.290591 -158.622432 
L 325.295505 -158.459135 
L 322.30042 -158.334222 
L 319.305334 -158.244804 
L 316.310248 -158.187467 
L 313.315162 -158.158301 
L 310.320076 -158.152946 
L 307.32499 -158.166657 
L 304.329904 -158.194367 
L 301.334818 -158.23077 
L 298.339733 -158.270402 
L 295.344647 -158.307737 
L 292.349561 -158.33728 
L 289.354475 -158.353664 
L 286.359389 -158.351741 
L 283.364303 -158.326678 
L 280.369217 -158.274037 
L 277.374132 -158.189858 
L 274.379046 -158.070722 
L 271.38396 -157.913811 
L 268.388874 -157.716951 
L 265.393788 -157.478644 
L 262.398702 -157.198084 
L 259.403616 -156.875164 
L 256.40853 -156.510462 
L 253.413445 -156.105222 
L 250.418359 -155.661317 
L 247.423273 -155.181201 
L 244.428187 -154.667857 
L 241.433101 -154.124733 
L 238.438015 -153.555666 
L 235.442929 -152.964813 
L 232.447844 -152.356571 
L 229.452758 -151.735496 
L 226.457672 -151.106223 
L 223.462586 -150.473396 
L 220.4675 -149.841587 
L 217.472414 -149.21523 
L 214.477328 -148.598561 
L 211.482242 -147.995561 
L 208.487157 -147.409905 
L 205.492071 -146.844927 
L 202.496985 -146.303586 
L 199.501899 -145.788443 
L 196.506813 -145.301645 
L 193.511727 -144.844921 
L 190.516641 -144.41958 
L 187.521556 -144.02652 
L 184.52647 -143.666243 
L 181.531384 -143.338871 
L 178.536298 -143.04417 
L 175.541212 -142.781583 
L 172.546126 -142.550251 
L 169.55104 -142.34905 
L 166.555954 -142.176625 
L 163.560869 -142.031416 
L 160.565783 -141.911697 
L 157.570697 -141.815603 
L 154.575611 -141.741159 
L 151.580525 -141.686309 
L 148.585439 -141.648941 
L 145.590353 -141.626906 
L 142.595268 -141.618044 
L 139.600182 -141.620198 
L 136.605096 -141.631231 
L 133.61001 -141.649041 
L 130.614924 -141.671573 
L 127.619838 -141.696832 
L 124.624752 -141.722893 
L 121.629666 -141.747913 
L 118.634581 -141.770137 
L 115.639495 -141.787914 
L 112.644409 -141.799701 
L 109.649323 -141.804077 
L 106.654237 -141.799754 
L 103.659151 -141.78558 
L 100.664065 -141.760557 
L 97.668979 -141.723844 
L 94.673894 -141.674766 
L 91.678808 -141.612821 
L 88.683722 -141.537687 
L 85.688636 -141.44922 
L 82.69355 -141.347459 
L 79.698464 -141.232622 
L 76.703378 -141.105103 
L 73.708293 -140.965463 
z
" style="stroke: #4c667a; stroke-opacity: 0.35"/>
    </defs>
    <g clip-path="url(#p55a5f0e8e8)">
     <use xlink:href="#mb343769276" x="0" y="346.8175" style="fill: #4c667a; fill-opacity: 0.35; stroke: #4c667a; stroke-opacity: 0.35"/>
    </g>
   </g>
   <g id="FillBetweenPolyCollection_2">
    <defs>
     <path id="mfa97ea35ba" d="M 38.749091 -110.837567 
L 38.749091 -135.845342 
L 41.919854 -135.845342 
L 45.090617 -135.845342 
L 48.26138 -135.845342 
L 51.432143 -135.845342 
L 54.602905 -135.845342 
L 57.773668 -135.845342 
L 60.944431 -135.845342 
L 64.115194 -135.845342 
L 67.285957 -135.845342 
L 70.45672 -135.845342 
L 73.627483 -135.845342 
L 76.798246 -135.845342 
L 79.969009 -135.845342 
L 83.139772 -135.845342 
L 86.310534 -135.845342 
L 89.481297 -135.845342 
L 92.65206 -135.845342 
L 95.822823 -135.845342 
L 98.993586 -135.845342 
L 102.164349 -135.845342 
L 105.335112 -135.845342 
L 108.505875 -135.845342 
L 111.676638 -135.845342 
L 114.847401 -135.845342 
L 118.018164 -135.845342 
L 121.188926 -135.845342 
L 124.359689 -135.845342 
L 127.530452 -135.845342 
L 130.701215 -135.845342 
L 133.871978 -135.845342 
L 137.042741 -135.845342 
L 140.213504 -135.845342 
L 143.384267 -135.845342 
L 146.55503 -135.845342 
L 149.725793 -135.845342 
L 152.896556 -135.845342 
L 156.067318 -135.845342 
L 159.238081 -135.845342 
L 162.408844 -135.845342 
L 165.579607 -135.845342 
L 168.75037 -135.845342 
L 171.921133 -135.845342 
L 175.091896 -135.845342 
L 178.262659 -135.845342 
L 181.433422 -135.845342 
L 184.604185 -135.845342 
L 187.774947 -135.845342 
L 190.94571 -135.845342 
L 194.116473 -135.845342 
L 197.287236 -135.845342 
L 200.457999 -135.845342 
L 203.628762 -135.845342 
L 206.799525 -135.845342 
L 209.970288 -135.845342 
L 213.141051 -135.845342 
L 216.311814 -135.845342 
L 219.482577 -135.845342 
L 222.653339 -135.845342 
L 225.824102 -135.845342 
L 228.994865 -135.845342 
L 232.165628 -135.845342 
L 235.336391 -135.845342 
L 238.507154 -135.845342 
L 241.677917 -135.845342 
L 244.84868 -135.845342 
L 248.019443 -135.845342 
L 251.190206 -135.845342 
L 254.360968 -135.845342 
L 257.531731 -135.845342 
L 260.702494 -135.845342 
L 263.873257 -135.845342 
L 267.04402 -135.845342 
L 270.214783 -135.845342 
L 273.385546 -135.845342 
L 276.556309 -135.845342 
L 279.727072 -135.845342 
L 282.897835 -135.845342 
L 286.068598 -135.845342 
L 289.23936 -135.845342 
L 292.410123 -135.845342 
L 295.580886 -135.845342 
L 298.751649 -135.845342 
L 301.922412 -135.845342 
L 305.093175 -135.845342 
L 308.263938 -135.845342 
L 311.434701 -135.845342 
L 314.605464 -135.845342 
L 317.776227 -135.845342 
L 320.946989 -135.845342 
L 324.117752 -135.845342 
L 327.288515 -135.845342 
L 330.459278 -135.845342 
L 333.630041 -135.845342 
L 336.800804 -135.845342 
L 339.971567 -135.845342 
L 343.14233 -135.845342 
L 346.313093 -135.845342 
L 349.483856 -135.845342 
L 352.654619 -135.845342 
L 355.825381 -135.845342 
L 358.996144 -135.845342 
L 362.166907 -135.845342 
L 365.33767 -135.845342 
L 368.508433 -135.845342 
L 371.679196 -135.845342 
L 374.849959 -135.845342 
L 378.020722 -135.845342 
L 381.191485 -135.845342 
L 384.362248 -135.845342 
L 387.533011 -135.845342 
L 390.703773 -135.845342 
L 393.874536 -135.845342 
L 397.045299 -135.845342 
L 400.216062 -135.845342 
L 403.386825 -135.845342 
L 406.557588 -135.845342 
L 409.728351 -135.845342 
L 412.899114 -135.845342 
L 416.069877 -135.845342 
L 419.24064 -135.845342 
L 422.411402 -135.845342 
L 425.582165 -135.845342 
L 428.752928 -135.845342 
L 431.923691 -135.845342 
L 435.094454 -135.845342 
L 438.265217 -135.845342 
L 441.43598 -135.845342 
L 444.606743 -135.845342 
L 447.777506 -135.845342 
L 450.948269 -135.845342 
L 454.119032 -135.845342 
L 457.289794 -135.845342 
L 460.460557 -135.845342 
L 463.63132 -135.845342 
L 466.802083 -135.845342 
L 469.972846 -135.845342 
L 473.143609 -135.845342 
L 476.314372 -135.845342 
L 479.485135 -135.845342 
L 482.655898 -135.845342 
L 485.826661 -135.845342 
L 488.997423 -135.845342 
L 492.168186 -135.845342 
L 495.338949 -135.845342 
L 498.509712 -135.845342 
L 501.680475 -135.845342 
L 504.851238 -135.845342 
L 508.022001 -135.845342 
L 511.192764 -135.845342 
L 514.363527 -135.845342 
L 517.53429 -135.845342 
L 520.705053 -135.845342 
L 523.875815 -135.845342 
L 527.046578 -135.845342 
L 530.217341 -135.845342 
L 533.388104 -135.845342 
L 536.558867 -135.845342 
L 539.72963 -135.845342 
L 542.900393 -135.845342 
L 546.071156 -135.845342 
L 549.241919 -135.845342 
L 552.412682 -135.845342 
L 555.583444 -135.845342 
L 558.754207 -135.845342 
L 561.92497 -135.845342 
L 565.095733 -135.845342 
L 568.266496 -135.845342 
L 571.437259 -135.845342 
L 574.608022 -135.845342 
L 577.778785 -135.845342 
L 580.949548 -135.845342 
L 584.120311 -135.845342 
L 587.291074 -135.845342 
L 590.461836 -135.845342 
L 593.632599 -135.845342 
L 596.803362 -135.845342 
L 599.974125 -135.845342 
L 603.144888 -135.845342 
L 606.315651 -135.845342 
L 609.486414 -135.845342 
L 612.657177 -135.845342 
L 615.82794 -135.845342 
L 618.998703 -135.845342 
L 622.169466 -135.845342 
L 625.340228 -135.845342 
L 628.510991 -135.845342 
L 631.681754 -135.845342 
L 634.852517 -135.845342 
L 638.02328 -135.845342 
L 641.194043 -135.845342 
L 644.364806 -135.845342 
L 647.535569 -135.845342 
L 650.706332 -135.845342 
L 653.877095 -135.845342 
L 657.047857 -135.845342 
L 660.21862 -135.845342 
L 663.389383 -135.845342 
L 666.560146 -135.845342 
L 669.730909 -135.845342 
L 669.730909 -98.099386 
L 669.730909 -98.099386 
L 666.560146 -97.057883 
L 663.389383 -96.017183 
L 660.21862 -94.978274 
L 657.047857 -93.942107 
L 653.877095 -92.909598 
L 650.706332 -91.88162 
L 647.535569 -90.859005 
L 644.364806 -89.842538 
L 641.194043 -88.832955 
L 638.02328 -87.830946 
L 634.852517 -86.837149 
L 631.681754 -85.852152 
L 628.510991 -84.876494 
L 625.340228 -83.910662 
L 622.169466 -82.955098 
L 618.998703 -82.010197 
L 615.82794 -81.076311 
L 612.657177 -80.153749 
L 609.486414 -79.242785 
L 606.315651 -78.34366 
L 603.144888 -77.456583 
L 599.974125 -76.581742 
L 596.803362 -75.719304 
L 593.632599 -74.86942 
L 590.461836 -74.032236 
L 587.291074 -73.207891 
L 584.120311 -72.396528 
L 580.949548 -71.5983 
L 577.778785 -70.813371 
L 574.608022 -70.041927 
L 571.437259 -69.284175 
L 568.266496 -68.540357 
L 565.095733 -67.810745 
L 561.92497 -67.095653 
L 558.754207 -66.395436 
L 555.583444 -65.710497 
L 552.412682 -65.041287 
L 549.241919 -64.38831 
L 546.071156 -63.752122 
L 542.900393 -63.133333 
L 539.72963 -62.532608 
L 536.558867 -61.950665 
L 533.388104 -61.388275 
L 530.217341 -60.84626 
L 527.046578 -60.325489 
L 523.875815 -59.826874 
L 520.705053 -59.351369 
L 517.53429 -58.899961 
L 514.363527 -58.473667 
L 511.192764 -58.073527 
L 508.022001 -57.700595 
L 504.851238 -57.355937 
L 501.680475 -57.040617 
L 498.509712 -56.755693 
L 495.338949 -56.502204 
L 492.168186 -56.281168 
L 488.997423 -56.093565 
L 485.826661 -55.940335 
L 482.655898 -55.822362 
L 479.485135 -55.740471 
L 476.314372 -55.695416 
L 473.143609 -55.687869 
L 469.972846 -55.718419 
L 466.802083 -55.787554 
L 463.63132 -55.895661 
L 460.460557 -56.043017 
L 457.289794 -56.229781 
L 454.119032 -56.455987 
L 450.948269 -56.721544 
L 447.777506 -57.026226 
L 444.606743 -57.369672 
L 441.43598 -57.751382 
L 438.265217 -58.170715 
L 435.094454 -58.626887 
L 431.923691 -59.118974 
L 428.752928 -59.645907 
L 425.582165 -60.206482 
L 422.411402 -60.799354 
L 419.24064 -61.423047 
L 416.069877 -62.075955 
L 412.899114 -62.756346 
L 409.728351 -63.462372 
L 406.557588 -64.192074 
L 403.386825 -64.943387 
L 400.216062 -65.714154 
L 397.045299 -66.502128 
L 393.874536 -67.304986 
L 390.703773 -68.120338 
L 387.533011 -68.945739 
L 384.362248 -69.778695 
L 381.191485 -70.616682 
L 378.020722 -71.457149 
L 374.849959 -72.297536 
L 371.679196 -73.135285 
L 368.508433 -73.967851 
L 365.33767 -74.792712 
L 362.166907 -75.607386 
L 358.996144 -76.40944 
L 355.825381 -77.196501 
L 352.654619 -77.966269 
L 349.483856 -78.716529 
L 346.313093 -79.44516 
L 343.14233 -80.150146 
L 339.971567 -80.829587 
L 336.800804 -81.481707 
L 333.630041 -82.104863 
L 330.459278 -82.697556 
L 327.288515 -83.258433 
L 324.117752 -83.786299 
L 320.946989 -84.280119 
L 317.776227 -84.739024 
L 314.605464 -85.16232 
L 311.434701 -85.549484 
L 308.263938 -85.900169 
L 305.093175 -86.214209 
L 301.922412 -86.491616 
L 298.751649 -86.732579 
L 295.580886 -86.937466 
L 292.410123 -87.106819 
L 289.23936 -87.241351 
L 286.068598 -87.341945 
L 282.897835 -87.409644 
L 279.727072 -87.445649 
L 276.556309 -87.451309 
L 273.385546 -87.428118 
L 270.214783 -87.377703 
L 267.04402 -87.301814 
L 263.873257 -87.20232 
L 260.702494 -87.081192 
L 257.531731 -86.940497 
L 254.360968 -86.782385 
L 251.190206 -86.609075 
L 248.019443 -86.42285 
L 244.84868 -86.226037 
L 241.677917 -86.020999 
L 238.507154 -85.810122 
L 235.336391 -85.595801 
L 232.165628 -85.380432 
L 228.994865 -85.166392 
L 225.824102 -84.956037 
L 222.653339 -84.751682 
L 219.482577 -84.555595 
L 216.311814 -84.369983 
L 213.141051 -84.196984 
L 209.970288 -84.038658 
L 206.799525 -83.896973 
L 203.628762 -83.773805 
L 200.457999 -83.670922 
L 197.287236 -83.589983 
L 194.116473 -83.53253 
L 190.94571 -83.499983 
L 187.774947 -83.493633 
L 184.604185 -83.514645 
L 181.433422 -83.564048 
L 178.262659 -83.64274 
L 175.091896 -83.751479 
L 171.921133 -83.890891 
L 168.75037 -84.061466 
L 165.579607 -84.26356 
L 162.408844 -84.497397 
L 159.238081 -84.763073 
L 156.067318 -85.060559 
L 152.896556 -85.389701 
L 149.725793 -85.750233 
L 146.55503 -86.141772 
L 143.384267 -86.563831 
L 140.213504 -87.015822 
L 137.042741 -87.497061 
L 133.871978 -88.006776 
L 130.701215 -88.544111 
L 127.530452 -89.108138 
L 124.359689 -89.697855 
L 121.188926 -90.312204 
L 118.018164 -90.950065 
L 114.847401 -91.610275 
L 111.676638 -92.291626 
L 108.505875 -92.992875 
L 105.335112 -93.712747 
L 102.164349 -94.449948 
L 98.993586 -95.203163 
L 95.822823 -95.971067 
L 92.65206 -96.752325 
L 89.481297 -97.545604 
L 86.310534 -98.349571 
L 83.139772 -99.162903 
L 79.969009 -99.984285 
L 76.798246 -100.812419 
L 73.627483 -101.646026 
L 70.45672 -102.483847 
L 67.285957 -103.32465 
L 64.115194 -104.167227 
L 60.944431 -105.010403 
L 57.773668 -105.853031 
L 54.602905 -106.694001 
L 51.432143 -107.532234 
L 48.26138 -108.366692 
L 45.090617 -109.196369 
L 41.919854 -110.020303 
L 38.749091 -110.837567 
z
" style="stroke: #8c5a5a; stroke-opacity: 0.35"/>
    </defs>
    <g clip-path="url(#p55a5f0e8e8)">
     <use xlink:href="#mfa97ea35ba" x="0" y="346.8175" style="fill: #8c5a5a; fill-opacity: 0.35; stroke: #8c5a5a; stroke-opacity: 0.35"/>
    </g>
   </g>
   <g id="line2d_1">
    <path d="M 73.708293 205.852037 
L 85.688636 205.36828 
L 97.668979 205.093656 
L 112.644409 205.017799 
L 154.575611 205.076341 
L 163.560869 204.786084 
L 172.546126 204.267249 
L 181.531384 203.478629 
L 190.516641 202.39792 
L 199.501899 201.029057 
L 208.487157 199.407595 
L 220.4675 196.975913 
L 238.438015 193.261834 
L 247.423273 191.636299 
L 256.40853 190.307038 
L 262.398702 189.619416 
L 268.388874 189.100549 
L 274.379046 188.746778 
L 283.364303 188.490822 
L 292.349561 188.48022 
L 316.310248 188.630033 
L 325.295505 188.358365 
L 331.285677 187.991052 
L 337.275849 187.454315 
L 343.266021 186.74053 
L 349.256192 185.850257 
L 355.246364 184.79103 
L 364.231622 182.914542 
L 373.216879 180.743726 
L 382.202137 178.337981 
L 394.18248 174.848439 
L 406.162824 171.087275 
L 415.148081 168.072557 
L 424.133339 164.836643 
L 433.118597 161.295606 
L 439.108768 158.71257 
L 445.09894 155.910404 
L 451.089112 152.853327 
L 457.079284 149.507912 
L 463.069455 145.84566 
L 469.059627 141.845412 
L 475.049799 137.495369 
L 481.039971 132.794529 
L 487.030142 127.753408 
L 493.020314 122.394008 
L 499.010486 116.749101 
L 505.000658 110.860959 
L 513.985915 101.684178 
L 543.936774 70.598544 
L 549.926946 64.798385 
L 555.917117 59.308558 
L 561.907289 54.208852 
L 567.897461 49.582789 
L 570.892547 47.474452 
L 573.887632 45.517402 
L 576.882718 43.722933 
L 579.877804 42.102418 
L 582.87289 40.667242 
L 585.867976 39.42873 
L 588.863062 38.398053 
L 591.858148 37.586133 
L 594.853234 37.003529 
L 597.848319 36.660324 
L 600.843405 36.565994 
L 603.838491 36.729279 
L 606.833577 37.158042 
L 609.828663 37.859132 
L 612.823749 38.838246 
L 615.818835 40.099787 
L 618.81392 41.646732 
L 621.809006 43.480507 
L 624.804092 45.600872 
L 627.799178 48.005818 
L 630.794264 50.691478 
L 633.78935 53.652064 
L 636.784436 56.879819 
L 639.779522 60.364996 
L 642.774607 64.095865 
L 645.769693 68.058744 
L 648.764779 72.238068 
L 654.754951 81.174949 
L 660.745123 90.74859 
L 666.735294 100.780022 
L 669.73038 105.907423 
L 669.73038 105.907423 
" clip-path="url(#p55a5f0e8e8)" style="fill: none; stroke: #4c667a; stroke-width: 2; stroke-linecap: round"/>
   </g>
   <g id="line2d_2">
    <path d="M 38.749091 235.979933 
L 60.944431 241.807097 
L 86.310534 248.467929 
L 98.993586 251.614337 
L 111.676638 254.525874 
L 121.188926 256.505296 
L 130.701215 258.273389 
L 140.213504 259.801678 
L 149.725793 261.067267 
L 159.238081 262.054427 
L 168.75037 262.756034 
L 178.262659 263.17476 
L 187.774947 263.323867 
L 197.287236 263.227517 
L 206.799525 262.920527 
L 219.482577 262.261905 
L 263.873257 259.61518 
L 273.385546 259.389382 
L 282.897835 259.407856 
L 292.410123 259.710681 
L 301.922412 260.325884 
L 311.434701 261.268016 
L 320.946989 262.537381 
L 330.459278 264.119944 
L 339.971567 265.987913 
L 349.483856 268.100971 
L 362.166907 271.210114 
L 381.191485 276.200818 
L 397.045299 280.315372 
L 409.728351 283.355128 
L 419.24064 285.394453 
L 428.752928 287.171593 
L 438.265217 288.646785 
L 444.606743 289.447828 
L 450.948269 290.095956 
L 457.289794 290.587719 
L 463.63132 290.921839 
L 469.972846 291.099081 
L 476.314372 291.122084 
L 485.826661 290.877165 
L 495.338949 290.315296 
L 504.851238 289.461563 
L 514.363527 288.343833 
L 523.875815 286.990626 
L 533.388104 285.429225 
L 542.900393 283.684167 
L 555.583444 281.107003 
L 568.266496 278.277143 
L 580.949548 275.2192 
L 593.632599 271.94808 
L 606.315651 268.47384 
L 618.998703 264.807303 
L 634.852517 259.980351 
L 653.877095 253.907902 
L 669.730909 248.718114 
L 669.730909 248.718114 
" clip-path="url(#p55a5f0e8e8)" style="fill: none; stroke: #8c5a5a; stroke-width: 2; stroke-linecap: round"/>
   </g>
   <g id="line2d_3">
    <path d="M 7.2 210.972158 
L 701.28 210.972158 
" clip-path="url(#p55a5f0e8e8)" style="fill: none; stroke: #808080; stroke-linecap: round"/>
   </g>
   <g id="text_9">
    <!-- Figure 8-5. Common support in matched sample -->
    <g style="fill: #262626" transform="translate(163.854219 17.837812) scale(0.14 -0.14)">
     <defs>
      <path id="DejaVuSans-Bold-46" d="M 588 4666 
L 3834 4666 
L 3834 3756 
L 1791 3756 
L 1791 2888 
L 3713 2888 
L 3713 1978 
L 1791 1978 
L 1791 0 
L 588 0 
L 588 4666 
z
" transform="scale(0.015625)"/>
      <path id="DejaVuSans-Bold-69" d="M 538 3500 
L 1656 3500 
L 1656 0 
L 538 0 
L 538 3500 
z
M 538 4863 
L 1656 4863 
L 1656 3950 
L 538 3950 
L 538 4863 
z
" transform="scale(0.015625)"/>
      <path id="DejaVuSans-Bold-67" d="M 2919 594 
Q 2688 288 2409 144 
Q 2131 0 1766 0 
Q 1125 0 706 504 
Q 288 1009 288 1791 
Q 288 2575 706 3076 
Q 1125 3578 1766 3578 
Q 2131 3578 2409 3434 
Q 2688 3291 2919 2981 
L 2919 3500 
L 4044 3500 
L 4044 353 
Q 4044 -491 3511 -936 
Q 2978 -1381 1966 -1381 
Q 1638 -1381 1331 -1331 
Q 1025 -1281 716 -1178 
L 716 -306 
Q 1009 -475 1290 -558 
Q 1572 -641 1856 -641 
Q 2406 -641 2662 -400 
Q 2919 -159 2919 353 
L 2919 594 
z
M 2181 2772 
Q 1834 2772 1640 2515 
Q 1447 2259 1447 1791 
Q 1447 1309 1634 1061 
Q 1822 813 2181 813 
Q 2531 813 2725 1069 
Q 2919 1325 2919 1791 
Q 2919 2259 2725 2515 
Q 2531 2772 2181 2772 
z
" transform="scale(0.015625)"/>
      <path id="DejaVuSans-Bold-75" d="M 500 1363 
L 500 3500 
L 1625 3500 
L 1625 3150 
Q 1625 2866 1622 2436 
Q 1619 2006 1619 1863 
Q 1619 1441 1641 1255 
Q 1663 1069 1716 984 
Q 1784 875 1895 815 
Q 2006 756 2150 756 
Q 2500 756 2700 1025 
Q 2900 1294 2900 1772 
L 2900 3500 
L 4019 3500 
L 4019 0 
L 2900 0 
L 2900 506 
Q 2647 200 2364 54 
Q 2081 -91 1741 -91 
Q 1134 -91 817 281 
Q 500 653 500 1363 
z
" transform="scale(0.015625)"/>
      <path id="DejaVuSans-Bold-72" d="M 3138 2547 
Q 2991 2616 2845 2648 
Q 2700 2681 2553 2681 
Q 2122 2681 1889 2404 
Q 1656 2128 1656 1613 
L 1656 0 
L 538 0 
L 538 3500 
L 1656 3500 
L 1656 2925 
Q 1872 3269 2151 3426 
Q 2431 3584 2822 3584 
Q 2878 3584 2943 3579 
Q 3009 3575 3134 3559 
L 3138 2547 
z
" transform="scale(0.015625)"/>
      <path id="DejaVuSans-Bold-65" d="M 4031 1759 
L 4031 1441 
L 1416 1441 
Q 1456 1047 1700 850 
Q 1944 653 2381 653 
Q 2734 653 3104 758 
Q 3475 863 3866 1075 
L 3866 213 
Q 3469 63 3072 -14 
Q 2675 -91 2278 -91 
Q 1328 -91 801 392 
Q 275 875 275 1747 
Q 275 2603 792 3093 
Q 1309 3584 2216 3584 
Q 3041 3584 3536 3087 
Q 4031 2591 4031 1759 
z
M 2881 2131 
Q 2881 2450 2695 2645 
Q 2509 2841 2209 2841 
Q 1884 2841 1681 2658 
Q 1478 2475 1428 2131 
L 2881 2131 
z
" transform="scale(0.015625)"/>
      <path id="DejaVuSans-Bold-20" transform="scale(0.015625)"/>
      <path id="DejaVuSans-Bold-38" d="M 2228 2088 
Q 1891 2088 1709 1903 
Q 1528 1719 1528 1375 
Q 1528 1031 1709 848 
Q 1891 666 2228 666 
Q 2563 666 2741 848 
Q 2919 1031 2919 1375 
Q 2919 1722 2741 1905 
Q 2563 2088 2228 2088 
z
M 1350 2484 
Q 925 2613 709 2878 
Q 494 3144 494 3541 
Q 494 4131 934 4440 
Q 1375 4750 2228 4750 
Q 3075 4750 3515 4442 
Q 3956 4134 3956 3541 
Q 3956 3144 3739 2878 
Q 3522 2613 3097 2484 
Q 3572 2353 3814 2058 
Q 4056 1763 4056 1313 
Q 4056 619 3595 264 
Q 3134 -91 2228 -91 
Q 1319 -91 855 264 
Q 391 619 391 1313 
Q 391 1763 633 2058 
Q 875 2353 1350 2484 
z
M 1631 3419 
Q 1631 3141 1786 2991 
Q 1941 2841 2228 2841 
Q 2509 2841 2662 2991 
Q 2816 3141 2816 3419 
Q 2816 3697 2662 3845 
Q 2509 3994 2228 3994 
Q 1941 3994 1786 3844 
Q 1631 3694 1631 3419 
z
" transform="scale(0.015625)"/>
      <path id="DejaVuSans-Bold-2d" d="M 347 2297 
L 2309 2297 
L 2309 1388 
L 347 1388 
L 347 2297 
z
" transform="scale(0.015625)"/>
      <path id="DejaVuSans-Bold-35" d="M 678 4666 
L 3669 4666 
L 3669 3781 
L 1638 3781 
L 1638 3059 
Q 1775 3097 1914 3117 
Q 2053 3138 2203 3138 
Q 3056 3138 3531 2711 
Q 4006 2284 4006 1522 
Q 4006 766 3489 337 
Q 2972 -91 2053 -91 
Q 1656 -91 1267 -14 
Q 878 63 494 219 
L 494 1166 
Q 875 947 1217 837 
Q 1559 728 1863 728 
Q 2300 728 2551 942 
Q 2803 1156 2803 1522 
Q 2803 1891 2551 2103 
Q 2300 2316 1863 2316 
Q 1603 2316 1309 2248 
Q 1016 2181 678 2041 
L 678 4666 
z
" transform="scale(0.015625)"/>
      <path id="DejaVuSans-Bold-2e" d="M 653 1209 
L 1778 1209 
L 1778 0 
L 653 0 
L 653 1209 
z
" transform="scale(0.015625)"/>
      <path id="DejaVuSans-Bold-43" d="M 4288 256 
Q 3956 84 3597 -3 
Q 3238 -91 2847 -91 
Q 1681 -91 1000 561 
Q 319 1213 319 2328 
Q 319 3447 1000 4098 
Q 1681 4750 2847 4750 
Q 3238 4750 3597 4662 
Q 3956 4575 4288 4403 
L 4288 3438 
Q 3953 3666 3628 3772 
Q 3303 3878 2944 3878 
Q 2300 3878 1931 3465 
Q 1563 3053 1563 2328 
Q 1563 1606 1931 1193 
Q 2300 781 2944 781 
Q 3303 781 3628 887 
Q 3953 994 4288 1222 
L 4288 256 
z
" transform="scale(0.015625)"/>
      <path id="DejaVuSans-Bold-6f" d="M 2203 2784 
Q 1831 2784 1636 2517 
Q 1441 2250 1441 1747 
Q 1441 1244 1636 976 
Q 1831 709 2203 709 
Q 2569 709 2762 976 
Q 2956 1244 2956 1747 
Q 2956 2250 2762 2517 
Q 2569 2784 2203 2784 
z
M 2203 3584 
Q 3106 3584 3614 3096 
Q 4122 2609 4122 1747 
Q 4122 884 3614 396 
Q 3106 -91 2203 -91 
Q 1297 -91 786 396 
Q 275 884 275 1747 
Q 275 2609 786 3096 
Q 1297 3584 2203 3584 
z
" transform="scale(0.015625)"/>
      <path id="DejaVuSans-Bold-6d" d="M 3781 2919 
Q 3994 3244 4286 3414 
Q 4578 3584 4928 3584 
Q 5531 3584 5847 3212 
Q 6163 2841 6163 2131 
L 6163 0 
L 5038 0 
L 5038 1825 
Q 5041 1866 5042 1909 
Q 5044 1953 5044 2034 
Q 5044 2406 4934 2573 
Q 4825 2741 4581 2741 
Q 4263 2741 4089 2478 
Q 3916 2216 3909 1719 
L 3909 0 
L 2784 0 
L 2784 1825 
Q 2784 2406 2684 2573 
Q 2584 2741 2328 2741 
Q 2006 2741 1831 2477 
Q 1656 2213 1656 1722 
L 1656 0 
L 531 0 
L 531 3500 
L 1656 3500 
L 1656 2988 
Q 1863 3284 2130 3434 
Q 2397 3584 2719 3584 
Q 3081 3584 3359 3409 
Q 3638 3234 3781 2919 
z
" transform="scale(0.015625)"/>
      <path id="DejaVuSans-Bold-6e" d="M 4056 2131 
L 4056 0 
L 2931 0 
L 2931 347 
L 2931 1631 
Q 2931 2084 2911 2256 
Q 2891 2428 2841 2509 
Q 2775 2619 2662 2680 
Q 2550 2741 2406 2741 
Q 2056 2741 1856 2470 
Q 1656 2200 1656 1722 
L 1656 0 
L 538 0 
L 538 3500 
L 1656 3500 
L 1656 2988 
Q 1909 3294 2193 3439 
Q 2478 3584 2822 3584 
Q 3428 3584 3742 3212 
Q 4056 2841 4056 2131 
z
" transform="scale(0.015625)"/>
      <path id="DejaVuSans-Bold-73" d="M 3272 3391 
L 3272 2541 
Q 2913 2691 2578 2766 
Q 2244 2841 1947 2841 
Q 1628 2841 1473 2761 
Q 1319 2681 1319 2516 
Q 1319 2381 1436 2309 
Q 1553 2238 1856 2203 
L 2053 2175 
Q 2913 2066 3209 1816 
Q 3506 1566 3506 1031 
Q 3506 472 3093 190 
Q 2681 -91 1863 -91 
Q 1516 -91 1145 -36 
Q 775 19 384 128 
L 384 978 
Q 719 816 1070 734 
Q 1422 653 1784 653 
Q 2113 653 2278 743 
Q 2444 834 2444 1013 
Q 2444 1163 2330 1236 
Q 2216 1309 1875 1350 
L 1678 1375 
Q 931 1469 631 1722 
Q 331 1975 331 2491 
Q 331 3047 712 3315 
Q 1094 3584 1881 3584 
Q 2191 3584 2531 3537 
Q 2872 3491 3272 3391 
z
" transform="scale(0.015625)"/>
      <path id="DejaVuSans-Bold-70" d="M 1656 506 
L 1656 -1331 
L 538 -1331 
L 538 3500 
L 1656 3500 
L 1656 2988 
Q 1888 3294 2169 3439 
Q 2450 3584 2816 3584 
Q 3463 3584 3878 3070 
Q 4294 2556 4294 1747 
Q 4294 938 3878 423 
Q 3463 -91 2816 -91 
Q 2450 -91 2169 54 
Q 1888 200 1656 506 
z
M 2400 2772 
Q 2041 2772 1848 2508 
Q 1656 2244 1656 1747 
Q 1656 1250 1848 986 
Q 2041 722 2400 722 
Q 2759 722 2948 984 
Q 3138 1247 3138 1747 
Q 3138 2247 2948 2509 
Q 2759 2772 2400 2772 
z
" transform="scale(0.015625)"/>
      <path id="DejaVuSans-Bold-74" d="M 1759 4494 
L 1759 3500 
L 2913 3500 
L 2913 2700 
L 1759 2700 
L 1759 1216 
Q 1759 972 1856 886 
Q 1953 800 2241 800 
L 2816 800 
L 2816 0 
L 1856 0 
Q 1194 0 917 276 
Q 641 553 641 1216 
L 641 2700 
L 84 2700 
L 84 3500 
L 641 3500 
L 641 4494 
L 1759 4494 
z
" transform="scale(0.015625)"/>
      <path id="DejaVuSans-Bold-61" d="M 2106 1575 
Q 1756 1575 1579 1456 
Q 1403 1338 1403 1106 
Q 1403 894 1545 773 
Q 1688 653 1941 653 
Q 2256 653 2472 879 
Q 2688 1106 2688 1447 
L 2688 1575 
L 2106 1575 
z
M 3816 1997 
L 3816 0 
L 2688 0 
L 2688 519 
Q 2463 200 2181 54 
Q 1900 -91 1497 -91 
Q 953 -91 614 226 
Q 275 544 275 1050 
Q 275 1666 698 1953 
Q 1122 2241 2028 2241 
L 2688 2241 
L 2688 2328 
Q 2688 2594 2478 2717 
Q 2269 2841 1825 2841 
Q 1466 2841 1156 2769 
Q 847 2697 581 2553 
L 581 3406 
Q 941 3494 1303 3539 
Q 1666 3584 2028 3584 
Q 2975 3584 3395 3211 
Q 3816 2838 3816 1997 
z
" transform="scale(0.015625)"/>
      <path id="DejaVuSans-Bold-63" d="M 3366 3391 
L 3366 2478 
Q 3138 2634 2908 2709 
Q 2678 2784 2431 2784 
Q 1963 2784 1702 2511 
Q 1441 2238 1441 1747 
Q 1441 1256 1702 982 
Q 1963 709 2431 709 
Q 2694 709 2930 787 
Q 3166 866 3366 1019 
L 3366 103 
Q 3103 6 2833 -42 
Q 2563 -91 2291 -91 
Q 1344 -91 809 395 
Q 275 881 275 1747 
Q 275 2613 809 3098 
Q 1344 3584 2291 3584 
Q 2566 3584 2833 3536 
Q 3100 3488 3366 3391 
z
" transform="scale(0.015625)"/>
      <path id="DejaVuSans-Bold-68" d="M 4056 2131 
L 4056 0 
L 2931 0 
L 2931 347 
L 2931 1625 
Q 2931 2084 2911 2256 
Q 2891 2428 2841 2509 
Q 2775 2619 2662 2680 
Q 2550 2741 2406 2741 
Q 2056 2741 1856 2470 
Q 1656 2200 1656 1722 
L 1656 0 
L 538 0 
L 538 4863 
L 1656 4863 
L 1656 2988 
Q 1909 3294 2193 3439 
Q 2478 3584 2822 3584 
Q 3428 3584 3742 3212 
Q 4056 2841 4056 2131 
z
" transform="scale(0.015625)"/>
      <path id="DejaVuSans-Bold-64" d="M 2919 2988 
L 2919 4863 
L 4044 4863 
L 4044 0 
L 2919 0 
L 2919 506 
Q 2688 197 2409 53 
Q 2131 -91 1766 -91 
Q 1119 -91 703 423 
Q 288 938 288 1747 
Q 288 2556 703 3070 
Q 1119 3584 1766 3584 
Q 2128 3584 2408 3439 
Q 2688 3294 2919 2988 
z
M 2181 722 
Q 2541 722 2730 984 
Q 2919 1247 2919 1747 
Q 2919 2247 2730 2509 
Q 2541 2772 2181 2772 
Q 1825 2772 1636 2509 
Q 1447 2247 1447 1747 
Q 1447 1247 1636 984 
Q 1825 722 2181 722 
z
" transform="scale(0.015625)"/>
      <path id="DejaVuSans-Bold-6c" d="M 538 4863 
L 1656 4863 
L 1656 0 
L 538 0 
L 538 4863 
z
" transform="scale(0.015625)"/>
     </defs>
     <use xlink:href="#DejaVuSans-Bold-46"/>
     <use xlink:href="#DejaVuSans-Bold-69" transform="translate(68.310547 0)"/>
     <use xlink:href="#DejaVuSans-Bold-67" transform="translate(102.587891 0)"/>
     <use xlink:href="#DejaVuSans-Bold-75" transform="translate(174.169922 0)"/>
     <use xlink:href="#DejaVuSans-Bold-72" transform="translate(245.361328 0)"/>
     <use xlink:href="#DejaVuSans-Bold-65" transform="translate(294.677734 0)"/>
     <use xlink:href="#DejaVuSans-Bold-20" transform="translate(362.5 0)"/>
     <use xlink:href="#DejaVuSans-Bold-38" transform="translate(397.314453 0)"/>
     <use xlink:href="#DejaVuSans-Bold-2d" transform="translate(466.894531 0)"/>
     <use xlink:href="#DejaVuSans-Bold-35" transform="translate(508.398438 0)"/>
     <use xlink:href="#DejaVuSans-Bold-2e" transform="translate(577.978516 0)"/>
     <use xlink:href="#DejaVuSans-Bold-20" transform="translate(615.966797 0)"/>
     <use xlink:href="#DejaVuSans-Bold-43" transform="translate(650.78125 0)"/>
     <use xlink:href="#DejaVuSans-Bold-6f" transform="translate(724.169922 0)"/>
     <use xlink:href="#DejaVuSans-Bold-6d" transform="translate(792.871094 0)"/>
     <use xlink:href="#DejaVuSans-Bold-6d" transform="translate(897.070312 0)"/>
     <use xlink:href="#DejaVuSans-Bold-6f" transform="translate(1001.269531 0)"/>
     <use xlink:href="#DejaVuSans-Bold-6e" transform="translate(1069.970703 0)"/>
     <use xlink:href="#DejaVuSans-Bold-20" transform="translate(1141.162109 0)"/>
     <use xlink:href="#DejaVuSans-Bold-73" transform="translate(1175.976562 0)"/>
     <use xlink:href="#DejaVuSans-Bold-75" transform="translate(1235.498047 0)"/>
     <use xlink:href="#DejaVuSans-Bold-70" transform="translate(1306.689453 0)"/>
     <use xlink:href="#DejaVuSans-Bold-70" transform="translate(1378.271484 0)"/>
     <use xlink:href="#DejaVuSans-Bold-6f" transform="translate(1449.853516 0)"/>
     <use xlink:href="#DejaVuSans-Bold-72" transform="translate(1518.554688 0)"/>
     <use xlink:href="#DejaVuSans-Bold-74" transform="translate(1567.871094 0)"/>
     <use xlink:href="#DejaVuSans-Bold-20" transform="translate(1615.673828 0)"/>
     <use xlink:href="#DejaVuSans-Bold-69" transform="translate(1650.488281 0)"/>
     <use xlink:href="#DejaVuSans-Bold-6e" transform="translate(1684.765625 0)"/>
     <use xlink:href="#DejaVuSans-Bold-20" transform="translate(1755.957031 0)"/>
     <use xlink:href="#DejaVuSans-Bold-6d" transform="translate(1790.771484 0)"/>
     <use xlink:href="#DejaVuSans-Bold-61" transform="translate(1894.970703 0)"/>
     <use xlink:href="#DejaVuSans-Bold-74" transform="translate(1962.451172 0)"/>
     <use xlink:href="#DejaVuSans-Bold-63" transform="translate(2010.253906 0)"/>
     <use xlink:href="#DejaVuSans-Bold-68" transform="translate(2069.53125 0)"/>
     <use xlink:href="#DejaVuSans-Bold-65" transform="translate(2140.722656 0)"/>
     <use xlink:href="#DejaVuSans-Bold-64" transform="translate(2208.544922 0)"/>
     <use xlink:href="#DejaVuSans-Bold-20" transform="translate(2280.126953 0)"/>
     <use xlink:href="#DejaVuSans-Bold-73" transform="translate(2314.941406 0)"/>
     <use xlink:href="#DejaVuSans-Bold-61" transform="translate(2374.462891 0)"/>
     <use xlink:href="#DejaVuSans-Bold-6d" transform="translate(2441.943359 0)"/>
     <use xlink:href="#DejaVuSans-Bold-70" transform="translate(2546.142578 0)"/>
     <use xlink:href="#DejaVuSans-Bold-6c" transform="translate(2617.724609 0)"/>
     <use xlink:href="#DejaVuSans-Bold-65" transform="translate(2652.001953 0)"/>
    </g>
   </g>
   <g id="legend_1">
    <g id="line2d_4">
     <path d="M 272.089766 38.246094 
L 283.089766 38.246094 
L 294.089766 38.246094 
" style="fill: none; stroke: #4c667a; stroke-width: 2; stroke-linecap: round"/>
    </g>
    <g id="text_10">
     <!-- Treated -->
     <g style="fill: #262626" transform="translate(302.889766 42.096094) scale(0.11 -0.11)">
      <defs>
       <path id="DejaVuSans-54" d="M -19 4666 
L 3928 4666 
L 3928 4134 
L 2272 4134 
L 2272 0 
L 1638 0 
L 1638 4134 
L -19 4134 
L -19 4666 
z
" transform="scale(0.015625)"/>
       <path id="DejaVuSans-61" d="M 2194 1759 
Q 1497 1759 1228 1600 
Q 959 1441 959 1056 
Q 959 750 1161 570 
Q 1363 391 1709 391 
Q 2188 391 2477 730 
Q 2766 1069 2766 1631 
L 2766 1759 
L 2194 1759 
z
M 3341 1997 
L 3341 0 
L 2766 0 
L 2766 531 
Q 2569 213 2275 61 
Q 1981 -91 1556 -91 
Q 1019 -91 701 211 
Q 384 513 384 1019 
Q 384 1609 779 1909 
Q 1175 2209 1959 2209 
L 2766 2209 
L 2766 2266 
Q 2766 2663 2505 2880 
Q 2244 3097 1772 3097 
Q 1472 3097 1187 3025 
Q 903 2953 641 2809 
L 641 3341 
Q 956 3463 1253 3523 
Q 1550 3584 1831 3584 
Q 2591 3584 2966 3190 
Q 3341 2797 3341 1997 
z
" transform="scale(0.015625)"/>
       <path id="DejaVuSans-64" d="M 2906 2969 
L 2906 4863 
L 3481 4863 
L 3481 0 
L 2906 0 
L 2906 525 
Q 2725 213 2448 61 
Q 2172 -91 1784 -91 
Q 1150 -91 751 415 
Q 353 922 353 1747 
Q 353 2572 751 3078 
Q 1150 3584 1784 3584 
Q 2172 3584 2448 3432 
Q 2725 3281 2906 2969 
z
M 947 1747 
Q 947 1113 1208 752 
Q 1469 391 1925 391 
Q 2381 391 2643 752 
Q 2906 1113 2906 1747 
Q 2906 2381 2643 2742 
Q 2381 3103 1925 3103 
Q 1469 3103 1208 2742 
Q 947 2381 947 1747 
z
" transform="scale(0.015625)"/>
      </defs>
      <use xlink:href="#DejaVuSans-54"/>
      <use xlink:href="#DejaVuSans-72" transform="translate(46.333984 0)"/>
      <use xlink:href="#DejaVuSans-65" transform="translate(85.197266 0)"/>
      <use xlink:href="#DejaVuSans-61" transform="translate(146.720703 0)"/>
      <use xlink:href="#DejaVuSans-74" transform="translate(208 0)"/>
      <use xlink:href="#DejaVuSans-65" transform="translate(247.208984 0)"/>
      <use xlink:href="#DejaVuSans-64" transform="translate(308.732422 0)"/>
     </g>
    </g>
    <g id="line2d_5">
     <path d="M 365.833828 38.246094 
L 376.833828 38.246094 
L 387.833828 38.246094 
" style="fill: none; stroke: #8c5a5a; stroke-width: 2; stroke-linecap: round"/>
    </g>
    <g id="text_11">
     <!-- Control -->
     <g style="fill: #262626" transform="translate(396.633828 42.096094) scale(0.11 -0.11)">
      <defs>
       <path id="DejaVuSans-43" d="M 4122 4306 
L 4122 3641 
Q 3803 3938 3442 4084 
Q 3081 4231 2675 4231 
Q 1875 4231 1450 3742 
Q 1025 3253 1025 2328 
Q 1025 1406 1450 917 
Q 1875 428 2675 428 
Q 3081 428 3442 575 
Q 3803 722 4122 1019 
L 4122 359 
Q 3791 134 3420 21 
Q 3050 -91 2638 -91 
Q 1578 -91 968 557 
Q 359 1206 359 2328 
Q 359 3453 968 4101 
Q 1578 4750 2638 4750 
Q 3056 4750 3426 4639 
Q 3797 4528 4122 4306 
z
" transform="scale(0.015625)"/>
       <path id="DejaVuSans-6c" d="M 603 4863 
L 1178 4863 
L 1178 0 
L 603 0 
L 603 4863 
z
" transform="scale(0.015625)"/>
      </defs>
      <use xlink:href="#DejaVuSans-43"/>
      <use xlink:href="#DejaVuSans-6f" transform="translate(69.824219 0)"/>
      <use xlink:href="#DejaVuSans-6e" transform="translate(131.005859 0)"/>
      <use xlink:href="#DejaVuSans-74" transform="translate(194.384766 0)"/>
      <use xlink:href="#DejaVuSans-72" transform="translate(233.59375 0)"/>
      <use xlink:href="#DejaVuSans-6f" transform="translate(272.457031 0)"/>
      <use xlink:href="#DejaVuSans-6c" transform="translate(333.638672 0)"/>
     </g>
    </g>
   </g>
  </g>
 </g>
 <defs>
  <clipPath id="p55a5f0e8e8">
   <rect x="7.2" y="23.837812" width="694.08" height="280.02"/>
  </clipPath>
 </defs>
</svg>
