<?xml version="1.0" encoding="utf-8" standalone="no"?>
<!DOCTYPE svg PUBLIC "-//W3C//DTD SVG 1.1//EN"
  "http://www.w3.org/Graphics/SVG/1.1/DTD/svg11.dtd">
<svg xmlns:xlink="http://www.w3.org/1999/xlink" width="705.553787pt" height="454.8175pt" viewBox="0 0 705.553787 454.8175" xmlns="http://www.w3.org/2000/svg" version="1.1">
 <metadata>
  <rdf:RDF xmlns:dc="http://purl.org/dc/elements/1.1/" xmlns:cc="http://creativecommons.org/ns#" xmlns:rdf="http://www.w3.org/1999/02/22-rdf-syntax-ns#">
   <cc:Work>
    <dc:type rdf:resource="http://purl.org/dc/dcmitype/StillImage"/>
    <dc:date>2026-04-09T13:43:08.149070</dc:date>
    <dc:format>image/svg+xml</dc:format>
    <dc:creator>
     <cc:Agent>
      <dc:title>Matplotlib v3.10.8, https://matplotlib.org/</dc:title>
     </cc:Agent>
    </dc:creator>
   </cc:Work>
  </rdf:RDF>
 </metadata>
 <defs>
  <style type="text/css">*{stroke-linejoin: round; stroke-linecap: butt}</style>
 </defs>
 <g id="figure_1">
  <g id="patch_1">
   <path d="M 0 454.8175 
L 705.553787 454.8175 
L 705.553787 0 
L 0 0 
z
" style="fill: #ffffff"/>
  </g>
  <g id="axes_1">
   <g id="patch_2">
    <path d="M 46.31125 411.857813 
L 539.14125 411.857813 
L 539.14125 23.837812 
L 46.31125 23.837812 
z
" style="fill: #ffffff"/>
   </g>
   <g id="matplotlib.axis_1">
    <g id="xtick_1">
     <g id="text_1">
      <!-- -10 -->
      <g style="fill: #262626" transform="translate(42.293844 429.716094) scale(0.11 -0.11)">
       <defs>
        <path id="DejaVuSans-2d" d="M 313 2009 
L 1997 2009 
L 1997 1497 
L 313 1497 
L 313 2009 
z
" transform="scale(0.015625)"/>
        <path id="DejaVuSans-31" d="M 794 531 
L 1825 531 
L 1825 4091 
L 703 3866 
L 703 4441 
L 1819 4666 
L 2450 4666 
L 2450 531 
L 3481 531 
L 3481 0 
L 794 0 
L 794 531 
z
" transform="scale(0.015625)"/>
        <path id="DejaVuSans-30" d="M 2034 4250 
Q 1547 4250 1301 3770 
Q 1056 3291 1056 2328 
Q 1056 1369 1301 889 
Q 1547 409 2034 409 
Q 2525 409 2770 889 
Q 3016 1369 3016 2328 
Q 3016 3291 2770 3770 
Q 2525 4250 2034 4250 
z
M 2034 4750 
Q 2819 4750 3233 4129 
Q 3647 3509 3647 2328 
Q 3647 1150 3233 529 
Q 2819 -91 2034 -91 
Q 1250 -91 836 529 
Q 422 1150 422 2328 
Q 422 3509 836 4129 
Q 1250 4750 2034 4750 
z
" transform="scale(0.015625)"/>
       </defs>
       <use xlink:href="#DejaVuSans-2d"/>
       <use xlink:href="#DejaVuSans-31" transform="translate(36.083984 0)"/>
       <use xlink:href="#DejaVuSans-30" transform="translate(99.707031 0)"/>
      </g>
     </g>
    </g>
    <g id="xtick_2">
     <g id="text_2">
      <!-- -8 -->
      <g style="fill: #262626" transform="translate(134.993702 429.716094) scale(0.11 -0.11)">
       <defs>
        <path id="DejaVuSans-38" d="M 2034 2216 
Q 1584 2216 1326 1975 
Q 1069 1734 1069 1313 
Q 1069 891 1326 650 
Q 1584 409 2034 409 
Q 2484 409 2743 651 
Q 3003 894 3003 1313 
Q 3003 1734 2745 1975 
Q 2488 2216 2034 2216 
z
M 1403 2484 
Q 997 2584 770 2862 
Q 544 3141 544 3541 
Q 544 4100 942 4425 
Q 1341 4750 2034 4750 
Q 2731 4750 3128 4425 
Q 3525 4100 3525 3541 
Q 3525 3141 3298 2862 
Q 3072 2584 2669 2484 
Q 3125 2378 3379 2068 
Q 3634 1759 3634 1313 
Q 3634 634 3220 271 
Q 2806 -91 2034 -91 
Q 1263 -91 848 271 
Q 434 634 434 1313 
Q 434 1759 690 2068 
Q 947 2378 1403 2484 
z
M 1172 3481 
Q 1172 3119 1398 2916 
Q 1625 2713 2034 2713 
Q 2441 2713 2670 2916 
Q 2900 3119 2900 3481 
Q 2900 3844 2670 4047 
Q 2441 4250 2034 4250 
Q 1625 4250 1398 4047 
Q 1172 3844 1172 3481 
z
" transform="scale(0.015625)"/>
       </defs>
       <use xlink:href="#DejaVuSans-2d"/>
       <use xlink:href="#DejaVuSans-38" transform="translate(36.083984 0)"/>
      </g>
     </g>
    </g>
    <g id="xtick_3">
     <g id="text_3">
      <!-- -6 -->
      <g style="fill: #262626" transform="translate(224.194185 429.716094) scale(0.11 -0.11)">
       <defs>
        <path id="DejaVuSans-36" d="M 2113 2584 
Q 1688 2584 1439 2293 
Q 1191 2003 1191 1497 
Q 1191 994 1439 701 
Q 1688 409 2113 409 
Q 2538 409 2786 701 
Q 3034 994 3034 1497 
Q 3034 2003 2786 2293 
Q 2538 2584 2113 2584 
z
M 3366 4563 
L 3366 3988 
Q 3128 4100 2886 4159 
Q 2644 4219 2406 4219 
Q 1781 4219 1451 3797 
Q 1122 3375 1075 2522 
Q 1259 2794 1537 2939 
Q 1816 3084 2150 3084 
Q 2853 3084 3261 2657 
Q 3669 2231 3669 1497 
Q 3669 778 3244 343 
Q 2819 -91 2113 -91 
Q 1303 -91 875 529 
Q 447 1150 447 2328 
Q 447 3434 972 4092 
Q 1497 4750 2381 4750 
Q 2619 4750 2861 4703 
Q 3103 4656 3366 4563 
z
" transform="scale(0.015625)"/>
       </defs>
       <use xlink:href="#DejaVuSans-2d"/>
       <use xlink:href="#DejaVuSans-36" transform="translate(36.083984 0)"/>
      </g>
     </g>
    </g>
    <g id="xtick_4">
     <g id="text_4">
      <!-- -4 -->
      <g style="fill: #262626" transform="translate(313.394667 429.716094) scale(0.11 -0.11)">
       <defs>
        <path id="DejaVuSans-34" d="M 2419 4116 
L 825 1625 
L 2419 1625 
L 2419 4116 
z
M 2253 4666 
L 3047 4666 
L 3047 1625 
L 3713 1625 
L 3713 1100 
L 3047 1100 
L 3047 0 
L 2419 0 
L 2419 1100 
L 313 1100 
L 313 1709 
L 2253 4666 
z
" transform="scale(0.015625)"/>
       </defs>
       <use xlink:href="#DejaVuSans-2d"/>
       <use xlink:href="#DejaVuSans-34" transform="translate(36.083984 0)"/>
      </g>
     </g>
    </g>
    <g id="xtick_5">
     <g id="text_5">
      <!-- -2 -->
      <g style="fill: #262626" transform="translate(402.59515 429.716094) scale(0.11 -0.11)">
       <defs>
        <path id="DejaVuSans-32" d="M 1228 531 
L 3431 531 
L 3431 0 
L 469 0 
L 469 531 
Q 828 903 1448 1529 
Q 2069 2156 2228 2338 
Q 2531 2678 2651 2914 
Q 2772 3150 2772 3378 
Q 2772 3750 2511 3984 
Q 2250 4219 1831 4219 
Q 1534 4219 1204 4116 
Q 875 4013 500 3803 
L 500 4441 
Q 881 4594 1212 4672 
Q 1544 4750 1819 4750 
Q 2544 4750 2975 4387 
Q 3406 4025 3406 3419 
Q 3406 3131 3298 2873 
Q 3191 2616 2906 2266 
Q 2828 2175 2409 1742 
Q 1991 1309 1228 531 
z
" transform="scale(0.015625)"/>
       </defs>
       <use xlink:href="#DejaVuSans-2d"/>
       <use xlink:href="#DejaVuSans-32" transform="translate(36.083984 0)"/>
      </g>
     </g>
    </g>
    <g id="xtick_6">
     <g id="text_6">
      <!-- 0 -->
      <g style="fill: #262626" transform="translate(493.77993 429.716094) scale(0.11 -0.11)">
       <use xlink:href="#DejaVuSans-30"/>
      </g>
     </g>
    </g>
    <g id="text_7">
     <!-- Estimated coefficient -->
     <g style="fill: #262626" transform="translate(229.143125 445.121875) scale(0.12 -0.12)">
      <defs>
       <path id="DejaVuSans-45" d="M 628 4666 
L 3578 4666 
L 3578 4134 
L 1259 4134 
L 1259 2753 
L 3481 2753 
L 3481 2222 
L 1259 2222 
L 1259 531 
L 3634 531 
L 3634 0 
L 628 0 
L 628 4666 
z
" transform="scale(0.015625)"/>
       <path id="DejaVuSans-73" d="M 2834 3397 
L 2834 2853 
Q 2591 2978 2328 3040 
Q 2066 3103 1784 3103 
Q 1356 3103 1142 2972 
Q 928 2841 928 2578 
Q 928 2378 1081 2264 
Q 1234 2150 1697 2047 
L 1894 2003 
Q 2506 1872 2764 1633 
Q 3022 1394 3022 966 
Q 3022 478 2636 193 
Q 2250 -91 1575 -91 
Q 1294 -91 989 -36 
Q 684 19 347 128 
L 347 722 
Q 666 556 975 473 
Q 1284 391 1588 391 
Q 1994 391 2212 530 
Q 2431 669 2431 922 
Q 2431 1156 2273 1281 
Q 2116 1406 1581 1522 
L 1381 1569 
Q 847 1681 609 1914 
Q 372 2147 372 2553 
Q 372 3047 722 3315 
Q 1072 3584 1716 3584 
Q 2034 3584 2315 3537 
Q 2597 3491 2834 3397 
z
" transform="scale(0.015625)"/>
       <path id="DejaVuSans-74" d="M 1172 4494 
L 1172 3500 
L 2356 3500 
L 2356 3053 
L 1172 3053 
L 1172 1153 
Q 1172 725 1289 603 
Q 1406 481 1766 481 
L 2356 481 
L 2356 0 
L 1766 0 
Q 1100 0 847 248 
Q 594 497 594 1153 
L 594 3053 
L 172 3053 
L 172 3500 
L 594 3500 
L 594 4494 
L 1172 4494 
z
" transform="scale(0.015625)"/>
       <path id="DejaVuSans-69" d="M 603 3500 
L 1178 3500 
L 1178 0 
L 603 0 
L 603 3500 
z
M 603 4863 
L 1178 4863 
L 1178 4134 
L 603 4134 
L 603 4863 
z
" transform="scale(0.015625)"/>
       <path id="DejaVuSans-6d" d="M 3328 2828 
Q 3544 3216 3844 3400 
Q 4144 3584 4550 3584 
Q 5097 3584 5394 3201 
Q 5691 2819 5691 2113 
L 5691 0 
L 5113 0 
L 5113 2094 
Q 5113 2597 4934 2840 
Q 4756 3084 4391 3084 
Q 3944 3084 3684 2787 
Q 3425 2491 3425 1978 
L 3425 0 
L 2847 0 
L 2847 2094 
Q 2847 2600 2669 2842 
Q 2491 3084 2119 3084 
Q 1678 3084 1418 2786 
Q 1159 2488 1159 1978 
L 1159 0 
L 581 0 
L 581 3500 
L 1159 3500 
L 1159 2956 
Q 1356 3278 1631 3431 
Q 1906 3584 2284 3584 
Q 2666 3584 2933 3390 
Q 3200 3197 3328 2828 
z
" transform="scale(0.015625)"/>
       <path id="DejaVuSans-61" d="M 2194 1759 
Q 1497 1759 1228 1600 
Q 959 1441 959 1056 
Q 959 750 1161 570 
Q 1363 391 1709 391 
Q 2188 391 2477 730 
Q 2766 1069 2766 1631 
L 2766 1759 
L 2194 1759 
z
M 3341 1997 
L 3341 0 
L 2766 0 
L 2766 531 
Q 2569 213 2275 61 
Q 1981 -91 1556 -91 
Q 1019 -91 701 211 
Q 384 513 384 1019 
Q 384 1609 779 1909 
Q 1175 2209 1959 2209 
L 2766 2209 
L 2766 2266 
Q 2766 2663 2505 2880 
Q 2244 3097 1772 3097 
Q 1472 3097 1187 3025 
Q 903 2953 641 2809 
L 641 3341 
Q 956 3463 1253 3523 
Q 1550 3584 1831 3584 
Q 2591 3584 2966 3190 
Q 3341 2797 3341 1997 
z
" transform="scale(0.015625)"/>
       <path id="DejaVuSans-65" d="M 3597 1894 
L 3597 1613 
L 953 1613 
Q 991 1019 1311 708 
Q 1631 397 2203 397 
Q 2534 397 2845 478 
Q 3156 559 3463 722 
L 3463 178 
Q 3153 47 2828 -22 
Q 2503 -91 2169 -91 
Q 1331 -91 842 396 
Q 353 884 353 1716 
Q 353 2575 817 3079 
Q 1281 3584 2069 3584 
Q 2775 3584 3186 3129 
Q 3597 2675 3597 1894 
z
M 3022 2063 
Q 3016 2534 2758 2815 
Q 2500 3097 2075 3097 
Q 1594 3097 1305 2825 
Q 1016 2553 972 2059 
L 3022 2063 
z
" transform="scale(0.015625)"/>
       <path id="DejaVuSans-64" d="M 2906 2969 
L 2906 4863 
L 3481 4863 
L 3481 0 
L 2906 0 
L 2906 525 
Q 2725 213 2448 61 
Q 2172 -91 1784 -91 
Q 1150 -91 751 415 
Q 353 922 353 1747 
Q 353 2572 751 3078 
Q 1150 3584 1784 3584 
Q 2172 3584 2448 3432 
Q 2725 3281 2906 2969 
z
M 947 1747 
Q 947 1113 1208 752 
Q 1469 391 1925 391 
Q 2381 391 2643 752 
Q 2906 1113 2906 1747 
Q 2906 2381 2643 2742 
Q 2381 3103 1925 3103 
Q 1469 3103 1208 2742 
Q 947 2381 947 1747 
z
" transform="scale(0.015625)"/>
       <path id="DejaVuSans-20" transform="scale(0.015625)"/>
       <path id="DejaVuSans-63" d="M 3122 3366 
L 3122 2828 
Q 2878 2963 2633 3030 
Q 2388 3097 2138 3097 
Q 1578 3097 1268 2742 
Q 959 2388 959 1747 
Q 959 1106 1268 751 
Q 1578 397 2138 397 
Q 2388 397 2633 464 
Q 2878 531 3122 666 
L 3122 134 
Q 2881 22 2623 -34 
Q 2366 -91 2075 -91 
Q 1284 -91 818 406 
Q 353 903 353 1747 
Q 353 2603 823 3093 
Q 1294 3584 2113 3584 
Q 2378 3584 2631 3529 
Q 2884 3475 3122 3366 
z
" transform="scale(0.015625)"/>
       <path id="DejaVuSans-6f" d="M 1959 3097 
Q 1497 3097 1228 2736 
Q 959 2375 959 1747 
Q 959 1119 1226 758 
Q 1494 397 1959 397 
Q 2419 397 2687 759 
Q 2956 1122 2956 1747 
Q 2956 2369 2687 2733 
Q 2419 3097 1959 3097 
z
M 1959 3584 
Q 2709 3584 3137 3096 
Q 3566 2609 3566 1747 
Q 3566 888 3137 398 
Q 2709 -91 1959 -91 
Q 1206 -91 779 398 
Q 353 888 353 1747 
Q 353 2609 779 3096 
Q 1206 3584 1959 3584 
z
" transform="scale(0.015625)"/>
       <path id="DejaVuSans-66" d="M 2375 4863 
L 2375 4384 
L 1825 4384 
Q 1516 4384 1395 4259 
Q 1275 4134 1275 3809 
L 1275 3500 
L 2222 3500 
L 2222 3053 
L 1275 3053 
L 1275 0 
L 697 0 
L 697 3053 
L 147 3053 
L 147 3500 
L 697 3500 
L 697 3744 
Q 697 4328 969 4595 
Q 1241 4863 1831 4863 
L 2375 4863 
z
" transform="scale(0.015625)"/>
       <path id="DejaVuSans-6e" d="M 3513 2113 
L 3513 0 
L 2938 0 
L 2938 2094 
Q 2938 2591 2744 2837 
Q 2550 3084 2163 3084 
Q 1697 3084 1428 2787 
Q 1159 2491 1159 1978 
L 1159 0 
L 581 0 
L 581 3500 
L 1159 3500 
L 1159 2956 
Q 1366 3272 1645 3428 
Q 1925 3584 2291 3584 
Q 2894 3584 3203 3211 
Q 3513 2838 3513 2113 
z
" transform="scale(0.015625)"/>
      </defs>
      <use xlink:href="#DejaVuSans-45"/>
      <use xlink:href="#DejaVuSans-73" transform="translate(63.183594 0)"/>
      <use xlink:href="#DejaVuSans-74" transform="translate(115.283203 0)"/>
      <use xlink:href="#DejaVuSans-69" transform="translate(154.492188 0)"/>
      <use xlink:href="#DejaVuSans-6d" transform="translate(182.275391 0)"/>
      <use xlink:href="#DejaVuSans-61" transform="translate(279.6875 0)"/>
      <use xlink:href="#DejaVuSans-74" transform="translate(340.966797 0)"/>
      <use xlink:href="#DejaVuSans-65" transform="translate(380.175781 0)"/>
      <use xlink:href="#DejaVuSans-64" transform="translate(441.699219 0)"/>
      <use xlink:href="#DejaVuSans-20" transform="translate(505.175781 0)"/>
      <use xlink:href="#DejaVuSans-63" transform="translate(536.962891 0)"/>
      <use xlink:href="#DejaVuSans-6f" transform="translate(591.943359 0)"/>
      <use xlink:href="#DejaVuSans-65" transform="translate(653.125 0)"/>
      <use xlink:href="#DejaVuSans-66" transform="translate(714.648438 0)"/>
      <use xlink:href="#DejaVuSans-66" transform="translate(749.853516 0)"/>
      <use xlink:href="#DejaVuSans-69" transform="translate(785.058594 0)"/>
      <use xlink:href="#DejaVuSans-63" transform="translate(812.841797 0)"/>
      <use xlink:href="#DejaVuSans-69" transform="translate(867.822266 0)"/>
      <use xlink:href="#DejaVuSans-65" transform="translate(895.605469 0)"/>
      <use xlink:href="#DejaVuSans-6e" transform="translate(957.128906 0)"/>
      <use xlink:href="#DejaVuSans-74" transform="translate(1020.507812 0)"/>
     </g>
    </g>
   </g>
   <g id="matplotlib.axis_2">
    <g id="ytick_1">
     <g id="text_8">
      <!-- 0 -->
      <g style="fill: #262626" transform="translate(29.8125 400.181519) scale(0.11 -0.11)">
       <use xlink:href="#DejaVuSans-30"/>
      </g>
     </g>
    </g>
    <g id="ytick_2">
     <g id="text_9">
      <!-- 2 -->
      <g style="fill: #262626" transform="translate(29.8125 337.655665) scale(0.11 -0.11)">
       <use xlink:href="#DejaVuSans-32"/>
      </g>
     </g>
    </g>
    <g id="ytick_3">
     <g id="text_10">
      <!-- 4 -->
      <g style="fill: #262626" transform="translate(29.8125 275.129812) scale(0.11 -0.11)">
       <use xlink:href="#DejaVuSans-34"/>
      </g>
     </g>
    </g>
    <g id="ytick_4">
     <g id="text_11">
      <!-- 6 -->
      <g style="fill: #262626" transform="translate(29.8125 212.603958) scale(0.11 -0.11)">
       <use xlink:href="#DejaVuSans-36"/>
      </g>
     </g>
    </g>
    <g id="ytick_5">
     <g id="text_12">
      <!-- 8 -->
      <g style="fill: #262626" transform="translate(29.8125 150.078105) scale(0.11 -0.11)">
       <use xlink:href="#DejaVuSans-38"/>
      </g>
     </g>
    </g>
    <g id="ytick_6">
     <g id="text_13">
      <!-- 10 -->
      <g style="fill: #262626" transform="translate(22.81375 87.552251) scale(0.11 -0.11)">
       <use xlink:href="#DejaVuSans-31"/>
       <use xlink:href="#DejaVuSans-30" transform="translate(63.623047 0)"/>
      </g>
     </g>
    </g>
    <g id="text_14">
     <!-- -log10(p-value) -->
     <g style="fill: #262626" transform="translate(16.318125 263.682187) rotate(-90) scale(0.12 -0.12)">
      <defs>
       <path id="DejaVuSans-6c" d="M 603 4863 
L 1178 4863 
L 1178 0 
L 603 0 
L 603 4863 
z
" transform="scale(0.015625)"/>
       <path id="DejaVuSans-67" d="M 2906 1791 
Q 2906 2416 2648 2759 
Q 2391 3103 1925 3103 
Q 1463 3103 1205 2759 
Q 947 2416 947 1791 
Q 947 1169 1205 825 
Q 1463 481 1925 481 
Q 2391 481 2648 825 
Q 2906 1169 2906 1791 
z
M 3481 434 
Q 3481 -459 3084 -895 
Q 2688 -1331 1869 -1331 
Q 1566 -1331 1297 -1286 
Q 1028 -1241 775 -1147 
L 775 -588 
Q 1028 -725 1275 -790 
Q 1522 -856 1778 -856 
Q 2344 -856 2625 -561 
Q 2906 -266 2906 331 
L 2906 616 
Q 2728 306 2450 153 
Q 2172 0 1784 0 
Q 1141 0 747 490 
Q 353 981 353 1791 
Q 353 2603 747 3093 
Q 1141 3584 1784 3584 
Q 2172 3584 2450 3431 
Q 2728 3278 2906 2969 
L 2906 3500 
L 3481 3500 
L 3481 434 
z
" transform="scale(0.015625)"/>
       <path id="DejaVuSans-28" d="M 1984 4856 
Q 1566 4138 1362 3434 
Q 1159 2731 1159 2009 
Q 1159 1288 1364 580 
Q 1569 -128 1984 -844 
L 1484 -844 
Q 1016 -109 783 600 
Q 550 1309 550 2009 
Q 550 2706 781 3412 
Q 1013 4119 1484 4856 
L 1984 4856 
z
" transform="scale(0.015625)"/>
       <path id="DejaVuSans-70" d="M 1159 525 
L 1159 -1331 
L 581 -1331 
L 581 3500 
L 1159 3500 
L 1159 2969 
Q 1341 3281 1617 3432 
Q 1894 3584 2278 3584 
Q 2916 3584 3314 3078 
Q 3713 2572 3713 1747 
Q 3713 922 3314 415 
Q 2916 -91 2278 -91 
Q 1894 -91 1617 61 
Q 1341 213 1159 525 
z
M 3116 1747 
Q 3116 2381 2855 2742 
Q 2594 3103 2138 3103 
Q 1681 3103 1420 2742 
Q 1159 2381 1159 1747 
Q 1159 1113 1420 752 
Q 1681 391 2138 391 
Q 2594 391 2855 752 
Q 3116 1113 3116 1747 
z
" transform="scale(0.015625)"/>
       <path id="DejaVuSans-76" d="M 191 3500 
L 800 3500 
L 1894 563 
L 2988 3500 
L 3597 3500 
L 2284 0 
L 1503 0 
L 191 3500 
z
" transform="scale(0.015625)"/>
       <path id="DejaVuSans-75" d="M 544 1381 
L 544 3500 
L 1119 3500 
L 1119 1403 
Q 1119 906 1312 657 
Q 1506 409 1894 409 
Q 2359 409 2629 706 
Q 2900 1003 2900 1516 
L 2900 3500 
L 3475 3500 
L 3475 0 
L 2900 0 
L 2900 538 
Q 2691 219 2414 64 
Q 2138 -91 1772 -91 
Q 1169 -91 856 284 
Q 544 659 544 1381 
z
M 1991 3584 
L 1991 3584 
z
" transform="scale(0.015625)"/>
       <path id="DejaVuSans-29" d="M 513 4856 
L 1013 4856 
Q 1481 4119 1714 3412 
Q 1947 2706 1947 2009 
Q 1947 1309 1714 600 
Q 1481 -109 1013 -844 
L 513 -844 
Q 928 -128 1133 580 
Q 1338 1288 1338 2009 
Q 1338 2731 1133 3434 
Q 928 4138 513 4856 
z
" transform="scale(0.015625)"/>
      </defs>
      <use xlink:href="#DejaVuSans-2d"/>
      <use xlink:href="#DejaVuSans-6c" transform="translate(36.083984 0)"/>
      <use xlink:href="#DejaVuSans-6f" transform="translate(63.867188 0)"/>
      <use xlink:href="#DejaVuSans-67" transform="translate(125.048828 0)"/>
      <use xlink:href="#DejaVuSans-31" transform="translate(188.525391 0)"/>
      <use xlink:href="#DejaVuSans-30" transform="translate(252.148438 0)"/>
      <use xlink:href="#DejaVuSans-28" transform="translate(315.771484 0)"/>
      <use xlink:href="#DejaVuSans-70" transform="translate(354.785156 0)"/>
      <use xlink:href="#DejaVuSans-2d" transform="translate(418.261719 0)"/>
      <use xlink:href="#DejaVuSans-76" transform="translate(451.720703 0)"/>
      <use xlink:href="#DejaVuSans-61" transform="translate(510.900391 0)"/>
      <use xlink:href="#DejaVuSans-6c" transform="translate(572.179688 0)"/>
      <use xlink:href="#DejaVuSans-75" transform="translate(599.962891 0)"/>
      <use xlink:href="#DejaVuSans-65" transform="translate(663.341797 0)"/>
      <use xlink:href="#DejaVuSans-29" transform="translate(724.865234 0)"/>
     </g>
    </g>
   </g>
   <g id="PathCollection_1">
    <path d="M 500.308496 389.549271 
C 501.904128 389.549271 503.434623 388.915319 504.562905 387.787037 
C 505.691188 386.658754 506.325139 385.12826 506.325139 383.532627 
C 506.325139 381.936995 505.691188 380.4065 504.562905 379.278218 
C 503.434623 378.149935 501.904128 377.515984 500.308496 377.515984 
C 498.712863 377.515984 497.182369 378.149935 496.054086 379.278218 
C 494.925804 380.4065 494.291852 381.936995 494.291852 383.532627 
C 494.291852 385.12826 494.925804 386.658754 496.054086 387.787037 
C 497.182369 388.915319 498.712863 389.549271 500.308496 389.549271 
z
" clip-path="url(#p098d475fbd)" style="fill: #4c72b0; fill-opacity: 0.8; stroke: #4c72b0; stroke-opacity: 0.8"/>
    <path d="M 498.833666 386.392729 
C 500.429299 386.392729 501.959793 385.758777 503.088076 384.630495 
C 504.216358 383.502212 504.85031 381.971718 504.85031 380.376085 
C 504.85031 378.780453 504.216358 377.249958 503.088076 376.121676 
C 501.959793 374.993393 500.429299 374.359441 498.833666 374.359441 
C 497.238034 374.359441 495.707539 374.993393 494.579257 376.121676 
C 493.450974 377.249958 492.817023 378.780453 492.817023 380.376085 
C 492.817023 381.971718 493.450974 383.502212 494.579257 384.630495 
C 495.707539 385.758777 497.238034 386.392729 498.833666 386.392729 
z
" clip-path="url(#p098d475fbd)" style="fill: #4c72b0; fill-opacity: 0.8; stroke: #4c72b0; stroke-opacity: 0.8"/>
    <path d="M 513.334959 294.257159 
C 514.930592 294.257159 516.461086 293.623208 517.589369 292.494925 
C 518.717651 291.366642 519.351603 289.836148 519.351603 288.240515 
C 519.351603 286.644883 518.717651 285.114389 517.589369 283.986106 
C 516.461086 282.857823 514.930592 282.223872 513.334959 282.223872 
C 511.739327 282.223872 510.208832 282.857823 509.08055 283.986106 
C 507.952267 285.114389 507.318316 286.644883 507.318316 288.240515 
C 507.318316 289.836148 507.952267 291.366642 509.08055 292.494925 
C 510.208832 293.623208 511.739327 294.257159 513.334959 294.257159 
z
" clip-path="url(#p098d475fbd)" style="fill: #4c72b0; fill-opacity: 0.8; stroke: #4c72b0; stroke-opacity: 0.8"/>
    <path d="M 498.603371 393.873499 
C 500.129154 393.873499 501.592649 393.267299 502.67154 392.188408 
C 503.750431 391.109517 504.356631 389.646021 504.356631 388.120239 
C 504.356631 386.594456 503.750431 385.130961 502.67154 384.05207 
C 501.592649 382.973179 500.129154 382.366979 498.603371 382.366979 
C 497.077589 382.366979 495.614093 382.973179 494.535202 384.05207 
C 493.456311 385.130961 492.850111 386.594456 492.850111 388.120239 
C 492.850111 389.646021 493.456311 391.109517 494.535202 392.188408 
C 495.614093 393.267299 497.077589 393.873499 498.603371 393.873499 
z
" clip-path="url(#p098d475fbd)" style="fill: #4c72b0; fill-opacity: 0.8; stroke: #4c72b0; stroke-opacity: 0.8"/>
    <path d="M 515.999784 287.117818 
C 517.525567 287.117818 518.989062 286.511618 520.067953 285.432727 
C 521.146844 284.353836 521.753044 282.89034 521.753044 281.364558 
C 521.753044 279.838776 521.146844 278.37528 520.067953 277.296389 
C 518.989062 276.217498 517.525567 275.611298 515.999784 275.611298 
C 514.474002 275.611298 513.010506 276.217498 511.931615 277.296389 
C 510.852724 278.37528 510.246524 279.838776 510.246524 281.364558 
C 510.246524 282.89034 510.852724 284.353836 511.931615 285.432727 
C 513.010506 286.511618 514.474002 287.117818 515.999784 287.117818 
z
" clip-path="url(#p098d475fbd)" style="fill: #4c72b0; fill-opacity: 0.8; stroke: #4c72b0; stroke-opacity: 0.8"/>
    <path d="M 497.642874 399.779317 
C 499.117079 399.779317 500.531102 399.193609 501.573523 398.151189 
C 502.615943 397.108768 503.201651 395.694745 503.201651 394.22054 
C 503.201651 392.746335 502.615943 391.332311 501.573523 390.289891 
C 500.531102 389.247471 499.117079 388.661763 497.642874 388.661763 
C 496.168669 388.661763 494.754645 389.247471 493.712225 390.289891 
C 492.669805 391.332311 492.084097 392.746335 492.084097 394.22054 
C 492.084097 395.694745 492.669805 397.108768 493.712225 398.151189 
C 494.754645 399.193609 496.168669 399.779317 497.642874 399.779317 
z
" clip-path="url(#p098d475fbd)" style="fill: #4c72b0; fill-opacity: 0.8; stroke: #4c72b0; stroke-opacity: 0.8"/>
    <path d="M 509.401456 357.765642 
C 510.875661 357.765642 512.289684 357.179934 513.332105 356.137513 
C 514.374525 355.095093 514.960233 353.68107 514.960233 352.206865 
C 514.960233 350.73266 514.374525 349.318636 513.332105 348.276216 
C 512.289684 347.233796 510.875661 346.648088 509.401456 346.648088 
C 507.927251 346.648088 506.513227 347.233796 505.470807 348.276216 
C 504.428387 349.318636 503.842679 350.73266 503.842679 352.206865 
C 503.842679 353.68107 504.428387 355.095093 505.470807 356.137513 
C 506.513227 357.179934 507.927251 357.765642 509.401456 357.765642 
z
" clip-path="url(#p098d475fbd)" style="fill: #4c72b0; fill-opacity: 0.8; stroke: #4c72b0; stroke-opacity: 0.8"/>
    <path d="M 502.276951 207.533277 
C 503.719811 207.533277 505.103771 206.960022 506.124027 205.939766 
C 507.144284 204.919509 507.717539 203.53555 507.717539 202.092689 
C 507.717539 200.649828 507.144284 199.265869 506.124027 198.245612 
C 505.103771 197.225355 503.719811 196.652101 502.276951 196.652101 
C 500.83409 196.652101 499.450131 197.225355 498.429874 198.245612 
C 497.409617 199.265869 496.836362 200.649828 496.836362 202.092689 
C 496.836362 203.53555 497.409617 204.919509 498.429874 205.939766 
C 499.450131 206.960022 500.83409 207.533277 502.276951 207.533277 
z
" clip-path="url(#p098d475fbd)" style="fill: #4c72b0; fill-opacity: 0.8; stroke: #4c72b0; stroke-opacity: 0.8"/>
    <path d="M 516.739886 174.170998 
C 518.182747 174.170998 519.566706 173.597743 520.586963 172.577487 
C 521.60722 171.55723 522.180475 170.173271 522.180475 168.73041 
C 522.180475 167.287549 521.60722 165.90359 520.586963 164.883333 
C 519.566706 163.863076 518.182747 163.289822 516.739886 163.289822 
C 515.297026 163.289822 513.913066 163.863076 512.89281 164.883333 
C 511.872553 165.90359 511.299298 167.287549 511.299298 168.73041 
C 511.299298 170.173271 511.872553 171.55723 512.89281 172.577487 
C 513.913066 173.597743 515.297026 174.170998 516.739886 174.170998 
z
" clip-path="url(#p098d475fbd)" style="fill: #4c72b0; fill-opacity: 0.8; stroke: #4c72b0; stroke-opacity: 0.8"/>
    <path d="M 497.913889 398.735326 
C 499.177436 398.735326 500.389402 398.233313 501.282865 397.33985 
C 502.176328 396.446387 502.67834 395.234421 502.67834 393.970874 
C 502.67834 392.707327 502.176328 391.495361 501.282865 390.601898 
C 500.389402 389.708435 499.177436 389.206422 497.913889 389.206422 
C 496.650341 389.206422 495.438375 389.708435 494.544912 390.601898 
C 493.651449 391.495361 493.149437 392.707327 493.149437 393.970874 
C 493.149437 395.234421 493.651449 396.446387 494.544912 397.33985 
C 495.438375 398.233313 496.650341 398.735326 497.913889 398.735326 
z
" clip-path="url(#p098d475fbd)" style="fill: #4c72b0; fill-opacity: 0.8; stroke: #4c72b0; stroke-opacity: 0.8"/>
    <path d="M 483.014887 362.69417 
C 484.278434 362.69417 485.4904 362.192157 486.383863 361.298694 
C 487.277326 360.405231 487.779338 359.193265 487.779338 357.929718 
C 487.779338 356.666171 487.277326 355.454205 486.383863 354.560742 
C 485.4904 353.667279 484.278434 353.165266 483.014887 353.165266 
C 481.751339 353.165266 480.539373 353.667279 479.645911 354.560742 
C 478.752448 355.454205 478.250435 356.666171 478.250435 357.929718 
C 478.250435 359.193265 478.752448 360.405231 479.645911 361.298694 
C 480.539373 362.192157 481.751339 362.69417 483.014887 362.69417 
z
" clip-path="url(#p098d475fbd)" style="fill: #4c72b0; fill-opacity: 0.8; stroke: #4c72b0; stroke-opacity: 0.8"/>
   </g>
   <g id="PathCollection_2">
    <path d="M 497.70495 395.789292 
C 499.300582 395.789292 500.831077 395.155341 501.959359 394.027058 
C 503.087642 392.898776 503.721593 391.368281 503.721593 389.772649 
C 503.721593 388.177016 503.087642 386.646522 501.959359 385.518239 
C 500.831077 384.389957 499.300582 383.756005 497.70495 383.756005 
C 496.109317 383.756005 494.578823 384.389957 493.45054 385.518239 
C 492.322258 386.646522 491.688306 388.177016 491.688306 389.772649 
C 491.688306 391.368281 492.322258 392.898776 493.45054 394.027058 
C 494.578823 395.155341 496.109317 395.789292 497.70495 395.789292 
z
" clip-path="url(#p098d475fbd)" style="fill: #dd8452; fill-opacity: 0.8; stroke: #dd8452; stroke-opacity: 0.8"/>
    <path d="M 499.357569 366.46179 
C 500.953201 366.46179 502.483696 365.827838 503.611978 364.699556 
C 504.740261 363.571273 505.374212 362.040779 505.374212 360.445146 
C 505.374212 358.849514 504.740261 357.319019 503.611978 356.190737 
C 502.483696 355.062454 500.953201 354.428503 499.357569 354.428503 
C 497.761936 354.428503 496.231442 355.062454 495.103159 356.190737 
C 493.974877 357.319019 493.340925 358.849514 493.340925 360.445146 
C 493.340925 362.040779 493.974877 363.571273 495.103159 364.699556 
C 496.231442 365.827838 497.761936 366.46179 499.357569 366.46179 
z
" clip-path="url(#p098d475fbd)" style="fill: #dd8452; fill-opacity: 0.8; stroke: #dd8452; stroke-opacity: 0.8"/>
    <path d="M 499.355307 384.268999 
C 500.95094 384.268999 502.481434 383.635047 503.609717 382.506765 
C 504.737999 381.378482 505.371951 379.847988 505.371951 378.252355 
C 505.371951 376.656723 504.737999 375.126228 503.609717 373.997946 
C 502.481434 372.869663 500.95094 372.235712 499.355307 372.235712 
C 497.759675 372.235712 496.22918 372.869663 495.100898 373.997946 
C 493.972615 375.126228 493.338664 376.656723 493.338664 378.252355 
C 493.338664 379.847988 493.972615 381.378482 495.100898 382.506765 
C 496.22918 383.635047 497.759675 384.268999 499.355307 384.268999 
z
" clip-path="url(#p098d475fbd)" style="fill: #dd8452; fill-opacity: 0.8; stroke: #dd8452; stroke-opacity: 0.8"/>
   </g>
   <g id="PathCollection_3">
    <path d="M 493.824468 387.877068 
C 495.420101 387.877068 496.950595 387.243116 498.078878 386.114834 
C 499.20716 384.986551 499.841112 383.456057 499.841112 381.860424 
C 499.841112 380.264792 499.20716 378.734297 498.078878 377.606015 
C 496.950595 376.477732 495.420101 375.843781 493.824468 375.843781 
C 492.228836 375.843781 490.698341 376.477732 489.570059 377.606015 
C 488.441776 378.734297 487.807825 380.264792 487.807825 381.860424 
C 487.807825 383.456057 488.441776 384.986551 489.570059 386.114834 
C 490.698341 387.243116 492.228836 387.877068 493.824468 387.877068 
z
" clip-path="url(#p098d475fbd)" style="fill: #55a868; fill-opacity: 0.8; stroke: #55a868; stroke-opacity: 0.8"/>
    <path d="M 493.646679 349.444173 
C 495.242312 349.444173 496.772806 348.810222 497.901089 347.681939 
C 499.029371 346.553657 499.663323 345.023162 499.663323 343.42753 
C 499.663323 341.831897 499.029371 340.301403 497.901089 339.17312 
C 496.772806 338.044838 495.242312 337.410886 493.646679 337.410886 
C 492.051047 337.410886 490.520552 338.044838 489.39227 339.17312 
C 488.263987 340.301403 487.630036 341.831897 487.630036 343.42753 
C 487.630036 345.023162 488.263987 346.553657 489.39227 347.681939 
C 490.520552 348.810222 492.051047 349.444173 493.646679 349.444173 
z
" clip-path="url(#p098d475fbd)" style="fill: #55a868; fill-opacity: 0.8; stroke: #55a868; stroke-opacity: 0.8"/>
    <path d="M 479.147648 272.24911 
C 480.74328 272.24911 482.273774 271.615158 483.402057 270.486876 
C 484.53034 269.358593 485.164291 267.828099 485.164291 266.232466 
C 485.164291 264.636834 484.53034 263.106339 483.402057 261.978057 
C 482.273774 260.849774 480.74328 260.215822 479.147648 260.215822 
C 477.552015 260.215822 476.021521 260.849774 474.893238 261.978057 
C 473.764955 263.106339 473.131004 264.636834 473.131004 266.232466 
C 473.131004 267.828099 473.764955 269.358593 474.893238 270.486876 
C 476.021521 271.615158 477.552015 272.24911 479.147648 272.24911 
z
" clip-path="url(#p098d475fbd)" style="fill: #55a868; fill-opacity: 0.8; stroke: #55a868; stroke-opacity: 0.8"/>
    <path d="M 493.096877 355.778486 
C 494.622659 355.778486 496.086155 355.172286 497.165046 354.093395 
C 498.243937 353.014504 498.850137 351.551008 498.850137 350.025226 
C 498.850137 348.499443 498.243937 347.035948 497.165046 345.957057 
C 496.086155 344.878166 494.622659 344.271966 493.096877 344.271966 
C 491.571094 344.271966 490.107599 344.878166 489.028707 345.957057 
C 487.949816 347.035948 487.343617 348.499443 487.343617 350.025226 
C 487.343617 351.551008 487.949816 353.014504 489.028707 354.093395 
C 490.107599 355.172286 491.571094 355.778486 493.096877 355.778486 
z
" clip-path="url(#p098d475fbd)" style="fill: #55a868; fill-opacity: 0.8; stroke: #55a868; stroke-opacity: 0.8"/>
    <path d="M 474.146305 240.998413 
C 475.672088 240.998413 477.135584 240.392213 478.214475 239.313322 
C 479.293366 238.234431 479.899565 236.770935 479.899565 235.245153 
C 479.899565 233.719371 479.293366 232.255875 478.214475 231.176984 
C 477.135584 230.098093 475.672088 229.491893 474.146305 229.491893 
C 472.620523 229.491893 471.157027 230.098093 470.078136 231.176984 
C 468.999245 232.255875 468.393046 233.719371 468.393046 235.245153 
C 468.393046 236.770935 468.999245 238.234431 470.078136 239.313322 
C 471.157027 240.392213 472.620523 240.998413 474.146305 240.998413 
z
" clip-path="url(#p098d475fbd)" style="fill: #55a868; fill-opacity: 0.8; stroke: #55a868; stroke-opacity: 0.8"/>
    <path d="M 494.17608 365.237244 
C 495.650285 365.237244 497.064309 364.651536 498.106729 363.609116 
C 499.149149 362.566696 499.734857 361.152672 499.734857 359.678467 
C 499.734857 358.204262 499.149149 356.790239 498.106729 355.747818 
C 497.064309 354.705398 495.650285 354.11969 494.17608 354.11969 
C 492.701875 354.11969 491.287852 354.705398 490.245431 355.747818 
C 489.203011 356.790239 488.617303 358.204262 488.617303 359.678467 
C 488.617303 361.152672 489.203011 362.566696 490.245431 363.609116 
C 491.287852 364.651536 492.701875 365.237244 494.17608 365.237244 
z
" clip-path="url(#p098d475fbd)" style="fill: #55a868; fill-opacity: 0.8; stroke: #55a868; stroke-opacity: 0.8"/>
    <path d="M 482.677224 343.599191 
C 484.151429 343.599191 485.565452 343.013484 486.607873 341.971063 
C 487.650293 340.928643 488.236001 339.514619 488.236001 338.040414 
C 488.236001 336.56621 487.650293 335.152186 486.607873 334.109766 
C 485.565452 333.067345 484.151429 332.481638 482.677224 332.481638 
C 481.203019 332.481638 479.788995 333.067345 478.746575 334.109766 
C 477.704155 335.152186 477.118447 336.56621 477.118447 338.040414 
C 477.118447 339.514619 477.704155 340.928643 478.746575 341.971063 
C 479.788995 343.013484 481.203019 343.599191 482.677224 343.599191 
z
" clip-path="url(#p098d475fbd)" style="fill: #55a868; fill-opacity: 0.8; stroke: #55a868; stroke-opacity: 0.8"/>
    <path d="M 490.756406 46.915673 
C 492.199267 46.915673 493.583226 46.342419 494.603483 45.322162 
C 495.623739 44.301905 496.196994 42.917946 496.196994 41.475085 
C 496.196994 40.032224 495.623739 38.648265 494.603483 37.628008 
C 493.583226 36.607752 492.199267 36.034497 490.756406 36.034497 
C 489.313545 36.034497 487.929586 36.607752 486.909329 37.628008 
C 485.889072 38.648265 485.315818 40.032224 485.315818 41.475085 
C 485.315818 42.917946 485.889072 44.301905 486.909329 45.322162 
C 487.929586 46.342419 489.313545 46.915673 490.756406 46.915673 
z
" clip-path="url(#p098d475fbd)" style="fill: #55a868; fill-opacity: 0.8; stroke: #55a868; stroke-opacity: 0.8"/>
    <path d="M 473.755887 169.091647 
C 475.198748 169.091647 476.582707 168.518392 477.602964 167.498136 
C 478.623221 166.477879 479.196475 165.09392 479.196475 163.651059 
C 479.196475 162.208198 478.623221 160.824239 477.602964 159.803982 
C 476.582707 158.783725 475.198748 158.210471 473.755887 158.210471 
C 472.313026 158.210471 470.929067 158.783725 469.90881 159.803982 
C 468.888554 160.824239 468.315299 162.208198 468.315299 163.651059 
C 468.315299 165.09392 468.888554 166.477879 469.90881 167.498136 
C 470.929067 168.518392 472.313026 169.091647 473.755887 169.091647 
z
" clip-path="url(#p098d475fbd)" style="fill: #55a868; fill-opacity: 0.8; stroke: #55a868; stroke-opacity: 0.8"/>
    <path d="M 496.613721 398.350665 
C 497.877268 398.350665 499.089234 397.848653 499.982697 396.95519 
C 500.87616 396.061727 501.378173 394.849761 501.378173 393.586213 
C 501.378173 392.322666 500.87616 391.1107 499.982697 390.217237 
C 499.089234 389.323774 497.877268 388.821762 496.613721 388.821762 
C 495.350174 388.821762 494.138208 389.323774 493.244745 390.217237 
C 492.351282 391.1107 491.849269 392.322666 491.849269 393.586213 
C 491.849269 394.849761 492.351282 396.061727 493.244745 396.95519 
C 494.138208 397.848653 495.350174 398.350665 496.613721 398.350665 
z
" clip-path="url(#p098d475fbd)" style="fill: #55a868; fill-opacity: 0.8; stroke: #55a868; stroke-opacity: 0.8"/>
    <path d="M 507.676669 368.598717 
C 508.940216 368.598717 510.152182 368.096705 511.045645 367.203242 
C 511.939108 366.309779 512.441121 365.097813 512.441121 363.834266 
C 512.441121 362.570718 511.939108 361.358753 511.045645 360.46529 
C 510.152182 359.571827 508.940216 359.069814 507.676669 359.069814 
C 506.413122 359.069814 505.201156 359.571827 504.307693 360.46529 
C 503.41423 361.358753 502.912217 362.570718 502.912217 363.834266 
C 502.912217 365.097813 503.41423 366.309779 504.307693 367.203242 
C 505.201156 368.096705 506.413122 368.598717 507.676669 368.598717 
z
" clip-path="url(#p098d475fbd)" style="fill: #55a868; fill-opacity: 0.8; stroke: #55a868; stroke-opacity: 0.8"/>
   </g>
   <g id="PathCollection_4">
    <path d="M 475.492401 390.251322 
C 477.088033 390.251322 478.618528 389.61737 479.74681 388.489088 
C 480.875093 387.360805 481.509044 385.830311 481.509044 384.234678 
C 481.509044 382.639046 480.875093 381.108551 479.74681 379.980269 
C 478.618528 378.851986 477.088033 378.218035 475.492401 378.218035 
C 473.896768 378.218035 472.366274 378.851986 471.237991 379.980269 
C 470.109709 381.108551 469.475757 382.639046 469.475757 384.234678 
C 469.475757 385.830311 470.109709 387.360805 471.237991 388.489088 
C 472.366274 389.61737 473.896768 390.251322 475.492401 390.251322 
z
" clip-path="url(#p098d475fbd)" style="fill: #c44e52; fill-opacity: 0.8; stroke: #c44e52; stroke-opacity: 0.8"/>
    <path d="M 472.802733 386.235795 
C 474.398366 386.235795 475.92886 385.601844 477.057143 384.473561 
C 478.185426 383.345279 478.819377 381.814784 478.819377 380.219152 
C 478.819377 378.623519 478.185426 377.093025 477.057143 375.964742 
C 475.92886 374.83646 474.398366 374.202508 472.802733 374.202508 
C 471.207101 374.202508 469.676607 374.83646 468.548324 375.964742 
C 467.420041 377.093025 466.78609 378.623519 466.78609 380.219152 
C 466.78609 381.814784 467.420041 383.345279 468.548324 384.473561 
C 469.676607 385.601844 471.207101 386.235795 472.802733 386.235795 
z
" clip-path="url(#p098d475fbd)" style="fill: #c44e52; fill-opacity: 0.8; stroke: #c44e52; stroke-opacity: 0.8"/>
    <path d="M 300.744593 357.34945 
C 302.340225 357.34945 303.87072 356.715498 304.999002 355.587216 
C 306.127285 354.458933 306.761236 352.928439 306.761236 351.332806 
C 306.761236 349.737174 306.127285 348.206679 304.999002 347.078397 
C 303.87072 345.950114 302.340225 345.316163 300.744593 345.316163 
C 299.14896 345.316163 297.618466 345.950114 296.490183 347.078397 
C 295.361901 348.206679 294.727949 349.737174 294.727949 351.332806 
C 294.727949 352.928439 295.361901 354.458933 296.490183 355.587216 
C 297.618466 356.715498 299.14896 357.34945 300.744593 357.34945 
z
" clip-path="url(#p098d475fbd)" style="fill: #c44e52; fill-opacity: 0.8; stroke: #c44e52; stroke-opacity: 0.8"/>
    <path d="M 465.936844 382.861936 
C 467.462627 382.861936 468.926122 382.255736 470.005013 381.176845 
C 471.083904 380.097954 471.690104 378.634459 471.690104 377.108676 
C 471.690104 375.582894 471.083904 374.119398 470.005013 373.040507 
C 468.926122 371.961616 467.462627 371.355416 465.936844 371.355416 
C 464.411062 371.355416 462.947566 371.961616 461.868675 373.040507 
C 460.789784 374.119398 460.183584 375.582894 460.183584 377.108676 
C 460.183584 378.634459 460.789784 380.097954 461.868675 381.176845 
C 462.947566 382.255736 464.411062 382.861936 465.936844 382.861936 
z
" clip-path="url(#p098d475fbd)" style="fill: #c44e52; fill-opacity: 0.8; stroke: #c44e52; stroke-opacity: 0.8"/>
    <path d="M 248.552958 332.218129 
C 250.078741 332.218129 251.542236 331.61193 252.621127 330.533039 
C 253.700018 329.454148 254.306218 327.990652 254.306218 326.46487 
C 254.306218 324.939087 253.700018 323.475591 252.621127 322.3967 
C 251.542236 321.317809 250.078741 320.71161 248.552958 320.71161 
C 247.027176 320.71161 245.56368 321.317809 244.484789 322.3967 
C 243.405898 323.475591 242.799698 324.939087 242.799698 326.46487 
C 242.799698 327.990652 243.405898 329.454148 244.484789 330.533039 
C 245.56368 331.61193 247.027176 332.218129 248.552958 332.218129 
z
" clip-path="url(#p098d475fbd)" style="fill: #c44e52; fill-opacity: 0.8; stroke: #c44e52; stroke-opacity: 0.8"/>
    <path d="M 461.880398 381.398267 
C 463.354603 381.398267 464.768627 380.812559 465.811047 379.770139 
C 466.853467 378.727718 467.439175 377.313695 467.439175 375.83949 
C 467.439175 374.365285 466.853467 372.951261 465.811047 371.908841 
C 464.768627 370.866421 463.354603 370.280713 461.880398 370.280713 
C 460.406193 370.280713 458.99217 370.866421 457.949749 371.908841 
C 456.907329 372.951261 456.321621 374.365285 456.321621 375.83949 
C 456.321621 377.313695 456.907329 378.727718 457.949749 379.770139 
C 458.99217 380.812559 460.406193 381.398267 461.880398 381.398267 
z
" clip-path="url(#p098d475fbd)" style="fill: #c44e52; fill-opacity: 0.8; stroke: #c44e52; stroke-opacity: 0.8"/>
    <path d="M 225.878384 328.650709 
C 227.352589 328.650709 228.766612 328.065001 229.809033 327.022581 
C 230.851453 325.980161 231.437161 324.566137 231.437161 323.091932 
C 231.437161 321.617727 230.851453 320.203704 229.809033 319.161283 
C 228.766612 318.118863 227.352589 317.533155 225.878384 317.533155 
C 224.404179 317.533155 222.990155 318.118863 221.947735 319.161283 
C 220.905315 320.203704 220.319607 321.617727 220.319607 323.091932 
C 220.319607 324.566137 220.905315 325.980161 221.947735 327.022581 
C 222.990155 328.065001 224.404179 328.650709 225.878384 328.650709 
z
" clip-path="url(#p098d475fbd)" style="fill: #c44e52; fill-opacity: 0.8; stroke: #c44e52; stroke-opacity: 0.8"/>
    <path d="M 408.551975 143.722954 
C 409.994836 143.722954 411.378795 143.149699 412.399052 142.129442 
C 413.419309 141.109186 413.992564 139.725227 413.992564 138.282366 
C 413.992564 136.839505 413.419309 135.455546 412.399052 134.435289 
C 411.378795 133.415032 409.994836 132.841777 408.551975 132.841777 
C 407.109114 132.841777 405.725155 133.415032 404.704899 134.435289 
C 403.684642 135.455546 403.111387 136.839505 403.111387 138.282366 
C 403.111387 139.725227 403.684642 141.109186 404.704899 142.129442 
C 405.725155 143.149699 407.109114 143.722954 408.551975 143.722954 
z
" clip-path="url(#p098d475fbd)" style="fill: #c44e52; fill-opacity: 0.8; stroke: #c44e52; stroke-opacity: 0.8"/>
    <path d="M 188.619652 196.656734 
C 190.062513 196.656734 191.446472 196.083479 192.466728 195.063222 
C 193.486985 194.042966 194.06024 192.659007 194.06024 191.216146 
C 194.06024 189.773285 193.486985 188.389326 192.466728 187.369069 
C 191.446472 186.348812 190.062513 185.775557 188.619652 185.775557 
C 187.176791 185.775557 185.792832 186.348812 184.772575 187.369069 
C 183.752318 188.389326 183.179063 189.773285 183.179063 191.216146 
C 183.179063 192.659007 183.752318 194.042966 184.772575 195.063222 
C 185.792832 196.083479 187.176791 196.656734 188.619652 196.656734 
z
" clip-path="url(#p098d475fbd)" style="fill: #c44e52; fill-opacity: 0.8; stroke: #c44e52; stroke-opacity: 0.8"/>
    <path d="M 436.154619 375.638131 
C 437.418167 375.638131 438.630133 375.136118 439.523596 374.242655 
C 440.417058 373.349192 440.919071 372.137227 440.919071 370.873679 
C 440.919071 369.610132 440.417058 368.398166 439.523596 367.504703 
C 438.630133 366.61124 437.418167 366.109227 436.154619 366.109227 
C 434.891072 366.109227 433.679106 366.61124 432.785643 367.504703 
C 431.89218 368.398166 431.390168 369.610132 431.390168 370.873679 
C 431.390168 372.137227 431.89218 373.349192 432.785643 374.242655 
C 433.679106 375.136118 434.891072 375.638131 436.154619 375.638131 
z
" clip-path="url(#p098d475fbd)" style="fill: #c44e52; fill-opacity: 0.8; stroke: #c44e52; stroke-opacity: 0.8"/>
    <path d="M 68.712614 333.552958 
C 69.976161 333.552958 71.188127 333.050945 72.08159 332.157482 
C 72.975053 331.26402 73.477065 330.052054 73.477065 328.788506 
C 73.477065 327.524959 72.975053 326.312993 72.08159 325.41953 
C 71.188127 324.526067 69.976161 324.024055 68.712614 324.024055 
C 67.449066 324.024055 66.2371 324.526067 65.343638 325.41953 
C 64.450175 326.312993 63.948162 327.524959 63.948162 328.788506 
C 63.948162 330.052054 64.450175 331.26402 65.343638 332.157482 
C 66.2371 333.050945 67.449066 333.552958 68.712614 333.552958 
z
" clip-path="url(#p098d475fbd)" style="fill: #c44e52; fill-opacity: 0.8; stroke: #c44e52; stroke-opacity: 0.8"/>
   </g>
   <g id="PathCollection_5">
    <path d="M 494.45788 398.815289 
C 496.053513 398.815289 497.584007 398.181338 498.71229 397.053055 
C 499.840572 395.924772 500.474524 394.394278 500.474524 392.798645 
C 500.474524 391.203013 499.840572 389.672519 498.71229 388.544236 
C 497.584007 387.415953 496.053513 386.782002 494.45788 386.782002 
C 492.862248 386.782002 491.331753 387.415953 490.203471 388.544236 
C 489.075188 389.672519 488.441237 391.203013 488.441237 392.798645 
C 488.441237 394.394278 489.075188 395.924772 490.203471 397.053055 
C 491.331753 398.181338 492.862248 398.815289 494.45788 398.815289 
z
" clip-path="url(#p098d475fbd)" style="fill: #8172b3; fill-opacity: 0.8; stroke: #8172b3; stroke-opacity: 0.8"/>
    <path d="M 485.86557 383.21356 
C 487.461202 383.21356 488.991696 382.579609 490.119979 381.451326 
C 491.248262 380.323044 491.882213 378.792549 491.882213 377.196917 
C 491.882213 375.601284 491.248262 374.07079 490.119979 372.942507 
C 488.991696 371.814225 487.461202 371.180273 485.86557 371.180273 
C 484.269937 371.180273 482.739443 371.814225 481.61116 372.942507 
C 480.482877 374.07079 479.848926 375.601284 479.848926 377.196917 
C 479.848926 378.792549 480.482877 380.323044 481.61116 381.451326 
C 482.739443 382.579609 484.269937 383.21356 485.86557 383.21356 
z
" clip-path="url(#p098d475fbd)" style="fill: #8172b3; fill-opacity: 0.8; stroke: #8172b3; stroke-opacity: 0.8"/>
    <path d="M 450.204049 379.300976 
C 451.799682 379.300976 453.330176 378.667024 454.458459 377.538742 
C 455.586741 376.410459 456.220693 374.879965 456.220693 373.284332 
C 456.220693 371.6887 455.586741 370.158205 454.458459 369.029923 
C 453.330176 367.90164 451.799682 367.267688 450.204049 367.267688 
C 448.608417 367.267688 447.077922 367.90164 445.94964 369.029923 
C 444.821357 370.158205 444.187406 371.6887 444.187406 373.284332 
C 444.187406 374.879965 444.821357 376.410459 445.94964 377.538742 
C 447.077922 378.667024 448.608417 379.300976 450.204049 379.300976 
z
" clip-path="url(#p098d475fbd)" style="fill: #8172b3; fill-opacity: 0.8; stroke: #8172b3; stroke-opacity: 0.8"/>
   </g>
   <g id="line2d_1">
    <path d="M 497.279305 411.857813 
L 497.279305 23.837812 
" clip-path="url(#p098d475fbd)" style="fill: none; stroke: #808080; stroke-linecap: round"/>
   </g>
   <g id="line2d_2">
    <path d="M 46.31125 364.739451 
L 539.14125 364.739451 
" clip-path="url(#p098d475fbd)" style="fill: none; stroke-dasharray: 3.7,1.6; stroke-dashoffset: 0; stroke: #7f8790"/>
   </g>
   <g id="text_15">
    <!-- Procurement share|DID any -->
    <g style="fill: #262626" transform="translate(490.756406 40.537197) scale(0.07 -0.07)">
     <defs>
      <path id="DejaVuSans-50" d="M 1259 4147 
L 1259 2394 
L 2053 2394 
Q 2494 2394 2734 2622 
Q 2975 2850 2975 3272 
Q 2975 3691 2734 3919 
Q 2494 4147 2053 4147 
L 1259 4147 
z
M 628 4666 
L 2053 4666 
Q 2838 4666 3239 4311 
Q 3641 3956 3641 3272 
Q 3641 2581 3239 2228 
Q 2838 1875 2053 1875 
L 1259 1875 
L 1259 0 
L 628 0 
L 628 4666 
z
" transform="scale(0.015625)"/>
      <path id="DejaVuSans-72" d="M 2631 2963 
Q 2534 3019 2420 3045 
Q 2306 3072 2169 3072 
Q 1681 3072 1420 2755 
Q 1159 2438 1159 1844 
L 1159 0 
L 581 0 
L 581 3500 
L 1159 3500 
L 1159 2956 
Q 1341 3275 1631 3429 
Q 1922 3584 2338 3584 
Q 2397 3584 2469 3576 
Q 2541 3569 2628 3553 
L 2631 2963 
z
" transform="scale(0.015625)"/>
      <path id="DejaVuSans-68" d="M 3513 2113 
L 3513 0 
L 2938 0 
L 2938 2094 
Q 2938 2591 2744 2837 
Q 2550 3084 2163 3084 
Q 1697 3084 1428 2787 
Q 1159 2491 1159 1978 
L 1159 0 
L 581 0 
L 581 4863 
L 1159 4863 
L 1159 2956 
Q 1366 3272 1645 3428 
Q 1925 3584 2291 3584 
Q 2894 3584 3203 3211 
Q 3513 2838 3513 2113 
z
" transform="scale(0.015625)"/>
      <path id="DejaVuSans-7c" d="M 1344 4891 
L 1344 -1509 
L 813 -1509 
L 813 4891 
L 1344 4891 
z
" transform="scale(0.015625)"/>
      <path id="DejaVuSans-44" d="M 1259 4147 
L 1259 519 
L 2022 519 
Q 2988 519 3436 956 
Q 3884 1394 3884 2338 
Q 3884 3275 3436 3711 
Q 2988 4147 2022 4147 
L 1259 4147 
z
M 628 4666 
L 1925 4666 
Q 3281 4666 3915 4102 
Q 4550 3538 4550 2338 
Q 4550 1131 3912 565 
Q 3275 0 1925 0 
L 628 0 
L 628 4666 
z
" transform="scale(0.015625)"/>
      <path id="DejaVuSans-49" d="M 628 4666 
L 1259 4666 
L 1259 0 
L 628 0 
L 628 4666 
z
" transform="scale(0.015625)"/>
      <path id="DejaVuSans-79" d="M 2059 -325 
Q 1816 -950 1584 -1140 
Q 1353 -1331 966 -1331 
L 506 -1331 
L 506 -850 
L 844 -850 
Q 1081 -850 1212 -737 
Q 1344 -625 1503 -206 
L 1606 56 
L 191 3500 
L 800 3500 
L 1894 763 
L 2988 3500 
L 3597 3500 
L 2059 -325 
z
" transform="scale(0.015625)"/>
     </defs>
     <use xlink:href="#DejaVuSans-50"/>
     <use xlink:href="#DejaVuSans-72" transform="translate(58.552734 0)"/>
     <use xlink:href="#DejaVuSans-6f" transform="translate(97.416016 0)"/>
     <use xlink:href="#DejaVuSans-63" transform="translate(158.597656 0)"/>
     <use xlink:href="#DejaVuSans-75" transform="translate(213.578125 0)"/>
     <use xlink:href="#DejaVuSans-72" transform="translate(276.957031 0)"/>
     <use xlink:href="#DejaVuSans-65" transform="translate(315.820312 0)"/>
     <use xlink:href="#DejaVuSans-6d" transform="translate(377.34375 0)"/>
     <use xlink:href="#DejaVuSans-65" transform="translate(474.755859 0)"/>
     <use xlink:href="#DejaVuSans-6e" transform="translate(536.279297 0)"/>
     <use xlink:href="#DejaVuSans-74" transform="translate(599.658203 0)"/>
     <use xlink:href="#DejaVuSans-20" transform="translate(638.867188 0)"/>
     <use xlink:href="#DejaVuSans-73" transform="translate(670.654297 0)"/>
     <use xlink:href="#DejaVuSans-68" transform="translate(722.753906 0)"/>
     <use xlink:href="#DejaVuSans-61" transform="translate(786.132812 0)"/>
     <use xlink:href="#DejaVuSans-72" transform="translate(847.412109 0)"/>
     <use xlink:href="#DejaVuSans-65" transform="translate(886.275391 0)"/>
     <use xlink:href="#DejaVuSans-7c" transform="translate(947.798828 0)"/>
     <use xlink:href="#DejaVuSans-44" transform="translate(981.490234 0)"/>
     <use xlink:href="#DejaVuSans-49" transform="translate(1058.492188 0)"/>
     <use xlink:href="#DejaVuSans-44" transform="translate(1087.984375 0)"/>
     <use xlink:href="#DejaVuSans-20" transform="translate(1164.986328 0)"/>
     <use xlink:href="#DejaVuSans-61" transform="translate(1196.773438 0)"/>
     <use xlink:href="#DejaVuSans-6e" transform="translate(1258.052734 0)"/>
     <use xlink:href="#DejaVuSans-79" transform="translate(1321.431641 0)"/>
    </g>
   </g>
   <g id="text_16">
    <!-- Quality PCA|DID any -->
    <g style="fill: #262626" transform="translate(408.551975 137.344478) scale(0.07 -0.07)">
     <defs>
      <path id="DejaVuSans-51" d="M 2522 4238 
Q 1834 4238 1429 3725 
Q 1025 3213 1025 2328 
Q 1025 1447 1429 934 
Q 1834 422 2522 422 
Q 3209 422 3611 934 
Q 4013 1447 4013 2328 
Q 4013 3213 3611 3725 
Q 3209 4238 2522 4238 
z
M 3406 84 
L 4238 -825 
L 3475 -825 
L 2784 -78 
Q 2681 -84 2626 -87 
Q 2572 -91 2522 -91 
Q 1538 -91 948 567 
Q 359 1225 359 2328 
Q 359 3434 948 4092 
Q 1538 4750 2522 4750 
Q 3503 4750 4090 4092 
Q 4678 3434 4678 2328 
Q 4678 1516 4351 937 
Q 4025 359 3406 84 
z
" transform="scale(0.015625)"/>
      <path id="DejaVuSans-43" d="M 4122 4306 
L 4122 3641 
Q 3803 3938 3442 4084 
Q 3081 4231 2675 4231 
Q 1875 4231 1450 3742 
Q 1025 3253 1025 2328 
Q 1025 1406 1450 917 
Q 1875 428 2675 428 
Q 3081 428 3442 575 
Q 3803 722 4122 1019 
L 4122 359 
Q 3791 134 3420 21 
Q 3050 -91 2638 -91 
Q 1578 -91 968 557 
Q 359 1206 359 2328 
Q 359 3453 968 4101 
Q 1578 4750 2638 4750 
Q 3056 4750 3426 4639 
Q 3797 4528 4122 4306 
z
" transform="scale(0.015625)"/>
      <path id="DejaVuSans-41" d="M 2188 4044 
L 1331 1722 
L 3047 1722 
L 2188 4044 
z
M 1831 4666 
L 2547 4666 
L 4325 0 
L 3669 0 
L 3244 1197 
L 1141 1197 
L 716 0 
L 50 0 
L 1831 4666 
z
" transform="scale(0.015625)"/>
     </defs>
     <use xlink:href="#DejaVuSans-51"/>
     <use xlink:href="#DejaVuSans-75" transform="translate(78.710938 0)"/>
     <use xlink:href="#DejaVuSans-61" transform="translate(142.089844 0)"/>
     <use xlink:href="#DejaVuSans-6c" transform="translate(203.369141 0)"/>
     <use xlink:href="#DejaVuSans-69" transform="translate(231.152344 0)"/>
     <use xlink:href="#DejaVuSans-74" transform="translate(258.935547 0)"/>
     <use xlink:href="#DejaVuSans-79" transform="translate(298.144531 0)"/>
     <use xlink:href="#DejaVuSans-20" transform="translate(357.324219 0)"/>
     <use xlink:href="#DejaVuSans-50" transform="translate(389.111328 0)"/>
     <use xlink:href="#DejaVuSans-43" transform="translate(449.414062 0)"/>
     <use xlink:href="#DejaVuSans-41" transform="translate(519.238281 0)"/>
     <use xlink:href="#DejaVuSans-7c" transform="translate(587.646484 0)"/>
     <use xlink:href="#DejaVuSans-44" transform="translate(621.337891 0)"/>
     <use xlink:href="#DejaVuSans-49" transform="translate(698.339844 0)"/>
     <use xlink:href="#DejaVuSans-44" transform="translate(727.832031 0)"/>
     <use xlink:href="#DejaVuSans-20" transform="translate(804.833984 0)"/>
     <use xlink:href="#DejaVuSans-61" transform="translate(836.621094 0)"/>
     <use xlink:href="#DejaVuSans-6e" transform="translate(897.900391 0)"/>
     <use xlink:href="#DejaVuSans-79" transform="translate(961.279297 0)"/>
    </g>
   </g>
   <g id="text_17">
    <!-- Procurement share|Treat share -->
    <g style="fill: #262626" transform="translate(473.755887 162.713171) scale(0.07 -0.07)">
     <defs>
      <path id="DejaVuSans-54" d="M -19 4666 
L 3928 4666 
L 3928 4134 
L 2272 4134 
L 2272 0 
L 1638 0 
L 1638 4134 
L -19 4134 
L -19 4666 
z
" transform="scale(0.015625)"/>
     </defs>
     <use xlink:href="#DejaVuSans-50"/>
     <use xlink:href="#DejaVuSans-72" transform="translate(58.552734 0)"/>
     <use xlink:href="#DejaVuSans-6f" transform="translate(97.416016 0)"/>
     <use xlink:href="#DejaVuSans-63" transform="translate(158.597656 0)"/>
     <use xlink:href="#DejaVuSans-75" transform="translate(213.578125 0)"/>
     <use xlink:href="#DejaVuSans-72" transform="translate(276.957031 0)"/>
     <use xlink:href="#DejaVuSans-65" transform="translate(315.820312 0)"/>
     <use xlink:href="#DejaVuSans-6d" transform="translate(377.34375 0)"/>
     <use xlink:href="#DejaVuSans-65" transform="translate(474.755859 0)"/>
     <use xlink:href="#DejaVuSans-6e" transform="translate(536.279297 0)"/>
     <use xlink:href="#DejaVuSans-74" transform="translate(599.658203 0)"/>
     <use xlink:href="#DejaVuSans-20" transform="translate(638.867188 0)"/>
     <use xlink:href="#DejaVuSans-73" transform="translate(670.654297 0)"/>
     <use xlink:href="#DejaVuSans-68" transform="translate(722.753906 0)"/>
     <use xlink:href="#DejaVuSans-61" transform="translate(786.132812 0)"/>
     <use xlink:href="#DejaVuSans-72" transform="translate(847.412109 0)"/>
     <use xlink:href="#DejaVuSans-65" transform="translate(886.275391 0)"/>
     <use xlink:href="#DejaVuSans-7c" transform="translate(947.798828 0)"/>
     <use xlink:href="#DejaVuSans-54" transform="translate(981.490234 0)"/>
     <use xlink:href="#DejaVuSans-72" transform="translate(1027.824219 0)"/>
     <use xlink:href="#DejaVuSans-65" transform="translate(1066.6875 0)"/>
     <use xlink:href="#DejaVuSans-61" transform="translate(1128.210938 0)"/>
     <use xlink:href="#DejaVuSans-74" transform="translate(1189.490234 0)"/>
     <use xlink:href="#DejaVuSans-20" transform="translate(1228.699219 0)"/>
     <use xlink:href="#DejaVuSans-73" transform="translate(1260.486328 0)"/>
     <use xlink:href="#DejaVuSans-68" transform="translate(1312.585938 0)"/>
     <use xlink:href="#DejaVuSans-61" transform="translate(1375.964844 0)"/>
     <use xlink:href="#DejaVuSans-72" transform="translate(1437.244141 0)"/>
     <use xlink:href="#DejaVuSans-65" transform="translate(1476.107422 0)"/>
    </g>
   </g>
   <g id="text_18">
    <!-- Execution share|Treat share -->
    <g style="fill: #262626" transform="translate(516.739886 167.792522) scale(0.07 -0.07)">
     <defs>
      <path id="DejaVuSans-78" d="M 3513 3500 
L 2247 1797 
L 3578 0 
L 2900 0 
L 1881 1375 
L 863 0 
L 184 0 
L 1544 1831 
L 300 3500 
L 978 3500 
L 1906 2253 
L 2834 3500 
L 3513 3500 
z
" transform="scale(0.015625)"/>
     </defs>
     <use xlink:href="#DejaVuSans-45"/>
     <use xlink:href="#DejaVuSans-78" transform="translate(63.183594 0)"/>
     <use xlink:href="#DejaVuSans-65" transform="translate(119.238281 0)"/>
     <use xlink:href="#DejaVuSans-63" transform="translate(180.761719 0)"/>
     <use xlink:href="#DejaVuSans-75" transform="translate(235.742188 0)"/>
     <use xlink:href="#DejaVuSans-74" transform="translate(299.121094 0)"/>
     <use xlink:href="#DejaVuSans-69" transform="translate(338.330078 0)"/>
     <use xlink:href="#DejaVuSans-6f" transform="translate(366.113281 0)"/>
     <use xlink:href="#DejaVuSans-6e" transform="translate(427.294922 0)"/>
     <use xlink:href="#DejaVuSans-20" transform="translate(490.673828 0)"/>
     <use xlink:href="#DejaVuSans-73" transform="translate(522.460938 0)"/>
     <use xlink:href="#DejaVuSans-68" transform="translate(574.560547 0)"/>
     <use xlink:href="#DejaVuSans-61" transform="translate(637.939453 0)"/>
     <use xlink:href="#DejaVuSans-72" transform="translate(699.21875 0)"/>
     <use xlink:href="#DejaVuSans-65" transform="translate(738.082031 0)"/>
     <use xlink:href="#DejaVuSans-7c" transform="translate(799.605469 0)"/>
     <use xlink:href="#DejaVuSans-54" transform="translate(833.296875 0)"/>
     <use xlink:href="#DejaVuSans-72" transform="translate(879.630859 0)"/>
     <use xlink:href="#DejaVuSans-65" transform="translate(918.494141 0)"/>
     <use xlink:href="#DejaVuSans-61" transform="translate(980.017578 0)"/>
     <use xlink:href="#DejaVuSans-74" transform="translate(1041.296875 0)"/>
     <use xlink:href="#DejaVuSans-20" transform="translate(1080.505859 0)"/>
     <use xlink:href="#DejaVuSans-73" transform="translate(1112.292969 0)"/>
     <use xlink:href="#DejaVuSans-68" transform="translate(1164.392578 0)"/>
     <use xlink:href="#DejaVuSans-61" transform="translate(1227.771484 0)"/>
     <use xlink:href="#DejaVuSans-72" transform="translate(1289.050781 0)"/>
     <use xlink:href="#DejaVuSans-65" transform="translate(1327.914062 0)"/>
    </g>
   </g>
   <g id="text_19">
    <!-- Quality PCA|Treat share -->
    <g style="fill: #262626" transform="translate(188.619652 190.278258) scale(0.07 -0.07)">
     <use xlink:href="#DejaVuSans-51"/>
     <use xlink:href="#DejaVuSans-75" transform="translate(78.710938 0)"/>
     <use xlink:href="#DejaVuSans-61" transform="translate(142.089844 0)"/>
     <use xlink:href="#DejaVuSans-6c" transform="translate(203.369141 0)"/>
     <use xlink:href="#DejaVuSans-69" transform="translate(231.152344 0)"/>
     <use xlink:href="#DejaVuSans-74" transform="translate(258.935547 0)"/>
     <use xlink:href="#DejaVuSans-79" transform="translate(298.144531 0)"/>
     <use xlink:href="#DejaVuSans-20" transform="translate(357.324219 0)"/>
     <use xlink:href="#DejaVuSans-50" transform="translate(389.111328 0)"/>
     <use xlink:href="#DejaVuSans-43" transform="translate(449.414062 0)"/>
     <use xlink:href="#DejaVuSans-41" transform="translate(519.238281 0)"/>
     <use xlink:href="#DejaVuSans-7c" transform="translate(587.646484 0)"/>
     <use xlink:href="#DejaVuSans-54" transform="translate(621.337891 0)"/>
     <use xlink:href="#DejaVuSans-72" transform="translate(667.671875 0)"/>
     <use xlink:href="#DejaVuSans-65" transform="translate(706.535156 0)"/>
     <use xlink:href="#DejaVuSans-61" transform="translate(768.058594 0)"/>
     <use xlink:href="#DejaVuSans-74" transform="translate(829.337891 0)"/>
     <use xlink:href="#DejaVuSans-20" transform="translate(868.546875 0)"/>
     <use xlink:href="#DejaVuSans-73" transform="translate(900.333984 0)"/>
     <use xlink:href="#DejaVuSans-68" transform="translate(952.433594 0)"/>
     <use xlink:href="#DejaVuSans-61" transform="translate(1015.8125 0)"/>
     <use xlink:href="#DejaVuSans-72" transform="translate(1077.091797 0)"/>
     <use xlink:href="#DejaVuSans-65" transform="translate(1115.955078 0)"/>
    </g>
   </g>
   <g id="text_20">
    <!-- Execution share|DID any -->
    <g style="fill: #262626" transform="translate(502.276951 201.154801) scale(0.07 -0.07)">
     <use xlink:href="#DejaVuSans-45"/>
     <use xlink:href="#DejaVuSans-78" transform="translate(63.183594 0)"/>
     <use xlink:href="#DejaVuSans-65" transform="translate(119.238281 0)"/>
     <use xlink:href="#DejaVuSans-63" transform="translate(180.761719 0)"/>
     <use xlink:href="#DejaVuSans-75" transform="translate(235.742188 0)"/>
     <use xlink:href="#DejaVuSans-74" transform="translate(299.121094 0)"/>
     <use xlink:href="#DejaVuSans-69" transform="translate(338.330078 0)"/>
     <use xlink:href="#DejaVuSans-6f" transform="translate(366.113281 0)"/>
     <use xlink:href="#DejaVuSans-6e" transform="translate(427.294922 0)"/>
     <use xlink:href="#DejaVuSans-20" transform="translate(490.673828 0)"/>
     <use xlink:href="#DejaVuSans-73" transform="translate(522.460938 0)"/>
     <use xlink:href="#DejaVuSans-68" transform="translate(574.560547 0)"/>
     <use xlink:href="#DejaVuSans-61" transform="translate(637.939453 0)"/>
     <use xlink:href="#DejaVuSans-72" transform="translate(699.21875 0)"/>
     <use xlink:href="#DejaVuSans-65" transform="translate(738.082031 0)"/>
     <use xlink:href="#DejaVuSans-7c" transform="translate(799.605469 0)"/>
     <use xlink:href="#DejaVuSans-44" transform="translate(833.296875 0)"/>
     <use xlink:href="#DejaVuSans-49" transform="translate(910.298828 0)"/>
     <use xlink:href="#DejaVuSans-44" transform="translate(939.791016 0)"/>
     <use xlink:href="#DejaVuSans-20" transform="translate(1016.792969 0)"/>
     <use xlink:href="#DejaVuSans-61" transform="translate(1048.580078 0)"/>
     <use xlink:href="#DejaVuSans-6e" transform="translate(1109.859375 0)"/>
     <use xlink:href="#DejaVuSans-79" transform="translate(1173.238281 0)"/>
    </g>
   </g>
   <g id="text_21">
    <!-- Procurement share|Treat share -->
    <g style="fill: #262626" transform="translate(474.146305 234.307265) scale(0.07 -0.07)">
     <use xlink:href="#DejaVuSans-50"/>
     <use xlink:href="#DejaVuSans-72" transform="translate(58.552734 0)"/>
     <use xlink:href="#DejaVuSans-6f" transform="translate(97.416016 0)"/>
     <use xlink:href="#DejaVuSans-63" transform="translate(158.597656 0)"/>
     <use xlink:href="#DejaVuSans-75" transform="translate(213.578125 0)"/>
     <use xlink:href="#DejaVuSans-72" transform="translate(276.957031 0)"/>
     <use xlink:href="#DejaVuSans-65" transform="translate(315.820312 0)"/>
     <use xlink:href="#DejaVuSans-6d" transform="translate(377.34375 0)"/>
     <use xlink:href="#DejaVuSans-65" transform="translate(474.755859 0)"/>
     <use xlink:href="#DejaVuSans-6e" transform="translate(536.279297 0)"/>
     <use xlink:href="#DejaVuSans-74" transform="translate(599.658203 0)"/>
     <use xlink:href="#DejaVuSans-20" transform="translate(638.867188 0)"/>
     <use xlink:href="#DejaVuSans-73" transform="translate(670.654297 0)"/>
     <use xlink:href="#DejaVuSans-68" transform="translate(722.753906 0)"/>
     <use xlink:href="#DejaVuSans-61" transform="translate(786.132812 0)"/>
     <use xlink:href="#DejaVuSans-72" transform="translate(847.412109 0)"/>
     <use xlink:href="#DejaVuSans-65" transform="translate(886.275391 0)"/>
     <use xlink:href="#DejaVuSans-7c" transform="translate(947.798828 0)"/>
     <use xlink:href="#DejaVuSans-54" transform="translate(981.490234 0)"/>
     <use xlink:href="#DejaVuSans-72" transform="translate(1027.824219 0)"/>
     <use xlink:href="#DejaVuSans-65" transform="translate(1066.6875 0)"/>
     <use xlink:href="#DejaVuSans-61" transform="translate(1128.210938 0)"/>
     <use xlink:href="#DejaVuSans-74" transform="translate(1189.490234 0)"/>
     <use xlink:href="#DejaVuSans-20" transform="translate(1228.699219 0)"/>
     <use xlink:href="#DejaVuSans-73" transform="translate(1260.486328 0)"/>
     <use xlink:href="#DejaVuSans-68" transform="translate(1312.585938 0)"/>
     <use xlink:href="#DejaVuSans-61" transform="translate(1375.964844 0)"/>
     <use xlink:href="#DejaVuSans-72" transform="translate(1437.244141 0)"/>
     <use xlink:href="#DejaVuSans-65" transform="translate(1476.107422 0)"/>
    </g>
   </g>
   <g id="text_22">
    <!-- Procurement share|Treat share -->
    <g style="fill: #262626" transform="translate(479.147648 265.294578) scale(0.07 -0.07)">
     <use xlink:href="#DejaVuSans-50"/>
     <use xlink:href="#DejaVuSans-72" transform="translate(58.552734 0)"/>
     <use xlink:href="#DejaVuSans-6f" transform="translate(97.416016 0)"/>
     <use xlink:href="#DejaVuSans-63" transform="translate(158.597656 0)"/>
     <use xlink:href="#DejaVuSans-75" transform="translate(213.578125 0)"/>
     <use xlink:href="#DejaVuSans-72" transform="translate(276.957031 0)"/>
     <use xlink:href="#DejaVuSans-65" transform="translate(315.820312 0)"/>
     <use xlink:href="#DejaVuSans-6d" transform="translate(377.34375 0)"/>
     <use xlink:href="#DejaVuSans-65" transform="translate(474.755859 0)"/>
     <use xlink:href="#DejaVuSans-6e" transform="translate(536.279297 0)"/>
     <use xlink:href="#DejaVuSans-74" transform="translate(599.658203 0)"/>
     <use xlink:href="#DejaVuSans-20" transform="translate(638.867188 0)"/>
     <use xlink:href="#DejaVuSans-73" transform="translate(670.654297 0)"/>
     <use xlink:href="#DejaVuSans-68" transform="translate(722.753906 0)"/>
     <use xlink:href="#DejaVuSans-61" transform="translate(786.132812 0)"/>
     <use xlink:href="#DejaVuSans-72" transform="translate(847.412109 0)"/>
     <use xlink:href="#DejaVuSans-65" transform="translate(886.275391 0)"/>
     <use xlink:href="#DejaVuSans-7c" transform="translate(947.798828 0)"/>
     <use xlink:href="#DejaVuSans-54" transform="translate(981.490234 0)"/>
     <use xlink:href="#DejaVuSans-72" transform="translate(1027.824219 0)"/>
     <use xlink:href="#DejaVuSans-65" transform="translate(1066.6875 0)"/>
     <use xlink:href="#DejaVuSans-61" transform="translate(1128.210938 0)"/>
     <use xlink:href="#DejaVuSans-74" transform="translate(1189.490234 0)"/>
     <use xlink:href="#DejaVuSans-20" transform="translate(1228.699219 0)"/>
     <use xlink:href="#DejaVuSans-73" transform="translate(1260.486328 0)"/>
     <use xlink:href="#DejaVuSans-68" transform="translate(1312.585938 0)"/>
     <use xlink:href="#DejaVuSans-61" transform="translate(1375.964844 0)"/>
     <use xlink:href="#DejaVuSans-72" transform="translate(1437.244141 0)"/>
     <use xlink:href="#DejaVuSans-65" transform="translate(1476.107422 0)"/>
    </g>
   </g>
   <g id="text_23">
    <!-- Figure 8-2. Effect-significance frontier across robustness checks -->
    <g style="fill: #262626" transform="translate(37.863906 17.837812) scale(0.14 -0.14)">
     <defs>
      <path id="DejaVuSans-Bold-46" d="M 588 4666 
L 3834 4666 
L 3834 3756 
L 1791 3756 
L 1791 2888 
L 3713 2888 
L 3713 1978 
L 1791 1978 
L 1791 0 
L 588 0 
L 588 4666 
z
" transform="scale(0.015625)"/>
      <path id="DejaVuSans-Bold-69" d="M 538 3500 
L 1656 3500 
L 1656 0 
L 538 0 
L 538 3500 
z
M 538 4863 
L 1656 4863 
L 1656 3950 
L 538 3950 
L 538 4863 
z
" transform="scale(0.015625)"/>
      <path id="DejaVuSans-Bold-67" d="M 2919 594 
Q 2688 288 2409 144 
Q 2131 0 1766 0 
Q 1125 0 706 504 
Q 288 1009 288 1791 
Q 288 2575 706 3076 
Q 1125 3578 1766 3578 
Q 2131 3578 2409 3434 
Q 2688 3291 2919 2981 
L 2919 3500 
L 4044 3500 
L 4044 353 
Q 4044 -491 3511 -936 
Q 2978 -1381 1966 -1381 
Q 1638 -1381 1331 -1331 
Q 1025 -1281 716 -1178 
L 716 -306 
Q 1009 -475 1290 -558 
Q 1572 -641 1856 -641 
Q 2406 -641 2662 -400 
Q 2919 -159 2919 353 
L 2919 594 
z
M 2181 2772 
Q 1834 2772 1640 2515 
Q 1447 2259 1447 1791 
Q 1447 1309 1634 1061 
Q 1822 813 2181 813 
Q 2531 813 2725 1069 
Q 2919 1325 2919 1791 
Q 2919 2259 2725 2515 
Q 2531 2772 2181 2772 
z
" transform="scale(0.015625)"/>
      <path id="DejaVuSans-Bold-75" d="M 500 1363 
L 500 3500 
L 1625 3500 
L 1625 3150 
Q 1625 2866 1622 2436 
Q 1619 2006 1619 1863 
Q 1619 1441 1641 1255 
Q 1663 1069 1716 984 
Q 1784 875 1895 815 
Q 2006 756 2150 756 
Q 2500 756 2700 1025 
Q 2900 1294 2900 1772 
L 2900 3500 
L 4019 3500 
L 4019 0 
L 2900 0 
L 2900 506 
Q 2647 200 2364 54 
Q 2081 -91 1741 -91 
Q 1134 -91 817 281 
Q 500 653 500 1363 
z
" transform="scale(0.015625)"/>
      <path id="DejaVuSans-Bold-72" d="M 3138 2547 
Q 2991 2616 2845 2648 
Q 2700 2681 2553 2681 
Q 2122 2681 1889 2404 
Q 1656 2128 1656 1613 
L 1656 0 
L 538 0 
L 538 3500 
L 1656 3500 
L 1656 2925 
Q 1872 3269 2151 3426 
Q 2431 3584 2822 3584 
Q 2878 3584 2943 3579 
Q 3009 3575 3134 3559 
L 3138 2547 
z
" transform="scale(0.015625)"/>
      <path id="DejaVuSans-Bold-65" d="M 4031 1759 
L 4031 1441 
L 1416 1441 
Q 1456 1047 1700 850 
Q 1944 653 2381 653 
Q 2734 653 3104 758 
Q 3475 863 3866 1075 
L 3866 213 
Q 3469 63 3072 -14 
Q 2675 -91 2278 -91 
Q 1328 -91 801 392 
Q 275 875 275 1747 
Q 275 2603 792 3093 
Q 1309 3584 2216 3584 
Q 3041 3584 3536 3087 
Q 4031 2591 4031 1759 
z
M 2881 2131 
Q 2881 2450 2695 2645 
Q 2509 2841 2209 2841 
Q 1884 2841 1681 2658 
Q 1478 2475 1428 2131 
L 2881 2131 
z
" transform="scale(0.015625)"/>
      <path id="DejaVuSans-Bold-20" transform="scale(0.015625)"/>
      <path id="DejaVuSans-Bold-38" d="M 2228 2088 
Q 1891 2088 1709 1903 
Q 1528 1719 1528 1375 
Q 1528 1031 1709 848 
Q 1891 666 2228 666 
Q 2563 666 2741 848 
Q 2919 1031 2919 1375 
Q 2919 1722 2741 1905 
Q 2563 2088 2228 2088 
z
M 1350 2484 
Q 925 2613 709 2878 
Q 494 3144 494 3541 
Q 494 4131 934 4440 
Q 1375 4750 2228 4750 
Q 3075 4750 3515 4442 
Q 3956 4134 3956 3541 
Q 3956 3144 3739 2878 
Q 3522 2613 3097 2484 
Q 3572 2353 3814 2058 
Q 4056 1763 4056 1313 
Q 4056 619 3595 264 
Q 3134 -91 2228 -91 
Q 1319 -91 855 264 
Q 391 619 391 1313 
Q 391 1763 633 2058 
Q 875 2353 1350 2484 
z
M 1631 3419 
Q 1631 3141 1786 2991 
Q 1941 2841 2228 2841 
Q 2509 2841 2662 2991 
Q 2816 3141 2816 3419 
Q 2816 3697 2662 3845 
Q 2509 3994 2228 3994 
Q 1941 3994 1786 3844 
Q 1631 3694 1631 3419 
z
" transform="scale(0.015625)"/>
      <path id="DejaVuSans-Bold-2d" d="M 347 2297 
L 2309 2297 
L 2309 1388 
L 347 1388 
L 347 2297 
z
" transform="scale(0.015625)"/>
      <path id="DejaVuSans-Bold-32" d="M 1844 884 
L 3897 884 
L 3897 0 
L 506 0 
L 506 884 
L 2209 2388 
Q 2438 2594 2547 2791 
Q 2656 2988 2656 3200 
Q 2656 3528 2436 3728 
Q 2216 3928 1850 3928 
Q 1569 3928 1234 3808 
Q 900 3688 519 3450 
L 519 4475 
Q 925 4609 1322 4679 
Q 1719 4750 2100 4750 
Q 2938 4750 3402 4381 
Q 3866 4013 3866 3353 
Q 3866 2972 3669 2642 
Q 3472 2313 2841 1759 
L 1844 884 
z
" transform="scale(0.015625)"/>
      <path id="DejaVuSans-Bold-2e" d="M 653 1209 
L 1778 1209 
L 1778 0 
L 653 0 
L 653 1209 
z
" transform="scale(0.015625)"/>
      <path id="DejaVuSans-Bold-45" d="M 588 4666 
L 3834 4666 
L 3834 3756 
L 1791 3756 
L 1791 2888 
L 3713 2888 
L 3713 1978 
L 1791 1978 
L 1791 909 
L 3903 909 
L 3903 0 
L 588 0 
L 588 4666 
z
" transform="scale(0.015625)"/>
      <path id="DejaVuSans-Bold-66" d="M 2841 4863 
L 2841 4128 
L 2222 4128 
Q 1984 4128 1890 4042 
Q 1797 3956 1797 3744 
L 1797 3500 
L 2753 3500 
L 2753 2700 
L 1797 2700 
L 1797 0 
L 678 0 
L 678 2700 
L 122 2700 
L 122 3500 
L 678 3500 
L 678 3744 
Q 678 4316 997 4589 
Q 1316 4863 1984 4863 
L 2841 4863 
z
" transform="scale(0.015625)"/>
      <path id="DejaVuSans-Bold-63" d="M 3366 3391 
L 3366 2478 
Q 3138 2634 2908 2709 
Q 2678 2784 2431 2784 
Q 1963 2784 1702 2511 
Q 1441 2238 1441 1747 
Q 1441 1256 1702 982 
Q 1963 709 2431 709 
Q 2694 709 2930 787 
Q 3166 866 3366 1019 
L 3366 103 
Q 3103 6 2833 -42 
Q 2563 -91 2291 -91 
Q 1344 -91 809 395 
Q 275 881 275 1747 
Q 275 2613 809 3098 
Q 1344 3584 2291 3584 
Q 2566 3584 2833 3536 
Q 3100 3488 3366 3391 
z
" transform="scale(0.015625)"/>
      <path id="DejaVuSans-Bold-74" d="M 1759 4494 
L 1759 3500 
L 2913 3500 
L 2913 2700 
L 1759 2700 
L 1759 1216 
Q 1759 972 1856 886 
Q 1953 800 2241 800 
L 2816 800 
L 2816 0 
L 1856 0 
Q 1194 0 917 276 
Q 641 553 641 1216 
L 641 2700 
L 84 2700 
L 84 3500 
L 641 3500 
L 641 4494 
L 1759 4494 
z
" transform="scale(0.015625)"/>
      <path id="DejaVuSans-Bold-73" d="M 3272 3391 
L 3272 2541 
Q 2913 2691 2578 2766 
Q 2244 2841 1947 2841 
Q 1628 2841 1473 2761 
Q 1319 2681 1319 2516 
Q 1319 2381 1436 2309 
Q 1553 2238 1856 2203 
L 2053 2175 
Q 2913 2066 3209 1816 
Q 3506 1566 3506 1031 
Q 3506 472 3093 190 
Q 2681 -91 1863 -91 
Q 1516 -91 1145 -36 
Q 775 19 384 128 
L 384 978 
Q 719 816 1070 734 
Q 1422 653 1784 653 
Q 2113 653 2278 743 
Q 2444 834 2444 1013 
Q 2444 1163 2330 1236 
Q 2216 1309 1875 1350 
L 1678 1375 
Q 931 1469 631 1722 
Q 331 1975 331 2491 
Q 331 3047 712 3315 
Q 1094 3584 1881 3584 
Q 2191 3584 2531 3537 
Q 2872 3491 3272 3391 
z
" transform="scale(0.015625)"/>
      <path id="DejaVuSans-Bold-6e" d="M 4056 2131 
L 4056 0 
L 2931 0 
L 2931 347 
L 2931 1631 
Q 2931 2084 2911 2256 
Q 2891 2428 2841 2509 
Q 2775 2619 2662 2680 
Q 2550 2741 2406 2741 
Q 2056 2741 1856 2470 
Q 1656 2200 1656 1722 
L 1656 0 
L 538 0 
L 538 3500 
L 1656 3500 
L 1656 2988 
Q 1909 3294 2193 3439 
Q 2478 3584 2822 3584 
Q 3428 3584 3742 3212 
Q 4056 2841 4056 2131 
z
" transform="scale(0.015625)"/>
      <path id="DejaVuSans-Bold-61" d="M 2106 1575 
Q 1756 1575 1579 1456 
Q 1403 1338 1403 1106 
Q 1403 894 1545 773 
Q 1688 653 1941 653 
Q 2256 653 2472 879 
Q 2688 1106 2688 1447 
L 2688 1575 
L 2106 1575 
z
M 3816 1997 
L 3816 0 
L 2688 0 
L 2688 519 
Q 2463 200 2181 54 
Q 1900 -91 1497 -91 
Q 953 -91 614 226 
Q 275 544 275 1050 
Q 275 1666 698 1953 
Q 1122 2241 2028 2241 
L 2688 2241 
L 2688 2328 
Q 2688 2594 2478 2717 
Q 2269 2841 1825 2841 
Q 1466 2841 1156 2769 
Q 847 2697 581 2553 
L 581 3406 
Q 941 3494 1303 3539 
Q 1666 3584 2028 3584 
Q 2975 3584 3395 3211 
Q 3816 2838 3816 1997 
z
" transform="scale(0.015625)"/>
      <path id="DejaVuSans-Bold-6f" d="M 2203 2784 
Q 1831 2784 1636 2517 
Q 1441 2250 1441 1747 
Q 1441 1244 1636 976 
Q 1831 709 2203 709 
Q 2569 709 2762 976 
Q 2956 1244 2956 1747 
Q 2956 2250 2762 2517 
Q 2569 2784 2203 2784 
z
M 2203 3584 
Q 3106 3584 3614 3096 
Q 4122 2609 4122 1747 
Q 4122 884 3614 396 
Q 3106 -91 2203 -91 
Q 1297 -91 786 396 
Q 275 884 275 1747 
Q 275 2609 786 3096 
Q 1297 3584 2203 3584 
z
" transform="scale(0.015625)"/>
      <path id="DejaVuSans-Bold-62" d="M 2400 722 
Q 2759 722 2948 984 
Q 3138 1247 3138 1747 
Q 3138 2247 2948 2509 
Q 2759 2772 2400 2772 
Q 2041 2772 1848 2508 
Q 1656 2244 1656 1747 
Q 1656 1250 1848 986 
Q 2041 722 2400 722 
z
M 1656 2988 
Q 1888 3294 2169 3439 
Q 2450 3584 2816 3584 
Q 3463 3584 3878 3070 
Q 4294 2556 4294 1747 
Q 4294 938 3878 423 
Q 3463 -91 2816 -91 
Q 2450 -91 2169 54 
Q 1888 200 1656 506 
L 1656 0 
L 538 0 
L 538 4863 
L 1656 4863 
L 1656 2988 
z
" transform="scale(0.015625)"/>
      <path id="DejaVuSans-Bold-68" d="M 4056 2131 
L 4056 0 
L 2931 0 
L 2931 347 
L 2931 1625 
Q 2931 2084 2911 2256 
Q 2891 2428 2841 2509 
Q 2775 2619 2662 2680 
Q 2550 2741 2406 2741 
Q 2056 2741 1856 2470 
Q 1656 2200 1656 1722 
L 1656 0 
L 538 0 
L 538 4863 
L 1656 4863 
L 1656 2988 
Q 1909 3294 2193 3439 
Q 2478 3584 2822 3584 
Q 3428 3584 3742 3212 
Q 4056 2841 4056 2131 
z
" transform="scale(0.015625)"/>
      <path id="DejaVuSans-Bold-6b" d="M 538 4863 
L 1656 4863 
L 1656 2216 
L 2944 3500 
L 4244 3500 
L 2534 1894 
L 4378 0 
L 3022 0 
L 1656 1459 
L 1656 0 
L 538 0 
L 538 4863 
z
" transform="scale(0.015625)"/>
     </defs>
     <use xlink:href="#DejaVuSans-Bold-46"/>
     <use xlink:href="#DejaVuSans-Bold-69" transform="translate(68.310547 0)"/>
     <use xlink:href="#DejaVuSans-Bold-67" transform="translate(102.587891 0)"/>
     <use xlink:href="#DejaVuSans-Bold-75" transform="translate(174.169922 0)"/>
     <use xlink:href="#DejaVuSans-Bold-72" transform="translate(245.361328 0)"/>
     <use xlink:href="#DejaVuSans-Bold-65" transform="translate(294.677734 0)"/>
     <use xlink:href="#DejaVuSans-Bold-20" transform="translate(362.5 0)"/>
     <use xlink:href="#DejaVuSans-Bold-38" transform="translate(397.314453 0)"/>
     <use xlink:href="#DejaVuSans-Bold-2d" transform="translate(466.894531 0)"/>
     <use xlink:href="#DejaVuSans-Bold-32" transform="translate(508.398438 0)"/>
     <use xlink:href="#DejaVuSans-Bold-2e" transform="translate(577.978516 0)"/>
     <use xlink:href="#DejaVuSans-Bold-20" transform="translate(615.966797 0)"/>
     <use xlink:href="#DejaVuSans-Bold-45" transform="translate(650.78125 0)"/>
     <use xlink:href="#DejaVuSans-Bold-66" transform="translate(719.091797 0)"/>
     <use xlink:href="#DejaVuSans-Bold-66" transform="translate(762.597656 0)"/>
     <use xlink:href="#DejaVuSans-Bold-65" transform="translate(806.103516 0)"/>
     <use xlink:href="#DejaVuSans-Bold-63" transform="translate(873.925781 0)"/>
     <use xlink:href="#DejaVuSans-Bold-74" transform="translate(933.203125 0)"/>
     <use xlink:href="#DejaVuSans-Bold-2d" transform="translate(981.005859 0)"/>
     <use xlink:href="#DejaVuSans-Bold-73" transform="translate(1022.509766 0)"/>
     <use xlink:href="#DejaVuSans-Bold-69" transform="translate(1082.03125 0)"/>
     <use xlink:href="#DejaVuSans-Bold-67" transform="translate(1116.308594 0)"/>
     <use xlink:href="#DejaVuSans-Bold-6e" transform="translate(1187.890625 0)"/>
     <use xlink:href="#DejaVuSans-Bold-69" transform="translate(1259.082031 0)"/>
     <use xlink:href="#DejaVuSans-Bold-66" transform="translate(1293.359375 0)"/>
     <use xlink:href="#DejaVuSans-Bold-69" transform="translate(1336.865234 0)"/>
     <use xlink:href="#DejaVuSans-Bold-63" transform="translate(1371.142578 0)"/>
     <use xlink:href="#DejaVuSans-Bold-61" transform="translate(1430.419922 0)"/>
     <use xlink:href="#DejaVuSans-Bold-6e" transform="translate(1497.900391 0)"/>
     <use xlink:href="#DejaVuSans-Bold-63" transform="translate(1569.091797 0)"/>
     <use xlink:href="#DejaVuSans-Bold-65" transform="translate(1628.369141 0)"/>
     <use xlink:href="#DejaVuSans-Bold-20" transform="translate(1696.191406 0)"/>
     <use xlink:href="#DejaVuSans-Bold-66" transform="translate(1731.005859 0)"/>
     <use xlink:href="#DejaVuSans-Bold-72" transform="translate(1774.511719 0)"/>
     <use xlink:href="#DejaVuSans-Bold-6f" transform="translate(1823.828125 0)"/>
     <use xlink:href="#DejaVuSans-Bold-6e" transform="translate(1892.529297 0)"/>
     <use xlink:href="#DejaVuSans-Bold-74" transform="translate(1963.720703 0)"/>
     <use xlink:href="#DejaVuSans-Bold-69" transform="translate(2011.523438 0)"/>
     <use xlink:href="#DejaVuSans-Bold-65" transform="translate(2045.800781 0)"/>
     <use xlink:href="#DejaVuSans-Bold-72" transform="translate(2113.623047 0)"/>
     <use xlink:href="#DejaVuSans-Bold-20" transform="translate(2162.939453 0)"/>
     <use xlink:href="#DejaVuSans-Bold-61" transform="translate(2197.753906 0)"/>
     <use xlink:href="#DejaVuSans-Bold-63" transform="translate(2265.234375 0)"/>
     <use xlink:href="#DejaVuSans-Bold-72" transform="translate(2324.511719 0)"/>
     <use xlink:href="#DejaVuSans-Bold-6f" transform="translate(2373.828125 0)"/>
     <use xlink:href="#DejaVuSans-Bold-73" transform="translate(2442.529297 0)"/>
     <use xlink:href="#DejaVuSans-Bold-73" transform="translate(2502.050781 0)"/>
     <use xlink:href="#DejaVuSans-Bold-20" transform="translate(2561.572266 0)"/>
     <use xlink:href="#DejaVuSans-Bold-72" transform="translate(2596.386719 0)"/>
     <use xlink:href="#DejaVuSans-Bold-6f" transform="translate(2645.703125 0)"/>
     <use xlink:href="#DejaVuSans-Bold-62" transform="translate(2714.404297 0)"/>
     <use xlink:href="#DejaVuSans-Bold-75" transform="translate(2785.986328 0)"/>
     <use xlink:href="#DejaVuSans-Bold-73" transform="translate(2857.177734 0)"/>
     <use xlink:href="#DejaVuSans-Bold-74" transform="translate(2916.699219 0)"/>
     <use xlink:href="#DejaVuSans-Bold-6e" transform="translate(2964.501953 0)"/>
     <use xlink:href="#DejaVuSans-Bold-65" transform="translate(3035.693359 0)"/>
     <use xlink:href="#DejaVuSans-Bold-73" transform="translate(3103.515625 0)"/>
     <use xlink:href="#DejaVuSans-Bold-73" transform="translate(3163.037109 0)"/>
     <use xlink:href="#DejaVuSans-Bold-20" transform="translate(3222.558594 0)"/>
     <use xlink:href="#DejaVuSans-Bold-63" transform="translate(3257.373047 0)"/>
     <use xlink:href="#DejaVuSans-Bold-68" transform="translate(3316.650391 0)"/>
     <use xlink:href="#DejaVuSans-Bold-65" transform="translate(3387.841797 0)"/>
     <use xlink:href="#DejaVuSans-Bold-63" transform="translate(3455.664062 0)"/>
     <use xlink:href="#DejaVuSans-Bold-6b" transform="translate(3514.941406 0)"/>
     <use xlink:href="#DejaVuSans-Bold-73" transform="translate(3581.445312 0)"/>
    </g>
   </g>
   <g id="legend_1">
    <g id="PathCollection_6">
     <defs>
      <path id="m27cf9e95e4" d="M 0 5.426785 
C 1.4392 5.426785 2.819648 4.854985 3.837317 3.837317 
C 4.854985 2.819648 5.426785 1.4392 5.426785 0 
C 5.426785 -1.4392 4.854985 -2.819648 3.837317 -3.837317 
C 2.819648 -4.854985 1.4392 -5.426785 0 -5.426785 
C -1.4392 -5.426785 -2.819648 -4.854985 -3.837317 -3.837317 
C -4.854985 -2.819648 -5.426785 -1.4392 -5.426785 0 
C -5.426785 1.4392 -4.854985 2.819648 -3.837317 3.837317 
C -2.819648 4.854985 -1.4392 5.426785 0 5.426785 
z
" style="stroke: #4c72b0; stroke-opacity: 0.8"/>
     </defs>
     <g>
      <use xlink:href="#m27cf9e95e4" x="569.89785" y="39.208594" style="fill: #4c72b0; fill-opacity: 0.8; stroke: #4c72b0; stroke-opacity: 0.8"/>
     </g>
    </g>
    <g id="text_24">
     <!-- Execution share -->
     <g style="fill: #262626" transform="translate(589.69785 42.096094) scale(0.11 -0.11)">
      <use xlink:href="#DejaVuSans-45"/>
      <use xlink:href="#DejaVuSans-78" transform="translate(63.183594 0)"/>
      <use xlink:href="#DejaVuSans-65" transform="translate(119.238281 0)"/>
      <use xlink:href="#DejaVuSans-63" transform="translate(180.761719 0)"/>
      <use xlink:href="#DejaVuSans-75" transform="translate(235.742188 0)"/>
      <use xlink:href="#DejaVuSans-74" transform="translate(299.121094 0)"/>
      <use xlink:href="#DejaVuSans-69" transform="translate(338.330078 0)"/>
      <use xlink:href="#DejaVuSans-6f" transform="translate(366.113281 0)"/>
      <use xlink:href="#DejaVuSans-6e" transform="translate(427.294922 0)"/>
      <use xlink:href="#DejaVuSans-20" transform="translate(490.673828 0)"/>
      <use xlink:href="#DejaVuSans-73" transform="translate(522.460938 0)"/>
      <use xlink:href="#DejaVuSans-68" transform="translate(574.560547 0)"/>
      <use xlink:href="#DejaVuSans-61" transform="translate(637.939453 0)"/>
      <use xlink:href="#DejaVuSans-72" transform="translate(699.21875 0)"/>
      <use xlink:href="#DejaVuSans-65" transform="translate(738.082031 0)"/>
     </g>
    </g>
    <g id="PathCollection_7">
     <defs>
      <path id="m05ef4f2741" d="M 0 6.016644 
C 1.595633 6.016644 3.126127 5.382692 4.254409 4.254409 
C 5.382692 3.126127 6.016644 1.595633 6.016644 0 
C 6.016644 -1.595633 5.382692 -3.126127 4.254409 -4.254409 
C 3.126127 -5.382692 1.595633 -6.016644 0 -6.016644 
C -1.595633 -6.016644 -3.126127 -5.382692 -4.254409 -4.254409 
C -5.382692 -3.126127 -6.016644 -1.595633 -6.016644 0 
C -6.016644 1.595633 -5.382692 3.126127 -4.254409 4.254409 
C -3.126127 5.382692 -1.595633 6.016644 0 6.016644 
z
" style="stroke: #dd8452; stroke-opacity: 0.8"/>
     </defs>
     <g>
      <use xlink:href="#m05ef4f2741" x="569.89785" y="55.354531" style="fill: #dd8452; fill-opacity: 0.8; stroke: #dd8452; stroke-opacity: 0.8"/>
     </g>
    </g>
    <g id="text_25">
     <!-- Preparation share -->
     <g style="fill: #262626" transform="translate(589.69785 58.242031) scale(0.11 -0.11)">
      <use xlink:href="#DejaVuSans-50"/>
      <use xlink:href="#DejaVuSans-72" transform="translate(58.552734 0)"/>
      <use xlink:href="#DejaVuSans-65" transform="translate(97.416016 0)"/>
      <use xlink:href="#DejaVuSans-70" transform="translate(158.939453 0)"/>
      <use xlink:href="#DejaVuSans-61" transform="translate(222.416016 0)"/>
      <use xlink:href="#DejaVuSans-72" transform="translate(283.695312 0)"/>
      <use xlink:href="#DejaVuSans-61" transform="translate(324.808594 0)"/>
      <use xlink:href="#DejaVuSans-74" transform="translate(386.087891 0)"/>
      <use xlink:href="#DejaVuSans-69" transform="translate(425.296875 0)"/>
      <use xlink:href="#DejaVuSans-6f" transform="translate(453.080078 0)"/>
      <use xlink:href="#DejaVuSans-6e" transform="translate(514.261719 0)"/>
      <use xlink:href="#DejaVuSans-20" transform="translate(577.640625 0)"/>
      <use xlink:href="#DejaVuSans-73" transform="translate(609.427734 0)"/>
      <use xlink:href="#DejaVuSans-68" transform="translate(661.527344 0)"/>
      <use xlink:href="#DejaVuSans-61" transform="translate(724.90625 0)"/>
      <use xlink:href="#DejaVuSans-72" transform="translate(786.185547 0)"/>
      <use xlink:href="#DejaVuSans-65" transform="translate(825.048828 0)"/>
     </g>
    </g>
    <g id="PathCollection_8">
     <defs>
      <path id="m2f31755f00" d="M 0 5.426785 
C 1.4392 5.426785 2.819648 4.854985 3.837317 3.837317 
C 4.854985 2.819648 5.426785 1.4392 5.426785 0 
C 5.426785 -1.4392 4.854985 -2.819648 3.837317 -3.837317 
C 2.819648 -4.854985 1.4392 -5.426785 0 -5.426785 
C -1.4392 -5.426785 -2.819648 -4.854985 -3.837317 -3.837317 
C -4.854985 -2.819648 -5.426785 -1.4392 -5.426785 0 
C -5.426785 1.4392 -4.854985 2.819648 -3.837317 3.837317 
C -2.819648 4.854985 -1.4392 5.426785 0 5.426785 
z
" style="stroke: #55a868; stroke-opacity: 0.8"/>
     </defs>
     <g>
      <use xlink:href="#m2f31755f00" x="569.89785" y="71.500469" style="fill: #55a868; fill-opacity: 0.8; stroke: #55a868; stroke-opacity: 0.8"/>
     </g>
    </g>
    <g id="text_26">
     <!-- Procurement share -->
     <g style="fill: #262626" transform="translate(589.69785 74.387969) scale(0.11 -0.11)">
      <use xlink:href="#DejaVuSans-50"/>
      <use xlink:href="#DejaVuSans-72" transform="translate(58.552734 0)"/>
      <use xlink:href="#DejaVuSans-6f" transform="translate(97.416016 0)"/>
      <use xlink:href="#DejaVuSans-63" transform="translate(158.597656 0)"/>
      <use xlink:href="#DejaVuSans-75" transform="translate(213.578125 0)"/>
      <use xlink:href="#DejaVuSans-72" transform="translate(276.957031 0)"/>
      <use xlink:href="#DejaVuSans-65" transform="translate(315.820312 0)"/>
      <use xlink:href="#DejaVuSans-6d" transform="translate(377.34375 0)"/>
      <use xlink:href="#DejaVuSans-65" transform="translate(474.755859 0)"/>
      <use xlink:href="#DejaVuSans-6e" transform="translate(536.279297 0)"/>
      <use xlink:href="#DejaVuSans-74" transform="translate(599.658203 0)"/>
      <use xlink:href="#DejaVuSans-20" transform="translate(638.867188 0)"/>
      <use xlink:href="#DejaVuSans-73" transform="translate(670.654297 0)"/>
      <use xlink:href="#DejaVuSans-68" transform="translate(722.753906 0)"/>
      <use xlink:href="#DejaVuSans-61" transform="translate(786.132812 0)"/>
      <use xlink:href="#DejaVuSans-72" transform="translate(847.412109 0)"/>
      <use xlink:href="#DejaVuSans-65" transform="translate(886.275391 0)"/>
     </g>
    </g>
    <g id="PathCollection_9">
     <defs>
      <path id="me8ccb36f48" d="M 0 5.426785 
C 1.4392 5.426785 2.819648 4.854985 3.837317 3.837317 
C 4.854985 2.819648 5.426785 1.4392 5.426785 0 
C 5.426785 -1.4392 4.854985 -2.819648 3.837317 -3.837317 
C 2.819648 -4.854985 1.4392 -5.426785 0 -5.426785 
C -1.4392 -5.426785 -2.819648 -4.854985 -3.837317 -3.837317 
C -4.854985 -2.819648 -5.426785 -1.4392 -5.426785 0 
C -5.426785 1.4392 -4.854985 2.819648 -3.837317 3.837317 
C -2.819648 4.854985 -1.4392 5.426785 0 5.426785 
z
" style="stroke: #c44e52; stroke-opacity: 0.8"/>
     </defs>
     <g>
      <use xlink:href="#me8ccb36f48" x="569.89785" y="87.646406" style="fill: #c44e52; fill-opacity: 0.8; stroke: #c44e52; stroke-opacity: 0.8"/>
     </g>
    </g>
    <g id="text_27">
     <!-- Quality PCA -->
     <g style="fill: #262626" transform="translate(589.69785 90.533906) scale(0.11 -0.11)">
      <use xlink:href="#DejaVuSans-51"/>
      <use xlink:href="#DejaVuSans-75" transform="translate(78.710938 0)"/>
      <use xlink:href="#DejaVuSans-61" transform="translate(142.089844 0)"/>
      <use xlink:href="#DejaVuSans-6c" transform="translate(203.369141 0)"/>
      <use xlink:href="#DejaVuSans-69" transform="translate(231.152344 0)"/>
      <use xlink:href="#DejaVuSans-74" transform="translate(258.935547 0)"/>
      <use xlink:href="#DejaVuSans-79" transform="translate(298.144531 0)"/>
      <use xlink:href="#DejaVuSans-20" transform="translate(357.324219 0)"/>
      <use xlink:href="#DejaVuSans-50" transform="translate(389.111328 0)"/>
      <use xlink:href="#DejaVuSans-43" transform="translate(449.414062 0)"/>
      <use xlink:href="#DejaVuSans-41" transform="translate(519.238281 0)"/>
     </g>
    </g>
    <g id="PathCollection_10">
     <defs>
      <path id="m45690c590e" d="M 0 6.016644 
C 1.595633 6.016644 3.126127 5.382692 4.254409 4.254409 
C 5.382692 3.126127 6.016644 1.595633 6.016644 0 
C 6.016644 -1.595633 5.382692 -3.126127 4.254409 -4.254409 
C 3.126127 -5.382692 1.595633 -6.016644 0 -6.016644 
C -1.595633 -6.016644 -3.126127 -5.382692 -4.254409 -4.254409 
C -5.382692 -3.126127 -6.016644 -1.595633 -6.016644 0 
C -6.016644 1.595633 -5.382692 3.126127 -4.254409 4.254409 
C -3.126127 5.382692 -1.595633 6.016644 0 6.016644 
z
" style="stroke: #8172b3; stroke-opacity: 0.8"/>
     </defs>
     <g>
      <use xlink:href="#m45690c590e" x="569.89785" y="103.792344" style="fill: #8172b3; fill-opacity: 0.8; stroke: #8172b3; stroke-opacity: 0.8"/>
     </g>
    </g>
    <g id="text_28">
     <!-- Quality Z -->
     <g style="fill: #262626" transform="translate(589.69785 106.679844) scale(0.11 -0.11)">
      <defs>
       <path id="DejaVuSans-5a" d="M 359 4666 
L 4025 4666 
L 4025 4184 
L 1075 531 
L 4097 531 
L 4097 0 
L 288 0 
L 288 481 
L 3238 4134 
L 359 4134 
L 359 4666 
z
" transform="scale(0.015625)"/>
      </defs>
      <use xlink:href="#DejaVuSans-51"/>
      <use xlink:href="#DejaVuSans-75" transform="translate(78.710938 0)"/>
      <use xlink:href="#DejaVuSans-61" transform="translate(142.089844 0)"/>
      <use xlink:href="#DejaVuSans-6c" transform="translate(203.369141 0)"/>
      <use xlink:href="#DejaVuSans-69" transform="translate(231.152344 0)"/>
      <use xlink:href="#DejaVuSans-74" transform="translate(258.935547 0)"/>
      <use xlink:href="#DejaVuSans-79" transform="translate(298.144531 0)"/>
      <use xlink:href="#DejaVuSans-20" transform="translate(357.324219 0)"/>
      <use xlink:href="#DejaVuSans-5a" transform="translate(389.111328 0)"/>
     </g>
    </g>
   </g>
  </g>
 </g>
 <defs>
  <clipPath id="p098d475fbd">
   <rect x="46.31125" y="23.837812" width="492.83" height="388.02"/>
  </clipPath>
 </defs>
</svg>
