<?xml version="1.0" encoding="utf-8" standalone="no"?>
<!DOCTYPE svg PUBLIC "-//W3C//DTD SVG 1.1//EN"
  "http://www.w3.org/Graphics/SVG/1.1/DTD/svg11.dtd">
<svg xmlns:xlink="http://www.w3.org/1999/xlink" width="597.68pt" height="336.5075pt" viewBox="0 0 597.68 336.5075" xmlns="http://www.w3.org/2000/svg" version="1.1">
 <metadata>
  <rdf:RDF xmlns:dc="http://purl.org/dc/elements/1.1/" xmlns:cc="http://creativecommons.org/ns#" xmlns:rdf="http://www.w3.org/1999/02/22-rdf-syntax-ns#">
   <cc:Work>
    <dc:type rdf:resource="http://purl.org/dc/dcmitype/StillImage"/>
    <dc:date>2026-04-17T18:42:55.752008</dc:date>
    <dc:format>image/svg+xml</dc:format>
    <dc:creator>
     <cc:Agent>
      <dc:title>Matplotlib v3.8.4, https://matplotlib.org/</dc:title>
     </cc:Agent>
    </dc:creator>
   </cc:Work>
  </rdf:RDF>
 </metadata>
 <defs>
  <style type="text/css">*{stroke-linejoin: round; stroke-linecap: butt}</style>
 </defs>
 <g id="figure_1">
  <g id="patch_1">
   <path d="M 0 336.5075 
L 597.68 336.5075 
L 597.68 0 
L 0 0 
z
" style="fill: #ffffff"/>
  </g>
  <g id="axes_1">
   <g id="patch_2">
    <path d="M 94.2 297.75125 
L 590.48 297.75125 
L 590.48 21.19375 
L 94.2 21.19375 
z
" style="fill: #ffffff"/>
   </g>
   <g id="matplotlib.axis_1">
    <g id="xtick_1">
     <g id="line2d_1">
      <path d="M 111.349169 297.75125 
L 111.349169 21.19375 
" clip-path="url(#pa43c1cba99)" style="fill: none; stroke: #b0b0b0; stroke-opacity: 0.2; stroke-width: 0.8; stroke-linecap: square"/>
     </g>
     <g id="line2d_2">
      <defs>
       <path id="m0342f7a52d" d="M 0 0 
L 0 3.5 
" style="stroke: #000000; stroke-width: 0.8"/>
      </defs>
      <g>
       <use xlink:href="#m0342f7a52d" x="111.349169" y="297.75125" style="stroke: #000000; stroke-width: 0.8"/>
      </g>
     </g>
     <g id="text_1">
      <!-- -1.0 -->
      <g transform="translate(101.5937 312.349687) scale(0.1 -0.1)">
       <defs>
        <path id="DejaVuSans-2d" d="M 313 2009 
L 1997 2009 
L 1997 1497 
L 313 1497 
L 313 2009 
z
" transform="scale(0.015625)"/>
        <path id="DejaVuSans-31" d="M 794 531 
L 1825 531 
L 1825 4091 
L 703 3866 
L 703 4441 
L 1819 4666 
L 2450 4666 
L 2450 531 
L 3481 531 
L 3481 0 
L 794 0 
L 794 531 
z
" transform="scale(0.015625)"/>
        <path id="DejaVuSans-2e" d="M 684 794 
L 1344 794 
L 1344 0 
L 684 0 
L 684 794 
z
" transform="scale(0.015625)"/>
        <path id="DejaVuSans-30" d="M 2034 4250 
Q 1547 4250 1301 3770 
Q 1056 3291 1056 2328 
Q 1056 1369 1301 889 
Q 1547 409 2034 409 
Q 2525 409 2770 889 
Q 3016 1369 3016 2328 
Q 3016 3291 2770 3770 
Q 2525 4250 2034 4250 
z
M 2034 4750 
Q 2819 4750 3233 4129 
Q 3647 3509 3647 2328 
Q 3647 1150 3233 529 
Q 2819 -91 2034 -91 
Q 1250 -91 836 529 
Q 422 1150 422 2328 
Q 422 3509 836 4129 
Q 1250 4750 2034 4750 
z
" transform="scale(0.015625)"/>
       </defs>
       <use xlink:href="#DejaVuSans-2d"/>
       <use xlink:href="#DejaVuSans-31" x="36.083984"/>
       <use xlink:href="#DejaVuSans-2e" x="99.707031"/>
       <use xlink:href="#DejaVuSans-30" x="131.494141"/>
      </g>
     </g>
    </g>
    <g id="xtick_2">
     <g id="line2d_3">
      <path d="M 208.441203 297.75125 
L 208.441203 21.19375 
" clip-path="url(#pa43c1cba99)" style="fill: none; stroke: #b0b0b0; stroke-opacity: 0.2; stroke-width: 0.8; stroke-linecap: square"/>
     </g>
     <g id="line2d_4">
      <g>
       <use xlink:href="#m0342f7a52d" x="208.441203" y="297.75125" style="stroke: #000000; stroke-width: 0.8"/>
      </g>
     </g>
     <g id="text_2">
      <!-- -0.5 -->
      <g transform="translate(198.685734 312.349687) scale(0.1 -0.1)">
       <defs>
        <path id="DejaVuSans-35" d="M 691 4666 
L 3169 4666 
L 3169 4134 
L 1269 4134 
L 1269 2991 
Q 1406 3038 1543 3061 
Q 1681 3084 1819 3084 
Q 2600 3084 3056 2656 
Q 3513 2228 3513 1497 
Q 3513 744 3044 326 
Q 2575 -91 1722 -91 
Q 1428 -91 1123 -41 
Q 819 9 494 109 
L 494 744 
Q 775 591 1075 516 
Q 1375 441 1709 441 
Q 2250 441 2565 725 
Q 2881 1009 2881 1497 
Q 2881 1984 2565 2268 
Q 2250 2553 1709 2553 
Q 1456 2553 1204 2497 
Q 953 2441 691 2322 
L 691 4666 
z
" transform="scale(0.015625)"/>
       </defs>
       <use xlink:href="#DejaVuSans-2d"/>
       <use xlink:href="#DejaVuSans-30" x="36.083984"/>
       <use xlink:href="#DejaVuSans-2e" x="99.707031"/>
       <use xlink:href="#DejaVuSans-35" x="131.494141"/>
      </g>
     </g>
    </g>
    <g id="xtick_3">
     <g id="line2d_5">
      <path d="M 305.533237 297.75125 
L 305.533237 21.19375 
" clip-path="url(#pa43c1cba99)" style="fill: none; stroke: #b0b0b0; stroke-opacity: 0.2; stroke-width: 0.8; stroke-linecap: square"/>
     </g>
     <g id="line2d_6">
      <g>
       <use xlink:href="#m0342f7a52d" x="305.533237" y="297.75125" style="stroke: #000000; stroke-width: 0.8"/>
      </g>
     </g>
     <g id="text_3">
      <!-- 0.0 -->
      <g transform="translate(297.581675 312.349687) scale(0.1 -0.1)">
       <use xlink:href="#DejaVuSans-30"/>
       <use xlink:href="#DejaVuSans-2e" x="63.623047"/>
       <use xlink:href="#DejaVuSans-30" x="95.410156"/>
      </g>
     </g>
    </g>
    <g id="xtick_4">
     <g id="line2d_7">
      <path d="M 402.625271 297.75125 
L 402.625271 21.19375 
" clip-path="url(#pa43c1cba99)" style="fill: none; stroke: #b0b0b0; stroke-opacity: 0.2; stroke-width: 0.8; stroke-linecap: square"/>
     </g>
     <g id="line2d_8">
      <g>
       <use xlink:href="#m0342f7a52d" x="402.625271" y="297.75125" style="stroke: #000000; stroke-width: 0.8"/>
      </g>
     </g>
     <g id="text_4">
      <!-- 0.5 -->
      <g transform="translate(394.673709 312.349687) scale(0.1 -0.1)">
       <use xlink:href="#DejaVuSans-30"/>
       <use xlink:href="#DejaVuSans-2e" x="63.623047"/>
       <use xlink:href="#DejaVuSans-35" x="95.410156"/>
      </g>
     </g>
    </g>
    <g id="xtick_5">
     <g id="line2d_9">
      <path d="M 499.717306 297.75125 
L 499.717306 21.19375 
" clip-path="url(#pa43c1cba99)" style="fill: none; stroke: #b0b0b0; stroke-opacity: 0.2; stroke-width: 0.8; stroke-linecap: square"/>
     </g>
     <g id="line2d_10">
      <g>
       <use xlink:href="#m0342f7a52d" x="499.717306" y="297.75125" style="stroke: #000000; stroke-width: 0.8"/>
      </g>
     </g>
     <g id="text_5">
      <!-- 1.0 -->
      <g transform="translate(491.765743 312.349687) scale(0.1 -0.1)">
       <use xlink:href="#DejaVuSans-31"/>
       <use xlink:href="#DejaVuSans-2e" x="63.623047"/>
       <use xlink:href="#DejaVuSans-30" x="95.410156"/>
      </g>
     </g>
    </g>
    <g id="text_6">
     <!-- treat_share 系数（95%置信区间） -->
     <g transform="translate(264.304844 326.754375) scale(0.1 -0.1)">
      <defs>
       <path id="MicrosoftYaHei-74" d="M 2206 34 
Q 2006 -75 1666 -75 
Q 738 -75 738 953 
L 738 2950 
L 144 2950 
L 144 3456 
L 738 3456 
L 738 4288 
L 1347 4481 
L 1347 3456 
L 2206 3456 
L 2206 2950 
L 1347 2950 
L 1347 1063 
Q 1347 722 1462 575 
Q 1578 428 1847 428 
Q 2053 428 2206 544 
L 2206 34 
z
" transform="scale(0.015625)"/>
       <path id="MicrosoftYaHei-72" d="M 2400 2850 
Q 2247 2959 1978 2959 
Q 1622 2959 1390 2626 
Q 1159 2294 1159 1750 
L 1159 0 
L 547 0 
L 547 3456 
L 1159 3456 
L 1159 2753 
L 1172 2753 
Q 1434 3516 2078 3516 
Q 2288 3516 2400 3469 
L 2400 2850 
z
" transform="scale(0.015625)"/>
       <path id="MicrosoftYaHei-65" d="M 3363 1572 
L 944 1572 
Q 959 1019 1246 717 
Q 1534 416 2050 416 
Q 2631 416 3116 788 
L 3116 241 
Q 2659 -81 1906 -81 
Q 1156 -81 736 394 
Q 316 869 316 1713 
Q 316 2506 777 3022 
Q 1238 3538 1922 3538 
Q 2600 3538 2981 3102 
Q 3363 2666 3363 1881 
L 3363 1572 
z
M 2750 2063 
Q 2747 2531 2528 2787 
Q 2309 3044 1913 3044 
Q 1547 3044 1280 2772 
Q 1013 2500 944 2063 
L 2750 2063 
z
" transform="scale(0.015625)"/>
       <path id="MicrosoftYaHei-61" d="M 628 3216 
Q 1144 3538 1819 3538 
Q 3069 3538 3069 2225 
L 3069 0 
L 2463 0 
L 2463 534 
L 2447 534 
Q 2088 -81 1388 -81 
Q 884 -81 587 191 
Q 291 463 291 925 
Q 291 1894 1438 2053 
L 2463 2197 
Q 2463 3044 1763 3044 
Q 1141 3044 628 2625 
L 628 3216 
z
M 1653 1625 
Q 1228 1569 1067 1412 
Q 906 1256 906 975 
Q 906 728 1081 572 
Q 1256 416 1544 416 
Q 1944 416 2203 697 
Q 2463 978 2463 1403 
L 2463 1734 
L 1653 1625 
z
" transform="scale(0.015625)"/>
       <path id="MicrosoftYaHei-5f" d="M 2869 -1634 
L 0 -1634 
L 0 -1231 
L 2869 -1231 
L 2869 -1634 
z
" transform="scale(0.015625)"/>
       <path id="MicrosoftYaHei-73" d="M 353 747 
Q 816 413 1350 413 
Q 2066 413 2066 881 
Q 2066 1081 1909 1211 
Q 1753 1341 1275 1519 
Q 700 1750 528 1976 
Q 356 2203 356 2525 
Q 356 2984 745 3261 
Q 1134 3538 1703 3538 
Q 2144 3538 2522 3384 
L 2522 2794 
Q 2134 3044 1644 3044 
Q 1350 3044 1165 2916 
Q 981 2788 981 2578 
Q 981 2372 1114 2256 
Q 1247 2141 1703 1959 
Q 2281 1744 2484 1512 
Q 2688 1281 2688 941 
Q 2688 466 2298 192 
Q 1909 -81 1291 -81 
Q 753 -81 353 122 
L 353 747 
z
" transform="scale(0.015625)"/>
       <path id="MicrosoftYaHei-68" d="M 3466 0 
L 2856 0 
L 2856 1988 
Q 2856 3031 2081 3031 
Q 1684 3031 1421 2726 
Q 1159 2422 1159 1959 
L 1159 0 
L 547 0 
L 547 5116 
L 1159 5116 
L 1159 2888 
L 1172 2888 
Q 1569 3538 2300 3538 
Q 3466 3538 3466 2128 
L 3466 0 
z
" transform="scale(0.015625)"/>
       <path id="MicrosoftYaHei-20" transform="scale(0.015625)"/>
       <path id="MicrosoftYaHei-7cfb" d="M 4494 2747 
Q 5294 2103 6131 1334 
Q 5925 1134 5750 953 
Q 5491 1209 5225 1459 
Q 4391 1425 3519 1378 
L 3519 -28 
Q 3519 -741 2769 -741 
Q 2463 -741 1963 -728 
Q 1931 -497 1881 -216 
Q 2406 -272 2688 -272 
Q 3031 -272 3031 66 
L 3031 1353 
Q 2272 1313 1488 1266 
Q 1131 1247 781 1184 
L 575 1722 
Q 988 1797 1356 1966 
Q 2313 2434 3131 2909 
Q 2044 2825 1306 2759 
Q 981 2728 813 2691 
L 613 3216 
Q 913 3291 1175 3434 
Q 1959 3872 2747 4469 
Q 1675 4403 575 4353 
Q 531 4572 463 4791 
Q 3444 4903 5756 5134 
L 5850 4691 
Q 4494 4578 3097 4488 
L 3350 4309 
Q 2369 3653 1538 3203 
Q 2938 3281 3856 3353 
Q 4481 3753 5013 4159 
L 5419 3828 
Q 3850 2709 1775 1734 
Q 3019 1778 4791 1866 
Q 4478 2153 4163 2428 
L 4494 2747 
z
M 4125 697 
L 4444 1034 
Q 5231 509 6175 -222 
L 5806 -628 
Q 4931 97 4125 697 
z
M 1681 1028 
L 2088 709 
Q 1288 -9 406 -678 
Q 256 -497 63 -297 
Q 875 259 1681 1028 
z
" transform="scale(0.015625)"/>
       <path id="MicrosoftYaHei-6570" d="M 4175 5303 
L 4675 5228 
Q 4544 4622 4369 4097 
L 6281 4097 
L 6281 3672 
L 5888 3672 
Q 5731 1834 5088 753 
Q 5594 66 6375 -372 
Q 6175 -647 6038 -866 
Q 5275 -372 4769 309 
Q 4194 -403 3400 -928 
Q 3263 -747 3044 -534 
Q 3919 41 4463 772 
Q 3956 1647 3794 2791 
Q 3663 2559 3519 2359 
Q 3394 2541 3206 2759 
Q 3931 3803 4175 5303 
z
M 150 1697 
L 1100 1697 
Q 1238 1934 1369 2184 
L 1819 2041 
Q 1719 1866 1619 1697 
L 3150 1697 
L 3150 1291 
Q 2913 678 2431 216 
Q 2775 53 3131 -109 
L 2856 -541 
Q 2469 -322 2050 -103 
Q 1344 -609 269 -903 
Q 169 -703 56 -466 
Q 969 -259 1600 128 
Q 1063 403 475 691 
Q 675 978 863 1284 
L 150 1284 
L 150 1697 
z
M 219 3847 
L 1656 3847 
L 1656 5247 
L 2119 5247 
L 2119 3847 
L 3319 3847 
L 3319 3434 
L 2119 3434 
L 2119 3053 
L 2306 3266 
Q 2888 2841 3281 2516 
L 2981 2166 
Q 2638 2491 2119 2897 
L 2119 2184 
L 1656 2184 
L 1656 3059 
Q 1088 2466 331 2016 
Q 213 2197 63 2397 
Q 850 2822 1506 3434 
L 219 3434 
L 219 3847 
z
M 5388 3672 
L 4219 3672 
Q 4188 3591 4150 3516 
Q 4263 2191 4775 1247 
Q 5275 2159 5388 3672 
z
M 1088 834 
Q 1531 634 2000 416 
Q 2431 784 2675 1284 
L 1375 1284 
Q 1231 1053 1088 834 
z
M 3038 5091 
L 3425 4834 
Q 3081 4384 2738 4003 
Q 2594 4128 2400 4266 
Q 2725 4647 3038 5091 
z
M 381 4816 
L 738 5059 
Q 1019 4716 1319 4322 
L 931 4047 
Q 656 4453 381 4816 
z
" transform="scale(0.015625)"/>
       <path id="MicrosoftYaHei-ff08" d="M 5288 -1100 
Q 4172 119 4172 1850 
Q 4172 3603 5288 4838 
L 5825 4838 
Q 4716 3572 4716 1856 
Q 4716 166 5819 -1100 
L 5288 -1100 
z
" transform="scale(0.015625)"/>
       <path id="MicrosoftYaHei-39" d="M 578 656 
Q 978 425 1441 425 
Q 2091 425 2448 937 
Q 2806 1450 2806 2394 
Q 2800 2388 2794 2394 
Q 2475 1788 1722 1788 
Q 1113 1788 713 2206 
Q 313 2625 313 3294 
Q 313 4006 750 4464 
Q 1188 4922 1884 4922 
Q 2606 4922 3012 4355 
Q 3419 3788 3419 2703 
Q 3419 1363 2894 641 
Q 2369 -81 1441 -81 
Q 931 -81 578 84 
L 578 656 
z
M 931 3372 
Q 931 2884 1181 2598 
Q 1431 2313 1872 2313 
Q 2253 2313 2512 2573 
Q 2772 2834 2772 3206 
Q 2772 3728 2514 4070 
Q 2256 4413 1834 4413 
Q 1444 4413 1187 4116 
Q 931 3819 931 3372 
z
" transform="scale(0.015625)"/>
       <path id="MicrosoftYaHei-35" d="M 3294 1494 
Q 3294 784 2823 350 
Q 2353 -84 1559 -84 
Q 878 -84 544 119 
L 544 744 
Q 1034 425 1544 425 
Q 2050 425 2361 704 
Q 2672 984 2672 1447 
Q 2672 1909 2348 2167 
Q 2025 2425 1434 2425 
Q 978 2425 613 2384 
L 791 4841 
L 3053 4841 
L 3053 4303 
L 1306 4303 
L 1206 2931 
L 1647 2950 
Q 2416 2950 2855 2567 
Q 3294 2184 3294 1494 
z
" transform="scale(0.015625)"/>
       <path id="MicrosoftYaHei-25" d="M 272 3619 
Q 272 4213 589 4563 
Q 906 4913 1444 4913 
Q 1959 4913 2248 4591 
Q 2538 4269 2538 3694 
Q 2538 3122 2219 2765 
Q 1900 2409 1372 2409 
Q 872 2409 572 2740 
Q 272 3072 272 3619 
z
M 753 3650 
Q 753 3247 928 3028 
Q 1103 2809 1406 2809 
Q 1719 2809 1889 3036 
Q 2059 3263 2059 3675 
Q 2059 4078 1892 4298 
Q 1725 4519 1422 4519 
Q 1113 4519 933 4289 
Q 753 4059 753 3650 
z
M 4647 4841 
L 1538 -31 
L 1016 -31 
L 4125 4841 
L 4647 4841 
z
M 3172 1134 
Q 3172 1728 3489 2083 
Q 3806 2438 4341 2438 
Q 4853 2438 5143 2114 
Q 5434 1791 5434 1203 
Q 5434 634 5112 279 
Q 4791 -75 4272 -75 
Q 3769 -75 3470 261 
Q 3172 597 3172 1134 
z
M 3650 1163 
Q 3650 769 3825 548 
Q 4000 328 4303 328 
Q 4616 328 4786 556 
Q 4956 784 4956 1194 
Q 4956 1600 4786 1815 
Q 4616 2031 4319 2031 
Q 4000 2031 3825 1801 
Q 3650 1572 3650 1163 
z
" transform="scale(0.015625)"/>
       <path id="MicrosoftYaHei-7f6e" d="M 94 -284 
L 1025 -284 
L 1025 2609 
L 2938 2609 
L 2938 3016 
L 244 3016 
L 244 3366 
L 2938 3366 
L 2938 3697 
L 3388 3697 
L 3388 3366 
L 6150 3366 
L 6150 3016 
L 3388 3016 
L 3388 2609 
L 5431 2609 
L 5431 -284 
L 6294 -284 
L 6294 -647 
L 94 -647 
L 94 -284 
z
M 638 5034 
L 5756 5034 
L 5756 3641 
L 5331 3641 
L 5331 3784 
L 1069 3784 
L 1069 3641 
L 638 3641 
L 638 5034 
z
M 1463 -284 
L 4994 -284 
L 4994 116 
L 1463 116 
L 1463 -284 
z
M 1463 441 
L 4994 441 
L 4994 834 
L 1463 834 
L 1463 441 
z
M 1463 1159 
L 4994 1159 
L 4994 1553 
L 1463 1553 
L 1463 1159 
z
M 4994 2272 
L 1463 2272 
L 1463 1878 
L 4994 1878 
L 4994 2272 
z
M 5331 4697 
L 4181 4697 
L 4181 4122 
L 5331 4122 
L 5331 4697 
z
M 2625 4122 
L 3769 4122 
L 3769 4697 
L 2625 4697 
L 2625 4122 
z
M 1069 4122 
L 2213 4122 
L 2213 4697 
L 1069 4697 
L 1069 4122 
z
" transform="scale(0.015625)"/>
       <path id="MicrosoftYaHei-4fe1" d="M 2300 1434 
L 5856 1434 
L 5856 -853 
L 5375 -853 
L 5375 -478 
L 2781 -478 
L 2781 -853 
L 2300 -853 
L 2300 1434 
z
M 81 2303 
Q 1000 3666 1463 5316 
L 1950 5178 
Q 1678 4338 1356 3628 
L 1356 -853 
L 894 -853 
L 894 2713 
Q 606 2209 288 1791 
Q 188 2053 81 2303 
z
M 5375 1009 
L 2781 1009 
L 2781 -53 
L 5375 -53 
L 5375 1009 
z
M 1888 4472 
L 3928 4472 
Q 3741 4794 3538 5109 
L 3956 5328 
Q 4181 4991 4400 4616 
L 4128 4472 
L 6288 4472 
L 6288 4034 
L 1888 4034 
L 1888 4472 
z
M 2231 3453 
L 5919 3453 
L 5919 3028 
L 2231 3028 
L 2231 3453 
z
M 2231 2447 
L 5919 2447 
L 5919 2022 
L 2231 2022 
L 2231 2447 
z
" transform="scale(0.015625)"/>
       <path id="MicrosoftYaHei-533a" d="M 600 4872 
L 5975 4872 
L 5975 4384 
L 1131 4384 
L 1131 22 
L 6075 22 
L 6075 -453 
L 600 -453 
L 600 4872 
z
M 1613 3697 
L 1963 4028 
Q 2744 3384 3597 2616 
Q 4250 3322 4850 4153 
L 5306 3847 
Q 4650 2997 3975 2272 
Q 4753 1563 5588 753 
L 5156 316 
Q 4400 1106 3600 1878 
Q 2697 963 1763 266 
Q 1613 459 1363 672 
Q 2344 1341 3228 2231 
Q 2444 2972 1613 3697 
z
" transform="scale(0.015625)"/>
       <path id="MicrosoftYaHei-95f4" d="M 1863 3647 
L 4513 3647 
L 4513 553 
L 2313 553 
L 2313 166 
L 1863 166 
L 1863 3647 
z
M 2388 4453 
L 2388 4922 
L 6013 4922 
L 6013 -28 
Q 6013 -816 5119 -816 
Q 4756 -816 4169 -803 
Q 4144 -616 4069 -297 
Q 4588 -334 5056 -334 
Q 5525 -334 5525 122 
L 5525 4453 
L 2388 4453 
z
M 419 4084 
L 906 4084 
L 906 -816 
L 419 -816 
L 419 4084 
z
M 2313 997 
L 4063 997 
L 4063 1884 
L 2313 1884 
L 2313 997 
z
M 4063 3203 
L 2313 3203 
L 2313 2328 
L 4063 2328 
L 4063 3203 
z
M 744 5003 
L 1100 5322 
Q 1575 4872 1981 4447 
L 1575 4091 
Q 1194 4541 744 5003 
z
" transform="scale(0.015625)"/>
       <path id="MicrosoftYaHei-ff09" d="M 1113 -1100 
L 575 -1100 
Q 1684 163 1684 1888 
Q 1684 3581 581 4838 
L 1113 4838 
Q 2222 3628 2222 1888 
Q 2222 128 1113 -1100 
z
" transform="scale(0.015625)"/>
      </defs>
      <use xlink:href="#MicrosoftYaHei-74"/>
      <use xlink:href="#MicrosoftYaHei-72" x="37.255859"/>
      <use xlink:href="#MicrosoftYaHei-65" x="74.064453"/>
      <use xlink:href="#MicrosoftYaHei-61" x="130.802734"/>
      <use xlink:href="#MicrosoftYaHei-74" x="186.076172"/>
      <use xlink:href="#MicrosoftYaHei-5f" x="223.332031"/>
      <use xlink:href="#MicrosoftYaHei-73" x="268.15625"/>
      <use xlink:href="#MicrosoftYaHei-68" x="314.445312"/>
      <use xlink:href="#MicrosoftYaHei-61" x="376.017578"/>
      <use xlink:href="#MicrosoftYaHei-72" x="431.291016"/>
      <use xlink:href="#MicrosoftYaHei-65" x="468.099609"/>
      <use xlink:href="#MicrosoftYaHei-20" x="524.837891"/>
      <use xlink:href="#MicrosoftYaHei-7cfb" x="554.427734"/>
      <use xlink:href="#MicrosoftYaHei-6570" x="654.427734"/>
      <use xlink:href="#MicrosoftYaHei-ff08" x="754.427734"/>
      <use xlink:href="#MicrosoftYaHei-39" x="854.427734"/>
      <use xlink:href="#MicrosoftYaHei-35" x="913.070312"/>
      <use xlink:href="#MicrosoftYaHei-25" x="971.712891"/>
      <use xlink:href="#MicrosoftYaHei-7f6e" x="1060.677734"/>
      <use xlink:href="#MicrosoftYaHei-4fe1" x="1160.677734"/>
      <use xlink:href="#MicrosoftYaHei-533a" x="1260.677734"/>
      <use xlink:href="#MicrosoftYaHei-95f4" x="1360.677734"/>
      <use xlink:href="#MicrosoftYaHei-ff09" x="1460.677734"/>
     </g>
    </g>
   </g>
   <g id="matplotlib.axis_2">
    <g id="ytick_1">
     <g id="line2d_11">
      <defs>
       <path id="mfd65f84467" d="M 0 0 
L -3.5 0 
" style="stroke: #000000; stroke-width: 0.8"/>
      </defs>
      <g>
       <use xlink:href="#mfd65f84467" x="94.2" y="47.233255" style="stroke: #000000; stroke-width: 0.8"/>
      </g>
     </g>
     <g id="text_7">
      <!-- 执行阶段占比 -->
      <g transform="translate(27.2 51.23013) scale(0.1 -0.1)">
       <defs>
        <path id="MicrosoftYaHei-6267" d="M 2225 2272 
L 2519 2647 
Q 2788 2472 3059 2294 
Q 3128 2856 3147 3622 
L 2406 3622 
L 2406 4097 
L 3156 4097 
Q 3169 4672 3175 5303 
L 3663 5303 
Q 3656 4653 3644 4097 
L 5363 4097 
Q 5350 3228 5344 2341 
Q 5319 616 5488 34 
Q 5531 -103 5618 -103 
Q 5706 -103 5744 59 
Q 5831 409 5913 1059 
Q 6156 934 6375 878 
Q 6288 253 6175 -159 
Q 6025 -691 5613 -691 
Q 5194 -691 5013 -103 
Q 4869 397 4875 1847 
Q 4869 2672 4869 3622 
L 3634 3622 
Q 3616 2709 3513 1988 
Q 3994 1663 4481 1322 
L 4163 891 
Q 3791 1172 3416 1444 
Q 3113 100 2088 -847 
Q 1931 -634 1713 -422 
Q 2725 506 2975 1756 
Q 2600 2019 2225 2272 
z
M 88 1966 
Q 525 2069 969 2181 
L 969 3647 
L 144 3647 
L 144 4097 
L 969 4097 
L 969 5303 
L 1431 5303 
L 1431 4097 
L 2163 4097 
L 2163 3647 
L 1431 3647 
L 1431 2303 
Q 1772 2394 2113 2491 
Q 2125 2216 2156 2016 
L 1431 1813 
L 1431 -78 
Q 1431 -759 875 -759 
Q 606 -759 219 -747 
Q 194 -516 138 -247 
Q 538 -291 694 -291 
Q 969 -291 969 3 
L 969 1678 
Q 559 1559 150 1441 
L 88 1966 
z
" transform="scale(0.015625)"/>
        <path id="MicrosoftYaHei-884c" d="M 2363 2978 
L 6319 2978 
L 6319 2509 
L 5106 2509 
L 5106 66 
Q 5106 -709 4325 -709 
Q 3800 -709 3256 -703 
Q 3219 -453 3163 -141 
Q 3650 -191 4144 -191 
Q 4575 -191 4575 234 
L 4575 2509 
L 2363 2509 
L 2363 2978 
z
M 100 1578 
Q 1069 2372 1863 3809 
L 2300 3541 
Q 1978 2984 1619 2500 
L 1619 -809 
L 1100 -809 
L 1100 1856 
Q 725 1431 319 1072 
Q 219 1334 100 1578 
z
M 2725 4866 
L 5969 4866 
L 5969 4397 
L 2725 4397 
L 2725 4866 
z
M 131 3559 
Q 1125 4328 1731 5347 
L 2181 5072 
Q 1456 3959 381 3078 
Q 269 3316 131 3559 
z
" transform="scale(0.015625)"/>
        <path id="MicrosoftYaHei-9636" d="M 2213 1816 
Q 2388 616 1644 484 
Q 1406 441 1031 478 
Q 981 734 913 991 
Q 1206 916 1475 941 
Q 1894 991 1744 1797 
Q 1669 2222 1188 2853 
Q 1419 3616 1688 4578 
L 863 4578 
L 863 -853 
L 400 -853 
L 400 5016 
L 2194 5016 
L 2194 4578 
Q 1906 3672 1663 2934 
Q 2144 2284 2213 1816 
z
M 3469 2834 
L 3469 1841 
Q 3469 78 2450 -897 
Q 2269 -734 2031 -572 
Q 2994 297 2994 1859 
L 2994 2834 
L 3469 2834 
z
M 4806 2834 
L 5281 2834 
L 5281 -822 
L 4806 -822 
L 4806 2834 
z
M 4475 5278 
L 4388 5078 
Q 5169 3653 6338 3134 
Q 6175 2947 5994 2697 
Q 4856 3384 4144 4634 
Q 3494 3472 2356 2609 
Q 2206 2828 2031 3003 
Q 3244 3809 3981 5278 
L 4475 5278 
z
" transform="scale(0.015625)"/>
        <path id="MicrosoftYaHei-6bb5" d="M 2844 1978 
L 2844 2422 
L 5763 2422 
L 5763 1953 
Q 5397 1069 4731 416 
Q 5378 -63 6338 -266 
Q 6144 -516 6019 -747 
Q 5031 -456 4359 88 
Q 3638 -488 2631 -853 
Q 2450 -559 2331 -422 
Q 3313 -75 3997 428 
Q 3400 1069 3138 1978 
L 2844 1978 
z
M 88 722 
Q 325 744 569 769 
L 569 4897 
Q 1931 4972 2719 5116 
L 2888 4653 
Q 2175 4559 1031 4484 
L 1031 3616 
L 2613 3616 
L 2613 3203 
L 1031 3203 
L 1031 2259 
L 2594 2259 
L 2594 1847 
L 1031 1847 
L 1031 819 
Q 1891 916 2838 1041 
Q 2831 916 2831 591 
Q 1894 484 1031 366 
L 1031 -816 
L 569 -816 
L 569 303 
Q 381 275 200 247 
L 88 722 
z
M 5738 3209 
Q 5981 3209 6306 3228 
L 6219 2759 
Q 5906 2747 5625 2747 
Q 4988 2747 4988 3459 
L 4988 4553 
L 3831 4553 
L 3831 4216 
Q 3831 3053 2938 2522 
Q 2781 2709 2600 2909 
Q 3363 3272 3363 4241 
L 3363 4997 
L 5456 4997 
L 5456 3497 
Q 5456 3209 5738 3209 
z
M 5256 1978 
L 3613 1978 
Q 3863 1241 4363 731 
Q 4956 1275 5256 1978 
z
" transform="scale(0.015625)"/>
        <path id="MicrosoftYaHei-5360" d="M 863 2434 
L 2775 2434 
L 2775 5259 
L 3288 5259 
L 3288 4209 
L 6150 4209 
L 6150 3747 
L 3288 3747 
L 3288 2434 
L 5525 2434 
L 5525 -841 
L 5025 -841 
L 5025 -453 
L 1363 -453 
L 1363 -853 
L 863 -853 
L 863 2434 
z
M 5025 1984 
L 1363 1984 
L 1363 -9 
L 5025 -9 
L 5025 1984 
z
" transform="scale(0.015625)"/>
        <path id="MicrosoftYaHei-6bd4" d="M 3225 5316 
L 3744 5316 
L 3744 2672 
Q 4959 3550 5744 4509 
L 6188 4178 
Q 5175 3063 3744 2056 
L 3744 247 
Q 3744 -166 4106 -166 
L 5175 -166 
Q 5588 -166 5650 203 
Q 5725 678 5763 1247 
Q 6025 1147 6300 1066 
Q 6244 484 6150 22 
Q 6019 -622 5319 -622 
L 3944 -622 
Q 3225 -622 3225 159 
L 3225 5316 
z
M 1063 5153 
L 1063 3278 
L 2825 3278 
L 2825 2809 
L 1063 2809 
L 1063 153 
Q 1713 428 2763 928 
Q 2763 634 2788 366 
Q 1869 -3 1231 -328 
Q 956 -472 725 -672 
L 344 -184 
Q 544 -34 544 272 
L 544 5153 
L 1063 5153 
z
" transform="scale(0.015625)"/>
       </defs>
       <use xlink:href="#MicrosoftYaHei-6267"/>
       <use xlink:href="#MicrosoftYaHei-884c" x="100"/>
       <use xlink:href="#MicrosoftYaHei-9636" x="200"/>
       <use xlink:href="#MicrosoftYaHei-6bb5" x="300"/>
       <use xlink:href="#MicrosoftYaHei-5360" x="400"/>
       <use xlink:href="#MicrosoftYaHei-6bd4" x="500"/>
      </g>
     </g>
    </g>
    <g id="ytick_2">
     <g id="line2d_12">
      <g>
       <use xlink:href="#mfd65f84467" x="94.2" y="159.4725" style="stroke: #000000; stroke-width: 0.8"/>
      </g>
     </g>
     <g id="text_8">
      <!-- 采购阶段占比 -->
      <g transform="translate(27.2 163.469375) scale(0.1 -0.1)">
       <defs>
        <path id="MicrosoftYaHei-91c7" d="M 6363 247 
Q 6144 -34 5994 -284 
Q 4353 331 3444 1706 
L 3444 -866 
L 2956 -866 
L 2956 1697 
Q 2041 422 438 -384 
Q 294 -172 81 84 
Q 1678 766 2559 1853 
L 163 1853 
L 163 2328 
L 2956 2328 
L 2956 2878 
L 3444 2878 
L 3444 2328 
L 6231 2328 
L 6231 1853 
L 3831 1853 
Q 4709 684 6363 247 
z
M 619 4478 
Q 581 4728 531 4953 
Q 3969 4991 5800 5116 
L 5875 4641 
Q 3806 4541 619 4478 
z
M 4181 3028 
Q 4738 3647 5381 4478 
L 5819 4153 
Q 5200 3434 4538 2703 
L 4181 3028 
z
M 2563 4178 
L 2975 4422 
Q 3538 3641 3788 3247 
L 3331 2984 
Q 3038 3497 2563 4178 
z
M 694 3928 
L 1063 4197 
Q 1525 3659 1994 3072 
L 1569 2772 
Q 1113 3416 694 3928 
z
" transform="scale(0.015625)"/>
        <path id="MicrosoftYaHei-8d2d" d="M 438 4953 
L 2550 4953 
L 2550 3159 
Q 3175 4116 3481 5316 
L 3975 5203 
Q 3825 4753 3663 4347 
L 6050 4347 
Q 6013 1309 5975 303 
Q 5919 -709 4938 -709 
Q 4400 -709 3794 -684 
Q 3756 -434 3694 -172 
Q 4300 -241 4806 -247 
Q 5463 -241 5500 403 
Q 5544 1466 5563 3891 
L 3475 3891 
Q 3244 3347 2994 2897 
Q 2813 3016 2550 3128 
L 2550 1078 
L 2100 1078 
L 2100 4497 
L 888 4497 
L 888 1041 
L 438 1041 
L 438 4953 
z
M 4213 2378 
L 4644 2503 
Q 4931 1603 5200 616 
L 4731 478 
Q 4681 666 4638 859 
Q 3975 816 3450 753 
Q 3175 722 2894 653 
L 2700 1059 
Q 2919 1197 3025 1434 
Q 3369 2266 3675 3434 
L 4150 3322 
Q 3775 2166 3406 1191 
Q 3938 1222 4531 1266 
Q 4381 1816 4213 2378 
z
M 1269 3953 
L 1719 3953 
L 1719 2697 
Q 1719 1484 1550 816 
L 1731 984 
Q 2369 322 2850 -222 
L 2456 -553 
Q 2013 16 1481 603 
Q 1256 -109 400 -853 
Q 263 -659 69 -472 
Q 800 72 1038 691 
Q 1269 1228 1269 2516 
L 1269 3953 
z
" transform="scale(0.015625)"/>
       </defs>
       <use xlink:href="#MicrosoftYaHei-91c7"/>
       <use xlink:href="#MicrosoftYaHei-8d2d" x="100"/>
       <use xlink:href="#MicrosoftYaHei-9636" x="200"/>
       <use xlink:href="#MicrosoftYaHei-6bb5" x="300"/>
       <use xlink:href="#MicrosoftYaHei-5360" x="400"/>
       <use xlink:href="#MicrosoftYaHei-6bd4" x="500"/>
      </g>
     </g>
    </g>
    <g id="ytick_3">
     <g id="line2d_13">
      <g>
       <use xlink:href="#mfd65f84467" x="94.2" y="271.711745" style="stroke: #000000; stroke-width: 0.8"/>
      </g>
     </g>
     <g id="text_9">
      <!-- 综合治理质量指数 -->
      <g transform="translate(7.2 275.70862) scale(0.1 -0.1)">
       <defs>
        <path id="MicrosoftYaHei-7efc" d="M 881 1578 
Q 1550 1684 2100 1778 
Q 2063 1534 2044 1303 
Q 988 1159 306 1022 
L 194 1484 
Q 678 1988 1188 2756 
Q 581 2719 250 2691 
L 131 3116 
Q 813 4022 1394 5347 
L 1869 5159 
Q 1288 4041 694 3153 
Q 1091 3163 1453 3172 
Q 1691 3566 1938 4016 
L 2400 3784 
Q 1588 2484 881 1578 
z
M 2406 2016 
L 6275 2016 
L 6275 1603 
L 4638 1603 
L 4638 3 
Q 4638 -747 3888 -747 
Q 3631 -747 3213 -741 
Q 3181 -553 3119 -259 
Q 3469 -297 3756 -297 
Q 4163 -297 4163 134 
L 4163 1603 
L 2406 1603 
L 2406 2016 
z
M 2513 4528 
L 4166 4528 
Q 3931 4878 3713 5147 
L 4125 5397 
Q 4431 5041 4650 4716 
L 4347 4528 
L 6194 4528 
L 6194 3522 
L 5731 3522 
L 5731 4116 
L 2975 4116 
L 2975 3522 
L 2513 3522 
L 2513 4528 
z
M 2781 3241 
L 5913 3241 
L 5913 2828 
L 2781 2828 
L 2781 3241 
z
M 113 84 
Q 944 197 2175 428 
Q 2138 91 2131 -34 
Q 1425 -147 225 -391 
L 113 84 
z
M 3044 1284 
L 3500 1091 
Q 3081 203 2688 -428 
Q 2469 -309 2238 -197 
Q 2681 466 3044 1284 
z
M 5081 1059 
L 5506 1278 
Q 5931 641 6344 -134 
L 5888 -384 
Q 5469 441 5081 1059 
z
" transform="scale(0.015625)"/>
        <path id="MicrosoftYaHei-5408" d="M 1025 1909 
L 5381 1909 
L 5381 -866 
L 4881 -866 
L 4881 -447 
L 1525 -447 
L 1525 -878 
L 1025 -878 
L 1025 1909 
z
M 3700 5234 
L 3550 5053 
Q 4594 3697 6319 3009 
Q 6125 2734 5988 2509 
Q 5481 2753 5025 3059 
L 5025 2703 
L 1369 2703 
L 1369 3016 
Q 913 2716 394 2428 
Q 269 2641 81 2897 
Q 2013 3866 3000 5234 
L 3700 5234 
z
M 4881 1453 
L 1525 1453 
L 1525 -3 
L 4881 -3 
L 4881 1453 
z
M 3219 4691 
Q 2581 3872 1550 3147 
L 4894 3147 
Q 3944 3797 3219 4691 
z
" transform="scale(0.015625)"/>
        <path id="MicrosoftYaHei-6cbb" d="M 2231 1934 
L 5719 1934 
L 5719 -822 
L 5244 -822 
L 5244 -403 
L 2706 -403 
L 2706 -822 
L 2231 -822 
L 2231 1934 
z
M 5019 4484 
Q 5731 3522 6325 2534 
L 5875 2259 
Q 5706 2553 5538 2838 
Q 3694 2759 2594 2666 
Q 2344 2641 2081 2566 
L 1831 3053 
Q 2088 3147 2288 3372 
Q 2931 4141 3519 5334 
L 4019 5128 
Q 3388 4059 2713 3153 
Q 3853 3191 5281 3259 
Q 4956 3775 4625 4247 
L 5019 4484 
z
M 5244 1497 
L 2706 1497 
L 2706 34 
L 5244 34 
L 5244 1497 
z
M 1013 1903 
Q 1263 1784 1525 1684 
Q 1069 278 763 -766 
L 231 -566 
Q 656 509 1013 1903 
z
M 663 5209 
Q 1338 4747 1819 4359 
Q 1619 4128 1469 3953 
Q 994 4378 356 4853 
L 663 5209 
z
M 406 3647 
Q 981 3266 1525 2847 
Q 1431 2753 1188 2434 
Q 563 2953 100 3291 
L 406 3647 
z
" transform="scale(0.015625)"/>
        <path id="MicrosoftYaHei-7406" d="M 2031 -166 
L 3988 -166 
L 3988 734 
L 2394 734 
L 2394 1172 
L 3988 1172 
L 3988 1997 
L 2988 1997 
L 2988 1766 
L 2525 1766 
L 2525 4991 
L 5913 4991 
L 5913 1766 
L 5450 1766 
L 5450 1997 
L 4450 1997 
L 4450 1172 
L 6044 1172 
L 6044 734 
L 4450 734 
L 4450 -166 
L 6319 -166 
L 6319 -603 
L 2031 -603 
L 2031 -166 
z
M 44 203 
Q 525 319 975 434 
L 975 2328 
L 194 2328 
L 194 2766 
L 975 2766 
L 975 4328 
L 131 4328 
L 131 4766 
L 2281 4766 
L 2281 4328 
L 1438 4328 
L 1438 2766 
L 2231 2766 
L 2231 2328 
L 1438 2328 
L 1438 559 
Q 1850 675 2238 791 
Q 2269 509 2306 303 
Q 1238 16 213 -303 
L 44 203 
z
M 4450 2422 
L 5450 2422 
L 5450 3291 
L 4450 3291 
L 4450 2422 
z
M 2988 2422 
L 3988 2422 
L 3988 3291 
L 2988 3291 
L 2988 2422 
z
M 5450 4566 
L 4450 4566 
L 4450 3703 
L 5450 3703 
L 5450 4566 
z
M 2988 3703 
L 3988 3703 
L 3988 4566 
L 2988 4566 
L 2988 3703 
z
" transform="scale(0.015625)"/>
        <path id="MicrosoftYaHei-8d28" d="M 1838 2628 
L 3500 2628 
L 3500 3353 
L 1450 3353 
L 1450 3791 
L 3500 3791 
L 3500 4472 
L 4000 4472 
L 4000 3791 
L 6125 3791 
L 6125 3353 
L 4000 3353 
L 4000 2628 
L 5681 2628 
L 5681 428 
L 5194 428 
L 5194 2191 
L 2325 2191 
L 2325 428 
L 1838 428 
L 1838 2628 
z
M 713 4934 
Q 3744 4947 5988 5197 
L 6163 4709 
Q 3813 4541 1213 4497 
L 1213 2578 
Q 1213 178 406 -872 
Q 219 -653 31 -466 
Q 713 372 713 2534 
L 713 4934 
z
M 4000 1866 
Q 4013 1053 3919 691 
Q 5063 191 6263 -403 
L 5994 -866 
Q 4794 -203 3763 272 
Q 3275 -559 1344 -884 
Q 1238 -684 1075 -428 
Q 3019 -128 3350 534 
Q 3525 822 3513 1866 
L 4000 1866 
z
" transform="scale(0.015625)"/>
        <path id="MicrosoftYaHei-91cf" d="M 113 -278 
L 2981 -278 
L 2981 78 
L 475 78 
L 475 403 
L 2981 403 
L 2981 759 
L 1494 759 
L 1494 597 
L 1069 597 
L 1069 2516 
L 5350 2516 
L 5350 597 
L 4925 597 
L 4925 759 
L 3419 759 
L 3419 403 
L 5931 403 
L 5931 78 
L 3419 78 
L 3419 -278 
L 6288 -278 
L 6288 -616 
L 113 -616 
L 113 -278 
z
M 1119 5072 
L 5306 5072 
L 5306 3284 
L 4881 3284 
L 4881 3453 
L 1544 3453 
L 1544 3284 
L 1119 3284 
L 1119 5072 
z
M 163 3153 
L 6263 3153 
L 6263 2816 
L 163 2816 
L 163 3153 
z
M 1544 3778 
L 4881 3778 
L 4881 4116 
L 1544 4116 
L 1544 3778 
z
M 4881 4747 
L 1544 4747 
L 1544 4416 
L 4881 4416 
L 4881 4747 
z
M 3419 1084 
L 4925 1084 
L 4925 1491 
L 3419 1491 
L 3419 1084 
z
M 1494 1084 
L 2981 1084 
L 2981 1491 
L 1494 1491 
L 1494 1084 
z
M 4925 2191 
L 3419 2191 
L 3419 1791 
L 4925 1791 
L 4925 2191 
z
M 1494 1791 
L 2981 1791 
L 2981 2191 
L 1494 2191 
L 1494 1791 
z
" transform="scale(0.015625)"/>
        <path id="MicrosoftYaHei-6307" d="M 2556 2316 
L 5856 2316 
L 5856 -822 
L 5381 -822 
L 5381 -441 
L 3031 -441 
L 3031 -822 
L 2556 -822 
L 2556 2316 
z
M 88 1978 
Q 550 2088 975 2194 
L 975 3647 
L 144 3647 
L 144 4097 
L 975 4097 
L 975 5309 
L 1444 5309 
L 1444 4097 
L 2250 4097 
L 2250 3647 
L 1444 3647 
L 1444 2319 
Q 1778 2409 2088 2503 
Q 2100 2216 2131 2016 
Q 1775 1916 1444 1822 
L 1444 -59 
Q 1444 -753 825 -759 
Q 594 -766 219 -747 
Q 194 -497 138 -253 
Q 481 -297 694 -297 
Q 975 -297 975 16 
L 975 1684 
Q 534 1556 150 1441 
L 88 1978 
z
M 2494 5322 
L 2969 5322 
L 2969 4359 
Q 4463 4641 5938 5084 
L 6106 4641 
Q 4888 4263 2969 3916 
L 2969 3709 
Q 2969 3259 3431 3259 
L 5156 3259 
Q 5613 3259 5700 3659 
Q 5756 3891 5813 4291 
Q 6038 4197 6281 4122 
Q 6213 3716 6144 3466 
Q 6000 2834 5244 2834 
L 3288 2834 
Q 2494 2834 2494 3678 
L 2494 5322 
z
M 5381 1891 
L 3031 1891 
L 3031 1134 
L 5381 1134 
L 5381 1891 
z
M 3031 -16 
L 5381 -16 
L 5381 734 
L 3031 734 
L 3031 -16 
z
" transform="scale(0.015625)"/>
       </defs>
       <use xlink:href="#MicrosoftYaHei-7efc"/>
       <use xlink:href="#MicrosoftYaHei-5408" x="100"/>
       <use xlink:href="#MicrosoftYaHei-6cbb" x="200"/>
       <use xlink:href="#MicrosoftYaHei-7406" x="300"/>
       <use xlink:href="#MicrosoftYaHei-8d28" x="400"/>
       <use xlink:href="#MicrosoftYaHei-91cf" x="500"/>
       <use xlink:href="#MicrosoftYaHei-6307" x="600"/>
       <use xlink:href="#MicrosoftYaHei-6570" x="700"/>
      </g>
     </g>
    </g>
   </g>
   <g id="LineCollection_1">
    <path d="M 336.468123 33.764545 
L 412.71282 33.764545 
" clip-path="url(#pa43c1cba99)" style="fill: none; stroke: #1f4e79; stroke-width: 1.5"/>
   </g>
   <g id="line2d_14">
    <defs>
     <path id="mca7c8d6981" d="M 0 3 
L 0 -3 
" style="stroke: #1f4e79"/>
    </defs>
    <g clip-path="url(#pa43c1cba99)">
     <use xlink:href="#mca7c8d6981" x="336.468123" y="33.764545" style="fill: #1f4e79; stroke: #1f4e79"/>
    </g>
   </g>
   <g id="line2d_15">
    <g clip-path="url(#pa43c1cba99)">
     <use xlink:href="#mca7c8d6981" x="412.71282" y="33.764545" style="fill: #1f4e79; stroke: #1f4e79"/>
    </g>
   </g>
   <g id="LineCollection_2">
    <path d="M 283.094051 60.701964 
L 415.854739 60.701964 
" clip-path="url(#pa43c1cba99)" style="fill: none; stroke: #b22222; stroke-width: 1.5"/>
   </g>
   <g id="line2d_16">
    <defs>
     <path id="m751ede36ee" d="M 0 3 
L 0 -3 
" style="stroke: #b22222"/>
    </defs>
    <g clip-path="url(#pa43c1cba99)">
     <use xlink:href="#m751ede36ee" x="283.094051" y="60.701964" style="fill: #b22222; stroke: #b22222"/>
    </g>
   </g>
   <g id="line2d_17">
    <g clip-path="url(#pa43c1cba99)">
     <use xlink:href="#m751ede36ee" x="415.854739" y="60.701964" style="fill: #b22222; stroke: #b22222"/>
    </g>
   </g>
   <g id="LineCollection_3">
    <path d="M 188.630712 146.003791 
L 266.204004 146.003791 
" clip-path="url(#pa43c1cba99)" style="fill: none; stroke: #1f4e79; stroke-width: 1.5"/>
   </g>
   <g id="line2d_18">
    <g clip-path="url(#pa43c1cba99)">
     <use xlink:href="#mca7c8d6981" x="188.630712" y="146.003791" style="fill: #1f4e79; stroke: #1f4e79"/>
    </g>
   </g>
   <g id="line2d_19">
    <g clip-path="url(#pa43c1cba99)">
     <use xlink:href="#mca7c8d6981" x="266.204004" y="146.003791" style="fill: #1f4e79; stroke: #1f4e79"/>
    </g>
   </g>
   <g id="LineCollection_4">
    <path d="M 169.246123 172.941209 
L 305.073305 172.941209 
" clip-path="url(#pa43c1cba99)" style="fill: none; stroke: #b22222; stroke-width: 1.5"/>
   </g>
   <g id="line2d_20">
    <g clip-path="url(#pa43c1cba99)">
     <use xlink:href="#m751ede36ee" x="169.246123" y="172.941209" style="fill: #b22222; stroke: #b22222"/>
    </g>
   </g>
   <g id="line2d_21">
    <g clip-path="url(#pa43c1cba99)">
     <use xlink:href="#m751ede36ee" x="305.073305" y="172.941209" style="fill: #b22222; stroke: #b22222"/>
    </g>
   </g>
   <g id="LineCollection_5">
    <path d="M 247.153248 258.243036 
L 567.921818 258.243036 
" clip-path="url(#pa43c1cba99)" style="fill: none; stroke: #1f4e79; stroke-width: 1.5"/>
   </g>
   <g id="line2d_22">
    <g clip-path="url(#pa43c1cba99)">
     <use xlink:href="#mca7c8d6981" x="247.153248" y="258.243036" style="fill: #1f4e79; stroke: #1f4e79"/>
    </g>
   </g>
   <g id="line2d_23">
    <g clip-path="url(#pa43c1cba99)">
     <use xlink:href="#mca7c8d6981" x="567.921818" y="258.243036" style="fill: #1f4e79; stroke: #1f4e79"/>
    </g>
   </g>
   <g id="LineCollection_6">
    <path d="M 116.758182 285.180455 
L 428.310775 285.180455 
" clip-path="url(#pa43c1cba99)" style="fill: none; stroke: #b22222; stroke-width: 1.5"/>
   </g>
   <g id="line2d_24">
    <g clip-path="url(#pa43c1cba99)">
     <use xlink:href="#m751ede36ee" x="116.758182" y="285.180455" style="fill: #b22222; stroke: #b22222"/>
    </g>
   </g>
   <g id="line2d_25">
    <g clip-path="url(#pa43c1cba99)">
     <use xlink:href="#m751ede36ee" x="428.310775" y="285.180455" style="fill: #b22222; stroke: #b22222"/>
    </g>
   </g>
   <g id="line2d_26">
    <path d="M 305.533237 297.75125 
L 305.533237 21.19375 
" clip-path="url(#pa43c1cba99)" style="fill: none; stroke: #000000; stroke-linecap: square"/>
   </g>
   <g id="line2d_27">
    <defs>
     <path id="mdbf089406d" d="M 0 3 
C 0.795609 3 1.55874 2.683901 2.12132 2.12132 
C 2.683901 1.55874 3 0.795609 3 0 
C 3 -0.795609 2.683901 -1.55874 2.12132 -2.12132 
C 1.55874 -2.683901 0.795609 -3 0 -3 
C -0.795609 -3 -1.55874 -2.683901 -2.12132 -2.12132 
C -2.683901 -1.55874 -3 -0.795609 -3 0 
C -3 0.795609 -2.683901 1.55874 -2.12132 2.12132 
C -1.55874 2.683901 -0.795609 3 0 3 
z
" style="stroke: #1f4e79"/>
    </defs>
    <g clip-path="url(#pa43c1cba99)">
     <use xlink:href="#mdbf089406d" x="374.590472" y="33.764545" style="fill: #1f4e79; stroke: #1f4e79"/>
    </g>
   </g>
   <g id="line2d_28">
    <defs>
     <path id="m8b85a954fb" d="M 0 3 
C 0.795609 3 1.55874 2.683901 2.12132 2.12132 
C 2.683901 1.55874 3 0.795609 3 0 
C 3 -0.795609 2.683901 -1.55874 2.12132 -2.12132 
C 1.55874 -2.683901 0.795609 -3 0 -3 
C -0.795609 -3 -1.55874 -2.683901 -2.12132 -2.12132 
C -2.683901 -1.55874 -3 -0.795609 -3 0 
C -3 0.795609 -2.683901 1.55874 -2.12132 2.12132 
C -1.55874 2.683901 -0.795609 3 0 3 
z
" style="stroke: #b22222"/>
    </defs>
    <g clip-path="url(#pa43c1cba99)">
     <use xlink:href="#m8b85a954fb" x="349.474395" y="60.701964" style="fill: #b22222; stroke: #b22222"/>
    </g>
   </g>
   <g id="line2d_29">
    <g clip-path="url(#pa43c1cba99)">
     <use xlink:href="#mdbf089406d" x="227.417358" y="146.003791" style="fill: #1f4e79; stroke: #1f4e79"/>
    </g>
   </g>
   <g id="line2d_30">
    <g clip-path="url(#pa43c1cba99)">
     <use xlink:href="#m8b85a954fb" x="237.159714" y="172.941209" style="fill: #b22222; stroke: #b22222"/>
    </g>
   </g>
   <g id="line2d_31">
    <g clip-path="url(#pa43c1cba99)">
     <use xlink:href="#mdbf089406d" x="407.537533" y="258.243036" style="fill: #1f4e79; stroke: #1f4e79"/>
    </g>
   </g>
   <g id="line2d_32">
    <g clip-path="url(#pa43c1cba99)">
     <use xlink:href="#m8b85a954fb" x="272.534479" y="285.180455" style="fill: #b22222; stroke: #b22222"/>
    </g>
   </g>
   <g id="patch_3">
    <path d="M 94.2 297.75125 
L 94.2 21.19375 
" style="fill: none; stroke: #000000; stroke-width: 0.8; stroke-linejoin: miter; stroke-linecap: square"/>
   </g>
   <g id="patch_4">
    <path d="M 590.48 297.75125 
L 590.48 21.19375 
" style="fill: none; stroke: #000000; stroke-width: 0.8; stroke-linejoin: miter; stroke-linecap: square"/>
   </g>
   <g id="patch_5">
    <path d="M 94.2 297.75125 
L 590.48 297.75125 
" style="fill: none; stroke: #000000; stroke-width: 0.8; stroke-linejoin: miter; stroke-linecap: square"/>
   </g>
   <g id="patch_6">
    <path d="M 94.2 21.19375 
L 590.48 21.19375 
" style="fill: none; stroke: #000000; stroke-width: 0.8; stroke-linejoin: miter; stroke-linecap: square"/>
   </g>
   <g id="text_10">
    <!-- 图8A 趋势调整型DID与基准DID结果比较 -->
    <g transform="translate(251.236875 15.19375) scale(0.1 -0.1)">
     <defs>
      <path id="MicrosoftYaHei-56fe" d="M 431 5072 
L 5944 5072 
L 5944 -809 
L 5475 -809 
L 5475 -509 
L 900 -509 
L 900 -809 
L 431 -809 
L 431 5072 
z
M 5475 4622 
L 900 4622 
L 900 -59 
L 5475 -59 
L 5475 4622 
z
M 1113 3091 
Q 1969 3709 2519 4547 
L 2931 4353 
Q 2816 4181 2681 4016 
L 4894 4016 
L 4894 3647 
Q 4434 3091 3722 2644 
Q 4381 2422 5338 2297 
Q 5194 2016 5131 1828 
Q 4022 2081 3256 2400 
Q 2491 2056 1225 1728 
Q 1138 1934 1013 2128 
Q 2109 2353 2825 2644 
Q 2384 2947 2066 3341 
Q 1769 3056 1419 2784 
Q 1294 2916 1113 3091 
z
M 1563 672 
L 1694 1103 
Q 3256 897 4700 622 
L 4531 147 
Q 3150 453 1563 672 
z
M 4275 3628 
L 2347 3628 
Q 2338 3616 2328 3606 
Q 2691 3141 3244 2841 
Q 3891 3188 4275 3628 
z
M 2219 1503 
L 2344 1922 
Q 3263 1784 4275 1609 
L 4144 1172 
Q 3119 1378 2219 1503 
z
" transform="scale(0.015625)"/>
      <path id="MicrosoftYaHei-38" d="M 306 1350 
Q 306 1769 556 2122 
Q 806 2475 1200 2625 
Q 884 2803 700 3081 
Q 516 3359 516 3684 
Q 516 4028 692 4312 
Q 869 4597 1183 4759 
Q 1497 4922 1875 4922 
Q 2256 4922 2572 4761 
Q 2888 4600 3063 4315 
Q 3238 4031 3238 3684 
Q 3238 3366 3058 3086 
Q 2878 2806 2559 2625 
Q 2953 2472 3200 2119 
Q 3447 1766 3447 1350 
Q 3447 938 3250 611 
Q 3053 284 2690 103 
Q 2328 -78 1875 -78 
Q 1425 -78 1065 103 
Q 706 284 506 612 
Q 306 941 306 1350 
z
M 906 1378 
Q 906 947 1172 687 
Q 1438 428 1878 428 
Q 2309 428 2582 692 
Q 2856 956 2856 1378 
Q 2856 1778 2579 2051 
Q 2303 2325 1878 2325 
Q 1456 2325 1181 2058 
Q 906 1791 906 1378 
z
M 1081 3634 
Q 1081 3309 1312 3076 
Q 1544 2844 1878 2844 
Q 2206 2844 2445 3078 
Q 2684 3313 2684 3634 
Q 2684 3963 2454 4191 
Q 2225 4419 1878 4419 
Q 1534 4419 1307 4195 
Q 1081 3972 1081 3634 
z
" transform="scale(0.015625)"/>
      <path id="MicrosoftYaHei-41" d="M 4428 0 
L 3738 0 
L 3244 1325 
L 1228 1325 
L 763 0 
L 72 0 
L 1916 4841 
L 2584 4841 
L 4428 0 
z
M 3050 1872 
L 2319 3884 
Q 2284 3981 2244 4222 
L 2228 4222 
Q 2194 4003 2150 3884 
L 1425 1872 
L 3050 1872 
z
" transform="scale(0.015625)"/>
      <path id="MicrosoftYaHei-8d8b" d="M 81 -372 
Q 575 491 619 2241 
L 1081 2216 
Q 1063 1606 991 1084 
Q 1203 625 1556 334 
L 1556 2622 
L 144 2622 
L 144 3072 
L 1319 3072 
L 1319 3972 
L 300 3972 
L 300 4422 
L 1319 4422 
L 1319 5309 
L 1788 5309 
L 1788 4422 
L 2706 4422 
L 2706 3972 
L 1788 3972 
L 1788 3072 
L 2863 3072 
L 2863 2622 
L 2019 2622 
L 2019 1647 
L 2881 1647 
L 2881 1197 
L 2019 1197 
L 2019 50 
Q 2494 -156 3131 -166 
Q 4519 -184 6313 -141 
Q 6219 -353 6138 -634 
Q 4338 -647 2938 -616 
Q 1428 -578 884 475 
Q 713 -313 394 -853 
Q 263 -591 81 -372 
z
M 2931 928 
L 5350 928 
L 5350 1791 
L 3144 1791 
L 3144 2216 
L 5350 2216 
L 5350 3059 
L 3088 3059 
L 3088 3481 
Q 3006 3375 2925 3278 
Q 2800 3434 2606 3622 
Q 3231 4347 3663 5353 
L 4119 5197 
Q 4013 4981 3906 4778 
L 5525 4778 
L 5525 4347 
L 5025 3484 
L 5819 3484 
L 5819 278 
L 5350 278 
L 5350 503 
L 2931 503 
L 2931 928 
z
M 3088 3484 
L 4500 3484 
L 4994 4353 
L 3669 4353 
Q 3388 3875 3088 3484 
z
" transform="scale(0.015625)"/>
      <path id="MicrosoftYaHei-52bf" d="M 531 1472 
L 2522 1472 
Q 2544 1653 2544 1859 
L 3031 1859 
Q 3025 1656 3006 1472 
L 5550 1472 
Q 5506 709 5450 128 
Q 5375 -666 4475 -672 
Q 4019 -678 3269 -659 
Q 3231 -397 3163 -116 
Q 3906 -178 4463 -178 
Q 4925 -178 4969 222 
Q 5006 516 5038 1047 
L 2934 1047 
Q 2784 388 2400 28 
Q 1806 -541 469 -853 
Q 344 -647 169 -391 
Q 1519 -116 2031 372 
Q 2313 622 2438 1047 
L 531 1047 
L 531 1472 
z
M 2663 3347 
L 2881 3697 
Q 3144 3566 3388 3441 
Q 3472 3706 3500 4097 
L 2819 4097 
L 2819 4522 
L 3513 4522 
L 3513 5347 
L 3963 5347 
L 3963 4522 
L 5288 4522 
Q 5288 3303 5350 2853 
Q 5419 2347 5625 2347 
Q 5744 2347 5800 2641 
Q 5850 2928 5869 3322 
Q 6088 3228 6306 3153 
Q 6275 2772 6225 2509 
Q 6100 1816 5613 1816 
Q 5056 1816 4919 2584 
Q 4838 3066 4838 4097 
L 3950 4097 
Q 3922 3575 3806 3216 
Q 4247 2969 4606 2741 
L 4338 2322 
Q 4000 2559 3613 2797 
Q 3291 2284 2344 1772 
Q 2206 1978 2019 2172 
Q 2891 2600 3194 3047 
Q 2938 3197 2663 3347 
z
M 250 3184 
Q 616 3244 1313 3378 
L 1313 4041 
L 313 4041 
L 313 4466 
L 1313 4466 
L 1313 5353 
L 1763 5353 
L 1763 4466 
L 2513 4466 
L 2513 4041 
L 1763 4041 
L 1763 3469 
Q 2109 3538 2525 3622 
Q 2538 3284 2544 3178 
Q 2147 3100 1763 3022 
L 1763 2384 
Q 1763 1766 1163 1759 
Q 894 1753 500 1766 
Q 475 2016 425 2222 
Q 831 2191 1075 2191 
Q 1313 2191 1313 2441 
L 1313 2925 
Q 828 2819 363 2709 
L 250 3184 
z
" transform="scale(0.015625)"/>
      <path id="MicrosoftYaHei-8c03" d="M 2600 4509 
L 2600 1941 
Q 2600 109 1606 -841 
Q 1450 -616 1281 -441 
Q 2144 384 2144 1891 
L 2144 4934 
L 5994 4934 
L 5994 -66 
Q 5994 -759 5356 -759 
Q 4988 -759 4369 -741 
Q 4338 -509 4275 -259 
Q 4938 -303 5225 -303 
Q 5538 -303 5538 28 
L 5538 4509 
L 2600 4509 
z
M 3081 1884 
L 4994 1884 
L 4994 291 
L 3519 291 
L 3519 3 
L 3081 3 
L 3081 1884 
z
M 2794 2791 
L 3844 2791 
L 3844 3366 
L 2969 3366 
L 2969 3766 
L 3844 3766 
L 3844 4359 
L 4294 4359 
L 4294 3766 
L 5156 3766 
L 5156 3366 
L 4294 3366 
L 4294 2791 
L 5344 2791 
L 5344 2391 
L 2794 2391 
L 2794 2791 
z
M 1944 1466 
Q 1956 1184 1988 922 
Q 1338 447 863 28 
L 575 434 
Q 781 659 781 997 
L 781 2903 
L 100 2903 
L 100 3341 
L 1238 3341 
L 1238 909 
Q 1569 1153 1944 1466 
z
M 4556 1484 
L 3519 1484 
L 3519 691 
L 4556 691 
L 4556 1484 
z
M 863 5197 
Q 1281 4784 1800 4216 
L 1388 3866 
Q 900 4484 506 4897 
L 863 5197 
z
" transform="scale(0.015625)"/>
      <path id="MicrosoftYaHei-6574" d="M 138 -234 
L 1263 -234 
L 1263 891 
L 1713 891 
L 1713 -234 
L 3025 -234 
L 3025 1178 
L 550 1178 
L 550 1578 
L 5800 1578 
L 5800 1178 
L 3475 1178 
L 3475 697 
L 5525 697 
L 5525 297 
L 3475 297 
L 3475 -234 
L 6256 -234 
L 6256 -634 
L 138 -634 
L 138 -234 
z
M 25 2003 
Q 825 2334 1481 2916 
L 913 2916 
L 913 2759 
L 506 2759 
L 506 4109 
L 1650 4109 
L 1650 4491 
L 250 4491 
L 250 4866 
L 1650 4866 
L 1650 5291 
L 2069 5291 
L 2069 4866 
L 3425 4866 
L 3425 4491 
L 2069 4491 
L 2069 4109 
L 3213 4109 
L 3213 2759 
L 2806 2759 
L 2806 2916 
L 2069 2916 
L 2069 2541 
L 2225 2747 
Q 2781 2484 3288 2216 
L 3075 1872 
Q 2550 2184 2069 2397 
L 2069 1722 
L 1650 1722 
L 1650 2647 
Q 1075 2078 288 1647 
Q 175 1803 25 2003 
z
M 3363 2078 
Q 4050 2341 4519 2716 
Q 4144 3134 3938 3716 
Q 3788 3447 3631 3197 
L 3256 3459 
Q 3850 4253 4163 5322 
L 4600 5191 
Q 4481 4872 4356 4572 
L 6263 4572 
L 6263 4172 
L 5850 4172 
Q 5644 3316 5181 2741 
Q 5638 2428 6325 2247 
Q 6169 2047 6013 1778 
Q 5319 2034 4844 2403 
Q 4363 1984 3650 1678 
Q 3525 1859 3363 2078 
z
M 5400 4172 
L 4219 4172 
Q 4394 3484 4838 3022 
Q 5244 3503 5400 4172 
z
M 2806 3266 
L 2806 3759 
L 2069 3759 
L 2069 3266 
L 2806 3266 
z
M 913 3266 
L 1650 3266 
L 1650 3759 
L 913 3759 
L 913 3266 
z
" transform="scale(0.015625)"/>
      <path id="MicrosoftYaHei-578b" d="M 150 3503 
L 1100 3503 
Q 1106 3638 1106 4547 
L 413 4547 
L 413 4959 
L 3675 4959 
L 3675 4547 
L 2994 4547 
L 2994 3503 
L 3881 3503 
L 3881 3091 
L 2994 3091 
L 2994 1747 
L 2538 1747 
L 2538 3091 
L 1528 3091 
Q 1450 2191 638 1534 
Q 475 1716 294 1897 
Q 1013 2453 1066 3091 
L 150 3091 
L 150 3503 
z
M 138 -103 
L 2938 -103 
L 2938 741 
L 706 741 
L 706 1172 
L 2938 1172 
L 2938 1659 
L 3425 1659 
L 3425 1172 
L 5713 1172 
L 5713 741 
L 3425 741 
L 3425 -103 
L 6256 -103 
L 6256 -534 
L 138 -534 
L 138 -103 
z
M 5856 5209 
L 5856 2334 
Q 5856 1672 5200 1659 
Q 4825 1647 4331 1659 
Q 4306 1897 4256 2153 
Q 4781 2122 5044 2122 
Q 5400 2122 5400 2516 
L 5400 5209 
L 5856 5209 
z
M 1556 3503 
L 2538 3503 
L 2538 4547 
L 1563 4547 
Q 1563 3791 1556 3503 
z
M 4138 4859 
L 4588 4859 
L 4588 2697 
L 4138 2697 
L 4138 4859 
z
" transform="scale(0.015625)"/>
      <path id="MicrosoftYaHei-44" d="M 625 0 
L 625 4841 
L 2006 4841 
Q 3106 4841 3836 4200 
Q 4566 3559 4566 2481 
Q 4566 1356 3836 678 
Q 3106 0 1956 0 
L 625 0 
z
M 1250 4284 
L 1250 553 
L 1953 553 
Q 2875 553 3392 1056 
Q 3909 1559 3909 2466 
Q 3909 3372 3378 3828 
Q 2847 4284 1981 4284 
L 1250 4284 
z
" transform="scale(0.015625)"/>
      <path id="MicrosoftYaHei-49" d="M 1250 4841 
L 1250 0 
L 625 0 
L 625 4841 
L 1250 4841 
z
" transform="scale(0.015625)"/>
      <path id="MicrosoftYaHei-4e0e" d="M 1163 2384 
L 1163 2859 
L 1413 5328 
L 1931 5328 
L 1834 4334 
L 6269 4334 
L 6269 3859 
L 1791 3859 
L 1694 2859 
L 5813 2859 
Q 5738 1547 5644 416 
Q 5556 -247 5263 -478 
Q 4981 -703 4322 -703 
Q 3706 -697 2900 -678 
Q 2863 -466 2794 -134 
Q 3744 -203 4213 -209 
Q 5050 -266 5125 447 
Q 5206 1278 5263 2384 
L 1163 2384 
z
M 106 1409 
L 4738 1409 
L 4738 934 
L 106 934 
L 106 1409 
z
" transform="scale(0.015625)"/>
      <path id="MicrosoftYaHei-57fa" d="M 6319 697 
Q 6113 441 5981 247 
Q 5406 519 4925 897 
L 4925 553 
L 3431 553 
L 3431 -97 
L 5875 -97 
L 5875 -503 
L 519 -503 
L 519 -97 
L 2963 -97 
L 2963 553 
L 1450 553 
L 1450 894 
Q 953 478 413 172 
Q 294 341 88 566 
Q 1050 1034 1753 1753 
L 156 1753 
L 156 2159 
L 1400 2159 
L 1400 4253 
L 350 4253 
L 350 4659 
L 1400 4659 
L 1400 5334 
L 1869 5334 
L 1869 4659 
L 4550 4659 
L 4550 5334 
L 5019 5334 
L 5019 4659 
L 6069 4659 
L 6069 4253 
L 5019 4253 
L 5019 2159 
L 6244 2159 
L 6244 1753 
L 4600 1753 
Q 5303 1053 6319 697 
z
M 2963 1553 
L 3431 1553 
L 3431 947 
L 4863 947 
Q 4416 1306 4047 1753 
L 2325 1753 
Q 1934 1309 1513 947 
L 2963 947 
L 2963 1553 
z
M 1869 2159 
L 4550 2159 
L 4550 2603 
L 1869 2603 
L 1869 2159 
z
M 1869 2991 
L 4550 2991 
L 4550 3428 
L 1869 3428 
L 1869 2991 
z
M 1869 3816 
L 4550 3816 
L 4550 4253 
L 1869 4253 
L 1869 3816 
z
" transform="scale(0.015625)"/>
      <path id="MicrosoftYaHei-51c6" d="M 1413 2766 
Q 2313 3866 2869 5334 
L 3331 5172 
Q 3128 4694 2906 4253 
L 6194 4253 
L 6194 3822 
L 4675 3822 
L 4675 2891 
L 6025 2891 
L 6025 2459 
L 4675 2459 
L 4675 1528 
L 6038 1528 
L 6038 1097 
L 4675 1097 
L 4675 78 
L 6275 78 
L 6275 -341 
L 2769 -341 
L 2769 -841 
L 2281 -841 
L 2281 3131 
Q 2034 2738 1769 2384 
Q 1631 2578 1413 2766 
z
M 2769 78 
L 4188 78 
L 4188 1097 
L 2769 1097 
L 2769 78 
z
M 1081 2422 
Q 1325 2291 1556 2209 
Q 1113 916 681 -372 
L 169 -141 
Q 650 1003 1081 2422 
z
M 2769 1528 
L 4188 1528 
L 4188 2459 
L 2769 2459 
L 2769 1528 
z
M 2769 2891 
L 4188 2891 
L 4188 3822 
L 2769 3822 
L 2769 2891 
z
M 531 4991 
Q 1050 4384 1581 3709 
Q 1538 3678 1150 3341 
Q 681 3997 138 4672 
L 531 4991 
z
M 3919 5116 
L 4325 5372 
Q 4569 5072 4881 4622 
L 4450 4334 
Q 4156 4784 3919 5116 
z
" transform="scale(0.015625)"/>
      <path id="MicrosoftYaHei-7ed3" d="M 2625 1709 
L 5925 1709 
L 5925 -828 
L 5438 -828 
L 5438 -441 
L 3113 -441 
L 3113 -828 
L 2625 -828 
L 2625 1709 
z
M 2500 2897 
L 4025 2897 
L 4025 3872 
L 2294 3872 
L 2294 4322 
L 4025 4322 
L 4025 5322 
L 4525 5322 
L 4525 4322 
L 6275 4322 
L 6275 3872 
L 4525 3872 
L 4525 2897 
L 6056 2897 
L 6056 2447 
L 2500 2447 
L 2500 2897 
z
M 894 1566 
Q 1725 1684 2269 1778 
Q 2231 1534 2213 1303 
Q 1519 1203 319 1009 
L 219 1472 
Q 619 1888 1172 2791 
Q 647 2756 219 2722 
L 100 3147 
Q 675 3916 1294 5366 
L 1769 5178 
Q 1094 3853 663 3184 
Q 1025 3194 1419 3206 
Q 1631 3569 1863 3997 
L 2325 3766 
Q 1613 2578 894 1566 
z
M 5438 1272 
L 3113 1272 
L 3113 -3 
L 5438 -3 
L 5438 1272 
z
M 75 91 
Q 1231 316 2331 584 
Q 2313 334 2313 109 
Q 1300 -103 213 -391 
L 75 91 
z
" transform="scale(0.015625)"/>
      <path id="MicrosoftYaHei-679c" d="M 6338 -53 
Q 6100 -309 5944 -522 
Q 4425 -41 3438 1181 
L 3438 -841 
L 2963 -841 
L 2963 1188 
Q 2084 172 450 -603 
Q 300 -416 75 -203 
Q 1550 363 2472 1259 
L 213 1259 
L 213 1709 
L 2963 1709 
L 2963 2384 
L 1306 2384 
L 1306 2141 
L 831 2141 
L 831 5016 
L 5569 5016 
L 5569 2141 
L 5094 2141 
L 5094 2384 
L 3438 2384 
L 3438 1709 
L 6200 1709 
L 6200 1259 
L 3856 1259 
Q 4769 294 6338 -53 
z
M 3438 2809 
L 5094 2809 
L 5094 3497 
L 3438 3497 
L 3438 2809 
z
M 5094 4591 
L 3438 4591 
L 3438 3903 
L 5094 3903 
L 5094 4591 
z
M 1306 2809 
L 2963 2809 
L 2963 3497 
L 1306 3497 
L 1306 2809 
z
M 1306 3903 
L 2963 3903 
L 2963 4591 
L 1306 4591 
L 1306 3903 
z
" transform="scale(0.015625)"/>
      <path id="MicrosoftYaHei-8f83" d="M 694 2234 
L 1438 2234 
L 1438 3603 
L 1875 3603 
L 1875 2234 
L 2513 2234 
L 2513 1828 
L 1875 1828 
L 1875 981 
Q 2288 1031 2688 1084 
Q 2656 847 2644 653 
Q 2294 613 1875 559 
L 1875 -841 
L 1438 -841 
L 1438 506 
Q 844 428 131 334 
L 81 791 
Q 778 856 1438 928 
L 1438 1828 
L 238 1828 
L 238 2222 
Q 575 3156 816 3928 
L 156 3928 
L 156 4347 
L 941 4347 
Q 1103 4891 1206 5347 
L 1688 5247 
Q 1559 4831 1403 4347 
L 2494 4347 
L 2494 3928 
L 1269 3928 
Q 1016 3156 694 2234 
z
M 5525 2341 
Q 5200 1303 4694 644 
Q 5306 69 6331 -247 
Q 6094 -522 5944 -728 
Q 4972 -334 4353 256 
Q 3641 -450 2563 -828 
Q 2481 -666 2263 -384 
Q 3341 -22 4025 619 
Q 3531 1247 3219 2203 
L 3644 2397 
Q 3909 1572 4363 1003 
Q 4813 1622 5063 2497 
L 5525 2341 
z
M 2719 4366 
L 4316 4366 
Q 4109 4728 3806 5116 
L 4188 5359 
Q 4538 4966 4788 4578 
L 4459 4366 
L 6225 4366 
L 6225 3928 
L 2719 3928 
L 2719 4366 
z
M 4663 3422 
L 5006 3722 
Q 5669 3103 6256 2434 
L 5881 2097 
Q 5344 2747 4663 3422 
z
M 3600 3741 
L 4013 3484 
Q 3456 2628 2925 1997 
Q 2706 2191 2544 2297 
Q 3106 2922 3600 3741 
z
" transform="scale(0.015625)"/>
     </defs>
     <use xlink:href="#MicrosoftYaHei-56fe"/>
     <use xlink:href="#MicrosoftYaHei-38" x="100"/>
     <use xlink:href="#MicrosoftYaHei-41" x="158.642578"/>
     <use xlink:href="#MicrosoftYaHei-20" x="229.003906"/>
     <use xlink:href="#MicrosoftYaHei-8d8b" x="258.59375"/>
     <use xlink:href="#MicrosoftYaHei-52bf" x="358.59375"/>
     <use xlink:href="#MicrosoftYaHei-8c03" x="458.59375"/>
     <use xlink:href="#MicrosoftYaHei-6574" x="558.59375"/>
     <use xlink:href="#MicrosoftYaHei-578b" x="658.59375"/>
     <use xlink:href="#MicrosoftYaHei-44" x="758.59375"/>
     <use xlink:href="#MicrosoftYaHei-49" x="834.765625"/>
     <use xlink:href="#MicrosoftYaHei-44" x="864.160156"/>
     <use xlink:href="#MicrosoftYaHei-4e0e" x="940.332031"/>
     <use xlink:href="#MicrosoftYaHei-57fa" x="1040.332031"/>
     <use xlink:href="#MicrosoftYaHei-51c6" x="1140.332031"/>
     <use xlink:href="#MicrosoftYaHei-44" x="1240.332031"/>
     <use xlink:href="#MicrosoftYaHei-49" x="1316.503906"/>
     <use xlink:href="#MicrosoftYaHei-44" x="1345.898438"/>
     <use xlink:href="#MicrosoftYaHei-7ed3" x="1422.070312"/>
     <use xlink:href="#MicrosoftYaHei-679c" x="1522.070312"/>
     <use xlink:href="#MicrosoftYaHei-6bd4" x="1622.070312"/>
     <use xlink:href="#MicrosoftYaHei-8f83" x="1722.070312"/>
    </g>
   </g>
   <g id="legend_1">
    <g id="line2d_33">
     <path d="M 482.347188 34.6875 
L 492.347188 34.6875 
L 502.347188 34.6875 
" style="fill: none; stroke: #000000; stroke-linecap: square"/>
    </g>
    <g id="text_11">
     <!-- 基准 DID -->
     <g transform="translate(510.347188 38.1875) scale(0.1 -0.1)">
      <use xlink:href="#MicrosoftYaHei-57fa"/>
      <use xlink:href="#MicrosoftYaHei-51c6" x="100"/>
      <use xlink:href="#MicrosoftYaHei-20" x="200"/>
      <use xlink:href="#MicrosoftYaHei-44" x="229.589844"/>
      <use xlink:href="#MicrosoftYaHei-49" x="305.761719"/>
      <use xlink:href="#MicrosoftYaHei-44" x="335.15625"/>
     </g>
    </g>
    <g id="LineCollection_7">
     <path d="M 487.347188 50.167187 
L 497.347188 50.167187 
" style="fill: none; stroke: #1f4e79; stroke-width: 1.5"/>
    </g>
    <g id="line2d_34">
     <g>
      <use xlink:href="#mca7c8d6981" x="487.347188" y="50.167187" style="fill: #1f4e79; stroke: #1f4e79"/>
     </g>
    </g>
    <g id="line2d_35">
     <g>
      <use xlink:href="#mca7c8d6981" x="497.347188" y="50.167187" style="fill: #1f4e79; stroke: #1f4e79"/>
     </g>
    </g>
    <g id="line2d_36"/>
    <g id="line2d_37">
     <g>
      <use xlink:href="#mdbf089406d" x="492.347188" y="50.167187" style="fill: #1f4e79; stroke: #1f4e79"/>
     </g>
    </g>
    <g id="text_12">
     <!-- 趋势调整型 DID -->
     <g transform="translate(510.347188 53.667187) scale(0.1 -0.1)">
      <use xlink:href="#MicrosoftYaHei-8d8b"/>
      <use xlink:href="#MicrosoftYaHei-52bf" x="100"/>
      <use xlink:href="#MicrosoftYaHei-8c03" x="200"/>
      <use xlink:href="#MicrosoftYaHei-6574" x="300"/>
      <use xlink:href="#MicrosoftYaHei-578b" x="400"/>
      <use xlink:href="#MicrosoftYaHei-20" x="500"/>
      <use xlink:href="#MicrosoftYaHei-44" x="529.589844"/>
      <use xlink:href="#MicrosoftYaHei-49" x="605.761719"/>
      <use xlink:href="#MicrosoftYaHei-44" x="635.15625"/>
     </g>
    </g>
   </g>
  </g>
 </g>
 <defs>
  <clipPath id="pa43c1cba99">
   <rect x="94.2" y="21.19375" width="496.28" height="276.5575"/>
  </clipPath>
 </defs>
</svg>
