<?xml version="1.0" encoding="utf-8" standalone="no"?>
<!DOCTYPE svg PUBLIC "-//W3C//DTD SVG 1.1//EN"
  "http://www.w3.org/Graphics/SVG/1.1/DTD/svg11.dtd">
<svg xmlns:xlink="http://www.w3.org/1999/xlink" width="612.696875pt" height="336.383438pt" viewBox="0 0 612.696875 336.383438" xmlns="http://www.w3.org/2000/svg" version="1.1">
 <metadata>
  <rdf:RDF xmlns:dc="http://purl.org/dc/elements/1.1/" xmlns:cc="http://creativecommons.org/ns#" xmlns:rdf="http://www.w3.org/1999/02/22-rdf-syntax-ns#">
   <cc:Work>
    <dc:type rdf:resource="http://purl.org/dc/dcmitype/StillImage"/>
    <dc:date>2026-04-20T18:50:04.257531</dc:date>
    <dc:format>image/svg+xml</dc:format>
    <dc:creator>
     <cc:Agent>
      <dc:title>Matplotlib v3.10.8, https://matplotlib.org/</dc:title>
     </cc:Agent>
    </dc:creator>
   </cc:Work>
  </rdf:RDF>
 </metadata>
 <defs>
  <style type="text/css">*{stroke-linejoin: round; stroke-linecap: butt}</style>
 </defs>
 <g id="figure_1">
  <g id="patch_1">
   <path d="M 0 336.383438
L 612.696875 336.383438
L 612.696875 0
L 0 0
z
" style="fill: #ffffff"/>
  </g>
  <g id="axes_1">
   <g id="patch_2">
    <path d="M 135.496875 297.84125
L 605.496875 297.84125
L 605.496875 21.19375
L 135.496875 21.19375
z
" style="fill: #ffffff"/>
   </g>
   <g id="matplotlib.axis_1">
    <g id="xtick_1">
     <g id="line2d_1">
      <path d="M 151.737927 297.84125
L 151.737927 21.19375
" clip-path="url(#pa8ce7394c3)" style="fill: none; stroke: #b0b0b0; stroke-opacity: 0.2; stroke-width: 0.8; stroke-linecap: square"/>
     </g>
     <g id="line2d_2">
      <defs>
       <path id="md84f15a26c" d="M 0 0
L 0 3.5
" style="stroke: #000000; stroke-width: 0.8"/>
      </defs>
      <g>
       <use xlink:href="#md84f15a26c" x="151.737927" y="297.84125" style="stroke: #000000; stroke-width: 0.8"/>
      </g>
     </g>
     <g id="text_1">
      <!-- -1.0 -->
      <g transform="translate(141.982458 312.439687) scale(0.1 -0.1)">
       <defs>
        <path id="DejaVuSans-2d" d="M 313 2009
L 1997 2009
L 1997 1497
L 313 1497
L 313 2009
z
" transform="scale(0.015625)"/>
        <path id="DejaVuSans-31" d="M 794 531
L 1825 531
L 1825 4091
L 703 3866
L 703 4441
L 1819 4666
L 2450 4666
L 2450 531
L 3481 531
L 3481 0
L 794 0
L 794 531
z
" transform="scale(0.015625)"/>
        <path id="DejaVuSans-2e" d="M 684 794
L 1344 794
L 1344 0
L 684 0
L 684 794
z
" transform="scale(0.015625)"/>
        <path id="DejaVuSans-30" d="M 2034 4250
Q 1547 4250 1301 3770
Q 1056 3291 1056 2328
Q 1056 1369 1301 889
Q 1547 409 2034 409
Q 2525 409 2770 889
Q 3016 1369 3016 2328
Q 3016 3291 2770 3770
Q 2525 4250 2034 4250
z
M 2034 4750
Q 2819 4750 3233 4129
Q 3647 3509 3647 2328
Q 3647 1150 3233 529
Q 2819 -91 2034 -91
Q 1250 -91 836 529
Q 422 1150 422 2328
Q 422 3509 836 4129
Q 1250 4750 2034 4750
z
" transform="scale(0.015625)"/>
       </defs>
       <use xlink:href="#DejaVuSans-2d"/>
       <use xlink:href="#DejaVuSans-31" transform="translate(36.083984 0)"/>
       <use xlink:href="#DejaVuSans-2e" transform="translate(99.707031 0)"/>
       <use xlink:href="#DejaVuSans-30" transform="translate(131.494141 0)"/>
      </g>
     </g>
    </g>
    <g id="xtick_2">
     <g id="line2d_3">
      <path d="M 243.688552 297.84125
L 243.688552 21.19375
" clip-path="url(#pa8ce7394c3)" style="fill: none; stroke: #b0b0b0; stroke-opacity: 0.2; stroke-width: 0.8; stroke-linecap: square"/>
     </g>
     <g id="line2d_4">
      <g>
       <use xlink:href="#md84f15a26c" x="243.688552" y="297.84125" style="stroke: #000000; stroke-width: 0.8"/>
      </g>
     </g>
     <g id="text_2">
      <!-- -0.5 -->
      <g transform="translate(233.933083 312.439687) scale(0.1 -0.1)">
       <defs>
        <path id="DejaVuSans-35" d="M 691 4666
L 3169 4666
L 3169 4134
L 1269 4134
L 1269 2991
Q 1406 3038 1543 3061
Q 1681 3084 1819 3084
Q 2600 3084 3056 2656
Q 3513 2228 3513 1497
Q 3513 744 3044 326
Q 2575 -91 1722 -91
Q 1428 -91 1123 -41
Q 819 9 494 109
L 494 744
Q 775 591 1075 516
Q 1375 441 1709 441
Q 2250 441 2565 725
Q 2881 1009 2881 1497
Q 2881 1984 2565 2268
Q 2250 2553 1709 2553
Q 1456 2553 1204 2497
Q 953 2441 691 2322
L 691 4666
z
" transform="scale(0.015625)"/>
       </defs>
       <use xlink:href="#DejaVuSans-2d"/>
       <use xlink:href="#DejaVuSans-30" transform="translate(36.083984 0)"/>
       <use xlink:href="#DejaVuSans-2e" transform="translate(99.707031 0)"/>
       <use xlink:href="#DejaVuSans-35" transform="translate(131.494141 0)"/>
      </g>
     </g>
    </g>
    <g id="xtick_3">
     <g id="line2d_5">
      <path d="M 335.639177 297.84125
L 335.639177 21.19375
" clip-path="url(#pa8ce7394c3)" style="fill: none; stroke: #b0b0b0; stroke-opacity: 0.2; stroke-width: 0.8; stroke-linecap: square"/>
     </g>
     <g id="line2d_6">
      <g>
       <use xlink:href="#md84f15a26c" x="335.639177" y="297.84125" style="stroke: #000000; stroke-width: 0.8"/>
      </g>
     </g>
     <g id="text_3">
      <!-- 0.0 -->
      <g transform="translate(327.687614 312.439687) scale(0.1 -0.1)">
       <use xlink:href="#DejaVuSans-30"/>
       <use xlink:href="#DejaVuSans-2e" transform="translate(63.623047 0)"/>
       <use xlink:href="#DejaVuSans-30" transform="translate(95.410156 0)"/>
      </g>
     </g>
    </g>
    <g id="xtick_4">
     <g id="line2d_7">
      <path d="M 427.589802 297.84125
L 427.589802 21.19375
" clip-path="url(#pa8ce7394c3)" style="fill: none; stroke: #b0b0b0; stroke-opacity: 0.2; stroke-width: 0.8; stroke-linecap: square"/>
     </g>
     <g id="line2d_8">
      <g>
       <use xlink:href="#md84f15a26c" x="427.589802" y="297.84125" style="stroke: #000000; stroke-width: 0.8"/>
      </g>
     </g>
     <g id="text_4">
      <!-- 0.5 -->
      <g transform="translate(419.638239 312.439687) scale(0.1 -0.1)">
       <use xlink:href="#DejaVuSans-30"/>
       <use xlink:href="#DejaVuSans-2e" transform="translate(63.623047 0)"/>
       <use xlink:href="#DejaVuSans-35" transform="translate(95.410156 0)"/>
      </g>
     </g>
    </g>
    <g id="xtick_5">
     <g id="line2d_9">
      <path d="M 519.540426 297.84125
L 519.540426 21.19375
" clip-path="url(#pa8ce7394c3)" style="fill: none; stroke: #b0b0b0; stroke-opacity: 0.2; stroke-width: 0.8; stroke-linecap: square"/>
     </g>
     <g id="line2d_10">
      <g>
       <use xlink:href="#md84f15a26c" x="519.540426" y="297.84125" style="stroke: #000000; stroke-width: 0.8"/>
      </g>
     </g>
     <g id="text_5">
      <!-- 1.0 -->
      <g transform="translate(511.588864 312.439687) scale(0.1 -0.1)">
       <use xlink:href="#DejaVuSans-31"/>
       <use xlink:href="#DejaVuSans-2e" transform="translate(63.623047 0)"/>
       <use xlink:href="#DejaVuSans-30" transform="translate(95.410156 0)"/>
      </g>
     </g>
    </g>
    <g id="text_6">
     <!-- Coefficient on treat_share (95% confidence interval) -->
     <g transform="translate(247.060937 326.630313) scale(0.1 -0.1)">
      <defs>
       <path id="MicrosoftYaHei-43" d="M 3938 200
Q 3403 -81 2597 -81
Q 1556 -81 934 580
Q 313 1241 313 2328
Q 313 3497 1013 4209
Q 1713 4922 2791 4922
Q 3484 4922 3938 4725
L 3938 4072
Q 3419 4359 2797 4359
Q 1988 4359 1478 3820
Q 969 3281 969 2366
Q 969 1497 1444 986
Q 1919 475 2688 475
Q 3406 475 3938 800
L 3938 200
z
" transform="scale(0.015625)"/>
       <path id="MicrosoftYaHei-6f" d="M 316 1691
Q 316 2547 794 3042
Q 1272 3538 2091 3538
Q 2869 3538 3311 3061
Q 3753 2584 3753 1744
Q 3753 925 3281 422
Q 2809 -81 2016 -81
Q 1241 -81 778 406
Q 316 894 316 1691
z
M 941 1709
Q 941 1113 1242 769
Q 1544 425 2053 425
Q 2578 425 2853 761
Q 3128 1097 3128 1725
Q 3128 2356 2853 2693
Q 2578 3031 2053 3031
Q 1538 3031 1239 2678
Q 941 2325 941 1709
z
" transform="scale(0.015625)"/>
       <path id="MicrosoftYaHei-65" d="M 3363 1572
L 944 1572
Q 959 1019 1246 717
Q 1534 416 2050 416
Q 2631 416 3116 788
L 3116 241
Q 2659 -81 1906 -81
Q 1156 -81 736 394
Q 316 869 316 1713
Q 316 2506 777 3022
Q 1238 3538 1922 3538
Q 2600 3538 2981 3102
Q 3363 2666 3363 1881
L 3363 1572
z
M 2750 2063
Q 2747 2531 2528 2787
Q 2309 3044 1913 3044
Q 1547 3044 1280 2772
Q 1013 2500 944 2063
L 2750 2063
z
" transform="scale(0.015625)"/>
       <path id="MicrosoftYaHei-66" d="M 2319 4594
Q 2147 4684 1947 4684
Q 1372 4684 1372 3972
L 1372 3456
L 2181 3456
L 2181 2950
L 1372 2950
L 1372 0
L 766 0
L 766 2950
L 175 2950
L 175 3456
L 766 3456
L 766 4000
Q 766 4556 1086 4873
Q 1406 5191 1900 5191
Q 2163 5191 2319 5131
L 2319 4594
z
" transform="scale(0.015625)"/>
       <path id="MicrosoftYaHei-69" d="M 472 4675
Q 472 4838 583 4948
Q 694 5059 856 5059
Q 1022 5059 1136 4950
Q 1250 4841 1250 4675
Q 1250 4513 1136 4405
Q 1022 4297 856 4297
Q 691 4297 581 4405
Q 472 4513 472 4675
z
M 544 0
L 544 3456
L 1156 3456
L 1156 0
L 544 0
z
" transform="scale(0.015625)"/>
       <path id="MicrosoftYaHei-63" d="M 2934 156
Q 2538 -81 1978 -81
Q 1228 -81 772 400
Q 316 881 316 1647
Q 316 2497 808 3017
Q 1300 3538 2125 3538
Q 2600 3538 2938 3369
L 2938 2763
Q 2572 3031 2125 3031
Q 1600 3031 1270 2667
Q 941 2303 941 1697
Q 941 1100 1252 762
Q 1563 425 2091 425
Q 2538 425 2934 719
L 2934 156
z
" transform="scale(0.015625)"/>
       <path id="MicrosoftYaHei-6e" d="M 3469 0
L 2859 0
L 2859 1966
Q 2859 3031 2081 3031
Q 1678 3031 1418 2731
Q 1159 2431 1159 1972
L 1159 0
L 547 0
L 547 3456
L 1159 3456
L 1159 2884
L 1172 2884
Q 1563 3538 2306 3538
Q 2875 3538 3172 3173
Q 3469 2809 3469 2113
L 3469 0
z
" transform="scale(0.015625)"/>
       <path id="MicrosoftYaHei-74" d="M 2206 34
Q 2006 -75 1666 -75
Q 738 -75 738 953
L 738 2950
L 144 2950
L 144 3456
L 738 3456
L 738 4288
L 1347 4481
L 1347 3456
L 2206 3456
L 2206 2950
L 1347 2950
L 1347 1063
Q 1347 722 1462 575
Q 1578 428 1847 428
Q 2053 428 2206 544
L 2206 34
z
" transform="scale(0.015625)"/>
       <path id="MicrosoftYaHei-20" transform="scale(0.015625)"/>
       <path id="MicrosoftYaHei-72" d="M 2400 2850
Q 2247 2959 1978 2959
Q 1622 2959 1390 2626
Q 1159 2294 1159 1750
L 1159 0
L 547 0
L 547 3456
L 1159 3456
L 1159 2753
L 1172 2753
Q 1434 3516 2078 3516
Q 2288 3516 2400 3469
L 2400 2850
z
" transform="scale(0.015625)"/>
       <path id="MicrosoftYaHei-61" d="M 628 3216
Q 1144 3538 1819 3538
Q 3069 3538 3069 2225
L 3069 0
L 2463 0
L 2463 534
L 2447 534
Q 2088 -81 1388 -81
Q 884 -81 587 191
Q 291 463 291 925
Q 291 1894 1438 2053
L 2463 2197
Q 2463 3044 1763 3044
Q 1141 3044 628 2625
L 628 3216
z
M 1653 1625
Q 1228 1569 1067 1412
Q 906 1256 906 975
Q 906 728 1081 572
Q 1256 416 1544 416
Q 1944 416 2203 697
Q 2463 978 2463 1403
L 2463 1734
L 1653 1625
z
" transform="scale(0.015625)"/>
       <path id="MicrosoftYaHei-5f" d="M 2869 -1634
L 0 -1634
L 0 -1231
L 2869 -1231
L 2869 -1634
z
" transform="scale(0.015625)"/>
       <path id="MicrosoftYaHei-73" d="M 353 747
Q 816 413 1350 413
Q 2066 413 2066 881
Q 2066 1081 1909 1211
Q 1753 1341 1275 1519
Q 700 1750 528 1976
Q 356 2203 356 2525
Q 356 2984 745 3261
Q 1134 3538 1703 3538
Q 2144 3538 2522 3384
L 2522 2794
Q 2134 3044 1644 3044
Q 1350 3044 1165 2916
Q 981 2788 981 2578
Q 981 2372 1114 2256
Q 1247 2141 1703 1959
Q 2281 1744 2484 1512
Q 2688 1281 2688 941
Q 2688 466 2298 192
Q 1909 -81 1291 -81
Q 753 -81 353 122
L 353 747
z
" transform="scale(0.015625)"/>
       <path id="MicrosoftYaHei-68" d="M 3466 0
L 2856 0
L 2856 1988
Q 2856 3031 2081 3031
Q 1684 3031 1421 2726
Q 1159 2422 1159 1959
L 1159 0
L 547 0
L 547 5116
L 1159 5116
L 1159 2888
L 1172 2888
Q 1569 3538 2300 3538
Q 3466 3538 3466 2128
L 3466 0
z
" transform="scale(0.015625)"/>
       <path id="MicrosoftYaHei-28" d="M 1531 -1100
Q 478 100 478 1847
Q 478 3594 1531 4841
L 2072 4841
Q 1016 3544 1016 1853
Q 1016 166 2066 -1100
L 1531 -1100
z
" transform="scale(0.015625)"/>
       <path id="MicrosoftYaHei-39" d="M 578 656
Q 978 425 1441 425
Q 2091 425 2448 937
Q 2806 1450 2806 2394
Q 2800 2388 2794 2394
Q 2475 1788 1722 1788
Q 1113 1788 713 2206
Q 313 2625 313 3294
Q 313 4006 750 4464
Q 1188 4922 1884 4922
Q 2606 4922 3012 4355
Q 3419 3788 3419 2703
Q 3419 1363 2894 641
Q 2369 -81 1441 -81
Q 931 -81 578 84
L 578 656
z
M 931 3372
Q 931 2884 1181 2598
Q 1431 2313 1872 2313
Q 2253 2313 2512 2573
Q 2772 2834 2772 3206
Q 2772 3728 2514 4070
Q 2256 4413 1834 4413
Q 1444 4413 1187 4116
Q 931 3819 931 3372
z
" transform="scale(0.015625)"/>
       <path id="MicrosoftYaHei-35" d="M 3294 1494
Q 3294 784 2823 350
Q 2353 -84 1559 -84
Q 878 -84 544 119
L 544 744
Q 1034 425 1544 425
Q 2050 425 2361 704
Q 2672 984 2672 1447
Q 2672 1909 2348 2167
Q 2025 2425 1434 2425
Q 978 2425 613 2384
L 791 4841
L 3053 4841
L 3053 4303
L 1306 4303
L 1206 2931
L 1647 2950
Q 2416 2950 2855 2567
Q 3294 2184 3294 1494
z
" transform="scale(0.015625)"/>
       <path id="MicrosoftYaHei-25" d="M 272 3619
Q 272 4213 589 4563
Q 906 4913 1444 4913
Q 1959 4913 2248 4591
Q 2538 4269 2538 3694
Q 2538 3122 2219 2765
Q 1900 2409 1372 2409
Q 872 2409 572 2740
Q 272 3072 272 3619
z
M 753 3650
Q 753 3247 928 3028
Q 1103 2809 1406 2809
Q 1719 2809 1889 3036
Q 2059 3263 2059 3675
Q 2059 4078 1892 4298
Q 1725 4519 1422 4519
Q 1113 4519 933 4289
Q 753 4059 753 3650
z
M 4647 4841
L 1538 -31
L 1016 -31
L 4125 4841
L 4647 4841
z
M 3172 1134
Q 3172 1728 3489 2083
Q 3806 2438 4341 2438
Q 4853 2438 5143 2114
Q 5434 1791 5434 1203
Q 5434 634 5112 279
Q 4791 -75 4272 -75
Q 3769 -75 3470 261
Q 3172 597 3172 1134
z
M 3650 1163
Q 3650 769 3825 548
Q 4000 328 4303 328
Q 4616 328 4786 556
Q 4956 784 4956 1194
Q 4956 1600 4786 1815
Q 4616 2031 4319 2031
Q 4000 2031 3825 1801
Q 3650 1572 3650 1163
z
" transform="scale(0.015625)"/>
       <path id="MicrosoftYaHei-64" d="M 3547 0
L 2934 0
L 2934 575
L 2922 575
Q 2544 -81 1747 -81
Q 1091 -81 703 386
Q 316 853 316 1647
Q 316 2503 753 3020
Q 1191 3538 1897 3538
Q 2603 3538 2922 2988
L 2934 2988
L 2934 5116
L 3547 5116
L 3547 0
z
M 2938 2056
Q 2938 2472 2664 2751
Q 2391 3031 1991 3031
Q 1503 3031 1222 2667
Q 941 2303 941 1675
Q 941 1097 1211 761
Q 1481 425 1931 425
Q 2375 425 2656 754
Q 2938 1084 2938 1575
L 2938 2056
z
" transform="scale(0.015625)"/>
       <path id="MicrosoftYaHei-76" d="M 3331 3456
L 1963 0
L 1344 0
L 44 3456
L 713 3456
L 1556 988
Q 1659 691 1678 491
L 1694 491
Q 1725 753 1803 975
L 2688 3456
L 3331 3456
z
" transform="scale(0.015625)"/>
       <path id="MicrosoftYaHei-6c" d="M 544 0
L 544 5116
L 1156 5116
L 1156 0
L 544 0
z
" transform="scale(0.015625)"/>
       <path id="MicrosoftYaHei-29" d="M 78 -1100
Q 1131 163 1131 1853
Q 1131 3547 72 4841
L 616 4841
Q 1672 3603 1672 1847
Q 1672 91 616 -1100
L 78 -1100
z
" transform="scale(0.015625)"/>
      </defs>
      <use xlink:href="#MicrosoftYaHei-43"/>
      <use xlink:href="#MicrosoftYaHei-6f" transform="translate(66.894531 0)"/>
      <use xlink:href="#MicrosoftYaHei-65" transform="translate(130.46875 0)"/>
      <use xlink:href="#MicrosoftYaHei-66" transform="translate(187.207031 0)"/>
      <use xlink:href="#MicrosoftYaHei-66" transform="translate(221.875 0)"/>
      <use xlink:href="#MicrosoftYaHei-69" transform="translate(256.542969 0)"/>
      <use xlink:href="#MicrosoftYaHei-63" transform="translate(283.154297 0)"/>
      <use xlink:href="#MicrosoftYaHei-69" transform="translate(333.300781 0)"/>
      <use xlink:href="#MicrosoftYaHei-65" transform="translate(359.912109 0)"/>
      <use xlink:href="#MicrosoftYaHei-6e" transform="translate(416.650391 0)"/>
      <use xlink:href="#MicrosoftYaHei-74" transform="translate(478.271484 0)"/>
      <use xlink:href="#MicrosoftYaHei-20" transform="translate(515.527344 0)"/>
      <use xlink:href="#MicrosoftYaHei-6f" transform="translate(545.117188 0)"/>
      <use xlink:href="#MicrosoftYaHei-6e" transform="translate(608.691406 0)"/>
      <use xlink:href="#MicrosoftYaHei-20" transform="translate(670.3125 0)"/>
      <use xlink:href="#MicrosoftYaHei-74" transform="translate(699.902344 0)"/>
      <use xlink:href="#MicrosoftYaHei-72" transform="translate(737.158203 0)"/>
      <use xlink:href="#MicrosoftYaHei-65" transform="translate(773.966797 0)"/>
      <use xlink:href="#MicrosoftYaHei-61" transform="translate(830.705078 0)"/>
      <use xlink:href="#MicrosoftYaHei-74" transform="translate(885.978516 0)"/>
      <use xlink:href="#MicrosoftYaHei-5f" transform="translate(923.234375 0)"/>
      <use xlink:href="#MicrosoftYaHei-73" transform="translate(968.058594 0)"/>
      <use xlink:href="#MicrosoftYaHei-68" transform="translate(1014.347656 0)"/>
      <use xlink:href="#MicrosoftYaHei-61" transform="translate(1075.919922 0)"/>
      <use xlink:href="#MicrosoftYaHei-72" transform="translate(1131.193359 0)"/>
      <use xlink:href="#MicrosoftYaHei-65" transform="translate(1168.001953 0)"/>
      <use xlink:href="#MicrosoftYaHei-20" transform="translate(1224.740234 0)"/>
      <use xlink:href="#MicrosoftYaHei-28" transform="translate(1254.330078 0)"/>
      <use xlink:href="#MicrosoftYaHei-39" transform="translate(1287.728516 0)"/>
      <use xlink:href="#MicrosoftYaHei-35" transform="translate(1346.371094 0)"/>
      <use xlink:href="#MicrosoftYaHei-25" transform="translate(1405.013672 0)"/>
      <use xlink:href="#MicrosoftYaHei-20" transform="translate(1493.978516 0)"/>
      <use xlink:href="#MicrosoftYaHei-63" transform="translate(1523.568359 0)"/>
      <use xlink:href="#MicrosoftYaHei-6f" transform="translate(1573.714844 0)"/>
      <use xlink:href="#MicrosoftYaHei-6e" transform="translate(1637.289062 0)"/>
      <use xlink:href="#MicrosoftYaHei-66" transform="translate(1698.910156 0)"/>
      <use xlink:href="#MicrosoftYaHei-69" transform="translate(1733.578125 0)"/>
      <use xlink:href="#MicrosoftYaHei-64" transform="translate(1760.189453 0)"/>
      <use xlink:href="#MicrosoftYaHei-65" transform="translate(1824.154297 0)"/>
      <use xlink:href="#MicrosoftYaHei-6e" transform="translate(1880.892578 0)"/>
      <use xlink:href="#MicrosoftYaHei-63" transform="translate(1942.513672 0)"/>
      <use xlink:href="#MicrosoftYaHei-65" transform="translate(1992.660156 0)"/>
      <use xlink:href="#MicrosoftYaHei-20" transform="translate(2049.398438 0)"/>
      <use xlink:href="#MicrosoftYaHei-69" transform="translate(2078.988281 0)"/>
      <use xlink:href="#MicrosoftYaHei-6e" transform="translate(2105.599609 0)"/>
      <use xlink:href="#MicrosoftYaHei-74" transform="translate(2167.220703 0)"/>
      <use xlink:href="#MicrosoftYaHei-65" transform="translate(2203.601562 0)"/>
      <use xlink:href="#MicrosoftYaHei-72" transform="translate(2260.339844 0)"/>
      <use xlink:href="#MicrosoftYaHei-76" transform="translate(2302.898438 0)"/>
      <use xlink:href="#MicrosoftYaHei-61" transform="translate(2353.388672 0)"/>
      <use xlink:href="#MicrosoftYaHei-6c" transform="translate(2408.662109 0)"/>
      <use xlink:href="#MicrosoftYaHei-29" transform="translate(2435.273438 0)"/>
     </g>
    </g>
   </g>
   <g id="matplotlib.axis_2">
    <g id="ytick_1">
     <g id="line2d_11">
      <defs>
       <path id="m8dbf3b3cf0" d="M 0 0
L -3.5 0
" style="stroke: #000000; stroke-width: 0.8"/>
      </defs>
      <g>
       <use xlink:href="#m8dbf3b3cf0" x="135.496875" y="47.241729" style="stroke: #000000; stroke-width: 0.8"/>
      </g>
     </g>
     <g id="text_7">
      <!-- Execution-stage share -->
      <g transform="translate(23.351562 51.238604) scale(0.1 -0.1)">
       <defs>
        <path id="MicrosoftYaHei-45" d="M 3228 0
L 625 0
L 625 4841
L 3119 4841
L 3119 4284
L 1250 4284
L 1250 2734
L 2981 2734
L 2981 2181
L 1250 2181
L 1250 553
L 3228 553
L 3228 0
z
" transform="scale(0.015625)"/>
        <path id="MicrosoftYaHei-78" d="M 3163 3456
L 2006 1716
L 3147 0
L 2434 0
L 1775 1100
Q 1722 1188 1625 1369
L 1613 1369
Q 1609 1350 1456 1100
L 784 0
L 81 0
L 1256 1697
L 134 3456
L 847 3456
L 1494 2300
Q 1553 2194 1638 2025
L 1650 2025
L 2491 3456
L 3163 3456
z
" transform="scale(0.015625)"/>
        <path id="MicrosoftYaHei-75" d="M 3400 0
L 2784 0
L 2784 544
L 2772 544
Q 2425 -81 1706 -81
Q 478 -81 478 1388
L 478 3456
L 1084 3456
L 1084 1478
Q 1084 425 1891 425
Q 2291 425 2537 720
Q 2784 1016 2784 1466
L 2784 3456
L 3400 3456
L 3400 0
z
" transform="scale(0.015625)"/>
        <path id="MicrosoftYaHei-2d" d="M 2328 1681
L 488 1681
L 488 2153
L 2328 2153
L 2328 1681
z
" transform="scale(0.015625)"/>
        <path id="MicrosoftYaHei-67" d="M 3547 291
Q 3547 -1628 1684 -1628
Q 1041 -1628 566 -1388
L 566 -797
Q 1144 -1119 1675 -1119
Q 2934 -1119 2934 206
L 2934 572
L 2922 572
Q 2528 -81 1747 -81
Q 1097 -81 706 384
Q 316 850 316 1619
Q 316 2503 747 3020
Q 1178 3538 1897 3538
Q 2588 3538 2922 2988
L 2934 2988
L 2934 3456
L 3547 3456
L 3547 291
z
M 2934 2056
Q 2938 2456 2666 2743
Q 2394 3031 1997 3031
Q 1497 3031 1219 2664
Q 941 2297 941 1656
Q 941 1106 1209 765
Q 1478 425 1922 425
Q 2369 425 2653 750
Q 2938 1075 2934 1575
L 2934 2056
z
" transform="scale(0.015625)"/>
       </defs>
       <use xlink:href="#MicrosoftYaHei-45"/>
       <use xlink:href="#MicrosoftYaHei-78" transform="translate(54.980469 0)"/>
       <use xlink:href="#MicrosoftYaHei-65" transform="translate(104.789062 0)"/>
       <use xlink:href="#MicrosoftYaHei-63" transform="translate(161.527344 0)"/>
       <use xlink:href="#MicrosoftYaHei-75" transform="translate(211.673828 0)"/>
       <use xlink:href="#MicrosoftYaHei-74" transform="translate(273.294922 0)"/>
       <use xlink:href="#MicrosoftYaHei-69" transform="translate(310.550781 0)"/>
       <use xlink:href="#MicrosoftYaHei-6f" transform="translate(337.162109 0)"/>
       <use xlink:href="#MicrosoftYaHei-6e" transform="translate(400.736328 0)"/>
       <use xlink:href="#MicrosoftYaHei-2d" transform="translate(462.357422 0)"/>
       <use xlink:href="#MicrosoftYaHei-73" transform="translate(505.619141 0)"/>
       <use xlink:href="#MicrosoftYaHei-74" transform="translate(551.908203 0)"/>
       <use xlink:href="#MicrosoftYaHei-61" transform="translate(589.164062 0)"/>
       <use xlink:href="#MicrosoftYaHei-67" transform="translate(644.4375 0)"/>
       <use xlink:href="#MicrosoftYaHei-65" transform="translate(708.402344 0)"/>
       <use xlink:href="#MicrosoftYaHei-20" transform="translate(765.140625 0)"/>
       <use xlink:href="#MicrosoftYaHei-73" transform="translate(794.730469 0)"/>
       <use xlink:href="#MicrosoftYaHei-68" transform="translate(841.019531 0)"/>
       <use xlink:href="#MicrosoftYaHei-61" transform="translate(902.591797 0)"/>
       <use xlink:href="#MicrosoftYaHei-72" transform="translate(957.865234 0)"/>
       <use xlink:href="#MicrosoftYaHei-65" transform="translate(994.673828 0)"/>
      </g>
     </g>
    </g>
    <g id="ytick_2">
     <g id="line2d_12">
      <g>
       <use xlink:href="#m8dbf3b3cf0" x="135.496875" y="159.5175" style="stroke: #000000; stroke-width: 0.8"/>
      </g>
     </g>
     <g id="text_8">
      <!-- Procurement-stage share -->
      <g transform="translate(8.567187 163.514375) scale(0.1 -0.1)">
       <defs>
        <path id="MicrosoftYaHei-50" d="M 1250 1809
L 1250 0
L 625 0
L 625 4841
L 2000 4841
Q 2784 4841 3217 4462
Q 3650 4084 3650 3381
Q 3650 2669 3144 2226
Q 2638 1784 1878 1809
L 1250 1809
z
M 1250 4291
L 1250 2359
L 1828 2359
Q 2400 2359 2697 2617
Q 2994 2875 2994 3356
Q 2994 4291 1888 4291
L 1250 4291
z
" transform="scale(0.015625)"/>
        <path id="MicrosoftYaHei-6d" d="M 5522 0
L 4909 0
L 4909 1984
Q 4909 2547 4734 2789
Q 4559 3031 4159 3031
Q 3822 3031 3581 2715
Q 3341 2400 3341 1969
L 3341 0
L 2728 0
L 2728 2047
Q 2728 3031 1969 3031
Q 1619 3031 1389 2731
Q 1159 2431 1159 1966
L 1159 0
L 547 0
L 547 3456
L 1159 3456
L 1159 2909
L 1172 2909
Q 1541 3538 2250 3538
Q 2597 3538 2862 3347
Q 3128 3156 3231 2831
Q 3616 3538 4381 3538
Q 5522 3538 5522 2131
L 5522 0
z
" transform="scale(0.015625)"/>
       </defs>
       <use xlink:href="#MicrosoftYaHei-50"/>
       <use xlink:href="#MicrosoftYaHei-72" transform="translate(61.181641 0)"/>
       <use xlink:href="#MicrosoftYaHei-6f" transform="translate(97.990234 0)"/>
       <use xlink:href="#MicrosoftYaHei-63" transform="translate(161.564453 0)"/>
       <use xlink:href="#MicrosoftYaHei-75" transform="translate(211.710938 0)"/>
       <use xlink:href="#MicrosoftYaHei-72" transform="translate(273.332031 0)"/>
       <use xlink:href="#MicrosoftYaHei-65" transform="translate(310.140625 0)"/>
       <use xlink:href="#MicrosoftYaHei-6d" transform="translate(366.878906 0)"/>
       <use xlink:href="#MicrosoftYaHei-65" transform="translate(460.580078 0)"/>
       <use xlink:href="#MicrosoftYaHei-6e" transform="translate(517.318359 0)"/>
       <use xlink:href="#MicrosoftYaHei-74" transform="translate(578.939453 0)"/>
       <use xlink:href="#MicrosoftYaHei-2d" transform="translate(610.195312 0)"/>
       <use xlink:href="#MicrosoftYaHei-73" transform="translate(653.457031 0)"/>
       <use xlink:href="#MicrosoftYaHei-74" transform="translate(699.746094 0)"/>
       <use xlink:href="#MicrosoftYaHei-61" transform="translate(737.001953 0)"/>
       <use xlink:href="#MicrosoftYaHei-67" transform="translate(792.275391 0)"/>
       <use xlink:href="#MicrosoftYaHei-65" transform="translate(856.240234 0)"/>
       <use xlink:href="#MicrosoftYaHei-20" transform="translate(912.978516 0)"/>
       <use xlink:href="#MicrosoftYaHei-73" transform="translate(942.568359 0)"/>
       <use xlink:href="#MicrosoftYaHei-68" transform="translate(988.857422 0)"/>
       <use xlink:href="#MicrosoftYaHei-61" transform="translate(1050.429688 0)"/>
       <use xlink:href="#MicrosoftYaHei-72" transform="translate(1105.703125 0)"/>
       <use xlink:href="#MicrosoftYaHei-65" transform="translate(1142.511719 0)"/>
      </g>
     </g>
    </g>
    <g id="ytick_3">
     <g id="line2d_13">
      <g>
       <use xlink:href="#m8dbf3b3cf0" x="135.496875" y="271.793271" style="stroke: #000000; stroke-width: 0.8"/>
      </g>
     </g>
     <g id="text_9">
      <!-- Governance quality index -->
      <g transform="translate(7.2 275.790146) scale(0.1 -0.1)">
       <defs>
        <path id="MicrosoftYaHei-47" d="M 4284 331
Q 3559 -81 2647 -81
Q 1597 -81 955 583
Q 313 1247 313 2356
Q 313 3478 1022 4200
Q 1731 4922 2841 4922
Q 3625 4922 4169 4672
L 4169 3997
Q 3588 4363 2784 4363
Q 1994 4363 1481 3822
Q 969 3281 969 2397
Q 969 1488 1441 981
Q 1913 475 2716 475
Q 3269 475 3656 688
L 3656 1997
L 2606 1997
L 2606 2550
L 4284 2550
L 4284 331
z
" transform="scale(0.015625)"/>
        <path id="MicrosoftYaHei-71" d="M 3547 -1591
L 2934 -1591
L 2934 581
L 2922 581
Q 2559 -81 1753 -81
Q 1100 -81 708 380
Q 316 841 316 1647
Q 316 2506 747 3022
Q 1178 3538 1903 3538
Q 2603 3538 2922 2988
L 2934 2988
L 2934 3456
L 3547 3456
L 3547 -1591
z
M 2934 2044
Q 2938 2453 2673 2742
Q 2409 3031 1984 3031
Q 1497 3031 1219 2668
Q 941 2306 941 1663
Q 941 1081 1208 753
Q 1475 425 1909 425
Q 2384 425 2661 751
Q 2938 1078 2934 1566
L 2934 2044
z
" transform="scale(0.015625)"/>
        <path id="MicrosoftYaHei-79" d="M 3359 3456
L 1791 -522
Q 1353 -1628 556 -1628
Q 328 -1628 166 -1578
L 166 -1041
Q 344 -1109 509 -1109
Q 925 -1109 1131 -622
L 1397 6
L 41 3456
L 719 3456
L 1622 859
L 1697 575
L 1713 575
Q 1731 672 1788 853
L 2731 3456
L 3359 3456
z
" transform="scale(0.015625)"/>
       </defs>
       <use xlink:href="#MicrosoftYaHei-47"/>
       <use xlink:href="#MicrosoftYaHei-6f" transform="translate(74.365234 0)"/>
       <use xlink:href="#MicrosoftYaHei-76" transform="translate(137.939453 0)"/>
       <use xlink:href="#MicrosoftYaHei-65" transform="translate(189.804688 0)"/>
       <use xlink:href="#MicrosoftYaHei-72" transform="translate(246.542969 0)"/>
       <use xlink:href="#MicrosoftYaHei-6e" transform="translate(284.476562 0)"/>
       <use xlink:href="#MicrosoftYaHei-61" transform="translate(346.097656 0)"/>
       <use xlink:href="#MicrosoftYaHei-6e" transform="translate(401.371094 0)"/>
       <use xlink:href="#MicrosoftYaHei-63" transform="translate(462.992188 0)"/>
       <use xlink:href="#MicrosoftYaHei-65" transform="translate(513.138672 0)"/>
       <use xlink:href="#MicrosoftYaHei-20" transform="translate(569.876953 0)"/>
       <use xlink:href="#MicrosoftYaHei-71" transform="translate(599.466797 0)"/>
       <use xlink:href="#MicrosoftYaHei-75" transform="translate(663.431641 0)"/>
       <use xlink:href="#MicrosoftYaHei-61" transform="translate(725.052734 0)"/>
       <use xlink:href="#MicrosoftYaHei-6c" transform="translate(780.326172 0)"/>
       <use xlink:href="#MicrosoftYaHei-69" transform="translate(806.9375 0)"/>
       <use xlink:href="#MicrosoftYaHei-74" transform="translate(833.548828 0)"/>
       <use xlink:href="#MicrosoftYaHei-79" transform="translate(870.804688 0)"/>
       <use xlink:href="#MicrosoftYaHei-20" transform="translate(923.734375 0)"/>
       <use xlink:href="#MicrosoftYaHei-69" transform="translate(953.324219 0)"/>
       <use xlink:href="#MicrosoftYaHei-6e" transform="translate(979.935547 0)"/>
       <use xlink:href="#MicrosoftYaHei-64" transform="translate(1041.556641 0)"/>
       <use xlink:href="#MicrosoftYaHei-65" transform="translate(1105.521484 0)"/>
       <use xlink:href="#MicrosoftYaHei-78" transform="translate(1162.259766 0)"/>
      </g>
     </g>
    </g>
   </g>
   <g id="LineCollection_1">
    <path d="M 364.935937 33.768636
L 437.143175 33.768636
" clip-path="url(#pa8ce7394c3)" style="fill: none; stroke: #1f4e79; stroke-width: 1.5"/>
   </g>
   <g id="line2d_14">
    <defs>
     <path id="m8d3213d7cd" d="M 0 3
L 0 -3
" style="stroke: #1f4e79"/>
    </defs>
    <g clip-path="url(#pa8ce7394c3)">
     <use xlink:href="#m8d3213d7cd" x="364.935937" y="33.768636" style="fill: #1f4e79; stroke: #1f4e79"/>
    </g>
   </g>
   <g id="line2d_15">
    <g clip-path="url(#pa8ce7394c3)">
     <use xlink:href="#m8d3213d7cd" x="437.143175" y="33.768636" style="fill: #1f4e79; stroke: #1f4e79"/>
    </g>
   </g>
   <g id="LineCollection_2">
    <path d="M 314.388234 60.714821
L 440.118716 60.714821
" clip-path="url(#pa8ce7394c3)" style="fill: none; stroke: #b22222; stroke-width: 1.5"/>
   </g>
   <g id="line2d_16">
    <defs>
     <path id="m5f66ac4226" d="M 0 3
L 0 -3
" style="stroke: #b22222"/>
    </defs>
    <g clip-path="url(#pa8ce7394c3)">
     <use xlink:href="#m5f66ac4226" x="314.388234" y="60.714821" style="fill: #b22222; stroke: #b22222"/>
    </g>
   </g>
   <g id="line2d_17">
    <g clip-path="url(#pa8ce7394c3)">
     <use xlink:href="#m5f66ac4226" x="440.118716" y="60.714821" style="fill: #b22222; stroke: #b22222"/>
    </g>
   </g>
   <g id="LineCollection_3">
    <path d="M 224.927105 146.044407
L 298.392583 146.044407
" clip-path="url(#pa8ce7394c3)" style="fill: none; stroke: #1f4e79; stroke-width: 1.5"/>
   </g>
   <g id="line2d_18">
    <g clip-path="url(#pa8ce7394c3)">
     <use xlink:href="#m8d3213d7cd" x="224.927105" y="146.044407" style="fill: #1f4e79; stroke: #1f4e79"/>
    </g>
   </g>
   <g id="line2d_19">
    <g clip-path="url(#pa8ce7394c3)">
     <use xlink:href="#m8d3213d7cd" x="298.392583" y="146.044407" style="fill: #1f4e79; stroke: #1f4e79"/>
    </g>
   </g>
   <g id="LineCollection_4">
    <path d="M 206.569008 172.990593
L 335.2036 172.990593
" clip-path="url(#pa8ce7394c3)" style="fill: none; stroke: #b22222; stroke-width: 1.5"/>
   </g>
   <g id="line2d_20">
    <g clip-path="url(#pa8ce7394c3)">
     <use xlink:href="#m5f66ac4226" x="206.569008" y="172.990593" style="fill: #b22222; stroke: #b22222"/>
    </g>
   </g>
   <g id="line2d_21">
    <g clip-path="url(#pa8ce7394c3)">
     <use xlink:href="#m5f66ac4226" x="335.2036" y="172.990593" style="fill: #b22222; stroke: #b22222"/>
    </g>
   </g>
   <g id="LineCollection_5">
    <path d="M 280.350641 258.320179
L 584.133239 258.320179
" clip-path="url(#pa8ce7394c3)" style="fill: none; stroke: #1f4e79; stroke-width: 1.5"/>
   </g>
   <g id="line2d_22">
    <g clip-path="url(#pa8ce7394c3)">
     <use xlink:href="#m8d3213d7cd" x="280.350641" y="258.320179" style="fill: #1f4e79; stroke: #1f4e79"/>
    </g>
   </g>
   <g id="line2d_23">
    <g clip-path="url(#pa8ce7394c3)">
     <use xlink:href="#m8d3213d7cd" x="584.133239" y="258.320179" style="fill: #1f4e79; stroke: #1f4e79"/>
    </g>
   </g>
   <g id="LineCollection_6">
    <path d="M 156.860511 285.266364
L 451.915156 285.266364
" clip-path="url(#pa8ce7394c3)" style="fill: none; stroke: #b22222; stroke-width: 1.5"/>
   </g>
   <g id="line2d_24">
    <g clip-path="url(#pa8ce7394c3)">
     <use xlink:href="#m5f66ac4226" x="156.860511" y="285.266364" style="fill: #b22222; stroke: #b22222"/>
    </g>
   </g>
   <g id="line2d_25">
    <g clip-path="url(#pa8ce7394c3)">
     <use xlink:href="#m5f66ac4226" x="451.915156" y="285.266364" style="fill: #b22222; stroke: #b22222"/>
    </g>
   </g>
   <g id="line2d_26">
    <path d="M 335.639177 297.84125
L 335.639177 21.19375
" clip-path="url(#pa8ce7394c3)" style="fill: none; stroke: #000000; stroke-linecap: square"/>
   </g>
   <g id="line2d_27">
    <defs>
     <path id="mc12f0e5e0a" d="M 0 3
C 0.795609 3 1.55874 2.683901 2.12132 2.12132
C 2.683901 1.55874 3 0.795609 3 0
C 3 -0.795609 2.683901 -1.55874 2.12132 -2.12132
C 1.55874 -2.683901 0.795609 -3 0 -3
C -0.795609 -3 -1.55874 -2.683901 -2.12132 -2.12132
C -2.683901 -1.55874 -3 -0.795609 -3 0
C -3 0.795609 -2.683901 1.55874 -2.12132 2.12132
C -1.55874 2.683901 -0.795609 3 0 3
z
" style="stroke: #1f4e79"/>
    </defs>
    <g clip-path="url(#pa8ce7394c3)">
     <use xlink:href="#mc12f0e5e0a" x="401.039556" y="33.768636" style="fill: #1f4e79; stroke: #1f4e79"/>
    </g>
   </g>
   <g id="line2d_28">
    <defs>
     <path id="m9f3bae1d54" d="M 0 3
C 0.795609 3 1.55874 2.683901 2.12132 2.12132
C 2.683901 1.55874 3 0.795609 3 0
C 3 -0.795609 2.683901 -1.55874 2.12132 -2.12132
C 1.55874 -2.683901 0.795609 -3 0 -3
C -0.795609 -3 -1.55874 -2.683901 -2.12132 -2.12132
C -2.683901 -1.55874 -3 -0.795609 -3 0
C -3 0.795609 -2.683901 1.55874 -2.12132 2.12132
C -1.55874 2.683901 -0.795609 3 0 3
z
" style="stroke: #b22222"/>
    </defs>
    <g clip-path="url(#pa8ce7394c3)">
     <use xlink:href="#m9f3bae1d54" x="377.253475" y="60.714821" style="fill: #b22222; stroke: #b22222"/>
    </g>
   </g>
   <g id="line2d_29">
    <g clip-path="url(#pa8ce7394c3)">
     <use xlink:href="#mc12f0e5e0a" x="261.659844" y="146.044407" style="fill: #1f4e79; stroke: #1f4e79"/>
    </g>
   </g>
   <g id="line2d_30">
    <g clip-path="url(#pa8ce7394c3)">
     <use xlink:href="#m9f3bae1d54" x="270.886304" y="172.990593" style="fill: #b22222; stroke: #b22222"/>
    </g>
   </g>
   <g id="line2d_31">
    <g clip-path="url(#pa8ce7394c3)">
     <use xlink:href="#mc12f0e5e0a" x="432.24194" y="258.320179" style="fill: #1f4e79; stroke: #1f4e79"/>
    </g>
   </g>
   <g id="line2d_32">
    <g clip-path="url(#pa8ce7394c3)">
     <use xlink:href="#m9f3bae1d54" x="304.387834" y="285.266364" style="fill: #b22222; stroke: #b22222"/>
    </g>
   </g>
   <g id="patch_3">
    <path d="M 135.496875 297.84125
L 135.496875 21.19375
" style="fill: none; stroke: #000000; stroke-width: 0.8; stroke-linejoin: miter; stroke-linecap: square"/>
   </g>
   <g id="patch_4">
    <path d="M 605.496875 297.84125
L 605.496875 21.19375
" style="fill: none; stroke: #000000; stroke-width: 0.8; stroke-linejoin: miter; stroke-linecap: square"/>
   </g>
   <g id="patch_5">
    <path d="M 135.496875 297.84125
L 605.496875 297.84125
" style="fill: none; stroke: #000000; stroke-width: 0.8; stroke-linejoin: miter; stroke-linecap: square"/>
   </g>
   <g id="patch_6">
    <path d="M 135.496875 21.19375
L 605.496875 21.19375
" style="fill: none; stroke: #000000; stroke-width: 0.8; stroke-linejoin: miter; stroke-linecap: square"/>
   </g>
   <g id="text_10">
    <!-- Figure 8A. Baseline DID vs trend-adjusted DID -->
    <g transform="translate(260.746094 15.19375) scale(0.1 -0.1)">
     <defs>
      <path id="MicrosoftYaHei-46" d="M 3119 4284
L 1250 4284
L 1250 2666
L 2981 2666
L 2981 2116
L 1250 2116
L 1250 0
L 625 0
L 625 4841
L 3119 4841
L 3119 4284
z
" transform="scale(0.015625)"/>
      <path id="MicrosoftYaHei-38" d="M 306 1350
Q 306 1769 556 2122
Q 806 2475 1200 2625
Q 884 2803 700 3081
Q 516 3359 516 3684
Q 516 4028 692 4312
Q 869 4597 1183 4759
Q 1497 4922 1875 4922
Q 2256 4922 2572 4761
Q 2888 4600 3063 4315
Q 3238 4031 3238 3684
Q 3238 3366 3058 3086
Q 2878 2806 2559 2625
Q 2953 2472 3200 2119
Q 3447 1766 3447 1350
Q 3447 938 3250 611
Q 3053 284 2690 103
Q 2328 -78 1875 -78
Q 1425 -78 1065 103
Q 706 284 506 612
Q 306 941 306 1350
z
M 906 1378
Q 906 947 1172 687
Q 1438 428 1878 428
Q 2309 428 2582 692
Q 2856 956 2856 1378
Q 2856 1778 2579 2051
Q 2303 2325 1878 2325
Q 1456 2325 1181 2058
Q 906 1791 906 1378
z
M 1081 3634
Q 1081 3309 1312 3076
Q 1544 2844 1878 2844
Q 2206 2844 2445 3078
Q 2684 3313 2684 3634
Q 2684 3963 2454 4191
Q 2225 4419 1878 4419
Q 1534 4419 1307 4195
Q 1081 3972 1081 3634
z
" transform="scale(0.015625)"/>
      <path id="MicrosoftYaHei-41" d="M 4428 0
L 3738 0
L 3244 1325
L 1228 1325
L 763 0
L 72 0
L 1916 4841
L 2584 4841
L 4428 0
z
M 3050 1872
L 2319 3884
Q 2284 3981 2244 4222
L 2228 4222
Q 2194 4003 2150 3884
L 1425 1872
L 3050 1872
z
" transform="scale(0.015625)"/>
      <path id="MicrosoftYaHei-2e" d="M 372 322
Q 372 491 487 606
Q 603 722 775 722
Q 950 722 1065 605
Q 1181 488 1181 322
Q 1181 159 1065 42
Q 950 -75 772 -75
Q 600 -75 486 42
Q 372 159 372 322
z
" transform="scale(0.015625)"/>
      <path id="MicrosoftYaHei-42" d="M 625 0
L 625 4841
L 2047 4841
Q 2684 4841 3065 4536
Q 3447 4231 3447 3728
Q 3447 3328 3220 3022
Q 2994 2716 2597 2588
L 2597 2575
Q 3091 2519 3386 2201
Q 3681 1884 3681 1397
Q 3681 772 3232 386
Q 2784 0 2084 0
L 625 0
z
M 1250 4294
L 1250 2778
L 1819 2778
Q 2272 2778 2530 2998
Q 2788 3219 2788 3609
Q 2788 4294 1875 4294
L 1250 4294
z
M 1250 2234
L 1250 547
L 2000 547
Q 2491 547 2758 773
Q 3025 1000 3025 1403
Q 3025 2234 1897 2234
L 1250 2234
z
" transform="scale(0.015625)"/>
      <path id="MicrosoftYaHei-44" d="M 625 0
L 625 4841
L 2006 4841
Q 3106 4841 3836 4200
Q 4566 3559 4566 2481
Q 4566 1356 3836 678
Q 3106 0 1956 0
L 625 0
z
M 1250 4284
L 1250 553
L 1953 553
Q 2875 553 3392 1056
Q 3909 1559 3909 2466
Q 3909 3372 3378 3828
Q 2847 4284 1981 4284
L 1250 4284
z
" transform="scale(0.015625)"/>
      <path id="MicrosoftYaHei-49" d="M 1250 4841
L 1250 0
L 625 0
L 625 4841
L 1250 4841
z
" transform="scale(0.015625)"/>
      <path id="MicrosoftYaHei-6a" d="M 475 4675
Q 475 4838 584 4948
Q 694 5059 859 5059
Q 1028 5059 1140 4950
Q 1253 4841 1253 4675
Q 1253 4516 1139 4406
Q 1025 4297 859 4297
Q 694 4297 584 4408
Q 475 4519 475 4675
z
M 1159 134
Q 1159 -706 811 -1167
Q 463 -1628 -178 -1628
Q -416 -1628 -644 -1519
L -644 -966
Q -400 -1116 -181 -1116
Q 547 -1116 547 44
L 547 3456
L 1159 3456
L 1159 134
z
" transform="scale(0.015625)"/>
     </defs>
     <use xlink:href="#MicrosoftYaHei-46"/>
     <use xlink:href="#MicrosoftYaHei-69" transform="translate(53.125 0)"/>
     <use xlink:href="#MicrosoftYaHei-67" transform="translate(79.736328 0)"/>
     <use xlink:href="#MicrosoftYaHei-75" transform="translate(143.701172 0)"/>
     <use xlink:href="#MicrosoftYaHei-72" transform="translate(205.322266 0)"/>
     <use xlink:href="#MicrosoftYaHei-65" transform="translate(242.130859 0)"/>
     <use xlink:href="#MicrosoftYaHei-20" transform="translate(298.869141 0)"/>
     <use xlink:href="#MicrosoftYaHei-38" transform="translate(328.458984 0)"/>
     <use xlink:href="#MicrosoftYaHei-41" transform="translate(387.101562 0)"/>
     <use xlink:href="#MicrosoftYaHei-2e" transform="translate(457.462891 0)"/>
     <use xlink:href="#MicrosoftYaHei-20" transform="translate(481.535156 0)"/>
     <use xlink:href="#MicrosoftYaHei-42" transform="translate(511.125 0)"/>
     <use xlink:href="#MicrosoftYaHei-61" transform="translate(573.869141 0)"/>
     <use xlink:href="#MicrosoftYaHei-73" transform="translate(629.142578 0)"/>
     <use xlink:href="#MicrosoftYaHei-65" transform="translate(675.431641 0)"/>
     <use xlink:href="#MicrosoftYaHei-6c" transform="translate(732.169922 0)"/>
     <use xlink:href="#MicrosoftYaHei-69" transform="translate(758.78125 0)"/>
     <use xlink:href="#MicrosoftYaHei-6e" transform="translate(785.392578 0)"/>
     <use xlink:href="#MicrosoftYaHei-65" transform="translate(847.013672 0)"/>
     <use xlink:href="#MicrosoftYaHei-20" transform="translate(903.751953 0)"/>
     <use xlink:href="#MicrosoftYaHei-44" transform="translate(933.341797 0)"/>
     <use xlink:href="#MicrosoftYaHei-49" transform="translate(1009.513672 0)"/>
     <use xlink:href="#MicrosoftYaHei-44" transform="translate(1038.908203 0)"/>
     <use xlink:href="#MicrosoftYaHei-20" transform="translate(1115.080078 0)"/>
     <use xlink:href="#MicrosoftYaHei-76" transform="translate(1144.669922 0)"/>
     <use xlink:href="#MicrosoftYaHei-73" transform="translate(1197.160156 0)"/>
     <use xlink:href="#MicrosoftYaHei-20" transform="translate(1243.449219 0)"/>
     <use xlink:href="#MicrosoftYaHei-74" transform="translate(1273.039062 0)"/>
     <use xlink:href="#MicrosoftYaHei-72" transform="translate(1310.294922 0)"/>
     <use xlink:href="#MicrosoftYaHei-65" transform="translate(1347.103516 0)"/>
     <use xlink:href="#MicrosoftYaHei-6e" transform="translate(1403.841797 0)"/>
     <use xlink:href="#MicrosoftYaHei-64" transform="translate(1465.462891 0)"/>
     <use xlink:href="#MicrosoftYaHei-2d" transform="translate(1529.427734 0)"/>
     <use xlink:href="#MicrosoftYaHei-61" transform="translate(1572.689453 0)"/>
     <use xlink:href="#MicrosoftYaHei-64" transform="translate(1627.962891 0)"/>
     <use xlink:href="#MicrosoftYaHei-6a" transform="translate(1691.927734 0)"/>
     <use xlink:href="#MicrosoftYaHei-75" transform="translate(1718.636719 0)"/>
     <use xlink:href="#MicrosoftYaHei-73" transform="translate(1780.257812 0)"/>
     <use xlink:href="#MicrosoftYaHei-74" transform="translate(1826.546875 0)"/>
     <use xlink:href="#MicrosoftYaHei-65" transform="translate(1862.927734 0)"/>
     <use xlink:href="#MicrosoftYaHei-64" transform="translate(1919.666016 0)"/>
     <use xlink:href="#MicrosoftYaHei-20" transform="translate(1983.630859 0)"/>
     <use xlink:href="#MicrosoftYaHei-44" transform="translate(2013.220703 0)"/>
     <use xlink:href="#MicrosoftYaHei-49" transform="translate(2089.392578 0)"/>
     <use xlink:href="#MicrosoftYaHei-44" transform="translate(2118.787109 0)"/>
    </g>
   </g>
   <g id="legend_1">
    <g id="LineCollection_7">
     <path d="M 480.232812 34.6875
L 490.232812 34.6875
" style="fill: none; stroke: #1f4e79; stroke-width: 1.5"/>
    </g>
    <g id="line2d_33">
     <g>
      <use xlink:href="#m8d3213d7cd" x="480.232812" y="34.6875" style="fill: #1f4e79; stroke: #1f4e79"/>
     </g>
    </g>
    <g id="line2d_34">
     <g>
      <use xlink:href="#m8d3213d7cd" x="490.232812" y="34.6875" style="fill: #1f4e79; stroke: #1f4e79"/>
     </g>
    </g>
    <g id="line2d_35"/>
    <g id="line2d_36">
     <g>
      <use xlink:href="#mc12f0e5e0a" x="485.232812" y="34.6875" style="fill: #1f4e79; stroke: #1f4e79"/>
     </g>
    </g>
    <g id="text_11">
     <!-- Baseline DID -->
     <g transform="translate(503.232812 38.1875) scale(0.1 -0.1)">
      <use xlink:href="#MicrosoftYaHei-42"/>
      <use xlink:href="#MicrosoftYaHei-61" transform="translate(62.744141 0)"/>
      <use xlink:href="#MicrosoftYaHei-73" transform="translate(118.017578 0)"/>
      <use xlink:href="#MicrosoftYaHei-65" transform="translate(164.306641 0)"/>
      <use xlink:href="#MicrosoftYaHei-6c" transform="translate(221.044922 0)"/>
      <use xlink:href="#MicrosoftYaHei-69" transform="translate(247.65625 0)"/>
      <use xlink:href="#MicrosoftYaHei-6e" transform="translate(274.267578 0)"/>
      <use xlink:href="#MicrosoftYaHei-65" transform="translate(335.888672 0)"/>
      <use xlink:href="#MicrosoftYaHei-20" transform="translate(392.626953 0)"/>
      <use xlink:href="#MicrosoftYaHei-44" transform="translate(422.216797 0)"/>
      <use xlink:href="#MicrosoftYaHei-49" transform="translate(498.388672 0)"/>
      <use xlink:href="#MicrosoftYaHei-44" transform="translate(527.783203 0)"/>
     </g>
    </g>
    <g id="LineCollection_8">
     <path d="M 480.232812 50.167188
L 490.232812 50.167188
" style="fill: none; stroke: #b22222; stroke-width: 1.5"/>
    </g>
    <g id="line2d_37">
     <g>
      <use xlink:href="#m5f66ac4226" x="480.232812" y="50.167188" style="fill: #b22222; stroke: #b22222"/>
     </g>
    </g>
    <g id="line2d_38">
     <g>
      <use xlink:href="#m5f66ac4226" x="490.232812" y="50.167188" style="fill: #b22222; stroke: #b22222"/>
     </g>
    </g>
    <g id="line2d_39"/>
    <g id="line2d_40">
     <g>
      <use xlink:href="#m9f3bae1d54" x="485.232812" y="50.167188" style="fill: #b22222; stroke: #b22222"/>
     </g>
    </g>
    <g id="text_12">
     <!-- Trend-adjusted DID -->
     <g transform="translate(503.232812 53.667188) scale(0.1 -0.1)">
      <defs>
       <path id="MicrosoftYaHei-54" d="M 3550 4284
L 2153 4284
L 2153 0
L 1525 0
L 1525 4284
L 134 4284
L 134 4841
L 3550 4841
L 3550 4284
z
" transform="scale(0.015625)"/>
      </defs>
      <use xlink:href="#MicrosoftYaHei-54"/>
      <use xlink:href="#MicrosoftYaHei-72" transform="translate(47.949219 0)"/>
      <use xlink:href="#MicrosoftYaHei-65" transform="translate(84.757812 0)"/>
      <use xlink:href="#MicrosoftYaHei-6e" transform="translate(141.496094 0)"/>
      <use xlink:href="#MicrosoftYaHei-64" transform="translate(203.117188 0)"/>
      <use xlink:href="#MicrosoftYaHei-2d" transform="translate(267.082031 0)"/>
      <use xlink:href="#MicrosoftYaHei-61" transform="translate(310.34375 0)"/>
      <use xlink:href="#MicrosoftYaHei-64" transform="translate(365.617188 0)"/>
      <use xlink:href="#MicrosoftYaHei-6a" transform="translate(429.582031 0)"/>
      <use xlink:href="#MicrosoftYaHei-75" transform="translate(456.291016 0)"/>
      <use xlink:href="#MicrosoftYaHei-73" transform="translate(517.912109 0)"/>
      <use xlink:href="#MicrosoftYaHei-74" transform="translate(564.201172 0)"/>
      <use xlink:href="#MicrosoftYaHei-65" transform="translate(600.582031 0)"/>
      <use xlink:href="#MicrosoftYaHei-64" transform="translate(657.320312 0)"/>
      <use xlink:href="#MicrosoftYaHei-20" transform="translate(721.285156 0)"/>
      <use xlink:href="#MicrosoftYaHei-44" transform="translate(750.875 0)"/>
      <use xlink:href="#MicrosoftYaHei-49" transform="translate(827.046875 0)"/>
      <use xlink:href="#MicrosoftYaHei-44" transform="translate(856.441406 0)"/>
     </g>
    </g>
   </g>
  </g>
 </g>
 <defs>
  <clipPath id="pa8ce7394c3">
   <rect x="135.496875" y="21.19375" width="470" height="276.6475"/>
  </clipPath>
 </defs>
</svg>
