<?xml version="1.0" encoding="utf-8" standalone="no"?>
<!DOCTYPE svg PUBLIC "-//W3C//DTD SVG 1.1//EN"
  "http://www.w3.org/Graphics/SVG/1.1/DTD/svg11.dtd">
<svg xmlns:xlink="http://www.w3.org/1999/xlink" width="795.6pt" height="457.92pt" viewBox="0 0 795.6 457.92" xmlns="http://www.w3.org/2000/svg" version="1.1">
 <metadata>
  <rdf:RDF xmlns:dc="http://purl.org/dc/elements/1.1/" xmlns:cc="http://creativecommons.org/ns#" xmlns:rdf="http://www.w3.org/1999/02/22-rdf-syntax-ns#">
   <cc:Work>
    <dc:type rdf:resource="http://purl.org/dc/dcmitype/StillImage"/>
    <dc:date>2026-04-15T15:11:37.941979</dc:date>
    <dc:format>image/svg+xml</dc:format>
    <dc:creator>
     <cc:Agent>
      <dc:title>Matplotlib v3.8.4, https://matplotlib.org/</dc:title>
     </cc:Agent>
    </dc:creator>
   </cc:Work>
  </rdf:RDF>
 </metadata>
 <defs>
  <style type="text/css">*{stroke-linejoin: round; stroke-linecap: butt}</style>
 </defs>
 <g id="figure_1">
  <g id="patch_1">
   <path d="M 0 457.92 
L 795.6 457.92 
L 795.6 0 
L 0 0 
z
" style="fill: #ffffff"/>
  </g>
  <g id="axes_1">
   <g id="patch_2">
    <path d="M 32.9796 194.36544 
L 207.9684 194.36544 
Q 219.6864 194.36544 219.6864 187.71264 
L 219.6864 79.49376 
Q 219.6864 72.84096 207.9684 72.84096 
L 32.9796 72.84096 
Q 21.2616 72.84096 21.2616 79.49376 
L 21.2616 187.71264 
Q 21.2616 194.36544 32.9796 194.36544 
z
" clip-path="url(#p8b88b14bea)" style="fill: #f3f7fa; stroke: #d4d8dc; stroke-width: 1.2; stroke-linejoin: miter"/>
   </g>
   <g id="patch_3">
    <path d="M 251.7156 194.36544 
L 426.7044 194.36544 
Q 438.4224 194.36544 438.4224 187.71264 
L 438.4224 79.49376 
Q 438.4224 72.84096 426.7044 72.84096 
L 251.7156 72.84096 
Q 239.9976 72.84096 239.9976 79.49376 
L 239.9976 187.71264 
Q 239.9976 194.36544 251.7156 194.36544 
z
" clip-path="url(#p8b88b14bea)" style="fill: #f8f6f1; stroke: #d4d8dc; stroke-width: 1.2; stroke-linejoin: miter"/>
   </g>
   <g id="patch_4">
    <path d="M 470.4516 194.36544 
L 645.4404 194.36544 
Q 657.1584 194.36544 657.1584 187.71264 
L 657.1584 79.49376 
Q 657.1584 72.84096 645.4404 72.84096 
L 470.4516 72.84096 
Q 458.7336 72.84096 458.7336 79.49376 
L 458.7336 187.71264 
Q 458.7336 194.36544 470.4516 194.36544 
z
" clip-path="url(#p8b88b14bea)" style="fill: #f3f7fa; stroke: #d4d8dc; stroke-width: 1.2; stroke-linejoin: miter"/>
   </g>
   <g id="patch_5">
    <path d="M 251.7156 376.20864 
L 426.7044 376.20864 
Q 438.4224 376.20864 438.4224 369.55584 
L 438.4224 261.33696 
Q 438.4224 254.68416 426.7044 254.68416 
L 251.7156 254.68416 
Q 239.9976 254.68416 239.9976 261.33696 
L 239.9976 369.55584 
Q 239.9976 376.20864 251.7156 376.20864 
z
" clip-path="url(#p8b88b14bea)" style="fill: #f8f6f1; stroke: #d4d8dc; stroke-width: 1.2; stroke-linejoin: miter"/>
   </g>
   <g id="patch_6">
    <path d="M 212.30982 133.6032 
Q 229.838801 133.6032 245.914339 133.6032 
" clip-path="url(#p8b88b14bea)" style="fill: none; stroke: #687782; stroke-width: 1.3; stroke-linecap: round"/>
    <path d="M 239.914339 130.6032 
L 245.914339 133.6032 
L 239.914339 136.6032 
z
" clip-path="url(#p8b88b14bea)" style="fill: #687782; stroke: #687782; stroke-width: 1.3; stroke-linecap: round"/>
   </g>
   <g id="patch_7">
    <path d="M 431.04582 133.6032 
Q 448.574801 133.6032 464.650339 133.6032 
" clip-path="url(#p8b88b14bea)" style="fill: none; stroke: #687782; stroke-width: 1.3; stroke-linecap: round"/>
    <path d="M 458.650339 130.6032 
L 464.650339 133.6032 
L 458.650339 136.6032 
z
" clip-path="url(#p8b88b14bea)" style="fill: #687782; stroke: #687782; stroke-width: 1.3; stroke-linecap: round"/>
   </g>
   <g id="patch_8">
    <path d="M 339.21 191.039906 
Q 339.21 224.523425 339.21 256.5535 
" clip-path="url(#p8b88b14bea)" style="fill: none; stroke: #687782; stroke-width: 1.3; stroke-linecap: round"/>
    <path d="M 342.21 250.5535 
L 339.21 256.5535 
L 336.21 250.5535 
z
" clip-path="url(#p8b88b14bea)" style="fill: #687782; stroke: #687782; stroke-width: 1.3; stroke-linecap: round"/>
   </g>
   <g id="text_1">
    <text style="fill: #243039; font: 700 13px 'Arial', 'DejaVu Sans', 'Liberation Sans', 'Bitstream Vera Sans', sans-serif; text-anchor: start" x="42.354" y="98.1216" transform="rotate(-0 42.354 98.1216)">Policy text corpus</text>
   </g>
   <g id="text_2">
    <text style="fill: #243039; font: 11px 'Arial', 'DejaVu Sans', 'Liberation Sans', 'Bitstream Vera Sans', sans-serif" transform="translate(42.354 134.590931)">Document-level sample</text>
    <text style="fill: #243039; font: 11px 'Arial', 'DejaVu Sans', 'Liberation Sans', 'Bitstream Vera Sans', sans-serif" transform="translate(42.354 146.225494)">n = 165</text>
    <text style="fill: #243039; font: 11px 'Arial', 'DejaVu Sans', 'Liberation Sans', 'Bitstream Vera Sans', sans-serif" transform="translate(42.354 157.899244)">2014-2022 local policy texts</text>
   </g>
   <g id="text_3">
    <text style="fill: #243039; font: 700 13px 'Arial', 'DejaVu Sans', 'Liberation Sans', 'Bitstream Vera Sans', sans-serif; text-anchor: start" x="261.09" y="98.1216" transform="rotate(-0 261.09 98.1216)">Province-year text layer</text>
   </g>
   <g id="text_4">
    <text style="fill: #243039; font: 11px 'Arial', 'DejaVu Sans', 'Liberation Sans', 'Bitstream Vera Sans', sans-serif" transform="translate(261.09 134.469244)">Balanced province-year panel</text>
    <text style="fill: #243039; font: 11px 'Arial', 'DejaVu Sans', 'Liberation Sans', 'Bitstream Vera Sans', sans-serif" transform="translate(261.09 146.232712)">n = 288</text>
    <text style="fill: #243039; font: 11px 'Arial', 'DejaVu Sans', 'Liberation Sans', 'Bitstream Vera Sans', sans-serif" transform="translate(261.09 158.02815)">A/B/C/D indices + topic shares</text>
   </g>
   <g id="text_5">
    <text style="fill: #243039; font: 700 13px 'Arial', 'DejaVu Sans', 'Liberation Sans', 'Bitstream Vera Sans', sans-serif; text-anchor: start" x="479.826" y="98.1216" transform="rotate(-0 479.826 98.1216)">Formal DID panel</text>
   </g>
   <g id="text_6">
    <text style="fill: #243039; font: 11px 'Arial', 'DejaVu Sans', 'Liberation Sans', 'Bitstream Vera Sans', sans-serif" transform="translate(479.826 134.590931)">Model-ready panel</text>
    <text style="fill: #243039; font: 11px 'Arial', 'DejaVu Sans', 'Liberation Sans', 'Bitstream Vera Sans', sans-serif" transform="translate(479.826 146.3544)">n = 266</text>
    <text style="fill: #243039; font: 11px 'Arial', 'DejaVu Sans', 'Liberation Sans', 'Bitstream Vera Sans', sans-serif" transform="translate(479.826 158.02815)">Baseline estimation sample = 262</text>
   </g>
   <g id="text_7">
    <text style="fill: #243039; font: 700 13px 'Arial', 'DejaVu Sans', 'Liberation Sans', 'Bitstream Vera Sans', sans-serif; text-anchor: start" x="261.09" y="279.9648" transform="rotate(-0 261.09 279.9648)">Project risk layer</text>
   </g>
   <g id="text_8">
    <text style="fill: #243039; font: 11px 'Arial', 'DejaVu Sans', 'Liberation Sans', 'Bitstream Vera Sans', sans-serif" transform="translate(261.09 316.183537)">Strict no-leakage project data</text>
    <text style="fill: #243039; font: 11px 'Arial', 'DejaVu Sans', 'Liberation Sans', 'Bitstream Vera Sans', sans-serif" transform="translate(261.09 327.947006)">n = 10,000</text>
    <text style="fill: #243039; font: 11px 'Arial', 'DejaVu Sans', 'Liberation Sans', 'Bitstream Vera Sans', sans-serif" transform="translate(261.09 339.742444)">Structural risk label only</text>
   </g>
   <g id="text_9">
    <text style="fill: #687782; font: 10px 'Arial', 'DejaVu Sans', 'Liberation Sans', 'Bitstream Vera Sans', sans-serif; text-anchor: middle" x="229.842" y="122.5152" transform="rotate(-0 229.842 122.5152)">Text aggregation</text>
   </g>
   <g id="text_10">
    <text style="fill: #687782; font: 10px 'Arial', 'DejaVu Sans', 'Liberation Sans', 'Bitstream Vera Sans', sans-serif; text-anchor: middle" x="448.578" y="122.5152" transform="rotate(-0 448.578 122.5152)">TWFE-ready merge</text>
   </g>
   <g id="text_11">
    <text style="fill: #687782; font: 10px 'Arial', 'DejaVu Sans', 'Liberation Sans', 'Bitstream Vera Sans', sans-serif; text-anchor: middle" x="339.21" y="213.4368" transform="rotate(-0 339.21 213.4368)">Risk extension</text>
   </g>
   <g id="text_12">
    <g id="patch_9">
     <path d="M 30.636 278.184787 
L 173.614828 278.184787 
Q 177.289828 278.184787 177.289828 274.509787 
L 177.289828 242.2656 
Q 177.289828 238.5906 173.614828 238.5906 
L 30.636 238.5906 
Q 26.961 238.5906 26.961 242.2656 
L 26.961 274.509787 
Q 26.961 278.184787 30.636 278.184787 
z
" style="fill: #ffffff; stroke: #d4d8dc; stroke-linejoin: miter"/>
    </g>
    <text style="fill: #262626; font: 10.5px 'Arial', 'DejaVu Sans', 'Liberation Sans', 'Bitstream Vera Sans', sans-serif" transform="translate(30.636 249.781303)">Part 3-4</text>
    <text style="fill: #262626; font: 10.5px 'Arial', 'DejaVu Sans', 'Liberation Sans', 'Bitstream Vera Sans', sans-serif" transform="translate(30.636 261.040584)">Coding, BERTopic,</text>
    <text style="fill: #262626; font: 10.5px 'Arial', 'DejaVu Sans', 'Liberation Sans', 'Bitstream Vera Sans', sans-serif" transform="translate(30.636 272.422912)">A/B/C/D and topic construction</text>
   </g>
   <g id="text_13">
    <g id="patch_10">
     <path d="M 468.108 278.154272 
L 575.478703 278.154272 
Q 579.153703 278.154272 579.153703 274.479272 
L 579.153703 242.388647 
Q 579.153703 238.713647 575.478703 238.713647 
L 468.108 238.713647 
Q 464.433 238.713647 464.433 242.388647 
L 464.433 274.479272 
Q 464.433 278.154272 468.108 278.154272 
z
" style="fill: #ffffff; stroke: #d4d8dc; stroke-linejoin: miter"/>
    </g>
    <text style="fill: #262626; font: 10.5px 'Arial', 'DejaVu Sans', 'Liberation Sans', 'Bitstream Vera Sans', sans-serif" transform="translate(468.108 249.781303)">Part 5</text>
    <text style="fill: #262626; font: 10.5px 'Arial', 'DejaVu Sans', 'Liberation Sans', 'Bitstream Vera Sans', sans-serif" transform="translate(468.108 260.887022)">TWFE + event-study</text>
    <text style="fill: #262626; font: 10.5px 'Arial', 'DejaVu Sans', 'Liberation Sans', 'Bitstream Vera Sans', sans-serif" transform="translate(468.108 272.26935)">(core writing boundary)</text>
   </g>
   <g id="text_14">
    <g id="patch_11">
     <path d="M 663.408 224.931872 
L 765.530344 224.931872 
Q 769.205344 224.931872 769.205344 221.256872 
L 769.205344 189.166247 
Q 769.205344 185.491247 765.530344 185.491247 
L 663.408 185.491247 
Q 659.733 185.491247 659.733 189.166247 
L 659.733 221.256872 
Q 659.733 224.931872 663.408 224.931872 
z
" style="fill: #ffffff; stroke: #d4d8dc; stroke-linejoin: miter"/>
    </g>
    <text style="fill: #262626; font: 10.5px 'Arial', 'DejaVu Sans', 'Liberation Sans', 'Bitstream Vera Sans', sans-serif" transform="translate(663.408 196.558903)">Part 6</text>
    <text style="fill: #262626; font: 10.5px 'Arial', 'DejaVu Sans', 'Liberation Sans', 'Bitstream Vera Sans', sans-serif" transform="translate(663.408 207.664622)">Mechanism screening</text>
    <text style="fill: #262626; font: 10.5px 'Arial', 'DejaVu Sans', 'Liberation Sans', 'Bitstream Vera Sans', sans-serif" transform="translate(663.408 219.04695)">(partial chain only)</text>
   </g>
   <g id="text_15">
    <g id="patch_12">
     <path d="M 663.408 326.818425 
L 778.360031 326.818425 
Q 782.035031 326.818425 782.035031 323.143425 
L 782.035031 291.175847 
Q 782.035031 287.500847 778.360031 287.500847 
L 663.408 287.500847 
Q 659.733 287.500847 659.733 291.175847 
L 659.733 323.143425 
Q 659.733 326.818425 663.408 326.818425 
z
" style="fill: #ffffff; stroke: #d4d8dc; stroke-linejoin: miter"/>
    </g>
    <text style="fill: #262626; font: 10.5px 'Arial', 'DejaVu Sans', 'Liberation Sans', 'Bitstream Vera Sans', sans-serif" transform="translate(663.408 298.568503)">Part 8</text>
    <text style="fill: #262626; font: 10.5px 'Arial', 'DejaVu Sans', 'Liberation Sans', 'Bitstream Vera Sans', sans-serif" transform="translate(663.408 309.674222)">Robustness, PSM, DML,</text>
    <text style="fill: #262626; font: 10.5px 'Arial', 'DejaVu Sans', 'Liberation Sans', 'Bitstream Vera Sans', sans-serif" transform="translate(663.408 320.933503)">IV feasibility screen</text>
   </g>
   <g id="text_16">
    <g id="patch_13">
     <path d="M 468.108 406.928634 
L 607.587375 406.928634 
Q 611.262375 406.928634 611.262375 403.253634 
L 611.262375 371.009447 
Q 611.262375 367.334447 607.587375 367.334447 
L 468.108 367.334447 
Q 464.433 367.334447 464.433 371.009447 
L 464.433 403.253634 
Q 464.433 406.928634 468.108 406.928634 
z
" style="fill: #ffffff; stroke: #d4d8dc; stroke-linejoin: miter"/>
    </g>
    <text style="fill: #262626; font: 10.5px 'Arial', 'DejaVu Sans', 'Liberation Sans', 'Bitstream Vera Sans', sans-serif" transform="translate(468.108 378.402103)">Part 9</text>
    <text style="fill: #262626; font: 10.5px 'Arial', 'DejaVu Sans', 'Liberation Sans', 'Bitstream Vera Sans', sans-serif" transform="translate(468.108 389.661384)">Risk ranking / identification</text>
    <text style="fill: #262626; font: 10.5px 'Arial', 'DejaVu Sans', 'Liberation Sans', 'Bitstream Vera Sans', sans-serif" transform="translate(468.108 401.043712)">(not a new main identification)</text>
   </g>
   <g id="text_17">
    <text style="fill: #262626; font: 700 16px 'Arial', 'DejaVu Sans', 'Liberation Sans', 'Bitstream Vera Sans', sans-serif; text-anchor: start" x="30.636" y="33.8112" transform="rotate(-0 30.636 33.8112)">Figure 0. Official evidence architecture under the v21 formal package</text>
   </g>
   <g id="text_18">
    <text style="fill: #687782; font: 11px 'Arial', 'DejaVu Sans', 'Liberation Sans', 'Bitstream Vera Sans', sans-serif; text-anchor: start" x="30.636" y="51.552" transform="rotate(-0 30.636 51.552)">This overview is designed to make the workload and layer-by-layer evidence structure visible without crossing the formal writing boundary.</text>
   </g>
   <g id="text_19">
    <text style="fill: #687782; font: 10px 'Arial', 'DejaVu Sans', 'Liberation Sans', 'Bitstream Vera Sans', sans-serif; text-anchor: start" x="30.636" y="428.544" transform="rotate(-0 30.636 428.544)">Data counts come from the currently adopted official entities only: 0912 text-construction files, 1048 formal DID panel/results, and the 1048 strict project-risk table.</text>
   </g>
  </g>
 </g>
 <defs>
  <clipPath id="p8b88b14bea">
   <rect x="7.2" y="7.2" width="781.2" height="443.52"/>
  </clipPath>
 </defs>
</svg>
