<?xml version="1.0" encoding="utf-8" standalone="no"?>
<!DOCTYPE svg PUBLIC "-//W3C//DTD SVG 1.1//EN"
  "http://www.w3.org/Graphics/SVG/1.1/DTD/svg11.dtd">
<svg xmlns:xlink="http://www.w3.org/1999/xlink" width="506.72875pt" height="449.682031pt" viewBox="0 0 506.72875 449.682031" xmlns="http://www.w3.org/2000/svg" version="1.1">
 <metadata>
  <rdf:RDF xmlns:dc="http://purl.org/dc/elements/1.1/" xmlns:cc="http://creativecommons.org/ns#" xmlns:rdf="http://www.w3.org/1999/02/22-rdf-syntax-ns#">
   <cc:Work>
    <dc:type rdf:resource="http://purl.org/dc/dcmitype/StillImage"/>
    <dc:date>2026-04-09T13:04:31.390607</dc:date>
    <dc:format>image/svg+xml</dc:format>
    <dc:creator>
     <cc:Agent>
      <dc:title>Matplotlib v3.10.8, https://matplotlib.org/</dc:title>
     </cc:Agent>
    </dc:creator>
   </cc:Work>
  </rdf:RDF>
 </metadata>
 <defs>
  <style type="text/css">*{stroke-linejoin: round; stroke-linecap: butt}</style>
 </defs>
 <g id="figure_1">
  <g id="patch_1">
   <path d="M 0 449.682031 
L 506.72875 449.682031 
L 506.72875 0 
L 0 0 
z
" style="fill: #ffffff"/>
  </g>
  <g id="axes_1">
   <g id="patch_2">
    <path d="M 53.12875 411.157969 
L 499.52875 411.157969 
L 499.52875 23.077969 
L 53.12875 23.077969 
z
" style="fill: #ffffff"/>
   </g>
   <g id="PathCollection_1">
    <path d="M 344.401207 100.293438 
C 346.168305 100.293438 347.863266 99.591362 349.112793 98.341835 
C 350.36232 97.092307 351.064396 95.397347 351.064396 93.630249 
C 351.064396 91.86315 350.36232 90.16819 349.112793 88.918662 
C 347.863266 87.669135 346.168305 86.967059 344.401207 86.967059 
C 342.634108 86.967059 340.939148 87.669135 339.689621 88.918662 
C 338.440093 90.16819 337.738018 91.86315 337.738018 93.630249 
C 337.738018 95.397347 338.440093 97.092307 339.689621 98.341835 
C 340.939148 99.591362 342.634108 100.293438 344.401207 100.293438 
z
" clip-path="url(#paecde0d528)" style="fill: #bfc7d5; fill-opacity: 0.9; stroke: #333333; stroke-opacity: 0.9; stroke-width: 0.8"/>
    <path d="M 406.017752 104.438564 
C 407.254405 104.438564 408.440574 103.947237 409.315019 103.072792 
C 410.189464 102.198346 410.680792 101.012177 410.680792 99.775525 
C 410.680792 98.538872 410.189464 97.352703 409.315019 96.478258 
C 408.440574 95.603812 407.254405 95.112485 406.017752 95.112485 
C 404.781099 95.112485 403.59493 95.603812 402.720485 96.478258 
C 401.84604 97.352703 401.354712 98.538872 401.354712 99.775525 
C 401.354712 101.012177 401.84604 102.198346 402.720485 103.072792 
C 403.59493 103.947237 404.781099 104.438564 406.017752 104.438564 
z
" clip-path="url(#paecde0d528)" style="fill: #bfc7d5; fill-opacity: 0.9; stroke: #333333; stroke-opacity: 0.9; stroke-width: 0.8"/>
    <path d="M 353.943872 64.186765 
C 355.914976 64.186765 357.805615 63.403637 359.199396 62.009856 
C 360.593177 60.616075 361.376305 58.725437 361.376305 56.754332 
C 361.376305 54.783228 360.593177 52.89259 359.199396 51.498809 
C 357.805615 50.105028 355.914976 49.3219 353.943872 49.3219 
C 351.972768 49.3219 350.08213 50.105028 348.688348 51.498809 
C 347.294567 52.89259 346.511439 54.783228 346.511439 56.754332 
C 346.511439 58.725437 347.294567 60.616075 348.688348 62.009856 
C 350.08213 63.403637 351.972768 64.186765 353.943872 64.186765 
z
" clip-path="url(#paecde0d528)" style="fill: #bfc7d5; fill-opacity: 0.9; stroke: #333333; stroke-opacity: 0.9; stroke-width: 0.8"/>
    <path d="M 425.445492 113.81169 
C 426.848366 113.81169 428.193972 113.254322 429.185954 112.26234 
C 430.177936 111.270358 430.735304 109.924753 430.735304 108.521879 
C 430.735304 107.119004 430.177936 105.773399 429.185954 104.781417 
C 428.193972 103.789435 426.848366 103.232067 425.445492 103.232067 
C 424.042618 103.232067 422.697013 103.789435 421.705031 104.781417 
C 420.713049 105.773399 420.155681 107.119004 420.155681 108.521879 
C 420.155681 109.924753 420.713049 111.270358 421.705031 112.26234 
C 422.697013 113.254322 424.042618 113.81169 425.445492 113.81169 
z
" clip-path="url(#paecde0d528)" style="fill: #bfc7d5; fill-opacity: 0.9; stroke: #333333; stroke-opacity: 0.9; stroke-width: 0.8"/>
   </g>
   <g id="PathCollection_2">
    <path d="M 202.822431 266.812202 
L 212.949956 266.812202 
L 212.949956 256.684676 
L 202.822431 256.684676 
z
" clip-path="url(#paecde0d528)" style="fill: #bfc7d5; fill-opacity: 0.9; stroke: #333333; stroke-opacity: 0.9; stroke-width: 0.8"/>
    <path d="M 216.829505 267.923687 
L 225.901208 267.923687 
L 225.901208 258.851984 
L 216.829505 258.851984 
z
" clip-path="url(#paecde0d528)" style="fill: #bfc7d5; fill-opacity: 0.9; stroke: #333333; stroke-opacity: 0.9; stroke-width: 0.8"/>
    <path d="M 201.895781 256.025737 
L 212.86125 256.025737 
L 212.86125 245.060269 
L 201.895781 245.060269 
z
" clip-path="url(#paecde0d528)" style="fill: #bfc7d5; fill-opacity: 0.9; stroke: #333333; stroke-opacity: 0.9; stroke-width: 0.8"/>
    <path d="M 222.341363 268.910203 
L 231.639248 268.910203 
L 231.639248 259.612318 
L 222.341363 259.612318 
z
" clip-path="url(#paecde0d528)" style="fill: #bfc7d5; fill-opacity: 0.9; stroke: #333333; stroke-opacity: 0.9; stroke-width: 0.8"/>
   </g>
   <g id="PathCollection_3">
    <path d="M 119.661484 362.583657 
L 114.618798 372.669027 
L 124.704169 372.669027 
z
" clip-path="url(#paecde0d528)" style="fill: #bfc7d5; fill-opacity: 0.9; stroke: #333333; stroke-opacity: 0.9; stroke-width: 0.8"/>
    <path d="M 104.857764 362.350767 
L 100.357556 371.351182 
L 109.357971 371.351182 
z
" clip-path="url(#paecde0d528)" style="fill: #bfc7d5; fill-opacity: 0.9; stroke: #333333; stroke-opacity: 0.9; stroke-width: 0.8"/>
    <path d="M 118.950346 372.102654 
L 113.571395 382.860557 
L 124.329298 382.860557 
z
" clip-path="url(#paecde0d528)" style="fill: #bfc7d5; fill-opacity: 0.9; stroke: #333333; stroke-opacity: 0.9; stroke-width: 0.8"/>
    <path d="M 101.237087 360.144031 
L 96.576746 369.464714 
L 105.897429 369.464714 
z
" clip-path="url(#paecde0d528)" style="fill: #bfc7d5; fill-opacity: 0.9; stroke: #333333; stroke-opacity: 0.9; stroke-width: 0.8"/>
   </g>
   <g id="matplotlib.axis_1">
    <g id="xtick_1">
     <g id="line2d_1">
      <defs>
       <path id="m35f431a0b6" d="M 0 0 
L 0 3.5 
" style="stroke: #222222; stroke-width: 0.8"/>
      </defs>
      <g>
       <use xlink:href="#m35f431a0b6" x="91.773522" y="411.157969" style="fill: #222222; stroke: #222222; stroke-width: 0.8"/>
      </g>
     </g>
     <g id="text_1">
      <!-- −0.5 -->
      <g style="fill: #222222" transform="translate(79.632116 425.756406) scale(0.1 -0.1)">
       <defs>
        <path id="DejaVuSans-2212" d="M 678 2272 
L 4684 2272 
L 4684 1741 
L 678 1741 
L 678 2272 
z
" transform="scale(0.015625)"/>
        <path id="DejaVuSans-30" d="M 2034 4250 
Q 1547 4250 1301 3770 
Q 1056 3291 1056 2328 
Q 1056 1369 1301 889 
Q 1547 409 2034 409 
Q 2525 409 2770 889 
Q 3016 1369 3016 2328 
Q 3016 3291 2770 3770 
Q 2525 4250 2034 4250 
z
M 2034 4750 
Q 2819 4750 3233 4129 
Q 3647 3509 3647 2328 
Q 3647 1150 3233 529 
Q 2819 -91 2034 -91 
Q 1250 -91 836 529 
Q 422 1150 422 2328 
Q 422 3509 836 4129 
Q 1250 4750 2034 4750 
z
" transform="scale(0.015625)"/>
        <path id="DejaVuSans-2e" d="M 684 794 
L 1344 794 
L 1344 0 
L 684 0 
L 684 794 
z
" transform="scale(0.015625)"/>
        <path id="DejaVuSans-35" d="M 691 4666 
L 3169 4666 
L 3169 4134 
L 1269 4134 
L 1269 2991 
Q 1406 3038 1543 3061 
Q 1681 3084 1819 3084 
Q 2600 3084 3056 2656 
Q 3513 2228 3513 1497 
Q 3513 744 3044 326 
Q 2575 -91 1722 -91 
Q 1428 -91 1123 -41 
Q 819 9 494 109 
L 494 744 
Q 775 591 1075 516 
Q 1375 441 1709 441 
Q 2250 441 2565 725 
Q 2881 1009 2881 1497 
Q 2881 1984 2565 2268 
Q 2250 2553 1709 2553 
Q 1456 2553 1204 2497 
Q 953 2441 691 2322 
L 691 4666 
z
" transform="scale(0.015625)"/>
       </defs>
       <use xlink:href="#DejaVuSans-2212"/>
       <use xlink:href="#DejaVuSans-30" transform="translate(83.789062 0)"/>
       <use xlink:href="#DejaVuSans-2e" transform="translate(147.412109 0)"/>
       <use xlink:href="#DejaVuSans-35" transform="translate(179.199219 0)"/>
      </g>
     </g>
    </g>
    <g id="xtick_2">
     <g id="line2d_2">
      <g>
       <use xlink:href="#m35f431a0b6" x="167.571253" y="411.157969" style="fill: #222222; stroke: #222222; stroke-width: 0.8"/>
      </g>
     </g>
     <g id="text_2">
      <!-- 0.0 -->
      <g style="fill: #222222" transform="translate(159.61969 425.756406) scale(0.1 -0.1)">
       <use xlink:href="#DejaVuSans-30"/>
       <use xlink:href="#DejaVuSans-2e" transform="translate(63.623047 0)"/>
       <use xlink:href="#DejaVuSans-30" transform="translate(95.410156 0)"/>
      </g>
     </g>
    </g>
    <g id="xtick_3">
     <g id="line2d_3">
      <g>
       <use xlink:href="#m35f431a0b6" x="243.368984" y="411.157969" style="fill: #222222; stroke: #222222; stroke-width: 0.8"/>
      </g>
     </g>
     <g id="text_3">
      <!-- 0.5 -->
      <g style="fill: #222222" transform="translate(235.417421 425.756406) scale(0.1 -0.1)">
       <use xlink:href="#DejaVuSans-30"/>
       <use xlink:href="#DejaVuSans-2e" transform="translate(63.623047 0)"/>
       <use xlink:href="#DejaVuSans-35" transform="translate(95.410156 0)"/>
      </g>
     </g>
    </g>
    <g id="xtick_4">
     <g id="line2d_4">
      <g>
       <use xlink:href="#m35f431a0b6" x="319.166714" y="411.157969" style="fill: #222222; stroke: #222222; stroke-width: 0.8"/>
      </g>
     </g>
     <g id="text_4">
      <!-- 1.0 -->
      <g style="fill: #222222" transform="translate(311.215152 425.756406) scale(0.1 -0.1)">
       <defs>
        <path id="DejaVuSans-31" d="M 794 531 
L 1825 531 
L 1825 4091 
L 703 3866 
L 703 4441 
L 1819 4666 
L 2450 4666 
L 2450 531 
L 3481 531 
L 3481 0 
L 794 0 
L 794 531 
z
" transform="scale(0.015625)"/>
       </defs>
       <use xlink:href="#DejaVuSans-31"/>
       <use xlink:href="#DejaVuSans-2e" transform="translate(63.623047 0)"/>
       <use xlink:href="#DejaVuSans-30" transform="translate(95.410156 0)"/>
      </g>
     </g>
    </g>
    <g id="xtick_5">
     <g id="line2d_5">
      <g>
       <use xlink:href="#m35f431a0b6" x="394.964445" y="411.157969" style="fill: #222222; stroke: #222222; stroke-width: 0.8"/>
      </g>
     </g>
     <g id="text_5">
      <!-- 1.5 -->
      <g style="fill: #222222" transform="translate(387.012882 425.756406) scale(0.1 -0.1)">
       <use xlink:href="#DejaVuSans-31"/>
       <use xlink:href="#DejaVuSans-2e" transform="translate(63.623047 0)"/>
       <use xlink:href="#DejaVuSans-35" transform="translate(95.410156 0)"/>
      </g>
     </g>
    </g>
    <g id="xtick_6">
     <g id="line2d_6">
      <g>
       <use xlink:href="#m35f431a0b6" x="470.762176" y="411.157969" style="fill: #222222; stroke: #222222; stroke-width: 0.8"/>
      </g>
     </g>
     <g id="text_6">
      <!-- 2.0 -->
      <g style="fill: #222222" transform="translate(462.810613 425.756406) scale(0.1 -0.1)">
       <defs>
        <path id="DejaVuSans-32" d="M 1228 531 
L 3431 531 
L 3431 0 
L 469 0 
L 469 531 
Q 828 903 1448 1529 
Q 2069 2156 2228 2338 
Q 2531 2678 2651 2914 
Q 2772 3150 2772 3378 
Q 2772 3750 2511 3984 
Q 2250 4219 1831 4219 
Q 1534 4219 1204 4116 
Q 875 4013 500 3803 
L 500 4441 
Q 881 4594 1212 4672 
Q 1544 4750 1819 4750 
Q 2544 4750 2975 4387 
Q 3406 4025 3406 3419 
Q 3406 3131 3298 2873 
Q 3191 2616 2906 2266 
Q 2828 2175 2409 1742 
Q 1991 1309 1228 531 
z
" transform="scale(0.015625)"/>
       </defs>
       <use xlink:href="#DejaVuSans-32"/>
       <use xlink:href="#DejaVuSans-2e" transform="translate(63.623047 0)"/>
       <use xlink:href="#DejaVuSans-30" transform="translate(95.410156 0)"/>
      </g>
     </g>
    </g>
    <g id="text_7">
     <!-- Low-group effect -->
     <g style="fill: #222222" transform="translate(229.972344 440.194375) scale(0.11 -0.11)">
      <defs>
       <path id="DejaVuSans-4c" d="M 628 4666 
L 1259 4666 
L 1259 531 
L 3531 531 
L 3531 0 
L 628 0 
L 628 4666 
z
" transform="scale(0.015625)"/>
       <path id="DejaVuSans-6f" d="M 1959 3097 
Q 1497 3097 1228 2736 
Q 959 2375 959 1747 
Q 959 1119 1226 758 
Q 1494 397 1959 397 
Q 2419 397 2687 759 
Q 2956 1122 2956 1747 
Q 2956 2369 2687 2733 
Q 2419 3097 1959 3097 
z
M 1959 3584 
Q 2709 3584 3137 3096 
Q 3566 2609 3566 1747 
Q 3566 888 3137 398 
Q 2709 -91 1959 -91 
Q 1206 -91 779 398 
Q 353 888 353 1747 
Q 353 2609 779 3096 
Q 1206 3584 1959 3584 
z
" transform="scale(0.015625)"/>
       <path id="DejaVuSans-77" d="M 269 3500 
L 844 3500 
L 1563 769 
L 2278 3500 
L 2956 3500 
L 3675 769 
L 4391 3500 
L 4966 3500 
L 4050 0 
L 3372 0 
L 2619 2869 
L 1863 0 
L 1184 0 
L 269 3500 
z
" transform="scale(0.015625)"/>
       <path id="DejaVuSans-2d" d="M 313 2009 
L 1997 2009 
L 1997 1497 
L 313 1497 
L 313 2009 
z
" transform="scale(0.015625)"/>
       <path id="DejaVuSans-67" d="M 2906 1791 
Q 2906 2416 2648 2759 
Q 2391 3103 1925 3103 
Q 1463 3103 1205 2759 
Q 947 2416 947 1791 
Q 947 1169 1205 825 
Q 1463 481 1925 481 
Q 2391 481 2648 825 
Q 2906 1169 2906 1791 
z
M 3481 434 
Q 3481 -459 3084 -895 
Q 2688 -1331 1869 -1331 
Q 1566 -1331 1297 -1286 
Q 1028 -1241 775 -1147 
L 775 -588 
Q 1028 -725 1275 -790 
Q 1522 -856 1778 -856 
Q 2344 -856 2625 -561 
Q 2906 -266 2906 331 
L 2906 616 
Q 2728 306 2450 153 
Q 2172 0 1784 0 
Q 1141 0 747 490 
Q 353 981 353 1791 
Q 353 2603 747 3093 
Q 1141 3584 1784 3584 
Q 2172 3584 2450 3431 
Q 2728 3278 2906 2969 
L 2906 3500 
L 3481 3500 
L 3481 434 
z
" transform="scale(0.015625)"/>
       <path id="DejaVuSans-72" d="M 2631 2963 
Q 2534 3019 2420 3045 
Q 2306 3072 2169 3072 
Q 1681 3072 1420 2755 
Q 1159 2438 1159 1844 
L 1159 0 
L 581 0 
L 581 3500 
L 1159 3500 
L 1159 2956 
Q 1341 3275 1631 3429 
Q 1922 3584 2338 3584 
Q 2397 3584 2469 3576 
Q 2541 3569 2628 3553 
L 2631 2963 
z
" transform="scale(0.015625)"/>
       <path id="DejaVuSans-75" d="M 544 1381 
L 544 3500 
L 1119 3500 
L 1119 1403 
Q 1119 906 1312 657 
Q 1506 409 1894 409 
Q 2359 409 2629 706 
Q 2900 1003 2900 1516 
L 2900 3500 
L 3475 3500 
L 3475 0 
L 2900 0 
L 2900 538 
Q 2691 219 2414 64 
Q 2138 -91 1772 -91 
Q 1169 -91 856 284 
Q 544 659 544 1381 
z
M 1991 3584 
L 1991 3584 
z
" transform="scale(0.015625)"/>
       <path id="DejaVuSans-70" d="M 1159 525 
L 1159 -1331 
L 581 -1331 
L 581 3500 
L 1159 3500 
L 1159 2969 
Q 1341 3281 1617 3432 
Q 1894 3584 2278 3584 
Q 2916 3584 3314 3078 
Q 3713 2572 3713 1747 
Q 3713 922 3314 415 
Q 2916 -91 2278 -91 
Q 1894 -91 1617 61 
Q 1341 213 1159 525 
z
M 3116 1747 
Q 3116 2381 2855 2742 
Q 2594 3103 2138 3103 
Q 1681 3103 1420 2742 
Q 1159 2381 1159 1747 
Q 1159 1113 1420 752 
Q 1681 391 2138 391 
Q 2594 391 2855 752 
Q 3116 1113 3116 1747 
z
" transform="scale(0.015625)"/>
       <path id="DejaVuSans-20" transform="scale(0.015625)"/>
       <path id="DejaVuSans-65" d="M 3597 1894 
L 3597 1613 
L 953 1613 
Q 991 1019 1311 708 
Q 1631 397 2203 397 
Q 2534 397 2845 478 
Q 3156 559 3463 722 
L 3463 178 
Q 3153 47 2828 -22 
Q 2503 -91 2169 -91 
Q 1331 -91 842 396 
Q 353 884 353 1716 
Q 353 2575 817 3079 
Q 1281 3584 2069 3584 
Q 2775 3584 3186 3129 
Q 3597 2675 3597 1894 
z
M 3022 2063 
Q 3016 2534 2758 2815 
Q 2500 3097 2075 3097 
Q 1594 3097 1305 2825 
Q 1016 2553 972 2059 
L 3022 2063 
z
" transform="scale(0.015625)"/>
       <path id="DejaVuSans-66" d="M 2375 4863 
L 2375 4384 
L 1825 4384 
Q 1516 4384 1395 4259 
Q 1275 4134 1275 3809 
L 1275 3500 
L 2222 3500 
L 2222 3053 
L 1275 3053 
L 1275 0 
L 697 0 
L 697 3053 
L 147 3053 
L 147 3500 
L 697 3500 
L 697 3744 
Q 697 4328 969 4595 
Q 1241 4863 1831 4863 
L 2375 4863 
z
" transform="scale(0.015625)"/>
       <path id="DejaVuSans-63" d="M 3122 3366 
L 3122 2828 
Q 2878 2963 2633 3030 
Q 2388 3097 2138 3097 
Q 1578 3097 1268 2742 
Q 959 2388 959 1747 
Q 959 1106 1268 751 
Q 1578 397 2138 397 
Q 2388 397 2633 464 
Q 2878 531 3122 666 
L 3122 134 
Q 2881 22 2623 -34 
Q 2366 -91 2075 -91 
Q 1284 -91 818 406 
Q 353 903 353 1747 
Q 353 2603 823 3093 
Q 1294 3584 2113 3584 
Q 2378 3584 2631 3529 
Q 2884 3475 3122 3366 
z
" transform="scale(0.015625)"/>
       <path id="DejaVuSans-74" d="M 1172 4494 
L 1172 3500 
L 2356 3500 
L 2356 3053 
L 1172 3053 
L 1172 1153 
Q 1172 725 1289 603 
Q 1406 481 1766 481 
L 2356 481 
L 2356 0 
L 1766 0 
Q 1100 0 847 248 
Q 594 497 594 1153 
L 594 3053 
L 172 3053 
L 172 3500 
L 594 3500 
L 594 4494 
L 1172 4494 
z
" transform="scale(0.015625)"/>
      </defs>
      <use xlink:href="#DejaVuSans-4c"/>
      <use xlink:href="#DejaVuSans-6f" transform="translate(53.962891 0)"/>
      <use xlink:href="#DejaVuSans-77" transform="translate(115.144531 0)"/>
      <use xlink:href="#DejaVuSans-2d" transform="translate(196.931641 0)"/>
      <use xlink:href="#DejaVuSans-67" transform="translate(233.015625 0)"/>
      <use xlink:href="#DejaVuSans-72" transform="translate(296.492188 0)"/>
      <use xlink:href="#DejaVuSans-6f" transform="translate(335.355469 0)"/>
      <use xlink:href="#DejaVuSans-75" transform="translate(396.537109 0)"/>
      <use xlink:href="#DejaVuSans-70" transform="translate(459.916016 0)"/>
      <use xlink:href="#DejaVuSans-20" transform="translate(523.392578 0)"/>
      <use xlink:href="#DejaVuSans-65" transform="translate(555.179688 0)"/>
      <use xlink:href="#DejaVuSans-66" transform="translate(616.703125 0)"/>
      <use xlink:href="#DejaVuSans-66" transform="translate(651.908203 0)"/>
      <use xlink:href="#DejaVuSans-65" transform="translate(687.113281 0)"/>
      <use xlink:href="#DejaVuSans-63" transform="translate(748.636719 0)"/>
      <use xlink:href="#DejaVuSans-74" transform="translate(803.617188 0)"/>
     </g>
    </g>
   </g>
   <g id="matplotlib.axis_2">
    <g id="ytick_1">
     <g id="line2d_7">
      <defs>
       <path id="m4de1344917" d="M 0 0 
L -3.5 0 
" style="stroke: #222222; stroke-width: 0.8"/>
      </defs>
      <g>
       <use xlink:href="#m4de1344917" x="53.12875" y="377.561949" style="fill: #222222; stroke: #222222; stroke-width: 0.8"/>
      </g>
     </g>
     <g id="text_8">
      <!-- −0.5 -->
      <g style="fill: #222222" transform="translate(21.845938 381.361168) scale(0.1 -0.1)">
       <use xlink:href="#DejaVuSans-2212"/>
       <use xlink:href="#DejaVuSans-30" transform="translate(83.789062 0)"/>
       <use xlink:href="#DejaVuSans-2e" transform="translate(147.412109 0)"/>
       <use xlink:href="#DejaVuSans-35" transform="translate(179.199219 0)"/>
      </g>
     </g>
    </g>
    <g id="ytick_2">
     <g id="line2d_8">
      <g>
       <use xlink:href="#m4de1344917" x="53.12875" y="311.666825" style="fill: #222222; stroke: #222222; stroke-width: 0.8"/>
      </g>
     </g>
     <g id="text_9">
      <!-- 0.0 -->
      <g style="fill: #222222" transform="translate(30.225625 315.466044) scale(0.1 -0.1)">
       <use xlink:href="#DejaVuSans-30"/>
       <use xlink:href="#DejaVuSans-2e" transform="translate(63.623047 0)"/>
       <use xlink:href="#DejaVuSans-30" transform="translate(95.410156 0)"/>
      </g>
     </g>
    </g>
    <g id="ytick_3">
     <g id="line2d_9">
      <g>
       <use xlink:href="#m4de1344917" x="53.12875" y="245.771701" style="fill: #222222; stroke: #222222; stroke-width: 0.8"/>
      </g>
     </g>
     <g id="text_10">
      <!-- 0.5 -->
      <g style="fill: #222222" transform="translate(30.225625 249.57092) scale(0.1 -0.1)">
       <use xlink:href="#DejaVuSans-30"/>
       <use xlink:href="#DejaVuSans-2e" transform="translate(63.623047 0)"/>
       <use xlink:href="#DejaVuSans-35" transform="translate(95.410156 0)"/>
      </g>
     </g>
    </g>
    <g id="ytick_4">
     <g id="line2d_10">
      <g>
       <use xlink:href="#m4de1344917" x="53.12875" y="179.876577" style="fill: #222222; stroke: #222222; stroke-width: 0.8"/>
      </g>
     </g>
     <g id="text_11">
      <!-- 1.0 -->
      <g style="fill: #222222" transform="translate(30.225625 183.675796) scale(0.1 -0.1)">
       <use xlink:href="#DejaVuSans-31"/>
       <use xlink:href="#DejaVuSans-2e" transform="translate(63.623047 0)"/>
       <use xlink:href="#DejaVuSans-30" transform="translate(95.410156 0)"/>
      </g>
     </g>
    </g>
    <g id="ytick_5">
     <g id="line2d_11">
      <g>
       <use xlink:href="#m4de1344917" x="53.12875" y="113.981453" style="fill: #222222; stroke: #222222; stroke-width: 0.8"/>
      </g>
     </g>
     <g id="text_12">
      <!-- 1.5 -->
      <g style="fill: #222222" transform="translate(30.225625 117.780672) scale(0.1 -0.1)">
       <use xlink:href="#DejaVuSans-31"/>
       <use xlink:href="#DejaVuSans-2e" transform="translate(63.623047 0)"/>
       <use xlink:href="#DejaVuSans-35" transform="translate(95.410156 0)"/>
      </g>
     </g>
    </g>
    <g id="ytick_6">
     <g id="line2d_12">
      <g>
       <use xlink:href="#m4de1344917" x="53.12875" y="48.086329" style="fill: #222222; stroke: #222222; stroke-width: 0.8"/>
      </g>
     </g>
     <g id="text_13">
      <!-- 2.0 -->
      <g style="fill: #222222" transform="translate(30.225625 51.885548) scale(0.1 -0.1)">
       <use xlink:href="#DejaVuSans-32"/>
       <use xlink:href="#DejaVuSans-2e" transform="translate(63.623047 0)"/>
       <use xlink:href="#DejaVuSans-30" transform="translate(95.410156 0)"/>
      </g>
     </g>
    </g>
    <g id="text_14">
     <!-- High-group effect -->
     <g style="fill: #222222" transform="translate(15.558281 265.284219) rotate(-90) scale(0.11 -0.11)">
      <defs>
       <path id="DejaVuSans-48" d="M 628 4666 
L 1259 4666 
L 1259 2753 
L 3553 2753 
L 3553 4666 
L 4184 4666 
L 4184 0 
L 3553 0 
L 3553 2222 
L 1259 2222 
L 1259 0 
L 628 0 
L 628 4666 
z
" transform="scale(0.015625)"/>
       <path id="DejaVuSans-69" d="M 603 3500 
L 1178 3500 
L 1178 0 
L 603 0 
L 603 3500 
z
M 603 4863 
L 1178 4863 
L 1178 4134 
L 603 4134 
L 603 4863 
z
" transform="scale(0.015625)"/>
       <path id="DejaVuSans-68" d="M 3513 2113 
L 3513 0 
L 2938 0 
L 2938 2094 
Q 2938 2591 2744 2837 
Q 2550 3084 2163 3084 
Q 1697 3084 1428 2787 
Q 1159 2491 1159 1978 
L 1159 0 
L 581 0 
L 581 4863 
L 1159 4863 
L 1159 2956 
Q 1366 3272 1645 3428 
Q 1925 3584 2291 3584 
Q 2894 3584 3203 3211 
Q 3513 2838 3513 2113 
z
" transform="scale(0.015625)"/>
      </defs>
      <use xlink:href="#DejaVuSans-48"/>
      <use xlink:href="#DejaVuSans-69" transform="translate(75.195312 0)"/>
      <use xlink:href="#DejaVuSans-67" transform="translate(102.978516 0)"/>
      <use xlink:href="#DejaVuSans-68" transform="translate(166.455078 0)"/>
      <use xlink:href="#DejaVuSans-2d" transform="translate(229.833984 0)"/>
      <use xlink:href="#DejaVuSans-67" transform="translate(265.917969 0)"/>
      <use xlink:href="#DejaVuSans-72" transform="translate(329.394531 0)"/>
      <use xlink:href="#DejaVuSans-6f" transform="translate(368.257812 0)"/>
      <use xlink:href="#DejaVuSans-75" transform="translate(429.439453 0)"/>
      <use xlink:href="#DejaVuSans-70" transform="translate(492.818359 0)"/>
      <use xlink:href="#DejaVuSans-20" transform="translate(556.294922 0)"/>
      <use xlink:href="#DejaVuSans-65" transform="translate(588.082031 0)"/>
      <use xlink:href="#DejaVuSans-66" transform="translate(649.605469 0)"/>
      <use xlink:href="#DejaVuSans-66" transform="translate(684.810547 0)"/>
      <use xlink:href="#DejaVuSans-65" transform="translate(720.015625 0)"/>
      <use xlink:href="#DejaVuSans-63" transform="translate(781.539062 0)"/>
      <use xlink:href="#DejaVuSans-74" transform="translate(836.519531 0)"/>
     </g>
    </g>
   </g>
   <g id="line2d_13">
    <path d="M 73.419659 393.517969 
L 479.237841 40.717969 
" clip-path="url(#paecde0d528)" style="fill: none; stroke-dasharray: 3.7,1.6; stroke-dashoffset: 0; stroke: #777777"/>
   </g>
   <g id="line2d_14">
    <path d="M 167.571253 411.157969 
L 167.571253 23.077969 
" clip-path="url(#paecde0d528)" style="fill: none; stroke: #bbbbbb; stroke-linecap: square"/>
   </g>
   <g id="line2d_15">
    <path d="M 53.12875 311.666825 
L 499.52875 311.666825 
" clip-path="url(#paecde0d528)" style="fill: none; stroke: #bbbbbb; stroke-linecap: square"/>
   </g>
   <g id="patch_3">
    <path d="M 53.12875 411.157969 
L 53.12875 23.077969 
" style="fill: none; stroke: #222222; stroke-width: 0.8; stroke-linejoin: miter; stroke-linecap: square"/>
   </g>
   <g id="patch_4">
    <path d="M 53.12875 411.157969 
L 499.52875 411.157969 
" style="fill: none; stroke: #222222; stroke-width: 0.8; stroke-linejoin: miter; stroke-linecap: square"/>
   </g>
   <g id="text_15">
    <!-- Digital -->
    <g transform="translate(344.401207 91.966499) scale(0.08 -0.08)">
     <defs>
      <path id="DejaVuSans-44" d="M 1259 4147 
L 1259 519 
L 2022 519 
Q 2988 519 3436 956 
Q 3884 1394 3884 2338 
Q 3884 3275 3436 3711 
Q 2988 4147 2022 4147 
L 1259 4147 
z
M 628 4666 
L 1925 4666 
Q 3281 4666 3915 4102 
Q 4550 3538 4550 2338 
Q 4550 1131 3912 565 
Q 3275 0 1925 0 
L 628 0 
L 628 4666 
z
" transform="scale(0.015625)"/>
      <path id="DejaVuSans-61" d="M 2194 1759 
Q 1497 1759 1228 1600 
Q 959 1441 959 1056 
Q 959 750 1161 570 
Q 1363 391 1709 391 
Q 2188 391 2477 730 
Q 2766 1069 2766 1631 
L 2766 1759 
L 2194 1759 
z
M 3341 1997 
L 3341 0 
L 2766 0 
L 2766 531 
Q 2569 213 2275 61 
Q 1981 -91 1556 -91 
Q 1019 -91 701 211 
Q 384 513 384 1019 
Q 384 1609 779 1909 
Q 1175 2209 1959 2209 
L 2766 2209 
L 2766 2266 
Q 2766 2663 2505 2880 
Q 2244 3097 1772 3097 
Q 1472 3097 1187 3025 
Q 903 2953 641 2809 
L 641 3341 
Q 956 3463 1253 3523 
Q 1550 3584 1831 3584 
Q 2591 3584 2966 3190 
Q 3341 2797 3341 1997 
z
" transform="scale(0.015625)"/>
      <path id="DejaVuSans-6c" d="M 603 4863 
L 1178 4863 
L 1178 0 
L 603 0 
L 603 4863 
z
" transform="scale(0.015625)"/>
     </defs>
     <use xlink:href="#DejaVuSans-44"/>
     <use xlink:href="#DejaVuSans-69" transform="translate(77.001953 0)"/>
     <use xlink:href="#DejaVuSans-67" transform="translate(104.785156 0)"/>
     <use xlink:href="#DejaVuSans-69" transform="translate(168.261719 0)"/>
     <use xlink:href="#DejaVuSans-74" transform="translate(196.044922 0)"/>
     <use xlink:href="#DejaVuSans-61" transform="translate(235.253906 0)"/>
     <use xlink:href="#DejaVuSans-6c" transform="translate(296.533203 0)"/>
    </g>
   </g>
   <g id="text_16">
    <!-- Digital -->
    <g transform="translate(406.017752 98.111775) scale(0.08 -0.08)">
     <use xlink:href="#DejaVuSans-44"/>
     <use xlink:href="#DejaVuSans-69" transform="translate(77.001953 0)"/>
     <use xlink:href="#DejaVuSans-67" transform="translate(104.785156 0)"/>
     <use xlink:href="#DejaVuSans-69" transform="translate(168.261719 0)"/>
     <use xlink:href="#DejaVuSans-74" transform="translate(196.044922 0)"/>
     <use xlink:href="#DejaVuSans-61" transform="translate(235.253906 0)"/>
     <use xlink:href="#DejaVuSans-6c" transform="translate(296.533203 0)"/>
    </g>
   </g>
   <g id="text_17">
    <!-- A-index -->
    <g transform="translate(353.943872 55.090582) scale(0.08 -0.08)">
     <defs>
      <path id="DejaVuSans-41" d="M 2188 4044 
L 1331 1722 
L 3047 1722 
L 2188 4044 
z
M 1831 4666 
L 2547 4666 
L 4325 0 
L 3669 0 
L 3244 1197 
L 1141 1197 
L 716 0 
L 50 0 
L 1831 4666 
z
" transform="scale(0.015625)"/>
      <path id="DejaVuSans-6e" d="M 3513 2113 
L 3513 0 
L 2938 0 
L 2938 2094 
Q 2938 2591 2744 2837 
Q 2550 3084 2163 3084 
Q 1697 3084 1428 2787 
Q 1159 2491 1159 1978 
L 1159 0 
L 581 0 
L 581 3500 
L 1159 3500 
L 1159 2956 
Q 1366 3272 1645 3428 
Q 1925 3584 2291 3584 
Q 2894 3584 3203 3211 
Q 3513 2838 3513 2113 
z
" transform="scale(0.015625)"/>
      <path id="DejaVuSans-64" d="M 2906 2969 
L 2906 4863 
L 3481 4863 
L 3481 0 
L 2906 0 
L 2906 525 
Q 2725 213 2448 61 
Q 2172 -91 1784 -91 
Q 1150 -91 751 415 
Q 353 922 353 1747 
Q 353 2572 751 3078 
Q 1150 3584 1784 3584 
Q 2172 3584 2448 3432 
Q 2725 3281 2906 2969 
z
M 947 1747 
Q 947 1113 1208 752 
Q 1469 391 1925 391 
Q 2381 391 2643 752 
Q 2906 1113 2906 1747 
Q 2906 2381 2643 2742 
Q 2381 3103 1925 3103 
Q 1469 3103 1208 2742 
Q 947 2381 947 1747 
z
" transform="scale(0.015625)"/>
      <path id="DejaVuSans-78" d="M 3513 3500 
L 2247 1797 
L 3578 0 
L 2900 0 
L 1881 1375 
L 863 0 
L 184 0 
L 1544 1831 
L 300 3500 
L 978 3500 
L 1906 2253 
L 2834 3500 
L 3513 3500 
z
" transform="scale(0.015625)"/>
     </defs>
     <use xlink:href="#DejaVuSans-41"/>
     <use xlink:href="#DejaVuSans-2d" transform="translate(66.158203 0)"/>
     <use xlink:href="#DejaVuSans-69" transform="translate(102.242188 0)"/>
     <use xlink:href="#DejaVuSans-6e" transform="translate(130.025391 0)"/>
     <use xlink:href="#DejaVuSans-64" transform="translate(193.404297 0)"/>
     <use xlink:href="#DejaVuSans-65" transform="translate(256.880859 0)"/>
     <use xlink:href="#DejaVuSans-78" transform="translate(316.654297 0)"/>
    </g>
   </g>
   <g id="text_18">
    <!-- Governance -->
    <g transform="translate(425.445492 106.858129) scale(0.08 -0.08)">
     <defs>
      <path id="DejaVuSans-47" d="M 3809 666 
L 3809 1919 
L 2778 1919 
L 2778 2438 
L 4434 2438 
L 4434 434 
Q 4069 175 3628 42 
Q 3188 -91 2688 -91 
Q 1594 -91 976 548 
Q 359 1188 359 2328 
Q 359 3472 976 4111 
Q 1594 4750 2688 4750 
Q 3144 4750 3555 4637 
Q 3966 4525 4313 4306 
L 4313 3634 
Q 3963 3931 3569 4081 
Q 3175 4231 2741 4231 
Q 1884 4231 1454 3753 
Q 1025 3275 1025 2328 
Q 1025 1384 1454 906 
Q 1884 428 2741 428 
Q 3075 428 3337 486 
Q 3600 544 3809 666 
z
" transform="scale(0.015625)"/>
      <path id="DejaVuSans-76" d="M 191 3500 
L 800 3500 
L 1894 563 
L 2988 3500 
L 3597 3500 
L 2284 0 
L 1503 0 
L 191 3500 
z
" transform="scale(0.015625)"/>
     </defs>
     <use xlink:href="#DejaVuSans-47"/>
     <use xlink:href="#DejaVuSans-6f" transform="translate(77.490234 0)"/>
     <use xlink:href="#DejaVuSans-76" transform="translate(138.671875 0)"/>
     <use xlink:href="#DejaVuSans-65" transform="translate(197.851562 0)"/>
     <use xlink:href="#DejaVuSans-72" transform="translate(259.375 0)"/>
     <use xlink:href="#DejaVuSans-6e" transform="translate(298.738281 0)"/>
     <use xlink:href="#DejaVuSans-61" transform="translate(362.117188 0)"/>
     <use xlink:href="#DejaVuSans-6e" transform="translate(423.396484 0)"/>
     <use xlink:href="#DejaVuSans-63" transform="translate(486.775391 0)"/>
     <use xlink:href="#DejaVuSans-65" transform="translate(541.755859 0)"/>
    </g>
   </g>
   <g id="text_19">
    <!-- Digital -->
    <g transform="translate(207.886194 260.084689) scale(0.08 -0.08)">
     <use xlink:href="#DejaVuSans-44"/>
     <use xlink:href="#DejaVuSans-69" transform="translate(77.001953 0)"/>
     <use xlink:href="#DejaVuSans-67" transform="translate(104.785156 0)"/>
     <use xlink:href="#DejaVuSans-69" transform="translate(168.261719 0)"/>
     <use xlink:href="#DejaVuSans-74" transform="translate(196.044922 0)"/>
     <use xlink:href="#DejaVuSans-61" transform="translate(235.253906 0)"/>
     <use xlink:href="#DejaVuSans-6c" transform="translate(296.533203 0)"/>
    </g>
   </g>
   <g id="text_20">
    <!-- Digital -->
    <g transform="translate(221.365356 261.724085) scale(0.08 -0.08)">
     <use xlink:href="#DejaVuSans-44"/>
     <use xlink:href="#DejaVuSans-69" transform="translate(77.001953 0)"/>
     <use xlink:href="#DejaVuSans-67" transform="translate(104.785156 0)"/>
     <use xlink:href="#DejaVuSans-69" transform="translate(168.261719 0)"/>
     <use xlink:href="#DejaVuSans-74" transform="translate(196.044922 0)"/>
     <use xlink:href="#DejaVuSans-61" transform="translate(235.253906 0)"/>
     <use xlink:href="#DejaVuSans-6c" transform="translate(296.533203 0)"/>
    </g>
   </g>
   <g id="text_21">
    <!-- A-index -->
    <g transform="translate(207.378515 248.879253) scale(0.08 -0.08)">
     <use xlink:href="#DejaVuSans-41"/>
     <use xlink:href="#DejaVuSans-2d" transform="translate(66.158203 0)"/>
     <use xlink:href="#DejaVuSans-69" transform="translate(102.242188 0)"/>
     <use xlink:href="#DejaVuSans-6e" transform="translate(130.025391 0)"/>
     <use xlink:href="#DejaVuSans-64" transform="translate(193.404297 0)"/>
     <use xlink:href="#DejaVuSans-65" transform="translate(256.880859 0)"/>
     <use xlink:href="#DejaVuSans-78" transform="translate(316.654297 0)"/>
    </g>
   </g>
   <g id="text_22">
    <!-- Governance -->
    <g transform="translate(226.990306 262.597511) scale(0.08 -0.08)">
     <use xlink:href="#DejaVuSans-47"/>
     <use xlink:href="#DejaVuSans-6f" transform="translate(77.490234 0)"/>
     <use xlink:href="#DejaVuSans-76" transform="translate(138.671875 0)"/>
     <use xlink:href="#DejaVuSans-65" transform="translate(197.851562 0)"/>
     <use xlink:href="#DejaVuSans-72" transform="translate(259.375 0)"/>
     <use xlink:href="#DejaVuSans-6e" transform="translate(298.738281 0)"/>
     <use xlink:href="#DejaVuSans-61" transform="translate(362.117188 0)"/>
     <use xlink:href="#DejaVuSans-6e" transform="translate(423.396484 0)"/>
     <use xlink:href="#DejaVuSans-63" transform="translate(486.775391 0)"/>
     <use xlink:href="#DejaVuSans-65" transform="translate(541.755859 0)"/>
    </g>
   </g>
   <g id="text_23">
    <!-- Digital -->
    <g transform="translate(119.661484 365.962592) scale(0.08 -0.08)">
     <use xlink:href="#DejaVuSans-44"/>
     <use xlink:href="#DejaVuSans-69" transform="translate(77.001953 0)"/>
     <use xlink:href="#DejaVuSans-67" transform="translate(104.785156 0)"/>
     <use xlink:href="#DejaVuSans-69" transform="translate(168.261719 0)"/>
     <use xlink:href="#DejaVuSans-74" transform="translate(196.044922 0)"/>
     <use xlink:href="#DejaVuSans-61" transform="translate(235.253906 0)"/>
     <use xlink:href="#DejaVuSans-6c" transform="translate(296.533203 0)"/>
    </g>
   </g>
   <g id="text_24">
    <!-- Digital -->
    <g transform="translate(104.857764 365.187224) scale(0.08 -0.08)">
     <use xlink:href="#DejaVuSans-44"/>
     <use xlink:href="#DejaVuSans-69" transform="translate(77.001953 0)"/>
     <use xlink:href="#DejaVuSans-67" transform="translate(104.785156 0)"/>
     <use xlink:href="#DejaVuSans-69" transform="translate(168.261719 0)"/>
     <use xlink:href="#DejaVuSans-74" transform="translate(196.044922 0)"/>
     <use xlink:href="#DejaVuSans-61" transform="translate(235.253906 0)"/>
     <use xlink:href="#DejaVuSans-6c" transform="translate(296.533203 0)"/>
    </g>
   </g>
   <g id="text_25">
    <!-- A-index -->
    <g transform="translate(118.950346 375.817855) scale(0.08 -0.08)">
     <use xlink:href="#DejaVuSans-41"/>
     <use xlink:href="#DejaVuSans-2d" transform="translate(66.158203 0)"/>
     <use xlink:href="#DejaVuSans-69" transform="translate(102.242188 0)"/>
     <use xlink:href="#DejaVuSans-6e" transform="translate(130.025391 0)"/>
     <use xlink:href="#DejaVuSans-64" transform="translate(193.404297 0)"/>
     <use xlink:href="#DejaVuSans-65" transform="translate(256.880859 0)"/>
     <use xlink:href="#DejaVuSans-78" transform="translate(316.654297 0)"/>
    </g>
   </g>
   <g id="text_26">
    <!-- Governance -->
    <g transform="translate(101.237087 363.140623) scale(0.08 -0.08)">
     <use xlink:href="#DejaVuSans-47"/>
     <use xlink:href="#DejaVuSans-6f" transform="translate(77.490234 0)"/>
     <use xlink:href="#DejaVuSans-76" transform="translate(138.671875 0)"/>
     <use xlink:href="#DejaVuSans-65" transform="translate(197.851562 0)"/>
     <use xlink:href="#DejaVuSans-72" transform="translate(259.375 0)"/>
     <use xlink:href="#DejaVuSans-6e" transform="translate(298.738281 0)"/>
     <use xlink:href="#DejaVuSans-61" transform="translate(362.117188 0)"/>
     <use xlink:href="#DejaVuSans-6e" transform="translate(423.396484 0)"/>
     <use xlink:href="#DejaVuSans-63" transform="translate(486.775391 0)"/>
     <use xlink:href="#DejaVuSans-65" transform="translate(541.755859 0)"/>
    </g>
   </g>
   <g id="text_27">
    <!-- Figure 7-3  Effect frontier: low-group vs high-group coefficients -->
    <g transform="translate(72.214531 17.077969) scale(0.13 -0.13)">
     <defs>
      <path id="DejaVuSans-46" d="M 628 4666 
L 3309 4666 
L 3309 4134 
L 1259 4134 
L 1259 2759 
L 3109 2759 
L 3109 2228 
L 1259 2228 
L 1259 0 
L 628 0 
L 628 4666 
z
" transform="scale(0.015625)"/>
      <path id="DejaVuSans-37" d="M 525 4666 
L 3525 4666 
L 3525 4397 
L 1831 0 
L 1172 0 
L 2766 4134 
L 525 4134 
L 525 4666 
z
" transform="scale(0.015625)"/>
      <path id="DejaVuSans-33" d="M 2597 2516 
Q 3050 2419 3304 2112 
Q 3559 1806 3559 1356 
Q 3559 666 3084 287 
Q 2609 -91 1734 -91 
Q 1441 -91 1130 -33 
Q 819 25 488 141 
L 488 750 
Q 750 597 1062 519 
Q 1375 441 1716 441 
Q 2309 441 2620 675 
Q 2931 909 2931 1356 
Q 2931 1769 2642 2001 
Q 2353 2234 1838 2234 
L 1294 2234 
L 1294 2753 
L 1863 2753 
Q 2328 2753 2575 2939 
Q 2822 3125 2822 3475 
Q 2822 3834 2567 4026 
Q 2313 4219 1838 4219 
Q 1578 4219 1281 4162 
Q 984 4106 628 3988 
L 628 4550 
Q 988 4650 1302 4700 
Q 1616 4750 1894 4750 
Q 2613 4750 3031 4423 
Q 3450 4097 3450 3541 
Q 3450 3153 3228 2886 
Q 3006 2619 2597 2516 
z
" transform="scale(0.015625)"/>
      <path id="DejaVuSans-45" d="M 628 4666 
L 3578 4666 
L 3578 4134 
L 1259 4134 
L 1259 2753 
L 3481 2753 
L 3481 2222 
L 1259 2222 
L 1259 531 
L 3634 531 
L 3634 0 
L 628 0 
L 628 4666 
z
" transform="scale(0.015625)"/>
      <path id="DejaVuSans-3a" d="M 750 794 
L 1409 794 
L 1409 0 
L 750 0 
L 750 794 
z
M 750 3309 
L 1409 3309 
L 1409 2516 
L 750 2516 
L 750 3309 
z
" transform="scale(0.015625)"/>
      <path id="DejaVuSans-73" d="M 2834 3397 
L 2834 2853 
Q 2591 2978 2328 3040 
Q 2066 3103 1784 3103 
Q 1356 3103 1142 2972 
Q 928 2841 928 2578 
Q 928 2378 1081 2264 
Q 1234 2150 1697 2047 
L 1894 2003 
Q 2506 1872 2764 1633 
Q 3022 1394 3022 966 
Q 3022 478 2636 193 
Q 2250 -91 1575 -91 
Q 1294 -91 989 -36 
Q 684 19 347 128 
L 347 722 
Q 666 556 975 473 
Q 1284 391 1588 391 
Q 1994 391 2212 530 
Q 2431 669 2431 922 
Q 2431 1156 2273 1281 
Q 2116 1406 1581 1522 
L 1381 1569 
Q 847 1681 609 1914 
Q 372 2147 372 2553 
Q 372 3047 722 3315 
Q 1072 3584 1716 3584 
Q 2034 3584 2315 3537 
Q 2597 3491 2834 3397 
z
" transform="scale(0.015625)"/>
     </defs>
     <use xlink:href="#DejaVuSans-46"/>
     <use xlink:href="#DejaVuSans-69" transform="translate(50.269531 0)"/>
     <use xlink:href="#DejaVuSans-67" transform="translate(78.052734 0)"/>
     <use xlink:href="#DejaVuSans-75" transform="translate(141.529297 0)"/>
     <use xlink:href="#DejaVuSans-72" transform="translate(204.908203 0)"/>
     <use xlink:href="#DejaVuSans-65" transform="translate(243.771484 0)"/>
     <use xlink:href="#DejaVuSans-20" transform="translate(305.294922 0)"/>
     <use xlink:href="#DejaVuSans-37" transform="translate(337.082031 0)"/>
     <use xlink:href="#DejaVuSans-2d" transform="translate(400.705078 0)"/>
     <use xlink:href="#DejaVuSans-33" transform="translate(436.789062 0)"/>
     <use xlink:href="#DejaVuSans-20" transform="translate(500.412109 0)"/>
     <use xlink:href="#DejaVuSans-20" transform="translate(532.199219 0)"/>
     <use xlink:href="#DejaVuSans-45" transform="translate(563.986328 0)"/>
     <use xlink:href="#DejaVuSans-66" transform="translate(627.169922 0)"/>
     <use xlink:href="#DejaVuSans-66" transform="translate(662.375 0)"/>
     <use xlink:href="#DejaVuSans-65" transform="translate(697.580078 0)"/>
     <use xlink:href="#DejaVuSans-63" transform="translate(759.103516 0)"/>
     <use xlink:href="#DejaVuSans-74" transform="translate(814.083984 0)"/>
     <use xlink:href="#DejaVuSans-20" transform="translate(853.292969 0)"/>
     <use xlink:href="#DejaVuSans-66" transform="translate(885.080078 0)"/>
     <use xlink:href="#DejaVuSans-72" transform="translate(920.285156 0)"/>
     <use xlink:href="#DejaVuSans-6f" transform="translate(959.148438 0)"/>
     <use xlink:href="#DejaVuSans-6e" transform="translate(1020.330078 0)"/>
     <use xlink:href="#DejaVuSans-74" transform="translate(1083.708984 0)"/>
     <use xlink:href="#DejaVuSans-69" transform="translate(1122.917969 0)"/>
     <use xlink:href="#DejaVuSans-65" transform="translate(1150.701172 0)"/>
     <use xlink:href="#DejaVuSans-72" transform="translate(1212.224609 0)"/>
     <use xlink:href="#DejaVuSans-3a" transform="translate(1251.587891 0)"/>
     <use xlink:href="#DejaVuSans-20" transform="translate(1285.279297 0)"/>
     <use xlink:href="#DejaVuSans-6c" transform="translate(1317.066406 0)"/>
     <use xlink:href="#DejaVuSans-6f" transform="translate(1344.849609 0)"/>
     <use xlink:href="#DejaVuSans-77" transform="translate(1406.03125 0)"/>
     <use xlink:href="#DejaVuSans-2d" transform="translate(1487.818359 0)"/>
     <use xlink:href="#DejaVuSans-67" transform="translate(1523.902344 0)"/>
     <use xlink:href="#DejaVuSans-72" transform="translate(1587.378906 0)"/>
     <use xlink:href="#DejaVuSans-6f" transform="translate(1626.242188 0)"/>
     <use xlink:href="#DejaVuSans-75" transform="translate(1687.423828 0)"/>
     <use xlink:href="#DejaVuSans-70" transform="translate(1750.802734 0)"/>
     <use xlink:href="#DejaVuSans-20" transform="translate(1814.279297 0)"/>
     <use xlink:href="#DejaVuSans-76" transform="translate(1846.066406 0)"/>
     <use xlink:href="#DejaVuSans-73" transform="translate(1905.246094 0)"/>
     <use xlink:href="#DejaVuSans-20" transform="translate(1957.345703 0)"/>
     <use xlink:href="#DejaVuSans-68" transform="translate(1989.132812 0)"/>
     <use xlink:href="#DejaVuSans-69" transform="translate(2052.511719 0)"/>
     <use xlink:href="#DejaVuSans-67" transform="translate(2080.294922 0)"/>
     <use xlink:href="#DejaVuSans-68" transform="translate(2143.771484 0)"/>
     <use xlink:href="#DejaVuSans-2d" transform="translate(2207.150391 0)"/>
     <use xlink:href="#DejaVuSans-67" transform="translate(2243.234375 0)"/>
     <use xlink:href="#DejaVuSans-72" transform="translate(2306.710938 0)"/>
     <use xlink:href="#DejaVuSans-6f" transform="translate(2345.574219 0)"/>
     <use xlink:href="#DejaVuSans-75" transform="translate(2406.755859 0)"/>
     <use xlink:href="#DejaVuSans-70" transform="translate(2470.134766 0)"/>
     <use xlink:href="#DejaVuSans-20" transform="translate(2533.611328 0)"/>
     <use xlink:href="#DejaVuSans-63" transform="translate(2565.398438 0)"/>
     <use xlink:href="#DejaVuSans-6f" transform="translate(2620.378906 0)"/>
     <use xlink:href="#DejaVuSans-65" transform="translate(2681.560547 0)"/>
     <use xlink:href="#DejaVuSans-66" transform="translate(2743.083984 0)"/>
     <use xlink:href="#DejaVuSans-66" transform="translate(2778.289062 0)"/>
     <use xlink:href="#DejaVuSans-69" transform="translate(2813.494141 0)"/>
     <use xlink:href="#DejaVuSans-63" transform="translate(2841.277344 0)"/>
     <use xlink:href="#DejaVuSans-69" transform="translate(2896.257812 0)"/>
     <use xlink:href="#DejaVuSans-65" transform="translate(2924.041016 0)"/>
     <use xlink:href="#DejaVuSans-6e" transform="translate(2985.564453 0)"/>
     <use xlink:href="#DejaVuSans-74" transform="translate(3048.943359 0)"/>
     <use xlink:href="#DejaVuSans-73" transform="translate(3088.152344 0)"/>
    </g>
   </g>
   <g id="legend_1">
    <g id="PathCollection_4">
     <path d="M 377.750625 374.301264 
C 379.396007 374.301264 380.974219 373.647546 382.13768 372.484086 
C 383.30114 371.320625 383.954857 369.742413 383.954857 368.097031 
C 383.954857 366.45165 383.30114 364.873437 382.13768 363.709977 
C 380.974219 362.546516 379.396007 361.892799 377.750625 361.892799 
C 376.105243 361.892799 374.527031 362.546516 373.36357 363.709977 
C 372.20011 364.873437 371.546393 366.45165 371.546393 368.097031 
C 371.546393 369.742413 372.20011 371.320625 373.36357 372.484086 
C 374.527031 373.647546 376.105243 374.301264 377.750625 374.301264 
z
" style="fill: #bfc7d5; fill-opacity: 0.9; stroke: #333333; stroke-opacity: 0.9; stroke-width: 0.8"/>
    </g>
    <g id="text_28">
     <!-- PCA quality -->
     <g transform="translate(395.750625 370.722031) scale(0.1 -0.1)">
      <defs>
       <path id="DejaVuSans-50" d="M 1259 4147 
L 1259 2394 
L 2053 2394 
Q 2494 2394 2734 2622 
Q 2975 2850 2975 3272 
Q 2975 3691 2734 3919 
Q 2494 4147 2053 4147 
L 1259 4147 
z
M 628 4666 
L 2053 4666 
Q 2838 4666 3239 4311 
Q 3641 3956 3641 3272 
Q 3641 2581 3239 2228 
Q 2838 1875 2053 1875 
L 1259 1875 
L 1259 0 
L 628 0 
L 628 4666 
z
" transform="scale(0.015625)"/>
       <path id="DejaVuSans-43" d="M 4122 4306 
L 4122 3641 
Q 3803 3938 3442 4084 
Q 3081 4231 2675 4231 
Q 1875 4231 1450 3742 
Q 1025 3253 1025 2328 
Q 1025 1406 1450 917 
Q 1875 428 2675 428 
Q 3081 428 3442 575 
Q 3803 722 4122 1019 
L 4122 359 
Q 3791 134 3420 21 
Q 3050 -91 2638 -91 
Q 1578 -91 968 557 
Q 359 1206 359 2328 
Q 359 3453 968 4101 
Q 1578 4750 2638 4750 
Q 3056 4750 3426 4639 
Q 3797 4528 4122 4306 
z
" transform="scale(0.015625)"/>
       <path id="DejaVuSans-71" d="M 947 1747 
Q 947 1113 1208 752 
Q 1469 391 1925 391 
Q 2381 391 2643 752 
Q 2906 1113 2906 1747 
Q 2906 2381 2643 2742 
Q 2381 3103 1925 3103 
Q 1469 3103 1208 2742 
Q 947 2381 947 1747 
z
M 2906 525 
Q 2725 213 2448 61 
Q 2172 -91 1784 -91 
Q 1150 -91 751 415 
Q 353 922 353 1747 
Q 353 2572 751 3078 
Q 1150 3584 1784 3584 
Q 2172 3584 2448 3432 
Q 2725 3281 2906 2969 
L 2906 3500 
L 3481 3500 
L 3481 -1331 
L 2906 -1331 
L 2906 525 
z
" transform="scale(0.015625)"/>
       <path id="DejaVuSans-79" d="M 2059 -325 
Q 1816 -950 1584 -1140 
Q 1353 -1331 966 -1331 
L 506 -1331 
L 506 -850 
L 844 -850 
Q 1081 -850 1212 -737 
Q 1344 -625 1503 -206 
L 1606 56 
L 191 3500 
L 800 3500 
L 1894 763 
L 2988 3500 
L 3597 3500 
L 2059 -325 
z
" transform="scale(0.015625)"/>
      </defs>
      <use xlink:href="#DejaVuSans-50"/>
      <use xlink:href="#DejaVuSans-43" transform="translate(60.302734 0)"/>
      <use xlink:href="#DejaVuSans-41" transform="translate(130.126953 0)"/>
      <use xlink:href="#DejaVuSans-20" transform="translate(198.535156 0)"/>
      <use xlink:href="#DejaVuSans-71" transform="translate(230.322266 0)"/>
      <use xlink:href="#DejaVuSans-75" transform="translate(293.798828 0)"/>
      <use xlink:href="#DejaVuSans-61" transform="translate(357.177734 0)"/>
      <use xlink:href="#DejaVuSans-6c" transform="translate(418.457031 0)"/>
      <use xlink:href="#DejaVuSans-69" transform="translate(446.240234 0)"/>
      <use xlink:href="#DejaVuSans-74" transform="translate(474.023438 0)"/>
      <use xlink:href="#DejaVuSans-79" transform="translate(513.232422 0)"/>
     </g>
    </g>
    <g id="PathCollection_5">
     <path d="M 372.719009 387.806773 
L 382.782241 387.806773 
L 382.782241 377.74354 
L 372.719009 377.74354 
z
" style="fill: #bfc7d5; fill-opacity: 0.9; stroke: #333333; stroke-opacity: 0.9; stroke-width: 0.8"/>
    </g>
    <g id="text_29">
     <!-- Execution share -->
     <g transform="translate(395.750625 385.400156) scale(0.1 -0.1)">
      <use xlink:href="#DejaVuSans-45"/>
      <use xlink:href="#DejaVuSans-78" transform="translate(63.183594 0)"/>
      <use xlink:href="#DejaVuSans-65" transform="translate(119.238281 0)"/>
      <use xlink:href="#DejaVuSans-63" transform="translate(180.761719 0)"/>
      <use xlink:href="#DejaVuSans-75" transform="translate(235.742188 0)"/>
      <use xlink:href="#DejaVuSans-74" transform="translate(299.121094 0)"/>
      <use xlink:href="#DejaVuSans-69" transform="translate(338.330078 0)"/>
      <use xlink:href="#DejaVuSans-6f" transform="translate(366.113281 0)"/>
      <use xlink:href="#DejaVuSans-6e" transform="translate(427.294922 0)"/>
      <use xlink:href="#DejaVuSans-20" transform="translate(490.673828 0)"/>
      <use xlink:href="#DejaVuSans-73" transform="translate(522.460938 0)"/>
      <use xlink:href="#DejaVuSans-68" transform="translate(574.560547 0)"/>
      <use xlink:href="#DejaVuSans-61" transform="translate(637.939453 0)"/>
      <use xlink:href="#DejaVuSans-72" transform="translate(699.21875 0)"/>
      <use xlink:href="#DejaVuSans-65" transform="translate(738.082031 0)"/>
     </g>
    </g>
    <g id="PathCollection_6">
     <path d="M 377.750625 392.494199 
L 372.791543 402.412363 
L 382.709707 402.412363 
z
" style="fill: #bfc7d5; fill-opacity: 0.9; stroke: #333333; stroke-opacity: 0.9; stroke-width: 0.8"/>
    </g>
    <g id="text_30">
     <!-- Procurement share -->
     <g transform="translate(395.750625 400.078281) scale(0.1 -0.1)">
      <defs>
       <path id="DejaVuSans-6d" d="M 3328 2828 
Q 3544 3216 3844 3400 
Q 4144 3584 4550 3584 
Q 5097 3584 5394 3201 
Q 5691 2819 5691 2113 
L 5691 0 
L 5113 0 
L 5113 2094 
Q 5113 2597 4934 2840 
Q 4756 3084 4391 3084 
Q 3944 3084 3684 2787 
Q 3425 2491 3425 1978 
L 3425 0 
L 2847 0 
L 2847 2094 
Q 2847 2600 2669 2842 
Q 2491 3084 2119 3084 
Q 1678 3084 1418 2786 
Q 1159 2488 1159 1978 
L 1159 0 
L 581 0 
L 581 3500 
L 1159 3500 
L 1159 2956 
Q 1356 3278 1631 3431 
Q 1906 3584 2284 3584 
Q 2666 3584 2933 3390 
Q 3200 3197 3328 2828 
z
" transform="scale(0.015625)"/>
      </defs>
      <use xlink:href="#DejaVuSans-50"/>
      <use xlink:href="#DejaVuSans-72" transform="translate(58.552734 0)"/>
      <use xlink:href="#DejaVuSans-6f" transform="translate(97.416016 0)"/>
      <use xlink:href="#DejaVuSans-63" transform="translate(158.597656 0)"/>
      <use xlink:href="#DejaVuSans-75" transform="translate(213.578125 0)"/>
      <use xlink:href="#DejaVuSans-72" transform="translate(276.957031 0)"/>
      <use xlink:href="#DejaVuSans-65" transform="translate(315.820312 0)"/>
      <use xlink:href="#DejaVuSans-6d" transform="translate(377.34375 0)"/>
      <use xlink:href="#DejaVuSans-65" transform="translate(474.755859 0)"/>
      <use xlink:href="#DejaVuSans-6e" transform="translate(536.279297 0)"/>
      <use xlink:href="#DejaVuSans-74" transform="translate(599.658203 0)"/>
      <use xlink:href="#DejaVuSans-20" transform="translate(638.867188 0)"/>
      <use xlink:href="#DejaVuSans-73" transform="translate(670.654297 0)"/>
      <use xlink:href="#DejaVuSans-68" transform="translate(722.753906 0)"/>
      <use xlink:href="#DejaVuSans-61" transform="translate(786.132812 0)"/>
      <use xlink:href="#DejaVuSans-72" transform="translate(847.412109 0)"/>
      <use xlink:href="#DejaVuSans-65" transform="translate(886.275391 0)"/>
     </g>
    </g>
   </g>
  </g>
 </g>
 <defs>
  <clipPath id="paecde0d528">
   <rect x="53.12875" y="23.077969" width="446.4" height="388.08"/>
  </clipPath>
 </defs>
</svg>
