<?xml version="1.0" encoding="utf-8" standalone="no"?>
<!DOCTYPE svg PUBLIC "-//W3C//DTD SVG 1.1//EN"
  "http://www.w3.org/Graphics/SVG/1.1/DTD/svg11.dtd">
<svg xmlns:xlink="http://www.w3.org/1999/xlink" width="771.25pt" height="449.682031pt" viewBox="0 0 771.25 449.682031" xmlns="http://www.w3.org/2000/svg" version="1.1">
 <metadata>
  <rdf:RDF xmlns:dc="http://purl.org/dc/elements/1.1/" xmlns:cc="http://creativecommons.org/ns#" xmlns:rdf="http://www.w3.org/1999/02/22-rdf-syntax-ns#">
   <cc:Work>
    <dc:type rdf:resource="http://purl.org/dc/dcmitype/StillImage"/>
    <dc:date>2026-04-09T13:04:32.253639</dc:date>
    <dc:format>image/svg+xml</dc:format>
    <dc:creator>
     <cc:Agent>
      <dc:title>Matplotlib v3.10.8, https://matplotlib.org/</dc:title>
     </cc:Agent>
    </dc:creator>
   </cc:Work>
  </rdf:RDF>
 </metadata>
 <defs>
  <style type="text/css">*{stroke-linejoin: round; stroke-linecap: butt}</style>
 </defs>
 <g id="figure_1">
  <g id="patch_1">
   <path d="M -0 449.682031 
L 771.25 449.682031 
L 771.25 0 
L -0 0 
z
" style="fill: #ffffff"/>
  </g>
  <g id="axes_1">
   <g id="patch_2">
    <path d="M 206.05 411.157969 
L 764.05 411.157969 
L 764.05 23.077969 
L 206.05 23.077969 
z
" style="fill: #ffffff"/>
   </g>
   <g id="PathCollection_1">
    <defs>
     <path id="C0_0_568353e0b2" d="M 0 4.1833 
C 1.109424 4.1833 2.173559 3.742521 2.95804 2.95804 
C 3.742521 2.173559 4.1833 1.109424 4.1833 -0 
C 4.1833 -1.109424 3.742521 -2.173559 2.95804 -2.95804 
C 2.173559 -3.742521 1.109424 -4.1833 0 -4.1833 
C -1.109424 -4.1833 -2.173559 -3.742521 -2.95804 -2.95804 
C -3.742521 -2.173559 -4.1833 -1.109424 -4.1833 0 
C -4.1833 1.109424 -3.742521 2.173559 -2.95804 2.95804 
C -2.173559 3.742521 -1.109424 4.1833 0 4.1833 
z
"/>
    </defs>
    <g clip-path="url(#p50d4559a2a)">
     <use xlink:href="#C0_0_568353e0b2" x="231.413636" y="393.517969" style="fill: #3c5a99; stroke: #3c5a99"/>
    </g>
    <g clip-path="url(#p50d4559a2a)">
     <use xlink:href="#C0_0_568353e0b2" x="242.334579" y="361.445241" style="fill: #3c5a99; stroke: #3c5a99"/>
    </g>
    <g clip-path="url(#p50d4559a2a)">
     <use xlink:href="#C0_0_568353e0b2" x="271.656813" y="329.372514" style="fill: #3c5a99; stroke: #3c5a99"/>
    </g>
    <g clip-path="url(#p50d4559a2a)">
     <use xlink:href="#C0_0_568353e0b2" x="315.477807" y="297.299787" style="fill: #3c5a99; stroke: #3c5a99"/>
    </g>
    <g clip-path="url(#p50d4559a2a)">
     <use xlink:href="#C0_0_568353e0b2" x="331.104509" y="265.22706" style="fill: #3c5a99; stroke: #3c5a99"/>
    </g>
    <g clip-path="url(#p50d4559a2a)">
     <use xlink:href="#C0_0_568353e0b2" x="340.587779" y="233.154332" style="fill: #8f3b3b; stroke: #8f3b3b"/>
    </g>
    <g clip-path="url(#p50d4559a2a)">
     <use xlink:href="#C0_0_568353e0b2" x="353.734424" y="201.081605" style="fill: #8f3b3b; stroke: #8f3b3b"/>
    </g>
    <g clip-path="url(#p50d4559a2a)">
     <use xlink:href="#C0_0_568353e0b2" x="354.023285" y="169.008878" style="fill: #8f3b3b; stroke: #8f3b3b"/>
    </g>
    <g clip-path="url(#p50d4559a2a)">
     <use xlink:href="#C0_0_568353e0b2" x="398.782997" y="136.936151" style="fill: #8f3b3b; stroke: #8f3b3b"/>
    </g>
    <g clip-path="url(#p50d4559a2a)">
     <use xlink:href="#C0_0_568353e0b2" x="449.524809" y="104.863423" style="fill: #8f3b3b; stroke: #8f3b3b"/>
    </g>
    <g clip-path="url(#p50d4559a2a)">
     <use xlink:href="#C0_0_568353e0b2" x="614.17147" y="72.790696" style="fill: #8f3b3b; stroke: #8f3b3b"/>
    </g>
    <g clip-path="url(#p50d4559a2a)">
     <use xlink:href="#C0_0_568353e0b2" x="738.686364" y="40.717969" style="fill: #8f3b3b; stroke: #8f3b3b"/>
    </g>
   </g>
   <g id="matplotlib.axis_1">
    <g id="xtick_1">
     <g id="line2d_1">
      <defs>
       <path id="m83aeca2f2e" d="M 0 0 
L 0 3.5 
" style="stroke: #222222; stroke-width: 0.8"/>
      </defs>
      <g>
       <use xlink:href="#m83aeca2f2e" x="219.162145" y="411.157969" style="fill: #222222; stroke: #222222; stroke-width: 0.8"/>
      </g>
     </g>
     <g id="text_1">
      <!-- −0.2 -->
      <g style="fill: #222222" transform="translate(207.020738 425.756406) scale(0.1 -0.1)">
       <defs>
        <path id="DejaVuSans-2212" d="M 678 2272 
L 4684 2272 
L 4684 1741 
L 678 1741 
L 678 2272 
z
" transform="scale(0.015625)"/>
        <path id="DejaVuSans-30" d="M 2034 4250 
Q 1547 4250 1301 3770 
Q 1056 3291 1056 2328 
Q 1056 1369 1301 889 
Q 1547 409 2034 409 
Q 2525 409 2770 889 
Q 3016 1369 3016 2328 
Q 3016 3291 2770 3770 
Q 2525 4250 2034 4250 
z
M 2034 4750 
Q 2819 4750 3233 4129 
Q 3647 3509 3647 2328 
Q 3647 1150 3233 529 
Q 2819 -91 2034 -91 
Q 1250 -91 836 529 
Q 422 1150 422 2328 
Q 422 3509 836 4129 
Q 1250 4750 2034 4750 
z
" transform="scale(0.015625)"/>
        <path id="DejaVuSans-2e" d="M 684 794 
L 1344 794 
L 1344 0 
L 684 0 
L 684 794 
z
" transform="scale(0.015625)"/>
        <path id="DejaVuSans-32" d="M 1228 531 
L 3431 531 
L 3431 0 
L 469 0 
L 469 531 
Q 828 903 1448 1529 
Q 2069 2156 2228 2338 
Q 2531 2678 2651 2914 
Q 2772 3150 2772 3378 
Q 2772 3750 2511 3984 
Q 2250 4219 1831 4219 
Q 1534 4219 1204 4116 
Q 875 4013 500 3803 
L 500 4441 
Q 881 4594 1212 4672 
Q 1544 4750 1819 4750 
Q 2544 4750 2975 4387 
Q 3406 4025 3406 3419 
Q 3406 3131 3298 2873 
Q 3191 2616 2906 2266 
Q 2828 2175 2409 1742 
Q 1991 1309 1228 531 
z
" transform="scale(0.015625)"/>
       </defs>
       <use xlink:href="#DejaVuSans-2212"/>
       <use xlink:href="#DejaVuSans-30" transform="translate(83.789062 0)"/>
       <use xlink:href="#DejaVuSans-2e" transform="translate(147.412109 0)"/>
       <use xlink:href="#DejaVuSans-32" transform="translate(179.199219 0)"/>
      </g>
     </g>
    </g>
    <g id="xtick_2">
     <g id="line2d_2">
      <g>
       <use xlink:href="#m83aeca2f2e" x="333.99682" y="411.157969" style="fill: #222222; stroke: #222222; stroke-width: 0.8"/>
      </g>
     </g>
     <g id="text_2">
      <!-- 0.0 -->
      <g style="fill: #222222" transform="translate(326.045258 425.756406) scale(0.1 -0.1)">
       <use xlink:href="#DejaVuSans-30"/>
       <use xlink:href="#DejaVuSans-2e" transform="translate(63.623047 0)"/>
       <use xlink:href="#DejaVuSans-30" transform="translate(95.410156 0)"/>
      </g>
     </g>
    </g>
    <g id="xtick_3">
     <g id="line2d_3">
      <g>
       <use xlink:href="#m83aeca2f2e" x="448.831496" y="411.157969" style="fill: #222222; stroke: #222222; stroke-width: 0.8"/>
      </g>
     </g>
     <g id="text_3">
      <!-- 0.2 -->
      <g style="fill: #222222" transform="translate(440.879934 425.756406) scale(0.1 -0.1)">
       <use xlink:href="#DejaVuSans-30"/>
       <use xlink:href="#DejaVuSans-2e" transform="translate(63.623047 0)"/>
       <use xlink:href="#DejaVuSans-32" transform="translate(95.410156 0)"/>
      </g>
     </g>
    </g>
    <g id="xtick_4">
     <g id="line2d_4">
      <g>
       <use xlink:href="#m83aeca2f2e" x="563.666172" y="411.157969" style="fill: #222222; stroke: #222222; stroke-width: 0.8"/>
      </g>
     </g>
     <g id="text_4">
      <!-- 0.4 -->
      <g style="fill: #222222" transform="translate(555.71461 425.756406) scale(0.1 -0.1)">
       <defs>
        <path id="DejaVuSans-34" d="M 2419 4116 
L 825 1625 
L 2419 1625 
L 2419 4116 
z
M 2253 4666 
L 3047 4666 
L 3047 1625 
L 3713 1625 
L 3713 1100 
L 3047 1100 
L 3047 0 
L 2419 0 
L 2419 1100 
L 313 1100 
L 313 1709 
L 2253 4666 
z
" transform="scale(0.015625)"/>
       </defs>
       <use xlink:href="#DejaVuSans-30"/>
       <use xlink:href="#DejaVuSans-2e" transform="translate(63.623047 0)"/>
       <use xlink:href="#DejaVuSans-34" transform="translate(95.410156 0)"/>
      </g>
     </g>
    </g>
    <g id="xtick_5">
     <g id="line2d_5">
      <g>
       <use xlink:href="#m83aeca2f2e" x="678.500848" y="411.157969" style="fill: #222222; stroke: #222222; stroke-width: 0.8"/>
      </g>
     </g>
     <g id="text_5">
      <!-- 0.6 -->
      <g style="fill: #222222" transform="translate(670.549286 425.756406) scale(0.1 -0.1)">
       <defs>
        <path id="DejaVuSans-36" d="M 2113 2584 
Q 1688 2584 1439 2293 
Q 1191 2003 1191 1497 
Q 1191 994 1439 701 
Q 1688 409 2113 409 
Q 2538 409 2786 701 
Q 3034 994 3034 1497 
Q 3034 2003 2786 2293 
Q 2538 2584 2113 2584 
z
M 3366 4563 
L 3366 3988 
Q 3128 4100 2886 4159 
Q 2644 4219 2406 4219 
Q 1781 4219 1451 3797 
Q 1122 3375 1075 2522 
Q 1259 2794 1537 2939 
Q 1816 3084 2150 3084 
Q 2853 3084 3261 2657 
Q 3669 2231 3669 1497 
Q 3669 778 3244 343 
Q 2819 -91 2113 -91 
Q 1303 -91 875 529 
Q 447 1150 447 2328 
Q 447 3434 972 4092 
Q 1497 4750 2381 4750 
Q 2619 4750 2861 4703 
Q 3103 4656 3366 4563 
z
" transform="scale(0.015625)"/>
       </defs>
       <use xlink:href="#DejaVuSans-30"/>
       <use xlink:href="#DejaVuSans-2e" transform="translate(63.623047 0)"/>
       <use xlink:href="#DejaVuSans-36" transform="translate(95.410156 0)"/>
      </g>
     </g>
    </g>
    <g id="text_6">
     <!-- High-group minus low-group effect -->
     <g style="fill: #222222" transform="translate(389.319063 440.194375) scale(0.11 -0.11)">
      <defs>
       <path id="DejaVuSans-48" d="M 628 4666 
L 1259 4666 
L 1259 2753 
L 3553 2753 
L 3553 4666 
L 4184 4666 
L 4184 0 
L 3553 0 
L 3553 2222 
L 1259 2222 
L 1259 0 
L 628 0 
L 628 4666 
z
" transform="scale(0.015625)"/>
       <path id="DejaVuSans-69" d="M 603 3500 
L 1178 3500 
L 1178 0 
L 603 0 
L 603 3500 
z
M 603 4863 
L 1178 4863 
L 1178 4134 
L 603 4134 
L 603 4863 
z
" transform="scale(0.015625)"/>
       <path id="DejaVuSans-67" d="M 2906 1791 
Q 2906 2416 2648 2759 
Q 2391 3103 1925 3103 
Q 1463 3103 1205 2759 
Q 947 2416 947 1791 
Q 947 1169 1205 825 
Q 1463 481 1925 481 
Q 2391 481 2648 825 
Q 2906 1169 2906 1791 
z
M 3481 434 
Q 3481 -459 3084 -895 
Q 2688 -1331 1869 -1331 
Q 1566 -1331 1297 -1286 
Q 1028 -1241 775 -1147 
L 775 -588 
Q 1028 -725 1275 -790 
Q 1522 -856 1778 -856 
Q 2344 -856 2625 -561 
Q 2906 -266 2906 331 
L 2906 616 
Q 2728 306 2450 153 
Q 2172 0 1784 0 
Q 1141 0 747 490 
Q 353 981 353 1791 
Q 353 2603 747 3093 
Q 1141 3584 1784 3584 
Q 2172 3584 2450 3431 
Q 2728 3278 2906 2969 
L 2906 3500 
L 3481 3500 
L 3481 434 
z
" transform="scale(0.015625)"/>
       <path id="DejaVuSans-68" d="M 3513 2113 
L 3513 0 
L 2938 0 
L 2938 2094 
Q 2938 2591 2744 2837 
Q 2550 3084 2163 3084 
Q 1697 3084 1428 2787 
Q 1159 2491 1159 1978 
L 1159 0 
L 581 0 
L 581 4863 
L 1159 4863 
L 1159 2956 
Q 1366 3272 1645 3428 
Q 1925 3584 2291 3584 
Q 2894 3584 3203 3211 
Q 3513 2838 3513 2113 
z
" transform="scale(0.015625)"/>
       <path id="DejaVuSans-2d" d="M 313 2009 
L 1997 2009 
L 1997 1497 
L 313 1497 
L 313 2009 
z
" transform="scale(0.015625)"/>
       <path id="DejaVuSans-72" d="M 2631 2963 
Q 2534 3019 2420 3045 
Q 2306 3072 2169 3072 
Q 1681 3072 1420 2755 
Q 1159 2438 1159 1844 
L 1159 0 
L 581 0 
L 581 3500 
L 1159 3500 
L 1159 2956 
Q 1341 3275 1631 3429 
Q 1922 3584 2338 3584 
Q 2397 3584 2469 3576 
Q 2541 3569 2628 3553 
L 2631 2963 
z
" transform="scale(0.015625)"/>
       <path id="DejaVuSans-6f" d="M 1959 3097 
Q 1497 3097 1228 2736 
Q 959 2375 959 1747 
Q 959 1119 1226 758 
Q 1494 397 1959 397 
Q 2419 397 2687 759 
Q 2956 1122 2956 1747 
Q 2956 2369 2687 2733 
Q 2419 3097 1959 3097 
z
M 1959 3584 
Q 2709 3584 3137 3096 
Q 3566 2609 3566 1747 
Q 3566 888 3137 398 
Q 2709 -91 1959 -91 
Q 1206 -91 779 398 
Q 353 888 353 1747 
Q 353 2609 779 3096 
Q 1206 3584 1959 3584 
z
" transform="scale(0.015625)"/>
       <path id="DejaVuSans-75" d="M 544 1381 
L 544 3500 
L 1119 3500 
L 1119 1403 
Q 1119 906 1312 657 
Q 1506 409 1894 409 
Q 2359 409 2629 706 
Q 2900 1003 2900 1516 
L 2900 3500 
L 3475 3500 
L 3475 0 
L 2900 0 
L 2900 538 
Q 2691 219 2414 64 
Q 2138 -91 1772 -91 
Q 1169 -91 856 284 
Q 544 659 544 1381 
z
M 1991 3584 
L 1991 3584 
z
" transform="scale(0.015625)"/>
       <path id="DejaVuSans-70" d="M 1159 525 
L 1159 -1331 
L 581 -1331 
L 581 3500 
L 1159 3500 
L 1159 2969 
Q 1341 3281 1617 3432 
Q 1894 3584 2278 3584 
Q 2916 3584 3314 3078 
Q 3713 2572 3713 1747 
Q 3713 922 3314 415 
Q 2916 -91 2278 -91 
Q 1894 -91 1617 61 
Q 1341 213 1159 525 
z
M 3116 1747 
Q 3116 2381 2855 2742 
Q 2594 3103 2138 3103 
Q 1681 3103 1420 2742 
Q 1159 2381 1159 1747 
Q 1159 1113 1420 752 
Q 1681 391 2138 391 
Q 2594 391 2855 752 
Q 3116 1113 3116 1747 
z
" transform="scale(0.015625)"/>
       <path id="DejaVuSans-20" transform="scale(0.015625)"/>
       <path id="DejaVuSans-6d" d="M 3328 2828 
Q 3544 3216 3844 3400 
Q 4144 3584 4550 3584 
Q 5097 3584 5394 3201 
Q 5691 2819 5691 2113 
L 5691 0 
L 5113 0 
L 5113 2094 
Q 5113 2597 4934 2840 
Q 4756 3084 4391 3084 
Q 3944 3084 3684 2787 
Q 3425 2491 3425 1978 
L 3425 0 
L 2847 0 
L 2847 2094 
Q 2847 2600 2669 2842 
Q 2491 3084 2119 3084 
Q 1678 3084 1418 2786 
Q 1159 2488 1159 1978 
L 1159 0 
L 581 0 
L 581 3500 
L 1159 3500 
L 1159 2956 
Q 1356 3278 1631 3431 
Q 1906 3584 2284 3584 
Q 2666 3584 2933 3390 
Q 3200 3197 3328 2828 
z
" transform="scale(0.015625)"/>
       <path id="DejaVuSans-6e" d="M 3513 2113 
L 3513 0 
L 2938 0 
L 2938 2094 
Q 2938 2591 2744 2837 
Q 2550 3084 2163 3084 
Q 1697 3084 1428 2787 
Q 1159 2491 1159 1978 
L 1159 0 
L 581 0 
L 581 3500 
L 1159 3500 
L 1159 2956 
Q 1366 3272 1645 3428 
Q 1925 3584 2291 3584 
Q 2894 3584 3203 3211 
Q 3513 2838 3513 2113 
z
" transform="scale(0.015625)"/>
       <path id="DejaVuSans-73" d="M 2834 3397 
L 2834 2853 
Q 2591 2978 2328 3040 
Q 2066 3103 1784 3103 
Q 1356 3103 1142 2972 
Q 928 2841 928 2578 
Q 928 2378 1081 2264 
Q 1234 2150 1697 2047 
L 1894 2003 
Q 2506 1872 2764 1633 
Q 3022 1394 3022 966 
Q 3022 478 2636 193 
Q 2250 -91 1575 -91 
Q 1294 -91 989 -36 
Q 684 19 347 128 
L 347 722 
Q 666 556 975 473 
Q 1284 391 1588 391 
Q 1994 391 2212 530 
Q 2431 669 2431 922 
Q 2431 1156 2273 1281 
Q 2116 1406 1581 1522 
L 1381 1569 
Q 847 1681 609 1914 
Q 372 2147 372 2553 
Q 372 3047 722 3315 
Q 1072 3584 1716 3584 
Q 2034 3584 2315 3537 
Q 2597 3491 2834 3397 
z
" transform="scale(0.015625)"/>
       <path id="DejaVuSans-6c" d="M 603 4863 
L 1178 4863 
L 1178 0 
L 603 0 
L 603 4863 
z
" transform="scale(0.015625)"/>
       <path id="DejaVuSans-77" d="M 269 3500 
L 844 3500 
L 1563 769 
L 2278 3500 
L 2956 3500 
L 3675 769 
L 4391 3500 
L 4966 3500 
L 4050 0 
L 3372 0 
L 2619 2869 
L 1863 0 
L 1184 0 
L 269 3500 
z
" transform="scale(0.015625)"/>
       <path id="DejaVuSans-65" d="M 3597 1894 
L 3597 1613 
L 953 1613 
Q 991 1019 1311 708 
Q 1631 397 2203 397 
Q 2534 397 2845 478 
Q 3156 559 3463 722 
L 3463 178 
Q 3153 47 2828 -22 
Q 2503 -91 2169 -91 
Q 1331 -91 842 396 
Q 353 884 353 1716 
Q 353 2575 817 3079 
Q 1281 3584 2069 3584 
Q 2775 3584 3186 3129 
Q 3597 2675 3597 1894 
z
M 3022 2063 
Q 3016 2534 2758 2815 
Q 2500 3097 2075 3097 
Q 1594 3097 1305 2825 
Q 1016 2553 972 2059 
L 3022 2063 
z
" transform="scale(0.015625)"/>
       <path id="DejaVuSans-66" d="M 2375 4863 
L 2375 4384 
L 1825 4384 
Q 1516 4384 1395 4259 
Q 1275 4134 1275 3809 
L 1275 3500 
L 2222 3500 
L 2222 3053 
L 1275 3053 
L 1275 0 
L 697 0 
L 697 3053 
L 147 3053 
L 147 3500 
L 697 3500 
L 697 3744 
Q 697 4328 969 4595 
Q 1241 4863 1831 4863 
L 2375 4863 
z
" transform="scale(0.015625)"/>
       <path id="DejaVuSans-63" d="M 3122 3366 
L 3122 2828 
Q 2878 2963 2633 3030 
Q 2388 3097 2138 3097 
Q 1578 3097 1268 2742 
Q 959 2388 959 1747 
Q 959 1106 1268 751 
Q 1578 397 2138 397 
Q 2388 397 2633 464 
Q 2878 531 3122 666 
L 3122 134 
Q 2881 22 2623 -34 
Q 2366 -91 2075 -91 
Q 1284 -91 818 406 
Q 353 903 353 1747 
Q 353 2603 823 3093 
Q 1294 3584 2113 3584 
Q 2378 3584 2631 3529 
Q 2884 3475 3122 3366 
z
" transform="scale(0.015625)"/>
       <path id="DejaVuSans-74" d="M 1172 4494 
L 1172 3500 
L 2356 3500 
L 2356 3053 
L 1172 3053 
L 1172 1153 
Q 1172 725 1289 603 
Q 1406 481 1766 481 
L 2356 481 
L 2356 0 
L 1766 0 
Q 1100 0 847 248 
Q 594 497 594 1153 
L 594 3053 
L 172 3053 
L 172 3500 
L 594 3500 
L 594 4494 
L 1172 4494 
z
" transform="scale(0.015625)"/>
      </defs>
      <use xlink:href="#DejaVuSans-48"/>
      <use xlink:href="#DejaVuSans-69" transform="translate(75.195312 0)"/>
      <use xlink:href="#DejaVuSans-67" transform="translate(102.978516 0)"/>
      <use xlink:href="#DejaVuSans-68" transform="translate(166.455078 0)"/>
      <use xlink:href="#DejaVuSans-2d" transform="translate(229.833984 0)"/>
      <use xlink:href="#DejaVuSans-67" transform="translate(265.917969 0)"/>
      <use xlink:href="#DejaVuSans-72" transform="translate(329.394531 0)"/>
      <use xlink:href="#DejaVuSans-6f" transform="translate(368.257812 0)"/>
      <use xlink:href="#DejaVuSans-75" transform="translate(429.439453 0)"/>
      <use xlink:href="#DejaVuSans-70" transform="translate(492.818359 0)"/>
      <use xlink:href="#DejaVuSans-20" transform="translate(556.294922 0)"/>
      <use xlink:href="#DejaVuSans-6d" transform="translate(588.082031 0)"/>
      <use xlink:href="#DejaVuSans-69" transform="translate(685.494141 0)"/>
      <use xlink:href="#DejaVuSans-6e" transform="translate(713.277344 0)"/>
      <use xlink:href="#DejaVuSans-75" transform="translate(776.65625 0)"/>
      <use xlink:href="#DejaVuSans-73" transform="translate(840.035156 0)"/>
      <use xlink:href="#DejaVuSans-20" transform="translate(892.134766 0)"/>
      <use xlink:href="#DejaVuSans-6c" transform="translate(923.921875 0)"/>
      <use xlink:href="#DejaVuSans-6f" transform="translate(951.705078 0)"/>
      <use xlink:href="#DejaVuSans-77" transform="translate(1012.886719 0)"/>
      <use xlink:href="#DejaVuSans-2d" transform="translate(1094.673828 0)"/>
      <use xlink:href="#DejaVuSans-67" transform="translate(1130.757812 0)"/>
      <use xlink:href="#DejaVuSans-72" transform="translate(1194.234375 0)"/>
      <use xlink:href="#DejaVuSans-6f" transform="translate(1233.097656 0)"/>
      <use xlink:href="#DejaVuSans-75" transform="translate(1294.279297 0)"/>
      <use xlink:href="#DejaVuSans-70" transform="translate(1357.658203 0)"/>
      <use xlink:href="#DejaVuSans-20" transform="translate(1421.134766 0)"/>
      <use xlink:href="#DejaVuSans-65" transform="translate(1452.921875 0)"/>
      <use xlink:href="#DejaVuSans-66" transform="translate(1514.445312 0)"/>
      <use xlink:href="#DejaVuSans-66" transform="translate(1549.650391 0)"/>
      <use xlink:href="#DejaVuSans-65" transform="translate(1584.855469 0)"/>
      <use xlink:href="#DejaVuSans-63" transform="translate(1646.378906 0)"/>
      <use xlink:href="#DejaVuSans-74" transform="translate(1701.359375 0)"/>
     </g>
    </g>
   </g>
   <g id="matplotlib.axis_2">
    <g id="ytick_1">
     <g id="line2d_6">
      <defs>
       <path id="meb07722f36" d="M 0 0 
L -3.5 0 
" style="stroke: #222222; stroke-width: 0.8"/>
      </defs>
      <g>
       <use xlink:href="#meb07722f36" x="206.05" y="393.517969" style="fill: #222222; stroke: #222222; stroke-width: 0.8"/>
      </g>
     </g>
     <g id="text_7">
      <!-- A-index base | Procurement share -->
      <g style="fill: #222222" transform="translate(29.945312 397.339062) scale(0.1 -0.1)">
       <defs>
        <path id="DejaVuSans-41" d="M 2188 4044 
L 1331 1722 
L 3047 1722 
L 2188 4044 
z
M 1831 4666 
L 2547 4666 
L 4325 0 
L 3669 0 
L 3244 1197 
L 1141 1197 
L 716 0 
L 50 0 
L 1831 4666 
z
" transform="scale(0.015625)"/>
        <path id="DejaVuSans-64" d="M 2906 2969 
L 2906 4863 
L 3481 4863 
L 3481 0 
L 2906 0 
L 2906 525 
Q 2725 213 2448 61 
Q 2172 -91 1784 -91 
Q 1150 -91 751 415 
Q 353 922 353 1747 
Q 353 2572 751 3078 
Q 1150 3584 1784 3584 
Q 2172 3584 2448 3432 
Q 2725 3281 2906 2969 
z
M 947 1747 
Q 947 1113 1208 752 
Q 1469 391 1925 391 
Q 2381 391 2643 752 
Q 2906 1113 2906 1747 
Q 2906 2381 2643 2742 
Q 2381 3103 1925 3103 
Q 1469 3103 1208 2742 
Q 947 2381 947 1747 
z
" transform="scale(0.015625)"/>
        <path id="DejaVuSans-78" d="M 3513 3500 
L 2247 1797 
L 3578 0 
L 2900 0 
L 1881 1375 
L 863 0 
L 184 0 
L 1544 1831 
L 300 3500 
L 978 3500 
L 1906 2253 
L 2834 3500 
L 3513 3500 
z
" transform="scale(0.015625)"/>
        <path id="DejaVuSans-62" d="M 3116 1747 
Q 3116 2381 2855 2742 
Q 2594 3103 2138 3103 
Q 1681 3103 1420 2742 
Q 1159 2381 1159 1747 
Q 1159 1113 1420 752 
Q 1681 391 2138 391 
Q 2594 391 2855 752 
Q 3116 1113 3116 1747 
z
M 1159 2969 
Q 1341 3281 1617 3432 
Q 1894 3584 2278 3584 
Q 2916 3584 3314 3078 
Q 3713 2572 3713 1747 
Q 3713 922 3314 415 
Q 2916 -91 2278 -91 
Q 1894 -91 1617 61 
Q 1341 213 1159 525 
L 1159 0 
L 581 0 
L 581 4863 
L 1159 4863 
L 1159 2969 
z
" transform="scale(0.015625)"/>
        <path id="DejaVuSans-61" d="M 2194 1759 
Q 1497 1759 1228 1600 
Q 959 1441 959 1056 
Q 959 750 1161 570 
Q 1363 391 1709 391 
Q 2188 391 2477 730 
Q 2766 1069 2766 1631 
L 2766 1759 
L 2194 1759 
z
M 3341 1997 
L 3341 0 
L 2766 0 
L 2766 531 
Q 2569 213 2275 61 
Q 1981 -91 1556 -91 
Q 1019 -91 701 211 
Q 384 513 384 1019 
Q 384 1609 779 1909 
Q 1175 2209 1959 2209 
L 2766 2209 
L 2766 2266 
Q 2766 2663 2505 2880 
Q 2244 3097 1772 3097 
Q 1472 3097 1187 3025 
Q 903 2953 641 2809 
L 641 3341 
Q 956 3463 1253 3523 
Q 1550 3584 1831 3584 
Q 2591 3584 2966 3190 
Q 3341 2797 3341 1997 
z
" transform="scale(0.015625)"/>
        <path id="DejaVuSans-7c" d="M 1344 4891 
L 1344 -1509 
L 813 -1509 
L 813 4891 
L 1344 4891 
z
" transform="scale(0.015625)"/>
        <path id="DejaVuSans-50" d="M 1259 4147 
L 1259 2394 
L 2053 2394 
Q 2494 2394 2734 2622 
Q 2975 2850 2975 3272 
Q 2975 3691 2734 3919 
Q 2494 4147 2053 4147 
L 1259 4147 
z
M 628 4666 
L 2053 4666 
Q 2838 4666 3239 4311 
Q 3641 3956 3641 3272 
Q 3641 2581 3239 2228 
Q 2838 1875 2053 1875 
L 1259 1875 
L 1259 0 
L 628 0 
L 628 4666 
z
" transform="scale(0.015625)"/>
       </defs>
       <use xlink:href="#DejaVuSans-41"/>
       <use xlink:href="#DejaVuSans-2d" transform="translate(66.158203 0)"/>
       <use xlink:href="#DejaVuSans-69" transform="translate(102.242188 0)"/>
       <use xlink:href="#DejaVuSans-6e" transform="translate(130.025391 0)"/>
       <use xlink:href="#DejaVuSans-64" transform="translate(193.404297 0)"/>
       <use xlink:href="#DejaVuSans-65" transform="translate(256.880859 0)"/>
       <use xlink:href="#DejaVuSans-78" transform="translate(316.654297 0)"/>
       <use xlink:href="#DejaVuSans-20" transform="translate(375.833984 0)"/>
       <use xlink:href="#DejaVuSans-62" transform="translate(407.621094 0)"/>
       <use xlink:href="#DejaVuSans-61" transform="translate(471.097656 0)"/>
       <use xlink:href="#DejaVuSans-73" transform="translate(532.376953 0)"/>
       <use xlink:href="#DejaVuSans-65" transform="translate(584.476562 0)"/>
       <use xlink:href="#DejaVuSans-20" transform="translate(646 0)"/>
       <use xlink:href="#DejaVuSans-7c" transform="translate(677.787109 0)"/>
       <use xlink:href="#DejaVuSans-20" transform="translate(711.478516 0)"/>
       <use xlink:href="#DejaVuSans-50" transform="translate(743.265625 0)"/>
       <use xlink:href="#DejaVuSans-72" transform="translate(801.818359 0)"/>
       <use xlink:href="#DejaVuSans-6f" transform="translate(840.681641 0)"/>
       <use xlink:href="#DejaVuSans-63" transform="translate(901.863281 0)"/>
       <use xlink:href="#DejaVuSans-75" transform="translate(956.84375 0)"/>
       <use xlink:href="#DejaVuSans-72" transform="translate(1020.222656 0)"/>
       <use xlink:href="#DejaVuSans-65" transform="translate(1059.085938 0)"/>
       <use xlink:href="#DejaVuSans-6d" transform="translate(1120.609375 0)"/>
       <use xlink:href="#DejaVuSans-65" transform="translate(1218.021484 0)"/>
       <use xlink:href="#DejaVuSans-6e" transform="translate(1279.544922 0)"/>
       <use xlink:href="#DejaVuSans-74" transform="translate(1342.923828 0)"/>
       <use xlink:href="#DejaVuSans-20" transform="translate(1382.132812 0)"/>
       <use xlink:href="#DejaVuSans-73" transform="translate(1413.919922 0)"/>
       <use xlink:href="#DejaVuSans-68" transform="translate(1466.019531 0)"/>
       <use xlink:href="#DejaVuSans-61" transform="translate(1529.398438 0)"/>
       <use xlink:href="#DejaVuSans-72" transform="translate(1590.677734 0)"/>
       <use xlink:href="#DejaVuSans-65" transform="translate(1629.541016 0)"/>
      </g>
     </g>
    </g>
    <g id="ytick_2">
     <g id="line2d_7">
      <g>
       <use xlink:href="#meb07722f36" x="206.05" y="361.445241" style="fill: #222222; stroke: #222222; stroke-width: 0.8"/>
      </g>
     </g>
     <g id="text_8">
      <!-- Governance base | PCA quality -->
      <g style="fill: #222222" transform="translate(44.7375 365.266335) scale(0.1 -0.1)">
       <defs>
        <path id="DejaVuSans-47" d="M 3809 666 
L 3809 1919 
L 2778 1919 
L 2778 2438 
L 4434 2438 
L 4434 434 
Q 4069 175 3628 42 
Q 3188 -91 2688 -91 
Q 1594 -91 976 548 
Q 359 1188 359 2328 
Q 359 3472 976 4111 
Q 1594 4750 2688 4750 
Q 3144 4750 3555 4637 
Q 3966 4525 4313 4306 
L 4313 3634 
Q 3963 3931 3569 4081 
Q 3175 4231 2741 4231 
Q 1884 4231 1454 3753 
Q 1025 3275 1025 2328 
Q 1025 1384 1454 906 
Q 1884 428 2741 428 
Q 3075 428 3337 486 
Q 3600 544 3809 666 
z
" transform="scale(0.015625)"/>
        <path id="DejaVuSans-76" d="M 191 3500 
L 800 3500 
L 1894 563 
L 2988 3500 
L 3597 3500 
L 2284 0 
L 1503 0 
L 191 3500 
z
" transform="scale(0.015625)"/>
        <path id="DejaVuSans-43" d="M 4122 4306 
L 4122 3641 
Q 3803 3938 3442 4084 
Q 3081 4231 2675 4231 
Q 1875 4231 1450 3742 
Q 1025 3253 1025 2328 
Q 1025 1406 1450 917 
Q 1875 428 2675 428 
Q 3081 428 3442 575 
Q 3803 722 4122 1019 
L 4122 359 
Q 3791 134 3420 21 
Q 3050 -91 2638 -91 
Q 1578 -91 968 557 
Q 359 1206 359 2328 
Q 359 3453 968 4101 
Q 1578 4750 2638 4750 
Q 3056 4750 3426 4639 
Q 3797 4528 4122 4306 
z
" transform="scale(0.015625)"/>
        <path id="DejaVuSans-71" d="M 947 1747 
Q 947 1113 1208 752 
Q 1469 391 1925 391 
Q 2381 391 2643 752 
Q 2906 1113 2906 1747 
Q 2906 2381 2643 2742 
Q 2381 3103 1925 3103 
Q 1469 3103 1208 2742 
Q 947 2381 947 1747 
z
M 2906 525 
Q 2725 213 2448 61 
Q 2172 -91 1784 -91 
Q 1150 -91 751 415 
Q 353 922 353 1747 
Q 353 2572 751 3078 
Q 1150 3584 1784 3584 
Q 2172 3584 2448 3432 
Q 2725 3281 2906 2969 
L 2906 3500 
L 3481 3500 
L 3481 -1331 
L 2906 -1331 
L 2906 525 
z
" transform="scale(0.015625)"/>
        <path id="DejaVuSans-79" d="M 2059 -325 
Q 1816 -950 1584 -1140 
Q 1353 -1331 966 -1331 
L 506 -1331 
L 506 -850 
L 844 -850 
Q 1081 -850 1212 -737 
Q 1344 -625 1503 -206 
L 1606 56 
L 191 3500 
L 800 3500 
L 1894 763 
L 2988 3500 
L 3597 3500 
L 2059 -325 
z
" transform="scale(0.015625)"/>
       </defs>
       <use xlink:href="#DejaVuSans-47"/>
       <use xlink:href="#DejaVuSans-6f" transform="translate(77.490234 0)"/>
       <use xlink:href="#DejaVuSans-76" transform="translate(138.671875 0)"/>
       <use xlink:href="#DejaVuSans-65" transform="translate(197.851562 0)"/>
       <use xlink:href="#DejaVuSans-72" transform="translate(259.375 0)"/>
       <use xlink:href="#DejaVuSans-6e" transform="translate(298.738281 0)"/>
       <use xlink:href="#DejaVuSans-61" transform="translate(362.117188 0)"/>
       <use xlink:href="#DejaVuSans-6e" transform="translate(423.396484 0)"/>
       <use xlink:href="#DejaVuSans-63" transform="translate(486.775391 0)"/>
       <use xlink:href="#DejaVuSans-65" transform="translate(541.755859 0)"/>
       <use xlink:href="#DejaVuSans-20" transform="translate(603.279297 0)"/>
       <use xlink:href="#DejaVuSans-62" transform="translate(635.066406 0)"/>
       <use xlink:href="#DejaVuSans-61" transform="translate(698.542969 0)"/>
       <use xlink:href="#DejaVuSans-73" transform="translate(759.822266 0)"/>
       <use xlink:href="#DejaVuSans-65" transform="translate(811.921875 0)"/>
       <use xlink:href="#DejaVuSans-20" transform="translate(873.445312 0)"/>
       <use xlink:href="#DejaVuSans-7c" transform="translate(905.232422 0)"/>
       <use xlink:href="#DejaVuSans-20" transform="translate(938.923828 0)"/>
       <use xlink:href="#DejaVuSans-50" transform="translate(970.710938 0)"/>
       <use xlink:href="#DejaVuSans-43" transform="translate(1031.013672 0)"/>
       <use xlink:href="#DejaVuSans-41" transform="translate(1100.837891 0)"/>
       <use xlink:href="#DejaVuSans-20" transform="translate(1169.246094 0)"/>
       <use xlink:href="#DejaVuSans-71" transform="translate(1201.033203 0)"/>
       <use xlink:href="#DejaVuSans-75" transform="translate(1264.509766 0)"/>
       <use xlink:href="#DejaVuSans-61" transform="translate(1327.888672 0)"/>
       <use xlink:href="#DejaVuSans-6c" transform="translate(1389.167969 0)"/>
       <use xlink:href="#DejaVuSans-69" transform="translate(1416.951172 0)"/>
       <use xlink:href="#DejaVuSans-74" transform="translate(1444.734375 0)"/>
       <use xlink:href="#DejaVuSans-79" transform="translate(1483.943359 0)"/>
      </g>
     </g>
    </g>
    <g id="ytick_3">
     <g id="line2d_8">
      <g>
       <use xlink:href="#meb07722f36" x="206.05" y="329.372514" style="fill: #222222; stroke: #222222; stroke-width: 0.8"/>
      </g>
     </g>
     <g id="text_9">
      <!-- Digital economy | Procurement share -->
      <g style="fill: #222222" transform="translate(13.051562 333.193608) scale(0.1 -0.1)">
       <defs>
        <path id="DejaVuSans-44" d="M 1259 4147 
L 1259 519 
L 2022 519 
Q 2988 519 3436 956 
Q 3884 1394 3884 2338 
Q 3884 3275 3436 3711 
Q 2988 4147 2022 4147 
L 1259 4147 
z
M 628 4666 
L 1925 4666 
Q 3281 4666 3915 4102 
Q 4550 3538 4550 2338 
Q 4550 1131 3912 565 
Q 3275 0 1925 0 
L 628 0 
L 628 4666 
z
" transform="scale(0.015625)"/>
       </defs>
       <use xlink:href="#DejaVuSans-44"/>
       <use xlink:href="#DejaVuSans-69" transform="translate(77.001953 0)"/>
       <use xlink:href="#DejaVuSans-67" transform="translate(104.785156 0)"/>
       <use xlink:href="#DejaVuSans-69" transform="translate(168.261719 0)"/>
       <use xlink:href="#DejaVuSans-74" transform="translate(196.044922 0)"/>
       <use xlink:href="#DejaVuSans-61" transform="translate(235.253906 0)"/>
       <use xlink:href="#DejaVuSans-6c" transform="translate(296.533203 0)"/>
       <use xlink:href="#DejaVuSans-20" transform="translate(324.316406 0)"/>
       <use xlink:href="#DejaVuSans-65" transform="translate(356.103516 0)"/>
       <use xlink:href="#DejaVuSans-63" transform="translate(417.626953 0)"/>
       <use xlink:href="#DejaVuSans-6f" transform="translate(472.607422 0)"/>
       <use xlink:href="#DejaVuSans-6e" transform="translate(533.789062 0)"/>
       <use xlink:href="#DejaVuSans-6f" transform="translate(597.167969 0)"/>
       <use xlink:href="#DejaVuSans-6d" transform="translate(658.349609 0)"/>
       <use xlink:href="#DejaVuSans-79" transform="translate(755.761719 0)"/>
       <use xlink:href="#DejaVuSans-20" transform="translate(814.941406 0)"/>
       <use xlink:href="#DejaVuSans-7c" transform="translate(846.728516 0)"/>
       <use xlink:href="#DejaVuSans-20" transform="translate(880.419922 0)"/>
       <use xlink:href="#DejaVuSans-50" transform="translate(912.207031 0)"/>
       <use xlink:href="#DejaVuSans-72" transform="translate(970.759766 0)"/>
       <use xlink:href="#DejaVuSans-6f" transform="translate(1009.623047 0)"/>
       <use xlink:href="#DejaVuSans-63" transform="translate(1070.804688 0)"/>
       <use xlink:href="#DejaVuSans-75" transform="translate(1125.785156 0)"/>
       <use xlink:href="#DejaVuSans-72" transform="translate(1189.164062 0)"/>
       <use xlink:href="#DejaVuSans-65" transform="translate(1228.027344 0)"/>
       <use xlink:href="#DejaVuSans-6d" transform="translate(1289.550781 0)"/>
       <use xlink:href="#DejaVuSans-65" transform="translate(1386.962891 0)"/>
       <use xlink:href="#DejaVuSans-6e" transform="translate(1448.486328 0)"/>
       <use xlink:href="#DejaVuSans-74" transform="translate(1511.865234 0)"/>
       <use xlink:href="#DejaVuSans-20" transform="translate(1551.074219 0)"/>
       <use xlink:href="#DejaVuSans-73" transform="translate(1582.861328 0)"/>
       <use xlink:href="#DejaVuSans-68" transform="translate(1634.960938 0)"/>
       <use xlink:href="#DejaVuSans-61" transform="translate(1698.339844 0)"/>
       <use xlink:href="#DejaVuSans-72" transform="translate(1759.619141 0)"/>
       <use xlink:href="#DejaVuSans-65" transform="translate(1798.482422 0)"/>
      </g>
     </g>
    </g>
    <g id="ytick_4">
     <g id="line2d_9">
      <g>
       <use xlink:href="#meb07722f36" x="206.05" y="297.299787" style="fill: #222222; stroke: #222222; stroke-width: 0.8"/>
      </g>
     </g>
     <g id="text_10">
      <!-- Governance base | Execution share -->
      <g style="fill: #222222" transform="translate(22.017188 301.120881) scale(0.1 -0.1)">
       <defs>
        <path id="DejaVuSans-45" d="M 628 4666 
L 3578 4666 
L 3578 4134 
L 1259 4134 
L 1259 2753 
L 3481 2753 
L 3481 2222 
L 1259 2222 
L 1259 531 
L 3634 531 
L 3634 0 
L 628 0 
L 628 4666 
z
" transform="scale(0.015625)"/>
       </defs>
       <use xlink:href="#DejaVuSans-47"/>
       <use xlink:href="#DejaVuSans-6f" transform="translate(77.490234 0)"/>
       <use xlink:href="#DejaVuSans-76" transform="translate(138.671875 0)"/>
       <use xlink:href="#DejaVuSans-65" transform="translate(197.851562 0)"/>
       <use xlink:href="#DejaVuSans-72" transform="translate(259.375 0)"/>
       <use xlink:href="#DejaVuSans-6e" transform="translate(298.738281 0)"/>
       <use xlink:href="#DejaVuSans-61" transform="translate(362.117188 0)"/>
       <use xlink:href="#DejaVuSans-6e" transform="translate(423.396484 0)"/>
       <use xlink:href="#DejaVuSans-63" transform="translate(486.775391 0)"/>
       <use xlink:href="#DejaVuSans-65" transform="translate(541.755859 0)"/>
       <use xlink:href="#DejaVuSans-20" transform="translate(603.279297 0)"/>
       <use xlink:href="#DejaVuSans-62" transform="translate(635.066406 0)"/>
       <use xlink:href="#DejaVuSans-61" transform="translate(698.542969 0)"/>
       <use xlink:href="#DejaVuSans-73" transform="translate(759.822266 0)"/>
       <use xlink:href="#DejaVuSans-65" transform="translate(811.921875 0)"/>
       <use xlink:href="#DejaVuSans-20" transform="translate(873.445312 0)"/>
       <use xlink:href="#DejaVuSans-7c" transform="translate(905.232422 0)"/>
       <use xlink:href="#DejaVuSans-20" transform="translate(938.923828 0)"/>
       <use xlink:href="#DejaVuSans-45" transform="translate(970.710938 0)"/>
       <use xlink:href="#DejaVuSans-78" transform="translate(1033.894531 0)"/>
       <use xlink:href="#DejaVuSans-65" transform="translate(1089.949219 0)"/>
       <use xlink:href="#DejaVuSans-63" transform="translate(1151.472656 0)"/>
       <use xlink:href="#DejaVuSans-75" transform="translate(1206.453125 0)"/>
       <use xlink:href="#DejaVuSans-74" transform="translate(1269.832031 0)"/>
       <use xlink:href="#DejaVuSans-69" transform="translate(1309.041016 0)"/>
       <use xlink:href="#DejaVuSans-6f" transform="translate(1336.824219 0)"/>
       <use xlink:href="#DejaVuSans-6e" transform="translate(1398.005859 0)"/>
       <use xlink:href="#DejaVuSans-20" transform="translate(1461.384766 0)"/>
       <use xlink:href="#DejaVuSans-73" transform="translate(1493.171875 0)"/>
       <use xlink:href="#DejaVuSans-68" transform="translate(1545.271484 0)"/>
       <use xlink:href="#DejaVuSans-61" transform="translate(1608.650391 0)"/>
       <use xlink:href="#DejaVuSans-72" transform="translate(1669.929688 0)"/>
       <use xlink:href="#DejaVuSans-65" transform="translate(1708.792969 0)"/>
      </g>
     </g>
    </g>
    <g id="ytick_5">
     <g id="line2d_10">
      <g>
       <use xlink:href="#meb07722f36" x="206.05" y="265.22706" style="fill: #222222; stroke: #222222; stroke-width: 0.8"/>
      </g>
     </g>
     <g id="text_11">
      <!-- Digital finance | Procurement share -->
      <g style="fill: #222222" transform="translate(22.184375 269.048153) scale(0.1 -0.1)">
       <use xlink:href="#DejaVuSans-44"/>
       <use xlink:href="#DejaVuSans-69" transform="translate(77.001953 0)"/>
       <use xlink:href="#DejaVuSans-67" transform="translate(104.785156 0)"/>
       <use xlink:href="#DejaVuSans-69" transform="translate(168.261719 0)"/>
       <use xlink:href="#DejaVuSans-74" transform="translate(196.044922 0)"/>
       <use xlink:href="#DejaVuSans-61" transform="translate(235.253906 0)"/>
       <use xlink:href="#DejaVuSans-6c" transform="translate(296.533203 0)"/>
       <use xlink:href="#DejaVuSans-20" transform="translate(324.316406 0)"/>
       <use xlink:href="#DejaVuSans-66" transform="translate(356.103516 0)"/>
       <use xlink:href="#DejaVuSans-69" transform="translate(391.308594 0)"/>
       <use xlink:href="#DejaVuSans-6e" transform="translate(419.091797 0)"/>
       <use xlink:href="#DejaVuSans-61" transform="translate(482.470703 0)"/>
       <use xlink:href="#DejaVuSans-6e" transform="translate(543.75 0)"/>
       <use xlink:href="#DejaVuSans-63" transform="translate(607.128906 0)"/>
       <use xlink:href="#DejaVuSans-65" transform="translate(662.109375 0)"/>
       <use xlink:href="#DejaVuSans-20" transform="translate(723.632812 0)"/>
       <use xlink:href="#DejaVuSans-7c" transform="translate(755.419922 0)"/>
       <use xlink:href="#DejaVuSans-20" transform="translate(789.111328 0)"/>
       <use xlink:href="#DejaVuSans-50" transform="translate(820.898438 0)"/>
       <use xlink:href="#DejaVuSans-72" transform="translate(879.451172 0)"/>
       <use xlink:href="#DejaVuSans-6f" transform="translate(918.314453 0)"/>
       <use xlink:href="#DejaVuSans-63" transform="translate(979.496094 0)"/>
       <use xlink:href="#DejaVuSans-75" transform="translate(1034.476562 0)"/>
       <use xlink:href="#DejaVuSans-72" transform="translate(1097.855469 0)"/>
       <use xlink:href="#DejaVuSans-65" transform="translate(1136.71875 0)"/>
       <use xlink:href="#DejaVuSans-6d" transform="translate(1198.242188 0)"/>
       <use xlink:href="#DejaVuSans-65" transform="translate(1295.654297 0)"/>
       <use xlink:href="#DejaVuSans-6e" transform="translate(1357.177734 0)"/>
       <use xlink:href="#DejaVuSans-74" transform="translate(1420.556641 0)"/>
       <use xlink:href="#DejaVuSans-20" transform="translate(1459.765625 0)"/>
       <use xlink:href="#DejaVuSans-73" transform="translate(1491.552734 0)"/>
       <use xlink:href="#DejaVuSans-68" transform="translate(1543.652344 0)"/>
       <use xlink:href="#DejaVuSans-61" transform="translate(1607.03125 0)"/>
       <use xlink:href="#DejaVuSans-72" transform="translate(1668.310547 0)"/>
       <use xlink:href="#DejaVuSans-65" transform="translate(1707.173828 0)"/>
      </g>
     </g>
    </g>
    <g id="ytick_6">
     <g id="line2d_11">
      <g>
       <use xlink:href="#meb07722f36" x="206.05" y="233.154332" style="fill: #222222; stroke: #222222; stroke-width: 0.8"/>
      </g>
     </g>
     <g id="text_12">
      <!-- Digital finance | Execution share -->
      <g style="fill: #222222" transform="translate(37.001563 236.975426) scale(0.1 -0.1)">
       <use xlink:href="#DejaVuSans-44"/>
       <use xlink:href="#DejaVuSans-69" transform="translate(77.001953 0)"/>
       <use xlink:href="#DejaVuSans-67" transform="translate(104.785156 0)"/>
       <use xlink:href="#DejaVuSans-69" transform="translate(168.261719 0)"/>
       <use xlink:href="#DejaVuSans-74" transform="translate(196.044922 0)"/>
       <use xlink:href="#DejaVuSans-61" transform="translate(235.253906 0)"/>
       <use xlink:href="#DejaVuSans-6c" transform="translate(296.533203 0)"/>
       <use xlink:href="#DejaVuSans-20" transform="translate(324.316406 0)"/>
       <use xlink:href="#DejaVuSans-66" transform="translate(356.103516 0)"/>
       <use xlink:href="#DejaVuSans-69" transform="translate(391.308594 0)"/>
       <use xlink:href="#DejaVuSans-6e" transform="translate(419.091797 0)"/>
       <use xlink:href="#DejaVuSans-61" transform="translate(482.470703 0)"/>
       <use xlink:href="#DejaVuSans-6e" transform="translate(543.75 0)"/>
       <use xlink:href="#DejaVuSans-63" transform="translate(607.128906 0)"/>
       <use xlink:href="#DejaVuSans-65" transform="translate(662.109375 0)"/>
       <use xlink:href="#DejaVuSans-20" transform="translate(723.632812 0)"/>
       <use xlink:href="#DejaVuSans-7c" transform="translate(755.419922 0)"/>
       <use xlink:href="#DejaVuSans-20" transform="translate(789.111328 0)"/>
       <use xlink:href="#DejaVuSans-45" transform="translate(820.898438 0)"/>
       <use xlink:href="#DejaVuSans-78" transform="translate(884.082031 0)"/>
       <use xlink:href="#DejaVuSans-65" transform="translate(940.136719 0)"/>
       <use xlink:href="#DejaVuSans-63" transform="translate(1001.660156 0)"/>
       <use xlink:href="#DejaVuSans-75" transform="translate(1056.640625 0)"/>
       <use xlink:href="#DejaVuSans-74" transform="translate(1120.019531 0)"/>
       <use xlink:href="#DejaVuSans-69" transform="translate(1159.228516 0)"/>
       <use xlink:href="#DejaVuSans-6f" transform="translate(1187.011719 0)"/>
       <use xlink:href="#DejaVuSans-6e" transform="translate(1248.193359 0)"/>
       <use xlink:href="#DejaVuSans-20" transform="translate(1311.572266 0)"/>
       <use xlink:href="#DejaVuSans-73" transform="translate(1343.359375 0)"/>
       <use xlink:href="#DejaVuSans-68" transform="translate(1395.458984 0)"/>
       <use xlink:href="#DejaVuSans-61" transform="translate(1458.837891 0)"/>
       <use xlink:href="#DejaVuSans-72" transform="translate(1520.117188 0)"/>
       <use xlink:href="#DejaVuSans-65" transform="translate(1558.980469 0)"/>
      </g>
     </g>
    </g>
    <g id="ytick_7">
     <g id="line2d_12">
      <g>
       <use xlink:href="#meb07722f36" x="206.05" y="201.081605" style="fill: #222222; stroke: #222222; stroke-width: 0.8"/>
      </g>
     </g>
     <g id="text_13">
      <!-- Governance base | Procurement share -->
      <g style="fill: #222222" transform="translate(7.2 204.902699) scale(0.1 -0.1)">
       <use xlink:href="#DejaVuSans-47"/>
       <use xlink:href="#DejaVuSans-6f" transform="translate(77.490234 0)"/>
       <use xlink:href="#DejaVuSans-76" transform="translate(138.671875 0)"/>
       <use xlink:href="#DejaVuSans-65" transform="translate(197.851562 0)"/>
       <use xlink:href="#DejaVuSans-72" transform="translate(259.375 0)"/>
       <use xlink:href="#DejaVuSans-6e" transform="translate(298.738281 0)"/>
       <use xlink:href="#DejaVuSans-61" transform="translate(362.117188 0)"/>
       <use xlink:href="#DejaVuSans-6e" transform="translate(423.396484 0)"/>
       <use xlink:href="#DejaVuSans-63" transform="translate(486.775391 0)"/>
       <use xlink:href="#DejaVuSans-65" transform="translate(541.755859 0)"/>
       <use xlink:href="#DejaVuSans-20" transform="translate(603.279297 0)"/>
       <use xlink:href="#DejaVuSans-62" transform="translate(635.066406 0)"/>
       <use xlink:href="#DejaVuSans-61" transform="translate(698.542969 0)"/>
       <use xlink:href="#DejaVuSans-73" transform="translate(759.822266 0)"/>
       <use xlink:href="#DejaVuSans-65" transform="translate(811.921875 0)"/>
       <use xlink:href="#DejaVuSans-20" transform="translate(873.445312 0)"/>
       <use xlink:href="#DejaVuSans-7c" transform="translate(905.232422 0)"/>
       <use xlink:href="#DejaVuSans-20" transform="translate(938.923828 0)"/>
       <use xlink:href="#DejaVuSans-50" transform="translate(970.710938 0)"/>
       <use xlink:href="#DejaVuSans-72" transform="translate(1029.263672 0)"/>
       <use xlink:href="#DejaVuSans-6f" transform="translate(1068.126953 0)"/>
       <use xlink:href="#DejaVuSans-63" transform="translate(1129.308594 0)"/>
       <use xlink:href="#DejaVuSans-75" transform="translate(1184.289062 0)"/>
       <use xlink:href="#DejaVuSans-72" transform="translate(1247.667969 0)"/>
       <use xlink:href="#DejaVuSans-65" transform="translate(1286.53125 0)"/>
       <use xlink:href="#DejaVuSans-6d" transform="translate(1348.054688 0)"/>
       <use xlink:href="#DejaVuSans-65" transform="translate(1445.466797 0)"/>
       <use xlink:href="#DejaVuSans-6e" transform="translate(1506.990234 0)"/>
       <use xlink:href="#DejaVuSans-74" transform="translate(1570.369141 0)"/>
       <use xlink:href="#DejaVuSans-20" transform="translate(1609.578125 0)"/>
       <use xlink:href="#DejaVuSans-73" transform="translate(1641.365234 0)"/>
       <use xlink:href="#DejaVuSans-68" transform="translate(1693.464844 0)"/>
       <use xlink:href="#DejaVuSans-61" transform="translate(1756.84375 0)"/>
       <use xlink:href="#DejaVuSans-72" transform="translate(1818.123047 0)"/>
       <use xlink:href="#DejaVuSans-65" transform="translate(1856.986328 0)"/>
      </g>
     </g>
    </g>
    <g id="ytick_8">
     <g id="line2d_13">
      <g>
       <use xlink:href="#meb07722f36" x="206.05" y="169.008878" style="fill: #222222; stroke: #222222; stroke-width: 0.8"/>
      </g>
     </g>
     <g id="text_14">
      <!-- Digital finance | PCA quality -->
      <g style="fill: #222222" transform="translate(59.721875 172.829972) scale(0.1 -0.1)">
       <use xlink:href="#DejaVuSans-44"/>
       <use xlink:href="#DejaVuSans-69" transform="translate(77.001953 0)"/>
       <use xlink:href="#DejaVuSans-67" transform="translate(104.785156 0)"/>
       <use xlink:href="#DejaVuSans-69" transform="translate(168.261719 0)"/>
       <use xlink:href="#DejaVuSans-74" transform="translate(196.044922 0)"/>
       <use xlink:href="#DejaVuSans-61" transform="translate(235.253906 0)"/>
       <use xlink:href="#DejaVuSans-6c" transform="translate(296.533203 0)"/>
       <use xlink:href="#DejaVuSans-20" transform="translate(324.316406 0)"/>
       <use xlink:href="#DejaVuSans-66" transform="translate(356.103516 0)"/>
       <use xlink:href="#DejaVuSans-69" transform="translate(391.308594 0)"/>
       <use xlink:href="#DejaVuSans-6e" transform="translate(419.091797 0)"/>
       <use xlink:href="#DejaVuSans-61" transform="translate(482.470703 0)"/>
       <use xlink:href="#DejaVuSans-6e" transform="translate(543.75 0)"/>
       <use xlink:href="#DejaVuSans-63" transform="translate(607.128906 0)"/>
       <use xlink:href="#DejaVuSans-65" transform="translate(662.109375 0)"/>
       <use xlink:href="#DejaVuSans-20" transform="translate(723.632812 0)"/>
       <use xlink:href="#DejaVuSans-7c" transform="translate(755.419922 0)"/>
       <use xlink:href="#DejaVuSans-20" transform="translate(789.111328 0)"/>
       <use xlink:href="#DejaVuSans-50" transform="translate(820.898438 0)"/>
       <use xlink:href="#DejaVuSans-43" transform="translate(881.201172 0)"/>
       <use xlink:href="#DejaVuSans-41" transform="translate(951.025391 0)"/>
       <use xlink:href="#DejaVuSans-20" transform="translate(1019.433594 0)"/>
       <use xlink:href="#DejaVuSans-71" transform="translate(1051.220703 0)"/>
       <use xlink:href="#DejaVuSans-75" transform="translate(1114.697266 0)"/>
       <use xlink:href="#DejaVuSans-61" transform="translate(1178.076172 0)"/>
       <use xlink:href="#DejaVuSans-6c" transform="translate(1239.355469 0)"/>
       <use xlink:href="#DejaVuSans-69" transform="translate(1267.138672 0)"/>
       <use xlink:href="#DejaVuSans-74" transform="translate(1294.921875 0)"/>
       <use xlink:href="#DejaVuSans-79" transform="translate(1334.130859 0)"/>
      </g>
     </g>
    </g>
    <g id="ytick_9">
     <g id="line2d_14">
      <g>
       <use xlink:href="#meb07722f36" x="206.05" y="136.936151" style="fill: #222222; stroke: #222222; stroke-width: 0.8"/>
      </g>
     </g>
     <g id="text_15">
      <!-- Digital economy | Execution share -->
      <g style="fill: #222222" transform="translate(27.86875 140.757244) scale(0.1 -0.1)">
       <use xlink:href="#DejaVuSans-44"/>
       <use xlink:href="#DejaVuSans-69" transform="translate(77.001953 0)"/>
       <use xlink:href="#DejaVuSans-67" transform="translate(104.785156 0)"/>
       <use xlink:href="#DejaVuSans-69" transform="translate(168.261719 0)"/>
       <use xlink:href="#DejaVuSans-74" transform="translate(196.044922 0)"/>
       <use xlink:href="#DejaVuSans-61" transform="translate(235.253906 0)"/>
       <use xlink:href="#DejaVuSans-6c" transform="translate(296.533203 0)"/>
       <use xlink:href="#DejaVuSans-20" transform="translate(324.316406 0)"/>
       <use xlink:href="#DejaVuSans-65" transform="translate(356.103516 0)"/>
       <use xlink:href="#DejaVuSans-63" transform="translate(417.626953 0)"/>
       <use xlink:href="#DejaVuSans-6f" transform="translate(472.607422 0)"/>
       <use xlink:href="#DejaVuSans-6e" transform="translate(533.789062 0)"/>
       <use xlink:href="#DejaVuSans-6f" transform="translate(597.167969 0)"/>
       <use xlink:href="#DejaVuSans-6d" transform="translate(658.349609 0)"/>
       <use xlink:href="#DejaVuSans-79" transform="translate(755.761719 0)"/>
       <use xlink:href="#DejaVuSans-20" transform="translate(814.941406 0)"/>
       <use xlink:href="#DejaVuSans-7c" transform="translate(846.728516 0)"/>
       <use xlink:href="#DejaVuSans-20" transform="translate(880.419922 0)"/>
       <use xlink:href="#DejaVuSans-45" transform="translate(912.207031 0)"/>
       <use xlink:href="#DejaVuSans-78" transform="translate(975.390625 0)"/>
       <use xlink:href="#DejaVuSans-65" transform="translate(1031.445312 0)"/>
       <use xlink:href="#DejaVuSans-63" transform="translate(1092.96875 0)"/>
       <use xlink:href="#DejaVuSans-75" transform="translate(1147.949219 0)"/>
       <use xlink:href="#DejaVuSans-74" transform="translate(1211.328125 0)"/>
       <use xlink:href="#DejaVuSans-69" transform="translate(1250.537109 0)"/>
       <use xlink:href="#DejaVuSans-6f" transform="translate(1278.320312 0)"/>
       <use xlink:href="#DejaVuSans-6e" transform="translate(1339.501953 0)"/>
       <use xlink:href="#DejaVuSans-20" transform="translate(1402.880859 0)"/>
       <use xlink:href="#DejaVuSans-73" transform="translate(1434.667969 0)"/>
       <use xlink:href="#DejaVuSans-68" transform="translate(1486.767578 0)"/>
       <use xlink:href="#DejaVuSans-61" transform="translate(1550.146484 0)"/>
       <use xlink:href="#DejaVuSans-72" transform="translate(1611.425781 0)"/>
       <use xlink:href="#DejaVuSans-65" transform="translate(1650.289062 0)"/>
      </g>
     </g>
    </g>
    <g id="ytick_10">
     <g id="line2d_15">
      <g>
       <use xlink:href="#meb07722f36" x="206.05" y="104.863423" style="fill: #222222; stroke: #222222; stroke-width: 0.8"/>
      </g>
     </g>
     <g id="text_16">
      <!-- A-index base | Execution share -->
      <g style="fill: #222222" transform="translate(44.7625 108.684517) scale(0.1 -0.1)">
       <use xlink:href="#DejaVuSans-41"/>
       <use xlink:href="#DejaVuSans-2d" transform="translate(66.158203 0)"/>
       <use xlink:href="#DejaVuSans-69" transform="translate(102.242188 0)"/>
       <use xlink:href="#DejaVuSans-6e" transform="translate(130.025391 0)"/>
       <use xlink:href="#DejaVuSans-64" transform="translate(193.404297 0)"/>
       <use xlink:href="#DejaVuSans-65" transform="translate(256.880859 0)"/>
       <use xlink:href="#DejaVuSans-78" transform="translate(316.654297 0)"/>
       <use xlink:href="#DejaVuSans-20" transform="translate(375.833984 0)"/>
       <use xlink:href="#DejaVuSans-62" transform="translate(407.621094 0)"/>
       <use xlink:href="#DejaVuSans-61" transform="translate(471.097656 0)"/>
       <use xlink:href="#DejaVuSans-73" transform="translate(532.376953 0)"/>
       <use xlink:href="#DejaVuSans-65" transform="translate(584.476562 0)"/>
       <use xlink:href="#DejaVuSans-20" transform="translate(646 0)"/>
       <use xlink:href="#DejaVuSans-7c" transform="translate(677.787109 0)"/>
       <use xlink:href="#DejaVuSans-20" transform="translate(711.478516 0)"/>
       <use xlink:href="#DejaVuSans-45" transform="translate(743.265625 0)"/>
       <use xlink:href="#DejaVuSans-78" transform="translate(806.449219 0)"/>
       <use xlink:href="#DejaVuSans-65" transform="translate(862.503906 0)"/>
       <use xlink:href="#DejaVuSans-63" transform="translate(924.027344 0)"/>
       <use xlink:href="#DejaVuSans-75" transform="translate(979.007812 0)"/>
       <use xlink:href="#DejaVuSans-74" transform="translate(1042.386719 0)"/>
       <use xlink:href="#DejaVuSans-69" transform="translate(1081.595703 0)"/>
       <use xlink:href="#DejaVuSans-6f" transform="translate(1109.378906 0)"/>
       <use xlink:href="#DejaVuSans-6e" transform="translate(1170.560547 0)"/>
       <use xlink:href="#DejaVuSans-20" transform="translate(1233.939453 0)"/>
       <use xlink:href="#DejaVuSans-73" transform="translate(1265.726562 0)"/>
       <use xlink:href="#DejaVuSans-68" transform="translate(1317.826172 0)"/>
       <use xlink:href="#DejaVuSans-61" transform="translate(1381.205078 0)"/>
       <use xlink:href="#DejaVuSans-72" transform="translate(1442.484375 0)"/>
       <use xlink:href="#DejaVuSans-65" transform="translate(1481.347656 0)"/>
      </g>
     </g>
    </g>
    <g id="ytick_11">
     <g id="line2d_16">
      <g>
       <use xlink:href="#meb07722f36" x="206.05" y="72.790696" style="fill: #222222; stroke: #222222; stroke-width: 0.8"/>
      </g>
     </g>
     <g id="text_17">
      <!-- Digital economy | PCA quality -->
      <g style="fill: #222222" transform="translate(50.589063 76.61179) scale(0.1 -0.1)">
       <use xlink:href="#DejaVuSans-44"/>
       <use xlink:href="#DejaVuSans-69" transform="translate(77.001953 0)"/>
       <use xlink:href="#DejaVuSans-67" transform="translate(104.785156 0)"/>
       <use xlink:href="#DejaVuSans-69" transform="translate(168.261719 0)"/>
       <use xlink:href="#DejaVuSans-74" transform="translate(196.044922 0)"/>
       <use xlink:href="#DejaVuSans-61" transform="translate(235.253906 0)"/>
       <use xlink:href="#DejaVuSans-6c" transform="translate(296.533203 0)"/>
       <use xlink:href="#DejaVuSans-20" transform="translate(324.316406 0)"/>
       <use xlink:href="#DejaVuSans-65" transform="translate(356.103516 0)"/>
       <use xlink:href="#DejaVuSans-63" transform="translate(417.626953 0)"/>
       <use xlink:href="#DejaVuSans-6f" transform="translate(472.607422 0)"/>
       <use xlink:href="#DejaVuSans-6e" transform="translate(533.789062 0)"/>
       <use xlink:href="#DejaVuSans-6f" transform="translate(597.167969 0)"/>
       <use xlink:href="#DejaVuSans-6d" transform="translate(658.349609 0)"/>
       <use xlink:href="#DejaVuSans-79" transform="translate(755.761719 0)"/>
       <use xlink:href="#DejaVuSans-20" transform="translate(814.941406 0)"/>
       <use xlink:href="#DejaVuSans-7c" transform="translate(846.728516 0)"/>
       <use xlink:href="#DejaVuSans-20" transform="translate(880.419922 0)"/>
       <use xlink:href="#DejaVuSans-50" transform="translate(912.207031 0)"/>
       <use xlink:href="#DejaVuSans-43" transform="translate(972.509766 0)"/>
       <use xlink:href="#DejaVuSans-41" transform="translate(1042.333984 0)"/>
       <use xlink:href="#DejaVuSans-20" transform="translate(1110.742188 0)"/>
       <use xlink:href="#DejaVuSans-71" transform="translate(1142.529297 0)"/>
       <use xlink:href="#DejaVuSans-75" transform="translate(1206.005859 0)"/>
       <use xlink:href="#DejaVuSans-61" transform="translate(1269.384766 0)"/>
       <use xlink:href="#DejaVuSans-6c" transform="translate(1330.664062 0)"/>
       <use xlink:href="#DejaVuSans-69" transform="translate(1358.447266 0)"/>
       <use xlink:href="#DejaVuSans-74" transform="translate(1386.230469 0)"/>
       <use xlink:href="#DejaVuSans-79" transform="translate(1425.439453 0)"/>
      </g>
     </g>
    </g>
    <g id="ytick_12">
     <g id="line2d_17">
      <g>
       <use xlink:href="#meb07722f36" x="206.05" y="40.717969" style="fill: #222222; stroke: #222222; stroke-width: 0.8"/>
      </g>
     </g>
     <g id="text_18">
      <!-- A-index base | PCA quality -->
      <g style="fill: #222222" transform="translate(67.482812 44.539062) scale(0.1 -0.1)">
       <use xlink:href="#DejaVuSans-41"/>
       <use xlink:href="#DejaVuSans-2d" transform="translate(66.158203 0)"/>
       <use xlink:href="#DejaVuSans-69" transform="translate(102.242188 0)"/>
       <use xlink:href="#DejaVuSans-6e" transform="translate(130.025391 0)"/>
       <use xlink:href="#DejaVuSans-64" transform="translate(193.404297 0)"/>
       <use xlink:href="#DejaVuSans-65" transform="translate(256.880859 0)"/>
       <use xlink:href="#DejaVuSans-78" transform="translate(316.654297 0)"/>
       <use xlink:href="#DejaVuSans-20" transform="translate(375.833984 0)"/>
       <use xlink:href="#DejaVuSans-62" transform="translate(407.621094 0)"/>
       <use xlink:href="#DejaVuSans-61" transform="translate(471.097656 0)"/>
       <use xlink:href="#DejaVuSans-73" transform="translate(532.376953 0)"/>
       <use xlink:href="#DejaVuSans-65" transform="translate(584.476562 0)"/>
       <use xlink:href="#DejaVuSans-20" transform="translate(646 0)"/>
       <use xlink:href="#DejaVuSans-7c" transform="translate(677.787109 0)"/>
       <use xlink:href="#DejaVuSans-20" transform="translate(711.478516 0)"/>
       <use xlink:href="#DejaVuSans-50" transform="translate(743.265625 0)"/>
       <use xlink:href="#DejaVuSans-43" transform="translate(803.568359 0)"/>
       <use xlink:href="#DejaVuSans-41" transform="translate(873.392578 0)"/>
       <use xlink:href="#DejaVuSans-20" transform="translate(941.800781 0)"/>
       <use xlink:href="#DejaVuSans-71" transform="translate(973.587891 0)"/>
       <use xlink:href="#DejaVuSans-75" transform="translate(1037.064453 0)"/>
       <use xlink:href="#DejaVuSans-61" transform="translate(1100.443359 0)"/>
       <use xlink:href="#DejaVuSans-6c" transform="translate(1161.722656 0)"/>
       <use xlink:href="#DejaVuSans-69" transform="translate(1189.505859 0)"/>
       <use xlink:href="#DejaVuSans-74" transform="translate(1217.289062 0)"/>
       <use xlink:href="#DejaVuSans-79" transform="translate(1256.498047 0)"/>
      </g>
     </g>
    </g>
   </g>
   <g id="LineCollection_1">
    <path d="M 333.99682 393.517969 
L 231.413636 393.517969 
" clip-path="url(#p50d4559a2a)" style="fill: none; stroke: #3c5a99; stroke-width: 2"/>
    <path d="M 333.99682 361.445241 
L 242.334579 361.445241 
" clip-path="url(#p50d4559a2a)" style="fill: none; stroke: #3c5a99; stroke-width: 2"/>
    <path d="M 333.99682 329.372514 
L 271.656813 329.372514 
" clip-path="url(#p50d4559a2a)" style="fill: none; stroke: #3c5a99; stroke-width: 2"/>
    <path d="M 333.99682 297.299787 
L 315.477807 297.299787 
" clip-path="url(#p50d4559a2a)" style="fill: none; stroke: #3c5a99; stroke-width: 2"/>
    <path d="M 333.99682 265.22706 
L 331.104509 265.22706 
" clip-path="url(#p50d4559a2a)" style="fill: none; stroke: #3c5a99; stroke-width: 2"/>
    <path d="M 333.99682 233.154332 
L 340.587779 233.154332 
" clip-path="url(#p50d4559a2a)" style="fill: none; stroke: #8f3b3b; stroke-width: 2"/>
    <path d="M 333.99682 201.081605 
L 353.734424 201.081605 
" clip-path="url(#p50d4559a2a)" style="fill: none; stroke: #8f3b3b; stroke-width: 2"/>
    <path d="M 333.99682 169.008878 
L 354.023285 169.008878 
" clip-path="url(#p50d4559a2a)" style="fill: none; stroke: #8f3b3b; stroke-width: 2"/>
    <path d="M 333.99682 136.936151 
L 398.782997 136.936151 
" clip-path="url(#p50d4559a2a)" style="fill: none; stroke: #8f3b3b; stroke-width: 2"/>
    <path d="M 333.99682 104.863423 
L 449.524809 104.863423 
" clip-path="url(#p50d4559a2a)" style="fill: none; stroke: #8f3b3b; stroke-width: 2"/>
    <path d="M 333.99682 72.790696 
L 614.17147 72.790696 
" clip-path="url(#p50d4559a2a)" style="fill: none; stroke: #8f3b3b; stroke-width: 2"/>
    <path d="M 333.99682 40.717969 
L 738.686364 40.717969 
" clip-path="url(#p50d4559a2a)" style="fill: none; stroke: #8f3b3b; stroke-width: 2"/>
   </g>
   <g id="line2d_18">
    <path d="M 333.99682 411.157969 
L 333.99682 23.077969 
" clip-path="url(#p50d4559a2a)" style="fill: none; stroke-dasharray: 3.7,1.6; stroke-dashoffset: 0; stroke: #777777"/>
   </g>
   <g id="patch_3">
    <path d="M 206.05 411.157969 
L 206.05 23.077969 
" style="fill: none; stroke: #222222; stroke-width: 0.8; stroke-linejoin: miter; stroke-linecap: square"/>
   </g>
   <g id="patch_4">
    <path d="M 206.05 411.157969 
L 764.05 411.157969 
" style="fill: none; stroke: #222222; stroke-width: 0.8; stroke-linejoin: miter; stroke-linecap: square"/>
   </g>
   <g id="text_19">
    <!-- Figure 7-4  Ranking of heterogeneity gaps -->
    <g transform="translate(348.402734 17.077969) scale(0.13 -0.13)">
     <defs>
      <path id="DejaVuSans-46" d="M 628 4666 
L 3309 4666 
L 3309 4134 
L 1259 4134 
L 1259 2759 
L 3109 2759 
L 3109 2228 
L 1259 2228 
L 1259 0 
L 628 0 
L 628 4666 
z
" transform="scale(0.015625)"/>
      <path id="DejaVuSans-37" d="M 525 4666 
L 3525 4666 
L 3525 4397 
L 1831 0 
L 1172 0 
L 2766 4134 
L 525 4134 
L 525 4666 
z
" transform="scale(0.015625)"/>
      <path id="DejaVuSans-52" d="M 2841 2188 
Q 3044 2119 3236 1894 
Q 3428 1669 3622 1275 
L 4263 0 
L 3584 0 
L 2988 1197 
Q 2756 1666 2539 1819 
Q 2322 1972 1947 1972 
L 1259 1972 
L 1259 0 
L 628 0 
L 628 4666 
L 2053 4666 
Q 2853 4666 3247 4331 
Q 3641 3997 3641 3322 
Q 3641 2881 3436 2590 
Q 3231 2300 2841 2188 
z
M 1259 4147 
L 1259 2491 
L 2053 2491 
Q 2509 2491 2742 2702 
Q 2975 2913 2975 3322 
Q 2975 3731 2742 3939 
Q 2509 4147 2053 4147 
L 1259 4147 
z
" transform="scale(0.015625)"/>
      <path id="DejaVuSans-6b" d="M 581 4863 
L 1159 4863 
L 1159 1991 
L 2875 3500 
L 3609 3500 
L 1753 1863 
L 3688 0 
L 2938 0 
L 1159 1709 
L 1159 0 
L 581 0 
L 581 4863 
z
" transform="scale(0.015625)"/>
     </defs>
     <use xlink:href="#DejaVuSans-46"/>
     <use xlink:href="#DejaVuSans-69" transform="translate(50.269531 0)"/>
     <use xlink:href="#DejaVuSans-67" transform="translate(78.052734 0)"/>
     <use xlink:href="#DejaVuSans-75" transform="translate(141.529297 0)"/>
     <use xlink:href="#DejaVuSans-72" transform="translate(204.908203 0)"/>
     <use xlink:href="#DejaVuSans-65" transform="translate(243.771484 0)"/>
     <use xlink:href="#DejaVuSans-20" transform="translate(305.294922 0)"/>
     <use xlink:href="#DejaVuSans-37" transform="translate(337.082031 0)"/>
     <use xlink:href="#DejaVuSans-2d" transform="translate(400.705078 0)"/>
     <use xlink:href="#DejaVuSans-34" transform="translate(436.789062 0)"/>
     <use xlink:href="#DejaVuSans-20" transform="translate(500.412109 0)"/>
     <use xlink:href="#DejaVuSans-20" transform="translate(532.199219 0)"/>
     <use xlink:href="#DejaVuSans-52" transform="translate(563.986328 0)"/>
     <use xlink:href="#DejaVuSans-61" transform="translate(631.21875 0)"/>
     <use xlink:href="#DejaVuSans-6e" transform="translate(692.498047 0)"/>
     <use xlink:href="#DejaVuSans-6b" transform="translate(755.876953 0)"/>
     <use xlink:href="#DejaVuSans-69" transform="translate(813.787109 0)"/>
     <use xlink:href="#DejaVuSans-6e" transform="translate(841.570312 0)"/>
     <use xlink:href="#DejaVuSans-67" transform="translate(904.949219 0)"/>
     <use xlink:href="#DejaVuSans-20" transform="translate(968.425781 0)"/>
     <use xlink:href="#DejaVuSans-6f" transform="translate(1000.212891 0)"/>
     <use xlink:href="#DejaVuSans-66" transform="translate(1061.394531 0)"/>
     <use xlink:href="#DejaVuSans-20" transform="translate(1096.599609 0)"/>
     <use xlink:href="#DejaVuSans-68" transform="translate(1128.386719 0)"/>
     <use xlink:href="#DejaVuSans-65" transform="translate(1191.765625 0)"/>
     <use xlink:href="#DejaVuSans-74" transform="translate(1253.289062 0)"/>
     <use xlink:href="#DejaVuSans-65" transform="translate(1292.498047 0)"/>
     <use xlink:href="#DejaVuSans-72" transform="translate(1354.021484 0)"/>
     <use xlink:href="#DejaVuSans-6f" transform="translate(1392.884766 0)"/>
     <use xlink:href="#DejaVuSans-67" transform="translate(1454.066406 0)"/>
     <use xlink:href="#DejaVuSans-65" transform="translate(1517.542969 0)"/>
     <use xlink:href="#DejaVuSans-6e" transform="translate(1579.066406 0)"/>
     <use xlink:href="#DejaVuSans-65" transform="translate(1642.445312 0)"/>
     <use xlink:href="#DejaVuSans-69" transform="translate(1703.96875 0)"/>
     <use xlink:href="#DejaVuSans-74" transform="translate(1731.751953 0)"/>
     <use xlink:href="#DejaVuSans-79" transform="translate(1770.960938 0)"/>
     <use xlink:href="#DejaVuSans-20" transform="translate(1830.140625 0)"/>
     <use xlink:href="#DejaVuSans-67" transform="translate(1861.927734 0)"/>
     <use xlink:href="#DejaVuSans-61" transform="translate(1925.404297 0)"/>
     <use xlink:href="#DejaVuSans-70" transform="translate(1986.683594 0)"/>
     <use xlink:href="#DejaVuSans-73" transform="translate(2050.160156 0)"/>
    </g>
   </g>
  </g>
 </g>
 <defs>
  <clipPath id="p50d4559a2a">
   <rect x="206.05" y="23.077969" width="558" height="388.08"/>
  </clipPath>
 </defs>
</svg>
