<?xml version="1.0" encoding="utf-8" standalone="no"?>
<!DOCTYPE svg PUBLIC "-//W3C//DTD SVG 1.1//EN"
  "http://www.w3.org/Graphics/SVG/1.1/DTD/svg11.dtd">
<svg xmlns:xlink="http://www.w3.org/1999/xlink" width="572.4pt" height="362.917969pt" viewBox="0 0 572.4 362.917969" xmlns="http://www.w3.org/2000/svg" version="1.1">
 <metadata>
  <rdf:RDF xmlns:dc="http://purl.org/dc/elements/1.1/" xmlns:cc="http://creativecommons.org/ns#" xmlns:rdf="http://www.w3.org/1999/02/22-rdf-syntax-ns#">
   <cc:Work>
    <dc:type rdf:resource="http://purl.org/dc/dcmitype/StillImage"/>
    <dc:date>2026-04-09T13:04:37.423437</dc:date>
    <dc:format>image/svg+xml</dc:format>
    <dc:creator>
     <cc:Agent>
      <dc:title>Matplotlib v3.10.8, https://matplotlib.org/</dc:title>
     </cc:Agent>
    </dc:creator>
   </cc:Work>
  </rdf:RDF>
 </metadata>
 <defs>
  <style type="text/css">*{stroke-linejoin: round; stroke-linecap: butt}</style>
 </defs>
 <g id="figure_1">
  <g id="patch_1">
   <path d="M 0 362.917969 
L 572.4 362.917969 
L 572.4 0 
L 0 0 
z
" style="fill: #ffffff"/>
  </g>
  <g id="axes_1">
   <g id="patch_2">
    <path d="M 35.1 69.647569 
L 102.06 69.647569 
L 102.06 43.036369 
L 35.1 43.036369 
z
" clip-path="url(#p55e2d2d2e1)" style="fill: #eef2f6; stroke: #333333; stroke-linejoin: miter"/>
   </g>
   <g id="patch_3">
    <path d="M 35.1 112.890769 
L 102.06 112.890769 
L 102.06 86.279569 
L 35.1 86.279569 
z
" clip-path="url(#p55e2d2d2e1)" style="fill: #eef2f6; stroke: #333333; stroke-linejoin: miter"/>
   </g>
   <g id="patch_4">
    <path d="M 35.1 156.133969 
L 102.06 156.133969 
L 102.06 129.522769 
L 35.1 129.522769 
z
" clip-path="url(#p55e2d2d2e1)" style="fill: #eef2f6; stroke: #333333; stroke-linejoin: miter"/>
   </g>
   <g id="patch_5">
    <path d="M 35.1 199.377169 
L 102.06 199.377169 
L 102.06 172.765969 
L 35.1 172.765969 
z
" clip-path="url(#p55e2d2d2e1)" style="fill: #eef2f6; stroke: #333333; stroke-linejoin: miter"/>
   </g>
   <g id="patch_6">
    <path d="M 35.1 242.620369 
L 102.06 242.620369 
L 102.06 216.009169 
L 35.1 216.009169 
z
" clip-path="url(#p55e2d2d2e1)" style="fill: #eef2f6; stroke: #333333; stroke-linejoin: miter"/>
   </g>
   <g id="patch_7">
    <path d="M 35.1 285.863569 
L 102.06 285.863569 
L 102.06 259.252369 
L 35.1 259.252369 
z
" clip-path="url(#p55e2d2d2e1)" style="fill: #eef2f6; stroke: #333333; stroke-linejoin: miter"/>
   </g>
   <g id="patch_8">
    <path d="M 258.3 102.911569 
L 325.26 102.911569 
L 325.26 76.300369 
L 258.3 76.300369 
z
" clip-path="url(#p55e2d2d2e1)" style="fill: #f7f7f7; stroke: #333333; stroke-linejoin: miter"/>
   </g>
   <g id="patch_9">
    <path d="M 258.3 186.071569 
L 325.26 186.071569 
L 325.26 159.460369 
L 258.3 159.460369 
z
" clip-path="url(#p55e2d2d2e1)" style="fill: #f7f7f7; stroke: #333333; stroke-linejoin: miter"/>
   </g>
   <g id="patch_10">
    <path d="M 258.3 269.231569 
L 325.26 269.231569 
L 325.26 242.620369 
L 258.3 242.620369 
z
" clip-path="url(#p55e2d2d2e1)" style="fill: #f7f7f7; stroke: #333333; stroke-linejoin: miter"/>
   </g>
   <g id="patch_11">
    <path d="M 464.76 102.911569 
L 531.72 102.911569 
L 531.72 76.300369 
L 464.76 76.300369 
z
" clip-path="url(#p55e2d2d2e1)" style="fill: #f6f0f0; stroke: #333333; stroke-linejoin: miter"/>
   </g>
   <g id="patch_12">
    <path d="M 464.76 186.071569 
L 531.72 186.071569 
L 531.72 159.460369 
L 464.76 159.460369 
z
" clip-path="url(#p55e2d2d2e1)" style="fill: #f6f0f0; stroke: #333333; stroke-linejoin: miter"/>
   </g>
   <g id="patch_13">
    <path d="M 464.76 269.231569 
L 531.72 269.231569 
L 531.72 242.620369 
L 464.76 242.620369 
z
" clip-path="url(#p55e2d2d2e1)" style="fill: #f6f0f0; stroke: #333333; stroke-linejoin: miter"/>
   </g>
   <g id="patch_14">
    <path d="M 104.019675 56.75919 
Q 180.182873 72.97458 256.346071 89.189971 
" clip-path="url(#p55e2d2d2e1)" style="fill: none; opacity: 0.35; stroke: #bfbfbf; stroke-width: 0.8; stroke-linecap: round"/>
   </g>
   <g id="patch_15">
    <path d="M 326.543546 91.136287 
Q 395.009578 172.765466 463.475609 254.394644 
" clip-path="url(#p55e2d2d2e1)" style="fill: none; opacity: 0.35; stroke: #bfbfbf; stroke-width: 0.8; stroke-linecap: round"/>
   </g>
   <g id="patch_16">
    <path d="M 103.664454 57.537546 
Q 180.18116 114.554833 256.697865 171.57212 
" clip-path="url(#p55e2d2d2e1)" style="fill: none; opacity: 0.35; stroke: #bfbfbf; stroke-width: 0.8; stroke-linecap: round"/>
   </g>
   <g id="patch_17">
    <path d="M 326.975652 173.788719 
Q 395.007936 214.344738 463.040219 254.900757 
" clip-path="url(#p55e2d2d2e1)" style="fill: none; opacity: 0.35; stroke: #bfbfbf; stroke-width: 0.8; stroke-linecap: round"/>
   </g>
   <g id="patch_18">
    <path d="M 103.292545 57.916446 
Q 180.180131 156.134136 257.067717 254.351827 
" clip-path="url(#p55e2d2d2e1)" style="fill: none; opacity: 0.35; stroke: #bfbfbf; stroke-width: 0.8; stroke-linecap: round"/>
   </g>
   <g id="patch_19">
    <path d="M 327.256628 255.925969 
Q 395.007504 255.925969 462.758379 255.925969 
" clip-path="url(#p55e2d2d2e1)" style="fill: none; opacity: 0.35; stroke: #bfbfbf; stroke-width: 0.8; stroke-linecap: round"/>
   </g>
   <g id="patch_20">
    <path d="M 104.05782 99.457566 
Q 180.178652 94.595655 256.299483 89.733744 
" clip-path="url(#p55e2d2d2e1)" style="fill: none; opacity: 0.35; stroke: #bfbfbf; stroke-width: 0.8; stroke-linecap: round"/>
   </g>
   <g id="patch_21">
    <path d="M 326.543546 91.136287 
Q 395.009578 172.765466 463.475609 254.394644 
" clip-path="url(#p55e2d2d2e1)" style="fill: none; opacity: 0.35; stroke: #bfbfbf; stroke-width: 0.8; stroke-linecap: round"/>
   </g>
   <g id="patch_22">
    <path d="M 103.869481 100.432706 
Q 180.178696 136.174958 256.487911 171.91721 
" clip-path="url(#p55e2d2d2e1)" style="fill: none; opacity: 0.35; stroke: #bfbfbf; stroke-width: 0.8; stroke-linecap: round"/>
   </g>
   <g id="patch_23">
    <path d="M 326.975652 173.788719 
Q 395.007936 214.344738 463.040219 254.900757 
" clip-path="url(#p55e2d2d2e1)" style="fill: none; opacity: 0.35; stroke: #bfbfbf; stroke-width: 0.8; stroke-linecap: round"/>
   </g>
   <g id="patch_24">
    <path d="M 103.473732 100.999813 
Q 180.179309 177.754877 256.884886 254.509941 
" clip-path="url(#p55e2d2d2e1)" style="fill: none; opacity: 0.35; stroke: #bfbfbf; stroke-width: 0.8; stroke-linecap: round"/>
   </g>
   <g id="patch_25">
    <path d="M 327.256628 255.925969 
Q 395.007504 255.925969 462.758379 255.925969 
" clip-path="url(#p55e2d2d2e1)" style="fill: none; opacity: 0.35; stroke: #bfbfbf; stroke-width: 0.8; stroke-linecap: round"/>
   </g>
   <g id="patch_26">
    <path d="M 103.955306 142.182742 
Q 180.183253 116.216061 256.411199 90.24938 
" clip-path="url(#p55e2d2d2e1)" style="fill: none; opacity: 0.35; stroke: #bfbfbf; stroke-width: 0.8; stroke-linecap: round"/>
   </g>
   <g id="patch_27">
    <path d="M 326.543546 91.136287 
Q 395.009578 172.765466 463.475609 254.394644 
" clip-path="url(#p55e2d2d2e1)" style="fill: none; opacity: 0.35; stroke: #bfbfbf; stroke-width: 0.8; stroke-linecap: round"/>
   </g>
   <g id="patch_28">
    <path d="M 104.019675 143.203868 
Q 180.178165 157.796817 256.336655 172.389766 
" clip-path="url(#p55e2d2d2e1)" style="fill: none; opacity: 0.35; stroke: #bfbfbf; stroke-width: 0.8; stroke-linecap: round"/>
   </g>
   <g id="patch_29">
    <path d="M 326.975652 173.788719 
Q 395.007936 214.344738 463.040219 254.900757 
" clip-path="url(#p55e2d2d2e1)" style="fill: none; opacity: 0.35; stroke: #bfbfbf; stroke-width: 0.8; stroke-linecap: round"/>
   </g>
   <g id="patch_30">
    <path d="M 103.678759 144.000141 
Q 180.178948 199.376408 256.679138 254.752674 
" clip-path="url(#p55e2d2d2e1)" style="fill: none; opacity: 0.35; stroke: #bfbfbf; stroke-width: 0.8; stroke-linecap: round"/>
   </g>
   <g id="patch_31">
    <path d="M 327.256628 255.925969 
Q 395.007504 255.925969 462.758379 255.925969 
" clip-path="url(#p55e2d2d2e1)" style="fill: none; opacity: 0.35; stroke: #bfbfbf; stroke-width: 0.8; stroke-linecap: round"/>
   </g>
   <g id="patch_32">
    <path d="M 103.759816 185.02207 
Q 180.179814 137.838883 256.599813 90.655697 
" clip-path="url(#p55e2d2d2e1)" style="fill: none; opacity: 0.35; stroke: #bfbfbf; stroke-width: 0.8; stroke-linecap: round"/>
   </g>
   <g id="patch_33">
    <path d="M 326.543546 91.136287 
Q 395.009578 172.765466 463.475609 254.394644 
" clip-path="url(#p55e2d2d2e1)" style="fill: none; opacity: 0.35; stroke: #bfbfbf; stroke-width: 0.8; stroke-linecap: round"/>
   </g>
   <g id="patch_34">
    <path d="M 104.048284 185.902244 
Q 180.178529 179.418894 256.308775 172.935544 
" clip-path="url(#p55e2d2d2e1)" style="fill: none; opacity: 0.35; stroke: #bfbfbf; stroke-width: 0.8; stroke-linecap: round"/>
   </g>
   <g id="patch_35">
    <path d="M 326.975652 173.788719 
Q 395.007936 214.344738 463.040219 254.900757 
" clip-path="url(#p55e2d2d2e1)" style="fill: none; opacity: 0.35; stroke: #bfbfbf; stroke-width: 0.8; stroke-linecap: round"/>
   </g>
   <g id="patch_36">
    <path d="M 103.883785 186.886977 
Q 180.178863 220.998261 256.473942 255.109544 
" clip-path="url(#p55e2d2d2e1)" style="fill: none; opacity: 0.35; stroke: #bfbfbf; stroke-width: 0.8; stroke-linecap: round"/>
   </g>
   <g id="patch_37">
    <path d="M 327.256628 255.925969 
Q 395.007504 255.925969 462.758379 255.925969 
" clip-path="url(#p55e2d2d2e1)" style="fill: none; opacity: 0.35; stroke: #bfbfbf; stroke-width: 0.8; stroke-linecap: round"/>
   </g>
   <g id="patch_38">
    <path d="M 103.550021 227.982402 
Q 180.180021 159.46035 256.810021 90.938298 
" clip-path="url(#p55e2d2d2e1)" style="fill: none; opacity: 0.35; stroke: #bfbfbf; stroke-width: 0.8; stroke-linecap: round"/>
   </g>
   <g id="patch_39">
    <path d="M 326.543546 91.136287 
Q 395.009578 172.765466 463.475609 254.394644 
" clip-path="url(#p55e2d2d2e1)" style="fill: none; opacity: 0.35; stroke: #bfbfbf; stroke-width: 0.8; stroke-linecap: round"/>
   </g>
   <g id="patch_40">
    <path d="M 103.941002 228.633967 
Q 180.179546 201.040533 256.41809 173.447099 
" clip-path="url(#p55e2d2d2e1)" style="fill: none; opacity: 0.35; stroke: #bfbfbf; stroke-width: 0.8; stroke-linecap: round"/>
   </g>
   <g id="patch_41">
    <path d="M 326.975652 173.788719 
Q 395.007936 214.344738 463.040219 254.900757 
" clip-path="url(#p55e2d2d2e1)" style="fill: none; opacity: 0.35; stroke: #bfbfbf; stroke-width: 0.8; stroke-linecap: round"/>
   </g>
   <g id="patch_42">
    <path d="M 104.029211 229.65017 
Q 180.178286 242.620077 256.32736 255.589984 
" clip-path="url(#p55e2d2d2e1)" style="fill: none; opacity: 0.35; stroke: #bfbfbf; stroke-width: 0.8; stroke-linecap: round"/>
   </g>
   <g id="patch_43">
    <path d="M 327.256628 255.925969 
Q 395.007504 255.925969 462.758379 255.925969 
" clip-path="url(#p55e2d2d2e1)" style="fill: none; opacity: 0.35; stroke: #bfbfbf; stroke-width: 0.8; stroke-linecap: round"/>
   </g>
   <g id="patch_44">
    <path d="M 103.359298 271.036533 
Q 180.180674 181.081179 257.00205 91.125826 
" clip-path="url(#p55e2d2d2e1)" style="fill: none; opacity: 0.35; stroke: #bfbfbf; stroke-width: 0.8; stroke-linecap: round"/>
   </g>
   <g id="patch_45">
    <path d="M 326.543546 91.136287 
Q 395.009578 172.765466 463.475609 254.394644 
" clip-path="url(#p55e2d2d2e1)" style="fill: none; opacity: 0.35; stroke: #bfbfbf; stroke-width: 0.8; stroke-linecap: round"/>
   </g>
   <g id="patch_46">
    <path d="M 103.745511 271.481416 
Q 180.179658 222.662187 256.613805 173.842958 
" clip-path="url(#p55e2d2d2e1)" style="fill: none; opacity: 0.35; stroke: #bfbfbf; stroke-width: 0.8; stroke-linecap: round"/>
   </g>
   <g id="patch_47">
    <path d="M 326.975652 173.788719 
Q 395.007936 214.344738 463.040219 254.900757 
" clip-path="url(#p55e2d2d2e1)" style="fill: none; opacity: 0.35; stroke: #bfbfbf; stroke-width: 0.8; stroke-linecap: round"/>
   </g>
   <g id="patch_48">
    <path d="M 104.048284 272.346313 
Q 180.178529 264.242125 256.308775 256.137938 
" clip-path="url(#p55e2d2d2e1)" style="fill: none; opacity: 0.35; stroke: #bfbfbf; stroke-width: 0.8; stroke-linecap: round"/>
   </g>
   <g id="patch_49">
    <path d="M 327.256628 255.925969 
Q 395.007504 255.925969 462.758379 255.925969 
" clip-path="url(#p55e2d2d2e1)" style="fill: none; opacity: 0.35; stroke: #bfbfbf; stroke-width: 0.8; stroke-linecap: round"/>
   </g>
   <g id="text_1">
    <!-- Digital economy -->
    <g transform="translate(31.907109 58.825406) scale(0.09 -0.09)">
     <defs>
      <path id="DejaVuSans-44" d="M 1259 4147 
L 1259 519 
L 2022 519 
Q 2988 519 3436 956 
Q 3884 1394 3884 2338 
Q 3884 3275 3436 3711 
Q 2988 4147 2022 4147 
L 1259 4147 
z
M 628 4666 
L 1925 4666 
Q 3281 4666 3915 4102 
Q 4550 3538 4550 2338 
Q 4550 1131 3912 565 
Q 3275 0 1925 0 
L 628 0 
L 628 4666 
z
" transform="scale(0.015625)"/>
      <path id="DejaVuSans-69" d="M 603 3500 
L 1178 3500 
L 1178 0 
L 603 0 
L 603 3500 
z
M 603 4863 
L 1178 4863 
L 1178 4134 
L 603 4134 
L 603 4863 
z
" transform="scale(0.015625)"/>
      <path id="DejaVuSans-67" d="M 2906 1791 
Q 2906 2416 2648 2759 
Q 2391 3103 1925 3103 
Q 1463 3103 1205 2759 
Q 947 2416 947 1791 
Q 947 1169 1205 825 
Q 1463 481 1925 481 
Q 2391 481 2648 825 
Q 2906 1169 2906 1791 
z
M 3481 434 
Q 3481 -459 3084 -895 
Q 2688 -1331 1869 -1331 
Q 1566 -1331 1297 -1286 
Q 1028 -1241 775 -1147 
L 775 -588 
Q 1028 -725 1275 -790 
Q 1522 -856 1778 -856 
Q 2344 -856 2625 -561 
Q 2906 -266 2906 331 
L 2906 616 
Q 2728 306 2450 153 
Q 2172 0 1784 0 
Q 1141 0 747 490 
Q 353 981 353 1791 
Q 353 2603 747 3093 
Q 1141 3584 1784 3584 
Q 2172 3584 2450 3431 
Q 2728 3278 2906 2969 
L 2906 3500 
L 3481 3500 
L 3481 434 
z
" transform="scale(0.015625)"/>
      <path id="DejaVuSans-74" d="M 1172 4494 
L 1172 3500 
L 2356 3500 
L 2356 3053 
L 1172 3053 
L 1172 1153 
Q 1172 725 1289 603 
Q 1406 481 1766 481 
L 2356 481 
L 2356 0 
L 1766 0 
Q 1100 0 847 248 
Q 594 497 594 1153 
L 594 3053 
L 172 3053 
L 172 3500 
L 594 3500 
L 594 4494 
L 1172 4494 
z
" transform="scale(0.015625)"/>
      <path id="DejaVuSans-61" d="M 2194 1759 
Q 1497 1759 1228 1600 
Q 959 1441 959 1056 
Q 959 750 1161 570 
Q 1363 391 1709 391 
Q 2188 391 2477 730 
Q 2766 1069 2766 1631 
L 2766 1759 
L 2194 1759 
z
M 3341 1997 
L 3341 0 
L 2766 0 
L 2766 531 
Q 2569 213 2275 61 
Q 1981 -91 1556 -91 
Q 1019 -91 701 211 
Q 384 513 384 1019 
Q 384 1609 779 1909 
Q 1175 2209 1959 2209 
L 2766 2209 
L 2766 2266 
Q 2766 2663 2505 2880 
Q 2244 3097 1772 3097 
Q 1472 3097 1187 3025 
Q 903 2953 641 2809 
L 641 3341 
Q 956 3463 1253 3523 
Q 1550 3584 1831 3584 
Q 2591 3584 2966 3190 
Q 3341 2797 3341 1997 
z
" transform="scale(0.015625)"/>
      <path id="DejaVuSans-6c" d="M 603 4863 
L 1178 4863 
L 1178 0 
L 603 0 
L 603 4863 
z
" transform="scale(0.015625)"/>
      <path id="DejaVuSans-20" transform="scale(0.015625)"/>
      <path id="DejaVuSans-65" d="M 3597 1894 
L 3597 1613 
L 953 1613 
Q 991 1019 1311 708 
Q 1631 397 2203 397 
Q 2534 397 2845 478 
Q 3156 559 3463 722 
L 3463 178 
Q 3153 47 2828 -22 
Q 2503 -91 2169 -91 
Q 1331 -91 842 396 
Q 353 884 353 1716 
Q 353 2575 817 3079 
Q 1281 3584 2069 3584 
Q 2775 3584 3186 3129 
Q 3597 2675 3597 1894 
z
M 3022 2063 
Q 3016 2534 2758 2815 
Q 2500 3097 2075 3097 
Q 1594 3097 1305 2825 
Q 1016 2553 972 2059 
L 3022 2063 
z
" transform="scale(0.015625)"/>
      <path id="DejaVuSans-63" d="M 3122 3366 
L 3122 2828 
Q 2878 2963 2633 3030 
Q 2388 3097 2138 3097 
Q 1578 3097 1268 2742 
Q 959 2388 959 1747 
Q 959 1106 1268 751 
Q 1578 397 2138 397 
Q 2388 397 2633 464 
Q 2878 531 3122 666 
L 3122 134 
Q 2881 22 2623 -34 
Q 2366 -91 2075 -91 
Q 1284 -91 818 406 
Q 353 903 353 1747 
Q 353 2603 823 3093 
Q 1294 3584 2113 3584 
Q 2378 3584 2631 3529 
Q 2884 3475 3122 3366 
z
" transform="scale(0.015625)"/>
      <path id="DejaVuSans-6f" d="M 1959 3097 
Q 1497 3097 1228 2736 
Q 959 2375 959 1747 
Q 959 1119 1226 758 
Q 1494 397 1959 397 
Q 2419 397 2687 759 
Q 2956 1122 2956 1747 
Q 2956 2369 2687 2733 
Q 2419 3097 1959 3097 
z
M 1959 3584 
Q 2709 3584 3137 3096 
Q 3566 2609 3566 1747 
Q 3566 888 3137 398 
Q 2709 -91 1959 -91 
Q 1206 -91 779 398 
Q 353 888 353 1747 
Q 353 2609 779 3096 
Q 1206 3584 1959 3584 
z
" transform="scale(0.015625)"/>
      <path id="DejaVuSans-6e" d="M 3513 2113 
L 3513 0 
L 2938 0 
L 2938 2094 
Q 2938 2591 2744 2837 
Q 2550 3084 2163 3084 
Q 1697 3084 1428 2787 
Q 1159 2491 1159 1978 
L 1159 0 
L 581 0 
L 581 3500 
L 1159 3500 
L 1159 2956 
Q 1366 3272 1645 3428 
Q 1925 3584 2291 3584 
Q 2894 3584 3203 3211 
Q 3513 2838 3513 2113 
z
" transform="scale(0.015625)"/>
      <path id="DejaVuSans-6d" d="M 3328 2828 
Q 3544 3216 3844 3400 
Q 4144 3584 4550 3584 
Q 5097 3584 5394 3201 
Q 5691 2819 5691 2113 
L 5691 0 
L 5113 0 
L 5113 2094 
Q 5113 2597 4934 2840 
Q 4756 3084 4391 3084 
Q 3944 3084 3684 2787 
Q 3425 2491 3425 1978 
L 3425 0 
L 2847 0 
L 2847 2094 
Q 2847 2600 2669 2842 
Q 2491 3084 2119 3084 
Q 1678 3084 1418 2786 
Q 1159 2488 1159 1978 
L 1159 0 
L 581 0 
L 581 3500 
L 1159 3500 
L 1159 2956 
Q 1356 3278 1631 3431 
Q 1906 3584 2284 3584 
Q 2666 3584 2933 3390 
Q 3200 3197 3328 2828 
z
" transform="scale(0.015625)"/>
      <path id="DejaVuSans-79" d="M 2059 -325 
Q 1816 -950 1584 -1140 
Q 1353 -1331 966 -1331 
L 506 -1331 
L 506 -850 
L 844 -850 
Q 1081 -850 1212 -737 
Q 1344 -625 1503 -206 
L 1606 56 
L 191 3500 
L 800 3500 
L 1894 763 
L 2988 3500 
L 3597 3500 
L 2059 -325 
z
" transform="scale(0.015625)"/>
     </defs>
     <use xlink:href="#DejaVuSans-44"/>
     <use xlink:href="#DejaVuSans-69" transform="translate(77.001953 0)"/>
     <use xlink:href="#DejaVuSans-67" transform="translate(104.785156 0)"/>
     <use xlink:href="#DejaVuSans-69" transform="translate(168.261719 0)"/>
     <use xlink:href="#DejaVuSans-74" transform="translate(196.044922 0)"/>
     <use xlink:href="#DejaVuSans-61" transform="translate(235.253906 0)"/>
     <use xlink:href="#DejaVuSans-6c" transform="translate(296.533203 0)"/>
     <use xlink:href="#DejaVuSans-20" transform="translate(324.316406 0)"/>
     <use xlink:href="#DejaVuSans-65" transform="translate(356.103516 0)"/>
     <use xlink:href="#DejaVuSans-63" transform="translate(417.626953 0)"/>
     <use xlink:href="#DejaVuSans-6f" transform="translate(472.607422 0)"/>
     <use xlink:href="#DejaVuSans-6e" transform="translate(533.789062 0)"/>
     <use xlink:href="#DejaVuSans-6f" transform="translate(597.167969 0)"/>
     <use xlink:href="#DejaVuSans-6d" transform="translate(658.349609 0)"/>
     <use xlink:href="#DejaVuSans-79" transform="translate(755.761719 0)"/>
    </g>
   </g>
   <g id="text_2">
    <!-- Digital finance -->
    <g transform="translate(36.016875 102.068606) scale(0.09 -0.09)">
     <defs>
      <path id="DejaVuSans-66" d="M 2375 4863 
L 2375 4384 
L 1825 4384 
Q 1516 4384 1395 4259 
Q 1275 4134 1275 3809 
L 1275 3500 
L 2222 3500 
L 2222 3053 
L 1275 3053 
L 1275 0 
L 697 0 
L 697 3053 
L 147 3053 
L 147 3500 
L 697 3500 
L 697 3744 
Q 697 4328 969 4595 
Q 1241 4863 1831 4863 
L 2375 4863 
z
" transform="scale(0.015625)"/>
     </defs>
     <use xlink:href="#DejaVuSans-44"/>
     <use xlink:href="#DejaVuSans-69" transform="translate(77.001953 0)"/>
     <use xlink:href="#DejaVuSans-67" transform="translate(104.785156 0)"/>
     <use xlink:href="#DejaVuSans-69" transform="translate(168.261719 0)"/>
     <use xlink:href="#DejaVuSans-74" transform="translate(196.044922 0)"/>
     <use xlink:href="#DejaVuSans-61" transform="translate(235.253906 0)"/>
     <use xlink:href="#DejaVuSans-6c" transform="translate(296.533203 0)"/>
     <use xlink:href="#DejaVuSans-20" transform="translate(324.316406 0)"/>
     <use xlink:href="#DejaVuSans-66" transform="translate(356.103516 0)"/>
     <use xlink:href="#DejaVuSans-69" transform="translate(391.308594 0)"/>
     <use xlink:href="#DejaVuSans-6e" transform="translate(419.091797 0)"/>
     <use xlink:href="#DejaVuSans-61" transform="translate(482.470703 0)"/>
     <use xlink:href="#DejaVuSans-6e" transform="translate(543.75 0)"/>
     <use xlink:href="#DejaVuSans-63" transform="translate(607.128906 0)"/>
     <use xlink:href="#DejaVuSans-65" transform="translate(662.109375 0)"/>
    </g>
   </g>
   <g id="text_3">
    <!-- A-index base -->
    <g transform="translate(39.509297 145.311806) scale(0.09 -0.09)">
     <defs>
      <path id="DejaVuSans-41" d="M 2188 4044 
L 1331 1722 
L 3047 1722 
L 2188 4044 
z
M 1831 4666 
L 2547 4666 
L 4325 0 
L 3669 0 
L 3244 1197 
L 1141 1197 
L 716 0 
L 50 0 
L 1831 4666 
z
" transform="scale(0.015625)"/>
      <path id="DejaVuSans-2d" d="M 313 2009 
L 1997 2009 
L 1997 1497 
L 313 1497 
L 313 2009 
z
" transform="scale(0.015625)"/>
      <path id="DejaVuSans-64" d="M 2906 2969 
L 2906 4863 
L 3481 4863 
L 3481 0 
L 2906 0 
L 2906 525 
Q 2725 213 2448 61 
Q 2172 -91 1784 -91 
Q 1150 -91 751 415 
Q 353 922 353 1747 
Q 353 2572 751 3078 
Q 1150 3584 1784 3584 
Q 2172 3584 2448 3432 
Q 2725 3281 2906 2969 
z
M 947 1747 
Q 947 1113 1208 752 
Q 1469 391 1925 391 
Q 2381 391 2643 752 
Q 2906 1113 2906 1747 
Q 2906 2381 2643 2742 
Q 2381 3103 1925 3103 
Q 1469 3103 1208 2742 
Q 947 2381 947 1747 
z
" transform="scale(0.015625)"/>
      <path id="DejaVuSans-78" d="M 3513 3500 
L 2247 1797 
L 3578 0 
L 2900 0 
L 1881 1375 
L 863 0 
L 184 0 
L 1544 1831 
L 300 3500 
L 978 3500 
L 1906 2253 
L 2834 3500 
L 3513 3500 
z
" transform="scale(0.015625)"/>
      <path id="DejaVuSans-62" d="M 3116 1747 
Q 3116 2381 2855 2742 
Q 2594 3103 2138 3103 
Q 1681 3103 1420 2742 
Q 1159 2381 1159 1747 
Q 1159 1113 1420 752 
Q 1681 391 2138 391 
Q 2594 391 2855 752 
Q 3116 1113 3116 1747 
z
M 1159 2969 
Q 1341 3281 1617 3432 
Q 1894 3584 2278 3584 
Q 2916 3584 3314 3078 
Q 3713 2572 3713 1747 
Q 3713 922 3314 415 
Q 2916 -91 2278 -91 
Q 1894 -91 1617 61 
Q 1341 213 1159 525 
L 1159 0 
L 581 0 
L 581 4863 
L 1159 4863 
L 1159 2969 
z
" transform="scale(0.015625)"/>
      <path id="DejaVuSans-73" d="M 2834 3397 
L 2834 2853 
Q 2591 2978 2328 3040 
Q 2066 3103 1784 3103 
Q 1356 3103 1142 2972 
Q 928 2841 928 2578 
Q 928 2378 1081 2264 
Q 1234 2150 1697 2047 
L 1894 2003 
Q 2506 1872 2764 1633 
Q 3022 1394 3022 966 
Q 3022 478 2636 193 
Q 2250 -91 1575 -91 
Q 1294 -91 989 -36 
Q 684 19 347 128 
L 347 722 
Q 666 556 975 473 
Q 1284 391 1588 391 
Q 1994 391 2212 530 
Q 2431 669 2431 922 
Q 2431 1156 2273 1281 
Q 2116 1406 1581 1522 
L 1381 1569 
Q 847 1681 609 1914 
Q 372 2147 372 2553 
Q 372 3047 722 3315 
Q 1072 3584 1716 3584 
Q 2034 3584 2315 3537 
Q 2597 3491 2834 3397 
z
" transform="scale(0.015625)"/>
     </defs>
     <use xlink:href="#DejaVuSans-41"/>
     <use xlink:href="#DejaVuSans-2d" transform="translate(66.158203 0)"/>
     <use xlink:href="#DejaVuSans-69" transform="translate(102.242188 0)"/>
     <use xlink:href="#DejaVuSans-6e" transform="translate(130.025391 0)"/>
     <use xlink:href="#DejaVuSans-64" transform="translate(193.404297 0)"/>
     <use xlink:href="#DejaVuSans-65" transform="translate(256.880859 0)"/>
     <use xlink:href="#DejaVuSans-78" transform="translate(316.654297 0)"/>
     <use xlink:href="#DejaVuSans-20" transform="translate(375.833984 0)"/>
     <use xlink:href="#DejaVuSans-62" transform="translate(407.621094 0)"/>
     <use xlink:href="#DejaVuSans-61" transform="translate(471.097656 0)"/>
     <use xlink:href="#DejaVuSans-73" transform="translate(532.376953 0)"/>
     <use xlink:href="#DejaVuSans-65" transform="translate(584.476562 0)"/>
    </g>
   </g>
   <g id="text_4">
    <!-- Governance base -->
    <g transform="translate(29.273906 188.555006) scale(0.09 -0.09)">
     <defs>
      <path id="DejaVuSans-47" d="M 3809 666 
L 3809 1919 
L 2778 1919 
L 2778 2438 
L 4434 2438 
L 4434 434 
Q 4069 175 3628 42 
Q 3188 -91 2688 -91 
Q 1594 -91 976 548 
Q 359 1188 359 2328 
Q 359 3472 976 4111 
Q 1594 4750 2688 4750 
Q 3144 4750 3555 4637 
Q 3966 4525 4313 4306 
L 4313 3634 
Q 3963 3931 3569 4081 
Q 3175 4231 2741 4231 
Q 1884 4231 1454 3753 
Q 1025 3275 1025 2328 
Q 1025 1384 1454 906 
Q 1884 428 2741 428 
Q 3075 428 3337 486 
Q 3600 544 3809 666 
z
" transform="scale(0.015625)"/>
      <path id="DejaVuSans-76" d="M 191 3500 
L 800 3500 
L 1894 563 
L 2988 3500 
L 3597 3500 
L 2284 0 
L 1503 0 
L 191 3500 
z
" transform="scale(0.015625)"/>
      <path id="DejaVuSans-72" d="M 2631 2963 
Q 2534 3019 2420 3045 
Q 2306 3072 2169 3072 
Q 1681 3072 1420 2755 
Q 1159 2438 1159 1844 
L 1159 0 
L 581 0 
L 581 3500 
L 1159 3500 
L 1159 2956 
Q 1341 3275 1631 3429 
Q 1922 3584 2338 3584 
Q 2397 3584 2469 3576 
Q 2541 3569 2628 3553 
L 2631 2963 
z
" transform="scale(0.015625)"/>
     </defs>
     <use xlink:href="#DejaVuSans-47"/>
     <use xlink:href="#DejaVuSans-6f" transform="translate(77.490234 0)"/>
     <use xlink:href="#DejaVuSans-76" transform="translate(138.671875 0)"/>
     <use xlink:href="#DejaVuSans-65" transform="translate(197.851562 0)"/>
     <use xlink:href="#DejaVuSans-72" transform="translate(259.375 0)"/>
     <use xlink:href="#DejaVuSans-6e" transform="translate(298.738281 0)"/>
     <use xlink:href="#DejaVuSans-61" transform="translate(362.117188 0)"/>
     <use xlink:href="#DejaVuSans-6e" transform="translate(423.396484 0)"/>
     <use xlink:href="#DejaVuSans-63" transform="translate(486.775391 0)"/>
     <use xlink:href="#DejaVuSans-65" transform="translate(541.755859 0)"/>
     <use xlink:href="#DejaVuSans-20" transform="translate(603.279297 0)"/>
     <use xlink:href="#DejaVuSans-62" transform="translate(635.066406 0)"/>
     <use xlink:href="#DejaVuSans-61" transform="translate(698.542969 0)"/>
     <use xlink:href="#DejaVuSans-73" transform="translate(759.822266 0)"/>
     <use xlink:href="#DejaVuSans-65" transform="translate(811.921875 0)"/>
    </g>
   </g>
   <g id="text_5">
    <!-- Risk exposure -->
    <g transform="translate(37.145391 231.798206) scale(0.09 -0.09)">
     <defs>
      <path id="DejaVuSans-52" d="M 2841 2188 
Q 3044 2119 3236 1894 
Q 3428 1669 3622 1275 
L 4263 0 
L 3584 0 
L 2988 1197 
Q 2756 1666 2539 1819 
Q 2322 1972 1947 1972 
L 1259 1972 
L 1259 0 
L 628 0 
L 628 4666 
L 2053 4666 
Q 2853 4666 3247 4331 
Q 3641 3997 3641 3322 
Q 3641 2881 3436 2590 
Q 3231 2300 2841 2188 
z
M 1259 4147 
L 1259 2491 
L 2053 2491 
Q 2509 2491 2742 2702 
Q 2975 2913 2975 3322 
Q 2975 3731 2742 3939 
Q 2509 4147 2053 4147 
L 1259 4147 
z
" transform="scale(0.015625)"/>
      <path id="DejaVuSans-6b" d="M 581 4863 
L 1159 4863 
L 1159 1991 
L 2875 3500 
L 3609 3500 
L 1753 1863 
L 3688 0 
L 2938 0 
L 1159 1709 
L 1159 0 
L 581 0 
L 581 4863 
z
" transform="scale(0.015625)"/>
      <path id="DejaVuSans-70" d="M 1159 525 
L 1159 -1331 
L 581 -1331 
L 581 3500 
L 1159 3500 
L 1159 2969 
Q 1341 3281 1617 3432 
Q 1894 3584 2278 3584 
Q 2916 3584 3314 3078 
Q 3713 2572 3713 1747 
Q 3713 922 3314 415 
Q 2916 -91 2278 -91 
Q 1894 -91 1617 61 
Q 1341 213 1159 525 
z
M 3116 1747 
Q 3116 2381 2855 2742 
Q 2594 3103 2138 3103 
Q 1681 3103 1420 2742 
Q 1159 2381 1159 1747 
Q 1159 1113 1420 752 
Q 1681 391 2138 391 
Q 2594 391 2855 752 
Q 3116 1113 3116 1747 
z
" transform="scale(0.015625)"/>
      <path id="DejaVuSans-75" d="M 544 1381 
L 544 3500 
L 1119 3500 
L 1119 1403 
Q 1119 906 1312 657 
Q 1506 409 1894 409 
Q 2359 409 2629 706 
Q 2900 1003 2900 1516 
L 2900 3500 
L 3475 3500 
L 3475 0 
L 2900 0 
L 2900 538 
Q 2691 219 2414 64 
Q 2138 -91 1772 -91 
Q 1169 -91 856 284 
Q 544 659 544 1381 
z
M 1991 3584 
L 1991 3584 
z
" transform="scale(0.015625)"/>
     </defs>
     <use xlink:href="#DejaVuSans-52"/>
     <use xlink:href="#DejaVuSans-69" transform="translate(69.482422 0)"/>
     <use xlink:href="#DejaVuSans-73" transform="translate(97.265625 0)"/>
     <use xlink:href="#DejaVuSans-6b" transform="translate(149.365234 0)"/>
     <use xlink:href="#DejaVuSans-20" transform="translate(207.275391 0)"/>
     <use xlink:href="#DejaVuSans-65" transform="translate(239.0625 0)"/>
     <use xlink:href="#DejaVuSans-78" transform="translate(298.835938 0)"/>
     <use xlink:href="#DejaVuSans-70" transform="translate(358.015625 0)"/>
     <use xlink:href="#DejaVuSans-6f" transform="translate(421.492188 0)"/>
     <use xlink:href="#DejaVuSans-73" transform="translate(482.673828 0)"/>
     <use xlink:href="#DejaVuSans-75" transform="translate(534.773438 0)"/>
     <use xlink:href="#DejaVuSans-72" transform="translate(598.152344 0)"/>
     <use xlink:href="#DejaVuSans-65" transform="translate(637.015625 0)"/>
    </g>
   </g>
   <g id="text_6">
    <!-- Gov-data openness -->
    <g transform="translate(25.064297 275.041406) scale(0.09 -0.09)">
     <use xlink:href="#DejaVuSans-47"/>
     <use xlink:href="#DejaVuSans-6f" transform="translate(77.490234 0)"/>
     <use xlink:href="#DejaVuSans-76" transform="translate(138.671875 0)"/>
     <use xlink:href="#DejaVuSans-2d" transform="translate(195.226562 0)"/>
     <use xlink:href="#DejaVuSans-64" transform="translate(231.310547 0)"/>
     <use xlink:href="#DejaVuSans-61" transform="translate(294.787109 0)"/>
     <use xlink:href="#DejaVuSans-74" transform="translate(356.066406 0)"/>
     <use xlink:href="#DejaVuSans-61" transform="translate(395.275391 0)"/>
     <use xlink:href="#DejaVuSans-20" transform="translate(456.554688 0)"/>
     <use xlink:href="#DejaVuSans-6f" transform="translate(488.341797 0)"/>
     <use xlink:href="#DejaVuSans-70" transform="translate(549.523438 0)"/>
     <use xlink:href="#DejaVuSans-65" transform="translate(613 0)"/>
     <use xlink:href="#DejaVuSans-6e" transform="translate(674.523438 0)"/>
     <use xlink:href="#DejaVuSans-6e" transform="translate(737.902344 0)"/>
     <use xlink:href="#DejaVuSans-65" transform="translate(801.28125 0)"/>
     <use xlink:href="#DejaVuSans-73" transform="translate(862.804688 0)"/>
     <use xlink:href="#DejaVuSans-73" transform="translate(914.904297 0)"/>
    </g>
   </g>
   <g id="text_7">
    <!-- PCA quality -->
    <g transform="translate(266.021719 92.089406) scale(0.09 -0.09)">
     <defs>
      <path id="DejaVuSans-50" d="M 1259 4147 
L 1259 2394 
L 2053 2394 
Q 2494 2394 2734 2622 
Q 2975 2850 2975 3272 
Q 2975 3691 2734 3919 
Q 2494 4147 2053 4147 
L 1259 4147 
z
M 628 4666 
L 2053 4666 
Q 2838 4666 3239 4311 
Q 3641 3956 3641 3272 
Q 3641 2581 3239 2228 
Q 2838 1875 2053 1875 
L 1259 1875 
L 1259 0 
L 628 0 
L 628 4666 
z
" transform="scale(0.015625)"/>
      <path id="DejaVuSans-43" d="M 4122 4306 
L 4122 3641 
Q 3803 3938 3442 4084 
Q 3081 4231 2675 4231 
Q 1875 4231 1450 3742 
Q 1025 3253 1025 2328 
Q 1025 1406 1450 917 
Q 1875 428 2675 428 
Q 3081 428 3442 575 
Q 3803 722 4122 1019 
L 4122 359 
Q 3791 134 3420 21 
Q 3050 -91 2638 -91 
Q 1578 -91 968 557 
Q 359 1206 359 2328 
Q 359 3453 968 4101 
Q 1578 4750 2638 4750 
Q 3056 4750 3426 4639 
Q 3797 4528 4122 4306 
z
" transform="scale(0.015625)"/>
      <path id="DejaVuSans-71" d="M 947 1747 
Q 947 1113 1208 752 
Q 1469 391 1925 391 
Q 2381 391 2643 752 
Q 2906 1113 2906 1747 
Q 2906 2381 2643 2742 
Q 2381 3103 1925 3103 
Q 1469 3103 1208 2742 
Q 947 2381 947 1747 
z
M 2906 525 
Q 2725 213 2448 61 
Q 2172 -91 1784 -91 
Q 1150 -91 751 415 
Q 353 922 353 1747 
Q 353 2572 751 3078 
Q 1150 3584 1784 3584 
Q 2172 3584 2448 3432 
Q 2725 3281 2906 2969 
L 2906 3500 
L 3481 3500 
L 3481 -1331 
L 2906 -1331 
L 2906 525 
z
" transform="scale(0.015625)"/>
     </defs>
     <use xlink:href="#DejaVuSans-50"/>
     <use xlink:href="#DejaVuSans-43" transform="translate(60.302734 0)"/>
     <use xlink:href="#DejaVuSans-41" transform="translate(130.126953 0)"/>
     <use xlink:href="#DejaVuSans-20" transform="translate(198.535156 0)"/>
     <use xlink:href="#DejaVuSans-71" transform="translate(230.322266 0)"/>
     <use xlink:href="#DejaVuSans-75" transform="translate(293.798828 0)"/>
     <use xlink:href="#DejaVuSans-61" transform="translate(357.177734 0)"/>
     <use xlink:href="#DejaVuSans-6c" transform="translate(418.457031 0)"/>
     <use xlink:href="#DejaVuSans-69" transform="translate(446.240234 0)"/>
     <use xlink:href="#DejaVuSans-74" transform="translate(474.023438 0)"/>
     <use xlink:href="#DejaVuSans-79" transform="translate(513.232422 0)"/>
    </g>
   </g>
   <g id="text_8">
    <!-- Execution share -->
    <g transform="translate(255.797578 175.249406) scale(0.09 -0.09)">
     <defs>
      <path id="DejaVuSans-45" d="M 628 4666 
L 3578 4666 
L 3578 4134 
L 1259 4134 
L 1259 2753 
L 3481 2753 
L 3481 2222 
L 1259 2222 
L 1259 531 
L 3634 531 
L 3634 0 
L 628 0 
L 628 4666 
z
" transform="scale(0.015625)"/>
      <path id="DejaVuSans-68" d="M 3513 2113 
L 3513 0 
L 2938 0 
L 2938 2094 
Q 2938 2591 2744 2837 
Q 2550 3084 2163 3084 
Q 1697 3084 1428 2787 
Q 1159 2491 1159 1978 
L 1159 0 
L 581 0 
L 581 4863 
L 1159 4863 
L 1159 2956 
Q 1366 3272 1645 3428 
Q 1925 3584 2291 3584 
Q 2894 3584 3203 3211 
Q 3513 2838 3513 2113 
z
" transform="scale(0.015625)"/>
     </defs>
     <use xlink:href="#DejaVuSans-45"/>
     <use xlink:href="#DejaVuSans-78" transform="translate(63.183594 0)"/>
     <use xlink:href="#DejaVuSans-65" transform="translate(119.238281 0)"/>
     <use xlink:href="#DejaVuSans-63" transform="translate(180.761719 0)"/>
     <use xlink:href="#DejaVuSans-75" transform="translate(235.742188 0)"/>
     <use xlink:href="#DejaVuSans-74" transform="translate(299.121094 0)"/>
     <use xlink:href="#DejaVuSans-69" transform="translate(338.330078 0)"/>
     <use xlink:href="#DejaVuSans-6f" transform="translate(366.113281 0)"/>
     <use xlink:href="#DejaVuSans-6e" transform="translate(427.294922 0)"/>
     <use xlink:href="#DejaVuSans-20" transform="translate(490.673828 0)"/>
     <use xlink:href="#DejaVuSans-73" transform="translate(522.460938 0)"/>
     <use xlink:href="#DejaVuSans-68" transform="translate(574.560547 0)"/>
     <use xlink:href="#DejaVuSans-61" transform="translate(637.939453 0)"/>
     <use xlink:href="#DejaVuSans-72" transform="translate(699.21875 0)"/>
     <use xlink:href="#DejaVuSans-65" transform="translate(738.082031 0)"/>
    </g>
   </g>
   <g id="text_9">
    <!-- Procurement share -->
    <g transform="translate(249.129844 258.409406) scale(0.09 -0.09)">
     <use xlink:href="#DejaVuSans-50"/>
     <use xlink:href="#DejaVuSans-72" transform="translate(58.552734 0)"/>
     <use xlink:href="#DejaVuSans-6f" transform="translate(97.416016 0)"/>
     <use xlink:href="#DejaVuSans-63" transform="translate(158.597656 0)"/>
     <use xlink:href="#DejaVuSans-75" transform="translate(213.578125 0)"/>
     <use xlink:href="#DejaVuSans-72" transform="translate(276.957031 0)"/>
     <use xlink:href="#DejaVuSans-65" transform="translate(315.820312 0)"/>
     <use xlink:href="#DejaVuSans-6d" transform="translate(377.34375 0)"/>
     <use xlink:href="#DejaVuSans-65" transform="translate(474.755859 0)"/>
     <use xlink:href="#DejaVuSans-6e" transform="translate(536.279297 0)"/>
     <use xlink:href="#DejaVuSans-74" transform="translate(599.658203 0)"/>
     <use xlink:href="#DejaVuSans-20" transform="translate(638.867188 0)"/>
     <use xlink:href="#DejaVuSans-73" transform="translate(670.654297 0)"/>
     <use xlink:href="#DejaVuSans-68" transform="translate(722.753906 0)"/>
     <use xlink:href="#DejaVuSans-61" transform="translate(786.132812 0)"/>
     <use xlink:href="#DejaVuSans-72" transform="translate(847.412109 0)"/>
     <use xlink:href="#DejaVuSans-65" transform="translate(886.275391 0)"/>
    </g>
   </g>
   <g id="text_10">
    <!-- High-group stronger -->
    <g transform="translate(452.837812 92.089406) scale(0.09 -0.09)">
     <defs>
      <path id="DejaVuSans-48" d="M 628 4666 
L 1259 4666 
L 1259 2753 
L 3553 2753 
L 3553 4666 
L 4184 4666 
L 4184 0 
L 3553 0 
L 3553 2222 
L 1259 2222 
L 1259 0 
L 628 0 
L 628 4666 
z
" transform="scale(0.015625)"/>
     </defs>
     <use xlink:href="#DejaVuSans-48"/>
     <use xlink:href="#DejaVuSans-69" transform="translate(75.195312 0)"/>
     <use xlink:href="#DejaVuSans-67" transform="translate(102.978516 0)"/>
     <use xlink:href="#DejaVuSans-68" transform="translate(166.455078 0)"/>
     <use xlink:href="#DejaVuSans-2d" transform="translate(229.833984 0)"/>
     <use xlink:href="#DejaVuSans-67" transform="translate(265.917969 0)"/>
     <use xlink:href="#DejaVuSans-72" transform="translate(329.394531 0)"/>
     <use xlink:href="#DejaVuSans-6f" transform="translate(368.257812 0)"/>
     <use xlink:href="#DejaVuSans-75" transform="translate(429.439453 0)"/>
     <use xlink:href="#DejaVuSans-70" transform="translate(492.818359 0)"/>
     <use xlink:href="#DejaVuSans-20" transform="translate(556.294922 0)"/>
     <use xlink:href="#DejaVuSans-73" transform="translate(588.082031 0)"/>
     <use xlink:href="#DejaVuSans-74" transform="translate(640.181641 0)"/>
     <use xlink:href="#DejaVuSans-72" transform="translate(679.390625 0)"/>
     <use xlink:href="#DejaVuSans-6f" transform="translate(718.253906 0)"/>
     <use xlink:href="#DejaVuSans-6e" transform="translate(779.435547 0)"/>
     <use xlink:href="#DejaVuSans-67" transform="translate(842.814453 0)"/>
     <use xlink:href="#DejaVuSans-65" transform="translate(906.291016 0)"/>
     <use xlink:href="#DejaVuSans-72" transform="translate(967.814453 0)"/>
    </g>
   </g>
   <g id="text_11">
    <!-- Low-group stronger -->
    <g transform="translate(454.318594 175.249406) scale(0.09 -0.09)">
     <defs>
      <path id="DejaVuSans-4c" d="M 628 4666 
L 1259 4666 
L 1259 531 
L 3531 531 
L 3531 0 
L 628 0 
L 628 4666 
z
" transform="scale(0.015625)"/>
      <path id="DejaVuSans-77" d="M 269 3500 
L 844 3500 
L 1563 769 
L 2278 3500 
L 2956 3500 
L 3675 769 
L 4391 3500 
L 4966 3500 
L 4050 0 
L 3372 0 
L 2619 2869 
L 1863 0 
L 1184 0 
L 269 3500 
z
" transform="scale(0.015625)"/>
     </defs>
     <use xlink:href="#DejaVuSans-4c"/>
     <use xlink:href="#DejaVuSans-6f" transform="translate(53.962891 0)"/>
     <use xlink:href="#DejaVuSans-77" transform="translate(115.144531 0)"/>
     <use xlink:href="#DejaVuSans-2d" transform="translate(196.931641 0)"/>
     <use xlink:href="#DejaVuSans-67" transform="translate(233.015625 0)"/>
     <use xlink:href="#DejaVuSans-72" transform="translate(296.492188 0)"/>
     <use xlink:href="#DejaVuSans-6f" transform="translate(335.355469 0)"/>
     <use xlink:href="#DejaVuSans-75" transform="translate(396.537109 0)"/>
     <use xlink:href="#DejaVuSans-70" transform="translate(459.916016 0)"/>
     <use xlink:href="#DejaVuSans-20" transform="translate(523.392578 0)"/>
     <use xlink:href="#DejaVuSans-73" transform="translate(555.179688 0)"/>
     <use xlink:href="#DejaVuSans-74" transform="translate(607.279297 0)"/>
     <use xlink:href="#DejaVuSans-72" transform="translate(646.488281 0)"/>
     <use xlink:href="#DejaVuSans-6f" transform="translate(685.351562 0)"/>
     <use xlink:href="#DejaVuSans-6e" transform="translate(746.533203 0)"/>
     <use xlink:href="#DejaVuSans-67" transform="translate(809.912109 0)"/>
     <use xlink:href="#DejaVuSans-65" transform="translate(873.388672 0)"/>
     <use xlink:href="#DejaVuSans-72" transform="translate(934.912109 0)"/>
    </g>
   </g>
   <g id="text_12">
    <!-- No clear interaction -->
    <g transform="translate(453.822187 258.409406) scale(0.09 -0.09)">
     <defs>
      <path id="DejaVuSans-4e" d="M 628 4666 
L 1478 4666 
L 3547 763 
L 3547 4666 
L 4159 4666 
L 4159 0 
L 3309 0 
L 1241 3903 
L 1241 0 
L 628 0 
L 628 4666 
z
" transform="scale(0.015625)"/>
     </defs>
     <use xlink:href="#DejaVuSans-4e"/>
     <use xlink:href="#DejaVuSans-6f" transform="translate(74.804688 0)"/>
     <use xlink:href="#DejaVuSans-20" transform="translate(135.986328 0)"/>
     <use xlink:href="#DejaVuSans-63" transform="translate(167.773438 0)"/>
     <use xlink:href="#DejaVuSans-6c" transform="translate(222.753906 0)"/>
     <use xlink:href="#DejaVuSans-65" transform="translate(250.537109 0)"/>
     <use xlink:href="#DejaVuSans-61" transform="translate(312.060547 0)"/>
     <use xlink:href="#DejaVuSans-72" transform="translate(373.339844 0)"/>
     <use xlink:href="#DejaVuSans-20" transform="translate(414.453125 0)"/>
     <use xlink:href="#DejaVuSans-69" transform="translate(446.240234 0)"/>
     <use xlink:href="#DejaVuSans-6e" transform="translate(474.023438 0)"/>
     <use xlink:href="#DejaVuSans-74" transform="translate(537.402344 0)"/>
     <use xlink:href="#DejaVuSans-65" transform="translate(576.611328 0)"/>
     <use xlink:href="#DejaVuSans-72" transform="translate(638.134766 0)"/>
     <use xlink:href="#DejaVuSans-61" transform="translate(679.248047 0)"/>
     <use xlink:href="#DejaVuSans-63" transform="translate(740.527344 0)"/>
     <use xlink:href="#DejaVuSans-74" transform="translate(795.507812 0)"/>
     <use xlink:href="#DejaVuSans-69" transform="translate(834.716797 0)"/>
     <use xlink:href="#DejaVuSans-6f" transform="translate(862.5 0)"/>
     <use xlink:href="#DejaVuSans-6e" transform="translate(923.681641 0)"/>
    </g>
   </g>
   <g id="text_13">
    <!-- Figure 7-11  Heterogeneity channels and outcome destinations -->
    <g transform="translate(81.090469 17.077969) scale(0.13 -0.13)">
     <defs>
      <path id="DejaVuSans-46" d="M 628 4666 
L 3309 4666 
L 3309 4134 
L 1259 4134 
L 1259 2759 
L 3109 2759 
L 3109 2228 
L 1259 2228 
L 1259 0 
L 628 0 
L 628 4666 
z
" transform="scale(0.015625)"/>
      <path id="DejaVuSans-37" d="M 525 4666 
L 3525 4666 
L 3525 4397 
L 1831 0 
L 1172 0 
L 2766 4134 
L 525 4134 
L 525 4666 
z
" transform="scale(0.015625)"/>
      <path id="DejaVuSans-31" d="M 794 531 
L 1825 531 
L 1825 4091 
L 703 3866 
L 703 4441 
L 1819 4666 
L 2450 4666 
L 2450 531 
L 3481 531 
L 3481 0 
L 794 0 
L 794 531 
z
" transform="scale(0.015625)"/>
     </defs>
     <use xlink:href="#DejaVuSans-46"/>
     <use xlink:href="#DejaVuSans-69" transform="translate(50.269531 0)"/>
     <use xlink:href="#DejaVuSans-67" transform="translate(78.052734 0)"/>
     <use xlink:href="#DejaVuSans-75" transform="translate(141.529297 0)"/>
     <use xlink:href="#DejaVuSans-72" transform="translate(204.908203 0)"/>
     <use xlink:href="#DejaVuSans-65" transform="translate(243.771484 0)"/>
     <use xlink:href="#DejaVuSans-20" transform="translate(305.294922 0)"/>
     <use xlink:href="#DejaVuSans-37" transform="translate(337.082031 0)"/>
     <use xlink:href="#DejaVuSans-2d" transform="translate(400.705078 0)"/>
     <use xlink:href="#DejaVuSans-31" transform="translate(436.789062 0)"/>
     <use xlink:href="#DejaVuSans-31" transform="translate(500.412109 0)"/>
     <use xlink:href="#DejaVuSans-20" transform="translate(564.035156 0)"/>
     <use xlink:href="#DejaVuSans-20" transform="translate(595.822266 0)"/>
     <use xlink:href="#DejaVuSans-48" transform="translate(627.609375 0)"/>
     <use xlink:href="#DejaVuSans-65" transform="translate(702.804688 0)"/>
     <use xlink:href="#DejaVuSans-74" transform="translate(764.328125 0)"/>
     <use xlink:href="#DejaVuSans-65" transform="translate(803.537109 0)"/>
     <use xlink:href="#DejaVuSans-72" transform="translate(865.060547 0)"/>
     <use xlink:href="#DejaVuSans-6f" transform="translate(903.923828 0)"/>
     <use xlink:href="#DejaVuSans-67" transform="translate(965.105469 0)"/>
     <use xlink:href="#DejaVuSans-65" transform="translate(1028.582031 0)"/>
     <use xlink:href="#DejaVuSans-6e" transform="translate(1090.105469 0)"/>
     <use xlink:href="#DejaVuSans-65" transform="translate(1153.484375 0)"/>
     <use xlink:href="#DejaVuSans-69" transform="translate(1215.007812 0)"/>
     <use xlink:href="#DejaVuSans-74" transform="translate(1242.791016 0)"/>
     <use xlink:href="#DejaVuSans-79" transform="translate(1282 0)"/>
     <use xlink:href="#DejaVuSans-20" transform="translate(1341.179688 0)"/>
     <use xlink:href="#DejaVuSans-63" transform="translate(1372.966797 0)"/>
     <use xlink:href="#DejaVuSans-68" transform="translate(1427.947266 0)"/>
     <use xlink:href="#DejaVuSans-61" transform="translate(1491.326172 0)"/>
     <use xlink:href="#DejaVuSans-6e" transform="translate(1552.605469 0)"/>
     <use xlink:href="#DejaVuSans-6e" transform="translate(1615.984375 0)"/>
     <use xlink:href="#DejaVuSans-65" transform="translate(1679.363281 0)"/>
     <use xlink:href="#DejaVuSans-6c" transform="translate(1740.886719 0)"/>
     <use xlink:href="#DejaVuSans-73" transform="translate(1768.669922 0)"/>
     <use xlink:href="#DejaVuSans-20" transform="translate(1820.769531 0)"/>
     <use xlink:href="#DejaVuSans-61" transform="translate(1852.556641 0)"/>
     <use xlink:href="#DejaVuSans-6e" transform="translate(1913.835938 0)"/>
     <use xlink:href="#DejaVuSans-64" transform="translate(1977.214844 0)"/>
     <use xlink:href="#DejaVuSans-20" transform="translate(2040.691406 0)"/>
     <use xlink:href="#DejaVuSans-6f" transform="translate(2072.478516 0)"/>
     <use xlink:href="#DejaVuSans-75" transform="translate(2133.660156 0)"/>
     <use xlink:href="#DejaVuSans-74" transform="translate(2197.039062 0)"/>
     <use xlink:href="#DejaVuSans-63" transform="translate(2236.248047 0)"/>
     <use xlink:href="#DejaVuSans-6f" transform="translate(2291.228516 0)"/>
     <use xlink:href="#DejaVuSans-6d" transform="translate(2352.410156 0)"/>
     <use xlink:href="#DejaVuSans-65" transform="translate(2449.822266 0)"/>
     <use xlink:href="#DejaVuSans-20" transform="translate(2511.345703 0)"/>
     <use xlink:href="#DejaVuSans-64" transform="translate(2543.132812 0)"/>
     <use xlink:href="#DejaVuSans-65" transform="translate(2606.609375 0)"/>
     <use xlink:href="#DejaVuSans-73" transform="translate(2668.132812 0)"/>
     <use xlink:href="#DejaVuSans-74" transform="translate(2720.232422 0)"/>
     <use xlink:href="#DejaVuSans-69" transform="translate(2759.441406 0)"/>
     <use xlink:href="#DejaVuSans-6e" transform="translate(2787.224609 0)"/>
     <use xlink:href="#DejaVuSans-61" transform="translate(2850.603516 0)"/>
     <use xlink:href="#DejaVuSans-74" transform="translate(2911.882812 0)"/>
     <use xlink:href="#DejaVuSans-69" transform="translate(2951.091797 0)"/>
     <use xlink:href="#DejaVuSans-6f" transform="translate(2978.875 0)"/>
     <use xlink:href="#DejaVuSans-6e" transform="translate(3040.056641 0)"/>
     <use xlink:href="#DejaVuSans-73" transform="translate(3103.435547 0)"/>
    </g>
   </g>
  </g>
 </g>
 <defs>
  <clipPath id="p55e2d2d2e1">
   <rect x="7.2" y="23.077969" width="558" height="332.64"/>
  </clipPath>
 </defs>
</svg>
