<?xml version="1.0" encoding="utf-8" standalone="no"?>
<!DOCTYPE svg PUBLIC "-//W3C//DTD SVG 1.1//EN"
  "http://www.w3.org/Graphics/SVG/1.1/DTD/svg11.dtd">
<svg xmlns:xlink="http://www.w3.org/1999/xlink" width="676.101562pt" height="379.596094pt" viewBox="0 0 676.101562 379.596094" xmlns="http://www.w3.org/2000/svg" version="1.1">
 <metadata>
  <rdf:RDF xmlns:dc="http://purl.org/dc/elements/1.1/" xmlns:cc="http://creativecommons.org/ns#" xmlns:rdf="http://www.w3.org/1999/02/22-rdf-syntax-ns#">
   <cc:Work>
    <dc:type rdf:resource="http://purl.org/dc/dcmitype/StillImage"/>
    <dc:date>2026-04-09T13:04:36.580576</dc:date>
    <dc:format>image/svg+xml</dc:format>
    <dc:creator>
     <cc:Agent>
      <dc:title>Matplotlib v3.10.8, https://matplotlib.org/</dc:title>
     </cc:Agent>
    </dc:creator>
   </cc:Work>
  </rdf:RDF>
 </metadata>
 <defs>
  <style type="text/css">*{stroke-linejoin: round; stroke-linecap: butt}</style>
 </defs>
 <g id="figure_1">
  <g id="patch_1">
   <path d="M 0 379.596094 
L 676.101562 379.596094 
L 676.101562 0 
L 0 0 
z
" style="fill: #ffffff"/>
  </g>
  <g id="axes_1">
   <g id="patch_2">
    <path d="M 110.901563 355.717969 
L 668.901562 355.717969 
L 668.901562 23.077969 
L 110.901563 23.077969 
z
" style="fill: #ffffff"/>
   </g>
   <g id="PathCollection_1">
    <defs>
     <path id="m623b261d72" d="M 0 9.289573 
C 2.463624 9.289573 4.826675 8.310765 6.56872 6.56872 
C 8.310765 4.826675 9.289573 2.463624 9.289573 0 
C 9.289573 -2.463624 8.310765 -4.826675 6.56872 -6.56872 
C 4.826675 -8.310765 2.463624 -9.289573 0 -9.289573 
C -2.463624 -9.289573 -4.826675 -8.310765 -6.56872 -6.56872 
C -8.310765 -4.826675 -9.289573 -2.463624 -9.289573 0 
C -9.289573 2.463624 -8.310765 4.826675 -6.56872 6.56872 
C -4.826675 8.310765 -2.463624 9.289573 0 9.289573 
z
" style="stroke: #333333; stroke-opacity: 0.35"/>
    </defs>
    <g clip-path="url(#p61cebbcf45)">
     <use xlink:href="#m623b261d72" x="203.901563" y="50.797969" style="fill: #8f3b3b; fill-opacity: 0.35; stroke: #333333; stroke-opacity: 0.35"/>
    </g>
   </g>
   <g id="PathCollection_2">
    <defs>
     <path id="m35265fabfb" d="M 0 6.98451 
C 1.852314 6.98451 3.629011 6.248578 4.938794 4.938794 
C 6.248578 3.629011 6.98451 1.852314 6.98451 0 
C 6.98451 -1.852314 6.248578 -3.629011 4.938794 -4.938794 
C 3.629011 -6.248578 1.852314 -6.98451 0 -6.98451 
C -1.852314 -6.98451 -3.629011 -6.248578 -4.938794 -4.938794 
C -6.248578 -3.629011 -6.98451 -1.852314 -6.98451 0 
C -6.98451 1.852314 -6.248578 3.629011 -4.938794 4.938794 
C -3.629011 6.248578 -1.852314 6.98451 0 6.98451 
z
" style="stroke: #333333; stroke-opacity: 0.35"/>
    </defs>
    <g clip-path="url(#p61cebbcf45)">
     <use xlink:href="#m35265fabfb" x="389.901563" y="50.797969" style="fill: #8f3b3b; fill-opacity: 0.35; stroke: #333333; stroke-opacity: 0.35"/>
    </g>
   </g>
   <g id="PathCollection_3">
    <defs>
     <path id="m9260289655" d="M 0 6.953945 
C 1.844208 6.953945 3.61313 6.221233 4.917182 4.917182 
C 6.221233 3.61313 6.953945 1.844208 6.953945 0 
C 6.953945 -1.844208 6.221233 -3.61313 4.917182 -4.917182 
C 3.61313 -6.221233 1.844208 -6.953945 0 -6.953945 
C -1.844208 -6.953945 -3.61313 -6.221233 -4.917182 -4.917182 
C -6.221233 -3.61313 -6.953945 -1.844208 -6.953945 0 
C -6.953945 1.844208 -6.221233 3.61313 -4.917182 4.917182 
C -3.61313 6.221233 -1.844208 6.953945 0 6.953945 
z
" style="stroke: #333333; stroke-opacity: 0.35"/>
    </defs>
    <g clip-path="url(#p61cebbcf45)">
     <use xlink:href="#m9260289655" x="575.901562" y="50.797969" style="fill: #3c5a99; fill-opacity: 0.35; stroke: #333333; stroke-opacity: 0.35"/>
    </g>
   </g>
   <g id="PathCollection_4">
    <defs>
     <path id="mef1da0e375" d="M 0 6.402178 
C 1.697877 6.402178 3.326443 5.727604 4.527023 4.527023 
C 5.727604 3.326443 6.402178 1.697877 6.402178 0 
C 6.402178 -1.697877 5.727604 -3.326443 4.527023 -4.527023 
C 3.326443 -5.727604 1.697877 -6.402178 0 -6.402178 
C -1.697877 -6.402178 -3.326443 -5.727604 -4.527023 -4.527023 
C -5.727604 -3.326443 -6.402178 -1.697877 -6.402178 0 
C -6.402178 1.697877 -5.727604 3.326443 -4.527023 4.527023 
C -3.326443 5.727604 -1.697877 6.402178 0 6.402178 
z
" style="stroke: #333333; stroke-opacity: 0.35"/>
    </defs>
    <g clip-path="url(#p61cebbcf45)">
     <use xlink:href="#mef1da0e375" x="203.901563" y="106.237969" style="fill: #8f3b3b; fill-opacity: 0.35; stroke: #333333; stroke-opacity: 0.35"/>
    </g>
   </g>
   <g id="PathCollection_5">
    <defs>
     <path id="m45ecd15649" d="M 0 6.216744 
C 1.6487 6.216744 3.230095 5.561708 4.395902 4.395902 
C 5.561708 3.230095 6.216744 1.6487 6.216744 0 
C 6.216744 -1.6487 5.561708 -3.230095 4.395902 -4.395902 
C 3.230095 -5.561708 1.6487 -6.216744 0 -6.216744 
C -1.6487 -6.216744 -3.230095 -5.561708 -4.395902 -4.395902 
C -5.561708 -3.230095 -6.216744 -1.6487 -6.216744 0 
C -6.216744 1.6487 -5.561708 3.230095 -4.395902 4.395902 
C -3.230095 5.561708 -1.6487 6.216744 0 6.216744 
z
" style="stroke: #333333; stroke-opacity: 0.35"/>
    </defs>
    <g clip-path="url(#p61cebbcf45)">
     <use xlink:href="#m45ecd15649" x="389.901563" y="106.237969" style="fill: #8f3b3b; fill-opacity: 0.35; stroke: #333333; stroke-opacity: 0.35"/>
    </g>
   </g>
   <g id="PathCollection_6">
    <defs>
     <path id="mcfcd294425" d="M 0 6.164717 
C 1.634902 6.164717 3.203063 5.515163 4.359113 4.359113 
C 5.515163 3.203063 6.164717 1.634902 6.164717 0 
C 6.164717 -1.634902 5.515163 -3.203063 4.359113 -4.359113 
C 3.203063 -5.515163 1.634902 -6.164717 0 -6.164717 
C -1.634902 -6.164717 -3.203063 -5.515163 -4.359113 -4.359113 
C -5.515163 -3.203063 -6.164717 -1.634902 -6.164717 0 
C -6.164717 1.634902 -5.515163 3.203063 -4.359113 4.359113 
C -3.203063 5.515163 -1.634902 6.164717 0 6.164717 
z
" style="stroke: #333333; stroke-opacity: 0.35"/>
    </defs>
    <g clip-path="url(#p61cebbcf45)">
     <use xlink:href="#mcfcd294425" x="575.901562" y="106.237969" style="fill: #3c5a99; fill-opacity: 0.35; stroke: #333333; stroke-opacity: 0.35"/>
    </g>
   </g>
   <g id="PathCollection_7">
    <defs>
     <path id="ma72eb6b34f" d="M 0 10.391444 
C 2.755843 10.391444 5.399185 9.296536 7.347861 7.347861 
C 9.296536 5.399185 10.391444 2.755843 10.391444 0 
C 10.391444 -2.755843 9.296536 -5.399185 7.347861 -7.347861 
C 5.399185 -9.296536 2.755843 -10.391444 0 -10.391444 
C -2.755843 -10.391444 -5.399185 -9.296536 -7.347861 -7.347861 
C -9.296536 -5.399185 -10.391444 -2.755843 -10.391444 0 
C -10.391444 2.755843 -9.296536 5.399185 -7.347861 7.347861 
C -5.399185 9.296536 -2.755843 10.391444 0 10.391444 
z
" style="stroke: #333333; stroke-opacity: 0.35"/>
    </defs>
    <g clip-path="url(#p61cebbcf45)">
     <use xlink:href="#ma72eb6b34f" x="203.901563" y="161.677969" style="fill: #8f3b3b; fill-opacity: 0.35; stroke: #333333; stroke-opacity: 0.35"/>
    </g>
   </g>
   <g id="PathCollection_8">
    <defs>
     <path id="m86f14be503" d="M 0 7.590833 
C 2.013113 7.590833 3.944044 6.791015 5.36753 5.36753 
C 6.791015 3.944044 7.590833 2.013113 7.590833 0 
C 7.590833 -2.013113 6.791015 -3.944044 5.36753 -5.36753 
C 3.944044 -6.791015 2.013113 -7.590833 0 -7.590833 
C -2.013113 -7.590833 -3.944044 -6.791015 -5.36753 -5.36753 
C -6.791015 -3.944044 -7.590833 -2.013113 -7.590833 0 
C -7.590833 2.013113 -6.791015 3.944044 -5.36753 5.36753 
C -3.944044 6.791015 -2.013113 7.590833 0 7.590833 
z
" style="stroke: #333333; stroke-opacity: 0.35"/>
    </defs>
    <g clip-path="url(#p61cebbcf45)">
     <use xlink:href="#m86f14be503" x="389.901563" y="161.677969" style="fill: #8f3b3b; fill-opacity: 0.35; stroke: #333333; stroke-opacity: 0.35"/>
    </g>
   </g>
   <g id="PathCollection_9">
    <defs>
     <path id="mfde8b8503c" d="M 0 7.440849 
C 1.973336 7.440849 3.866116 6.656834 5.261475 5.261475 
C 6.656834 3.866116 7.440849 1.973336 7.440849 0 
C 7.440849 -1.973336 6.656834 -3.866116 5.261475 -5.261475 
C 3.866116 -6.656834 1.973336 -7.440849 0 -7.440849 
C -1.973336 -7.440849 -3.866116 -6.656834 -5.261475 -5.261475 
C -6.656834 -3.866116 -7.440849 -1.973336 -7.440849 0 
C -7.440849 1.973336 -6.656834 3.866116 -5.261475 5.261475 
C -3.866116 6.656834 -1.973336 7.440849 0 7.440849 
z
" style="stroke: #333333; stroke-opacity: 0.35"/>
    </defs>
    <g clip-path="url(#p61cebbcf45)">
     <use xlink:href="#mfde8b8503c" x="575.901562" y="161.677969" style="fill: #3c5a99; fill-opacity: 0.35; stroke: #333333; stroke-opacity: 0.35"/>
    </g>
   </g>
   <g id="PathCollection_10">
    <defs>
     <path id="m7758776223" d="M 0 7.311922 
C 1.939144 7.311922 3.799128 6.541492 5.17031 5.17031 
C 6.541492 3.799128 7.311922 1.939144 7.311922 0 
C 7.311922 -1.939144 6.541492 -3.799128 5.17031 -5.17031 
C 3.799128 -6.541492 1.939144 -7.311922 0 -7.311922 
C -1.939144 -7.311922 -3.799128 -6.541492 -5.17031 -5.17031 
C -6.541492 -3.799128 -7.311922 -1.939144 -7.311922 0 
C -7.311922 1.939144 -6.541492 3.799128 -5.17031 5.17031 
C -3.799128 6.541492 -1.939144 7.311922 0 7.311922 
z
" style="stroke: #333333; stroke-opacity: 0.35"/>
    </defs>
    <g clip-path="url(#p61cebbcf45)">
     <use xlink:href="#m7758776223" x="203.901563" y="217.117969" style="fill: #3c5a99; fill-opacity: 0.35; stroke: #333333; stroke-opacity: 0.35"/>
    </g>
   </g>
   <g id="PathCollection_11">
    <defs>
     <path id="mbed1ee6bdd" d="M 0 6.38164 
C 1.692431 6.38164 3.315772 5.709231 4.512501 4.512501 
C 5.709231 3.315772 6.38164 1.692431 6.38164 0 
C 6.38164 -1.692431 5.709231 -3.315772 4.512501 -4.512501 
C 3.315772 -5.709231 1.692431 -6.38164 0 -6.38164 
C -1.692431 -6.38164 -3.315772 -5.709231 -4.512501 -4.512501 
C -5.709231 -3.315772 -6.38164 -1.692431 -6.38164 0 
C -6.38164 1.692431 -5.709231 3.315772 -4.512501 4.512501 
C -3.315772 5.709231 -1.692431 6.38164 0 6.38164 
z
" style="stroke: #333333; stroke-opacity: 0.35"/>
    </defs>
    <g clip-path="url(#p61cebbcf45)">
     <use xlink:href="#mbed1ee6bdd" x="389.901563" y="217.117969" style="fill: #3c5a99; fill-opacity: 0.35; stroke: #333333; stroke-opacity: 0.35"/>
    </g>
   </g>
   <g id="PathCollection_12">
    <defs>
     <path id="m50b0c4a58b" d="M 0 6.398247 
C 1.696835 6.398247 3.324401 5.724088 4.524244 4.524244 
C 5.724088 3.324401 6.398247 1.696835 6.398247 0 
C 6.398247 -1.696835 5.724088 -3.324401 4.524244 -4.524244 
C 3.324401 -5.724088 1.696835 -6.398247 0 -6.398247 
C -1.696835 -6.398247 -3.324401 -5.724088 -4.524244 -4.524244 
C -5.724088 -3.324401 -6.398247 -1.696835 -6.398247 0 
C -6.398247 1.696835 -5.724088 3.324401 -4.524244 4.524244 
C -3.324401 5.724088 -1.696835 6.398247 0 6.398247 
z
" style="stroke: #333333; stroke-opacity: 0.35"/>
    </defs>
    <g clip-path="url(#p61cebbcf45)">
     <use xlink:href="#m50b0c4a58b" x="575.901562" y="217.117969" style="fill: #8f3b3b; fill-opacity: 0.35; stroke: #333333; stroke-opacity: 0.35"/>
    </g>
   </g>
   <g id="PathCollection_13">
    <defs>
     <path id="m5d74f4b802" d="M 0 10.126743 
C 2.685644 10.126743 5.261652 9.059725 7.160688 7.160688 
C 9.059725 5.261652 10.126743 2.685644 10.126743 0 
C 10.126743 -2.685644 9.059725 -5.261652 7.160688 -7.160688 
C 5.261652 -9.059725 2.685644 -10.126743 0 -10.126743 
C -2.685644 -10.126743 -5.261652 -9.059725 -7.160688 -7.160688 
C -9.059725 -5.261652 -10.126743 -2.685644 -10.126743 0 
C -10.126743 2.685644 -9.059725 5.261652 -7.160688 7.160688 
C -5.261652 9.059725 -2.685644 10.126743 0 10.126743 
z
" style="stroke: #333333; stroke-opacity: 0.35"/>
    </defs>
    <g clip-path="url(#p61cebbcf45)">
     <use xlink:href="#m5d74f4b802" x="203.901563" y="272.557969" style="fill: #3c5a99; fill-opacity: 0.35; stroke: #333333; stroke-opacity: 0.35"/>
    </g>
   </g>
   <g id="PathCollection_14">
    <defs>
     <path id="m471b0c3283" d="M 0 7.251492 
C 1.923118 7.251492 3.767729 6.487429 5.127579 5.127579 
C 6.487429 3.767729 7.251492 1.923118 7.251492 0 
C 7.251492 -1.923118 6.487429 -3.767729 5.127579 -5.127579 
C 3.767729 -6.487429 1.923118 -7.251492 0 -7.251492 
C -1.923118 -7.251492 -3.767729 -6.487429 -5.127579 -5.127579 
C -6.487429 -3.767729 -7.251492 -1.923118 -7.251492 0 
C -7.251492 1.923118 -6.487429 3.767729 -5.127579 5.127579 
C -3.767729 6.487429 -1.923118 7.251492 0 7.251492 
z
" style="stroke: #333333; stroke-opacity: 0.35"/>
    </defs>
    <g clip-path="url(#p61cebbcf45)">
     <use xlink:href="#m471b0c3283" x="389.901563" y="272.557969" style="fill: #3c5a99; fill-opacity: 0.35; stroke: #333333; stroke-opacity: 0.35"/>
    </g>
   </g>
   <g id="PathCollection_15">
    <defs>
     <path id="m47c5c2b1b1" d="M 0 7.300699 
C 1.936168 7.300699 3.793296 6.531452 5.162374 5.162374 
C 6.531452 3.793296 7.300699 1.936168 7.300699 0 
C 7.300699 -1.936168 6.531452 -3.793296 5.162374 -5.162374 
C 3.793296 -6.531452 1.936168 -7.300699 0 -7.300699 
C -1.936168 -7.300699 -3.793296 -6.531452 -5.162374 -5.162374 
C -6.531452 -3.793296 -7.300699 -1.936168 -7.300699 0 
C -7.300699 1.936168 -6.531452 3.793296 -5.162374 5.162374 
C -3.793296 6.531452 -1.936168 7.300699 0 7.300699 
z
" style="stroke: #333333; stroke-opacity: 0.35"/>
    </defs>
    <g clip-path="url(#p61cebbcf45)">
     <use xlink:href="#m47c5c2b1b1" x="575.901562" y="272.557969" style="fill: #8f3b3b; fill-opacity: 0.35; stroke: #333333; stroke-opacity: 0.35"/>
    </g>
   </g>
   <g id="PathCollection_16">
    <defs>
     <path id="mc34f70847d" d="M 0 13.693064 
C 3.631443 13.693064 7.11464 12.250276 9.682458 9.682458 
C 12.250276 7.11464 13.693064 3.631443 13.693064 0 
C 13.693064 -3.631443 12.250276 -7.11464 9.682458 -9.682458 
C 7.11464 -12.250276 3.631443 -13.693064 0 -13.693064 
C -3.631443 -13.693064 -7.11464 -12.250276 -9.682458 -9.682458 
C -12.250276 -7.11464 -13.693064 -3.631443 -13.693064 0 
C -13.693064 3.631443 -12.250276 7.11464 -9.682458 9.682458 
C -7.11464 12.250276 -3.631443 13.693064 0 13.693064 
z
" style="stroke: #333333; stroke-opacity: 0.35"/>
    </defs>
    <g clip-path="url(#p61cebbcf45)">
     <use xlink:href="#mc34f70847d" x="203.901563" y="327.997969" style="fill: #8f3b3b; fill-opacity: 0.35; stroke: #333333; stroke-opacity: 0.35"/>
    </g>
   </g>
   <g id="PathCollection_17">
    <defs>
     <path id="m489027fc67" d="M 0 12.58831 
C 3.338459 12.58831 6.540633 11.261926 8.90128 8.90128 
C 11.261926 6.540633 12.58831 3.338459 12.58831 0 
C 12.58831 -3.338459 11.261926 -6.540633 8.90128 -8.90128 
C 6.540633 -11.261926 3.338459 -12.58831 0 -12.58831 
C -3.338459 -12.58831 -6.540633 -11.261926 -8.90128 -8.90128 
C -11.261926 -6.540633 -12.58831 -3.338459 -12.58831 0 
C -12.58831 3.338459 -11.261926 6.540633 -8.90128 8.90128 
C -6.540633 11.261926 -3.338459 12.58831 0 12.58831 
z
" style="stroke: #333333; stroke-opacity: 0.35"/>
    </defs>
    <g clip-path="url(#p61cebbcf45)">
     <use xlink:href="#m489027fc67" x="389.901563" y="327.997969" style="fill: #8f3b3b; fill-opacity: 0.35; stroke: #333333; stroke-opacity: 0.35"/>
    </g>
   </g>
   <g id="PathCollection_18">
    <defs>
     <path id="m5a98ac2829" d="M 0 12.371099 
C 3.280854 12.371099 6.427774 11.067602 8.747688 8.747688 
C 11.067602 6.427774 12.371099 3.280854 12.371099 0 
C 12.371099 -3.280854 11.067602 -6.427774 8.747688 -8.747688 
C 6.427774 -11.067602 3.280854 -12.371099 0 -12.371099 
C -3.280854 -12.371099 -6.427774 -11.067602 -8.747688 -8.747688 
C -11.067602 -6.427774 -12.371099 -3.280854 -12.371099 0 
C -12.371099 3.280854 -11.067602 6.427774 -8.747688 8.747688 
C -6.427774 11.067602 -3.280854 12.371099 0 12.371099 
z
" style="stroke: #333333; stroke-opacity: 0.35"/>
    </defs>
    <g clip-path="url(#p61cebbcf45)">
     <use xlink:href="#m5a98ac2829" x="575.901562" y="327.997969" style="fill: #3c5a99; fill-opacity: 0.35; stroke: #333333; stroke-opacity: 0.35"/>
    </g>
   </g>
   <g id="matplotlib.axis_1">
    <g id="xtick_1">
     <g id="line2d_1">
      <defs>
       <path id="mf806f14a3e" d="M 0 0 
L 0 3.5 
" style="stroke: #222222; stroke-width: 0.8"/>
      </defs>
      <g>
       <use xlink:href="#mf806f14a3e" x="203.901563" y="355.717969" style="fill: #222222; stroke: #222222; stroke-width: 0.8"/>
      </g>
     </g>
     <g id="text_1">
      <!-- PCA quality -->
      <g style="fill: #222222" transform="translate(175.28125 370.316406) scale(0.1 -0.1)">
       <defs>
        <path id="DejaVuSans-50" d="M 1259 4147 
L 1259 2394 
L 2053 2394 
Q 2494 2394 2734 2622 
Q 2975 2850 2975 3272 
Q 2975 3691 2734 3919 
Q 2494 4147 2053 4147 
L 1259 4147 
z
M 628 4666 
L 2053 4666 
Q 2838 4666 3239 4311 
Q 3641 3956 3641 3272 
Q 3641 2581 3239 2228 
Q 2838 1875 2053 1875 
L 1259 1875 
L 1259 0 
L 628 0 
L 628 4666 
z
" transform="scale(0.015625)"/>
        <path id="DejaVuSans-43" d="M 4122 4306 
L 4122 3641 
Q 3803 3938 3442 4084 
Q 3081 4231 2675 4231 
Q 1875 4231 1450 3742 
Q 1025 3253 1025 2328 
Q 1025 1406 1450 917 
Q 1875 428 2675 428 
Q 3081 428 3442 575 
Q 3803 722 4122 1019 
L 4122 359 
Q 3791 134 3420 21 
Q 3050 -91 2638 -91 
Q 1578 -91 968 557 
Q 359 1206 359 2328 
Q 359 3453 968 4101 
Q 1578 4750 2638 4750 
Q 3056 4750 3426 4639 
Q 3797 4528 4122 4306 
z
" transform="scale(0.015625)"/>
        <path id="DejaVuSans-41" d="M 2188 4044 
L 1331 1722 
L 3047 1722 
L 2188 4044 
z
M 1831 4666 
L 2547 4666 
L 4325 0 
L 3669 0 
L 3244 1197 
L 1141 1197 
L 716 0 
L 50 0 
L 1831 4666 
z
" transform="scale(0.015625)"/>
        <path id="DejaVuSans-20" transform="scale(0.015625)"/>
        <path id="DejaVuSans-71" d="M 947 1747 
Q 947 1113 1208 752 
Q 1469 391 1925 391 
Q 2381 391 2643 752 
Q 2906 1113 2906 1747 
Q 2906 2381 2643 2742 
Q 2381 3103 1925 3103 
Q 1469 3103 1208 2742 
Q 947 2381 947 1747 
z
M 2906 525 
Q 2725 213 2448 61 
Q 2172 -91 1784 -91 
Q 1150 -91 751 415 
Q 353 922 353 1747 
Q 353 2572 751 3078 
Q 1150 3584 1784 3584 
Q 2172 3584 2448 3432 
Q 2725 3281 2906 2969 
L 2906 3500 
L 3481 3500 
L 3481 -1331 
L 2906 -1331 
L 2906 525 
z
" transform="scale(0.015625)"/>
        <path id="DejaVuSans-75" d="M 544 1381 
L 544 3500 
L 1119 3500 
L 1119 1403 
Q 1119 906 1312 657 
Q 1506 409 1894 409 
Q 2359 409 2629 706 
Q 2900 1003 2900 1516 
L 2900 3500 
L 3475 3500 
L 3475 0 
L 2900 0 
L 2900 538 
Q 2691 219 2414 64 
Q 2138 -91 1772 -91 
Q 1169 -91 856 284 
Q 544 659 544 1381 
z
M 1991 3584 
L 1991 3584 
z
" transform="scale(0.015625)"/>
        <path id="DejaVuSans-61" d="M 2194 1759 
Q 1497 1759 1228 1600 
Q 959 1441 959 1056 
Q 959 750 1161 570 
Q 1363 391 1709 391 
Q 2188 391 2477 730 
Q 2766 1069 2766 1631 
L 2766 1759 
L 2194 1759 
z
M 3341 1997 
L 3341 0 
L 2766 0 
L 2766 531 
Q 2569 213 2275 61 
Q 1981 -91 1556 -91 
Q 1019 -91 701 211 
Q 384 513 384 1019 
Q 384 1609 779 1909 
Q 1175 2209 1959 2209 
L 2766 2209 
L 2766 2266 
Q 2766 2663 2505 2880 
Q 2244 3097 1772 3097 
Q 1472 3097 1187 3025 
Q 903 2953 641 2809 
L 641 3341 
Q 956 3463 1253 3523 
Q 1550 3584 1831 3584 
Q 2591 3584 2966 3190 
Q 3341 2797 3341 1997 
z
" transform="scale(0.015625)"/>
        <path id="DejaVuSans-6c" d="M 603 4863 
L 1178 4863 
L 1178 0 
L 603 0 
L 603 4863 
z
" transform="scale(0.015625)"/>
        <path id="DejaVuSans-69" d="M 603 3500 
L 1178 3500 
L 1178 0 
L 603 0 
L 603 3500 
z
M 603 4863 
L 1178 4863 
L 1178 4134 
L 603 4134 
L 603 4863 
z
" transform="scale(0.015625)"/>
        <path id="DejaVuSans-74" d="M 1172 4494 
L 1172 3500 
L 2356 3500 
L 2356 3053 
L 1172 3053 
L 1172 1153 
Q 1172 725 1289 603 
Q 1406 481 1766 481 
L 2356 481 
L 2356 0 
L 1766 0 
Q 1100 0 847 248 
Q 594 497 594 1153 
L 594 3053 
L 172 3053 
L 172 3500 
L 594 3500 
L 594 4494 
L 1172 4494 
z
" transform="scale(0.015625)"/>
        <path id="DejaVuSans-79" d="M 2059 -325 
Q 1816 -950 1584 -1140 
Q 1353 -1331 966 -1331 
L 506 -1331 
L 506 -850 
L 844 -850 
Q 1081 -850 1212 -737 
Q 1344 -625 1503 -206 
L 1606 56 
L 191 3500 
L 800 3500 
L 1894 763 
L 2988 3500 
L 3597 3500 
L 2059 -325 
z
" transform="scale(0.015625)"/>
       </defs>
       <use xlink:href="#DejaVuSans-50"/>
       <use xlink:href="#DejaVuSans-43" transform="translate(60.302734 0)"/>
       <use xlink:href="#DejaVuSans-41" transform="translate(130.126953 0)"/>
       <use xlink:href="#DejaVuSans-20" transform="translate(198.535156 0)"/>
       <use xlink:href="#DejaVuSans-71" transform="translate(230.322266 0)"/>
       <use xlink:href="#DejaVuSans-75" transform="translate(293.798828 0)"/>
       <use xlink:href="#DejaVuSans-61" transform="translate(357.177734 0)"/>
       <use xlink:href="#DejaVuSans-6c" transform="translate(418.457031 0)"/>
       <use xlink:href="#DejaVuSans-69" transform="translate(446.240234 0)"/>
       <use xlink:href="#DejaVuSans-74" transform="translate(474.023438 0)"/>
       <use xlink:href="#DejaVuSans-79" transform="translate(513.232422 0)"/>
      </g>
     </g>
    </g>
    <g id="xtick_2">
     <g id="line2d_2">
      <g>
       <use xlink:href="#mf806f14a3e" x="389.901563" y="355.717969" style="fill: #222222; stroke: #222222; stroke-width: 0.8"/>
      </g>
     </g>
     <g id="text_2">
      <!-- Execution share -->
      <g style="fill: #222222" transform="translate(349.921094 370.316406) scale(0.1 -0.1)">
       <defs>
        <path id="DejaVuSans-45" d="M 628 4666 
L 3578 4666 
L 3578 4134 
L 1259 4134 
L 1259 2753 
L 3481 2753 
L 3481 2222 
L 1259 2222 
L 1259 531 
L 3634 531 
L 3634 0 
L 628 0 
L 628 4666 
z
" transform="scale(0.015625)"/>
        <path id="DejaVuSans-78" d="M 3513 3500 
L 2247 1797 
L 3578 0 
L 2900 0 
L 1881 1375 
L 863 0 
L 184 0 
L 1544 1831 
L 300 3500 
L 978 3500 
L 1906 2253 
L 2834 3500 
L 3513 3500 
z
" transform="scale(0.015625)"/>
        <path id="DejaVuSans-65" d="M 3597 1894 
L 3597 1613 
L 953 1613 
Q 991 1019 1311 708 
Q 1631 397 2203 397 
Q 2534 397 2845 478 
Q 3156 559 3463 722 
L 3463 178 
Q 3153 47 2828 -22 
Q 2503 -91 2169 -91 
Q 1331 -91 842 396 
Q 353 884 353 1716 
Q 353 2575 817 3079 
Q 1281 3584 2069 3584 
Q 2775 3584 3186 3129 
Q 3597 2675 3597 1894 
z
M 3022 2063 
Q 3016 2534 2758 2815 
Q 2500 3097 2075 3097 
Q 1594 3097 1305 2825 
Q 1016 2553 972 2059 
L 3022 2063 
z
" transform="scale(0.015625)"/>
        <path id="DejaVuSans-63" d="M 3122 3366 
L 3122 2828 
Q 2878 2963 2633 3030 
Q 2388 3097 2138 3097 
Q 1578 3097 1268 2742 
Q 959 2388 959 1747 
Q 959 1106 1268 751 
Q 1578 397 2138 397 
Q 2388 397 2633 464 
Q 2878 531 3122 666 
L 3122 134 
Q 2881 22 2623 -34 
Q 2366 -91 2075 -91 
Q 1284 -91 818 406 
Q 353 903 353 1747 
Q 353 2603 823 3093 
Q 1294 3584 2113 3584 
Q 2378 3584 2631 3529 
Q 2884 3475 3122 3366 
z
" transform="scale(0.015625)"/>
        <path id="DejaVuSans-6f" d="M 1959 3097 
Q 1497 3097 1228 2736 
Q 959 2375 959 1747 
Q 959 1119 1226 758 
Q 1494 397 1959 397 
Q 2419 397 2687 759 
Q 2956 1122 2956 1747 
Q 2956 2369 2687 2733 
Q 2419 3097 1959 3097 
z
M 1959 3584 
Q 2709 3584 3137 3096 
Q 3566 2609 3566 1747 
Q 3566 888 3137 398 
Q 2709 -91 1959 -91 
Q 1206 -91 779 398 
Q 353 888 353 1747 
Q 353 2609 779 3096 
Q 1206 3584 1959 3584 
z
" transform="scale(0.015625)"/>
        <path id="DejaVuSans-6e" d="M 3513 2113 
L 3513 0 
L 2938 0 
L 2938 2094 
Q 2938 2591 2744 2837 
Q 2550 3084 2163 3084 
Q 1697 3084 1428 2787 
Q 1159 2491 1159 1978 
L 1159 0 
L 581 0 
L 581 3500 
L 1159 3500 
L 1159 2956 
Q 1366 3272 1645 3428 
Q 1925 3584 2291 3584 
Q 2894 3584 3203 3211 
Q 3513 2838 3513 2113 
z
" transform="scale(0.015625)"/>
        <path id="DejaVuSans-73" d="M 2834 3397 
L 2834 2853 
Q 2591 2978 2328 3040 
Q 2066 3103 1784 3103 
Q 1356 3103 1142 2972 
Q 928 2841 928 2578 
Q 928 2378 1081 2264 
Q 1234 2150 1697 2047 
L 1894 2003 
Q 2506 1872 2764 1633 
Q 3022 1394 3022 966 
Q 3022 478 2636 193 
Q 2250 -91 1575 -91 
Q 1294 -91 989 -36 
Q 684 19 347 128 
L 347 722 
Q 666 556 975 473 
Q 1284 391 1588 391 
Q 1994 391 2212 530 
Q 2431 669 2431 922 
Q 2431 1156 2273 1281 
Q 2116 1406 1581 1522 
L 1381 1569 
Q 847 1681 609 1914 
Q 372 2147 372 2553 
Q 372 3047 722 3315 
Q 1072 3584 1716 3584 
Q 2034 3584 2315 3537 
Q 2597 3491 2834 3397 
z
" transform="scale(0.015625)"/>
        <path id="DejaVuSans-68" d="M 3513 2113 
L 3513 0 
L 2938 0 
L 2938 2094 
Q 2938 2591 2744 2837 
Q 2550 3084 2163 3084 
Q 1697 3084 1428 2787 
Q 1159 2491 1159 1978 
L 1159 0 
L 581 0 
L 581 4863 
L 1159 4863 
L 1159 2956 
Q 1366 3272 1645 3428 
Q 1925 3584 2291 3584 
Q 2894 3584 3203 3211 
Q 3513 2838 3513 2113 
z
" transform="scale(0.015625)"/>
        <path id="DejaVuSans-72" d="M 2631 2963 
Q 2534 3019 2420 3045 
Q 2306 3072 2169 3072 
Q 1681 3072 1420 2755 
Q 1159 2438 1159 1844 
L 1159 0 
L 581 0 
L 581 3500 
L 1159 3500 
L 1159 2956 
Q 1341 3275 1631 3429 
Q 1922 3584 2338 3584 
Q 2397 3584 2469 3576 
Q 2541 3569 2628 3553 
L 2631 2963 
z
" transform="scale(0.015625)"/>
       </defs>
       <use xlink:href="#DejaVuSans-45"/>
       <use xlink:href="#DejaVuSans-78" transform="translate(63.183594 0)"/>
       <use xlink:href="#DejaVuSans-65" transform="translate(119.238281 0)"/>
       <use xlink:href="#DejaVuSans-63" transform="translate(180.761719 0)"/>
       <use xlink:href="#DejaVuSans-75" transform="translate(235.742188 0)"/>
       <use xlink:href="#DejaVuSans-74" transform="translate(299.121094 0)"/>
       <use xlink:href="#DejaVuSans-69" transform="translate(338.330078 0)"/>
       <use xlink:href="#DejaVuSans-6f" transform="translate(366.113281 0)"/>
       <use xlink:href="#DejaVuSans-6e" transform="translate(427.294922 0)"/>
       <use xlink:href="#DejaVuSans-20" transform="translate(490.673828 0)"/>
       <use xlink:href="#DejaVuSans-73" transform="translate(522.460938 0)"/>
       <use xlink:href="#DejaVuSans-68" transform="translate(574.560547 0)"/>
       <use xlink:href="#DejaVuSans-61" transform="translate(637.939453 0)"/>
       <use xlink:href="#DejaVuSans-72" transform="translate(699.21875 0)"/>
       <use xlink:href="#DejaVuSans-65" transform="translate(738.082031 0)"/>
      </g>
     </g>
    </g>
    <g id="xtick_3">
     <g id="line2d_3">
      <g>
       <use xlink:href="#mf806f14a3e" x="575.901562" y="355.717969" style="fill: #222222; stroke: #222222; stroke-width: 0.8"/>
      </g>
     </g>
     <g id="text_3">
      <!-- Procurement share -->
      <g style="fill: #222222" transform="translate(528.5125 370.316406) scale(0.1 -0.1)">
       <defs>
        <path id="DejaVuSans-6d" d="M 3328 2828 
Q 3544 3216 3844 3400 
Q 4144 3584 4550 3584 
Q 5097 3584 5394 3201 
Q 5691 2819 5691 2113 
L 5691 0 
L 5113 0 
L 5113 2094 
Q 5113 2597 4934 2840 
Q 4756 3084 4391 3084 
Q 3944 3084 3684 2787 
Q 3425 2491 3425 1978 
L 3425 0 
L 2847 0 
L 2847 2094 
Q 2847 2600 2669 2842 
Q 2491 3084 2119 3084 
Q 1678 3084 1418 2786 
Q 1159 2488 1159 1978 
L 1159 0 
L 581 0 
L 581 3500 
L 1159 3500 
L 1159 2956 
Q 1356 3278 1631 3431 
Q 1906 3584 2284 3584 
Q 2666 3584 2933 3390 
Q 3200 3197 3328 2828 
z
" transform="scale(0.015625)"/>
       </defs>
       <use xlink:href="#DejaVuSans-50"/>
       <use xlink:href="#DejaVuSans-72" transform="translate(58.552734 0)"/>
       <use xlink:href="#DejaVuSans-6f" transform="translate(97.416016 0)"/>
       <use xlink:href="#DejaVuSans-63" transform="translate(158.597656 0)"/>
       <use xlink:href="#DejaVuSans-75" transform="translate(213.578125 0)"/>
       <use xlink:href="#DejaVuSans-72" transform="translate(276.957031 0)"/>
       <use xlink:href="#DejaVuSans-65" transform="translate(315.820312 0)"/>
       <use xlink:href="#DejaVuSans-6d" transform="translate(377.34375 0)"/>
       <use xlink:href="#DejaVuSans-65" transform="translate(474.755859 0)"/>
       <use xlink:href="#DejaVuSans-6e" transform="translate(536.279297 0)"/>
       <use xlink:href="#DejaVuSans-74" transform="translate(599.658203 0)"/>
       <use xlink:href="#DejaVuSans-20" transform="translate(638.867188 0)"/>
       <use xlink:href="#DejaVuSans-73" transform="translate(670.654297 0)"/>
       <use xlink:href="#DejaVuSans-68" transform="translate(722.753906 0)"/>
       <use xlink:href="#DejaVuSans-61" transform="translate(786.132812 0)"/>
       <use xlink:href="#DejaVuSans-72" transform="translate(847.412109 0)"/>
       <use xlink:href="#DejaVuSans-65" transform="translate(886.275391 0)"/>
      </g>
     </g>
    </g>
   </g>
   <g id="matplotlib.axis_2">
    <g id="ytick_1">
     <g id="line2d_4">
      <defs>
       <path id="m09adb963a1" d="M 0 0 
L -3.5 0 
" style="stroke: #222222; stroke-width: 0.8"/>
      </defs>
      <g>
       <use xlink:href="#m09adb963a1" x="110.901563" y="327.997969" style="fill: #222222; stroke: #222222; stroke-width: 0.8"/>
      </g>
     </g>
     <g id="text_4">
      <!-- Gov-data openness -->
      <g style="fill: #222222" transform="translate(7.2 331.797187) scale(0.1 -0.1)">
       <defs>
        <path id="DejaVuSans-47" d="M 3809 666 
L 3809 1919 
L 2778 1919 
L 2778 2438 
L 4434 2438 
L 4434 434 
Q 4069 175 3628 42 
Q 3188 -91 2688 -91 
Q 1594 -91 976 548 
Q 359 1188 359 2328 
Q 359 3472 976 4111 
Q 1594 4750 2688 4750 
Q 3144 4750 3555 4637 
Q 3966 4525 4313 4306 
L 4313 3634 
Q 3963 3931 3569 4081 
Q 3175 4231 2741 4231 
Q 1884 4231 1454 3753 
Q 1025 3275 1025 2328 
Q 1025 1384 1454 906 
Q 1884 428 2741 428 
Q 3075 428 3337 486 
Q 3600 544 3809 666 
z
" transform="scale(0.015625)"/>
        <path id="DejaVuSans-76" d="M 191 3500 
L 800 3500 
L 1894 563 
L 2988 3500 
L 3597 3500 
L 2284 0 
L 1503 0 
L 191 3500 
z
" transform="scale(0.015625)"/>
        <path id="DejaVuSans-2d" d="M 313 2009 
L 1997 2009 
L 1997 1497 
L 313 1497 
L 313 2009 
z
" transform="scale(0.015625)"/>
        <path id="DejaVuSans-64" d="M 2906 2969 
L 2906 4863 
L 3481 4863 
L 3481 0 
L 2906 0 
L 2906 525 
Q 2725 213 2448 61 
Q 2172 -91 1784 -91 
Q 1150 -91 751 415 
Q 353 922 353 1747 
Q 353 2572 751 3078 
Q 1150 3584 1784 3584 
Q 2172 3584 2448 3432 
Q 2725 3281 2906 2969 
z
M 947 1747 
Q 947 1113 1208 752 
Q 1469 391 1925 391 
Q 2381 391 2643 752 
Q 2906 1113 2906 1747 
Q 2906 2381 2643 2742 
Q 2381 3103 1925 3103 
Q 1469 3103 1208 2742 
Q 947 2381 947 1747 
z
" transform="scale(0.015625)"/>
        <path id="DejaVuSans-70" d="M 1159 525 
L 1159 -1331 
L 581 -1331 
L 581 3500 
L 1159 3500 
L 1159 2969 
Q 1341 3281 1617 3432 
Q 1894 3584 2278 3584 
Q 2916 3584 3314 3078 
Q 3713 2572 3713 1747 
Q 3713 922 3314 415 
Q 2916 -91 2278 -91 
Q 1894 -91 1617 61 
Q 1341 213 1159 525 
z
M 3116 1747 
Q 3116 2381 2855 2742 
Q 2594 3103 2138 3103 
Q 1681 3103 1420 2742 
Q 1159 2381 1159 1747 
Q 1159 1113 1420 752 
Q 1681 391 2138 391 
Q 2594 391 2855 752 
Q 3116 1113 3116 1747 
z
" transform="scale(0.015625)"/>
       </defs>
       <use xlink:href="#DejaVuSans-47"/>
       <use xlink:href="#DejaVuSans-6f" transform="translate(77.490234 0)"/>
       <use xlink:href="#DejaVuSans-76" transform="translate(138.671875 0)"/>
       <use xlink:href="#DejaVuSans-2d" transform="translate(195.226562 0)"/>
       <use xlink:href="#DejaVuSans-64" transform="translate(231.310547 0)"/>
       <use xlink:href="#DejaVuSans-61" transform="translate(294.787109 0)"/>
       <use xlink:href="#DejaVuSans-74" transform="translate(356.066406 0)"/>
       <use xlink:href="#DejaVuSans-61" transform="translate(395.275391 0)"/>
       <use xlink:href="#DejaVuSans-20" transform="translate(456.554688 0)"/>
       <use xlink:href="#DejaVuSans-6f" transform="translate(488.341797 0)"/>
       <use xlink:href="#DejaVuSans-70" transform="translate(549.523438 0)"/>
       <use xlink:href="#DejaVuSans-65" transform="translate(613 0)"/>
       <use xlink:href="#DejaVuSans-6e" transform="translate(674.523438 0)"/>
       <use xlink:href="#DejaVuSans-6e" transform="translate(737.902344 0)"/>
       <use xlink:href="#DejaVuSans-65" transform="translate(801.28125 0)"/>
       <use xlink:href="#DejaVuSans-73" transform="translate(862.804688 0)"/>
       <use xlink:href="#DejaVuSans-73" transform="translate(914.904297 0)"/>
      </g>
     </g>
    </g>
    <g id="ytick_2">
     <g id="line2d_5">
      <g>
       <use xlink:href="#m09adb963a1" x="110.901563" y="272.557969" style="fill: #222222; stroke: #222222; stroke-width: 0.8"/>
      </g>
     </g>
     <g id="text_5">
      <!-- Risk exposure -->
      <g style="fill: #222222" transform="translate(34.046875 276.357187) scale(0.1 -0.1)">
       <defs>
        <path id="DejaVuSans-52" d="M 2841 2188 
Q 3044 2119 3236 1894 
Q 3428 1669 3622 1275 
L 4263 0 
L 3584 0 
L 2988 1197 
Q 2756 1666 2539 1819 
Q 2322 1972 1947 1972 
L 1259 1972 
L 1259 0 
L 628 0 
L 628 4666 
L 2053 4666 
Q 2853 4666 3247 4331 
Q 3641 3997 3641 3322 
Q 3641 2881 3436 2590 
Q 3231 2300 2841 2188 
z
M 1259 4147 
L 1259 2491 
L 2053 2491 
Q 2509 2491 2742 2702 
Q 2975 2913 2975 3322 
Q 2975 3731 2742 3939 
Q 2509 4147 2053 4147 
L 1259 4147 
z
" transform="scale(0.015625)"/>
        <path id="DejaVuSans-6b" d="M 581 4863 
L 1159 4863 
L 1159 1991 
L 2875 3500 
L 3609 3500 
L 1753 1863 
L 3688 0 
L 2938 0 
L 1159 1709 
L 1159 0 
L 581 0 
L 581 4863 
z
" transform="scale(0.015625)"/>
       </defs>
       <use xlink:href="#DejaVuSans-52"/>
       <use xlink:href="#DejaVuSans-69" transform="translate(69.482422 0)"/>
       <use xlink:href="#DejaVuSans-73" transform="translate(97.265625 0)"/>
       <use xlink:href="#DejaVuSans-6b" transform="translate(149.365234 0)"/>
       <use xlink:href="#DejaVuSans-20" transform="translate(207.275391 0)"/>
       <use xlink:href="#DejaVuSans-65" transform="translate(239.0625 0)"/>
       <use xlink:href="#DejaVuSans-78" transform="translate(298.835938 0)"/>
       <use xlink:href="#DejaVuSans-70" transform="translate(358.015625 0)"/>
       <use xlink:href="#DejaVuSans-6f" transform="translate(421.492188 0)"/>
       <use xlink:href="#DejaVuSans-73" transform="translate(482.673828 0)"/>
       <use xlink:href="#DejaVuSans-75" transform="translate(534.773438 0)"/>
       <use xlink:href="#DejaVuSans-72" transform="translate(598.152344 0)"/>
       <use xlink:href="#DejaVuSans-65" transform="translate(637.015625 0)"/>
      </g>
     </g>
    </g>
    <g id="ytick_3">
     <g id="line2d_6">
      <g>
       <use xlink:href="#m09adb963a1" x="110.901563" y="217.117969" style="fill: #222222; stroke: #222222; stroke-width: 0.8"/>
      </g>
     </g>
     <g id="text_6">
      <!-- Governance base -->
      <g style="fill: #222222" transform="translate(16.554688 220.917187) scale(0.1 -0.1)">
       <defs>
        <path id="DejaVuSans-62" d="M 3116 1747 
Q 3116 2381 2855 2742 
Q 2594 3103 2138 3103 
Q 1681 3103 1420 2742 
Q 1159 2381 1159 1747 
Q 1159 1113 1420 752 
Q 1681 391 2138 391 
Q 2594 391 2855 752 
Q 3116 1113 3116 1747 
z
M 1159 2969 
Q 1341 3281 1617 3432 
Q 1894 3584 2278 3584 
Q 2916 3584 3314 3078 
Q 3713 2572 3713 1747 
Q 3713 922 3314 415 
Q 2916 -91 2278 -91 
Q 1894 -91 1617 61 
Q 1341 213 1159 525 
L 1159 0 
L 581 0 
L 581 4863 
L 1159 4863 
L 1159 2969 
z
" transform="scale(0.015625)"/>
       </defs>
       <use xlink:href="#DejaVuSans-47"/>
       <use xlink:href="#DejaVuSans-6f" transform="translate(77.490234 0)"/>
       <use xlink:href="#DejaVuSans-76" transform="translate(138.671875 0)"/>
       <use xlink:href="#DejaVuSans-65" transform="translate(197.851562 0)"/>
       <use xlink:href="#DejaVuSans-72" transform="translate(259.375 0)"/>
       <use xlink:href="#DejaVuSans-6e" transform="translate(298.738281 0)"/>
       <use xlink:href="#DejaVuSans-61" transform="translate(362.117188 0)"/>
       <use xlink:href="#DejaVuSans-6e" transform="translate(423.396484 0)"/>
       <use xlink:href="#DejaVuSans-63" transform="translate(486.775391 0)"/>
       <use xlink:href="#DejaVuSans-65" transform="translate(541.755859 0)"/>
       <use xlink:href="#DejaVuSans-20" transform="translate(603.279297 0)"/>
       <use xlink:href="#DejaVuSans-62" transform="translate(635.066406 0)"/>
       <use xlink:href="#DejaVuSans-61" transform="translate(698.542969 0)"/>
       <use xlink:href="#DejaVuSans-73" transform="translate(759.822266 0)"/>
       <use xlink:href="#DejaVuSans-65" transform="translate(811.921875 0)"/>
      </g>
     </g>
    </g>
    <g id="ytick_4">
     <g id="line2d_7">
      <g>
       <use xlink:href="#m09adb963a1" x="110.901563" y="161.677969" style="fill: #222222; stroke: #222222; stroke-width: 0.8"/>
      </g>
     </g>
     <g id="text_7">
      <!-- A-index base -->
      <g style="fill: #222222" transform="translate(39.3 165.477187) scale(0.1 -0.1)">
       <use xlink:href="#DejaVuSans-41"/>
       <use xlink:href="#DejaVuSans-2d" transform="translate(66.158203 0)"/>
       <use xlink:href="#DejaVuSans-69" transform="translate(102.242188 0)"/>
       <use xlink:href="#DejaVuSans-6e" transform="translate(130.025391 0)"/>
       <use xlink:href="#DejaVuSans-64" transform="translate(193.404297 0)"/>
       <use xlink:href="#DejaVuSans-65" transform="translate(256.880859 0)"/>
       <use xlink:href="#DejaVuSans-78" transform="translate(316.654297 0)"/>
       <use xlink:href="#DejaVuSans-20" transform="translate(375.833984 0)"/>
       <use xlink:href="#DejaVuSans-62" transform="translate(407.621094 0)"/>
       <use xlink:href="#DejaVuSans-61" transform="translate(471.097656 0)"/>
       <use xlink:href="#DejaVuSans-73" transform="translate(532.376953 0)"/>
       <use xlink:href="#DejaVuSans-65" transform="translate(584.476562 0)"/>
      </g>
     </g>
    </g>
    <g id="ytick_5">
     <g id="line2d_8">
      <g>
       <use xlink:href="#m09adb963a1" x="110.901563" y="106.237969" style="fill: #222222; stroke: #222222; stroke-width: 0.8"/>
      </g>
     </g>
     <g id="text_8">
      <!-- Digital finance -->
      <g style="fill: #222222" transform="translate(31.539063 110.037187) scale(0.1 -0.1)">
       <defs>
        <path id="DejaVuSans-44" d="M 1259 4147 
L 1259 519 
L 2022 519 
Q 2988 519 3436 956 
Q 3884 1394 3884 2338 
Q 3884 3275 3436 3711 
Q 2988 4147 2022 4147 
L 1259 4147 
z
M 628 4666 
L 1925 4666 
Q 3281 4666 3915 4102 
Q 4550 3538 4550 2338 
Q 4550 1131 3912 565 
Q 3275 0 1925 0 
L 628 0 
L 628 4666 
z
" transform="scale(0.015625)"/>
        <path id="DejaVuSans-67" d="M 2906 1791 
Q 2906 2416 2648 2759 
Q 2391 3103 1925 3103 
Q 1463 3103 1205 2759 
Q 947 2416 947 1791 
Q 947 1169 1205 825 
Q 1463 481 1925 481 
Q 2391 481 2648 825 
Q 2906 1169 2906 1791 
z
M 3481 434 
Q 3481 -459 3084 -895 
Q 2688 -1331 1869 -1331 
Q 1566 -1331 1297 -1286 
Q 1028 -1241 775 -1147 
L 775 -588 
Q 1028 -725 1275 -790 
Q 1522 -856 1778 -856 
Q 2344 -856 2625 -561 
Q 2906 -266 2906 331 
L 2906 616 
Q 2728 306 2450 153 
Q 2172 0 1784 0 
Q 1141 0 747 490 
Q 353 981 353 1791 
Q 353 2603 747 3093 
Q 1141 3584 1784 3584 
Q 2172 3584 2450 3431 
Q 2728 3278 2906 2969 
L 2906 3500 
L 3481 3500 
L 3481 434 
z
" transform="scale(0.015625)"/>
        <path id="DejaVuSans-66" d="M 2375 4863 
L 2375 4384 
L 1825 4384 
Q 1516 4384 1395 4259 
Q 1275 4134 1275 3809 
L 1275 3500 
L 2222 3500 
L 2222 3053 
L 1275 3053 
L 1275 0 
L 697 0 
L 697 3053 
L 147 3053 
L 147 3500 
L 697 3500 
L 697 3744 
Q 697 4328 969 4595 
Q 1241 4863 1831 4863 
L 2375 4863 
z
" transform="scale(0.015625)"/>
       </defs>
       <use xlink:href="#DejaVuSans-44"/>
       <use xlink:href="#DejaVuSans-69" transform="translate(77.001953 0)"/>
       <use xlink:href="#DejaVuSans-67" transform="translate(104.785156 0)"/>
       <use xlink:href="#DejaVuSans-69" transform="translate(168.261719 0)"/>
       <use xlink:href="#DejaVuSans-74" transform="translate(196.044922 0)"/>
       <use xlink:href="#DejaVuSans-61" transform="translate(235.253906 0)"/>
       <use xlink:href="#DejaVuSans-6c" transform="translate(296.533203 0)"/>
       <use xlink:href="#DejaVuSans-20" transform="translate(324.316406 0)"/>
       <use xlink:href="#DejaVuSans-66" transform="translate(356.103516 0)"/>
       <use xlink:href="#DejaVuSans-69" transform="translate(391.308594 0)"/>
       <use xlink:href="#DejaVuSans-6e" transform="translate(419.091797 0)"/>
       <use xlink:href="#DejaVuSans-61" transform="translate(482.470703 0)"/>
       <use xlink:href="#DejaVuSans-6e" transform="translate(543.75 0)"/>
       <use xlink:href="#DejaVuSans-63" transform="translate(607.128906 0)"/>
       <use xlink:href="#DejaVuSans-65" transform="translate(662.109375 0)"/>
      </g>
     </g>
    </g>
    <g id="ytick_6">
     <g id="line2d_9">
      <g>
       <use xlink:href="#m09adb963a1" x="110.901563" y="50.797969" style="fill: #222222; stroke: #222222; stroke-width: 0.8"/>
      </g>
     </g>
     <g id="text_9">
      <!-- Digital economy -->
      <g style="fill: #222222" transform="translate(22.40625 54.597187) scale(0.1 -0.1)">
       <use xlink:href="#DejaVuSans-44"/>
       <use xlink:href="#DejaVuSans-69" transform="translate(77.001953 0)"/>
       <use xlink:href="#DejaVuSans-67" transform="translate(104.785156 0)"/>
       <use xlink:href="#DejaVuSans-69" transform="translate(168.261719 0)"/>
       <use xlink:href="#DejaVuSans-74" transform="translate(196.044922 0)"/>
       <use xlink:href="#DejaVuSans-61" transform="translate(235.253906 0)"/>
       <use xlink:href="#DejaVuSans-6c" transform="translate(296.533203 0)"/>
       <use xlink:href="#DejaVuSans-20" transform="translate(324.316406 0)"/>
       <use xlink:href="#DejaVuSans-65" transform="translate(356.103516 0)"/>
       <use xlink:href="#DejaVuSans-63" transform="translate(417.626953 0)"/>
       <use xlink:href="#DejaVuSans-6f" transform="translate(472.607422 0)"/>
       <use xlink:href="#DejaVuSans-6e" transform="translate(533.789062 0)"/>
       <use xlink:href="#DejaVuSans-6f" transform="translate(597.167969 0)"/>
       <use xlink:href="#DejaVuSans-6d" transform="translate(658.349609 0)"/>
       <use xlink:href="#DejaVuSans-79" transform="translate(755.761719 0)"/>
      </g>
     </g>
    </g>
   </g>
   <g id="patch_3">
    <path d="M 110.901563 355.717969 
L 110.901563 23.077969 
" style="fill: none; stroke: #222222; stroke-width: 0.8; stroke-linejoin: miter; stroke-linecap: square"/>
   </g>
   <g id="patch_4">
    <path d="M 110.901563 355.717969 
L 668.901562 355.717969 
" style="fill: none; stroke: #222222; stroke-width: 0.8; stroke-linejoin: miter; stroke-linecap: square"/>
   </g>
   <g id="text_10">
    <!-- +0.49 -->
    <g transform="translate(191.643438 69.627919) scale(0.08 -0.08)">
     <defs>
      <path id="DejaVuSans-2b" d="M 2944 4013 
L 2944 2272 
L 4684 2272 
L 4684 1741 
L 2944 1741 
L 2944 0 
L 2419 0 
L 2419 1741 
L 678 1741 
L 678 2272 
L 2419 2272 
L 2419 4013 
L 2944 4013 
z
" transform="scale(0.015625)"/>
      <path id="DejaVuSans-30" d="M 2034 4250 
Q 1547 4250 1301 3770 
Q 1056 3291 1056 2328 
Q 1056 1369 1301 889 
Q 1547 409 2034 409 
Q 2525 409 2770 889 
Q 3016 1369 3016 2328 
Q 3016 3291 2770 3770 
Q 2525 4250 2034 4250 
z
M 2034 4750 
Q 2819 4750 3233 4129 
Q 3647 3509 3647 2328 
Q 3647 1150 3233 529 
Q 2819 -91 2034 -91 
Q 1250 -91 836 529 
Q 422 1150 422 2328 
Q 422 3509 836 4129 
Q 1250 4750 2034 4750 
z
" transform="scale(0.015625)"/>
      <path id="DejaVuSans-2e" d="M 684 794 
L 1344 794 
L 1344 0 
L 684 0 
L 684 794 
z
" transform="scale(0.015625)"/>
      <path id="DejaVuSans-34" d="M 2419 4116 
L 825 1625 
L 2419 1625 
L 2419 4116 
z
M 2253 4666 
L 3047 4666 
L 3047 1625 
L 3713 1625 
L 3713 1100 
L 3047 1100 
L 3047 0 
L 2419 0 
L 2419 1100 
L 313 1100 
L 313 1709 
L 2253 4666 
z
" transform="scale(0.015625)"/>
      <path id="DejaVuSans-39" d="M 703 97 
L 703 672 
Q 941 559 1184 500 
Q 1428 441 1663 441 
Q 2288 441 2617 861 
Q 2947 1281 2994 2138 
Q 2813 1869 2534 1725 
Q 2256 1581 1919 1581 
Q 1219 1581 811 2004 
Q 403 2428 403 3163 
Q 403 3881 828 4315 
Q 1253 4750 1959 4750 
Q 2769 4750 3195 4129 
Q 3622 3509 3622 2328 
Q 3622 1225 3098 567 
Q 2575 -91 1691 -91 
Q 1453 -91 1209 -44 
Q 966 3 703 97 
z
M 1959 2075 
Q 2384 2075 2632 2365 
Q 2881 2656 2881 3163 
Q 2881 3666 2632 3958 
Q 2384 4250 1959 4250 
Q 1534 4250 1286 3958 
Q 1038 3666 1038 3163 
Q 1038 2656 1286 2365 
Q 1534 2075 1959 2075 
z
" transform="scale(0.015625)"/>
     </defs>
     <use xlink:href="#DejaVuSans-2b"/>
     <use xlink:href="#DejaVuSans-30" transform="translate(83.789062 0)"/>
     <use xlink:href="#DejaVuSans-2e" transform="translate(147.412109 0)"/>
     <use xlink:href="#DejaVuSans-34" transform="translate(179.199219 0)"/>
     <use xlink:href="#DejaVuSans-39" transform="translate(242.822266 0)"/>
    </g>
   </g>
   <g id="text_11">
    <!-- +0.11 -->
    <g transform="translate(377.643438 69.627919) scale(0.08 -0.08)">
     <defs>
      <path id="DejaVuSans-31" d="M 794 531 
L 1825 531 
L 1825 4091 
L 703 3866 
L 703 4441 
L 1819 4666 
L 2450 4666 
L 2450 531 
L 3481 531 
L 3481 0 
L 794 0 
L 794 531 
z
" transform="scale(0.015625)"/>
     </defs>
     <use xlink:href="#DejaVuSans-2b"/>
     <use xlink:href="#DejaVuSans-30" transform="translate(83.789062 0)"/>
     <use xlink:href="#DejaVuSans-2e" transform="translate(147.412109 0)"/>
     <use xlink:href="#DejaVuSans-31" transform="translate(179.199219 0)"/>
     <use xlink:href="#DejaVuSans-31" transform="translate(242.822266 0)"/>
    </g>
   </g>
   <g id="text_12">
    <!-- -0.11 -->
    <g transform="translate(565.552187 69.627919) scale(0.08 -0.08)">
     <use xlink:href="#DejaVuSans-2d"/>
     <use xlink:href="#DejaVuSans-30" transform="translate(36.083984 0)"/>
     <use xlink:href="#DejaVuSans-2e" transform="translate(99.707031 0)"/>
     <use xlink:href="#DejaVuSans-31" transform="translate(131.494141 0)"/>
     <use xlink:href="#DejaVuSans-31" transform="translate(195.117188 0)"/>
    </g>
   </g>
   <g id="text_13">
    <!-- +0.03 -->
    <g transform="translate(191.643438 125.067919) scale(0.08 -0.08)">
     <defs>
      <path id="DejaVuSans-33" d="M 2597 2516 
Q 3050 2419 3304 2112 
Q 3559 1806 3559 1356 
Q 3559 666 3084 287 
Q 2609 -91 1734 -91 
Q 1441 -91 1130 -33 
Q 819 25 488 141 
L 488 750 
Q 750 597 1062 519 
Q 1375 441 1716 441 
Q 2309 441 2620 675 
Q 2931 909 2931 1356 
Q 2931 1769 2642 2001 
Q 2353 2234 1838 2234 
L 1294 2234 
L 1294 2753 
L 1863 2753 
Q 2328 2753 2575 2939 
Q 2822 3125 2822 3475 
Q 2822 3834 2567 4026 
Q 2313 4219 1838 4219 
Q 1578 4219 1281 4162 
Q 984 4106 628 3988 
L 628 4550 
Q 988 4650 1302 4700 
Q 1616 4750 1894 4750 
Q 2613 4750 3031 4423 
Q 3450 4097 3450 3541 
Q 3450 3153 3228 2886 
Q 3006 2619 2597 2516 
z
" transform="scale(0.015625)"/>
     </defs>
     <use xlink:href="#DejaVuSans-2b"/>
     <use xlink:href="#DejaVuSans-30" transform="translate(83.789062 0)"/>
     <use xlink:href="#DejaVuSans-2e" transform="translate(147.412109 0)"/>
     <use xlink:href="#DejaVuSans-30" transform="translate(179.199219 0)"/>
     <use xlink:href="#DejaVuSans-33" transform="translate(242.822266 0)"/>
    </g>
   </g>
   <g id="text_14">
    <!-- +0.01 -->
    <g transform="translate(377.643438 125.067919) scale(0.08 -0.08)">
     <use xlink:href="#DejaVuSans-2b"/>
     <use xlink:href="#DejaVuSans-30" transform="translate(83.789062 0)"/>
     <use xlink:href="#DejaVuSans-2e" transform="translate(147.412109 0)"/>
     <use xlink:href="#DejaVuSans-30" transform="translate(179.199219 0)"/>
     <use xlink:href="#DejaVuSans-31" transform="translate(242.822266 0)"/>
    </g>
   </g>
   <g id="text_15">
    <!-- -0.01 -->
    <g transform="translate(565.552187 125.067919) scale(0.08 -0.08)">
     <use xlink:href="#DejaVuSans-2d"/>
     <use xlink:href="#DejaVuSans-30" transform="translate(36.083984 0)"/>
     <use xlink:href="#DejaVuSans-2e" transform="translate(99.707031 0)"/>
     <use xlink:href="#DejaVuSans-30" transform="translate(131.494141 0)"/>
     <use xlink:href="#DejaVuSans-31" transform="translate(195.117188 0)"/>
    </g>
   </g>
   <g id="text_16">
    <!-- +0.70 -->
    <g transform="translate(191.643438 180.507919) scale(0.08 -0.08)">
     <defs>
      <path id="DejaVuSans-37" d="M 525 4666 
L 3525 4666 
L 3525 4397 
L 1831 0 
L 1172 0 
L 2766 4134 
L 525 4134 
L 525 4666 
z
" transform="scale(0.015625)"/>
     </defs>
     <use xlink:href="#DejaVuSans-2b"/>
     <use xlink:href="#DejaVuSans-30" transform="translate(83.789062 0)"/>
     <use xlink:href="#DejaVuSans-2e" transform="translate(147.412109 0)"/>
     <use xlink:href="#DejaVuSans-37" transform="translate(179.199219 0)"/>
     <use xlink:href="#DejaVuSans-30" transform="translate(242.822266 0)"/>
    </g>
   </g>
   <g id="text_17">
    <!-- +0.20 -->
    <g transform="translate(377.643438 180.507919) scale(0.08 -0.08)">
     <defs>
      <path id="DejaVuSans-32" d="M 1228 531 
L 3431 531 
L 3431 0 
L 469 0 
L 469 531 
Q 828 903 1448 1529 
Q 2069 2156 2228 2338 
Q 2531 2678 2651 2914 
Q 2772 3150 2772 3378 
Q 2772 3750 2511 3984 
Q 2250 4219 1831 4219 
Q 1534 4219 1204 4116 
Q 875 4013 500 3803 
L 500 4441 
Q 881 4594 1212 4672 
Q 1544 4750 1819 4750 
Q 2544 4750 2975 4387 
Q 3406 4025 3406 3419 
Q 3406 3131 3298 2873 
Q 3191 2616 2906 2266 
Q 2828 2175 2409 1742 
Q 1991 1309 1228 531 
z
" transform="scale(0.015625)"/>
     </defs>
     <use xlink:href="#DejaVuSans-2b"/>
     <use xlink:href="#DejaVuSans-30" transform="translate(83.789062 0)"/>
     <use xlink:href="#DejaVuSans-2e" transform="translate(147.412109 0)"/>
     <use xlink:href="#DejaVuSans-32" transform="translate(179.199219 0)"/>
     <use xlink:href="#DejaVuSans-30" transform="translate(242.822266 0)"/>
    </g>
   </g>
   <g id="text_18">
    <!-- -0.18 -->
    <g transform="translate(565.552187 180.507919) scale(0.08 -0.08)">
     <defs>
      <path id="DejaVuSans-38" d="M 2034 2216 
Q 1584 2216 1326 1975 
Q 1069 1734 1069 1313 
Q 1069 891 1326 650 
Q 1584 409 2034 409 
Q 2484 409 2743 651 
Q 3003 894 3003 1313 
Q 3003 1734 2745 1975 
Q 2488 2216 2034 2216 
z
M 1403 2484 
Q 997 2584 770 2862 
Q 544 3141 544 3541 
Q 544 4100 942 4425 
Q 1341 4750 2034 4750 
Q 2731 4750 3128 4425 
Q 3525 4100 3525 3541 
Q 3525 3141 3298 2862 
Q 3072 2584 2669 2484 
Q 3125 2378 3379 2068 
Q 3634 1759 3634 1313 
Q 3634 634 3220 271 
Q 2806 -91 2034 -91 
Q 1263 -91 848 271 
Q 434 634 434 1313 
Q 434 1759 690 2068 
Q 947 2378 1403 2484 
z
M 1172 3481 
Q 1172 3119 1398 2916 
Q 1625 2713 2034 2713 
Q 2441 2713 2670 2916 
Q 2900 3119 2900 3481 
Q 2900 3844 2670 4047 
Q 2441 4250 2034 4250 
Q 1625 4250 1398 4047 
Q 1172 3844 1172 3481 
z
" transform="scale(0.015625)"/>
     </defs>
     <use xlink:href="#DejaVuSans-2d"/>
     <use xlink:href="#DejaVuSans-30" transform="translate(36.083984 0)"/>
     <use xlink:href="#DejaVuSans-2e" transform="translate(99.707031 0)"/>
     <use xlink:href="#DejaVuSans-31" transform="translate(131.494141 0)"/>
     <use xlink:href="#DejaVuSans-38" transform="translate(195.117188 0)"/>
    </g>
   </g>
   <g id="text_19">
    <!-- -0.16 -->
    <g transform="translate(193.552188 235.947919) scale(0.08 -0.08)">
     <defs>
      <path id="DejaVuSans-36" d="M 2113 2584 
Q 1688 2584 1439 2293 
Q 1191 2003 1191 1497 
Q 1191 994 1439 701 
Q 1688 409 2113 409 
Q 2538 409 2786 701 
Q 3034 994 3034 1497 
Q 3034 2003 2786 2293 
Q 2538 2584 2113 2584 
z
M 3366 4563 
L 3366 3988 
Q 3128 4100 2886 4159 
Q 2644 4219 2406 4219 
Q 1781 4219 1451 3797 
Q 1122 3375 1075 2522 
Q 1259 2794 1537 2939 
Q 1816 3084 2150 3084 
Q 2853 3084 3261 2657 
Q 3669 2231 3669 1497 
Q 3669 778 3244 343 
Q 2819 -91 2113 -91 
Q 1303 -91 875 529 
Q 447 1150 447 2328 
Q 447 3434 972 4092 
Q 1497 4750 2381 4750 
Q 2619 4750 2861 4703 
Q 3103 4656 3366 4563 
z
" transform="scale(0.015625)"/>
     </defs>
     <use xlink:href="#DejaVuSans-2d"/>
     <use xlink:href="#DejaVuSans-30" transform="translate(36.083984 0)"/>
     <use xlink:href="#DejaVuSans-2e" transform="translate(99.707031 0)"/>
     <use xlink:href="#DejaVuSans-31" transform="translate(131.494141 0)"/>
     <use xlink:href="#DejaVuSans-36" transform="translate(195.117188 0)"/>
    </g>
   </g>
   <g id="text_20">
    <!-- -0.03 -->
    <g transform="translate(379.552188 235.947919) scale(0.08 -0.08)">
     <use xlink:href="#DejaVuSans-2d"/>
     <use xlink:href="#DejaVuSans-30" transform="translate(36.083984 0)"/>
     <use xlink:href="#DejaVuSans-2e" transform="translate(99.707031 0)"/>
     <use xlink:href="#DejaVuSans-30" transform="translate(131.494141 0)"/>
     <use xlink:href="#DejaVuSans-33" transform="translate(195.117188 0)"/>
    </g>
   </g>
   <g id="text_21">
    <!-- +0.03 -->
    <g transform="translate(563.643438 235.947919) scale(0.08 -0.08)">
     <use xlink:href="#DejaVuSans-2b"/>
     <use xlink:href="#DejaVuSans-30" transform="translate(83.789062 0)"/>
     <use xlink:href="#DejaVuSans-2e" transform="translate(147.412109 0)"/>
     <use xlink:href="#DejaVuSans-30" transform="translate(179.199219 0)"/>
     <use xlink:href="#DejaVuSans-33" transform="translate(242.822266 0)"/>
    </g>
   </g>
   <g id="text_22">
    <!-- -0.65 -->
    <g transform="translate(193.552188 291.387919) scale(0.08 -0.08)">
     <defs>
      <path id="DejaVuSans-35" d="M 691 4666 
L 3169 4666 
L 3169 4134 
L 1269 4134 
L 1269 2991 
Q 1406 3038 1543 3061 
Q 1681 3084 1819 3084 
Q 2600 3084 3056 2656 
Q 3513 2228 3513 1497 
Q 3513 744 3044 326 
Q 2575 -91 1722 -91 
Q 1428 -91 1123 -41 
Q 819 9 494 109 
L 494 744 
Q 775 591 1075 516 
Q 1375 441 1709 441 
Q 2250 441 2565 725 
Q 2881 1009 2881 1497 
Q 2881 1984 2565 2268 
Q 2250 2553 1709 2553 
Q 1456 2553 1204 2497 
Q 953 2441 691 2322 
L 691 4666 
z
" transform="scale(0.015625)"/>
     </defs>
     <use xlink:href="#DejaVuSans-2d"/>
     <use xlink:href="#DejaVuSans-30" transform="translate(36.083984 0)"/>
     <use xlink:href="#DejaVuSans-2e" transform="translate(99.707031 0)"/>
     <use xlink:href="#DejaVuSans-36" transform="translate(131.494141 0)"/>
     <use xlink:href="#DejaVuSans-35" transform="translate(195.117188 0)"/>
    </g>
   </g>
   <g id="text_23">
    <!-- -0.15 -->
    <g transform="translate(379.552188 291.387919) scale(0.08 -0.08)">
     <use xlink:href="#DejaVuSans-2d"/>
     <use xlink:href="#DejaVuSans-30" transform="translate(36.083984 0)"/>
     <use xlink:href="#DejaVuSans-2e" transform="translate(99.707031 0)"/>
     <use xlink:href="#DejaVuSans-31" transform="translate(131.494141 0)"/>
     <use xlink:href="#DejaVuSans-35" transform="translate(195.117188 0)"/>
    </g>
   </g>
   <g id="text_24">
    <!-- +0.16 -->
    <g transform="translate(563.643438 291.387919) scale(0.08 -0.08)">
     <use xlink:href="#DejaVuSans-2b"/>
     <use xlink:href="#DejaVuSans-30" transform="translate(83.789062 0)"/>
     <use xlink:href="#DejaVuSans-2e" transform="translate(147.412109 0)"/>
     <use xlink:href="#DejaVuSans-31" transform="translate(179.199219 0)"/>
     <use xlink:href="#DejaVuSans-36" transform="translate(242.822266 0)"/>
    </g>
   </g>
   <g id="text_25">
    <!-- +3.78 -->
    <g transform="translate(191.643438 346.827919) scale(0.08 -0.08)">
     <use xlink:href="#DejaVuSans-2b"/>
     <use xlink:href="#DejaVuSans-33" transform="translate(83.789062 0)"/>
     <use xlink:href="#DejaVuSans-2e" transform="translate(147.412109 0)"/>
     <use xlink:href="#DejaVuSans-37" transform="translate(179.199219 0)"/>
     <use xlink:href="#DejaVuSans-38" transform="translate(242.822266 0)"/>
    </g>
   </g>
   <g id="text_26">
    <!-- +1.21 -->
    <g transform="translate(377.643438 346.827919) scale(0.08 -0.08)">
     <use xlink:href="#DejaVuSans-2b"/>
     <use xlink:href="#DejaVuSans-31" transform="translate(83.789062 0)"/>
     <use xlink:href="#DejaVuSans-2e" transform="translate(147.412109 0)"/>
     <use xlink:href="#DejaVuSans-32" transform="translate(179.199219 0)"/>
     <use xlink:href="#DejaVuSans-31" transform="translate(242.822266 0)"/>
    </g>
   </g>
   <g id="text_27">
    <!-- -1.16 -->
    <g transform="translate(565.552187 346.827919) scale(0.08 -0.08)">
     <use xlink:href="#DejaVuSans-2d"/>
     <use xlink:href="#DejaVuSans-31" transform="translate(36.083984 0)"/>
     <use xlink:href="#DejaVuSans-2e" transform="translate(99.707031 0)"/>
     <use xlink:href="#DejaVuSans-31" transform="translate(131.494141 0)"/>
     <use xlink:href="#DejaVuSans-36" transform="translate(195.117188 0)"/>
    </g>
   </g>
   <g id="text_28">
    <!-- Figure 7-10  Heterogeneity evidence scorecard -->
    <g transform="translate(237.415625 17.077969) scale(0.13 -0.13)">
     <defs>
      <path id="DejaVuSans-46" d="M 628 4666 
L 3309 4666 
L 3309 4134 
L 1259 4134 
L 1259 2759 
L 3109 2759 
L 3109 2228 
L 1259 2228 
L 1259 0 
L 628 0 
L 628 4666 
z
" transform="scale(0.015625)"/>
      <path id="DejaVuSans-48" d="M 628 4666 
L 1259 4666 
L 1259 2753 
L 3553 2753 
L 3553 4666 
L 4184 4666 
L 4184 0 
L 3553 0 
L 3553 2222 
L 1259 2222 
L 1259 0 
L 628 0 
L 628 4666 
z
" transform="scale(0.015625)"/>
     </defs>
     <use xlink:href="#DejaVuSans-46"/>
     <use xlink:href="#DejaVuSans-69" transform="translate(50.269531 0)"/>
     <use xlink:href="#DejaVuSans-67" transform="translate(78.052734 0)"/>
     <use xlink:href="#DejaVuSans-75" transform="translate(141.529297 0)"/>
     <use xlink:href="#DejaVuSans-72" transform="translate(204.908203 0)"/>
     <use xlink:href="#DejaVuSans-65" transform="translate(243.771484 0)"/>
     <use xlink:href="#DejaVuSans-20" transform="translate(305.294922 0)"/>
     <use xlink:href="#DejaVuSans-37" transform="translate(337.082031 0)"/>
     <use xlink:href="#DejaVuSans-2d" transform="translate(400.705078 0)"/>
     <use xlink:href="#DejaVuSans-31" transform="translate(436.789062 0)"/>
     <use xlink:href="#DejaVuSans-30" transform="translate(500.412109 0)"/>
     <use xlink:href="#DejaVuSans-20" transform="translate(564.035156 0)"/>
     <use xlink:href="#DejaVuSans-20" transform="translate(595.822266 0)"/>
     <use xlink:href="#DejaVuSans-48" transform="translate(627.609375 0)"/>
     <use xlink:href="#DejaVuSans-65" transform="translate(702.804688 0)"/>
     <use xlink:href="#DejaVuSans-74" transform="translate(764.328125 0)"/>
     <use xlink:href="#DejaVuSans-65" transform="translate(803.537109 0)"/>
     <use xlink:href="#DejaVuSans-72" transform="translate(865.060547 0)"/>
     <use xlink:href="#DejaVuSans-6f" transform="translate(903.923828 0)"/>
     <use xlink:href="#DejaVuSans-67" transform="translate(965.105469 0)"/>
     <use xlink:href="#DejaVuSans-65" transform="translate(1028.582031 0)"/>
     <use xlink:href="#DejaVuSans-6e" transform="translate(1090.105469 0)"/>
     <use xlink:href="#DejaVuSans-65" transform="translate(1153.484375 0)"/>
     <use xlink:href="#DejaVuSans-69" transform="translate(1215.007812 0)"/>
     <use xlink:href="#DejaVuSans-74" transform="translate(1242.791016 0)"/>
     <use xlink:href="#DejaVuSans-79" transform="translate(1282 0)"/>
     <use xlink:href="#DejaVuSans-20" transform="translate(1341.179688 0)"/>
     <use xlink:href="#DejaVuSans-65" transform="translate(1372.966797 0)"/>
     <use xlink:href="#DejaVuSans-76" transform="translate(1434.490234 0)"/>
     <use xlink:href="#DejaVuSans-69" transform="translate(1493.669922 0)"/>
     <use xlink:href="#DejaVuSans-64" transform="translate(1521.453125 0)"/>
     <use xlink:href="#DejaVuSans-65" transform="translate(1584.929688 0)"/>
     <use xlink:href="#DejaVuSans-6e" transform="translate(1646.453125 0)"/>
     <use xlink:href="#DejaVuSans-63" transform="translate(1709.832031 0)"/>
     <use xlink:href="#DejaVuSans-65" transform="translate(1764.8125 0)"/>
     <use xlink:href="#DejaVuSans-20" transform="translate(1826.335938 0)"/>
     <use xlink:href="#DejaVuSans-73" transform="translate(1858.123047 0)"/>
     <use xlink:href="#DejaVuSans-63" transform="translate(1910.222656 0)"/>
     <use xlink:href="#DejaVuSans-6f" transform="translate(1965.203125 0)"/>
     <use xlink:href="#DejaVuSans-72" transform="translate(2026.384766 0)"/>
     <use xlink:href="#DejaVuSans-65" transform="translate(2065.248047 0)"/>
     <use xlink:href="#DejaVuSans-63" transform="translate(2126.771484 0)"/>
     <use xlink:href="#DejaVuSans-61" transform="translate(2181.751953 0)"/>
     <use xlink:href="#DejaVuSans-72" transform="translate(2243.03125 0)"/>
     <use xlink:href="#DejaVuSans-64" transform="translate(2282.394531 0)"/>
    </g>
   </g>
  </g>
 </g>
 <defs>
  <clipPath id="p61cebbcf45">
   <rect x="110.901563" y="23.077969" width="558" height="332.64"/>
  </clipPath>
 </defs>
</svg>
