<?xml version="1.0" encoding="utf-8" standalone="no"?>
<!DOCTYPE svg PUBLIC "-//W3C//DTD SVG 1.1//EN"
  "http://www.w3.org/Graphics/SVG/1.1/DTD/svg11.dtd">
<svg xmlns:xlink="http://www.w3.org/1999/xlink" width="784.8pt" height="568.529531pt" viewBox="0 0 784.8 568.529531" xmlns="http://www.w3.org/2000/svg" version="1.1">
 <metadata>
  <rdf:RDF xmlns:dc="http://purl.org/dc/elements/1.1/" xmlns:cc="http://creativecommons.org/ns#" xmlns:rdf="http://www.w3.org/1999/02/22-rdf-syntax-ns#">
   <cc:Work>
    <dc:type rdf:resource="http://purl.org/dc/dcmitype/StillImage"/>
    <dc:date>2026-04-09T09:39:34.887354</dc:date>
    <dc:format>image/svg+xml</dc:format>
    <dc:creator>
     <cc:Agent>
      <dc:title>Matplotlib v3.10.8, https://matplotlib.org/</dc:title>
     </cc:Agent>
    </dc:creator>
   </cc:Work>
  </rdf:RDF>
 </metadata>
 <defs>
  <style type="text/css">*{stroke-linejoin: round; stroke-linecap: butt}</style>
 </defs>
 <g id="figure_1">
  <g id="patch_1">
   <path d="M 0 568.529531 
L 784.8 568.529531 
L 784.8 0 
L 0 0 
z
" style="fill: #ffffff"/>
  </g>
  <g id="axes_1">
   <g id="patch_2">
    <path d="M 53.424 146.58615 
L 84.24 146.58615 
L 84.24 127.57239 
L 53.424 127.57239 
z
" clip-path="url(#p3933e0112b)" style="fill: #506d84; opacity: 0.9; stroke: #506d84; stroke-linejoin: miter"/>
   </g>
   <g id="patch_3">
    <path d="M 53.424 210.252394 
L 84.24 210.252394 
L 84.24 191.238634 
L 53.424 191.238634 
z
" clip-path="url(#p3933e0112b)" style="fill: #506d84; opacity: 0.9; stroke: #506d84; stroke-linejoin: miter"/>
   </g>
   <g id="patch_4">
    <path d="M 53.424 266.685142 
L 84.24 266.685142 
L 84.24 247.671382 
L 53.424 247.671382 
z
" clip-path="url(#p3933e0112b)" style="fill: #506d84; opacity: 0.9; stroke: #506d84; stroke-linejoin: miter"/>
   </g>
   <g id="patch_5">
    <path d="M 53.424 316.788581 
L 84.24 316.788581 
L 84.24 297.774821 
L 53.424 297.774821 
z
" clip-path="url(#p3933e0112b)" style="fill: #506d84; opacity: 0.9; stroke: #506d84; stroke-linejoin: miter"/>
   </g>
   <g id="patch_6">
    <path d="M 53.424 361.725237 
L 84.24 361.725237 
L 84.24 342.711477 
L 53.424 342.711477 
z
" clip-path="url(#p3933e0112b)" style="fill: #506d84; opacity: 0.9; stroke: #506d84; stroke-linejoin: miter"/>
   </g>
   <g id="patch_7">
    <path d="M 53.424 401.236772 
L 84.24 401.236772 
L 84.24 382.223012 
L 53.424 382.223012 
z
" clip-path="url(#p3933e0112b)" style="fill: #506d84; opacity: 0.9; stroke: #506d84; stroke-linejoin: miter"/>
   </g>
   <g id="patch_8">
    <path d="M 53.424 437.519068 
L 84.24 437.519068 
L 84.24 418.505308 
L 53.424 418.505308 
z
" clip-path="url(#p3933e0112b)" style="fill: #506d84; opacity: 0.9; stroke: #506d84; stroke-linejoin: miter"/>
   </g>
   <g id="patch_9">
    <path d="M 53.424 470.830463 
L 84.24 470.830463 
L 84.24 451.816703 
L 53.424 451.816703 
z
" clip-path="url(#p3933e0112b)" style="fill: #506d84; opacity: 0.9; stroke: #506d84; stroke-linejoin: miter"/>
   </g>
   <g id="patch_10">
    <path d="M 53.424 503.108503 
L 84.24 503.108503 
L 84.24 484.094743 
L 53.424 484.094743 
z
" clip-path="url(#p3933e0112b)" style="fill: #506d84; opacity: 0.9; stroke: #506d84; stroke-linejoin: miter"/>
   </g>
   <g id="patch_11">
    <path d="M 53.424 533.06149 
L 84.24 533.06149 
L 84.24 514.04773 
L 53.424 514.04773 
z
" clip-path="url(#p3933e0112b)" style="fill: #506d84; opacity: 0.9; stroke: #506d84; stroke-linejoin: miter"/>
   </g>
   <g id="patch_12">
    <path d="M 669.744 165.209531 
L 708.264 165.209531 
L 708.264 133.519931 
L 669.744 133.519931 
z
" clip-path="url(#p3933e0112b)" style="fill: #355c7d; opacity: 0.95; stroke: #355c7d; stroke-linejoin: miter"/>
   </g>
   <g id="patch_13">
    <path d="M 669.744 313.094331 
L 708.264 313.094331 
L 708.264 281.404731 
L 669.744 281.404731 
z
" clip-path="url(#p3933e0112b)" style="fill: #7a4e2d; opacity: 0.95; stroke: #7a4e2d; stroke-linejoin: miter"/>
   </g>
   <g id="patch_14">
    <path d="M 669.744 460.979131 
L 708.264 460.979131 
L 708.264 429.289531 
L 669.744 429.289531 
z
" clip-path="url(#p3933e0112b)" style="fill: #6c757d; opacity: 0.95; stroke: #6c757d; stroke-linejoin: miter"/>
   </g>
   <g id="text_1">
    <!-- T0 -->
    <g transform="translate(88.092 139.630208) scale(0.09 -0.09)">
     <defs>
      <path id="NotoSansCJKjp-Regular-54" d="M 1619 0 
L 2214 0 
L 2214 4192 
L 3635 4192 
L 3635 4691 
L 198 4691 
L 198 4192 
L 1619 4192 
L 1619 0 
z
" transform="scale(0.015625)"/>
      <path id="NotoSansCJKjp-Regular-30" d="M 1779 -83 
C 2669 -83 3238 723 3238 2362 
C 3238 3987 2669 4774 1779 4774 
C 883 4774 320 3987 320 2362 
C 320 723 883 -83 1779 -83 
z
M 1779 390 
C 1248 390 883 986 883 2362 
C 883 3731 1248 4314 1779 4314 
C 2310 4314 2675 3731 2675 2362 
C 2675 986 2310 390 1779 390 
z
" transform="scale(0.015625)"/>
     </defs>
     <use xlink:href="#NotoSansCJKjp-Regular-54"/>
     <use xlink:href="#NotoSansCJKjp-Regular-30" transform="translate(59.899994 0)"/>
    </g>
   </g>
   <g id="text_2">
    <!-- T1 -->
    <g transform="translate(88.092 203.296451) scale(0.09 -0.09)">
     <defs>
      <path id="NotoSansCJKjp-Regular-31" d="M 563 0 
L 3136 0 
L 3136 486 
L 2195 486 
L 2195 4691 
L 1747 4691 
C 1491 4544 1190 4435 774 4358 
L 774 3987 
L 1613 3987 
L 1613 486 
L 563 486 
L 563 0 
z
" transform="scale(0.015625)"/>
     </defs>
     <use xlink:href="#NotoSansCJKjp-Regular-54"/>
     <use xlink:href="#NotoSansCJKjp-Regular-31" transform="translate(59.899994 0)"/>
    </g>
   </g>
   <g id="text_3">
    <!-- T2 -->
    <g transform="translate(88.092 259.729199) scale(0.09 -0.09)">
     <defs>
      <path id="NotoSansCJKjp-Regular-32" d="M 282 0 
L 3232 0 
L 3232 506 
L 1933 506 
C 1696 506 1408 480 1165 461 
C 2266 1504 3008 2458 3008 3398 
C 3008 4230 2477 4774 1638 4774 
C 1043 4774 634 4506 256 4090 
L 595 3757 
C 858 4070 1184 4301 1568 4301 
C 2150 4301 2432 3910 2432 3373 
C 2432 2566 1754 1632 282 346 
L 282 0 
z
" transform="scale(0.015625)"/>
     </defs>
     <use xlink:href="#NotoSansCJKjp-Regular-54"/>
     <use xlink:href="#NotoSansCJKjp-Regular-32" transform="translate(59.899994 0)"/>
    </g>
   </g>
   <g id="text_4">
    <!-- T3 -->
    <g transform="translate(88.092 309.832638) scale(0.09 -0.09)">
     <defs>
      <path id="NotoSansCJKjp-Regular-33" d="M 1683 -83 
C 2522 -83 3194 416 3194 1254 
C 3194 1901 2752 2310 2202 2445 
L 2202 2477 
C 2701 2650 3034 3034 3034 3603 
C 3034 4346 2458 4774 1664 4774 
C 1126 4774 710 4538 358 4218 
L 672 3846 
C 941 4115 1267 4301 1645 4301 
C 2138 4301 2438 4006 2438 3558 
C 2438 3053 2112 2662 1139 2662 
L 1139 2214 
C 2227 2214 2598 1843 2598 1274 
C 2598 736 2208 403 1645 403 
C 1114 403 762 659 486 941 
L 186 563 
C 493 224 954 -83 1683 -83 
z
" transform="scale(0.015625)"/>
     </defs>
     <use xlink:href="#NotoSansCJKjp-Regular-54"/>
     <use xlink:href="#NotoSansCJKjp-Regular-33" transform="translate(59.899994 0)"/>
    </g>
   </g>
   <g id="text_5">
    <!-- T4 -->
    <g transform="translate(88.092 354.769295) scale(0.09 -0.09)">
     <defs>
      <path id="NotoSansCJKjp-Regular-34" d="M 2176 0 
L 2726 0 
L 2726 1293 
L 3354 1293 
L 3354 1760 
L 2726 1760 
L 2726 4691 
L 2080 4691 
L 128 1677 
L 128 1293 
L 2176 1293 
L 2176 0 
z
M 2176 1760 
L 736 1760 
L 1805 3360 
C 1939 3590 2067 3827 2182 4051 
L 2208 4051 
C 2195 3814 2176 3430 2176 3200 
L 2176 1760 
z
" transform="scale(0.015625)"/>
     </defs>
     <use xlink:href="#NotoSansCJKjp-Regular-54"/>
     <use xlink:href="#NotoSansCJKjp-Regular-34" transform="translate(59.899994 0)"/>
    </g>
   </g>
   <g id="text_6">
    <!-- T5 -->
    <g transform="translate(88.092 394.28083) scale(0.09 -0.09)">
     <defs>
      <path id="NotoSansCJKjp-Regular-35" d="M 1677 -83 
C 2464 -83 3213 499 3213 1523 
C 3213 2560 2573 3021 1798 3021 
C 1517 3021 1306 2950 1094 2835 
L 1216 4192 
L 2982 4192 
L 2982 4691 
L 704 4691 
L 550 2502 
L 864 2304 
C 1133 2483 1331 2579 1645 2579 
C 2234 2579 2618 2182 2618 1510 
C 2618 826 2176 403 1619 403 
C 1075 403 730 653 467 922 
L 173 538 
C 493 224 941 -83 1677 -83 
z
" transform="scale(0.015625)"/>
     </defs>
     <use xlink:href="#NotoSansCJKjp-Regular-54"/>
     <use xlink:href="#NotoSansCJKjp-Regular-35" transform="translate(59.899994 0)"/>
    </g>
   </g>
   <g id="text_7">
    <!-- T6 -->
    <g transform="translate(88.092 430.563125) scale(0.09 -0.09)">
     <defs>
      <path id="NotoSansCJKjp-Regular-36" d="M 1926 -83 
C 2656 -83 3277 531 3277 1440 
C 3277 2426 2765 2912 1971 2912 
C 1606 2912 1197 2701 909 2349 
C 934 3802 1466 4294 2118 4294 
C 2400 4294 2682 4154 2861 3936 
L 3194 4294 
C 2931 4576 2579 4774 2093 4774 
C 1184 4774 358 4077 358 2240 
C 358 691 1030 -83 1926 -83 
z
M 922 1882 
C 1229 2317 1587 2477 1875 2477 
C 2445 2477 2720 2074 2720 1440 
C 2720 800 2374 378 1926 378 
C 1338 378 986 909 922 1882 
z
" transform="scale(0.015625)"/>
     </defs>
     <use xlink:href="#NotoSansCJKjp-Regular-54"/>
     <use xlink:href="#NotoSansCJKjp-Regular-36" transform="translate(59.899994 0)"/>
    </g>
   </g>
   <g id="text_8">
    <!-- T7 -->
    <g transform="translate(88.092 463.874521) scale(0.09 -0.09)">
     <defs>
      <path id="NotoSansCJKjp-Regular-37" d="M 1267 0 
L 1875 0 
C 1952 1837 2150 2931 3251 4339 
L 3251 4691 
L 314 4691 
L 314 4192 
L 2592 4192 
C 1670 2912 1350 1779 1267 0 
z
" transform="scale(0.015625)"/>
     </defs>
     <use xlink:href="#NotoSansCJKjp-Regular-54"/>
     <use xlink:href="#NotoSansCJKjp-Regular-37" transform="translate(59.899994 0)"/>
    </g>
   </g>
   <g id="text_9">
    <!-- T8 -->
    <g transform="translate(88.092 496.15256) scale(0.09 -0.09)">
     <defs>
      <path id="NotoSansCJKjp-Regular-38" d="M 1792 -83 
C 2669 -83 3258 448 3258 1126 
C 3258 1773 2880 2125 2470 2362 
L 2470 2394 
C 2746 2611 3091 3034 3091 3526 
C 3091 4250 2605 4762 1805 4762 
C 1075 4762 518 4282 518 3571 
C 518 3078 813 2726 1152 2490 
L 1152 2464 
C 723 2234 294 1792 294 1165 
C 294 442 922 -83 1792 -83 
z
M 2112 2547 
C 1555 2765 1050 3014 1050 3571 
C 1050 4026 1363 4326 1798 4326 
C 2298 4326 2592 3962 2592 3494 
C 2592 3149 2426 2829 2112 2547 
z
M 1798 352 
C 1235 352 813 717 813 1216 
C 813 1664 1082 2035 1459 2278 
C 2125 2010 2701 1779 2701 1146 
C 2701 678 2342 352 1798 352 
z
" transform="scale(0.015625)"/>
     </defs>
     <use xlink:href="#NotoSansCJKjp-Regular-54"/>
     <use xlink:href="#NotoSansCJKjp-Regular-38" transform="translate(59.899994 0)"/>
    </g>
   </g>
   <g id="text_10">
    <!-- T9 -->
    <g transform="translate(88.092 526.105547) scale(0.09 -0.09)">
     <defs>
      <path id="NotoSansCJKjp-Regular-39" d="M 1504 -83 
C 2381 -83 3206 646 3206 2547 
C 3206 4038 2528 4774 1626 4774 
C 896 4774 282 4166 282 3251 
C 282 2285 794 1779 1574 1779 
C 1965 1779 2368 2003 2656 2349 
C 2611 896 2086 403 1485 403 
C 1178 403 896 538 691 762 
L 371 397 
C 634 122 992 -83 1504 -83 
z
M 2650 2842 
C 2336 2394 1984 2214 1670 2214 
C 1114 2214 832 2624 832 3251 
C 832 3898 1178 4320 1632 4320 
C 2227 4320 2586 3808 2650 2842 
z
" transform="scale(0.015625)"/>
     </defs>
     <use xlink:href="#NotoSansCJKjp-Regular-54"/>
     <use xlink:href="#NotoSansCJKjp-Regular-39" transform="translate(59.899994 0)"/>
    </g>
   </g>
   <g id="text_11">
    <!-- A:数字化接口 -->
    <g style="fill: #355c7d" transform="translate(592.562687 152.571059) scale(0.11 -0.11)">
     <defs>
      <path id="NotoSansCJKjp-Bold-41" d="M -26 0 
L 934 0 
L 1267 1216 
L 2797 1216 
L 3130 0 
L 4128 0 
L 2611 4742 
L 1491 4742 
L -26 0 
z
M 1472 1952 
L 1613 2470 
C 1754 2963 1888 3501 2016 4019 
L 2042 4019 
C 2182 3514 2310 2963 2458 2470 
L 2598 1952 
L 1472 1952 
z
" transform="scale(0.015625)"/>
      <path id="NotoSansCJKjp-Bold-3a" d="M 1043 2342 
C 1376 2342 1626 2605 1626 2950 
C 1626 3302 1376 3565 1043 3565 
C 704 3565 454 3302 454 2950 
C 454 2605 704 2342 1043 2342 
z
M 1043 -90 
C 1376 -90 1626 179 1626 525 
C 1626 877 1376 1139 1043 1139 
C 704 1139 454 877 454 525 
C 454 179 704 -90 1043 -90 
z
" transform="scale(0.015625)"/>
      <path id="NotoSansCJKjp-Bold-6570" d="M 3917 5440 
C 3770 4294 3456 3200 2918 2541 
C 3053 2445 3277 2246 3424 2099 
L 3520 1997 
C 3629 2138 3725 2291 3821 2464 
C 3936 2003 4077 1574 4250 1190 
C 3968 794 3603 474 3123 224 
C 2970 333 2790 448 2592 563 
C 2746 813 2861 1114 2931 1478 
L 3424 1478 
L 3424 2099 
L 1901 2099 
L 2054 2406 
L 1779 2464 
L 2189 2464 
L 2189 3245 
C 2438 3046 2714 2822 2854 2682 
L 3258 3213 
C 3123 3309 2669 3578 2355 3750 
L 3405 3750 
L 3405 4358 
L 2797 4358 
C 2957 4550 3149 4832 3347 5101 
L 2701 5363 
C 2605 5120 2419 4768 2278 4544 
L 2701 4358 
L 2189 4358 
L 2189 5440 
L 1485 5440 
L 1485 4358 
L 954 4358 
L 1363 4538 
C 1306 4762 1139 5088 973 5331 
L 422 5101 
C 557 4870 698 4576 755 4358 
L 262 4358 
L 262 3750 
L 1261 3750 
C 960 3418 525 3110 134 2950 
C 275 2810 442 2560 525 2394 
C 845 2573 1190 2835 1485 3130 
L 1485 2522 
L 1344 2554 
L 1126 2099 
L 192 2099 
L 192 1478 
L 806 1478 
C 646 1171 486 883 346 659 
L 1018 454 
L 1088 576 
L 1446 403 
C 1139 230 736 122 218 51 
C 346 -102 480 -365 525 -582 
C 1210 -442 1728 -256 2106 32 
C 2368 -134 2598 -301 2771 -454 
L 3066 -160 
C 3168 -314 3270 -486 3315 -595 
C 3872 -320 4314 26 4666 448 
C 4954 38 5306 -307 5747 -563 
C 5862 -352 6106 -51 6278 102 
C 5811 346 5440 710 5146 1165 
C 5491 1818 5709 2611 5843 3571 
L 6202 3571 
L 6202 4282 
L 4493 4282 
C 4576 4621 4640 4973 4698 5331 
L 3917 5440 
z
M 1581 1478 
L 2202 1478 
C 2144 1248 2067 1056 1965 896 
C 1779 979 1587 1062 1402 1139 
L 1581 1478 
z
M 5050 3571 
C 4979 3002 4864 2496 4704 2061 
C 4525 2522 4397 3027 4307 3571 
L 5050 3571 
z
" transform="scale(0.015625)"/>
      <path id="NotoSansCJKjp-Bold-5b57" d="M 2784 2406 
L 2784 2003 
L 410 2003 
L 410 1274 
L 2784 1274 
L 2784 326 
C 2784 237 2746 211 2618 211 
C 2490 205 2010 211 1619 224 
C 1747 13 1901 -333 1946 -563 
C 2483 -563 2893 -544 3194 -435 
C 3507 -314 3603 -109 3603 307 
L 3603 1274 
L 6010 1274 
L 6010 2003 
L 3603 2003 
L 3603 2048 
C 4134 2374 4627 2829 4998 3245 
L 4499 3622 
L 4326 3584 
L 1498 3584 
L 1498 2893 
L 3654 2893 
C 3469 2714 3264 2541 3066 2406 
L 2784 2406 
z
M 429 4826 
L 429 3162 
L 1184 3162 
L 1184 4096 
L 5165 4096 
L 5165 3162 
L 5958 3162 
L 5958 4826 
L 3597 4826 
L 3597 5440 
L 2778 5440 
L 2778 4826 
L 429 4826 
z
" transform="scale(0.015625)"/>
      <path id="NotoSansCJKjp-Bold-5316" d="M 5453 4198 
C 5024 3834 4435 3418 3834 3072 
L 3834 5274 
L 3059 5274 
L 3059 666 
C 3059 -237 3290 -499 4096 -499 
C 4269 -499 5011 -499 5197 -499 
C 5958 -499 6163 -90 6253 1018 
C 6042 1062 5722 1210 5542 1344 
C 5491 435 5440 218 5126 218 
C 4973 218 4333 218 4192 218 
C 3878 218 3834 275 3834 659 
L 3834 2285 
C 4589 2643 5382 3078 6016 3526 
L 5453 4198 
z
M 1818 5350 
C 1427 4384 755 3437 58 2848 
C 198 2656 422 2227 506 2035 
C 717 2234 934 2464 1139 2714 
L 1139 -563 
L 1907 -563 
L 1907 3802 
C 2163 4224 2394 4666 2579 5101 
L 1818 5350 
z
" transform="scale(0.015625)"/>
      <path id="NotoSansCJKjp-Bold-63a5" d="M 1011 5434 
L 1011 4224 
L 262 4224 
L 262 3520 
L 1011 3520 
L 1011 2362 
C 685 2285 378 2214 134 2163 
L 294 1414 
L 1011 1613 
L 1011 294 
C 1011 198 979 173 896 173 
C 813 166 557 166 301 179 
C 397 -32 499 -365 518 -570 
C 960 -570 1261 -544 1478 -416 
C 1690 -294 1747 -90 1747 288 
L 1747 1824 
L 2227 1958 
L 2227 1613 
L 3002 1613 
C 2835 1267 2669 934 2528 678 
L 3187 461 
L 3251 576 
L 3731 397 
C 3322 198 2765 90 2022 32 
C 2131 -109 2253 -378 2304 -589 
C 3277 -461 3981 -269 4486 70 
C 4934 -147 5344 -378 5613 -576 
L 6099 0 
C 5830 186 5440 390 5018 576 
C 5222 858 5370 1197 5472 1613 
L 6170 1613 
L 6170 2259 
L 4102 2259 
L 4320 2720 
L 6176 2720 
L 6176 3373 
L 5190 3373 
C 5280 3597 5382 3885 5485 4179 
L 6016 4179 
L 6016 4826 
L 4582 4826 
L 4582 5440 
L 3808 5440 
L 3808 4826 
L 2374 4826 
L 2374 4179 
L 3053 4179 
L 2957 4160 
C 3040 3917 3110 3610 3142 3373 
L 2176 3373 
L 2176 2720 
L 3488 2720 
L 3296 2259 
L 2278 2259 
L 2227 2669 
L 1747 2547 
L 1747 3520 
L 2240 3520 
L 2240 4224 
L 1747 4224 
L 1747 5434 
L 1011 5434 
z
M 3654 4179 
L 4736 4179 
C 4678 3923 4582 3610 4499 3373 
L 3814 3373 
L 3846 3379 
C 3834 3590 3757 3904 3654 4179 
z
M 3789 1613 
L 4710 1613 
C 4627 1312 4512 1062 4346 858 
C 4070 966 3802 1056 3546 1133 
L 3789 1613 
z
" transform="scale(0.015625)"/>
      <path id="NotoSansCJKjp-Bold-53e3" d="M 678 4813 
L 678 -448 
L 1478 -448 
L 1478 77 
L 4896 77 
L 4896 -435 
L 5734 -435 
L 5734 4813 
L 678 4813 
z
M 1478 864 
L 1478 4032 
L 4896 4032 
L 4896 864 
L 1478 864 
z
" transform="scale(0.015625)"/>
     </defs>
     <use xlink:href="#NotoSansCJKjp-Bold-41"/>
     <use xlink:href="#NotoSansCJKjp-Bold-3a" transform="translate(64.099991 0)"/>
     <use xlink:href="#NotoSansCJKjp-Bold-6570" transform="translate(96.599976 0)"/>
     <use xlink:href="#NotoSansCJKjp-Bold-5b57" transform="translate(196.59996 0)"/>
     <use xlink:href="#NotoSansCJKjp-Bold-5316" transform="translate(296.599945 0)"/>
     <use xlink:href="#NotoSansCJKjp-Bold-63a5" transform="translate(396.59993 0)"/>
     <use xlink:href="#NotoSansCJKjp-Bold-53e3" transform="translate(496.599915 0)"/>
    </g>
   </g>
   <g id="text_12">
    <!-- B:规范治理 -->
    <g style="fill: #7a4e2d" transform="translate(603.122687 300.455859) scale(0.11 -0.11)">
     <defs>
      <path id="NotoSansCJKjp-Bold-42" d="M 582 0 
L 2272 0 
C 3315 0 4102 442 4102 1395 
C 4102 2029 3731 2394 3219 2515 
L 3219 2541 
C 3622 2688 3866 3130 3866 3571 
C 3866 4454 3123 4742 2150 4742 
L 582 4742 
L 582 0 
z
M 1530 2810 
L 1530 4013 
L 2093 4013 
C 2662 4013 2944 3846 2944 3430 
C 2944 3053 2688 2810 2086 2810 
L 1530 2810 
z
M 1530 730 
L 1530 2112 
L 2189 2112 
C 2842 2112 3181 1914 3181 1453 
C 3181 960 2829 730 2189 730 
L 1530 730 
z
" transform="scale(0.015625)"/>
      <path id="NotoSansCJKjp-Bold-89c4" d="M 2970 5152 
L 2970 1741 
L 3699 1741 
L 3699 4486 
L 5178 4486 
L 5178 1741 
L 5939 1741 
L 5939 5152 
L 2970 5152 
z
M 1178 5376 
L 1178 4454 
L 352 4454 
L 352 3744 
L 1178 3744 
L 1178 3334 
L 1171 2970 
L 224 2970 
L 224 2240 
L 1126 2240 
C 1043 1446 806 595 160 19 
C 339 -102 595 -358 704 -512 
C 1235 0 1536 659 1702 1331 
C 1946 1011 2208 640 2355 390 
L 2880 941 
C 2720 1126 2093 1882 1843 2125 
L 1856 2240 
L 2758 2240 
L 2758 2970 
L 1901 2970 
L 1907 3334 
L 1907 3744 
L 2682 3744 
L 2682 4454 
L 1907 4454 
L 1907 5376 
L 1178 5376 
z
M 4090 4090 
L 4090 3085 
C 4090 2099 3904 832 2266 -19 
C 2413 -128 2662 -416 2752 -563 
C 3475 -179 3955 320 4262 858 
L 4262 282 
C 4262 -275 4467 -429 4973 -429 
L 5414 -429 
C 6048 -429 6163 -141 6227 838 
C 6054 877 5798 986 5632 1114 
C 5606 326 5568 154 5408 154 
L 5114 154 
C 4992 154 4934 205 4934 365 
L 4934 1939 
L 4678 1939 
C 4768 2336 4800 2726 4800 3072 
L 4800 4090 
L 4090 4090 
z
" transform="scale(0.015625)"/>
      <path id="NotoSansCJKjp-Bold-8303" d="M 416 64 
L 954 -563 
C 1453 -58 1978 525 2432 1075 
L 2010 1664 
C 1478 1069 845 435 416 64 
z
M 678 3251 
C 1037 3034 1562 2714 1818 2528 
L 2272 3091 
C 1997 3270 1459 3565 1107 3750 
L 678 3251 
z
M 288 2086 
C 653 1882 1184 1574 1434 1389 
L 1875 1958 
C 1600 2138 1062 2419 710 2598 
L 288 2086 
z
M 2586 3514 
L 2586 614 
C 2586 -237 2861 -461 3770 -461 
C 3968 -461 4896 -461 5114 -461 
C 5901 -461 6131 -179 6240 742 
C 6016 787 5690 915 5510 1037 
C 5459 384 5395 256 5050 256 
C 4832 256 4032 256 3846 256 
C 3443 256 3386 307 3386 627 
L 3386 2784 
L 4902 2784 
L 4902 1952 
C 4902 1875 4870 1850 4762 1850 
C 4653 1850 4250 1850 3898 1862 
C 4013 1664 4141 1357 4186 1139 
C 4678 1139 5043 1146 5325 1261 
C 5600 1370 5677 1581 5677 1939 
L 5677 3514 
L 2586 3514 
z
M 3974 5440 
L 3974 4973 
L 2413 4973 
L 2413 5440 
L 1626 5440 
L 1626 4973 
L 307 4973 
L 307 4262 
L 1626 4262 
L 1626 3744 
L 2413 3744 
L 2413 4262 
L 3974 4262 
L 3974 3744 
L 4774 3744 
L 4774 4262 
L 6093 4262 
L 6093 4973 
L 4774 4973 
L 4774 5440 
L 3974 5440 
z
" transform="scale(0.015625)"/>
      <path id="NotoSansCJKjp-Bold-6cbb" d="M 570 4845 
C 992 4659 1517 4358 1766 4128 
L 2221 4774 
C 1946 4998 1408 5267 992 5421 
L 570 4845 
z
M 179 3098 
C 602 2931 1146 2643 1395 2419 
L 1850 3072 
C 1568 3290 1011 3546 602 3686 
L 179 3098 
z
M 397 19 
L 1056 -493 
C 1440 134 1837 864 2163 1536 
L 1594 2042 
C 1210 1299 736 506 397 19 
z
M 2445 2106 
L 2445 -570 
L 3194 -570 
L 3194 -307 
L 4896 -307 
L 4896 -550 
L 5677 -550 
L 5677 2106 
L 2445 2106 
z
M 3194 397 
L 3194 1402 
L 4896 1402 
L 4896 397 
L 3194 397 
z
M 3296 5446 
C 3136 4800 2835 3962 2541 3334 
L 1920 3309 
L 2010 2534 
C 2886 2598 4109 2682 5286 2771 
C 5395 2579 5485 2400 5549 2246 
L 6259 2643 
C 6016 3174 5498 3942 4986 4518 
L 4314 4186 
C 4493 3968 4685 3718 4858 3456 
L 3366 3373 
C 3648 3942 3942 4627 4186 5254 
L 3296 5446 
z
" transform="scale(0.015625)"/>
      <path id="NotoSansCJKjp-Bold-7406" d="M 3290 3373 
L 3949 3373 
L 3949 2829 
L 3290 2829 
L 3290 3373 
z
M 4595 3373 
L 5222 3373 
L 5222 2829 
L 4595 2829 
L 4595 3373 
z
M 3290 4518 
L 3949 4518 
L 3949 3981 
L 3290 3981 
L 3290 4518 
z
M 4595 4518 
L 5222 4518 
L 5222 3981 
L 4595 3981 
L 4595 4518 
z
M 2106 326 
L 2106 -371 
L 6240 -371 
L 6240 326 
L 4666 326 
L 4666 934 
L 6022 934 
L 6022 1626 
L 4666 1626 
L 4666 2176 
L 5958 2176 
L 5958 5165 
L 2592 5165 
L 2592 2176 
L 3878 2176 
L 3878 1626 
L 2554 1626 
L 2554 934 
L 3878 934 
L 3878 326 
L 2106 326 
z
M 154 794 
L 326 13 
C 941 211 1715 467 2426 710 
L 2291 1440 
L 1670 1242 
L 1670 2522 
L 2246 2522 
L 2246 3226 
L 1670 3226 
L 1670 4358 
L 2355 4358 
L 2355 5069 
L 230 5069 
L 230 4358 
L 934 4358 
L 934 3226 
L 288 3226 
L 288 2522 
L 934 2522 
L 934 1018 
L 154 794 
z
" transform="scale(0.015625)"/>
     </defs>
     <use xlink:href="#NotoSansCJKjp-Bold-42"/>
     <use xlink:href="#NotoSansCJKjp-Bold-3a" transform="translate(68.099991 0)"/>
     <use xlink:href="#NotoSansCJKjp-Bold-89c4" transform="translate(100.599976 0)"/>
     <use xlink:href="#NotoSansCJKjp-Bold-8303" transform="translate(200.59996 0)"/>
     <use xlink:href="#NotoSansCJKjp-Bold-6cbb" transform="translate(300.599945 0)"/>
     <use xlink:href="#NotoSansCJKjp-Bold-7406" transform="translate(400.59993 0)"/>
    </g>
   </g>
   <g id="text_13">
    <!-- C:风险识别 -->
    <g style="fill: #6c757d" transform="translate(603.397687 448.340659) scale(0.11 -0.11)">
     <defs>
      <path id="NotoSansCJKjp-Bold-43" d="M 2509 -90 
C 3130 -90 3635 154 4026 608 
L 3520 1197 
C 3270 922 2957 730 2547 730 
C 1798 730 1318 1350 1318 2381 
C 1318 3398 1850 4013 2566 4013 
C 2925 4013 3200 3846 3443 3616 
L 3936 4218 
C 3629 4538 3155 4826 2547 4826 
C 1350 4826 346 3910 346 2349 
C 346 768 1318 -90 2509 -90 
z
" transform="scale(0.015625)"/>
      <path id="NotoSansCJKjp-Bold-98ce" d="M 934 5222 
L 934 3418 
C 934 2387 877 909 179 -83 
C 352 -173 691 -448 819 -602 
C 1594 486 1728 2278 1728 3418 
L 1728 4480 
L 4634 4480 
C 4634 1139 4653 -512 5658 -512 
C 6086 -512 6234 -166 6304 666 
C 6163 800 5965 1069 5837 1261 
C 5824 755 5786 307 5715 307 
C 5357 307 5363 1997 5402 5222 
L 934 5222 
z
M 3738 4115 
C 3610 3699 3430 3277 3226 2874 
C 2950 3232 2675 3584 2413 3898 
L 1792 3571 
C 2131 3149 2490 2662 2829 2182 
C 2451 1600 2016 1101 1549 755 
C 1722 614 1971 346 2099 166 
C 2528 525 2925 986 3270 1517 
C 3558 1069 3802 653 3955 314 
L 4653 717 
C 4442 1146 4090 1683 3699 2234 
C 3981 2758 4218 3334 4410 3923 
L 3738 4115 
z
" transform="scale(0.015625)"/>
      <path id="NotoSansCJKjp-Bold-9669" d="M 2643 2221 
C 2790 1734 2938 1101 2989 685 
L 3610 858 
C 3552 1267 3392 1888 3232 2374 
L 2643 2221 
z
M 3846 2413 
C 3949 1939 4064 1306 4090 896 
L 4710 992 
C 4672 1402 4557 2010 4442 2496 
L 3846 2413 
z
M 435 5184 
L 435 -557 
L 1107 -557 
L 1107 4499 
L 1632 4499 
C 1530 4083 1395 3558 1274 3168 
C 1632 2714 1715 2298 1715 1997 
C 1715 1811 1677 1664 1600 1606 
C 1562 1574 1498 1562 1427 1562 
C 1350 1555 1267 1555 1158 1568 
C 1261 1376 1312 1088 1318 902 
C 1472 902 1619 902 1734 922 
C 1875 941 1997 986 2099 1062 
C 2304 1216 2387 1491 2387 1907 
C 2387 2285 2310 2739 1926 3251 
C 2106 3744 2310 4390 2477 4934 
L 1971 5210 
L 1869 5184 
L 435 5184 
z
M 4141 4493 
C 4435 4147 4794 3795 5165 3482 
L 3277 3482 
C 3584 3789 3878 4128 4141 4493 
z
M 3974 5510 
C 3546 4704 2810 3930 2080 3462 
C 2208 3315 2432 2989 2522 2835 
C 2682 2950 2848 3085 3008 3232 
L 3008 2835 
L 5280 2835 
L 5280 3386 
C 5504 3200 5734 3034 5958 2893 
C 6029 3104 6189 3443 6323 3635 
C 5690 3962 4960 4550 4518 5075 
L 4627 5267 
L 3974 5510 
z
M 2400 358 
L 2400 -314 
L 6118 -314 
L 6118 358 
L 5107 358 
C 5408 922 5741 1690 5997 2349 
L 5331 2496 
C 5139 1843 4794 954 4480 358 
L 2400 358 
z
" transform="scale(0.015625)"/>
      <path id="NotoSansCJKjp-Bold-8bc6" d="M 3514 4301 
L 5011 4301 
L 5011 2707 
L 3514 2707 
L 3514 4301 
z
M 2752 5030 
L 2752 1978 
L 5811 1978 
L 5811 5030 
L 2752 5030 
z
M 4595 1242 
C 4934 672 5280 -70 5402 -538 
L 6176 -243 
C 6042 230 5658 947 5312 1491 
L 4595 1242 
z
M 3149 1459 
C 2970 858 2637 250 2221 -122 
C 2413 -224 2752 -435 2906 -563 
C 3322 -122 3712 576 3942 1286 
L 3149 1459 
z
M 518 4870 
C 870 4557 1325 4122 1536 3840 
L 2061 4365 
C 1837 4640 1363 5050 1018 5338 
L 518 4870 
z
M 256 3462 
L 256 2726 
L 1011 2726 
L 1011 883 
C 1011 486 768 179 608 32 
C 736 -64 986 -314 1075 -461 
C 1190 -301 1414 -115 2618 915 
C 2528 1062 2387 1376 2323 1587 
L 1754 1114 
L 1754 3462 
L 256 3462 
z
" transform="scale(0.015625)"/>
      <path id="NotoSansCJKjp-Bold-522b" d="M 3834 4659 
L 3834 1037 
L 4582 1037 
L 4582 4659 
L 3834 4659 
z
M 5178 5306 
L 5178 346 
C 5178 237 5133 198 5018 198 
C 4902 198 4538 198 4173 211 
C 4282 -6 4390 -358 4422 -576 
C 4973 -582 5357 -557 5606 -429 
C 5856 -301 5939 -83 5939 339 
L 5939 5306 
L 5178 5306 
z
M 1210 4486 
L 2445 4486 
L 2445 3603 
L 1210 3603 
L 1210 4486 
z
M 512 5158 
L 512 2925 
L 3187 2925 
L 3187 5158 
L 512 5158 
z
M 1312 2790 
L 1293 2394 
L 339 2394 
L 339 1696 
L 1235 1696 
C 1126 941 870 358 134 -26 
C 294 -160 499 -422 589 -602 
C 1504 -96 1824 691 1952 1696 
L 2579 1696 
C 2534 755 2483 378 2400 275 
C 2342 211 2291 198 2202 198 
C 2099 198 1901 198 1677 224 
C 1792 26 1869 -282 1882 -506 
C 2170 -512 2438 -506 2598 -480 
C 2784 -448 2918 -390 3046 -224 
C 3219 -6 3277 602 3334 2099 
C 3341 2195 3347 2394 3347 2394 
L 2016 2394 
L 2035 2790 
L 1312 2790 
z
" transform="scale(0.015625)"/>
     </defs>
     <use xlink:href="#NotoSansCJKjp-Bold-43"/>
     <use xlink:href="#NotoSansCJKjp-Bold-3a" transform="translate(65.599991 0)"/>
     <use xlink:href="#NotoSansCJKjp-Bold-98ce" transform="translate(98.099976 0)"/>
     <use xlink:href="#NotoSansCJKjp-Bold-9669" transform="translate(198.09996 0)"/>
     <use xlink:href="#NotoSansCJKjp-Bold-8bc6" transform="translate(298.099945 0)"/>
     <use xlink:href="#NotoSansCJKjp-Bold-522b" transform="translate(398.09993 0)"/>
    </g>
   </g>
   <g id="text_14">
    <!-- 主题变量 -->
    <g transform="translate(53.424 59.577531) scale(0.12 -0.12)">
     <defs>
      <path id="NotoSansCJKjp-Bold-4e3b" d="M 2208 5005 
C 2522 4787 2893 4486 3162 4230 
L 608 4230 
L 608 3475 
L 2778 3475 
L 2778 2362 
L 947 2362 
L 947 1619 
L 2778 1619 
L 2778 384 
L 333 384 
L 333 -371 
L 6093 -371 
L 6093 384 
L 3622 384 
L 3622 1619 
L 5472 1619 
L 5472 2362 
L 3622 2362 
L 3622 3475 
L 5773 3475 
L 5773 4230 
L 3744 4230 
L 4083 4474 
C 3808 4774 3258 5184 2842 5446 
L 2208 5005 
z
" transform="scale(0.015625)"/>
      <path id="NotoSansCJKjp-Bold-9898" d="M 1254 3885 
L 2202 3885 
L 2202 3584 
L 1254 3584 
L 1254 3885 
z
M 1254 4672 
L 2202 4672 
L 2202 4371 
L 1254 4371 
L 1254 4672 
z
M 576 5190 
L 576 3066 
L 2912 3066 
L 2912 5190 
L 576 5190 
z
M 4352 3309 
C 4320 1786 4237 1082 2912 691 
C 3034 582 3194 339 3258 192 
C 4774 666 4941 1574 4979 3309 
L 4352 3309 
z
M 4678 1082 
C 5037 806 5523 416 5754 173 
L 6202 646 
C 5946 877 5453 1248 5094 1498 
L 4678 1082 
z
M 602 1914 
C 582 1037 499 269 128 -218 
C 275 -294 550 -474 659 -570 
C 838 -314 960 -6 1050 352 
C 1555 -326 2349 -448 3533 -448 
L 5990 -448 
C 6029 -256 6138 38 6240 179 
C 5722 160 3968 160 3539 160 
C 2976 160 2502 179 2125 294 
L 2125 1062 
L 3053 1062 
L 3053 1619 
L 2125 1619 
L 2125 2138 
L 3187 2138 
L 3187 2694 
L 282 2694 
L 282 2138 
L 1478 2138 
L 1478 672 
C 1357 794 1261 941 1171 1133 
C 1197 1363 1210 1613 1222 1869 
L 602 1914 
z
M 3366 4109 
L 3366 1427 
L 3994 1427 
L 3994 3565 
L 5286 3565 
L 5286 1466 
L 5933 1466 
L 5933 4109 
L 4781 4109 
L 5005 4570 
L 6176 4570 
L 6176 5178 
L 3168 5178 
L 3168 4570 
L 4250 4570 
C 4205 4410 4147 4250 4090 4109 
L 3366 4109 
z
" transform="scale(0.015625)"/>
      <path id="NotoSansCJKjp-Bold-53d8" d="M 1203 3994 
C 1037 3590 730 3181 384 2918 
C 550 2829 845 2630 979 2515 
C 1318 2829 1683 3322 1894 3808 
L 1203 3994 
z
M 2643 5338 
C 2726 5184 2822 4986 2899 4819 
L 422 4819 
L 422 4147 
L 2035 4147 
L 2035 2368 
L 2810 2368 
L 2810 4147 
L 3571 4147 
L 3571 2374 
L 4346 2374 
L 4346 3610 
C 4723 3302 5178 2835 5402 2515 
L 5984 2938 
C 5754 3232 5293 3680 4883 3987 
L 4346 3648 
L 4346 4147 
L 5984 4147 
L 5984 4819 
L 3763 4819 
C 3674 5018 3520 5306 3392 5510 
L 2643 5338 
z
M 787 2227 
L 787 1555 
L 1280 1555 
C 1587 1139 1958 794 2394 499 
C 1747 294 1011 166 243 90 
C 378 -70 550 -397 608 -589 
C 1523 -461 2400 -262 3181 64 
C 3904 -262 4762 -474 5734 -589 
C 5830 -390 6016 -77 6170 83 
C 5376 154 4646 288 4019 493 
C 4614 858 5101 1325 5440 1926 
L 4947 2253 
L 4826 2227 
L 787 2227 
z
M 2157 1555 
L 4262 1555 
C 3981 1261 3622 1018 3206 813 
C 2790 1018 2438 1267 2157 1555 
z
" transform="scale(0.015625)"/>
      <path id="NotoSansCJKjp-Bold-91cf" d="M 1843 4262 
L 4506 4262 
L 4506 4045 
L 1843 4045 
L 1843 4262 
z
M 1843 4851 
L 4506 4851 
L 4506 4634 
L 1843 4634 
L 1843 4851 
z
M 1107 5242 
L 1107 3654 
L 5280 3654 
L 5280 5242 
L 1107 5242 
z
M 294 3462 
L 294 2912 
L 6125 2912 
L 6125 3462 
L 294 3462 
z
M 1709 1709 
L 2822 1709 
L 2822 1485 
L 1709 1485 
L 1709 1709 
z
M 3565 1709 
L 4685 1709 
L 4685 1485 
L 3565 1485 
L 3565 1709 
z
M 1709 2317 
L 2822 2317 
L 2822 2093 
L 1709 2093 
L 1709 2317 
z
M 3565 2317 
L 4685 2317 
L 4685 2093 
L 3565 2093 
L 3565 2317 
z
M 282 141 
L 282 -416 
L 6138 -416 
L 6138 141 
L 3565 141 
L 3565 378 
L 5562 378 
L 5562 864 
L 3565 864 
L 3565 1075 
L 5440 1075 
L 5440 2720 
L 992 2720 
L 992 1075 
L 2822 1075 
L 2822 864 
L 858 864 
L 858 378 
L 2822 378 
L 2822 141 
L 282 141 
z
" transform="scale(0.015625)"/>
     </defs>
     <use xlink:href="#NotoSansCJKjp-Bold-4e3b"/>
     <use xlink:href="#NotoSansCJKjp-Bold-9898" transform="translate(99.999985 0)"/>
     <use xlink:href="#NotoSansCJKjp-Bold-53d8" transform="translate(199.999969 0)"/>
     <use xlink:href="#NotoSansCJKjp-Bold-91cf" transform="translate(299.999954 0)"/>
    </g>
   </g>
   <g id="text_15">
    <!-- 制度维度 -->
    <g transform="translate(561.888 59.577531) scale(0.12 -0.12)">
     <defs>
      <path id="NotoSansCJKjp-Bold-5236" d="M 4115 4909 
L 4115 1286 
L 4832 1286 
L 4832 4909 
L 4115 4909 
z
M 5267 5325 
L 5267 333 
C 5267 230 5229 205 5126 198 
C 5018 198 4685 198 4352 211 
C 4448 -13 4557 -352 4582 -563 
C 5082 -563 5453 -538 5690 -416 
C 5926 -288 6003 -77 6003 333 
L 6003 5325 
L 5267 5325 
z
M 723 5318 
C 614 4710 403 4058 134 3648 
C 288 3597 538 3494 710 3411 
L 237 3411 
L 237 2714 
L 1696 2714 
L 1696 2253 
L 486 2253 
L 486 -58 
L 1171 -58 
L 1171 1568 
L 1696 1568 
L 1696 -570 
L 2426 -570 
L 2426 1568 
L 2989 1568 
L 2989 627 
C 2989 570 2970 550 2912 550 
C 2854 550 2688 550 2509 557 
C 2592 378 2682 102 2701 -90 
C 3021 -96 3264 -90 3450 19 
C 3635 134 3680 320 3680 614 
L 3680 2253 
L 2426 2253 
L 2426 2714 
L 3827 2714 
L 3827 3411 
L 2426 3411 
L 2426 3891 
L 3578 3891 
L 3578 4582 
L 2426 4582 
L 2426 5395 
L 1696 5395 
L 1696 4582 
L 1286 4582 
C 1344 4774 1395 4973 1434 5171 
L 723 5318 
z
M 1696 3411 
L 826 3411 
C 902 3552 979 3712 1050 3891 
L 1696 3891 
L 1696 3411 
z
" transform="scale(0.015625)"/>
      <path id="NotoSansCJKjp-Bold-5ea6" d="M 2470 4058 
L 2470 3635 
L 1606 3635 
L 1606 3034 
L 2470 3034 
L 2470 2029 
L 5120 2029 
L 5120 3034 
L 6048 3034 
L 6048 3635 
L 5120 3635 
L 5120 4058 
L 4371 4058 
L 4371 3635 
L 3194 3635 
L 3194 4058 
L 2470 4058 
z
M 4371 3034 
L 4371 2605 
L 3194 2605 
L 3194 3034 
L 4371 3034 
z
M 4602 1171 
C 4390 960 4128 787 3834 640 
C 3533 787 3277 966 3078 1171 
L 4602 1171 
z
M 1651 1773 
L 1651 1171 
L 2611 1171 
L 2310 1062 
C 2515 787 2765 550 3046 346 
C 2541 198 1971 109 1376 58 
C 1491 -102 1638 -397 1696 -589 
C 2458 -493 3174 -339 3802 -90 
C 4365 -339 5024 -506 5760 -595 
C 5856 -397 6054 -96 6214 64 
C 5638 115 5101 205 4634 339 
C 5094 646 5472 1043 5734 1555 
L 5254 1798 
L 5120 1773 
L 1651 1773 
z
M 710 4858 
L 710 3059 
C 710 2118 666 781 134 -134 
C 307 -211 634 -429 762 -557 
C 1350 442 1446 2016 1446 3059 
L 1446 4173 
L 6086 4173 
L 6086 4858 
L 3802 4858 
L 3802 5440 
L 3002 5440 
L 3002 4858 
L 710 4858 
z
" transform="scale(0.015625)"/>
      <path id="NotoSansCJKjp-Bold-7ef4" d="M 211 435 
L 352 -294 
C 998 -115 1837 102 2637 314 
L 2554 954 
C 1696 755 794 544 211 435 
z
M 371 2643 
C 467 2694 621 2733 1190 2797 
C 979 2490 800 2246 704 2144 
C 499 1907 358 1760 198 1722 
C 275 1549 390 1222 422 1082 
C 589 1178 858 1254 2445 1562 
C 2432 1715 2445 2003 2464 2202 
L 1389 2022 
C 1824 2560 2246 3187 2586 3808 
L 1990 4179 
C 1869 3930 1734 3674 1587 3430 
L 1050 3392 
C 1408 3910 1754 4544 1997 5139 
L 1306 5459 
C 1082 4710 653 3904 512 3706 
C 371 3494 269 3354 134 3322 
C 218 3136 333 2784 371 2643 
z
M 4429 2362 
L 4429 1818 
L 3648 1818 
L 3648 2362 
L 4429 2362 
z
M 4250 5139 
C 4410 4883 4563 4544 4646 4294 
L 3821 4294 
C 3955 4602 4077 4909 4179 5203 
L 3443 5414 
C 3245 4678 2816 3706 2330 3123 
C 2438 2944 2598 2598 2662 2406 
C 2752 2509 2842 2611 2925 2726 
L 2925 -582 
L 3648 -582 
L 3648 -160 
L 6189 -160 
L 6189 550 
L 5139 550 
L 5139 1133 
L 5965 1133 
L 5965 1818 
L 5139 1818 
L 5139 2362 
L 5952 2362 
L 5952 3046 
L 5139 3046 
L 5139 3603 
L 6106 3603 
L 6106 4294 
L 4883 4294 
L 5357 4512 
C 5274 4762 5088 5126 4902 5408 
L 4250 5139 
z
M 4429 3046 
L 3648 3046 
L 3648 3603 
L 4429 3603 
L 4429 3046 
z
M 4429 1133 
L 4429 550 
L 3648 550 
L 3648 1133 
L 4429 1133 
z
" transform="scale(0.015625)"/>
     </defs>
     <use xlink:href="#NotoSansCJKjp-Bold-5236"/>
     <use xlink:href="#NotoSansCJKjp-Bold-5ea6" transform="translate(99.999985 0)"/>
     <use xlink:href="#NotoSansCJKjp-Bold-7ef4" transform="translate(199.999969 0)"/>
     <use xlink:href="#NotoSansCJKjp-Bold-5ea6" transform="translate(299.999954 0)"/>
    </g>
   </g>
   <g id="text_16">
    <g id="patch_15">
     <path d="M 22.608 523.867356 
L 429.509563 523.867356 
Q 432.009563 523.867356 432.009563 521.367356 
L 432.009563 511.076731 
Q 432.009563 508.576731 429.509563 508.576731 
L 22.608 508.576731 
Q 20.108 508.576731 20.108 511.076731 
L 20.108 521.367356 
Q 20.108 523.867356 22.608 523.867356 
z
" style="fill: #ffffff; stroke: #cccccc; stroke-linejoin: miter"/>
    </g>
    <!-- 边宽表示文档级映射强度。该图用于展示第3部分主题识别结果如何回译到 A/B/C 制度维度。 -->
    <g transform="translate(22.608 519.076731) scale(0.1 -0.1)">
     <defs>
      <path id="NotoSansCJKjp-Regular-8fb9" d="M 525 5018 
C 877 4685 1306 4218 1510 3917 
L 1901 4224 
C 1690 4512 1248 4960 896 5280 
L 525 5018 
z
M 3539 5280 
C 3533 4922 3526 4570 3507 4230 
L 2189 4230 
L 2189 3770 
L 3475 3770 
C 3366 2541 3046 1517 2003 896 
C 2131 813 2278 659 2349 544 
C 3482 1261 3840 2400 3974 3770 
L 5395 3770 
C 5312 1971 5222 1267 5062 1094 
C 4998 1024 4928 1011 4806 1018 
C 4659 1018 4301 1018 3923 1050 
C 4013 909 4077 704 4090 557 
C 4442 544 4806 531 4998 550 
C 5216 570 5357 621 5491 787 
C 5709 1050 5798 1824 5888 4000 
C 5894 4064 5894 4230 5894 4230 
L 4006 4230 
C 4026 4570 4038 4922 4045 5280 
L 3539 5280 
z
M 1587 3206 
L 269 3206 
L 269 2733 
L 1107 2733 
L 1107 742 
C 826 627 499 326 154 -58 
L 512 -525 
C 826 -77 1126 333 1331 333 
C 1472 333 1690 102 1958 -77 
C 2419 -371 2963 -442 3795 -442 
C 4442 -442 5626 -403 6080 -371 
C 6093 -224 6170 32 6234 166 
C 5587 96 4608 38 3814 38 
C 3066 38 2502 83 2080 358 
C 1856 499 1709 627 1587 704 
L 1587 3206 
z
" transform="scale(0.015625)"/>
      <path id="NotoSansCJKjp-Regular-5bbd" d="M 3347 1216 
L 3347 186 
C 3347 -301 3520 -435 4173 -435 
C 4314 -435 5210 -435 5357 -435 
C 5946 -435 6093 -205 6150 768 
C 6022 800 5824 870 5715 954 
C 5683 109 5638 -6 5325 -6 
C 5120 -6 4365 -6 4211 -6 
C 3885 -6 3827 19 3827 192 
L 3827 1216 
L 3347 1216 
z
M 2822 2022 
L 2822 1517 
C 2822 998 2643 288 269 -205 
C 384 -307 531 -493 589 -608 
C 3053 -32 3334 832 3334 1504 
L 3334 2022 
L 2822 2022 
z
M 1286 2669 
L 1286 646 
L 1766 646 
L 1766 2253 
L 4602 2253 
L 4602 685 
L 5101 685 
L 5101 2669 
L 1286 2669 
z
M 2765 5299 
C 2848 5146 2931 4966 3008 4806 
L 486 4806 
L 486 3635 
L 934 3635 
L 934 4390 
L 5459 4390 
L 5459 3635 
L 5926 3635 
L 5926 4806 
L 3590 4806 
C 3514 4998 3379 5254 3264 5440 
L 2765 5299 
z
M 3821 4160 
L 3821 3744 
L 2586 3744 
L 2586 4166 
L 2093 4166 
L 2093 3744 
L 1114 3744 
L 1114 3354 
L 2093 3354 
L 2093 2893 
L 2586 2893 
L 2586 3354 
L 3821 3354 
L 3821 2886 
L 4301 2886 
L 4301 3354 
L 5299 3354 
L 5299 3744 
L 4301 3744 
L 4301 4160 
L 3821 4160 
z
" transform="scale(0.015625)"/>
      <path id="NotoSansCJKjp-Regular-8868" d="M 896 -64 
L 1050 -512 
C 1811 -320 2912 -45 3923 224 
L 3872 653 
L 2272 256 
L 2272 1715 
C 2637 1946 2970 2208 3232 2470 
C 3680 1005 4512 -26 5875 -493 
C 5946 -358 6086 -166 6195 -70 
C 5472 147 4896 538 4461 1062 
C 4896 1312 5421 1664 5824 1990 
L 5446 2285 
C 5133 1997 4640 1638 4224 1376 
C 4000 1709 3821 2086 3686 2502 
L 5997 2502 
L 5997 2918 
L 3430 2918 
L 3430 3501 
L 5523 3501 
L 5523 3898 
L 3430 3898 
L 3430 4422 
L 5773 4422 
L 5773 4845 
L 3430 4845 
L 3430 5376 
L 2944 5376 
L 2944 4845 
L 640 4845 
L 640 4422 
L 2944 4422 
L 2944 3898 
L 928 3898 
L 928 3501 
L 2944 3501 
L 2944 2918 
L 403 2918 
L 403 2502 
L 2630 2502 
C 1990 1971 1024 1491 179 1254 
C 282 1152 422 979 493 858 
C 909 998 1363 1197 1798 1434 
L 1798 141 
L 896 -64 
z
" transform="scale(0.015625)"/>
      <path id="NotoSansCJKjp-Regular-793a" d="M 1498 2246 
C 1222 1523 749 813 224 358 
C 346 294 563 154 666 70 
C 1171 563 1677 1325 1990 2112 
L 1498 2246 
z
M 4378 2048 
C 4838 1434 5325 602 5498 64 
L 5978 282 
C 5786 826 5286 1632 4819 2234 
L 4378 2048 
z
M 954 4902 
L 954 4429 
L 5459 4429 
L 5459 4902 
L 954 4902 
z
M 384 3347 
L 384 2874 
L 2950 2874 
L 2950 122 
C 2950 19 2912 -6 2797 -13 
C 2675 -19 2253 -19 1818 0 
C 1894 -147 1971 -358 1990 -506 
C 2560 -506 2938 -499 3162 -422 
C 3392 -339 3469 -198 3469 115 
L 3469 2874 
L 6022 2874 
L 6022 3347 
L 384 3347 
z
" transform="scale(0.015625)"/>
      <path id="NotoSansCJKjp-Regular-6587" d="M 2944 5376 
L 2944 4288 
L 320 4288 
L 320 3821 
L 1274 3821 
C 1638 2797 2138 1920 2803 1216 
C 2118 653 1274 237 250 -58 
C 346 -173 499 -403 557 -518 
C 1594 -186 2458 262 3162 864 
C 3878 230 4755 -237 5824 -512 
C 5907 -378 6061 -154 6176 -45 
C 5133 198 4262 640 3558 1229 
C 4230 1914 4742 2758 5120 3821 
L 6106 3821 
L 6106 4288 
L 3437 4288 
L 3437 5376 
L 2944 5376 
z
M 3187 1574 
C 2579 2195 2118 2950 1798 3821 
L 4563 3821 
C 4230 2912 3782 2170 3187 1574 
z
" transform="scale(0.015625)"/>
      <path id="NotoSansCJKjp-Regular-6863" d="M 5446 4966 
C 5312 4493 5043 3821 4819 3418 
L 5203 3296 
C 5427 3680 5702 4307 5920 4832 
L 5446 4966 
z
M 2541 4806 
C 2752 4346 3002 3725 3110 3334 
L 3526 3501 
C 3411 3891 3155 4486 2931 4954 
L 2541 4806 
z
M 1235 5376 
L 1235 4006 
L 301 4006 
L 301 3552 
L 1158 3552 
C 966 2675 563 1664 166 1120 
C 243 1011 358 819 416 691 
C 723 1120 1018 1837 1235 2566 
L 1235 -506 
L 1690 -506 
L 1690 2714 
C 1888 2394 2125 1997 2221 1786 
L 2515 2157 
C 2400 2336 1862 3085 1690 3302 
L 1690 3552 
L 2496 3552 
L 2496 4006 
L 1690 4006 
L 1690 5376 
L 1235 5376 
z
M 2362 403 
L 2362 -58 
L 5389 -58 
L 5389 -454 
L 5862 -454 
L 5862 3014 
L 4442 3014 
L 4442 5357 
L 3974 5357 
L 3974 3014 
L 2509 3014 
L 2509 2547 
L 5389 2547 
L 5389 1722 
L 2586 1722 
L 2586 1286 
L 5389 1286 
L 5389 403 
L 2362 403 
z
" transform="scale(0.015625)"/>
      <path id="NotoSansCJKjp-Regular-7ea7" d="M 269 358 
L 384 -115 
C 992 115 1792 422 2547 723 
L 2451 1139 
C 1651 845 813 538 269 358 
z
M 2560 4960 
L 2560 4512 
L 3277 4512 
C 3200 2458 2976 794 2106 -230 
C 2221 -294 2445 -448 2528 -525 
C 3078 192 3379 1133 3552 2272 
C 3770 1747 4038 1261 4352 832 
C 3968 403 3507 77 3008 -154 
C 3110 -230 3277 -410 3347 -525 
C 3821 -288 4262 38 4646 467 
C 4998 64 5402 -269 5856 -499 
C 5926 -378 6074 -205 6182 -115 
C 5722 102 5306 429 4947 832 
C 5389 1427 5728 2182 5926 3110 
L 5626 3232 
L 5536 3213 
L 4883 3213 
C 5043 3738 5229 4410 5376 4960 
L 2560 4960 
z
M 3757 4512 
L 4774 4512 
C 4621 3910 4429 3238 4269 2790 
L 5370 2790 
C 5210 2170 4960 1645 4646 1197 
C 4218 1779 3885 2470 3661 3194 
C 3706 3610 3731 4051 3757 4512 
z
M 352 2707 
C 448 2752 602 2790 1427 2899 
C 1133 2477 858 2138 736 2003 
C 538 1760 384 1600 243 1574 
C 294 1453 365 1229 390 1133 
C 531 1235 749 1318 2458 1830 
C 2438 1933 2426 2118 2426 2234 
L 1171 1882 
C 1645 2445 2112 3117 2515 3795 
L 2112 4038 
C 1990 3795 1850 3558 1702 3328 
L 858 3238 
C 1248 3795 1632 4499 1926 5178 
L 1485 5382 
C 1210 4602 723 3770 576 3552 
C 429 3334 320 3187 198 3155 
C 256 3034 326 2803 352 2707 
z
" transform="scale(0.015625)"/>
      <path id="NotoSansCJKjp-Regular-6620" d="M 4032 5344 
L 4032 4352 
L 2803 4352 
L 2803 2234 
L 2374 2234 
L 2374 1792 
L 3930 1792 
C 3750 1018 3283 346 2086 -141 
C 2189 -224 2323 -397 2387 -499 
C 3539 -19 4064 653 4301 1414 
C 4614 518 5126 -154 5888 -531 
C 5958 -410 6093 -230 6202 -141 
C 5414 192 4890 890 4614 1792 
L 6182 1792 
L 6182 2234 
L 5811 2234 
L 5811 4352 
L 4474 4352 
L 4474 5344 
L 4032 5344 
z
M 3238 2234 
L 3238 3910 
L 4032 3910 
L 4032 2906 
C 4032 2675 4026 2451 4000 2234 
L 3238 2234 
z
M 5363 2234 
L 4448 2234 
C 4467 2451 4474 2675 4474 2906 
L 4474 3910 
L 5363 3910 
L 5363 2234 
z
M 1728 2624 
L 1728 1139 
L 928 1139 
L 928 2624 
L 1728 2624 
z
M 1728 3046 
L 928 3046 
L 928 4474 
L 1728 4474 
L 1728 3046 
z
M 486 4909 
L 486 179 
L 928 179 
L 928 704 
L 2176 704 
L 2176 4909 
L 486 4909 
z
" transform="scale(0.015625)"/>
      <path id="NotoSansCJKjp-Regular-5c04" d="M 3494 2528 
C 3776 2061 4038 1440 4122 1050 
L 4563 1229 
C 4474 1626 4192 2227 3898 2688 
L 3494 2528 
z
M 1222 3366 
L 2496 3366 
L 2496 2816 
L 1222 2816 
L 1222 3366 
z
M 1222 3731 
L 1222 4275 
L 2496 4275 
L 2496 3731 
L 1222 3731 
z
M 1222 2451 
L 2496 2451 
L 2496 2189 
L 2349 1984 
L 1222 1843 
L 1222 2451 
z
M 250 1728 
L 320 1293 
C 787 1357 1363 1440 1958 1530 
C 1440 986 813 531 147 205 
C 243 122 410 -58 474 -154 
C 1216 250 1920 806 2496 1485 
L 2496 51 
C 2496 -45 2464 -70 2368 -77 
C 2272 -83 1971 -90 1638 -77 
C 1702 -192 1773 -390 1792 -512 
C 2246 -512 2534 -506 2714 -429 
C 2880 -352 2944 -218 2944 45 
L 2944 2074 
C 3053 2234 3155 2406 3251 2579 
L 2944 2682 
L 2944 4659 
L 1914 4659 
C 2010 4851 2106 5082 2195 5299 
L 1651 5382 
C 1606 5171 1510 4883 1421 4659 
L 787 4659 
L 787 1792 
L 250 1728 
z
M 4973 5344 
L 4973 3802 
L 3187 3802 
L 3187 3354 
L 4973 3354 
L 4973 102 
C 4973 -13 4928 -45 4813 -51 
C 4710 -51 4352 -58 3949 -45 
C 4019 -173 4102 -384 4128 -506 
C 4666 -512 4979 -499 5178 -416 
C 5370 -339 5446 -198 5446 102 
L 5446 3354 
L 6144 3354 
L 6144 3802 
L 5446 3802 
L 5446 5344 
L 4973 5344 
z
" transform="scale(0.015625)"/>
      <path id="NotoSansCJKjp-Regular-5f3a" d="M 3309 4621 
L 5184 4621 
L 5184 3757 
L 3309 3757 
L 3309 4621 
z
M 2867 5024 
L 2867 3347 
L 4006 3347 
L 4006 2861 
L 2733 2861 
L 2733 1178 
L 4006 1178 
L 4006 205 
L 2445 115 
L 2515 -352 
C 3328 -294 4480 -211 5587 -122 
C 5664 -275 5728 -422 5773 -550 
L 6195 -352 
C 6061 32 5702 602 5370 1037 
L 4973 858 
C 5101 685 5235 493 5350 294 
L 4461 237 
L 4461 1178 
L 5805 1178 
L 5805 2861 
L 4461 2861 
L 4461 3347 
L 5638 3347 
L 5638 5024 
L 2867 5024 
z
M 3155 2458 
L 4006 2458 
L 4006 1581 
L 3155 1581 
L 3155 2458 
z
M 4461 2458 
L 5363 2458 
L 5363 1581 
L 4461 1581 
L 4461 2458 
z
M 531 3571 
C 480 2950 378 2118 288 1613 
L 730 1555 
L 768 1811 
L 1907 1811 
C 1830 595 1741 115 1619 -13 
C 1562 -77 1498 -83 1395 -83 
C 1286 -83 1011 -83 717 -58 
C 787 -179 838 -365 851 -499 
C 1139 -512 1440 -518 1594 -506 
C 1779 -486 1901 -442 2010 -314 
C 2202 -102 2291 474 2387 2035 
C 2394 2106 2400 2246 2400 2246 
L 826 2246 
L 928 3130 
L 2330 3130 
L 2330 5043 
L 371 5043 
L 371 4602 
L 1882 4602 
L 1882 3571 
L 531 3571 
z
" transform="scale(0.015625)"/>
      <path id="NotoSansCJKjp-Regular-5ea6" d="M 2470 4141 
L 2470 3584 
L 1440 3584 
L 1440 3187 
L 2470 3187 
L 2470 2125 
L 4960 2125 
L 4960 3187 
L 5997 3187 
L 5997 3584 
L 4960 3584 
L 4960 4141 
L 4486 4141 
L 4486 3584 
L 2931 3584 
L 2931 4141 
L 2470 4141 
z
M 4486 3187 
L 4486 2509 
L 2931 2509 
L 2931 3187 
L 4486 3187 
z
M 4851 1318 
C 4582 986 4211 717 3770 506 
C 3334 723 2970 992 2720 1318 
L 4851 1318 
z
M 1530 1715 
L 1530 1318 
L 2502 1318 
L 2259 1222 
C 2515 858 2861 550 3270 301 
C 2662 90 1978 -38 1280 -109 
C 1357 -211 1453 -397 1485 -512 
C 2291 -416 3072 -243 3757 45 
C 4365 -237 5088 -422 5869 -525 
C 5933 -403 6048 -211 6150 -109 
C 5466 -38 4819 96 4269 294 
C 4813 608 5261 1024 5549 1574 
L 5248 1734 
L 5165 1715 
L 1530 1715 
z
M 774 4742 
L 774 2893 
C 774 1965 730 659 198 -256 
C 314 -307 512 -435 595 -518 
C 1152 448 1235 1901 1235 2893 
L 1235 4307 
L 6035 4307 
L 6035 4742 
L 3635 4742 
L 3635 5376 
L 3142 5376 
L 3142 4742 
L 774 4742 
z
" transform="scale(0.015625)"/>
      <path id="NotoSansCJKjp-Regular-3002" d="M 1242 1562 
C 710 1562 269 1126 269 589 
C 269 45 710 -390 1242 -390 
C 1786 -390 2221 45 2221 589 
C 2221 1126 1786 1562 1242 1562 
z
M 1242 -64 
C 890 -64 595 224 595 589 
C 595 941 890 1235 1242 1235 
C 1606 1235 1894 941 1894 589 
C 1894 224 1606 -64 1242 -64 
z
" transform="scale(0.015625)"/>
      <path id="NotoSansCJKjp-Regular-8be5" d="M 736 5030 
C 1056 4691 1453 4230 1632 3936 
L 1997 4243 
C 1811 4531 1408 4979 1088 5299 
L 736 5030 
z
M 294 3386 
L 294 2918 
L 1312 2918 
L 1312 544 
C 1312 230 1114 6 998 -90 
C 1075 -166 1210 -339 1267 -442 
C 1357 -320 1517 -192 2522 538 
C 2477 634 2413 819 2381 947 
L 1779 531 
L 1779 3386 
L 294 3386 
z
M 3770 5286 
C 3898 5056 4026 4768 4096 4538 
L 2304 4538 
L 2304 4090 
L 3686 4090 
C 3437 3731 3027 3174 2886 3040 
C 2771 2925 2573 2874 2438 2842 
C 2483 2733 2573 2496 2598 2374 
C 2726 2426 2925 2458 4230 2547 
C 3712 2022 3040 1562 2323 1254 
C 2406 1165 2541 986 2598 877 
C 3821 1434 4864 2374 5459 3405 
L 4992 3565 
C 4890 3366 4762 3174 4614 2982 
L 3386 2912 
C 3648 3258 3994 3731 4237 4090 
L 6035 4090 
L 6035 4538 
L 4621 4538 
C 4563 4774 4410 5139 4237 5408 
L 3770 5286 
z
M 5510 2438 
C 4883 1350 3571 384 2061 -128 
C 2150 -230 2285 -416 2349 -538 
C 3136 -250 3859 147 4480 621 
C 4922 262 5421 -166 5683 -442 
L 6054 -128 
C 5773 147 5267 563 4826 902 
C 5293 1306 5696 1760 6003 2246 
L 5510 2438 
z
" transform="scale(0.015625)"/>
      <path id="NotoSansCJKjp-Regular-56fe" d="M 2400 1786 
C 2912 1677 3565 1453 3923 1274 
L 4122 1600 
C 3763 1766 3117 1978 2605 2080 
L 2400 1786 
z
M 1760 973 
C 2643 864 3750 608 4365 390 
L 4576 749 
C 3955 954 2848 1203 1984 1299 
L 1760 973 
z
M 538 5094 
L 538 -512 
L 998 -512 
L 998 -243 
L 5389 -243 
L 5389 -512 
L 5869 -512 
L 5869 5094 
L 538 5094 
z
M 998 186 
L 998 4659 
L 5389 4659 
L 5389 186 
L 998 186 
z
M 2650 4531 
C 2330 4006 1779 3507 1229 3181 
C 1331 3117 1498 2970 1568 2893 
C 1760 3021 1958 3174 2157 3347 
C 2349 3142 2586 2950 2842 2778 
C 2298 2522 1683 2330 1114 2214 
C 1197 2125 1299 1939 1344 1824 
C 1971 1971 2643 2208 3251 2534 
C 3782 2246 4390 2029 4998 1894 
C 5056 2010 5178 2176 5267 2259 
C 4704 2362 4141 2534 3642 2765 
C 4122 3078 4525 3443 4794 3878 
L 4518 4038 
L 4448 4019 
L 2790 4019 
C 2886 4141 2976 4262 3053 4390 
L 2650 4531 
z
M 2419 3603 
L 2464 3648 
L 4122 3648 
C 3891 3398 3584 3174 3238 2976 
C 2912 3162 2630 3373 2419 3603 
z
" transform="scale(0.015625)"/>
      <path id="NotoSansCJKjp-Regular-7528" d="M 979 4928 
L 979 2605 
C 979 1702 915 570 205 -230 
C 314 -288 506 -448 576 -544 
C 1069 0 1286 736 1382 1453 
L 2989 1453 
L 2989 -454 
L 3475 -454 
L 3475 1453 
L 5203 1453 
L 5203 141 
C 5203 26 5158 -13 5030 -19 
C 4909 -26 4474 -32 4026 -13 
C 4090 -141 4166 -352 4192 -474 
C 4794 -480 5165 -474 5382 -397 
C 5600 -320 5677 -173 5677 141 
L 5677 4928 
L 979 4928 
z
M 1453 4467 
L 2989 4467 
L 2989 3437 
L 1453 3437 
L 1453 4467 
z
M 5203 4467 
L 5203 3437 
L 3475 3437 
L 3475 4467 
L 5203 4467 
z
M 1453 2982 
L 2989 2982 
L 2989 1907 
L 1427 1907 
C 1446 2150 1453 2387 1453 2605 
L 1453 2982 
z
M 5203 2982 
L 5203 1907 
L 3475 1907 
L 3475 2982 
L 5203 2982 
z
" transform="scale(0.015625)"/>
      <path id="NotoSansCJKjp-Regular-4e8e" d="M 794 4922 
L 794 4442 
L 3008 4442 
L 3008 2822 
L 352 2822 
L 352 2342 
L 3008 2342 
L 3008 192 
C 3008 58 2957 19 2816 19 
C 2675 13 2182 6 1658 26 
C 1734 -115 1824 -339 1856 -480 
C 2515 -480 2938 -474 3174 -390 
C 3418 -314 3514 -160 3514 192 
L 3514 2342 
L 6054 2342 
L 6054 2822 
L 3514 2822 
L 3514 4442 
L 5606 4442 
L 5606 4922 
L 794 4922 
z
" transform="scale(0.015625)"/>
      <path id="NotoSansCJKjp-Regular-5c55" d="M 5376 1389 
C 5133 1184 4742 928 4416 736 
C 4211 934 4038 1165 3904 1421 
L 6086 1421 
L 6086 1843 
L 4742 1843 
L 4742 2496 
L 5824 2496 
L 5824 2906 
L 4742 2906 
L 4742 3494 
L 5702 3494 
L 5702 5069 
L 902 5069 
L 902 3187 
C 902 2163 845 736 198 -269 
C 320 -320 531 -442 627 -518 
C 1293 531 1382 2099 1382 3187 
L 1382 3494 
L 2560 3494 
L 2560 2906 
L 1594 2906 
L 1594 2496 
L 2560 2496 
L 2560 1843 
L 1395 1843 
L 1395 1421 
L 2214 1421 
L 2214 122 
L 1478 19 
L 1555 -429 
C 2221 -314 3155 -160 4038 -6 
L 4019 410 
L 2662 192 
L 2662 1421 
L 3450 1421 
C 3891 429 4704 -237 5856 -525 
C 5920 -403 6048 -224 6150 -128 
C 5587 -13 5101 198 4710 486 
C 5043 659 5434 902 5741 1133 
L 5376 1389 
z
M 3002 2496 
L 4288 2496 
L 4288 1843 
L 3002 1843 
L 3002 2496 
z
M 3002 2906 
L 3002 3494 
L 4288 3494 
L 4288 2906 
L 3002 2906 
z
M 1382 4653 
L 5222 4653 
L 5222 3910 
L 1382 3910 
L 1382 4653 
z
" transform="scale(0.015625)"/>
      <path id="NotoSansCJKjp-Regular-7b2c" d="M 1133 2566 
C 1037 2061 877 1421 742 1005 
L 1216 934 
L 1280 1158 
L 2547 1158 
C 1965 640 1069 198 275 -26 
C 378 -115 518 -288 589 -410 
C 1414 -134 2342 390 2963 1005 
L 2963 -512 
L 3430 -512 
L 3430 1158 
L 5363 1158 
C 5299 576 5229 326 5139 237 
C 5082 192 5024 186 4909 186 
C 4794 179 4493 186 4179 218 
C 4256 96 4307 -90 4314 -224 
C 4646 -243 4960 -243 5120 -230 
C 5299 -218 5421 -179 5530 -70 
C 5690 90 5779 480 5869 1376 
C 5875 1440 5882 1568 5882 1568 
L 3430 1568 
L 3430 2163 
L 5510 2163 
L 5510 3622 
L 826 3622 
L 826 3213 
L 2963 3213 
L 2963 2566 
L 1133 2566 
z
M 1523 2163 
L 2963 2163 
L 2963 1568 
L 1382 1568 
L 1523 2163 
z
M 3430 3213 
L 5037 3213 
L 5037 2566 
L 3430 2566 
L 3430 3213 
z
M 1178 5408 
C 966 4838 614 4269 211 3898 
C 326 3834 518 3706 608 3635 
C 819 3846 1024 4128 1210 4435 
L 1446 4435 
C 1581 4179 1702 3878 1747 3674 
L 2170 3840 
C 2125 3994 2029 4224 1926 4435 
L 3110 4435 
L 3110 4819 
L 1421 4819 
C 1498 4973 1562 5126 1626 5286 
L 1178 5408 
z
M 3699 5408 
C 3488 4832 3104 4294 2650 3942 
C 2765 3885 2963 3744 3046 3667 
C 3283 3872 3507 4141 3706 4435 
L 4160 4435 
C 4352 4179 4544 3872 4621 3661 
L 5043 3827 
C 4973 4000 4826 4230 4672 4435 
L 6099 4435 
L 6099 4819 
L 3936 4819 
C 4019 4973 4090 5133 4154 5293 
L 3699 5408 
z
" transform="scale(0.015625)"/>
      <path id="NotoSansCJKjp-Regular-90e8" d="M 269 2893 
L 269 2458 
L 3578 2458 
L 3578 2893 
L 269 2893 
z
M 832 4019 
C 960 3686 1075 3258 1101 2970 
L 1530 3078 
C 1491 3354 1376 3782 1229 4102 
L 832 4019 
z
M 2662 4147 
C 2586 3827 2432 3354 2304 3059 
L 2694 2950 
C 2829 3232 2982 3661 3123 4038 
L 2662 4147 
z
M 3840 4998 
L 3840 -512 
L 4307 -512 
L 4307 4544 
L 5523 4544 
C 5318 4032 5043 3334 4768 2797 
C 5421 2234 5606 1747 5613 1350 
C 5613 1114 5562 928 5427 838 
C 5350 794 5254 774 5146 768 
C 5024 762 4838 762 4646 781 
C 4730 640 4774 442 4781 307 
C 4973 294 5178 294 5344 314 
C 5504 333 5645 378 5760 454 
C 5984 602 6080 902 6080 1299 
C 6074 1754 5914 2259 5267 2861 
C 5568 3443 5901 4186 6157 4794 
L 5811 5018 
L 5728 4998 
L 3840 4998 
z
M 1715 5350 
L 1715 4666 
L 429 4666 
L 429 4237 
L 3488 4237 
L 3488 4666 
L 2182 4666 
L 2182 5350 
L 1715 5350 
z
M 698 1894 
L 698 -518 
L 1146 -518 
L 1146 -141 
L 2752 -141 
L 2752 -486 
L 3219 -486 
L 3219 1894 
L 698 1894 
z
M 1146 288 
L 1146 1472 
L 2752 1472 
L 2752 288 
L 1146 288 
z
" transform="scale(0.015625)"/>
      <path id="NotoSansCJKjp-Regular-5206" d="M 2074 5248 
C 1677 4256 966 3373 147 2829 
C 262 2739 474 2554 563 2451 
C 1363 3059 2118 4019 2586 5101 
L 2074 5248 
z
M 4307 5261 
L 3846 5075 
C 4326 4122 5139 3085 5850 2509 
C 5939 2643 6118 2829 6253 2931 
C 5549 3424 4723 4397 4307 5261 
z
M 1197 2957 
L 1197 2490 
L 2509 2490 
C 2368 1402 2010 378 486 -122 
C 595 -224 736 -416 800 -544 
C 2445 51 2854 1216 3027 2490 
L 4685 2490 
C 4608 864 4512 224 4346 58 
C 4282 -6 4205 -26 4077 -26 
C 3923 -26 3533 -19 3110 19 
C 3200 -115 3258 -320 3270 -461 
C 3674 -486 4070 -493 4288 -474 
C 4506 -454 4653 -410 4781 -243 
C 5005 0 5094 736 5190 2726 
C 5197 2790 5197 2957 5197 2957 
L 1197 2957 
z
" transform="scale(0.015625)"/>
      <path id="NotoSansCJKjp-Regular-4e3b" d="M 2394 5088 
C 2784 4800 3232 4390 3488 4096 
L 659 4096 
L 659 3629 
L 2938 3629 
L 2938 2221 
L 954 2221 
L 954 1754 
L 2938 1754 
L 2938 173 
L 358 173 
L 358 -294 
L 6067 -294 
L 6067 173 
L 3456 173 
L 3456 1754 
L 5478 1754 
L 5478 2221 
L 3456 2221 
L 3456 3629 
L 5741 3629 
L 5741 4096 
L 3661 4096 
L 3968 4320 
C 3712 4621 3194 5056 2784 5350 
L 2394 5088 
z
" transform="scale(0.015625)"/>
      <path id="NotoSansCJKjp-Regular-9898" d="M 1126 3936 
L 2432 3936 
L 2432 3450 
L 1126 3450 
L 1126 3936 
z
M 1126 4755 
L 2432 4755 
L 2432 4275 
L 1126 4275 
L 1126 4755 
z
M 691 5107 
L 691 3098 
L 2880 3098 
L 2880 5107 
L 691 5107 
z
M 4448 3392 
C 4403 1734 4275 915 2931 493 
C 3014 416 3123 269 3162 173 
C 4621 659 4806 1587 4851 3392 
L 4448 3392 
z
M 4672 1190 
C 5075 902 5568 480 5811 211 
L 6106 506 
C 5850 768 5344 1171 4954 1446 
L 4672 1190 
z
M 794 1933 
C 762 1005 640 237 211 -262 
C 314 -314 493 -435 563 -499 
C 800 -192 954 179 1050 627 
C 1626 -224 2566 -371 3930 -371 
L 5990 -371 
C 6016 -250 6093 -58 6163 38 
C 5792 26 4224 26 3936 26 
C 3168 32 2528 70 2029 275 
L 2029 1190 
L 3091 1190 
L 3091 1562 
L 2029 1562 
L 2029 2246 
L 3206 2246 
L 3206 2624 
L 314 2624 
L 314 2246 
L 1613 2246 
L 1613 518 
C 1421 672 1261 870 1139 1126 
C 1171 1370 1190 1632 1203 1907 
L 794 1933 
z
M 3456 4070 
L 3456 1376 
L 3859 1376 
L 3859 3706 
L 5382 3706 
L 5382 1402 
L 5805 1402 
L 5805 4070 
L 4602 4070 
C 4678 4250 4762 4474 4845 4691 
L 6112 4691 
L 6112 5082 
L 3194 5082 
L 3194 4691 
L 4358 4691 
C 4301 4480 4230 4250 4160 4070 
L 3456 4070 
z
" transform="scale(0.015625)"/>
      <path id="NotoSansCJKjp-Regular-8bc6" d="M 3283 4461 
L 5222 4461 
L 5222 2547 
L 3283 2547 
L 3283 4461 
z
M 2810 4922 
L 2810 2086 
L 5715 2086 
L 5715 4922 
L 2810 4922 
z
M 4723 1312 
C 5062 755 5421 6 5562 -454 
L 6035 -262 
C 5894 192 5517 922 5158 1472 
L 4723 1312 
z
M 3264 1459 
C 3078 806 2739 179 2310 -230 
C 2426 -294 2643 -429 2733 -506 
C 3162 -58 3539 627 3757 1350 
L 3264 1459 
z
M 653 4922 
C 998 4621 1434 4205 1645 3936 
L 1978 4269 
C 1766 4531 1318 4934 966 5210 
L 653 4922 
z
M 320 3366 
L 320 2906 
L 1222 2906 
L 1222 685 
C 1222 346 986 96 864 -6 
C 947 -77 1101 -237 1158 -333 
C 1254 -205 1434 -64 2547 806 
C 2490 896 2400 1088 2362 1216 
L 1690 704 
L 1690 3366 
L 320 3366 
z
" transform="scale(0.015625)"/>
      <path id="NotoSansCJKjp-Regular-522b" d="M 4006 4608 
L 4006 1056 
L 4474 1056 
L 4474 4608 
L 4006 4608 
z
M 5363 5254 
L 5363 115 
C 5363 0 5325 -32 5203 -38 
C 5088 -45 4717 -45 4282 -32 
C 4358 -173 4429 -390 4454 -518 
C 5024 -518 5363 -506 5568 -422 
C 5760 -346 5843 -198 5843 122 
L 5843 5254 
L 5363 5254 
z
M 1037 4659 
L 2688 4659 
L 2688 3430 
L 1037 3430 
L 1037 4659 
z
M 595 5094 
L 595 2989 
L 3149 2989 
L 3149 5094 
L 595 5094 
z
M 1504 2829 
L 1472 2272 
L 358 2272 
L 358 1837 
L 1427 1837 
C 1312 947 1024 243 211 -179 
C 314 -256 454 -422 512 -538 
C 1427 -32 1747 800 1882 1837 
L 2771 1837 
C 2714 634 2650 173 2547 58 
C 2496 0 2438 -13 2342 -13 
C 2240 -13 1990 -13 1715 13 
C 1792 -115 1843 -301 1850 -448 
C 2131 -461 2413 -461 2560 -442 
C 2733 -429 2842 -384 2950 -250 
C 3117 -58 3181 518 3251 2061 
C 3251 2131 3258 2272 3258 2272 
L 1926 2272 
L 1958 2829 
L 1504 2829 
z
" transform="scale(0.015625)"/>
      <path id="NotoSansCJKjp-Regular-7ed3" d="M 224 339 
L 307 -154 
C 941 -13 1792 166 2598 352 
L 2560 794 
C 1702 621 819 435 224 339 
z
M 358 2733 
C 454 2778 614 2810 1427 2906 
C 1139 2502 870 2182 749 2061 
C 538 1830 390 1677 243 1645 
C 301 1517 378 1280 403 1178 
C 557 1261 787 1312 2573 1638 
C 2560 1741 2541 1933 2547 2061 
L 1120 1830 
C 1638 2387 2144 3066 2579 3757 
L 2138 4026 
C 2016 3795 1875 3565 1728 3341 
L 877 3270 
C 1254 3802 1626 4480 1914 5133 
L 1421 5338 
C 1165 4589 704 3795 557 3590 
C 422 3386 307 3238 192 3213 
C 250 3078 333 2835 358 2733 
z
M 4090 5382 
L 4090 4518 
L 2611 4518 
L 2611 4058 
L 4090 4058 
L 4090 3059 
L 2771 3059 
L 2771 2598 
L 5926 2598 
L 5926 3059 
L 4582 3059 
L 4582 4058 
L 6035 4058 
L 6035 4518 
L 4582 4518 
L 4582 5382 
L 4090 5382 
z
M 2938 1946 
L 2938 -506 
L 3405 -506 
L 3405 -230 
L 5286 -230 
L 5286 -480 
L 5766 -480 
L 5766 1946 
L 2938 1946 
z
M 3405 205 
L 3405 1510 
L 5286 1510 
L 5286 205 
L 3405 205 
z
" transform="scale(0.015625)"/>
      <path id="NotoSansCJKjp-Regular-679c" d="M 1018 5069 
L 1018 2522 
L 2950 2522 
L 2950 1978 
L 397 1978 
L 397 1536 
L 2560 1536 
C 1984 922 1069 371 230 96 
C 339 -6 486 -179 563 -301 
C 1408 19 2330 627 2950 1331 
L 2950 -512 
L 3456 -512 
L 3456 1363 
C 4090 678 5024 58 5850 -269 
C 5920 -147 6074 32 6176 134 
C 5370 403 4442 947 3846 1536 
L 6010 1536 
L 6010 1978 
L 3456 1978 
L 3456 2522 
L 5427 2522 
L 5427 5069 
L 1018 5069 
z
M 1510 3603 
L 2950 3603 
L 2950 2938 
L 1510 2938 
L 1510 3603 
z
M 3456 3603 
L 4909 3603 
L 4909 2938 
L 3456 2938 
L 3456 3603 
z
M 1510 4653 
L 2950 4653 
L 2950 4000 
L 1510 4000 
L 1510 4653 
z
M 3456 4653 
L 4909 4653 
L 4909 4000 
L 3456 4000 
L 3456 4653 
z
" transform="scale(0.015625)"/>
      <path id="NotoSansCJKjp-Regular-5982" d="M 3405 4685 
L 3405 -352 
L 3866 -352 
L 3866 134 
L 5434 134 
L 5434 -250 
L 5914 -250 
L 5914 4685 
L 3405 4685 
z
M 3866 589 
L 3866 4230 
L 5434 4230 
L 5434 589 
L 3866 589 
z
M 1363 5382 
C 1280 4986 1184 4531 1075 4070 
L 282 4070 
L 282 3603 
L 966 3603 
C 774 2797 563 2003 390 1446 
L 800 1248 
L 883 1530 
C 1152 1376 1421 1197 1683 1018 
C 1338 480 896 109 371 -122 
C 474 -218 595 -397 659 -518 
C 1229 -230 1702 166 2067 730 
C 2394 480 2675 224 2861 6 
L 3149 410 
C 2950 640 2650 896 2304 1146 
C 2662 1862 2893 2797 2989 4019 
L 2688 4077 
L 2605 4070 
L 1549 4070 
L 1837 5325 
L 1363 5382 
z
M 1434 3603 
L 2490 3603 
C 2387 2714 2195 1997 1914 1421 
C 1613 1619 1306 1805 1005 1965 
C 1146 2464 1293 3034 1434 3603 
z
" transform="scale(0.015625)"/>
      <path id="NotoSansCJKjp-Regular-4f55" d="M 2176 4755 
L 2176 4294 
L 5210 4294 
L 5210 154 
C 5210 26 5171 -13 5037 -13 
C 4896 -26 4422 -26 3910 -6 
C 3987 -154 4064 -365 4083 -506 
C 4710 -506 5139 -493 5370 -422 
C 5606 -339 5690 -192 5690 147 
L 5690 4294 
L 6163 4294 
L 6163 4755 
L 2176 4755 
z
M 2816 2963 
L 3923 2963 
L 3923 1600 
L 2816 1600 
L 2816 2963 
z
M 2362 3392 
L 2362 730 
L 2816 730 
L 2816 1178 
L 4371 1178 
L 4371 3392 
L 2362 3392 
z
M 1709 5370 
C 1376 4416 826 3456 237 2842 
C 326 2733 467 2477 512 2368 
C 717 2592 915 2854 1107 3136 
L 1107 -506 
L 1581 -506 
L 1581 3930 
C 1805 4352 1997 4794 2157 5235 
L 1709 5370 
z
" transform="scale(0.015625)"/>
      <path id="NotoSansCJKjp-Regular-56de" d="M 2394 3200 
L 3955 3200 
L 3955 1734 
L 2394 1734 
L 2394 3200 
z
M 1939 3635 
L 1939 1306 
L 4429 1306 
L 4429 3635 
L 1939 3635 
z
M 525 5114 
L 525 -506 
L 1018 -506 
L 1018 -160 
L 5370 -160 
L 5370 -506 
L 5882 -506 
L 5882 5114 
L 525 5114 
z
M 1018 294 
L 1018 4634 
L 5370 4634 
L 5370 294 
L 1018 294 
z
" transform="scale(0.015625)"/>
      <path id="NotoSansCJKjp-Regular-8bd1" d="M 646 4992 
C 922 4646 1248 4179 1389 3878 
L 1779 4160 
C 1626 4448 1293 4902 1005 5229 
L 646 4992 
z
M 3910 2637 
L 3910 2074 
L 2637 2074 
L 2637 1645 
L 3910 1645 
L 3910 960 
L 2285 960 
L 2285 781 
L 2182 1030 
L 1664 646 
L 1664 3373 
L 301 3373 
L 301 2912 
L 1197 2912 
L 1197 621 
C 1197 307 998 90 883 -6 
C 966 -77 1101 -256 1152 -358 
C 1242 -237 1389 -109 2285 576 
L 2285 531 
L 3910 531 
L 3910 -525 
L 4384 -525 
L 4384 531 
L 6080 531 
L 6080 960 
L 4384 960 
L 4384 1645 
L 5664 1645 
L 5664 2074 
L 4384 2074 
L 4384 2637 
L 3910 2637 
z
M 5133 4608 
C 4890 4262 4563 3955 4179 3693 
C 3827 3955 3526 4262 3302 4608 
L 5133 4608 
z
M 2368 5037 
L 2368 4608 
L 2829 4608 
C 3078 4166 3411 3782 3802 3450 
C 3258 3136 2643 2899 2048 2758 
C 2138 2662 2253 2470 2304 2349 
C 2950 2528 3603 2803 4186 3168 
C 4691 2829 5280 2573 5920 2413 
C 5990 2541 6118 2726 6221 2816 
C 5619 2944 5062 3149 4576 3430 
C 5101 3827 5542 4307 5830 4883 
L 5517 5056 
L 5434 5037 
L 2368 5037 
z
" transform="scale(0.015625)"/>
      <path id="NotoSansCJKjp-Regular-5230" d="M 3885 4608 
L 3885 1056 
L 4352 1056 
L 4352 4608 
L 3885 4608 
z
M 5402 5197 
L 5402 134 
C 5402 19 5370 -13 5254 -19 
C 5126 -19 4723 -26 4294 -13 
C 4371 -154 4442 -378 4467 -512 
C 4986 -512 5370 -499 5587 -422 
C 5792 -346 5869 -198 5869 134 
L 5869 5197 
L 5402 5197 
z
M 2349 3994 
C 2522 3795 2701 3565 2861 3334 
L 1382 3264 
C 1562 3648 1747 4115 1914 4518 
L 3610 4518 
L 3610 4960 
L 326 4960 
L 326 4518 
L 1370 4518 
C 1248 4115 1069 3622 896 3245 
L 307 3219 
L 346 2765 
L 3136 2925 
C 3226 2778 3296 2643 3354 2528 
L 3731 2758 
C 3546 3149 3098 3750 2714 4192 
L 2349 3994 
z
M 256 160 
L 326 -320 
C 1184 -205 2445 -19 3635 147 
L 3622 595 
L 2208 410 
L 2208 1472 
L 3424 1472 
L 3424 1907 
L 2208 1907 
L 2208 2675 
L 1734 2675 
L 1734 1907 
L 512 1907 
L 512 1472 
L 1734 1472 
L 1734 346 
L 256 160 
z
" transform="scale(0.015625)"/>
      <path id="NotoSansCJKjp-Regular-20" transform="scale(0.015625)"/>
      <path id="NotoSansCJKjp-Regular-41" d="M 26 0 
L 621 0 
L 1075 1434 
L 2790 1434 
L 3238 0 
L 3866 0 
L 2272 4691 
L 1613 4691 
L 26 0 
z
M 1222 1901 
L 1453 2624 
C 1619 3155 1773 3661 1920 4211 
L 1946 4211 
C 2099 3667 2246 3155 2419 2624 
L 2643 1901 
L 1222 1901 
z
" transform="scale(0.015625)"/>
      <path id="NotoSansCJKjp-Regular-2f" d="M 70 -1146 
L 499 -1146 
L 2413 5082 
L 1990 5082 
L 70 -1146 
z
" transform="scale(0.015625)"/>
      <path id="NotoSansCJKjp-Regular-42" d="M 646 0 
L 2138 0 
C 3187 0 3917 454 3917 1376 
C 3917 2016 3520 2387 2963 2496 
L 2963 2528 
C 3405 2669 3648 3078 3648 3546 
C 3648 4371 2982 4691 2035 4691 
L 646 4691 
L 646 0 
z
M 1235 2701 
L 1235 4224 
L 1958 4224 
C 2694 4224 3066 4019 3066 3469 
C 3066 2989 2739 2701 1933 2701 
L 1235 2701 
z
M 1235 474 
L 1235 2240 
L 2054 2240 
C 2880 2240 3334 1978 3334 1395 
C 3334 762 2861 474 2054 474 
L 1235 474 
z
" transform="scale(0.015625)"/>
      <path id="NotoSansCJKjp-Regular-43" d="M 2413 -83 
C 3021 -83 3482 160 3853 589 
L 3526 966 
C 3226 634 2886 435 2438 435 
C 1542 435 979 1178 979 2362 
C 979 3533 1574 4256 2458 4256 
C 2861 4256 3168 4077 3418 3814 
L 3738 4198 
C 3469 4499 3021 4774 2451 4774 
C 1261 4774 371 3859 371 2342 
C 371 819 1242 -83 2413 -83 
z
" transform="scale(0.015625)"/>
      <path id="NotoSansCJKjp-Regular-5236" d="M 4326 4787 
L 4326 1242 
L 4781 1242 
L 4781 4787 
L 4326 4787 
z
M 5466 5312 
L 5466 147 
C 5466 45 5434 13 5338 13 
C 5216 6 4858 6 4480 19 
C 4544 -128 4614 -352 4640 -486 
C 5120 -486 5472 -474 5664 -397 
C 5862 -307 5939 -166 5939 154 
L 5939 5312 
L 5466 5312 
z
M 909 5222 
C 774 4602 557 3962 262 3533 
C 384 3488 595 3405 691 3354 
C 800 3539 909 3763 1011 4013 
L 1850 4013 
L 1850 3341 
L 288 3341 
L 288 2899 
L 1850 2899 
L 1850 2246 
L 582 2246 
L 582 13 
L 1018 13 
L 1018 1811 
L 1850 1811 
L 1850 -506 
L 2310 -506 
L 2310 1811 
L 3200 1811 
L 3200 499 
C 3200 429 3181 410 3110 410 
C 3040 403 2829 403 2560 416 
C 2618 294 2675 122 2694 -6 
C 3046 -6 3296 0 3443 70 
C 3603 147 3642 269 3642 486 
L 3642 2246 
L 2310 2246 
L 2310 2899 
L 3866 2899 
L 3866 3341 
L 2310 3341 
L 2310 4013 
L 3616 4013 
L 3616 4454 
L 2310 4454 
L 2310 5350 
L 1850 5350 
L 1850 4454 
L 1171 4454 
C 1242 4672 1306 4902 1357 5133 
L 909 5222 
z
" transform="scale(0.015625)"/>
      <path id="NotoSansCJKjp-Regular-7ef4" d="M 288 339 
L 378 -115 
C 966 38 1754 230 2502 422 
L 2458 832 
C 1651 646 832 448 288 339 
z
M 4224 5178 
C 4397 4890 4589 4512 4653 4256 
L 5088 4454 
C 5005 4698 4819 5062 4627 5344 
L 4224 5178 
z
M 390 2707 
C 486 2752 634 2790 1421 2893 
C 1146 2477 896 2144 774 2016 
C 582 1779 435 1613 294 1587 
C 352 1472 422 1261 442 1165 
C 570 1242 787 1306 2342 1613 
C 2336 1709 2336 1894 2349 2010 
L 1088 1786 
C 1587 2374 2074 3091 2490 3814 
L 2106 4045 
C 1978 3795 1837 3539 1683 3302 
L 851 3213 
C 1229 3770 1594 4486 1869 5171 
L 1434 5363 
C 1190 4595 742 3757 595 3539 
C 461 3328 352 3168 243 3149 
C 301 3027 371 2803 390 2707 
z
M 4461 2534 
L 4461 1709 
L 3430 1709 
L 3430 2534 
L 4461 2534 
z
M 3494 5344 
C 3277 4602 2822 3674 2310 3078 
C 2387 2976 2502 2771 2554 2662 
C 2701 2829 2842 3014 2976 3213 
L 2976 -518 
L 3430 -518 
L 3430 -51 
L 6125 -51 
L 6125 397 
L 4909 397 
L 4909 1274 
L 5882 1274 
L 5882 1709 
L 4909 1709 
L 4909 2534 
L 5869 2534 
L 5869 2970 
L 4909 2970 
L 4909 3782 
L 6029 3782 
L 6029 4218 
L 3546 4218 
C 3706 4550 3846 4890 3962 5210 
L 3494 5344 
z
M 4461 2970 
L 3430 2970 
L 3430 3782 
L 4461 3782 
L 4461 2970 
z
M 4461 1274 
L 4461 397 
L 3430 397 
L 3430 1274 
L 4461 1274 
z
" transform="scale(0.015625)"/>
     </defs>
     <use xlink:href="#NotoSansCJKjp-Regular-8fb9"/>
     <use xlink:href="#NotoSansCJKjp-Regular-5bbd" transform="translate(99.999985 0)"/>
     <use xlink:href="#NotoSansCJKjp-Regular-8868" transform="translate(199.999969 0)"/>
     <use xlink:href="#NotoSansCJKjp-Regular-793a" transform="translate(299.999954 0)"/>
     <use xlink:href="#NotoSansCJKjp-Regular-6587" transform="translate(399.999939 0)"/>
     <use xlink:href="#NotoSansCJKjp-Regular-6863" transform="translate(499.999924 0)"/>
     <use xlink:href="#NotoSansCJKjp-Regular-7ea7" transform="translate(599.999908 0)"/>
     <use xlink:href="#NotoSansCJKjp-Regular-6620" transform="translate(699.999893 0)"/>
     <use xlink:href="#NotoSansCJKjp-Regular-5c04" transform="translate(799.999878 0)"/>
     <use xlink:href="#NotoSansCJKjp-Regular-5f3a" transform="translate(899.999863 0)"/>
     <use xlink:href="#NotoSansCJKjp-Regular-5ea6" transform="translate(999.999847 0)"/>
     <use xlink:href="#NotoSansCJKjp-Regular-3002" transform="translate(1099.999832 0)"/>
     <use xlink:href="#NotoSansCJKjp-Regular-8be5" transform="translate(1199.999817 0)"/>
     <use xlink:href="#NotoSansCJKjp-Regular-56fe" transform="translate(1299.999802 0)"/>
     <use xlink:href="#NotoSansCJKjp-Regular-7528" transform="translate(1399.999786 0)"/>
     <use xlink:href="#NotoSansCJKjp-Regular-4e8e" transform="translate(1499.999771 0)"/>
     <use xlink:href="#NotoSansCJKjp-Regular-5c55" transform="translate(1599.999756 0)"/>
     <use xlink:href="#NotoSansCJKjp-Regular-793a" transform="translate(1699.999741 0)"/>
     <use xlink:href="#NotoSansCJKjp-Regular-7b2c" transform="translate(1799.999725 0)"/>
     <use xlink:href="#NotoSansCJKjp-Regular-33" transform="translate(1899.99971 0)"/>
     <use xlink:href="#NotoSansCJKjp-Regular-90e8" transform="translate(1955.499695 0)"/>
     <use xlink:href="#NotoSansCJKjp-Regular-5206" transform="translate(2055.49968 0)"/>
     <use xlink:href="#NotoSansCJKjp-Regular-4e3b" transform="translate(2155.499664 0)"/>
     <use xlink:href="#NotoSansCJKjp-Regular-9898" transform="translate(2255.499649 0)"/>
     <use xlink:href="#NotoSansCJKjp-Regular-8bc6" transform="translate(2355.499634 0)"/>
     <use xlink:href="#NotoSansCJKjp-Regular-522b" transform="translate(2455.499619 0)"/>
     <use xlink:href="#NotoSansCJKjp-Regular-7ed3" transform="translate(2555.499603 0)"/>
     <use xlink:href="#NotoSansCJKjp-Regular-679c" transform="translate(2655.499588 0)"/>
     <use xlink:href="#NotoSansCJKjp-Regular-5982" transform="translate(2755.499573 0)"/>
     <use xlink:href="#NotoSansCJKjp-Regular-4f55" transform="translate(2855.499557 0)"/>
     <use xlink:href="#NotoSansCJKjp-Regular-56de" transform="translate(2955.499542 0)"/>
     <use xlink:href="#NotoSansCJKjp-Regular-8bd1" transform="translate(3055.499527 0)"/>
     <use xlink:href="#NotoSansCJKjp-Regular-5230" transform="translate(3155.499512 0)"/>
     <use xlink:href="#NotoSansCJKjp-Regular-20" transform="translate(3255.499496 0)"/>
     <use xlink:href="#NotoSansCJKjp-Regular-41" transform="translate(3277.89949 0)"/>
     <use xlink:href="#NotoSansCJKjp-Regular-2f" transform="translate(3338.699478 0)"/>
     <use xlink:href="#NotoSansCJKjp-Regular-42" transform="translate(3377.899475 0)"/>
     <use xlink:href="#NotoSansCJKjp-Regular-2f" transform="translate(3443.599472 0)"/>
     <use xlink:href="#NotoSansCJKjp-Regular-43" transform="translate(3482.799469 0)"/>
     <use xlink:href="#NotoSansCJKjp-Regular-20" transform="translate(3546.599457 0)"/>
     <use xlink:href="#NotoSansCJKjp-Regular-5236" transform="translate(3568.999451 0)"/>
     <use xlink:href="#NotoSansCJKjp-Regular-5ea6" transform="translate(3668.999435 0)"/>
     <use xlink:href="#NotoSansCJKjp-Regular-7ef4" transform="translate(3768.99942 0)"/>
     <use xlink:href="#NotoSansCJKjp-Regular-5ea6" transform="translate(3868.999405 0)"/>
     <use xlink:href="#NotoSansCJKjp-Regular-3002" transform="translate(3968.99939 0)"/>
    </g>
   </g>
   <g id="text_17">
    <!-- 图4-7 主题变量向制度维度变量的桥梁图 -->
    <g transform="translate(259.072266 19.169531) scale(0.15 -0.15)">
     <defs>
      <path id="NotoSansCJKjp-Bold-56fe" d="M 461 5190 
L 461 -576 
L 1197 -576 
L 1197 -346 
L 5178 -346 
L 5178 -576 
L 5952 -576 
L 5952 5190 
L 461 5190 
z
M 1702 890 
C 2560 794 3616 550 4256 326 
L 1197 326 
L 1197 2234 
C 1306 2080 1421 1862 1472 1715 
C 1824 1798 2176 1907 2528 2042 
L 2291 1709 
C 2829 1600 3507 1370 3885 1190 
L 4198 1664 
C 3834 1824 3232 2010 2720 2118 
C 2893 2195 3072 2272 3238 2362 
C 3731 2112 4282 1920 4838 1798 
C 4909 1939 5050 2138 5178 2278 
L 5178 326 
L 4339 326 
L 4666 845 
C 4006 1062 2925 1299 2048 1389 
L 1702 890 
z
M 2586 4506 
C 2278 4038 1741 3578 1222 3290 
C 1370 3181 1613 2957 1728 2829 
C 1856 2912 1984 3008 2118 3117 
C 2259 2989 2413 2867 2573 2752 
C 2138 2579 1658 2438 1197 2349 
L 1197 4506 
L 2586 4506 
z
M 2656 4506 
L 5178 4506 
L 5178 2381 
C 4736 2464 4288 2586 3885 2739 
C 4320 3040 4691 3392 4954 3789 
L 4525 4045 
L 4416 4013 
L 3008 4013 
C 3085 4109 3162 4211 3226 4307 
L 2656 4506 
z
M 3213 3046 
C 2982 3168 2778 3302 2605 3450 
L 3840 3450 
C 3661 3302 3443 3168 3213 3046 
z
" transform="scale(0.015625)"/>
      <path id="NotoSansCJKjp-Bold-34" d="M 2157 0 
L 3034 0 
L 3034 1229 
L 3597 1229 
L 3597 1946 
L 3034 1946 
L 3034 4742 
L 1901 4742 
L 134 1869 
L 134 1229 
L 2157 1229 
L 2157 0 
z
M 2157 1946 
L 1050 1946 
L 1786 3123 
C 1920 3379 2048 3642 2163 3898 
L 2195 3898 
C 2176 3616 2157 3187 2157 2912 
L 2157 1946 
z
" transform="scale(0.015625)"/>
      <path id="NotoSansCJKjp-Bold-2d" d="M 314 1491 
L 2061 1491 
L 2061 2170 
L 314 2170 
L 314 1491 
z
" transform="scale(0.015625)"/>
      <path id="NotoSansCJKjp-Bold-37" d="M 1190 0 
L 2138 0 
C 2221 1850 2368 2822 3469 4166 
L 3469 4742 
L 320 4742 
L 320 3949 
L 2451 3949 
C 1549 2694 1274 1645 1190 0 
z
" transform="scale(0.015625)"/>
      <path id="NotoSansCJKjp-Bold-20" transform="scale(0.015625)"/>
      <path id="NotoSansCJKjp-Bold-5411" d="M 2662 5440 
C 2586 5114 2464 4710 2323 4365 
L 550 4365 
L 550 -570 
L 1318 -570 
L 1318 3610 
L 5101 3610 
L 5101 326 
C 5101 218 5056 186 4941 186 
C 4813 179 4371 173 4000 198 
C 4109 -6 4224 -358 4250 -576 
C 4832 -576 5235 -563 5510 -442 
C 5779 -320 5869 -96 5869 314 
L 5869 4365 
L 3194 4365 
C 3341 4646 3501 4973 3642 5299 
L 2662 5440 
z
M 2637 2323 
L 3750 2323 
L 3750 1466 
L 2637 1466 
L 2637 2323 
z
M 1939 2989 
L 1939 346 
L 2637 346 
L 2637 794 
L 4454 794 
L 4454 2989 
L 1939 2989 
z
" transform="scale(0.015625)"/>
      <path id="NotoSansCJKjp-Bold-7684" d="M 3430 2598 
C 3744 2131 4141 1498 4320 1107 
L 4973 1504 
C 4774 1882 4346 2496 4032 2938 
L 3430 2598 
z
M 3744 5434 
C 3558 4672 3251 3898 2880 3347 
L 2880 4397 
L 1888 4397 
C 1997 4666 2112 4998 2214 5318 
L 1382 5440 
C 1357 5133 1280 4717 1197 4397 
L 467 4397 
L 467 -384 
L 1165 -384 
L 1165 90 
L 2880 90 
L 2880 3098 
C 3053 2989 3270 2829 3379 2726 
C 3578 3002 3770 3354 3942 3744 
L 5318 3744 
C 5254 1478 5171 512 4973 307 
C 4896 218 4826 198 4698 198 
C 4531 198 4147 198 3738 237 
C 3872 26 3974 -301 3987 -512 
C 4365 -525 4755 -531 4998 -499 
C 5261 -454 5440 -384 5613 -141 
C 5882 198 5952 1222 6035 4102 
C 6042 4192 6042 4448 6042 4448 
L 4230 4448 
C 4326 4717 4416 4992 4486 5261 
L 3744 5434 
z
M 1165 3731 
L 2189 3731 
L 2189 2688 
L 1165 2688 
L 1165 3731 
z
M 1165 762 
L 1165 2022 
L 2189 2022 
L 2189 762 
L 1165 762 
z
" transform="scale(0.015625)"/>
      <path id="NotoSansCJKjp-Bold-6865" d="M 1082 5440 
L 1082 4243 
L 256 4243 
L 256 3533 
L 1037 3533 
C 851 2758 512 1856 122 1357 
C 250 1152 416 800 486 582 
C 710 909 909 1382 1082 1901 
L 1082 -570 
L 1779 -570 
L 1779 2400 
C 1894 2163 2003 1926 2061 1766 
L 2394 2150 
C 2528 1997 2726 1709 2797 1562 
C 2963 1670 3123 1786 3264 1920 
L 3264 1600 
C 3264 1062 3142 403 2278 -77 
C 2432 -173 2720 -448 2829 -595 
C 3776 -38 3994 858 3994 1574 
L 3994 2150 
L 3494 2150 
C 3744 2426 3949 2746 4109 3110 
L 4646 3110 
C 4806 2771 5011 2432 5248 2138 
L 4710 2138 
L 4710 -538 
L 5478 -538 
L 5478 1875 
C 5581 1773 5683 1677 5786 1600 
C 5901 1773 6125 2029 6285 2150 
C 5946 2362 5613 2726 5376 3110 
L 6150 3110 
L 6150 3795 
L 4365 3795 
C 4429 4019 4486 4262 4531 4512 
C 5024 4570 5504 4653 5907 4755 
L 5466 5389 
C 4755 5203 3661 5075 2688 5018 
C 2765 4845 2861 4570 2880 4390 
C 3168 4397 3475 4416 3776 4442 
C 3738 4211 3680 4000 3610 3795 
L 2573 3795 
L 2573 3110 
L 3296 3110 
C 3091 2778 2829 2496 2502 2278 
C 2400 2458 1946 3117 1779 3328 
L 1779 3533 
L 2432 3533 
L 2432 4243 
L 1779 4243 
L 1779 5440 
L 1082 5440 
z
" transform="scale(0.015625)"/>
      <path id="NotoSansCJKjp-Bold-6881" d="M 256 4096 
C 602 3981 1056 3795 1280 3654 
L 1594 4211 
C 1350 4339 896 4512 563 4595 
L 256 4096 
z
M 685 4928 
C 1030 4819 1498 4627 1728 4486 
L 2022 5030 
C 1779 5165 1312 5331 966 5414 
L 685 4928 
z
M 410 2566 
L 960 2099 
C 1286 2464 1638 2874 1946 3277 
L 1478 3718 
C 1114 3283 698 2835 410 2566 
z
M 2278 4429 
C 2150 4134 1933 3770 1683 3552 
L 2246 3213 
C 2502 3469 2701 3853 2835 4179 
L 2278 4429 
z
M 2323 5210 
L 2323 4550 
L 3302 4550 
C 3200 3616 2842 3008 2048 2656 
C 2195 2541 2464 2272 2554 2131 
C 2643 2176 2726 2227 2803 2278 
L 2803 1856 
L 346 1856 
L 346 1184 
L 2176 1184 
C 1638 742 890 358 166 147 
C 333 -6 563 -301 685 -499 
C 1446 -211 2227 288 2803 877 
L 2803 -576 
L 3584 -576 
L 3584 851 
C 4173 282 4954 -198 5709 -467 
C 5830 -275 6061 26 6234 179 
C 5498 384 4730 755 4192 1184 
L 6061 1184 
L 6061 1856 
L 3584 1856 
L 3584 2336 
L 2886 2336 
C 3552 2816 3898 3514 4019 4550 
L 4512 4550 
C 4461 3482 4403 3066 4314 2957 
C 4262 2893 4211 2874 4134 2874 
C 4045 2874 3891 2880 3706 2899 
C 3802 2726 3866 2458 3878 2272 
C 4134 2259 4365 2259 4512 2291 
C 4678 2317 4813 2368 4934 2528 
C 5056 2688 5126 3053 5184 3866 
C 5344 3501 5478 3123 5530 2861 
L 6176 3130 
C 6093 3526 5811 4128 5542 4589 
L 5222 4461 
L 5242 4928 
C 5248 5011 5248 5210 5248 5210 
L 2323 5210 
z
" transform="scale(0.015625)"/>
     </defs>
     <use xlink:href="#NotoSansCJKjp-Bold-56fe"/>
     <use xlink:href="#NotoSansCJKjp-Bold-34" transform="translate(99.999985 0)"/>
     <use xlink:href="#NotoSansCJKjp-Bold-2d" transform="translate(158.999969 0)"/>
     <use xlink:href="#NotoSansCJKjp-Bold-37" transform="translate(195.999954 0)"/>
     <use xlink:href="#NotoSansCJKjp-Bold-20" transform="translate(254.999939 0)"/>
     <use xlink:href="#NotoSansCJKjp-Bold-4e3b" transform="translate(277.699936 0)"/>
     <use xlink:href="#NotoSansCJKjp-Bold-9898" transform="translate(377.699921 0)"/>
     <use xlink:href="#NotoSansCJKjp-Bold-53d8" transform="translate(477.699905 0)"/>
     <use xlink:href="#NotoSansCJKjp-Bold-91cf" transform="translate(577.69989 0)"/>
     <use xlink:href="#NotoSansCJKjp-Bold-5411" transform="translate(677.699875 0)"/>
     <use xlink:href="#NotoSansCJKjp-Bold-5236" transform="translate(777.69986 0)"/>
     <use xlink:href="#NotoSansCJKjp-Bold-5ea6" transform="translate(877.699844 0)"/>
     <use xlink:href="#NotoSansCJKjp-Bold-7ef4" transform="translate(977.699829 0)"/>
     <use xlink:href="#NotoSansCJKjp-Bold-5ea6" transform="translate(1077.699814 0)"/>
     <use xlink:href="#NotoSansCJKjp-Bold-53d8" transform="translate(1177.699799 0)"/>
     <use xlink:href="#NotoSansCJKjp-Bold-91cf" transform="translate(1277.699783 0)"/>
     <use xlink:href="#NotoSansCJKjp-Bold-7684" transform="translate(1377.699768 0)"/>
     <use xlink:href="#NotoSansCJKjp-Bold-6865" transform="translate(1477.699753 0)"/>
     <use xlink:href="#NotoSansCJKjp-Bold-6881" transform="translate(1577.699738 0)"/>
     <use xlink:href="#NotoSansCJKjp-Bold-56fe" transform="translate(1677.699722 0)"/>
    </g>
   </g>
  </g>
 </g>
 <defs>
  <clipPath id="p3933e0112b">
   <rect x="7.2" y="33.169531" width="770.4" height="528.16"/>
  </clipPath>
 </defs>
</svg>
