<?xml version="1.0" encoding="utf-8" standalone="no"?>
<!DOCTYPE svg PUBLIC "-//W3C//DTD SVG 1.1//EN"
  "http://www.w3.org/Graphics/SVG/1.1/DTD/svg11.dtd">
<svg xmlns:xlink="http://www.w3.org/1999/xlink" width="928.83pt" height="532.699531pt" viewBox="0 0 928.83 532.699531" xmlns="http://www.w3.org/2000/svg" version="1.1">
 <metadata>
  <rdf:RDF xmlns:dc="http://purl.org/dc/elements/1.1/" xmlns:cc="http://creativecommons.org/ns#" xmlns:rdf="http://www.w3.org/1999/02/22-rdf-syntax-ns#">
   <cc:Work>
    <dc:type rdf:resource="http://purl.org/dc/dcmitype/StillImage"/>
    <dc:date>2026-04-09T09:39:36.337891</dc:date>
    <dc:format>image/svg+xml</dc:format>
    <dc:creator>
     <cc:Agent>
      <dc:title>Matplotlib v3.10.8, https://matplotlib.org/</dc:title>
     </cc:Agent>
    </dc:creator>
   </cc:Work>
  </rdf:RDF>
 </metadata>
 <defs>
  <style type="text/css">*{stroke-linejoin: round; stroke-linecap: butt}</style>
 </defs>
 <g id="figure_1">
  <g id="patch_1">
   <path d="M 0 532.699531 
L 928.83 532.699531 
L 928.83 0 
L 0 0 
z
" style="fill: #ffffff"/>
  </g>
  <g id="axes_1">
   <g id="patch_2">
    <path d="M 24.2 508.249531 
L 901.63 508.249531 
L 901.63 33.169531 
L 24.2 33.169531 
z
" style="fill: #ffffff"/>
   </g>
   <g id="line2d_1">
    <path d="M 24.2 508.249531 
L 24.2 33.169531 
" clip-path="url(#pab66f18108)" style="fill: none; stroke: #e8e8e8; stroke-width: 0.8; stroke-linecap: square"/>
   </g>
   <g id="line2d_2">
    <path d="M 121.692222 508.249531 
L 121.692222 33.169531 
" clip-path="url(#pab66f18108)" style="fill: none; stroke: #e8e8e8; stroke-width: 0.8; stroke-linecap: square"/>
   </g>
   <g id="line2d_3">
    <path d="M 219.184444 508.249531 
L 219.184444 33.169531 
" clip-path="url(#pab66f18108)" style="fill: none; stroke: #e8e8e8; stroke-width: 0.8; stroke-linecap: square"/>
   </g>
   <g id="line2d_4">
    <path d="M 316.676667 508.249531 
L 316.676667 33.169531 
" clip-path="url(#pab66f18108)" style="fill: none; stroke: #e8e8e8; stroke-width: 0.8; stroke-linecap: square"/>
   </g>
   <g id="line2d_5">
    <path d="M 414.168889 508.249531 
L 414.168889 33.169531 
" clip-path="url(#pab66f18108)" style="fill: none; stroke: #e8e8e8; stroke-width: 0.8; stroke-linecap: square"/>
   </g>
   <g id="line2d_6">
    <path d="M 511.661111 508.249531 
L 511.661111 33.169531 
" clip-path="url(#pab66f18108)" style="fill: none; stroke: #e8e8e8; stroke-width: 0.8; stroke-linecap: square"/>
   </g>
   <g id="line2d_7">
    <path d="M 609.153333 508.249531 
L 609.153333 33.169531 
" clip-path="url(#pab66f18108)" style="fill: none; stroke: #e8e8e8; stroke-width: 0.8; stroke-linecap: square"/>
   </g>
   <g id="line2d_8">
    <path d="M 706.645556 508.249531 
L 706.645556 33.169531 
" clip-path="url(#pab66f18108)" style="fill: none; stroke: #e8e8e8; stroke-width: 0.8; stroke-linecap: square"/>
   </g>
   <g id="line2d_9">
    <path d="M 804.137778 508.249531 
L 804.137778 33.169531 
" clip-path="url(#pab66f18108)" style="fill: none; stroke: #e8e8e8; stroke-width: 0.8; stroke-linecap: square"/>
   </g>
   <g id="line2d_10">
    <path d="M 901.63 508.249531 
L 901.63 33.169531 
" clip-path="url(#pab66f18108)" style="fill: none; stroke: #e8e8e8; stroke-width: 0.8; stroke-linecap: square"/>
   </g>
   <g id="matplotlib.axis_1">
    <g id="xtick_1">
     <g id="line2d_11">
      <defs>
       <path id="m811fdba820" d="M 0 0 
L 0 3.5 
" style="stroke: #000000; stroke-width: 0.8"/>
      </defs>
      <g>
       <use xlink:href="#m811fdba820" x="24.2" y="508.249531" style="stroke: #000000; stroke-width: 0.8"/>
      </g>
     </g>
     <g id="text_1">
      <!-- A1 -->
      <g transform="translate(18.385156 523.208906) scale(0.1 -0.1)">
       <defs>
        <path id="NotoSansCJKjp-Regular-41" d="M 26 0 
L 621 0 
L 1075 1434 
L 2790 1434 
L 3238 0 
L 3866 0 
L 2272 4691 
L 1613 4691 
L 26 0 
z
M 1222 1901 
L 1453 2624 
C 1619 3155 1773 3661 1920 4211 
L 1946 4211 
C 2099 3667 2246 3155 2419 2624 
L 2643 1901 
L 1222 1901 
z
" transform="scale(0.015625)"/>
        <path id="NotoSansCJKjp-Regular-31" d="M 563 0 
L 3136 0 
L 3136 486 
L 2195 486 
L 2195 4691 
L 1747 4691 
C 1491 4544 1190 4435 774 4358 
L 774 3987 
L 1613 3987 
L 1613 486 
L 563 486 
L 563 0 
z
" transform="scale(0.015625)"/>
       </defs>
       <use xlink:href="#NotoSansCJKjp-Regular-41"/>
       <use xlink:href="#NotoSansCJKjp-Regular-31" transform="translate(60.799988 0)"/>
      </g>
     </g>
    </g>
    <g id="xtick_2">
     <g id="line2d_12">
      <g>
       <use xlink:href="#m811fdba820" x="121.692222" y="508.249531" style="stroke: #000000; stroke-width: 0.8"/>
      </g>
     </g>
     <g id="text_2">
      <!-- A2 -->
      <g transform="translate(115.877378 523.208906) scale(0.1 -0.1)">
       <defs>
        <path id="NotoSansCJKjp-Regular-32" d="M 282 0 
L 3232 0 
L 3232 506 
L 1933 506 
C 1696 506 1408 480 1165 461 
C 2266 1504 3008 2458 3008 3398 
C 3008 4230 2477 4774 1638 4774 
C 1043 4774 634 4506 256 4090 
L 595 3757 
C 858 4070 1184 4301 1568 4301 
C 2150 4301 2432 3910 2432 3373 
C 2432 2566 1754 1632 282 346 
L 282 0 
z
" transform="scale(0.015625)"/>
       </defs>
       <use xlink:href="#NotoSansCJKjp-Regular-41"/>
       <use xlink:href="#NotoSansCJKjp-Regular-32" transform="translate(60.799988 0)"/>
      </g>
     </g>
    </g>
    <g id="xtick_3">
     <g id="line2d_13">
      <g>
       <use xlink:href="#m811fdba820" x="219.184444" y="508.249531" style="stroke: #000000; stroke-width: 0.8"/>
      </g>
     </g>
     <g id="text_3">
      <!-- B1 -->
      <g transform="translate(213.124288 523.208906) scale(0.1 -0.1)">
       <defs>
        <path id="NotoSansCJKjp-Regular-42" d="M 646 0 
L 2138 0 
C 3187 0 3917 454 3917 1376 
C 3917 2016 3520 2387 2963 2496 
L 2963 2528 
C 3405 2669 3648 3078 3648 3546 
C 3648 4371 2982 4691 2035 4691 
L 646 4691 
L 646 0 
z
M 1235 2701 
L 1235 4224 
L 1958 4224 
C 2694 4224 3066 4019 3066 3469 
C 3066 2989 2739 2701 1933 2701 
L 1235 2701 
z
M 1235 474 
L 1235 2240 
L 2054 2240 
C 2880 2240 3334 1978 3334 1395 
C 3334 762 2861 474 2054 474 
L 1235 474 
z
" transform="scale(0.015625)"/>
       </defs>
       <use xlink:href="#NotoSansCJKjp-Regular-42"/>
       <use xlink:href="#NotoSansCJKjp-Regular-31" transform="translate(65.699997 0)"/>
      </g>
     </g>
    </g>
    <g id="xtick_4">
     <g id="line2d_14">
      <g>
       <use xlink:href="#m811fdba820" x="316.676667" y="508.249531" style="stroke: #000000; stroke-width: 0.8"/>
      </g>
     </g>
     <g id="text_4">
      <!-- B2 -->
      <g transform="translate(310.61651 523.208906) scale(0.1 -0.1)">
       <use xlink:href="#NotoSansCJKjp-Regular-42"/>
       <use xlink:href="#NotoSansCJKjp-Regular-32" transform="translate(65.699997 0)"/>
      </g>
     </g>
    </g>
    <g id="xtick_5">
     <g id="line2d_15">
      <g>
       <use xlink:href="#m811fdba820" x="414.168889" y="508.249531" style="stroke: #000000; stroke-width: 0.8"/>
      </g>
     </g>
     <g id="text_5">
      <!-- B3 -->
      <g transform="translate(408.108733 523.208906) scale(0.1 -0.1)">
       <defs>
        <path id="NotoSansCJKjp-Regular-33" d="M 1683 -83 
C 2522 -83 3194 416 3194 1254 
C 3194 1901 2752 2310 2202 2445 
L 2202 2477 
C 2701 2650 3034 3034 3034 3603 
C 3034 4346 2458 4774 1664 4774 
C 1126 4774 710 4538 358 4218 
L 672 3846 
C 941 4115 1267 4301 1645 4301 
C 2138 4301 2438 4006 2438 3558 
C 2438 3053 2112 2662 1139 2662 
L 1139 2214 
C 2227 2214 2598 1843 2598 1274 
C 2598 736 2208 403 1645 403 
C 1114 403 762 659 486 941 
L 186 563 
C 493 224 954 -83 1683 -83 
z
" transform="scale(0.015625)"/>
       </defs>
       <use xlink:href="#NotoSansCJKjp-Regular-42"/>
       <use xlink:href="#NotoSansCJKjp-Regular-33" transform="translate(65.699997 0)"/>
      </g>
     </g>
    </g>
    <g id="xtick_6">
     <g id="line2d_16">
      <g>
       <use xlink:href="#m811fdba820" x="511.661111" y="508.249531" style="stroke: #000000; stroke-width: 0.8"/>
      </g>
     </g>
     <g id="text_6">
      <!-- B4 -->
      <g transform="translate(505.600955 523.208906) scale(0.1 -0.1)">
       <defs>
        <path id="NotoSansCJKjp-Regular-34" d="M 2176 0 
L 2726 0 
L 2726 1293 
L 3354 1293 
L 3354 1760 
L 2726 1760 
L 2726 4691 
L 2080 4691 
L 128 1677 
L 128 1293 
L 2176 1293 
L 2176 0 
z
M 2176 1760 
L 736 1760 
L 1805 3360 
C 1939 3590 2067 3827 2182 4051 
L 2208 4051 
C 2195 3814 2176 3430 2176 3200 
L 2176 1760 
z
" transform="scale(0.015625)"/>
       </defs>
       <use xlink:href="#NotoSansCJKjp-Regular-42"/>
       <use xlink:href="#NotoSansCJKjp-Regular-34" transform="translate(65.699997 0)"/>
      </g>
     </g>
    </g>
    <g id="xtick_7">
     <g id="line2d_17">
      <g>
       <use xlink:href="#m811fdba820" x="609.153333" y="508.249531" style="stroke: #000000; stroke-width: 0.8"/>
      </g>
     </g>
     <g id="text_7">
      <!-- C1 -->
      <g transform="translate(603.18849 523.208906) scale(0.1 -0.1)">
       <defs>
        <path id="NotoSansCJKjp-Regular-43" d="M 2413 -83 
C 3021 -83 3482 160 3853 589 
L 3526 966 
C 3226 634 2886 435 2438 435 
C 1542 435 979 1178 979 2362 
C 979 3533 1574 4256 2458 4256 
C 2861 4256 3168 4077 3418 3814 
L 3738 4198 
C 3469 4499 3021 4774 2451 4774 
C 1261 4774 371 3859 371 2342 
C 371 819 1242 -83 2413 -83 
z
" transform="scale(0.015625)"/>
       </defs>
       <use xlink:href="#NotoSansCJKjp-Regular-43"/>
       <use xlink:href="#NotoSansCJKjp-Regular-31" transform="translate(63.799988 0)"/>
      </g>
     </g>
    </g>
    <g id="xtick_8">
     <g id="line2d_18">
      <g>
       <use xlink:href="#m811fdba820" x="706.645556" y="508.249531" style="stroke: #000000; stroke-width: 0.8"/>
      </g>
     </g>
     <g id="text_8">
      <!-- C2 -->
      <g transform="translate(700.680712 523.208906) scale(0.1 -0.1)">
       <use xlink:href="#NotoSansCJKjp-Regular-43"/>
       <use xlink:href="#NotoSansCJKjp-Regular-32" transform="translate(63.799988 0)"/>
      </g>
     </g>
    </g>
    <g id="xtick_9">
     <g id="line2d_19">
      <g>
       <use xlink:href="#m811fdba820" x="804.137778" y="508.249531" style="stroke: #000000; stroke-width: 0.8"/>
      </g>
     </g>
     <g id="text_9">
      <!-- C3 -->
      <g transform="translate(798.172934 523.208906) scale(0.1 -0.1)">
       <use xlink:href="#NotoSansCJKjp-Regular-43"/>
       <use xlink:href="#NotoSansCJKjp-Regular-33" transform="translate(63.799988 0)"/>
      </g>
     </g>
    </g>
    <g id="xtick_10">
     <g id="line2d_20">
      <g>
       <use xlink:href="#m811fdba820" x="901.63" y="508.249531" style="stroke: #000000; stroke-width: 0.8"/>
      </g>
     </g>
     <g id="text_10">
      <!-- 治理能力 -->
      <g transform="translate(881.63 523.208906) scale(0.1 -0.1)">
       <defs>
        <path id="NotoSansCJKjp-Regular-6cbb" d="M 595 4973 
C 1030 4794 1555 4493 1805 4256 
L 2093 4666 
C 1824 4890 1293 5171 864 5338 
L 595 4973 
z
M 243 3226 
C 685 3072 1229 2797 1491 2586 
L 1766 3002 
C 1485 3206 934 3456 506 3597 
L 243 3226 
z
M 461 -102 
L 870 -429 
C 1242 173 1683 973 2022 1645 
L 1664 1958 
C 1299 1235 800 390 461 -102 
z
M 2470 2067 
L 2470 -518 
L 2938 -518 
L 2938 -237 
L 5114 -237 
L 5114 -499 
L 5600 -499 
L 5600 2067 
L 2470 2067 
z
M 2938 211 
L 2938 1613 
L 5114 1613 
L 5114 211 
L 2938 211 
z
M 3430 5382 
C 3232 4710 2874 3782 2547 3149 
L 1926 3123 
L 1990 2637 
C 2880 2688 4192 2758 5446 2835 
C 5568 2643 5670 2464 5747 2310 
L 6189 2560 
C 5933 3072 5363 3834 4838 4403 
L 4422 4192 
C 4666 3917 4928 3590 5158 3264 
L 3059 3168 
C 3373 3776 3712 4582 3974 5248 
L 3430 5382 
z
" transform="scale(0.015625)"/>
        <path id="NotoSansCJKjp-Regular-7406" d="M 3046 3456 
L 4026 3456 
L 4026 2630 
L 3046 2630 
L 3046 3456 
z
M 4442 3456 
L 5421 3456 
L 5421 2630 
L 4442 2630 
L 4442 3456 
z
M 3046 4659 
L 4026 4659 
L 4026 3846 
L 3046 3846 
L 3046 4659 
z
M 4442 4659 
L 5421 4659 
L 5421 3846 
L 4442 3846 
L 4442 4659 
z
M 2035 141 
L 2035 -301 
L 6189 -301 
L 6189 141 
L 4480 141 
L 4480 1024 
L 5971 1024 
L 5971 1459 
L 4480 1459 
L 4480 2214 
L 5882 2214 
L 5882 5082 
L 2605 5082 
L 2605 2214 
L 3987 2214 
L 3987 1459 
L 2528 1459 
L 2528 1024 
L 3987 1024 
L 3987 141 
L 2035 141 
z
M 224 640 
L 346 154 
C 909 339 1645 589 2336 819 
L 2253 1286 
L 1549 1050 
L 1549 2643 
L 2195 2643 
L 2195 3091 
L 1549 3091 
L 1549 4493 
L 2291 4493 
L 2291 4941 
L 294 4941 
L 294 4493 
L 1088 4493 
L 1088 3091 
L 358 3091 
L 358 2643 
L 1088 2643 
L 1088 902 
C 762 800 467 710 224 640 
z
" transform="scale(0.015625)"/>
        <path id="NotoSansCJKjp-Regular-80fd" d="M 2131 4774 
C 2278 4576 2432 4339 2560 4109 
L 1248 4058 
C 1446 4422 1651 4864 1824 5261 
L 1331 5382 
C 1197 4979 966 4442 742 4038 
L 256 4019 
L 294 3552 
C 960 3590 1882 3635 2784 3693 
C 2854 3552 2912 3424 2950 3309 
L 3366 3494 
C 3226 3891 2867 4486 2528 4928 
L 2131 4774 
z
M 2451 2688 
L 2451 2138 
L 1088 2138 
L 1088 2688 
L 2451 2688 
z
M 640 3098 
L 640 -506 
L 1088 -506 
L 1088 800 
L 2451 800 
L 2451 51 
C 2451 -32 2432 -58 2349 -58 
C 2253 -64 1984 -64 1683 -51 
C 1747 -179 1818 -365 1843 -493 
C 2246 -493 2522 -486 2701 -416 
C 2874 -339 2925 -205 2925 45 
L 2925 3098 
L 640 3098 
z
M 1088 1760 
L 2451 1760 
L 2451 1178 
L 1088 1178 
L 1088 1760 
z
M 5491 4896 
C 5126 4704 4550 4474 4006 4288 
L 4006 5363 
L 3526 5363 
L 3526 3238 
C 3526 2707 3686 2566 4307 2566 
C 4429 2566 5267 2566 5408 2566 
C 5920 2566 6061 2771 6118 3558 
C 5984 3590 5786 3661 5683 3744 
C 5658 3110 5613 3002 5363 3002 
C 5184 3002 4480 3002 4352 3002 
C 4058 3002 4006 3040 4006 3245 
L 4006 3904 
C 4621 4083 5306 4307 5811 4538 
L 5491 4896 
z
M 5568 2042 
C 5197 1805 4582 1555 4000 1363 
L 4000 2387 
L 3526 2387 
L 3526 224 
C 3526 -314 3693 -454 4320 -454 
C 4454 -454 5318 -454 5459 -454 
C 5997 -454 6138 -224 6195 634 
C 6061 666 5875 742 5760 819 
C 5734 96 5690 -26 5421 -26 
C 5229 -26 4506 -26 4365 -26 
C 4058 -26 4000 13 4000 224 
L 4000 966 
C 4646 1146 5382 1395 5882 1683 
L 5568 2042 
z
" transform="scale(0.015625)"/>
        <path id="NotoSansCJKjp-Regular-529b" d="M 2624 5363 
L 2624 4256 
L 2624 3981 
L 531 3981 
L 531 3488 
L 2598 3488 
C 2502 2285 2080 877 339 -160 
C 461 -243 634 -422 710 -538 
C 2573 595 3008 2157 3098 3488 
L 5293 3488 
C 5165 1229 5024 320 4794 102 
C 4717 19 4634 0 4499 0 
C 4339 0 3930 6 3488 45 
C 3584 -96 3642 -307 3654 -448 
C 4051 -467 4461 -480 4678 -461 
C 4928 -435 5075 -390 5229 -198 
C 5517 115 5645 1075 5792 3725 
C 5798 3795 5805 3981 5805 3981 
L 3123 3981 
L 3123 4256 
L 3123 5363 
L 2624 5363 
z
" transform="scale(0.015625)"/>
       </defs>
       <use xlink:href="#NotoSansCJKjp-Regular-6cbb"/>
       <use xlink:href="#NotoSansCJKjp-Regular-7406" transform="translate(99.999985 0)"/>
       <use xlink:href="#NotoSansCJKjp-Regular-80fd" transform="translate(199.999969 0)"/>
       <use xlink:href="#NotoSansCJKjp-Regular-529b" transform="translate(299.999954 0)"/>
      </g>
     </g>
    </g>
   </g>
   <g id="matplotlib.axis_2">
    <g id="ytick_1">
     <g id="line2d_21">
      <defs>
       <path id="m6616f71e60" d="M 0 0 
L -3.5 0 
" style="stroke: #000000; stroke-width: 0.8"/>
      </defs>
      <g>
       <use xlink:href="#m6616f71e60" x="24.2" y="508.249531" style="stroke: #000000; stroke-width: 0.8"/>
      </g>
     </g>
     <g id="text_11">
      <!-- 低 -->
      <g transform="translate(7.2 512.229219) scale(0.1 -0.1)">
       <defs>
        <path id="NotoSansCJKjp-Regular-4f4e" d="M 2093 83 
L 2093 -346 
L 4819 -346 
L 4819 83 
L 2093 83 
z
M 1901 902 
L 2010 448 
C 2650 563 3501 730 4307 883 
L 4282 1312 
C 3776 1216 3264 1126 2803 1043 
L 2803 2694 
L 4211 2694 
C 4429 992 4896 -262 5619 -262 
C 6029 -262 6195 -26 6259 845 
C 6144 890 5978 992 5875 1094 
C 5850 467 5792 205 5658 205 
C 5267 205 4877 1222 4685 2694 
L 6138 2694 
L 6138 3136 
L 4634 3136 
C 4595 3565 4570 4019 4563 4493 
C 5037 4582 5472 4685 5837 4794 
L 5466 5165 
C 4819 4941 3686 4742 2669 4621 
L 2336 4730 
L 2336 966 
L 1901 902 
z
M 2803 4230 
C 3219 4282 3661 4339 4090 4410 
C 4102 3974 4128 3546 4166 3136 
L 2803 3136 
L 2803 4230 
z
M 1690 5350 
C 1331 4378 736 3418 102 2797 
C 192 2688 326 2438 371 2323 
C 595 2554 813 2822 1024 3117 
L 1024 -499 
L 1485 -499 
L 1485 3840 
C 1734 4282 1965 4749 2144 5216 
L 1690 5350 
z
" transform="scale(0.015625)"/>
       </defs>
       <use xlink:href="#NotoSansCJKjp-Regular-4f4e"/>
      </g>
     </g>
    </g>
    <g id="ytick_2">
     <g id="line2d_22">
      <g>
       <use xlink:href="#m6616f71e60" x="24.2" y="389.479531" style="stroke: #000000; stroke-width: 0.8"/>
      </g>
     </g>
    </g>
    <g id="ytick_3">
     <g id="line2d_23">
      <g>
       <use xlink:href="#m6616f71e60" x="24.2" y="270.709531" style="stroke: #000000; stroke-width: 0.8"/>
      </g>
     </g>
     <g id="text_12">
      <!-- 中 -->
      <g transform="translate(7.2 274.689219) scale(0.1 -0.1)">
       <defs>
        <path id="NotoSansCJKjp-Regular-4e2d" d="M 2931 5376 
L 2931 4230 
L 614 4230 
L 614 1190 
L 1094 1190 
L 1094 1587 
L 2931 1587 
L 2931 -506 
L 3437 -506 
L 3437 1587 
L 5280 1587 
L 5280 1222 
L 5773 1222 
L 5773 4230 
L 3437 4230 
L 3437 5376 
L 2931 5376 
z
M 1094 2061 
L 1094 3763 
L 2931 3763 
L 2931 2061 
L 1094 2061 
z
M 5280 2061 
L 3437 2061 
L 3437 3763 
L 5280 3763 
L 5280 2061 
z
" transform="scale(0.015625)"/>
       </defs>
       <use xlink:href="#NotoSansCJKjp-Regular-4e2d"/>
      </g>
     </g>
    </g>
    <g id="ytick_4">
     <g id="line2d_24">
      <g>
       <use xlink:href="#m6616f71e60" x="24.2" y="151.939531" style="stroke: #000000; stroke-width: 0.8"/>
      </g>
     </g>
    </g>
    <g id="ytick_5">
     <g id="line2d_25">
      <g>
       <use xlink:href="#m6616f71e60" x="24.2" y="33.169531" style="stroke: #000000; stroke-width: 0.8"/>
      </g>
     </g>
     <g id="text_13">
      <!-- 高 -->
      <g transform="translate(7.2 37.149219) scale(0.1 -0.1)">
       <defs>
        <path id="NotoSansCJKjp-Regular-9ad8" d="M 1939 3635 
L 4448 3635 
L 4448 3021 
L 1939 3021 
L 1939 3635 
z
M 1478 3987 
L 1478 2662 
L 4928 2662 
L 4928 3987 
L 1478 3987 
z
M 2918 5382 
L 2918 4768 
L 416 4768 
L 416 4346 
L 5978 4346 
L 5978 4768 
L 3411 4768 
L 3411 5382 
L 2918 5382 
z
M 704 2266 
L 704 -512 
L 1171 -512 
L 1171 1856 
L 5261 1856 
L 5261 70 
C 5261 -19 5235 -45 5120 -51 
C 5018 -58 4653 -58 4237 -45 
C 4301 -179 4371 -365 4390 -499 
C 4922 -499 5267 -499 5478 -422 
C 5683 -346 5741 -205 5741 64 
L 5741 2266 
L 704 2266 
z
M 2406 1088 
L 3994 1088 
L 3994 435 
L 2406 435 
L 2406 1088 
z
M 1984 1440 
L 1984 -243 
L 2406 -243 
L 2406 83 
L 4422 83 
L 4422 1440 
L 1984 1440 
z
" transform="scale(0.015625)"/>
       </defs>
       <use xlink:href="#NotoSansCJKjp-Regular-9ad8"/>
      </g>
     </g>
    </g>
   </g>
   <g id="line2d_26">
    <path d="M 24.2 504.913664 
L 121.692222 501.409129 
L 219.184444 488.646625 
L 316.676667 474.117372 
L 414.168889 472.236474 
L 511.661111 496.855108 
L 609.153333 495.472971 
L 706.645556 459.620709 
L 804.137778 508.249531 
L 901.63 457.57114 
" clip-path="url(#pab66f18108)" style="fill: none; stroke: #9e9e9e; stroke-opacity: 0.35; stroke-width: 1.2; stroke-linecap: square"/>
   </g>
   <g id="line2d_27">
    <path d="M 24.2 504.751383 
L 121.692222 506.814897 
L 219.184444 467.136461 
L 316.676667 424.733471 
L 414.168889 495.661199 
L 511.661111 502.275165 
L 609.153333 494.851426 
L 706.645556 457.255048 
L 804.137778 472.521251 
L 901.63 440.182043 
" clip-path="url(#pab66f18108)" style="fill: none; stroke: #9e9e9e; stroke-opacity: 0.35; stroke-width: 1.2; stroke-linecap: square"/>
   </g>
   <g id="line2d_28">
    <path d="M 24.2 508.249531 
L 121.692222 508.249531 
L 219.184444 508.249531 
L 316.676667 508.249531 
L 414.168889 508.249531 
L 511.661111 508.249531 
L 609.153333 508.249531 
L 706.645556 508.249531 
L 804.137778 508.249531 
L 901.63 508.249531 
" clip-path="url(#pab66f18108)" style="fill: none; stroke: #9e9e9e; stroke-opacity: 0.35; stroke-width: 1.2; stroke-linecap: square"/>
   </g>
   <g id="line2d_29">
    <path d="M 24.2 508.249531 
L 121.692222 508.249531 
L 219.184444 508.249531 
L 316.676667 508.249531 
L 414.168889 246.364562 
L 511.661111 508.249531 
L 609.153333 508.249531 
L 706.645556 508.249531 
L 804.137778 508.249531 
L 901.63 426.280166 
" clip-path="url(#pab66f18108)" style="fill: none; stroke: #9e9e9e; stroke-opacity: 0.35; stroke-width: 1.2; stroke-linecap: square"/>
   </g>
   <g id="line2d_30">
    <path d="M 24.2 508.249531 
L 121.692222 508.249531 
L 219.184444 508.249531 
L 316.676667 508.249531 
L 414.168889 482.477992 
L 511.661111 508.249531 
L 609.153333 508.249531 
L 706.645556 508.249531 
L 804.137778 508.249531 
L 901.63 500.183102 
" clip-path="url(#pab66f18108)" style="fill: none; stroke: #9e9e9e; stroke-opacity: 0.35; stroke-width: 1.2; stroke-linecap: square"/>
   </g>
   <g id="line2d_31">
    <path d="M 24.2 508.249531 
L 121.692222 459.265294 
L 219.184444 508.249531 
L 316.676667 508.249531 
L 414.168889 454.522424 
L 511.661111 508.249531 
L 609.153333 508.249531 
L 706.645556 508.249531 
L 804.137778 508.249531 
L 901.63 442.855189 
" clip-path="url(#pab66f18108)" style="fill: none; stroke: #9e9e9e; stroke-opacity: 0.35; stroke-width: 1.2; stroke-linecap: square"/>
   </g>
   <g id="line2d_32">
    <path d="M 24.2 434.945215 
L 121.692222 507.00016 
L 219.184444 493.704192 
L 316.676667 508.249531 
L 414.168889 508.249531 
L 511.661111 506.786226 
L 609.153333 495.123106 
L 706.645556 508.249531 
L 804.137778 486.85832 
L 901.63 455.227128 
" clip-path="url(#pab66f18108)" style="fill: none; stroke: #9e9e9e; stroke-opacity: 0.35; stroke-width: 1.2; stroke-linecap: square"/>
   </g>
   <g id="line2d_33">
    <path d="M 24.2 507.354785 
L 121.692222 503.846174 
L 219.184444 491.161389 
L 316.676667 496.042965 
L 414.168889 474.441565 
L 511.661111 506.721426 
L 609.153333 487.687965 
L 706.645556 508.249531 
L 804.137778 505.203373 
L 901.63 473.411381 
" clip-path="url(#pab66f18108)" style="fill: none; stroke: #9e9e9e; stroke-opacity: 0.35; stroke-width: 1.2; stroke-linecap: square"/>
   </g>
   <g id="line2d_34">
    <path d="M 24.2 506.819556 
L 121.692222 507.998195 
L 219.184444 506.448864 
L 316.676667 497.798589 
L 414.168889 493.179496 
L 511.661111 488.188563 
L 609.153333 506.684707 
L 706.645556 496.337785 
L 804.137778 496.426414 
L 901.63 479.590163 
" clip-path="url(#pab66f18108)" style="fill: none; stroke: #9e9e9e; stroke-opacity: 0.35; stroke-width: 1.2; stroke-linecap: square"/>
   </g>
   <g id="line2d_35">
    <path d="M 24.2 508.249531 
L 121.692222 508.249531 
L 219.184444 508.249531 
L 316.676667 472.852287 
L 414.168889 489.575603 
L 511.661111 508.249531 
L 609.153333 508.249531 
L 706.645556 508.249531 
L 804.137778 508.249531 
L 901.63 496.559742 
" clip-path="url(#pab66f18108)" style="fill: none; stroke: #9e9e9e; stroke-opacity: 0.35; stroke-width: 1.2; stroke-linecap: square"/>
   </g>
   <g id="line2d_36">
    <path d="M 24.2 508.249531 
L 121.692222 504.811018 
L 219.184444 446.66247 
L 316.676667 508.249531 
L 414.168889 478.077973 
L 511.661111 501.089888 
L 609.153333 476.137119 
L 706.645556 508.249531 
L 804.137778 508.249531 
L 901.63 453.743263 
" clip-path="url(#pab66f18108)" style="fill: none; stroke: #9e9e9e; stroke-opacity: 0.35; stroke-width: 1.2; stroke-linecap: square"/>
   </g>
   <g id="line2d_37">
    <path d="M 24.2 508.249531 
L 121.692222 492.971628 
L 219.184444 508.249531 
L 316.676667 508.249531 
L 414.168889 463.563726 
L 511.661111 508.249531 
L 609.153333 508.249531 
L 706.645556 508.249531 
L 804.137778 508.249531 
L 901.63 479.111817 
" clip-path="url(#pab66f18108)" style="fill: none; stroke: #9e9e9e; stroke-opacity: 0.35; stroke-width: 1.2; stroke-linecap: square"/>
   </g>
   <g id="line2d_38">
    <path d="M 24.2 503.130166 
L 121.692222 503.700582 
L 219.184444 493.834539 
L 316.676667 493.699343 
L 414.168889 499.038334 
L 511.661111 503.513639 
L 609.153333 459.230887 
L 706.645556 495.811551 
L 804.137778 348.485061 
L 901.63 391.467559 
" clip-path="url(#pab66f18108)" style="fill: none; stroke: #6c8ebf; stroke-opacity: 0.35; stroke-width: 1.2; stroke-linecap: square"/>
   </g>
   <g id="line2d_39">
    <path d="M 24.2 487.576205 
L 121.692222 500.830943 
L 219.184444 413.339511 
L 316.676667 481.808685 
L 414.168889 443.154422 
L 511.661111 481.769091 
L 609.153333 409.274531 
L 706.645556 508.249531 
L 804.137778 508.249531 
L 901.63 372.837028 
" clip-path="url(#pab66f18108)" style="fill: none; stroke: #6c8ebf; stroke-opacity: 0.35; stroke-width: 1.2; stroke-linecap: square"/>
   </g>
   <g id="line2d_40">
    <path d="M 24.2 484.639705 
L 121.692222 485.095292 
L 219.184444 485.628734 
L 316.676667 480.241107 
L 414.168889 476.850674 
L 511.661111 487.211757 
L 609.153333 480.728282 
L 706.645556 508.249531 
L 804.137778 483.786198 
L 901.63 415.852072 
" clip-path="url(#pab66f18108)" style="fill: none; stroke: #6c8ebf; stroke-opacity: 0.35; stroke-width: 1.2; stroke-linecap: square"/>
   </g>
   <g id="line2d_41">
    <path d="M 24.2 501.804332 
L 121.692222 507.588717 
L 219.184444 496.413719 
L 316.676667 491.762922 
L 414.168889 435.76984 
L 511.661111 400.926097 
L 609.153333 471.221317 
L 706.645556 484.760704 
L 804.137778 486.306886 
L 901.63 376.085166 
" clip-path="url(#pab66f18108)" style="fill: none; stroke: #6c8ebf; stroke-opacity: 0.35; stroke-width: 1.2; stroke-linecap: square"/>
   </g>
   <g id="line2d_42">
    <path d="M 24.2 500.704223 
L 121.692222 504.015056 
L 219.184444 444.074253 
L 316.676667 420.211471 
L 414.168889 380.705083 
L 511.661111 494.006702 
L 609.153333 455.775114 
L 706.645556 372.206528 
L 804.137778 506.221534 
L 901.63 374.985279 
" clip-path="url(#pab66f18108)" style="fill: none; stroke: #6c8ebf; stroke-opacity: 0.35; stroke-width: 1.2; stroke-linecap: square"/>
   </g>
   <g id="line2d_43">
    <path d="M 24.2 497.804344 
L 121.692222 504.858268 
L 219.184444 477.559457 
L 316.676667 466.6875 
L 414.168889 479.275649 
L 511.661111 490.410559 
L 609.153333 421.57061 
L 706.645556 482.871965 
L 804.137778 502.322767 
L 901.63 419.686198 
" clip-path="url(#pab66f18108)" style="fill: none; stroke: #6c8ebf; stroke-opacity: 0.35; stroke-width: 1.2; stroke-linecap: square"/>
   </g>
   <g id="line2d_44">
    <path d="M 24.2 508.249531 
L 121.692222 471.939268 
L 219.184444 508.249531 
L 316.676667 508.249531 
L 414.168889 488.33654 
L 511.661111 465.721757 
L 609.153333 444.667711 
L 706.645556 508.249531 
L 804.137778 508.249531 
L 901.63 411.583719 
" clip-path="url(#pab66f18108)" style="fill: none; stroke: #6c8ebf; stroke-opacity: 0.35; stroke-width: 1.2; stroke-linecap: square"/>
   </g>
   <g id="line2d_45">
    <path d="M 24.2 503.031173 
L 121.692222 501.523461 
L 219.184444 454.037867 
L 316.676667 485.366577 
L 414.168889 417.709722 
L 511.661111 502.520226 
L 609.153333 476.842009 
L 706.645556 459.346776 
L 804.137778 504.442559 
L 901.63 422.643133 
" clip-path="url(#pab66f18108)" style="fill: none; stroke: #6c8ebf; stroke-opacity: 0.35; stroke-width: 1.2; stroke-linecap: square"/>
   </g>
   <g id="line2d_46">
    <path d="M 24.2 506.557062 
L 121.692222 506.861326 
L 219.184444 503.276713 
L 316.676667 496.70478 
L 414.168889 241.791468 
L 511.661111 497.41012 
L 609.153333 498.526151 
L 706.645556 335.544947 
L 804.137778 496.725525 
L 901.63 383.586431 
" clip-path="url(#pab66f18108)" style="fill: none; stroke: #6c8ebf; stroke-opacity: 0.35; stroke-width: 1.2; stroke-linecap: square"/>
   </g>
   <g id="line2d_47">
    <path d="M 24.2 500.646884 
L 121.692222 498.376056 
L 219.184444 457.988775 
L 316.676667 465.03326 
L 414.168889 453.532219 
L 511.661111 493.101186 
L 609.153333 479.130967 
L 706.645556 434.36415 
L 804.137778 508.249531 
L 901.63 421.712949 
" clip-path="url(#pab66f18108)" style="fill: none; stroke: #6c8ebf; stroke-opacity: 0.35; stroke-width: 1.2; stroke-linecap: square"/>
   </g>
   <g id="line2d_48">
    <path d="M 24.2 507.063863 
L 121.692222 505.818245 
L 219.184444 471.67033 
L 316.676667 455.679248 
L 414.168889 386.648279 
L 511.661111 479.900067 
L 609.153333 476.461296 
L 706.645556 214.418861 
L 804.137778 504.21293 
L 901.63 378.798231 
" clip-path="url(#pab66f18108)" style="fill: none; stroke: #6c8ebf; stroke-opacity: 0.35; stroke-width: 1.2; stroke-linecap: square"/>
   </g>
   <g id="line2d_49">
    <path d="M 24.2 504.084257 
L 121.692222 501.245786 
L 219.184444 462.967379 
L 316.676667 462.789749 
L 414.168889 436.302176 
L 511.661111 502.558549 
L 609.153333 450.817881 
L 706.645556 471.817795 
L 804.137778 501.159204 
L 901.63 417.366723 
" clip-path="url(#pab66f18108)" style="fill: none; stroke: #6c8ebf; stroke-opacity: 0.35; stroke-width: 1.2; stroke-linecap: square"/>
   </g>
   <g id="line2d_50">
    <path d="M 24.2 504.277141 
L 121.692222 499.51149 
L 219.184444 409.570736 
L 316.676667 429.422911 
L 414.168889 361.401679 
L 511.661111 493.447408 
L 609.153333 465.372368 
L 706.645556 260.825415 
L 804.137778 508.249531 
L 901.63 346.643538 
" clip-path="url(#pab66f18108)" style="fill: none; stroke: #7a1f1f; stroke-opacity: 0.35; stroke-width: 1.2; stroke-linecap: square"/>
   </g>
   <g id="line2d_51">
    <path d="M 24.2 501.970164 
L 121.692222 505.674285 
L 219.184444 434.449326 
L 316.676667 497.541254 
L 414.168889 350.072332 
L 511.661111 486.800906 
L 609.153333 472.174037 
L 706.645556 96.329065 
L 804.137778 508.249531 
L 901.63 349.564713 
" clip-path="url(#pab66f18108)" style="fill: none; stroke: #7a1f1f; stroke-opacity: 0.35; stroke-width: 1.2; stroke-linecap: square"/>
   </g>
   <g id="line2d_52">
    <path d="M 24.2 488.143911 
L 121.692222 488.81356 
L 219.184444 497.700535 
L 316.676667 493.555383 
L 414.168889 456.569901 
L 511.661111 335.33474 
L 609.153333 497.248723 
L 706.645556 508.249531 
L 804.137778 346.904347 
L 901.63 264.249645 
" clip-path="url(#pab66f18108)" style="fill: none; stroke: #7a1f1f; stroke-opacity: 0.35; stroke-width: 1.2; stroke-linecap: square"/>
   </g>
   <g id="line2d_53">
    <path d="M 24.2 501.705578 
L 121.692222 493.041579 
L 219.184444 422.52711 
L 316.676667 485.930572 
L 414.168889 403.260798 
L 511.661111 495.676317 
L 609.153333 439.324329 
L 706.645556 373.10675 
L 804.137778 485.970678 
L 901.63 359.08522 
" clip-path="url(#pab66f18108)" style="fill: none; stroke: #7a1f1f; stroke-opacity: 0.35; stroke-width: 1.2; stroke-linecap: square"/>
   </g>
   <g id="line2d_54">
    <path d="M 24.2 503.716957 
L 121.692222 498.025775 
L 219.184444 371.743924 
L 316.676667 477.331726 
L 414.168889 473.589111 
L 511.661111 500.508505 
L 609.153333 386.72943 
L 706.645556 508.249531 
L 804.137778 492.818407 
L 901.63 365.265182 
" clip-path="url(#pab66f18108)" style="fill: none; stroke: #7a1f1f; stroke-opacity: 0.35; stroke-width: 1.2; stroke-linecap: square"/>
   </g>
   <g id="line2d_55">
    <path d="M 24.2 496.556005 
L 121.692222 503.225507 
L 219.184444 477.981818 
L 316.676667 430.384264 
L 414.168889 421.083875 
L 511.661111 490.180562 
L 609.153333 369.62353 
L 706.645556 305.317234 
L 804.137778 508.249531 
L 901.63 355.224295 
" clip-path="url(#pab66f18108)" style="fill: none; stroke: #7a1f1f; stroke-opacity: 0.35; stroke-width: 1.2; stroke-linecap: square"/>
   </g>
   <g id="line2d_56">
    <path d="M 24.2 477.6325 
L 121.692222 483.136685 
L 219.184444 508.249531 
L 316.676667 508.249531 
L 414.168889 471.523688 
L 511.661111 281.660567 
L 609.153333 469.161215 
L 706.645556 508.249531 
L 804.137778 508.249531 
L 901.63 293.745621 
" clip-path="url(#pab66f18108)" style="fill: none; stroke: #7a1f1f; stroke-opacity: 0.35; stroke-width: 1.2; stroke-linecap: square"/>
   </g>
   <g id="line2d_57">
    <path d="M 24.2 500.268573 
L 121.692222 504.02179 
L 219.184444 466.724074 
L 316.676667 377.820168 
L 414.168889 339.519312 
L 511.661111 493.76723 
L 609.153333 422.915207 
L 706.645556 246.477928 
L 804.137778 507.117401 
L 901.63 336.531052 
" clip-path="url(#pab66f18108)" style="fill: none; stroke: #7a1f1f; stroke-opacity: 0.35; stroke-width: 1.2; stroke-linecap: square"/>
   </g>
   <g id="line2d_58">
    <path d="M 24.2 505.895424 
L 121.692222 505.353186 
L 219.184444 497.874267 
L 316.676667 476.133641 
L 414.168889 118.56423 
L 511.661111 504.229034 
L 609.153333 481.200442 
L 706.645556 439.615232 
L 804.137778 484.205897 
L 901.63 340.593925 
" clip-path="url(#pab66f18108)" style="fill: none; stroke: #7a1f1f; stroke-opacity: 0.35; stroke-width: 1.2; stroke-linecap: square"/>
   </g>
   <g id="line2d_59">
    <path d="M 24.2 491.972779 
L 121.692222 486.22105 
L 219.184444 460.42514 
L 316.676667 480.492597 
L 414.168889 435.03324 
L 511.661111 466.551783 
L 609.153333 277.588288 
L 706.645556 508.249531 
L 804.137778 436.211185 
L 901.63 277.140956 
" clip-path="url(#pab66f18108)" style="fill: none; stroke: #7a1f1f; stroke-opacity: 0.35; stroke-width: 1.2; stroke-linecap: square"/>
   </g>
   <g id="line2d_60">
    <path d="M 24.2 508.249531 
L 121.692222 508.249531 
L 219.184444 508.249531 
L 316.676667 508.249531 
L 414.168889 508.249531 
L 511.661111 508.249531 
L 609.153333 508.249531 
L 706.645556 508.249531 
L 804.137778 46.873762 
L 901.63 292.923454 
" clip-path="url(#pab66f18108)" style="fill: none; stroke: #7a1f1f; stroke-opacity: 0.35; stroke-width: 1.2; stroke-linecap: square"/>
   </g>
   <g id="line2d_61">
    <path d="M 24.2 501.914419 
L 121.692222 503.540461 
L 219.184444 412.853602 
L 316.676667 425.874069 
L 414.168889 345.106045 
L 511.661111 473.424212 
L 609.153333 447.589946 
L 706.645556 219.654219 
L 804.137778 473.201771 
L 901.63 303.823312 
" clip-path="url(#pab66f18108)" style="fill: none; stroke: #7a1f1f; stroke-opacity: 0.35; stroke-width: 1.2; stroke-linecap: square"/>
   </g>
   <g id="line2d_62">
    <path d="M 24.2 507.354785 
L 121.692222 506.031519 
L 219.184444 493.331039 
L 316.676667 503.004637 
L 414.168889 493.95013 
L 511.661111 505.495066 
L 609.153333 494.851426 
L 706.645556 508.249531 
L 804.137778 508.249531 
L 901.63 454.22519 
" clip-path="url(#pab66f18108)" style="fill: none; stroke: #9e9e9e; stroke-width: 2.8; stroke-linecap: square"/>
   </g>
   <g id="line2d_63">
    <path d="M 24.2 502.672422 
L 121.692222 503.519601 
L 219.184444 461.743755 
L 316.676667 469.930712 
L 414.168889 428.106566 
L 511.661111 496.072084 
L 609.153333 457.418869 
L 706.645556 457.709951 
L 804.137778 506.198644 
L 901.63 394.781217 
" clip-path="url(#pab66f18108)" style="fill: none; stroke: #6c8ebf; stroke-width: 2.8; stroke-linecap: square"/>
   </g>
   <g id="line2d_64">
    <path d="M 24.2 500.975814 
L 121.692222 500.351966 
L 219.184444 446.722188 
L 316.676667 463.605634 
L 414.168889 403.678487 
L 511.661111 493.447408 
L 609.153333 439.206921 
L 706.645556 424.891473 
L 804.137778 502.030078 
L 901.63 336.701006 
" clip-path="url(#pab66f18108)" style="fill: none; stroke: #7a1f1f; stroke-width: 2.8; stroke-linecap: square"/>
   </g>
   <g id="patch_3">
    <path d="M 24.2 508.249531 
L 24.2 33.169531 
" style="fill: none; stroke: #000000; stroke-width: 0.8; stroke-linejoin: miter; stroke-linecap: square"/>
   </g>
   <g id="patch_4">
    <path d="M 24.2 508.249531 
L 901.63 508.249531 
" style="fill: none; stroke: #000000; stroke-width: 0.8; stroke-linejoin: miter; stroke-linecap: square"/>
   </g>
   <g id="text_14">
    <g id="patch_5">
     <path d="M 32.9743 55.421131 
L 291.914925 55.421131 
Q 294.414925 55.421131 294.414925 52.921131 
L 294.414925 42.671131 
Q 294.414925 40.171131 291.914925 40.171131 
L 32.9743 40.171131 
Q 30.4743 40.171131 30.4743 42.671131 
L 30.4743 52.921131 
Q 30.4743 55.421131 32.9743 55.421131 
z
" style="fill: #ffffff; stroke: #cccccc; stroke-linejoin: miter"/>
    </g>
    <!-- 浅线为代表性省—年观测，粗线为各治理能力组中位结构。 -->
    <g transform="translate(32.9743 50.630506) scale(0.1 -0.1)">
     <defs>
      <path id="NotoSansCJKjp-Regular-6d45" d="M 4301 5062 
C 4627 4928 5037 4704 5235 4531 
L 5510 4877 
C 5299 5037 4883 5248 4557 5370 
L 4301 5062 
z
M 589 4973 
C 986 4781 1466 4467 1696 4230 
L 1971 4621 
C 1741 4851 1254 5139 858 5318 
L 589 4973 
z
M 243 3238 
C 646 3059 1139 2771 1376 2547 
L 1651 2944 
C 1402 3162 902 3437 506 3597 
L 243 3238 
z
M 403 -134 
L 832 -422 
C 1152 186 1530 986 1818 1677 
L 1434 1958 
C 1120 1222 704 365 403 -134 
z
M 5286 1946 
C 5075 1600 4787 1293 4442 1024 
C 4333 1293 4230 1606 4141 1952 
L 6131 2150 
L 6086 2566 
L 4051 2368 
C 4013 2547 3981 2733 3949 2931 
L 5760 3110 
L 5709 3520 
L 3891 3341 
L 3840 3885 
L 5837 4077 
L 5786 4493 
L 3808 4307 
C 3789 4646 3782 5005 3782 5363 
L 3290 5363 
C 3290 4992 3302 4621 3328 4262 
L 2003 4134 
L 2048 3712 
L 3360 3840 
L 3418 3296 
L 2214 3174 
L 2259 2758 
L 3469 2880 
L 3565 2323 
L 2016 2176 
L 2067 1747 
L 3654 1907 
C 3763 1466 3885 1075 4038 736 
C 3456 371 2758 96 1997 -83 
C 2106 -192 2221 -371 2285 -493 
C 3014 -301 3680 -26 4243 326 
C 4563 -205 4960 -518 5440 -518 
C 5920 -518 6093 -250 6189 666 
C 6067 710 5901 813 5792 915 
C 5754 192 5677 -45 5472 -45 
C 5165 -45 4890 192 4646 608 
C 5075 934 5434 1318 5702 1754 
L 5286 1946 
z
" transform="scale(0.015625)"/>
      <path id="NotoSansCJKjp-Regular-7ebf" d="M 346 346 
L 448 -115 
C 1037 64 1805 294 2547 512 
L 2477 922 
C 1690 698 877 474 346 346 
z
M 4506 4992 
C 4826 4838 5229 4589 5434 4410 
L 5715 4710 
C 5510 4883 5101 5120 4787 5261 
L 4506 4992 
z
M 461 2707 
C 550 2752 704 2790 1485 2893 
C 1203 2477 954 2157 832 2029 
C 634 1792 486 1632 346 1606 
C 403 1485 474 1261 499 1165 
C 634 1242 851 1306 2458 1632 
C 2445 1728 2445 1907 2458 2035 
L 1184 1805 
C 1670 2381 2157 3085 2566 3789 
L 2163 4032 
C 2042 3795 1901 3552 1760 3322 
L 947 3238 
C 1331 3782 1702 4474 1978 5146 
L 1530 5357 
C 1274 4589 806 3770 666 3558 
C 525 3341 416 3194 301 3162 
C 358 3034 435 2803 461 2707 
z
M 5677 2234 
C 5421 1830 5075 1459 4659 1139 
C 4557 1478 4467 1888 4403 2349 
L 6035 2656 
L 5958 3078 
L 4346 2778 
C 4314 3046 4282 3328 4262 3622 
L 5856 3866 
L 5779 4288 
L 4237 4058 
C 4218 4486 4211 4928 4211 5389 
L 3738 5389 
C 3744 4909 3757 4442 3782 3987 
L 2771 3840 
L 2848 3405 
L 3808 3552 
C 3827 3258 3859 2970 3891 2694 
L 2643 2464 
L 2720 2029 
L 3949 2259 
C 4026 1728 4128 1248 4262 851 
C 3718 486 3091 198 2438 0 
C 2554 -109 2675 -282 2739 -397 
C 3341 -186 3910 90 4422 422 
C 4685 -154 5030 -493 5485 -493 
C 5926 -493 6074 -282 6163 435 
C 6054 480 5901 582 5805 691 
C 5773 122 5709 -26 5536 -26 
C 5254 -26 5018 237 4819 704 
C 5325 1088 5760 1542 6080 2042 
L 5677 2234 
z
" transform="scale(0.015625)"/>
      <path id="NotoSansCJKjp-Regular-4e3a" d="M 1037 5018 
C 1293 4717 1581 4307 1709 4045 
L 2144 4256 
C 2010 4518 1709 4915 1446 5197 
L 1037 5018 
z
M 3194 2374 
C 3520 1984 3898 1446 4064 1107 
L 4486 1338 
C 4314 1670 3923 2189 3590 2566 
L 3194 2374 
z
M 2630 5363 
L 2630 4608 
C 2630 4365 2624 4109 2605 3834 
L 525 3834 
L 525 3354 
L 2554 3354 
C 2394 2214 1888 928 352 -70 
C 467 -147 646 -314 730 -422 
C 2368 666 2893 2099 3046 3354 
L 5254 3354 
C 5165 1178 5062 320 4870 122 
C 4800 45 4730 26 4589 32 
C 4435 32 4032 32 3597 70 
C 3693 -70 3757 -282 3763 -429 
C 4160 -448 4563 -461 4787 -442 
C 5024 -416 5171 -365 5318 -179 
C 5568 115 5658 1018 5760 3584 
C 5760 3661 5766 3834 5766 3834 
L 3098 3834 
C 3110 4102 3117 4365 3117 4602 
L 3117 5363 
L 2630 5363 
z
" transform="scale(0.015625)"/>
      <path id="NotoSansCJKjp-Regular-4ee3" d="M 4576 5011 
C 4954 4691 5402 4243 5613 3955 
L 5984 4211 
C 5766 4499 5306 4934 4922 5242 
L 4576 5011 
z
M 3507 5286 
C 3533 4608 3578 3968 3635 3379 
L 2074 3181 
L 2144 2726 
L 3686 2918 
C 3930 909 4442 -429 5504 -506 
C 5843 -525 6099 -192 6240 915 
C 6144 960 5933 1075 5837 1171 
C 5773 429 5670 51 5485 58 
C 4800 128 4378 1280 4160 2982 
L 6112 3226 
L 6042 3680 
L 4109 3437 
C 4045 4006 4006 4634 3987 5286 
L 3507 5286 
z
M 2003 5312 
C 1581 4294 870 3315 134 2688 
C 218 2579 365 2336 416 2227 
C 710 2490 998 2810 1274 3162 
L 1274 -499 
L 1766 -499 
L 1766 3866 
C 2029 4275 2266 4717 2458 5165 
L 2003 5312 
z
" transform="scale(0.015625)"/>
      <path id="NotoSansCJKjp-Regular-8868" d="M 896 -64 
L 1050 -512 
C 1811 -320 2912 -45 3923 224 
L 3872 653 
L 2272 256 
L 2272 1715 
C 2637 1946 2970 2208 3232 2470 
C 3680 1005 4512 -26 5875 -493 
C 5946 -358 6086 -166 6195 -70 
C 5472 147 4896 538 4461 1062 
C 4896 1312 5421 1664 5824 1990 
L 5446 2285 
C 5133 1997 4640 1638 4224 1376 
C 4000 1709 3821 2086 3686 2502 
L 5997 2502 
L 5997 2918 
L 3430 2918 
L 3430 3501 
L 5523 3501 
L 5523 3898 
L 3430 3898 
L 3430 4422 
L 5773 4422 
L 5773 4845 
L 3430 4845 
L 3430 5376 
L 2944 5376 
L 2944 4845 
L 640 4845 
L 640 4422 
L 2944 4422 
L 2944 3898 
L 928 3898 
L 928 3501 
L 2944 3501 
L 2944 2918 
L 403 2918 
L 403 2502 
L 2630 2502 
C 1990 1971 1024 1491 179 1254 
C 282 1152 422 979 493 858 
C 909 998 1363 1197 1798 1434 
L 1798 141 
L 896 -64 
z
" transform="scale(0.015625)"/>
      <path id="NotoSansCJKjp-Regular-6027" d="M 1101 5376 
L 1101 -506 
L 1581 -506 
L 1581 5376 
L 1101 5376 
z
M 512 4160 
C 467 3642 352 2938 179 2509 
L 557 2381 
C 723 2848 838 3584 877 4109 
L 512 4160 
z
M 1626 4198 
C 1811 3846 2003 3379 2067 3091 
L 2426 3277 
C 2355 3546 2157 4000 1965 4346 
L 1626 4198 
z
M 2138 173 
L 2138 -282 
L 6074 -282 
L 6074 173 
L 4461 173 
L 4461 1779 
L 5779 1779 
L 5779 2227 
L 4461 2227 
L 4461 3558 
L 5920 3558 
L 5920 4019 
L 4461 4019 
L 4461 5350 
L 3974 5350 
L 3974 4019 
L 3181 4019 
C 3264 4333 3341 4672 3405 5005 
L 2938 5082 
C 2790 4211 2534 3341 2163 2784 
C 2278 2733 2496 2624 2592 2560 
C 2758 2835 2906 3174 3034 3558 
L 3974 3558 
L 3974 2227 
L 2618 2227 
L 2618 1779 
L 3974 1779 
L 3974 173 
L 2138 173 
z
" transform="scale(0.015625)"/>
      <path id="NotoSansCJKjp-Regular-7701" d="M 2950 5382 
L 2950 3872 
C 2950 3795 2925 3776 2822 3770 
C 2726 3763 2381 3763 2010 3776 
C 2086 3654 2170 3488 2202 3354 
C 2656 3354 2963 3360 3168 3424 
C 3373 3494 3437 3610 3437 3859 
L 3437 5382 
L 2950 5382 
z
M 1734 5037 
C 1408 4557 870 4096 339 3789 
C 454 3712 640 3539 723 3456 
C 1248 3802 1824 4333 2195 4896 
L 1734 5037 
z
M 4301 4838 
C 4819 4474 5434 3949 5715 3590 
L 6125 3859 
C 5818 4218 5197 4736 4685 5082 
L 4301 4838 
z
M 4506 4198 
C 3712 3270 1984 2797 243 2579 
C 339 2477 486 2272 550 2157 
C 883 2208 1216 2272 1542 2342 
L 1542 -518 
L 2010 -518 
L 2010 -288 
L 4813 -288 
L 4813 -486 
L 5299 -486 
L 5299 2739 
L 2931 2739 
C 3757 3034 4480 3437 4960 3994 
L 4506 4198 
z
M 2010 1491 
L 4813 1491 
L 4813 960 
L 2010 960 
L 2010 1491 
z
M 2010 1843 
L 2010 2362 
L 4813 2362 
L 4813 1843 
L 2010 1843 
z
M 2010 608 
L 4813 608 
L 4813 83 
L 2010 83 
L 2010 608 
z
" transform="scale(0.015625)"/>
      <path id="NotoSansCJKjp-Regular-2014" d="M 294 1600 
L 5421 1600 
L 5421 1997 
L 294 1997 
L 294 1600 
z
" transform="scale(0.015625)"/>
      <path id="NotoSansCJKjp-Regular-5e74" d="M 307 1427 
L 307 966 
L 3277 966 
L 3277 -512 
L 3770 -512 
L 3770 966 
L 6106 966 
L 6106 1427 
L 3770 1427 
L 3770 2701 
L 5658 2701 
L 5658 3155 
L 3770 3155 
L 3770 4141 
L 5805 4141 
L 5805 4602 
L 1965 4602 
C 2074 4819 2170 5043 2259 5274 
L 1773 5402 
C 1466 4531 934 3699 320 3174 
C 442 3104 646 2944 736 2867 
C 1082 3200 1421 3642 1715 4141 
L 3277 4141 
L 3277 3155 
L 1363 3155 
L 1363 1427 
L 307 1427 
z
M 1843 1427 
L 1843 2701 
L 3277 2701 
L 3277 1427 
L 1843 1427 
z
" transform="scale(0.015625)"/>
      <path id="NotoSansCJKjp-Regular-89c2" d="M 2957 5062 
L 2957 1658 
L 3411 1658 
L 3411 4634 
L 5299 4634 
L 5299 1658 
L 5773 1658 
L 5773 5062 
L 2957 5062 
z
M 4090 4096 
L 4090 2867 
C 4090 1875 3885 666 2278 -160 
C 2368 -230 2522 -410 2573 -506 
C 3654 51 4160 838 4384 1613 
L 4384 154 
C 4384 -275 4557 -390 4973 -390 
L 5517 -390 
C 6067 -390 6138 -134 6189 877 
C 6074 909 5914 973 5798 1062 
C 5766 147 5734 -26 5523 -26 
L 5050 -26 
C 4877 -26 4826 26 4826 198 
L 4826 1754 
L 4422 1754 
C 4512 2138 4544 2515 4544 2861 
L 4544 4096 
L 4090 4096 
z
M 365 3578 
C 730 3085 1114 2502 1434 1946 
C 1101 1158 685 525 218 115 
C 339 32 499 -134 576 -250 
C 1018 173 1408 730 1728 1414 
C 1926 1043 2080 698 2182 410 
L 2592 691 
C 2458 1050 2234 1498 1965 1965 
C 2272 2771 2496 3725 2618 4806 
L 2310 4902 
L 2227 4883 
L 333 4883 
L 333 4422 
L 2106 4422 
C 2010 3731 1850 3078 1645 2490 
C 1357 2957 1037 3418 730 3821 
L 365 3578 
z
" transform="scale(0.015625)"/>
      <path id="NotoSansCJKjp-Regular-6d4b" d="M 3110 589 
C 3437 269 3814 -179 3994 -467 
L 4307 -250 
C 4122 26 3738 461 3411 774 
L 3110 589 
z
M 1997 5005 
L 1997 986 
L 2374 986 
L 2374 4634 
L 3763 4634 
L 3763 1005 
L 4154 1005 
L 4154 5005 
L 1997 5005 
z
M 5549 5293 
L 5549 45 
C 5549 -51 5510 -83 5421 -83 
C 5331 -90 5030 -90 4691 -83 
C 4749 -198 4813 -384 4832 -486 
C 5280 -493 5555 -480 5722 -410 
C 5882 -339 5946 -218 5946 45 
L 5946 5293 
L 5549 5293 
z
M 4672 4800 
L 4672 966 
L 5056 966 
L 5056 4800 
L 4672 4800 
z
M 2854 4179 
L 2854 1914 
C 2854 1139 2726 339 1658 -205 
C 1728 -262 1850 -422 1894 -499 
C 3046 83 3226 1050 3226 1907 
L 3226 4179 
L 2854 4179 
z
M 518 4966 
C 877 4768 1338 4461 1555 4256 
L 1850 4646 
C 1619 4838 1152 5120 806 5306 
L 518 4966 
z
M 243 3238 
C 595 3040 1062 2752 1293 2560 
L 1581 2944 
C 1338 3130 864 3405 518 3584 
L 243 3238 
z
M 371 -173 
L 806 -429 
C 1075 160 1395 947 1626 1619 
L 1242 1869 
C 986 1152 627 320 371 -173 
z
" transform="scale(0.015625)"/>
      <path id="NotoSansCJKjp-Regular-ff0c" d="M 1005 -685 
C 1677 -448 2112 77 2112 768 
C 2112 1216 1920 1504 1568 1504 
C 1306 1504 1082 1344 1082 1043 
C 1082 742 1299 589 1562 589 
L 1670 602 
C 1638 160 1357 -141 864 -346 
L 1005 -685 
z
" transform="scale(0.015625)"/>
      <path id="NotoSansCJKjp-Regular-7c97" d="M 403 4896 
C 570 4448 717 3859 749 3475 
L 1133 3571 
C 1088 3955 934 4538 755 4986 
L 403 4896 
z
M 2432 5011 
C 2336 4570 2150 3936 2003 3552 
L 2323 3450 
C 2496 3814 2694 4416 2854 4896 
L 2432 5011 
z
M 358 3226 
L 358 2778 
L 1267 2778 
C 1043 2067 640 1222 262 774 
C 346 653 461 448 512 307 
C 813 717 1126 1382 1363 2042 
L 1363 -506 
L 1818 -506 
L 1818 2086 
C 2054 1728 2342 1280 2458 1050 
L 2778 1440 
C 2630 1632 2029 2394 1818 2630 
L 1818 2778 
L 2778 2778 
L 2778 3226 
L 1818 3226 
L 1818 5363 
L 1363 5363 
L 1363 3226 
L 358 3226 
z
M 3603 3021 
L 5114 3021 
L 5114 1798 
L 3603 1798 
L 3603 3021 
z
M 3603 3456 
L 3603 4672 
L 5114 4672 
L 5114 3456 
L 3603 3456 
z
M 3603 1357 
L 5114 1357 
L 5114 96 
L 3603 96 
L 3603 1357 
z
M 3142 5120 
L 3142 96 
L 2451 96 
L 2451 -352 
L 6144 -352 
L 6144 96 
L 5600 96 
L 5600 5120 
L 3142 5120 
z
" transform="scale(0.015625)"/>
      <path id="NotoSansCJKjp-Regular-5404" d="M 1299 1779 
L 1299 -538 
L 1779 -538 
L 1779 -237 
L 4589 -237 
L 4589 -518 
L 5094 -518 
L 5094 1779 
L 1299 1779 
z
M 1779 192 
L 1779 1338 
L 4589 1338 
L 4589 192 
L 1779 192 
z
M 2394 5427 
C 1939 4640 1165 3923 358 3475 
C 467 3398 646 3213 723 3123 
C 1069 3341 1421 3610 1747 3923 
C 2048 3578 2406 3264 2797 2982 
C 1978 2541 1037 2214 186 2042 
C 269 1939 378 1741 422 1613 
C 1350 1824 2355 2189 3238 2694 
C 4032 2208 4947 1850 5888 1638 
C 5958 1766 6093 1971 6202 2074 
C 5312 2246 4435 2560 3680 2970 
C 4326 3398 4877 3917 5254 4512 
L 4922 4730 
L 4838 4704 
L 2464 4704 
C 2605 4883 2739 5075 2854 5267 
L 2394 5427 
z
M 2054 4224 
L 2106 4282 
L 4480 4282 
C 4160 3891 3725 3546 3232 3238 
C 2771 3533 2368 3866 2054 4224 
z
" transform="scale(0.015625)"/>
      <path id="NotoSansCJKjp-Regular-7ec4" d="M 307 371 
L 403 -90 
C 1005 64 1805 269 2566 467 
L 2522 877 
C 1702 678 858 486 307 371 
z
M 3078 5056 
L 3078 70 
L 2432 70 
L 2432 -371 
L 6138 -371 
L 6138 70 
L 5581 70 
L 5581 5056 
L 3078 5056 
z
M 3539 70 
L 3539 1325 
L 5107 1325 
L 5107 70 
L 3539 70 
z
M 3539 2982 
L 5107 2982 
L 5107 1754 
L 3539 1754 
L 3539 2982 
z
M 3539 3424 
L 3539 4614 
L 5107 4614 
L 5107 3424 
L 3539 3424 
z
M 422 2707 
C 518 2752 672 2797 1549 2906 
C 1242 2483 960 2144 832 2016 
C 621 1779 454 1619 314 1594 
C 371 1478 442 1261 467 1165 
C 602 1242 826 1306 2566 1658 
C 2560 1754 2560 1933 2573 2054 
L 1165 1798 
C 1696 2368 2214 3072 2656 3782 
L 2272 4019 
C 2138 3782 1990 3552 1843 3328 
L 915 3226 
C 1325 3776 1722 4486 2035 5178 
L 1600 5376 
C 1312 4602 806 3763 653 3552 
C 506 3334 384 3181 269 3155 
C 320 3027 397 2803 422 2707 
z
" transform="scale(0.015625)"/>
      <path id="NotoSansCJKjp-Regular-4f4d" d="M 2630 3155 
C 2867 2304 3066 1190 3110 544 
L 3578 646 
C 3526 1280 3302 2381 3059 3232 
L 2630 3155 
z
M 2106 4115 
L 2106 3661 
L 6016 3661 
L 6016 4115 
L 4250 4115 
L 4250 5299 
L 3770 5299 
L 3770 4115 
L 2106 4115 
z
M 1946 243 
L 1946 -211 
L 6176 -211 
L 6176 243 
L 4634 243 
C 4928 1043 5261 2246 5485 3194 
L 4966 3283 
C 4800 2362 4461 1056 4166 243 
L 1946 243 
z
M 1773 5357 
C 1395 4390 774 3443 128 2835 
C 211 2720 352 2470 397 2355 
C 640 2598 877 2880 1107 3194 
L 1107 -493 
L 1568 -493 
L 1568 3891 
C 1818 4314 2048 4762 2227 5216 
L 1773 5357 
z
" transform="scale(0.015625)"/>
      <path id="NotoSansCJKjp-Regular-7ed3" d="M 224 339 
L 307 -154 
C 941 -13 1792 166 2598 352 
L 2560 794 
C 1702 621 819 435 224 339 
z
M 358 2733 
C 454 2778 614 2810 1427 2906 
C 1139 2502 870 2182 749 2061 
C 538 1830 390 1677 243 1645 
C 301 1517 378 1280 403 1178 
C 557 1261 787 1312 2573 1638 
C 2560 1741 2541 1933 2547 2061 
L 1120 1830 
C 1638 2387 2144 3066 2579 3757 
L 2138 4026 
C 2016 3795 1875 3565 1728 3341 
L 877 3270 
C 1254 3802 1626 4480 1914 5133 
L 1421 5338 
C 1165 4589 704 3795 557 3590 
C 422 3386 307 3238 192 3213 
C 250 3078 333 2835 358 2733 
z
M 4090 5382 
L 4090 4518 
L 2611 4518 
L 2611 4058 
L 4090 4058 
L 4090 3059 
L 2771 3059 
L 2771 2598 
L 5926 2598 
L 5926 3059 
L 4582 3059 
L 4582 4058 
L 6035 4058 
L 6035 4518 
L 4582 4518 
L 4582 5382 
L 4090 5382 
z
M 2938 1946 
L 2938 -506 
L 3405 -506 
L 3405 -230 
L 5286 -230 
L 5286 -480 
L 5766 -480 
L 5766 1946 
L 2938 1946 
z
M 3405 205 
L 3405 1510 
L 5286 1510 
L 5286 205 
L 3405 205 
z
" transform="scale(0.015625)"/>
      <path id="NotoSansCJKjp-Regular-6784" d="M 3341 5376 
C 3181 4723 2931 4090 2618 3578 
L 2618 4006 
L 1766 4006 
L 1766 5376 
L 1306 5376 
L 1306 4006 
L 307 4006 
L 307 3546 
L 1242 3546 
C 1024 2694 576 1702 147 1184 
C 224 1069 346 870 397 742 
C 730 1171 1056 1882 1306 2605 
L 1306 -506 
L 1766 -506 
L 1766 2483 
C 1990 2176 2266 1779 2381 1568 
L 2682 1958 
C 2547 2138 1958 2842 1766 3046 
L 1766 3546 
L 2598 3546 
C 2483 3354 2349 3174 2214 3021 
C 2336 2950 2534 2797 2618 2720 
C 2874 3034 3110 3430 3322 3878 
L 5530 3878 
C 5446 1254 5350 275 5158 51 
C 5094 -32 5030 -51 4915 -45 
C 4781 -45 4474 -45 4128 -13 
C 4211 -154 4269 -358 4282 -493 
C 4595 -512 4915 -518 5107 -493 
C 5318 -467 5453 -416 5587 -237 
C 5824 77 5914 1069 6010 4077 
C 6010 4141 6010 4326 6010 4326 
L 3514 4326 
C 3629 4627 3738 4947 3827 5267 
L 3341 5376 
z
M 2432 1248 
L 2541 794 
L 4589 1101 
C 4646 928 4698 774 4723 640 
L 5126 794 
C 5030 1184 4749 1811 4474 2298 
L 4102 2170 
C 4224 1958 4339 1709 4442 1466 
L 3392 1344 
C 3603 1901 3827 2662 4000 3283 
L 3533 3386 
C 3411 2765 3168 1875 2950 1299 
L 2432 1248 
z
" transform="scale(0.015625)"/>
      <path id="NotoSansCJKjp-Regular-3002" d="M 1242 1562 
C 710 1562 269 1126 269 589 
C 269 45 710 -390 1242 -390 
C 1786 -390 2221 45 2221 589 
C 2221 1126 1786 1562 1242 1562 
z
M 1242 -64 
C 890 -64 595 224 595 589 
C 595 941 890 1235 1242 1235 
C 1606 1235 1894 941 1894 589 
C 1894 224 1606 -64 1242 -64 
z
" transform="scale(0.015625)"/>
     </defs>
     <use xlink:href="#NotoSansCJKjp-Regular-6d45"/>
     <use xlink:href="#NotoSansCJKjp-Regular-7ebf" transform="translate(99.999985 0)"/>
     <use xlink:href="#NotoSansCJKjp-Regular-4e3a" transform="translate(199.999969 0)"/>
     <use xlink:href="#NotoSansCJKjp-Regular-4ee3" transform="translate(299.999954 0)"/>
     <use xlink:href="#NotoSansCJKjp-Regular-8868" transform="translate(399.999939 0)"/>
     <use xlink:href="#NotoSansCJKjp-Regular-6027" transform="translate(499.999924 0)"/>
     <use xlink:href="#NotoSansCJKjp-Regular-7701" transform="translate(599.999908 0)"/>
     <use xlink:href="#NotoSansCJKjp-Regular-2014" transform="translate(699.999893 0)"/>
     <use xlink:href="#NotoSansCJKjp-Regular-5e74" transform="translate(789.399887 0)"/>
     <use xlink:href="#NotoSansCJKjp-Regular-89c2" transform="translate(889.399872 0)"/>
     <use xlink:href="#NotoSansCJKjp-Regular-6d4b" transform="translate(989.399857 0)"/>
     <use xlink:href="#NotoSansCJKjp-Regular-ff0c" transform="translate(1089.399841 0)"/>
     <use xlink:href="#NotoSansCJKjp-Regular-7c97" transform="translate(1189.399826 0)"/>
     <use xlink:href="#NotoSansCJKjp-Regular-7ebf" transform="translate(1289.399811 0)"/>
     <use xlink:href="#NotoSansCJKjp-Regular-4e3a" transform="translate(1389.399796 0)"/>
     <use xlink:href="#NotoSansCJKjp-Regular-5404" transform="translate(1489.39978 0)"/>
     <use xlink:href="#NotoSansCJKjp-Regular-6cbb" transform="translate(1589.399765 0)"/>
     <use xlink:href="#NotoSansCJKjp-Regular-7406" transform="translate(1689.39975 0)"/>
     <use xlink:href="#NotoSansCJKjp-Regular-80fd" transform="translate(1789.399734 0)"/>
     <use xlink:href="#NotoSansCJKjp-Regular-529b" transform="translate(1889.399719 0)"/>
     <use xlink:href="#NotoSansCJKjp-Regular-7ec4" transform="translate(1989.399704 0)"/>
     <use xlink:href="#NotoSansCJKjp-Regular-4e2d" transform="translate(2089.399689 0)"/>
     <use xlink:href="#NotoSansCJKjp-Regular-4f4d" transform="translate(2189.399673 0)"/>
     <use xlink:href="#NotoSansCJKjp-Regular-7ed3" transform="translate(2289.399658 0)"/>
     <use xlink:href="#NotoSansCJKjp-Regular-6784" transform="translate(2389.399643 0)"/>
     <use xlink:href="#NotoSansCJKjp-Regular-3002" transform="translate(2489.399628 0)"/>
    </g>
   </g>
   <g id="text_15">
    <!-- 图4-8 综合治理能力指数的多维结构图 -->
    <g transform="translate(337.087266 19.169531) scale(0.15 -0.15)">
     <defs>
      <path id="NotoSansCJKjp-Bold-56fe" d="M 461 5190 
L 461 -576 
L 1197 -576 
L 1197 -346 
L 5178 -346 
L 5178 -576 
L 5952 -576 
L 5952 5190 
L 461 5190 
z
M 1702 890 
C 2560 794 3616 550 4256 326 
L 1197 326 
L 1197 2234 
C 1306 2080 1421 1862 1472 1715 
C 1824 1798 2176 1907 2528 2042 
L 2291 1709 
C 2829 1600 3507 1370 3885 1190 
L 4198 1664 
C 3834 1824 3232 2010 2720 2118 
C 2893 2195 3072 2272 3238 2362 
C 3731 2112 4282 1920 4838 1798 
C 4909 1939 5050 2138 5178 2278 
L 5178 326 
L 4339 326 
L 4666 845 
C 4006 1062 2925 1299 2048 1389 
L 1702 890 
z
M 2586 4506 
C 2278 4038 1741 3578 1222 3290 
C 1370 3181 1613 2957 1728 2829 
C 1856 2912 1984 3008 2118 3117 
C 2259 2989 2413 2867 2573 2752 
C 2138 2579 1658 2438 1197 2349 
L 1197 4506 
L 2586 4506 
z
M 2656 4506 
L 5178 4506 
L 5178 2381 
C 4736 2464 4288 2586 3885 2739 
C 4320 3040 4691 3392 4954 3789 
L 4525 4045 
L 4416 4013 
L 3008 4013 
C 3085 4109 3162 4211 3226 4307 
L 2656 4506 
z
M 3213 3046 
C 2982 3168 2778 3302 2605 3450 
L 3840 3450 
C 3661 3302 3443 3168 3213 3046 
z
" transform="scale(0.015625)"/>
      <path id="NotoSansCJKjp-Bold-34" d="M 2157 0 
L 3034 0 
L 3034 1229 
L 3597 1229 
L 3597 1946 
L 3034 1946 
L 3034 4742 
L 1901 4742 
L 134 1869 
L 134 1229 
L 2157 1229 
L 2157 0 
z
M 2157 1946 
L 1050 1946 
L 1786 3123 
C 1920 3379 2048 3642 2163 3898 
L 2195 3898 
C 2176 3616 2157 3187 2157 2912 
L 2157 1946 
z
" transform="scale(0.015625)"/>
      <path id="NotoSansCJKjp-Bold-2d" d="M 314 1491 
L 2061 1491 
L 2061 2170 
L 314 2170 
L 314 1491 
z
" transform="scale(0.015625)"/>
      <path id="NotoSansCJKjp-Bold-38" d="M 1888 -90 
C 2842 -90 3482 461 3482 1178 
C 3482 1824 3123 2208 2682 2445 
L 2682 2477 
C 2989 2701 3290 3091 3290 3558 
C 3290 4314 2752 4819 1914 4819 
C 1088 4819 486 4333 486 3565 
C 486 3066 749 2707 1114 2445 
L 1114 2413 
C 672 2182 301 1786 301 1178 
C 301 435 973 -90 1888 -90 
z
M 2182 2707 
C 1690 2906 1318 3123 1318 3565 
C 1318 3949 1574 4160 1894 4160 
C 2291 4160 2522 3885 2522 3501 
C 2522 3219 2413 2944 2182 2707 
z
M 1907 576 
C 1466 576 1114 851 1114 1280 
C 1114 1638 1293 1952 1549 2163 
C 2163 1901 2605 1702 2605 1210 
C 2605 800 2310 576 1907 576 
z
" transform="scale(0.015625)"/>
      <path id="NotoSansCJKjp-Bold-20" transform="scale(0.015625)"/>
      <path id="NotoSansCJKjp-Bold-7efc" d="M 4909 1152 
C 5171 723 5472 154 5600 -198 
L 6291 109 
C 6150 461 5830 1011 5555 1421 
L 4909 1152 
z
M 371 2643 
C 474 2694 627 2733 1216 2803 
C 998 2477 800 2234 704 2125 
C 506 1894 358 1747 198 1715 
C 275 1536 390 1216 422 1082 
C 576 1178 826 1248 2278 1530 
C 2272 1690 2278 1971 2304 2170 
L 1395 2022 
C 1798 2515 2189 3078 2509 3642 
L 2509 3469 
L 3085 3469 
L 3085 2848 
L 5510 2848 
L 5510 3469 
L 6099 3469 
L 6099 4704 
L 4845 4704 
C 4774 4941 4646 5248 4512 5491 
L 3770 5312 
C 3859 5133 3949 4909 4013 4704 
L 2509 4704 
L 2509 3763 
L 1978 4102 
C 1869 3878 1747 3648 1619 3437 
L 1043 3392 
C 1402 3910 1747 4531 1990 5126 
L 1312 5446 
C 1082 4698 653 3891 512 3693 
C 378 3482 269 3347 134 3315 
C 224 3130 333 2784 371 2643 
z
M 3232 3507 
L 3232 4051 
L 5338 4051 
L 5338 3507 
L 3232 3507 
z
M 2470 2349 
L 2470 1683 
L 3987 1683 
L 3987 218 
C 3987 147 3962 128 3878 128 
C 3808 128 3546 128 3315 134 
C 3411 -64 3501 -346 3526 -544 
C 3930 -550 4224 -538 4454 -435 
C 4678 -326 4736 -141 4736 198 
L 4736 1683 
L 6118 1683 
L 6118 2349 
L 2470 2349 
z
M 211 435 
L 346 -294 
L 2176 205 
L 2157 186 
C 2330 83 2630 -128 2771 -250 
C 3085 109 3488 691 3750 1184 
L 3046 1414 
C 2886 1088 2637 723 2387 435 
L 2330 902 
C 1542 723 742 538 211 435 
z
" transform="scale(0.015625)"/>
      <path id="NotoSansCJKjp-Bold-5408" d="M 1606 3142 
L 1606 2694 
L 4813 2694 
L 4813 3142 
C 5133 2906 5472 2701 5798 2528 
C 5933 2765 6112 3021 6298 3219 
C 5274 3629 4237 4448 3546 5427 
L 2746 5427 
C 2272 4640 1235 3674 128 3136 
C 294 2976 512 2694 614 2515 
C 954 2701 1293 2912 1606 3142 
z
M 3181 4678 
C 3494 4250 3968 3789 4499 3373 
L 1907 3373 
C 2432 3789 2880 4250 3181 4678 
z
M 1184 2054 
L 1184 -582 
L 1939 -582 
L 1939 -346 
L 4474 -346 
L 4474 -582 
L 5267 -582 
L 5267 2054 
L 1184 2054 
z
M 1939 333 
L 1939 1382 
L 4474 1382 
L 4474 333 
L 1939 333 
z
" transform="scale(0.015625)"/>
      <path id="NotoSansCJKjp-Bold-6cbb" d="M 570 4845 
C 992 4659 1517 4358 1766 4128 
L 2221 4774 
C 1946 4998 1408 5267 992 5421 
L 570 4845 
z
M 179 3098 
C 602 2931 1146 2643 1395 2419 
L 1850 3072 
C 1568 3290 1011 3546 602 3686 
L 179 3098 
z
M 397 19 
L 1056 -493 
C 1440 134 1837 864 2163 1536 
L 1594 2042 
C 1210 1299 736 506 397 19 
z
M 2445 2106 
L 2445 -570 
L 3194 -570 
L 3194 -307 
L 4896 -307 
L 4896 -550 
L 5677 -550 
L 5677 2106 
L 2445 2106 
z
M 3194 397 
L 3194 1402 
L 4896 1402 
L 4896 397 
L 3194 397 
z
M 3296 5446 
C 3136 4800 2835 3962 2541 3334 
L 1920 3309 
L 2010 2534 
C 2886 2598 4109 2682 5286 2771 
C 5395 2579 5485 2400 5549 2246 
L 6259 2643 
C 6016 3174 5498 3942 4986 4518 
L 4314 4186 
C 4493 3968 4685 3718 4858 3456 
L 3366 3373 
C 3648 3942 3942 4627 4186 5254 
L 3296 5446 
z
" transform="scale(0.015625)"/>
      <path id="NotoSansCJKjp-Bold-7406" d="M 3290 3373 
L 3949 3373 
L 3949 2829 
L 3290 2829 
L 3290 3373 
z
M 4595 3373 
L 5222 3373 
L 5222 2829 
L 4595 2829 
L 4595 3373 
z
M 3290 4518 
L 3949 4518 
L 3949 3981 
L 3290 3981 
L 3290 4518 
z
M 4595 4518 
L 5222 4518 
L 5222 3981 
L 4595 3981 
L 4595 4518 
z
M 2106 326 
L 2106 -371 
L 6240 -371 
L 6240 326 
L 4666 326 
L 4666 934 
L 6022 934 
L 6022 1626 
L 4666 1626 
L 4666 2176 
L 5958 2176 
L 5958 5165 
L 2592 5165 
L 2592 2176 
L 3878 2176 
L 3878 1626 
L 2554 1626 
L 2554 934 
L 3878 934 
L 3878 326 
L 2106 326 
z
M 154 794 
L 326 13 
C 941 211 1715 467 2426 710 
L 2291 1440 
L 1670 1242 
L 1670 2522 
L 2246 2522 
L 2246 3226 
L 1670 3226 
L 1670 4358 
L 2355 4358 
L 2355 5069 
L 230 5069 
L 230 4358 
L 934 4358 
L 934 3226 
L 288 3226 
L 288 2522 
L 934 2522 
L 934 1018 
L 154 794 
z
" transform="scale(0.015625)"/>
      <path id="NotoSansCJKjp-Bold-80fd" d="M 2035 4768 
C 2138 4608 2240 4422 2336 4243 
L 1478 4205 
C 1645 4544 1818 4928 1965 5299 
L 1165 5466 
C 1062 5075 877 4576 691 4173 
L 192 4154 
L 256 3424 
L 2637 3578 
C 2688 3456 2726 3341 2752 3238 
L 3456 3514 
C 3334 3936 2995 4544 2682 5011 
L 2035 4768 
z
M 2240 2496 
L 2240 2157 
L 1286 2157 
L 1286 2496 
L 2240 2496 
z
M 576 3123 
L 576 -563 
L 1286 -563 
L 1286 646 
L 2240 646 
L 2240 218 
C 2240 141 2221 122 2138 122 
C 2054 115 1805 109 1574 122 
C 1670 -58 1786 -358 1824 -557 
C 2208 -557 2502 -550 2720 -429 
C 2938 -320 3002 -128 3002 205 
L 3002 3123 
L 576 3123 
z
M 1286 1587 
L 2240 1587 
L 2240 1216 
L 1286 1216 
L 1286 1587 
z
M 5427 5037 
C 5126 4858 4704 4666 4269 4499 
L 4269 5414 
L 3507 5414 
L 3507 3482 
C 3507 2771 3693 2547 4448 2547 
C 4595 2547 5165 2547 5325 2547 
C 5920 2547 6125 2778 6208 3610 
C 5997 3654 5683 3776 5530 3898 
C 5504 3328 5459 3232 5254 3232 
C 5120 3232 4659 3232 4550 3232 
C 4314 3232 4269 3264 4269 3488 
L 4269 3872 
C 4826 4038 5427 4243 5914 4480 
L 5427 5037 
z
M 5472 2157 
C 5165 1952 4723 1734 4269 1555 
L 4269 2419 
L 3507 2419 
L 3507 397 
C 3507 -307 3699 -531 4448 -531 
C 4608 -531 5197 -531 5363 -531 
C 5978 -531 6176 -275 6259 627 
C 6054 678 5747 794 5587 915 
C 5555 256 5517 141 5286 141 
C 5152 141 4666 141 4563 141 
C 4314 141 4269 173 4269 403 
L 4269 915 
C 4851 1094 5485 1325 5978 1594 
L 5472 2157 
z
" transform="scale(0.015625)"/>
      <path id="NotoSansCJKjp-Bold-529b" d="M 2445 5427 
L 2445 4102 
L 480 4102 
L 480 3315 
L 2413 3315 
C 2304 2195 1875 883 282 19 
C 467 -122 755 -416 883 -608 
C 2682 410 3136 1984 3238 3315 
L 5037 3315 
C 4941 1402 4813 557 4608 358 
C 4525 275 4448 256 4314 256 
C 4141 256 3763 256 3360 288 
C 3507 70 3616 -275 3622 -506 
C 4013 -518 4416 -525 4653 -486 
C 4934 -454 5120 -384 5312 -141 
C 5600 205 5722 1171 5856 3738 
C 5862 3840 5869 4102 5869 4102 
L 3264 4102 
L 3264 5427 
L 2445 5427 
z
" transform="scale(0.015625)"/>
      <path id="NotoSansCJKjp-Bold-6307" d="M 5248 5158 
C 4826 4960 4179 4755 3539 4595 
L 3539 5434 
L 2771 5434 
L 2771 3686 
C 2771 2950 3008 2733 3904 2733 
C 4083 2733 4954 2733 5146 2733 
C 5882 2733 6106 2976 6202 3885 
C 5990 3923 5670 4045 5504 4160 
C 5459 3526 5408 3424 5094 3424 
C 4877 3424 4147 3424 3974 3424 
C 3603 3424 3539 3456 3539 3693 
L 3539 3968 
C 4307 4122 5165 4339 5818 4602 
L 5248 5158 
z
M 3488 742 
L 5126 742 
L 5126 320 
L 3488 320 
L 3488 742 
z
M 3488 1338 
L 3488 1734 
L 5126 1734 
L 5126 1338 
L 3488 1338 
z
M 2758 2362 
L 2758 -570 
L 3488 -570 
L 3488 -294 
L 5126 -294 
L 5126 -538 
L 5888 -538 
L 5888 2362 
L 2758 2362 
z
M 1037 5440 
L 1037 4230 
L 237 4230 
L 237 3520 
L 1037 3520 
L 1037 2374 
L 141 2170 
L 320 1434 
L 1037 1619 
L 1037 250 
C 1037 160 998 134 915 128 
C 832 128 570 128 320 141 
C 410 -58 506 -371 531 -563 
C 986 -563 1286 -544 1504 -429 
C 1722 -307 1786 -122 1786 256 
L 1786 1824 
L 2547 2029 
L 2451 2733 
L 1786 2560 
L 1786 3520 
L 2445 3520 
L 2445 4230 
L 1786 4230 
L 1786 5440 
L 1037 5440 
z
" transform="scale(0.015625)"/>
      <path id="NotoSansCJKjp-Bold-6570" d="M 3917 5440 
C 3770 4294 3456 3200 2918 2541 
C 3053 2445 3277 2246 3424 2099 
L 3520 1997 
C 3629 2138 3725 2291 3821 2464 
C 3936 2003 4077 1574 4250 1190 
C 3968 794 3603 474 3123 224 
C 2970 333 2790 448 2592 563 
C 2746 813 2861 1114 2931 1478 
L 3424 1478 
L 3424 2099 
L 1901 2099 
L 2054 2406 
L 1779 2464 
L 2189 2464 
L 2189 3245 
C 2438 3046 2714 2822 2854 2682 
L 3258 3213 
C 3123 3309 2669 3578 2355 3750 
L 3405 3750 
L 3405 4358 
L 2797 4358 
C 2957 4550 3149 4832 3347 5101 
L 2701 5363 
C 2605 5120 2419 4768 2278 4544 
L 2701 4358 
L 2189 4358 
L 2189 5440 
L 1485 5440 
L 1485 4358 
L 954 4358 
L 1363 4538 
C 1306 4762 1139 5088 973 5331 
L 422 5101 
C 557 4870 698 4576 755 4358 
L 262 4358 
L 262 3750 
L 1261 3750 
C 960 3418 525 3110 134 2950 
C 275 2810 442 2560 525 2394 
C 845 2573 1190 2835 1485 3130 
L 1485 2522 
L 1344 2554 
L 1126 2099 
L 192 2099 
L 192 1478 
L 806 1478 
C 646 1171 486 883 346 659 
L 1018 454 
L 1088 576 
L 1446 403 
C 1139 230 736 122 218 51 
C 346 -102 480 -365 525 -582 
C 1210 -442 1728 -256 2106 32 
C 2368 -134 2598 -301 2771 -454 
L 3066 -160 
C 3168 -314 3270 -486 3315 -595 
C 3872 -320 4314 26 4666 448 
C 4954 38 5306 -307 5747 -563 
C 5862 -352 6106 -51 6278 102 
C 5811 346 5440 710 5146 1165 
C 5491 1818 5709 2611 5843 3571 
L 6202 3571 
L 6202 4282 
L 4493 4282 
C 4576 4621 4640 4973 4698 5331 
L 3917 5440 
z
M 1581 1478 
L 2202 1478 
C 2144 1248 2067 1056 1965 896 
C 1779 979 1587 1062 1402 1139 
L 1581 1478 
z
M 5050 3571 
C 4979 3002 4864 2496 4704 2061 
C 4525 2522 4397 3027 4307 3571 
L 5050 3571 
z
" transform="scale(0.015625)"/>
      <path id="NotoSansCJKjp-Bold-7684" d="M 3430 2598 
C 3744 2131 4141 1498 4320 1107 
L 4973 1504 
C 4774 1882 4346 2496 4032 2938 
L 3430 2598 
z
M 3744 5434 
C 3558 4672 3251 3898 2880 3347 
L 2880 4397 
L 1888 4397 
C 1997 4666 2112 4998 2214 5318 
L 1382 5440 
C 1357 5133 1280 4717 1197 4397 
L 467 4397 
L 467 -384 
L 1165 -384 
L 1165 90 
L 2880 90 
L 2880 3098 
C 3053 2989 3270 2829 3379 2726 
C 3578 3002 3770 3354 3942 3744 
L 5318 3744 
C 5254 1478 5171 512 4973 307 
C 4896 218 4826 198 4698 198 
C 4531 198 4147 198 3738 237 
C 3872 26 3974 -301 3987 -512 
C 4365 -525 4755 -531 4998 -499 
C 5261 -454 5440 -384 5613 -141 
C 5882 198 5952 1222 6035 4102 
C 6042 4192 6042 4448 6042 4448 
L 4230 4448 
C 4326 4717 4416 4992 4486 5261 
L 3744 5434 
z
M 1165 3731 
L 2189 3731 
L 2189 2688 
L 1165 2688 
L 1165 3731 
z
M 1165 762 
L 1165 2022 
L 2189 2022 
L 2189 762 
L 1165 762 
z
" transform="scale(0.015625)"/>
      <path id="NotoSansCJKjp-Bold-591a" d="M 2758 5459 
C 2317 4934 1523 4390 390 4026 
C 557 3904 794 3635 902 3456 
C 1165 3558 1414 3674 1645 3789 
C 1939 3629 2266 3418 2496 3238 
C 1837 2938 1088 2726 339 2605 
C 474 2438 621 2144 691 1946 
C 1754 2163 2803 2528 3667 3091 
C 3149 2534 2285 1984 1050 1619 
C 1210 1485 1427 1203 1517 1018 
C 1850 1139 2157 1267 2438 1402 
C 2758 1216 3142 947 3386 730 
C 2662 403 1798 218 870 122 
C 998 -58 1146 -371 1203 -576 
C 3405 -275 5254 486 6029 2394 
L 5523 2656 
L 5389 2624 
L 4230 2624 
C 4371 2765 4506 2906 4634 3053 
L 3866 3232 
C 4416 3629 4877 4109 5190 4698 
L 4698 4992 
L 4570 4954 
L 3290 4954 
C 3398 5056 3501 5165 3597 5280 
L 2758 5459 
z
M 3174 3597 
C 2963 3770 2618 3994 2291 4160 
L 2534 4326 
L 4064 4326 
C 3821 4051 3520 3808 3174 3597 
z
M 4077 1114 
C 3853 1325 3462 1581 3117 1773 
L 3443 1984 
L 4960 1984 
C 4730 1638 4429 1350 4077 1114 
z
" transform="scale(0.015625)"/>
      <path id="NotoSansCJKjp-Bold-7ef4" d="M 211 435 
L 352 -294 
C 998 -115 1837 102 2637 314 
L 2554 954 
C 1696 755 794 544 211 435 
z
M 371 2643 
C 467 2694 621 2733 1190 2797 
C 979 2490 800 2246 704 2144 
C 499 1907 358 1760 198 1722 
C 275 1549 390 1222 422 1082 
C 589 1178 858 1254 2445 1562 
C 2432 1715 2445 2003 2464 2202 
L 1389 2022 
C 1824 2560 2246 3187 2586 3808 
L 1990 4179 
C 1869 3930 1734 3674 1587 3430 
L 1050 3392 
C 1408 3910 1754 4544 1997 5139 
L 1306 5459 
C 1082 4710 653 3904 512 3706 
C 371 3494 269 3354 134 3322 
C 218 3136 333 2784 371 2643 
z
M 4429 2362 
L 4429 1818 
L 3648 1818 
L 3648 2362 
L 4429 2362 
z
M 4250 5139 
C 4410 4883 4563 4544 4646 4294 
L 3821 4294 
C 3955 4602 4077 4909 4179 5203 
L 3443 5414 
C 3245 4678 2816 3706 2330 3123 
C 2438 2944 2598 2598 2662 2406 
C 2752 2509 2842 2611 2925 2726 
L 2925 -582 
L 3648 -582 
L 3648 -160 
L 6189 -160 
L 6189 550 
L 5139 550 
L 5139 1133 
L 5965 1133 
L 5965 1818 
L 5139 1818 
L 5139 2362 
L 5952 2362 
L 5952 3046 
L 5139 3046 
L 5139 3603 
L 6106 3603 
L 6106 4294 
L 4883 4294 
L 5357 4512 
C 5274 4762 5088 5126 4902 5408 
L 4250 5139 
z
M 4429 3046 
L 3648 3046 
L 3648 3603 
L 4429 3603 
L 4429 3046 
z
M 4429 1133 
L 4429 550 
L 3648 550 
L 3648 1133 
L 4429 1133 
z
" transform="scale(0.015625)"/>
      <path id="NotoSansCJKjp-Bold-7ed3" d="M 166 467 
L 288 -320 
C 973 -173 1869 0 2707 186 
L 2643 902 
C 1747 736 800 563 166 467 
z
M 365 2682 
C 474 2726 634 2771 1210 2835 
C 992 2547 806 2323 704 2227 
C 486 1997 346 1862 166 1824 
C 256 1613 384 1242 422 1088 
C 608 1184 896 1261 2637 1568 
C 2611 1734 2592 2029 2598 2234 
L 1491 2067 
C 1946 2573 2387 3162 2746 3750 
L 2067 4192 
C 1952 3968 1818 3738 1683 3520 
L 1139 3482 
C 1498 3962 1843 4550 2099 5120 
L 1306 5446 
C 1069 4730 640 3981 499 3789 
C 358 3597 243 3469 102 3430 
C 198 3219 326 2842 365 2682 
z
M 3981 5440 
L 3981 4653 
L 2630 4653 
L 2630 3917 
L 3981 3917 
L 3981 3213 
L 2803 3213 
L 2803 2483 
L 5965 2483 
L 5965 3213 
L 4781 3213 
L 4781 3917 
L 6118 3917 
L 6118 4653 
L 4781 4653 
L 4781 5440 
L 3981 5440 
z
M 2957 2010 
L 2957 -570 
L 3706 -570 
L 3706 -294 
L 5062 -294 
L 5062 -544 
L 5850 -544 
L 5850 2010 
L 2957 2010 
z
M 3706 397 
L 3706 1318 
L 5062 1318 
L 5062 397 
L 3706 397 
z
" transform="scale(0.015625)"/>
      <path id="NotoSansCJKjp-Bold-6784" d="M 3277 5440 
C 3123 4851 2874 4269 2573 3789 
L 2573 4115 
L 1894 4115 
L 1894 5440 
L 1158 5440 
L 1158 4115 
L 243 4115 
L 243 3392 
L 1062 3392 
C 864 2656 486 1805 96 1312 
C 218 1120 384 806 461 589 
C 723 947 960 1466 1158 2029 
L 1158 -570 
L 1894 -570 
L 1894 2202 
C 2048 1933 2195 1651 2285 1453 
L 2733 2067 
C 2611 2234 2074 2944 1894 3149 
L 1894 3392 
L 2285 3392 
L 2150 3245 
C 2330 3130 2643 2867 2784 2733 
C 3008 3002 3226 3334 3424 3712 
L 5299 3712 
C 5229 1408 5146 486 4973 282 
C 4902 192 4838 166 4723 166 
C 4576 166 4288 166 3962 198 
C 4096 -19 4186 -352 4198 -563 
C 4531 -576 4870 -576 5088 -538 
C 5325 -499 5491 -422 5658 -186 
C 5901 141 5978 1165 6067 4058 
C 6067 4160 6074 4422 6074 4422 
L 3750 4422 
C 3866 4691 3962 4973 4045 5254 
L 3277 5440 
z
M 2394 1357 
L 2554 653 
L 4397 979 
C 4442 826 4474 691 4493 570 
L 5120 787 
C 5043 1203 4787 1850 4525 2349 
L 3942 2163 
C 4032 1978 4122 1773 4205 1568 
L 3552 1491 
C 3731 2010 3917 2669 4064 3258 
L 3322 3405 
C 3232 2797 3040 1978 2861 1408 
L 2394 1357 
z
" transform="scale(0.015625)"/>
     </defs>
     <use xlink:href="#NotoSansCJKjp-Bold-56fe"/>
     <use xlink:href="#NotoSansCJKjp-Bold-34" transform="translate(99.999985 0)"/>
     <use xlink:href="#NotoSansCJKjp-Bold-2d" transform="translate(158.999969 0)"/>
     <use xlink:href="#NotoSansCJKjp-Bold-38" transform="translate(195.999954 0)"/>
     <use xlink:href="#NotoSansCJKjp-Bold-20" transform="translate(254.999939 0)"/>
     <use xlink:href="#NotoSansCJKjp-Bold-7efc" transform="translate(277.699936 0)"/>
     <use xlink:href="#NotoSansCJKjp-Bold-5408" transform="translate(377.699921 0)"/>
     <use xlink:href="#NotoSansCJKjp-Bold-6cbb" transform="translate(477.699905 0)"/>
     <use xlink:href="#NotoSansCJKjp-Bold-7406" transform="translate(577.69989 0)"/>
     <use xlink:href="#NotoSansCJKjp-Bold-80fd" transform="translate(677.699875 0)"/>
     <use xlink:href="#NotoSansCJKjp-Bold-529b" transform="translate(777.69986 0)"/>
     <use xlink:href="#NotoSansCJKjp-Bold-6307" transform="translate(877.699844 0)"/>
     <use xlink:href="#NotoSansCJKjp-Bold-6570" transform="translate(977.699829 0)"/>
     <use xlink:href="#NotoSansCJKjp-Bold-7684" transform="translate(1077.699814 0)"/>
     <use xlink:href="#NotoSansCJKjp-Bold-591a" transform="translate(1177.699799 0)"/>
     <use xlink:href="#NotoSansCJKjp-Bold-7ef4" transform="translate(1277.699783 0)"/>
     <use xlink:href="#NotoSansCJKjp-Bold-7ed3" transform="translate(1377.699768 0)"/>
     <use xlink:href="#NotoSansCJKjp-Bold-6784" transform="translate(1477.699753 0)"/>
     <use xlink:href="#NotoSansCJKjp-Bold-56fe" transform="translate(1577.699738 0)"/>
    </g>
   </g>
   <g id="legend_1">
    <g id="line2d_65">
     <path d="M 33.2 46.628906 
L 43.2 46.628906 
L 53.2 46.628906 
" style="fill: none; stroke: #9e9e9e; stroke-width: 2.8; stroke-linecap: square"/>
    </g>
    <g id="text_16">
     <!-- 低治理能力组中位线 -->
     <g transform="translate(61.2 50.128906) scale(0.1 -0.1)">
      <use xlink:href="#NotoSansCJKjp-Regular-4f4e"/>
      <use xlink:href="#NotoSansCJKjp-Regular-6cbb" transform="translate(99.999985 0)"/>
      <use xlink:href="#NotoSansCJKjp-Regular-7406" transform="translate(199.999969 0)"/>
      <use xlink:href="#NotoSansCJKjp-Regular-80fd" transform="translate(299.999954 0)"/>
      <use xlink:href="#NotoSansCJKjp-Regular-529b" transform="translate(399.999939 0)"/>
      <use xlink:href="#NotoSansCJKjp-Regular-7ec4" transform="translate(499.999924 0)"/>
      <use xlink:href="#NotoSansCJKjp-Regular-4e2d" transform="translate(599.999908 0)"/>
      <use xlink:href="#NotoSansCJKjp-Regular-4f4d" transform="translate(699.999893 0)"/>
      <use xlink:href="#NotoSansCJKjp-Regular-7ebf" transform="translate(799.999878 0)"/>
     </g>
    </g>
    <g id="line2d_66">
     <path d="M 33.2 61.878906 
L 43.2 61.878906 
L 53.2 61.878906 
" style="fill: none; stroke: #6c8ebf; stroke-width: 2.8; stroke-linecap: square"/>
    </g>
    <g id="text_17">
     <!-- 中治理能力组中位线 -->
     <g transform="translate(61.2 65.378906) scale(0.1 -0.1)">
      <use xlink:href="#NotoSansCJKjp-Regular-4e2d"/>
      <use xlink:href="#NotoSansCJKjp-Regular-6cbb" transform="translate(99.999985 0)"/>
      <use xlink:href="#NotoSansCJKjp-Regular-7406" transform="translate(199.999969 0)"/>
      <use xlink:href="#NotoSansCJKjp-Regular-80fd" transform="translate(299.999954 0)"/>
      <use xlink:href="#NotoSansCJKjp-Regular-529b" transform="translate(399.999939 0)"/>
      <use xlink:href="#NotoSansCJKjp-Regular-7ec4" transform="translate(499.999924 0)"/>
      <use xlink:href="#NotoSansCJKjp-Regular-4e2d" transform="translate(599.999908 0)"/>
      <use xlink:href="#NotoSansCJKjp-Regular-4f4d" transform="translate(699.999893 0)"/>
      <use xlink:href="#NotoSansCJKjp-Regular-7ebf" transform="translate(799.999878 0)"/>
     </g>
    </g>
    <g id="line2d_67">
     <path d="M 33.2 77.128906 
L 43.2 77.128906 
L 53.2 77.128906 
" style="fill: none; stroke: #7a1f1f; stroke-width: 2.8; stroke-linecap: square"/>
    </g>
    <g id="text_18">
     <!-- 高治理能力组中位线 -->
     <g transform="translate(61.2 80.628906) scale(0.1 -0.1)">
      <use xlink:href="#NotoSansCJKjp-Regular-9ad8"/>
      <use xlink:href="#NotoSansCJKjp-Regular-6cbb" transform="translate(99.999985 0)"/>
      <use xlink:href="#NotoSansCJKjp-Regular-7406" transform="translate(199.999969 0)"/>
      <use xlink:href="#NotoSansCJKjp-Regular-80fd" transform="translate(299.999954 0)"/>
      <use xlink:href="#NotoSansCJKjp-Regular-529b" transform="translate(399.999939 0)"/>
      <use xlink:href="#NotoSansCJKjp-Regular-7ec4" transform="translate(499.999924 0)"/>
      <use xlink:href="#NotoSansCJKjp-Regular-4e2d" transform="translate(599.999908 0)"/>
      <use xlink:href="#NotoSansCJKjp-Regular-4f4d" transform="translate(699.999893 0)"/>
      <use xlink:href="#NotoSansCJKjp-Regular-7ebf" transform="translate(799.999878 0)"/>
     </g>
    </g>
   </g>
  </g>
 </g>
 <defs>
  <clipPath id="pab66f18108">
   <rect x="24.2" y="33.169531" width="877.43" height="475.08"/>
  </clipPath>
 </defs>
</svg>
